<svg xmlns="http://www.w3.org/2000/svg" viewBox="0 0 289.85 106.08"><defs><style>.cls-1{fill:#da291c}.cls-3{fill:#3c1053}</style></defs><path class="cls-1" d="M62.81 3.26v33.6c0 17-11.4 35.6-29.8 42.9-18.4-7.4-29.8-25.9-29.8-42.9V3.26z"/><path style="fill:#fff" d="m14.31 36.96 18.7-24.7 18.8 24.7-18.8 24.7-18.7-24.7z"/><path class="cls-1" d="M31.31 40.36A80 80 0 0 0 33 55.06a81.39 81.39 0 0 0 1.7-14.7v-1.6h5.7v.4c0 1 .8 2.1 1.7 2.1s1.7-1.1 1.7-2.1v-.4h.4c1 0 2.1-.8 2.1-1.7s-1.1-1.7-2.1-1.7h-.4V35c0-1-.8-2.1-1.7-2.1S40.4 34 40.4 35v.4h-5.6v-6.6h.4c1 0 2.1-.8 2.1-1.7s-1.1-1.7-2.1-1.7h-.4V25c0-1-.8-2.1-1.7-2.1S31.4 24 31.4 25v.4H31c-1 0-2.1.8-2.1 1.7s1.1 1.7 2.1 1.7h.4v6.6h-5.6V35c0-1-.8-2.1-1.7-2.1S22.4 34 22.4 35v.4H22c-1 0-2.1.8-2.1 1.7s1.1 1.7 2.1 1.7h.4v.4c0 1 .8 2.1 1.7 2.1s1.7-1.1 1.7-2.1v-.4h5.6v1.6z"/><g><path class="cls-3" d="M9.71 91.56H8l-4.8 10.7h1.9l1-2.3h5.6l1 2.3h1.8l-4.7-10.5zm1.3 6.9h-4.2l2.1-4.8z"/><path class="cls-3" d="M22.31 98a2.68 2.68 0 0 1-2.7 2.9 2.63 2.63 0 0 1-2.7-2.9v-6.4h-1.7V98a4.22 4.22 0 0 0 4.4 4.5A4.22 4.22 0 0 0 24 98v-6.4h-1.7z"/><path class="cls-3" d="M30.61 96c-1.6-.2-2.6-.6-2.6-1.5s1.2-1.5 2.5-1.5a3.1 3.1 0 0 1 2.7 1.3l.1.2 1.3-.8-.1-.2a4.49 4.49 0 0 0-4.1-2 4.9 4.9 0 0 0-3.4 1.2 2.49 2.49 0 0 0-.7 1.9c0 2.4 2.5 2.8 4.1 3s2.8.6 2.8 1.7c0 1.6-2.1 1.7-2.7 1.7a3.28 3.28 0 0 1-3.1-1.7l-.1-.2-1.4.8.1.2a4.62 4.62 0 0 0 4.5 2.5c2.1 0 4.4-.9 4.4-3.3s-2.3-3.04-4.3-3.3z"/><path class="cls-3" d="M35.61 93.16h3.5v9.1h1.7v-9.1h3.5v-1.6h-8.7v1.6z"/><path class="cls-3" d="M54.61 95.06a3.46 3.46 0 0 0-3.7-3.5H46v10.7h1.7v-3.7h2.2l3.2 3.7h2.2l-3.4-3.8a3.13 3.13 0 0 0 2.71-3.4zm-6.8-1.9H51a1.94 1.94 0 0 1 2 2 1.84 1.84 0 0 1-2.1 1.9h-3.1z"/><path class="cls-3" d="M62.41 91.56h-1.7l-4.8 10.7h1.9l1-2.3h5.6l1 2.3h1.8l-4.8-10.5zm1.3 6.9h-4.3l2.1-4.8z"/><path class="cls-3" d="M70.61 91.56h-1.7v10.7h7.2v-1.6h-5.5v-9.1z"/><path class="cls-3" d="M77.61 91.56h1.7v10.7h-1.7z"/><path class="cls-3" d="M87.51 91.56h-1.7L81 102.26h1.9l1-2.3h5.6l1 2.3h1.8l-4.7-10.5zm1.3 6.9h-4.2l2.1-4.8z"/><path class="cls-3" d="m101.11 99.06-5.9-7.5h-1.2v10.7h1.7v-7.4l5.9 7.4h1.2v-10.7h-1.7v7.5z"/><path class="cls-3" d="M118.91 99.76a4.11 4.11 0 0 1-2.8 1.1c-2.8 0-3.8-2.1-3.9-3.9a3.67 3.67 0 0 1 3.9-3.9 3.86 3.86 0 0 1 2.7 1.1l.1.1 1.2-1.1-.2-.2a5.7 5.7 0 0 0-3.9-1.6 5.51 5.51 0 0 0-4 1.5 5.83 5.83 0 0 0-1.6 4.1 5.26 5.26 0 0 0 5.6 5.5 5.51 5.51 0 0 0 4-1.6l.2-.1-1.2-1.2z"/><path class="cls-3" d="M127.41 91.56h-1.7l-4.8 10.7h1.9l1-2.3h5.6l1 2.3h1.8l-4.7-10.5zm1.3 6.9h-4.2l2.1-4.8z"/><path class="cls-3" d="M131.81 93.16h3.5v9.1h1.6v-9.1h3.5v-1.6h-8.6v1.6z"/><path class="cls-3" d="M149.41 96.06h-5.5v-4.5h-1.7v10.7h1.7v-4.6h5.5v4.6h1.7v-10.7h-1.7v4.5z"/><path class="cls-3" d="M158.51 91.36A5.33 5.33 0 0 0 153 97a5.4 5.4 0 1 0 10.8 0 5.15 5.15 0 0 0-5.29-5.64zm0 9.5a3.61 3.61 0 0 1-3.7-3.9 3.71 3.71 0 1 1 7.4 0 3.61 3.61 0 0 1-3.7 3.9z"/><path class="cls-3" d="M167.51 91.56h-1.7v10.7h7.3v-1.6h-5.6v-9.1z"/><path class="cls-3" d="M174.61 91.56h1.7v10.7h-1.7z"/><path class="cls-3" d="M186.61 99.76a4.11 4.11 0 0 1-2.8 1.1c-2.8 0-3.8-2.1-3.9-3.9a3.67 3.67 0 0 1 3.9-3.9 3.86 3.86 0 0 1 2.7 1.1l.1.1 1.2-1.1-.2-.2a5.7 5.7 0 0 0-3.9-1.6 5.51 5.51 0 0 0-4 1.5 5.83 5.83 0 0 0-1.6 4.1 5.26 5.26 0 0 0 5.6 5.5 5.51 5.51 0 0 0 4-1.6l.2-.1-1.2-1.2z"/><path class="cls-3" d="M202.11 98a2.68 2.68 0 0 1-2.7 2.9 2.63 2.63 0 0 1-2.7-2.9v-6.4H195V98a4.4 4.4 0 1 0 8.8 0v-6.4h-1.7z"/><path class="cls-3" d="m213.71 99.06-5.9-7.5h-1.2v10.7h1.7v-7.4l5.9 7.4h1.2v-10.7h-1.7v7.5z"/><path class="cls-3" d="M218.31 91.56h1.7v10.7h-1.7z"/><path class="cls-3" d="M223.61 91.56h-1.9l4.5 10.7h1.6l4.4-10.7h-1.8l-3.4 8.5-3.4-8.5z"/><path class="cls-3" d="M235.71 97.56h5.6v-1.6h-5.6v-2.8h5.9v-1.6h-7.6v10.7h7.8v-1.6h-6.1v-3.1z"/><path class="cls-3" d="M252.71 95.06a3.46 3.46 0 0 0-3.7-3.5h-4.9v10.7h1.7v-3.7H248l3.2 3.7h2.2l-3.4-3.8a3.21 3.21 0 0 0 2.71-3.4zm-6.9-1.9H249a1.94 1.94 0 0 1 2 2 1.84 1.84 0 0 1-2.1 1.9h-3.1z"/><path class="cls-3" d="M259 96c-1.6-.2-2.6-.6-2.6-1.5s1.2-1.5 2.5-1.5a3.1 3.1 0 0 1 2.7 1.3l.1.2 1.3-.8-.1-.2a4.49 4.49 0 0 0-4.1-2 4.9 4.9 0 0 0-3.4 1.2 2.49 2.49 0 0 0-.7 1.9c0 2.4 2.5 2.8 4.1 3s2.8.6 2.8 1.7c0 1.6-2.1 1.7-2.7 1.7a3.28 3.28 0 0 1-3.1-1.7l-.1-.2-1.4.8.1.2a4.62 4.62 0 0 0 4.5 2.5c2.1 0 4.4-.9 4.4-3.3s-2.19-3.04-4.3-3.3z"/><path class="cls-3" d="M265.41 91.56h1.7v10.7h-1.7z"/><path class="cls-3" d="M278.81 91.56h-9.9v1.6h3.6v9.1h1.6v-9.1h3.6l3.2 4.8v4.3h1.7v-4.3l4-6 .1-.1v-.3h-1.9l-3 4.7-3-4.7z"/></g><path class="cls-3" d="M286.71 3.26v46.8c0 24.8-19.4 28.5-28 28.5-15.5 0-31.9-5.4-31.9-29.2V3.26h14.3v47.2c0 13.9 6.7 21.9 18.1 21.9 10.7 0 19.2-7 19.2-21.3V3.26z"/><path class="cls-3" d="M186.31 78.66c-24.8 0-39.8-17-39.8-37.5 0-20.2 15.7-39 41.6-39a35.9 35.9 0 0 1 22.1 8.1c3.1 2.5 5.9 6.6 5.9 10.1a7.5 7.5 0 0 1-15 0 7.6 7.6 0 0 1 2.1-5.2c-3.3-4.3-10-6.5-15.4-6.5-17.2 0-27.3 16-27.3 31.4 0 17.8 11.4 32.4 29.2 32.4 9.1 0 16.3-3.8 23.7-9.3l2.8 4c-8.1 7.9-19.5 11.5-29.9 11.5z"/><path class="cls-3" d="M131.11 77.46H145l-28.6-74.1h-11.2l-28.4 74.2h7.8l7.9-21.4h30.6zm-36.3-27.3 13-35.1 13.1 35.1z"/></svg>