<svg xmlns="http://www.w3.org/2000/svg" xmlns:xlink="http://www.w3.org/1999/xlink" width="188.976" height="79.37" viewBox="0 0 50 21" xmlns:v="https://vecta.io/nano"><style><![CDATA[.B{fill:none}.C{stroke-miterlimit:3.86400008}.D{stroke:#fffce1}.E{stroke-width:.106}.F{stroke-width:.177}.G{stroke:#e6e7e8}.H{stroke-miterlimit:10}.I{stroke-width:.057}.J{stroke-width:.141}]]></style><defs><clipPath id="A"><path d="M191.324 689.205h195.62v78.984h-195.62z"/></clipPath><linearGradient id="B" spreadMethod="pad" y2="728.671" x2="239.459" y1="728.671" x1="191.412" xlink:href="#AO"><stop offset="0" stop-color="#a1a5a3"/><stop offset=".005" stop-color="#a1a5a3"/><stop offset=".245" stop-color="#d4d8d3"/><stop offset=".742" stop-color="#d4d8d3"/><stop offset="1" stop-color="#818991"/></linearGradient><clipPath id="C"><path d="M191.324 689.205h195.62v78.984h-195.62z"/></clipPath><radialGradient id="D" spreadMethod="pad" gradientTransform="matrix(24.785438,0,0,-24.785438,215.43532,716.91734)" r="1" cy="0" cx="0" fy="0" fx="0" xlink:href="#AO"><stop offset="0" stop-color="#008cd1"/><stop offset="1" stop-color="#00427e"/></radialGradient><radialGradient id="E" spreadMethod="pad" gradientTransform="matrix(12.821447,0,0,-12.821447,216.02119,708.16531)" r="1" cy="0" cx="0" fy="0" fx="0" xlink:href="#AO"><stop offset="0" stop-color="#fdcb26"/><stop offset="1" stop-color="#b3760d"/></radialGradient><clipPath id="F"><path d="M191.324 689.205h195.62v78.984h-195.62z"/></clipPath><radialGradient id="G" spreadMethod="pad" gradientTransform="matrix(12.852179,0,0,-12.852179,216.02106,700.30568)" r="1" cy="0" cx="0" fy="0" fx="0" xlink:href="#AO"><stop offset="0" stop-color="#fdcb26"/><stop offset="1" stop-color="#b3760d"/></radialGradient><clipPath id="H"><path d="M191.324 689.205h195.62v78.984h-195.62z"/></clipPath><linearGradient id="I" spreadMethod="pad" y2="740.862" x2="238.366" y1="740.862" x1="192.555" xlink:href="#AO"><stop offset="0" stop-color="#00386e"/><stop offset=".005" stop-color="#00386e"/><stop offset=".429" stop-color="#00a0df"/><stop offset="1" stop-color="#002660"/></linearGradient><linearGradient id="J" spreadMethod="pad" y2="737.905" x2="238.366" y1="737.905" x1="192.555" xlink:href="#AO"><stop offset="0" stop-color="#00386e"/><stop offset=".005" stop-color="#00386e"/><stop offset=".429" stop-color="#00a0df"/><stop offset="1" stop-color="#002660"/></linearGradient><linearGradient id="K" spreadMethod="pad" y2="734.947" x2="238.366" y1="734.947" x1="192.555" xlink:href="#AO"><stop offset="0" stop-color="#00386e"/><stop offset=".005" stop-color="#00386e"/><stop offset=".429" stop-color="#00a0df"/><stop offset="1" stop-color="#002660"/></linearGradient><linearGradient id="L" spreadMethod="pad" y2="731.99" x2="238.366" y1="731.99" x1="192.555" xlink:href="#AO"><stop offset="0" stop-color="#00386e"/><stop offset=".005" stop-color="#00386e"/><stop offset=".429" stop-color="#00a0df"/><stop offset="1" stop-color="#002660"/></linearGradient><linearGradient id="M" spreadMethod="pad" y2="729.032" x2="238.366" y1="729.032" x1="192.555" xlink:href="#AO"><stop offset="0" stop-color="#00386e"/><stop offset=".005" stop-color="#00386e"/><stop offset=".429" stop-color="#00a0df"/><stop offset="1" stop-color="#002660"/></linearGradient><linearGradient id="N" spreadMethod="pad" y2="726.075" x2="238.366" y1="726.075" x1="192.555" xlink:href="#AO"><stop offset="0" stop-color="#00386e"/><stop offset=".005" stop-color="#00386e"/><stop offset=".429" stop-color="#00a0df"/><stop offset="1" stop-color="#002660"/></linearGradient><linearGradient id="O" spreadMethod="pad" y2="723.117" x2="238.366" y1="723.117" x1="192.555" xlink:href="#AO"><stop offset="0" stop-color="#00386e"/><stop offset=".005" stop-color="#00386e"/><stop offset=".429" stop-color="#00a0df"/><stop offset="1" stop-color="#002660"/></linearGradient><linearGradient id="P" spreadMethod="pad" y2="720.159" x2="238.365" y1="720.159" x1="192.555" xlink:href="#AO"><stop offset="0" stop-color="#00386e"/><stop offset=".005" stop-color="#00386e"/><stop offset=".429" stop-color="#00a0df"/><stop offset="1" stop-color="#002660"/></linearGradient><linearGradient id="Q" spreadMethod="pad" y2="717.202" x2="238.366" y1="717.202" x1="192.555" xlink:href="#AO"><stop offset="0" stop-color="#00386e"/><stop offset=".005" stop-color="#00386e"/><stop offset=".429" stop-color="#00a0df"/><stop offset="1" stop-color="#002660"/></linearGradient><linearGradient id="R" spreadMethod="pad" y2="714.244" x2="238.365" y1="714.244" x1="192.555" xlink:href="#AO"><stop offset="0" stop-color="#00386e"/><stop offset=".005" stop-color="#00386e"/><stop offset=".429" stop-color="#00a0df"/><stop offset="1" stop-color="#002660"/></linearGradient><clipPath id="S"><path d="M191.324 689.205h195.62v78.984h-195.62z"/></clipPath><radialGradient id="T" spreadMethod="pad" gradientTransform="matrix(4.3199536,0,0,-4.3199536,215.31971,736.84161)" r="1" cy="0" cx="0" fy="0" fx="0" xlink:href="#AO"><stop offset="0" stop-color="#fff"/><stop offset=".264" stop-color="#e6e7e8"/><stop offset=".54" stop-color="#d4d8d3"/><stop offset="1" stop-color="#818991"/></radialGradient><clipPath id="U"><path d="M191.324 689.205h195.62v78.984h-195.62z"/></clipPath><radialGradient id="V" spreadMethod="pad" gradientTransform="matrix(4.3199536,0,0,-4.3199536,202.63272,727.97539)" r="1" cy="0" cx="0" fy="0" fx="0" xlink:href="#AO"><stop offset="0" stop-color="#fff"/><stop offset=".264" stop-color="#e6e7e8"/><stop offset=".54" stop-color="#d4d8d3"/><stop offset="1" stop-color="#818991"/></radialGradient><clipPath id="W"><path d="M191.324 689.205h195.62v78.984h-195.62z"/></clipPath><radialGradient id="X" spreadMethod="pad" gradientTransform="matrix(4.3199749,0,0,-4.3199749,215.52391,715.92318)" r="1" cy="0" cx="0" fy="0" fx="0" xlink:href="#AO"><stop offset="0" stop-color="#fff"/><stop offset=".264" stop-color="#e6e7e8"/><stop offset=".54" stop-color="#d4d8d3"/><stop offset="1" stop-color="#818991"/></radialGradient><clipPath id="Y"><path d="M191.324 689.205h195.62v78.984h-195.62z"/></clipPath><radialGradient id="Z" spreadMethod="pad" gradientTransform="matrix(4.3199536,0,0,-4.3199536,228.23852,731.08348)" r="1" cy="0" cx="0" fy="0" fx="0" xlink:href="#AO"><stop offset="0" stop-color="#fff"/><stop offset=".264" stop-color="#e6e7e8"/><stop offset=".54" stop-color="#d4d8d3"/><stop offset="1" stop-color="#818991"/></radialGradient><clipPath id="a"><path d="M191.324 689.205h195.62v78.984h-195.62z"/></clipPath><radialGradient id="b" spreadMethod="pad" gradientTransform="matrix(2.2300105,0,0,-2.2300105,221.95811,722.83794)" r="1" cy="0" cx="0" fy="0" fx="0" xlink:href="#AO"><stop offset="0" stop-color="#fff"/><stop offset=".264" stop-color="#e6e7e8"/><stop offset=".54" stop-color="#d4d8d3"/><stop offset="1" stop-color="#818991"/></radialGradient><clipPath id="c"><path d="M191.324 689.205h195.62v78.984h-195.62z"/></clipPath><linearGradient id="d" spreadMethod="pad" y2="745.121" x2="224.151" y1="745.121" x1="206.645" xlink:href="#AO"><stop offset="0" stop-color="#818991"/><stop offset=".294" stop-color="#d4d8d3"/><stop offset=".693" stop-color="#d4d8d3"/><stop offset="1" stop-color="#818991"/></linearGradient><radialGradient id="e" spreadMethod="pad" gradientTransform="matrix(15.484672,0,0,-15.484672,215.28002,755.32988)" r="1" cy="0" cx="0" fy="0" fx="0" xlink:href="#AO"><stop offset="0" stop-color="#008cd1"/><stop offset="1" stop-color="#00427e"/></radialGradient><clipPath id="f"><path d="M191.324 689.205h195.62v78.984h-195.62z"/></clipPath><radialGradient id="g" spreadMethod="pad" gradientTransform="matrix(2.4916489,0,0,-2.4916489,200.90891,748.17125)" r="1" cy="0" cx="0" fy="0" fx="0" xlink:href="#AO"><stop offset="0" stop-color="#fdcb26"/><stop offset="1" stop-color="#b3760d"/></radialGradient><clipPath id="h"><path d="M191.324 689.205h195.62v78.984h-195.62z"/></clipPath><radialGradient id="i" spreadMethod="pad" gradientTransform="matrix(2.6835931,0,0,-2.6835931,201.16629,751.16822)" r="1" cy="0" cx="0" fy="0" fx="0" xlink:href="#AO"><stop offset="0" stop-color="#fdcb26"/><stop offset="1" stop-color="#b3760d"/></radialGradient><clipPath id="j"><path d="M191.324 689.205h195.62v78.984h-195.62z"/></clipPath><radialGradient id="k" spreadMethod="pad" gradientTransform="matrix(2.3780042,0,0,-2.3780042,201.27456,753.04483)" r="1" cy="0" cx="0" fy="0" fx="0" xlink:href="#AO"><stop offset="0" stop-color="#fdcb26"/><stop offset="1" stop-color="#b3760d"/></radialGradient><clipPath id="l"><path d="M191.324 689.205h195.62v78.984h-195.62z"/></clipPath><radialGradient id="m" spreadMethod="pad" gradientTransform="matrix(2.3266854,0,0,-2.3266854,203.88043,756.91397)" r="1" cy="0" cx="0" fy="0" fx="0" xlink:href="#AO"><stop offset="0" stop-color="#fdcb26"/><stop offset="1" stop-color="#b3760d"/></radialGradient><clipPath id="n"><path d="M191.324 689.205h195.62v78.984h-195.62z"/></clipPath><radialGradient id="o" spreadMethod="pad" gradientTransform="matrix(2.1578432,0,0,-2.1578432,204.82323,757.95502)" r="1" cy="0" cx="0" fy="0" fx="0" xlink:href="#AO"><stop offset="0" stop-color="#fdcb26"/><stop offset="1" stop-color="#b3760d"/></radialGradient><clipPath id="p"><path d="M191.324 689.205h195.62v78.984h-195.62z"/></clipPath><radialGradient id="q" spreadMethod="pad" gradientTransform="matrix(2.2626781,0,0,-2.2626781,208.4598,760.55877)" r="1" cy="0" cx="0" fy="0" fx="0" xlink:href="#AO"><stop offset="0" stop-color="#fdcb26"/><stop offset="1" stop-color="#b3760d"/></radialGradient><clipPath id="r"><path d="M191.324 689.205h195.62v78.984h-195.62z"/></clipPath><radialGradient id="s" spreadMethod="pad" gradientTransform="matrix(2.2510424,0,0,-2.2510424,210.36744,761.11767)" r="1" cy="0" cx="0" fy="0" fx="0" xlink:href="#AO"><stop offset="0" stop-color="#fdcb26"/><stop offset="1" stop-color="#b3760d"/></radialGradient><clipPath id="t"><path d="M191.324 689.205h195.62v78.984h-195.62z"/></clipPath><radialGradient id="u" spreadMethod="pad" gradientTransform="matrix(2.2147715,0,0,-2.2147715,213.89122,762.10388)" r="1" cy="0" cx="0" fy="0" fx="0" xlink:href="#AO"><stop offset="0" stop-color="#fdcb26"/><stop offset="1" stop-color="#b3760d"/></radialGradient><clipPath id="v"><path d="M191.324 689.205h195.62v78.984h-195.62z"/></clipPath><radialGradient id="w" spreadMethod="pad" gradientTransform="matrix(-2.4916489,0,0,-2.4916489,229.69529,748.17125)" r="1" cy="0" cx="0" fy="0" fx="0" xlink:href="#AO"><stop offset="0" stop-color="#fdcb26"/><stop offset="1" stop-color="#b3760d"/></radialGradient><clipPath id="x"><path d="M191.324 689.205h195.62v78.984h-195.62z"/></clipPath><radialGradient id="y" spreadMethod="pad" gradientTransform="matrix(-2.6835931,0,0,-2.6835931,229.438,751.16822)" r="1" cy="0" cx="0" fy="0" fx="0" xlink:href="#AO"><stop offset="0" stop-color="#fdcb26"/><stop offset="1" stop-color="#b3760d"/></radialGradient><clipPath id="z"><path d="M191.324 689.205h195.62v78.984h-195.62z"/></clipPath><radialGradient id="AA" spreadMethod="pad" gradientTransform="matrix(-2.3779831,0,0,-2.3779831,229.32963,753.04483)" r="1" cy="0" cx="0" fy="0" fx="0" xlink:href="#AO"><stop offset="0" stop-color="#fdcb26"/><stop offset="1" stop-color="#b3760d"/></radialGradient><clipPath id="AB"><path d="M191.324 689.205h195.62v78.984h-195.62z"/></clipPath><radialGradient id="AC" spreadMethod="pad" gradientTransform="matrix(-2.3266712,0,0,-2.3266712,226.72376,756.91397)" r="1" cy="0" cx="0" fy="0" fx="0" xlink:href="#AO"><stop offset="0" stop-color="#fdcb26"/><stop offset="1" stop-color="#b3760d"/></radialGradient><clipPath id="AD"><path d="M191.324 689.205h195.62v78.984h-195.62z"/></clipPath><radialGradient id="AE" spreadMethod="pad" gradientTransform="matrix(-2.1578432,0,0,-2.1578432,225.78103,757.95502)" r="1" cy="0" cx="0" fy="0" fx="0" xlink:href="#AO"><stop offset="0" stop-color="#fdcb26"/><stop offset="1" stop-color="#b3760d"/></radialGradient><clipPath id="AF"><path d="M191.324 689.205h195.62v78.984h-195.62z"/></clipPath><radialGradient id="AG" spreadMethod="pad" gradientTransform="matrix(-2.2626781,0,0,-2.2626781,222.14442,760.55877)" r="1" cy="0" cx="0" fy="0" fx="0" xlink:href="#AO"><stop offset="0" stop-color="#fdcb26"/><stop offset="1" stop-color="#b3760d"/></radialGradient><clipPath id="AH"><path d="M191.324 689.205h195.62v78.984h-195.62z"/></clipPath><radialGradient id="AI" spreadMethod="pad" gradientTransform="matrix(-2.2510282,0,0,-2.2510282,220.23678,761.11767)" r="1" cy="0" cx="0" fy="0" fx="0" xlink:href="#AO"><stop offset="0" stop-color="#fdcb26"/><stop offset="1" stop-color="#b3760d"/></radialGradient><clipPath id="AJ"><path d="M191.324 689.205h195.62v78.984h-195.62z"/></clipPath><radialGradient id="AK" spreadMethod="pad" gradientTransform="matrix(-2.2147857,0,0,-2.2147857,216.71299,762.10388)" r="1" cy="0" cx="0" fy="0" fx="0" xlink:href="#AO"><stop offset="0" stop-color="#fdcb26"/><stop offset="1" stop-color="#b3760d"/></radialGradient><clipPath id="AL"><path d="M191.324 689.205h195.62v78.984h-195.62z"/></clipPath><linearGradient id="AM" spreadMethod="pad" y2="752.438" x2="225.378" y1="752.438" x1="205.278" xlink:href="#AO"><stop offset="0" stop-color="#a1a5a3"/><stop offset=".005" stop-color="#a1a5a3"/><stop offset=".148" stop-color="#d4d8d3"/><stop offset=".515" stop-color="#f1f2f2"/><stop offset=".871" stop-color="#d4d8d3"/><stop offset="1" stop-color="#818991"/></linearGradient><clipPath id="AN"><path d="M191.324 689.205h195.62v78.984h-195.62z"/></clipPath><linearGradient id="AO" gradientUnits="userSpaceOnUse"/></defs><g transform="matrix(.255598 0 0 -.255598 -48.901938 196.753225)"><g clip-path="url(#A)" fill="#003663"><path d="M248.9 736.888v5.534l1.892.2c1.694.17 3.503-.847 3.503-2.797 0-2.315-2.628-2.936-4.462-2.936zm-2.862-7.122c0-1.3.168-3.36-1.243-3.897v-.085h4.645c2.13 0 4.375-.084 6.363.877 1.897.9 3.396 2.766 3.396 4.94 0 2.766-2.064 4.464-4.616 5 1.62.707 2.835 1.78 2.835 3.673 0 2.514-2.183 4.095-5.934 4.095h-6.7v-.086c1.44-.534 1.243-2.598 1.243-3.87zm2.862-1.715v6.97l1.977.112c2.486.14 5.148-1.045 5.148-3.78 0-2.68-2.352-3.753-4.668-3.527zm21.848 16.802c-5.93.142-10.568-4.354-10.568-9.708 0-5.778 4.694-9.793 10.286-9.793 5.62 0 10.37 4.184 10.37 9.934 0 5.073-4.156 9.595-10.087 9.567m-.197-2.042c4.462 0 7.1-3.974 7.1-8.1 0-4.2-2.74-7.328-7.033-7.328-4.434 0-7.23 4.06-7.23 8.004 0 4.258 2.796 7.413 7.174 7.413m14.337-13.362c0-1.582-.03-2.7 1.466-3.586v-.085h-5.004v.085c1.496.876 1.496 2.004 1.496 3.586v11.268c0 1.582 0 2.7-1.468 3.558v.085h4.13v-.03c.113-.34.227-.48.423-.705l.394-.567 10.306-13.046v10.704c0 1.582.03 2.7-1.464 3.558v.085h4.976v-.085c-1.47-.847-1.47-1.976-1.47-3.558V724.87c-2.013.68-2.885 1.6-4.127 3.22l-9.657 12.283zm17.577.395c0-1.666.17-3.022-1.24-3.98v-.085h6.756c6.32 0 10.56 3.896 10.56 9.46 0 5.62-3.986 9.122-10.42 9.122h-6.896v-.085c1.437-.424 1.24-2.484 1.24-3.785zm2.86 12.18c.85.2 1.695.3 2.54.3 4.715 0 7.48-2.486 7.48-7.426 0-4.884-3.75-7.084-7.958-7.084a9.87 9.87 0 0 0-2.06.198zm-46.563-36.588c-1.25-1.643-3.576-2.325-5.564-2.325-1.873 0-3.858.596-5.12 1.95-1.488 1.64-1.432 3.53-1.432 5.565v7.54c0 1.27.197 3.33-1.243 3.867v.085h5.355v-.085c-1.418-.536-1.25-2.597-1.25-3.867v-7.54c0-3.758 1.6-5.508 4.512-5.508 1.6 0 3.208.65 4.145 1.978.624.846.596 1.552.596 2.57v8.5c0 1.27.17 3.33-1.25 3.867v.085h5.354l.03-.085c-1.44-.536-1.27-2.597-1.27-3.897V707.5c0-1.27-.17-3.332 1.27-3.87v-.085h-4.134zm8.53 1.77c0-1.582-.03-2.7 1.464-3.585v-.085h-5.003v.085c1.498.875 1.498 2.003 1.498 3.585v11.27c0 1.58 0 2.7-1.47 3.556v.085h4.13v-.03a1.76 1.76 0 0 1 .423-.705l.394-.565 10.308-13.048v10.706c0 1.58.027 2.7-1.466 3.556v.085h4.976v-.085c-1.47-.847-1.47-1.976-1.47-3.556V702.63c-2.014.68-2.886 1.6-4.125 3.22l-9.66 12.284zm17.577 10.93c0 1.3.198 3.36-1.242 3.897v.085h5.348v-.085c-1.4-.536-1.243-2.625-1.243-3.897V707.5c0-1.27-.168-3.332 1.243-3.87v-.085h-5.348v.085c1.4.508 1.242 2.598 1.242 3.87z"/><path d="M302.132 717.005c.76 2.004 1.717 4.32-.03 5.026v.086h4.2l-7.456-19.434c-1.982 1.304-2.634 1.53-3.457 3.762l-4.26 11.55c-.534 1.44-.956 3.077-2.2 4.036v.086h4.103l-.03-.34c0-.622.54-2.005.765-2.626l4.503-12.285zm9.52-11.105l3.587-.34c1.863-.17 3.812.424 5.224 1.668h.084l-1.27-3.7H307.52v.084c1.438.5 1.272 2.6 1.272 3.87v10.654c0 1.3.166 3.36-1.272 3.896v.087h9.017c.48 0 .96-.06 1.328.14h.085v-3.303h-.085c-.874 1.017-2.033 1.13-3.333 1.13-1 0-1.974-.03-2.88-.2v-5.25h3.36c.45 0 .903 0 1.242.17h.084v-3.002h-.084c-.452.82-1.637.8-2.512.8h-2.1zm16.02 16.235c3.8 0 5.837-1.983 5.837-4.55 0-2.487-2.16-4.435-4.477-4.97l4.055-5.112c1.184-1.468 2.965-2.936 4.57-3.953h-2.597c-1.497 0-2.423.368-3.264 1.4l-3.446 4.265-2.605 3.982c2.266.337 4.9 1.383 4.9 4.037 0 2.034-1.756 3.222-3.653 3.135-.653-.028-1.277-.113-1.926-.226V707.5c0-1.3-.172-3.36 1.273-3.87v-.086h-5.378v.086c1.438.508 1.242 2.598 1.242 3.87v10.645c0 1.3.196 3.36-1.242 3.897v.085z"/><path d="M348.177 718.748c-1.094 1.127-2.84 1.773-4.42 1.773-1.608 0-3.637-.62-3.637-2.56 0-3.856 9.683-3.8 9.683-9.008 0-3.012-3.14-5.843-7.54-5.843-1.722 0-3.434.256-5.033.852l-.816 3.53c1.657-1.438 3.96-2.338 6.158-2.338 1.6 0 4.033.96 4.033 2.927 0 4.4-9.683 3.605-9.683 9.57 0 3.552 3.62 4.915 7.06 4.915a14 14 0 0 0 4.194-.625zm3.78-.613c0 1.3.196 3.36-1.243 3.897v.085h5.348v-.085c-1.412-.536-1.242-2.625-1.242-3.897V707.5c0-1.27-.17-3.332 1.242-3.87v-.085h-5.348v.085c1.4.508 1.243 2.598 1.243 3.87zm12.83-10.92c0-1.608-.03-2.7 1.465-3.585v-.086h-5.572v.086c1.412.536 1.244 2.598 1.244 3.867v12.595h-2.486c-1.213 0-2.485-.3-3.36-1.128h-.083l.988 3.368h.085c.34-.14.704-.14 1.07-.197h11.22c.48 0 .932.03 1.3.197h.086l-.904-3.368h-.084c-.367.987-1.497 1.128-2.43 1.128h-2.54z"/><path d="M379.997 707.206c0-1.694 0-2.54 1.44-3.585v-.085h-5.49v.085c1.383.706 1.186 2.54 1.186 3.87v4.178l-4.686 7.54c-.762 1.242-1.328 2.174-2.684 2.908h2.57c.903 0 1.75-.198 2.12-.79l4.506-7.37 3.494 5.254c.482.707 1.13 2.062-.45 2.823v.085h4.942l-6.947-10.45z"/></g><path d="M212.03 763.335l-4.883 3.004-1.233-5.547-5.454.976.888-5.842-5.6-1.333 3.05-4.724-5.388-4.22h9.807v-1.3h-11.803l.001-12.388c-.008-.273-.53-27.397 23.492-42.324h0l.53-.33.528.33c24.025 14.927 23.502 42.05 23.493 42.294h0v12.418h-12.113v1.3h9.807l-5.388 4.22 3.05 4.724-5.6 1.333.888 5.842-5.454-.976-1.233 5.547-4.883-3.004-3.25 4.698z" fill="url(#B)"/><g clip-path="url(#C)" class="B C F"><path d="M239.457 731.93v12.417h-12.113v1.3h9.807l-5.39 4.22 3.05 4.725-5.6 1.333.89 5.84-5.455-.976-1.233 5.547-4.883-3.004-3.25 4.698-3.25-4.698-4.883 3.004-1.233-5.547-5.455.976.89-5.84-5.6-1.333 3.05-4.725-5.39-4.22h9.807v-1.3h-11.803l.001-12.387c-.008-.273-.53-27.397 23.493-42.324l.528-.328.53.328c24.024 14.927 23.5 42.05 23.493 42.294z" stroke="#545456"/></g><path d="M215.97 743.347h-23.556V731.93s-.792-26.648 23.02-41.444h0c23.813 14.796 23.02 41.444 23.02 41.444h0v11.416z" fill="url(#D)"/><path d="M220.13 710.382c-3.135-1.934-5.02-2.548-7.947-.747h0c-2.928 1.8-4.683 1.876-4.683 1.876h0c-1.832.044-2.573-.65-5.354-2.108h0c-2-1.05-3.155-.995-3.648-.882h0l2.02-3.437c1.024.24 2.066.73 2.966 1.187h0c1.175.596 3.186 2.535 7.543.128h0c4.355-2.407 5.126-1.978 8.87.096h0c3.744 2.072 5.264 1.126 8.02-.272h0c1.078-.548 1.85-.793 2.5-.893h0l1.897 3.246c-2.08.016-3.324.894-5.142 1.836h0c-1.235.642-2.304 1.158-3.548 1.158h0c-.995 0-2.102-.33-3.494-1.188" fill="url(#E)"/><g clip-path="url(#F)" class="B C G I"><path d="M227.174 710.412c-2.224 1.154-3.908 1.902-7.043-.03s-5.02-2.547-7.947-.747-4.683 1.877-4.683 1.877c-1.832.044-2.572-.65-5.353-2.108-2-1.05-3.156-.995-3.65-.883l2.02-3.436c1.024.24 2.067.73 2.966 1.186 1.175.596 3.187 2.536 7.543.13s5.126-1.978 8.87.095 5.264 1.127 8.02-.272c1.08-.548 1.85-.793 2.5-.893l1.898 3.247c-2.082.015-3.325.894-5.142 1.836z"/></g><path d="M220.087 702.522c-3.136-1.933-5.02-2.548-7.947-.747h0c-2.928 1.8-4.683 1.876-4.683 1.876h0c-1.675.04-2.442-.538-4.686-1.75h0l2.2-2.65c1.268.568 3.12.887 6.012-.71h0c4.355-2.407 5.126-1.978 8.87.096h0c2.787 1.543 4.342 1.412 6.092.668h0l2.228 2.696-1.045.554c-1.235.64-2.305 1.157-3.55 1.157h0c-.995.001-2.1-.33-3.493-1.188" fill="url(#G)"/><g clip-path="url(#H)" class="B C G I"><path d="M227.13 702.553c-2.224 1.154-3.908 1.902-7.043-.03s-5.02-2.547-7.947-.747-4.683 1.877-4.683 1.877c-1.675.04-2.442-.538-4.685-1.752l2.2-2.65c1.267.568 3.12.886 6.01-.71 4.355-2.407 5.126-1.98 8.87.095 2.786 1.543 4.34 1.412 6.09.668l2.23 2.696-1.045.554z"/></g><path d="M192.555 740.362h45.81v1.002h-45.81z" fill="url(#I)"/><path d="M192.555 737.404h45.81v1h-45.81z" fill="url(#J)"/><path d="M192.555 734.447h45.81v1h-45.81z" fill="url(#K)"/><path d="M192.555 731.49h45.81v1h-45.81z" fill="url(#L)"/><path d="M192.555 728.53h45.81v1.002h-45.81z" fill="url(#M)"/><path d="M192.778 726.575l.14-1h45.033l.14 1z" fill="url(#N)"/><path d="M193.248 723.617l.194-1h43.987l.194 1z" fill="url(#O)"/><path d="M193.888 720.66l.253-1h42.6l.252 1z" fill="url(#P)"/><path d="M194.702 717.702l.313-1h40.842l.31 1z" fill="url(#Q)"/><path d="M195.703 714.744l.383-1h38.7l.382 1z" fill="url(#R)"/><g clip-path="url(#S)" class="B C F"><path d="M238.456 731.93v11.416h-46.04V731.93s-.792-26.648 23.02-41.443c23.814 14.795 23.02 41.443 23.02 41.443z" stroke="#e2e3e4"/></g><path d="M214.238 738.865l-2.427.552 1.08-2.242-1.944-1.555 2.424-.555.002-2.488 1.948 1.55 1.946-1.55.002 2.488 2.427.555-1.945 1.555 1.078 2.242-2.427-.552-1.08 2.24z" fill="url(#T)"/><g clip-path="url(#U)" class="B F G H"><path d="M215.32 734.127l1.947-1.55.002 2.49 2.426.555-1.944 1.554 1.077 2.242-2.426-.552-1.082 2.242-1.08-2.242-2.427.552 1.078-2.242-1.944-1.554 2.425-.555.002-2.49z"/></g><path d="M201.55 730l-2.426.553 1.077-2.244-1.944-1.553 2.425-.555.003-2.49 1.946 1.55 1.947-1.55.003 2.49 2.425.555-1.944 1.553 1.078 2.244-2.427-.553-1.082 2.24z" fill="url(#V)"/><g clip-path="url(#W)" class="B F G H"><path d="M202.632 725.26l1.947-1.55v2.5l2.426.555-1.944 1.553 1.077 2.243-2.426-.552-1.082 2.24-1.08-2.24-2.427.552 1.078-2.243-1.944-1.553 2.425-.555.002-2.5z"/></g><path d="M214.442 717.947l-2.426.552 1.078-2.243-1.945-1.553 2.425-.556.002-2.49 1.948 1.55 1.947-1.55.001 2.49 2.427.556-1.945 1.553 1.078 2.243-2.426-.552-1.082 2.24z" fill="url(#X)"/><g clip-path="url(#Y)" class="B F G H"><path d="M215.524 713.208l1.947-1.55.002 2.5 2.426.555-1.944 1.553 1.077 2.243-2.426-.552-1.082 2.24-1.08-2.24-2.427.552 1.078-2.243-1.944-1.553 2.425-.555.002-2.5z"/></g><path d="M227.157 733.107l-2.426.55 1.077-2.24-1.944-1.554 2.425-.556.003-2.49 1.946 1.55 1.947-1.55.003 2.49 2.425.556-1.944 1.554 1.077 2.24-2.426-.55-1.082 2.242z" fill="url(#Z)"/><g clip-path="url(#a)" class="B F G H"><path d="M228.238 728.368l1.947-1.55.002 2.49 2.426.555-1.944 1.554 1.077 2.242-2.426-.552-1.082 2.242-1.08-2.242-2.427.552 1.078-2.242-1.944-1.554 2.425-.555v-2.49z"/></g><path d="M221.394 723.387l-1.72-.035 1.37-1.042-.498-1.645 1.413.982 1.412-.982-.5 1.645 1.372 1.042-1.72.035-.564 1.624z" fill="url(#b)"/><g clip-path="url(#c)" class="B G H J"><path d="M221.96 721.647l-1.412-.982.498 1.646-1.372 1.04 1.72.035.565 1.625.565-1.625 1.72-.035-1.372-1.04.5-1.646z"/></g><path d="M204.134 744.274h22.278v1.695h-22.278z" fill="url(#d)"/><path d="M212.313 761.984l-4.495 2.766-1.137-5.113-5.023.9.818-5.37-5.12-1.22 2.778-4.303-3.823-2.994h7.905v-2.264l8.983 1.278s.77-1.24 2.164-1.24h0c1.393 0 2.107 1.2 2.107 1.2h0l8.872-1.236v2.264h7.905l-3.823 2.994 2.778 4.303-5.12 1.22.818 5.37-5.023-.9-1.137 5.113-4.495-2.766-2.967 4.29z" fill="url(#e)"/><g clip-path="url(#f)" class="B C D F"><path d="M204.217 744.386v2.264h-7.905l3.823 2.994-2.778 4.303 5.12 1.218-.817 5.37 5.022-.9 1.137 5.112 4.495-2.765 2.967 4.29 2.967-4.29 4.494 2.765 1.137-5.112 5.023.9-.817-5.37 5.12-1.218-2.778-4.303 3.823-2.994h-7.905v-2.264l-8.873 1.236s-.714-1.2-2.107-1.2-2.163 1.24-2.163 1.24z"/></g><path d="M197.566 747.057l6.626.01.06 1.4-3.744.817z" fill="url(#g)"/><g clip-path="url(#h)" class="B C D E"><path d="M204.192 747.067l.06 1.402-3.745.817-2.94-2.23z"/></g><path d="M198.14 753.458l2.43-3.763 3.623-.818v2.076z" fill="url(#i)"/><g clip-path="url(#j)" class="B C D E"><path d="M198.14 753.46l6.052-2.506v-2.075l-3.624.817z"/></g><path d="M198.357 753.798l5.835-2.426v2.208l-1.56 1.137z" fill="url(#k)"/><g clip-path="url(#l)" class="B C D E"><path d="M198.357 753.798l4.276.92 1.56-1.137v-2.208z"/></g><path d="M202.214 759.75l.76-4.758 1.217-.916v1.634l1.355.2z" fill="url(#m)"/><g clip-path="url(#n)" class="B C D E"><path d="M202.214 759.75l.762-4.758 1.217-.916v1.634l1.355.2z"/></g><path d="M202.5 759.935l3.576-3.96 1.07.143-.01 2.032-.427 1.003z" fill="url(#o)"/><g clip-path="url(#p)" class="B C D E"><path d="M202.5 759.934l3.577-3.96 1.068.144-.01 2.032-.426 1.003z"/></g><path d="M207.146 759.332l.27-.634 2.357-1.057v1.735l-1.698 4.1z" fill="url(#q)"/><g clip-path="url(#r)" class="B C D E"><path d="M208.075 763.476l-.93-4.145.27-.633 2.357-1.057v1.734z"/></g><path d="M208.42 763.636l1.796-3.93 2.097-1.11v2.753z" fill="url(#s)"/><g clip-path="url(#t)" class="B C D E"><path d="M208.42 763.637l1.796-3.93 2.097-1.108v2.753z"/></g><path d="M212.71 761.655v-.988l2.36-1.465v5.803z" fill="url(#u)"/><g clip-path="url(#v)" class="B C D E"><path d="M215.07 765.005v-5.803l-2.36 1.464v.988z"/></g><path d="M226.353 748.47l.06-1.4 6.626-.01-2.94 2.23z" fill="url(#w)"/><g clip-path="url(#x)" class="B C D E"><path d="M226.412 747.067l-.06 1.402 3.745.817 2.94-2.23z"/></g><path d="M226.412 750.953v-2.076l3.623.818 2.43 3.763z" fill="url(#y)"/><g clip-path="url(#z)" class="B C D E"><path d="M232.464 753.46l-6.052-2.506v-2.075l3.623.817z"/></g><path d="M226.412 753.58v-2.208l5.836 2.426-4.277.92z" fill="url(#AA)"/><g clip-path="url(#AB)" class="B C D E"><path d="M232.247 753.798l-4.276.92-1.56-1.137v-2.208z"/></g><path d="M225.057 755.91l1.355-.2v-1.634l1.217.916.76 4.758z" fill="url(#AC)"/><g clip-path="url(#AD)" class="B C D E"><path d="M228.39 759.75l-.762-4.758-1.217-.916v1.634l-1.355.2z"/></g><path d="M223.894 759.154l-.427-1.003-.01-2.032 1.07-.143 3.576 3.96z" fill="url(#AE)"/><g clip-path="url(#AF)" class="B C D E"><path d="M228.104 759.934l-3.577-3.96-1.068.144.01 2.032.426 1.003z"/></g><path d="M220.83 759.376v-1.735l2.357 1.057.27.634-.93 4.144z" fill="url(#AG)"/><g clip-path="url(#AH)" class="B C D E"><path d="M222.53 763.476l.93-4.145-.27-.633-2.357-1.057v1.734z"/></g><path d="M218.3 761.35v-2.753l2.097 1.11 1.796 3.93z" fill="url(#AI)"/><g clip-path="url(#AJ)" class="B C D E"><path d="M222.183 763.637l-1.796-3.93-2.097-1.108v2.753z"/></g><path d="M215.533 759.202l2.36 1.465v.988l-2.36 3.35z" fill="url(#AK)"/><g clip-path="url(#AL)" class="B C D E"><path d="M215.533 765.005v-5.803l2.36 1.464v.988z"/></g><path d="M215.7 758.587v-6.893l-.017-3.286a1.74 1.74 0 0 1-.356.038h0a1.75 1.75 0 0 1-.357-.038h0l-.016 3.286v6.893s-.493.856-2.06 1.252h0v-8.678s1.66-1.375 2.02-2.77h0c-.194-.05-.376-.126-.537-.234h0a6.47 6.47 0 0 1-1.958 2.723h0v6.893s-.495.855-2.06 1.252h0v-8.804s2.61-.724 3.822-2.224h0a1.7 1.7 0 0 1-.334-.421h0c-.618.6-2.137 1.878-4.03 2.09h0v7.08s-.494.855-2.06 1.252h0v-9.17s2.953.757 6.02-1.38h0a1.64 1.64 0 0 1-.121-.356h0c-4.512 2.2-6.33 1.01-6.33 1.01h0v6.804c-.836.116-2.052-.268-2.052-.268h0v-8.918c3.672 1.727 7.2 1.326 8.355 1.128h0l-.01-.107c0-.942.763-1.706 1.705-1.706h0c.942 0 1.705.764 1.705 1.706h0c0 .037-.008.07-.01.106h0c1.145.2 4.683.6 8.357-1.127h0v8.918s-1.217.384-2.054.268h0v-6.804s-1.817 1.2-6.33-1.01h0c-.027.126-.07.243-.12.356h0c3.068 2.138 6.02 1.38 6.02 1.38h0V758c-1.565-.397-2.06-1.252-2.06-1.252h0v-7.08c-1.894-.213-3.412-1.493-4.03-2.09h0c-.1.157-.2.3-.334.42h0c1.21 1.5 3.82 2.225 3.82 2.225h0v8.804c-1.566-.397-2.06-1.252-2.06-1.252h0v-6.893a6.46 6.46 0 0 1-1.958-2.723h0a1.73 1.73 0 0 1-.538.234h0c.362 1.395 2.02 2.77 2.02 2.77h0v8.678c-1.566-.396-2.06-1.252-2.06-1.252" fill="url(#AM)"/><g clip-path="url(#AN)" class="B C J"><path d="M223.325 754.907v-6.804s-1.817 1.2-6.33-1c-.027.125-.07.243-.12.356 3.068 2.14 6.02 1.38 6.02 1.38V758c-1.566-.397-2.06-1.252-2.06-1.252v-7.082c-1.894-.212-3.412-1.49-4.03-2.1-.1.157-.2.3-.334.42 1.21 1.5 3.82 2.224 3.82 2.224v8.804c-1.565-.397-2.058-1.252-2.058-1.252v-6.893c-1.166-.947-1.72-2.082-1.958-2.723-.162.11-.344.185-.538.234.362 1.395 2.02 2.77 2.02 2.77v8.68c-1.566-.396-2.06-1.252-2.06-1.252v-6.893l-.017-3.287c-.115.024-.234.04-.357.04a1.75 1.75 0 0 1-.356-.039l-.016 3.287v6.893s-.493.856-2.06 1.252v-8.68s1.66-1.375 2.02-2.77c-.194-.05-.376-.125-.538-.234-.238.64-.793 1.776-1.958 2.723v6.893s-.494.855-2.06 1.252v-8.804s2.61-.724 3.822-2.224a1.7 1.7 0 0 1-.334-.421c-.62.6-2.137 1.878-4.03 2.1v7.082s-.494.855-2.06 1.252v-9.17s2.953.758 6.02-1.38a1.66 1.66 0 0 1-.121-.356c-4.512 2.2-6.33 1-6.33 1v6.804c-.837.115-2.053-.268-2.053-.268v-8.92c3.672 1.728 7.2 1.326 8.355 1.128l-.01-.107c0-.942.763-1.705 1.704-1.705s1.706.763 1.706 1.705c0 .037-.008.07-.01.106 1.145.2 4.683.6 8.356-1.127v8.92s-1.216.383-2.053.268z" stroke="#545456"/></g></g></svg>