<svg xmlns="http://www.w3.org/2000/svg" width="479.39998" height="159.70001" viewBox="0 0 479.39998 159.70001">
  <g id="Layer_2" data-name="Layer 2">
    <g id="Layer_1-2" data-name="Layer 1">
      <g>
        <g>
          <g>
            <path d="M122.3,46.5c9.5-.2,14.7-4.8,14.7-13.1,0-8.7-5.8-14.7-16.2-14.7H93.7v4.6h6.5V72.9H93.7v4.5h28.7c11,0,17.4-6.6,17.4-16C139.8,52.2,133.5,46.9,122.3,46.5ZM110.8,23.3h5.9c5.4,0,8.9,5.1,8.9,11.1,0,5.7-3.8,10.5-8.7,10.5h-6.1V23.3Zm5.9,49.6h-5.9V49.4H117c6.8,0,11.4,4.5,11.4,11.4C128.4,68,124.5,72.9,116.7,72.9Z" style="fill: #a50000"/>
            <path d="M292.9,18.8H266.2v4.6h6.5V73h-6.5v4.5h26.6c8.4,0,14.4-3.4,19.8-8.6a28.78937,28.78937,0,0,0,9-20.8C321.6,32.2,309.1,18.8,292.9,18.8Zm-2.2,54.1h-6.9V23.3h7.3c10,0,18.5,12.1,18.5,24.7C309.6,61.4,301.5,72.9,290.7,72.9Z" style="fill: #a50000"/>
            <polygon points="364 72.9 345.8 72.9 345.8 23.3 352.2 23.3 352.2 18.8 328.3 18.8 328.3 23.3 334.8 23.3 334.8 72.9 328.3 72.9 328.3 77.4 368.6 77.4 368.6 64.9 364 64.9 364 72.9" style="fill: #a50000"/>
            <polygon points="413.6 72.9 395.1 72.9 395.1 50.1 408.7 50.1 408.7 56.1 413.4 56 413.4 39.2 408.7 39.3 408.7 45.1 395.1 45.1 395.1 23.3 412.8 23.3 412.8 31.1 417.4 31.1 417.4 18.8 377.6 18.8 377.6 23.3 384 23.3 384 72.9 377.6 72.9 377.6 77.4 418.2 77.4 418.2 64.9 413.6 64.9 413.6 72.9" style="fill: #a50000"/>
            <polygon points="459.5 18.8 459.5 23.3 466.9 23.3 455.4 42.2 443.2 23.3 449.6 23.3 449.6 18.8 425.7 18.8 425.7 23.3 431 23.3 448 49.1 448 72.7 441.6 72.7 441.6 77.4 465.5 77.4 465.5 72.7 459 72.7 459 46.9 473.4 23.3 479.4 23.3 479.4 18.8 459.5 18.8" style="fill: #a50000"/>
            <path d="M234.6,18.8H228L206.6,72.9h-7.7c-1.7-.2-2.7-1-4.7-4L182.1,50.2c8-2.5,11.4-7.4,11.4-15.1,0,0,.9-16.3-18.7-16.3H150.5v4.6H157V73h-6.5v4.5H174V73h-6.4V51.3h3.5l13.8,21.2c2.9,4.5,3.8,5,8.8,5h25.4V73h-7l5.7-14.3h20.5L243.9,73h-6v4.5H261V73h-5.8ZM172.5,46.9h-5V23.3h5.4c6.1,0,9.6,4.9,9.6,11.8C182.5,41.8,178.4,46.9,172.5,46.9Zm47.3,6.7,8.6-21.4,8.1,21.4Z" style="fill: #a50000"/>
          </g>
          <g>
            <path d="M137.3,95.9v27.7c0,7.8-2.8,12.8-8.8,16.1a21.87916,21.87916,0,0,1-10.1,2.5c-10.5,0-18.3-7-18.3-16.5V96H94.7V93.3H112V96h-5.4v27.5c0,8.8,5.1,14.5,13.2,14.5,8.3,0,13.9-5.9,13.9-14.6V96h-5.6V93.3h14.6V96h-5.4Z" style="fill: #a50000"/>
            <path d="M166.2,141.1v-2.7h5.4V117.1c0-3.8-2-6.2-5.2-6.2-3.1,0-4.9,1.4-11.3,8.6v18.9h5.5v2.7H144.1v-2.7h5.5V112.3h-6.3v-2l10.5-2.8h1.3v8.1c5.4-6.3,8.6-8.3,13.2-8.3,5.4,0,8.7,3.5,8.7,9.1v22h5.4v2.7H166.2Z" style="fill: #a50000"/>
            <path d="M186.9,141.1v-2.7h5.5V112.3h-6.3v-2l10.4-2.8h1.3v30.9h5.5v2.7Zm7.9-42.2a3.80127,3.80127,0,1,1,3.9-3.8A3.88493,3.88493,0,0,1,194.8,98.9Z" style="fill: #a50000"/>
            <path d="M232.8,110.9,221,142h-1.5l-12.7-31.1-3.1-.1v-2.7h14.1v2.7h-5.1l8.6,21.4,8.1-21.4h-4.9v-2.7h11.2v2.7h-2.9Z" style="fill: #a50000"/>
            <path d="M242.7,122.6v.8c0,9.1,4.8,15.4,11.7,15.4,2.9,0,4.9-.7,8.9-3.3l1.4,2.7c-5.4,3.1-8,4-12.2,4-9.2,0-15.8-7.1-15.8-17.1,0-10.2,6.6-17.6,15.6-17.6,7.8,0,13.2,5.4,13.2,13.2v2H242.7Zm16.9-4.7c0-4.4-3-7.5-7.2-7.5-5.3,0-9,3.6-9.7,9.2h16.8v-1.7Z" style="fill: #a50000"/>
            <path d="M291.2,115.1c-1.4-1.4-2.5-2-3.2-2-1.3,0-2.6,1.2-6.6,6.1v19.3h7v2.7H270.5v-2.7H276V112.4h-6.3v-2l10.4-2.8h1.3v8.1c5.2-6.7,7.1-8.3,9.7-8.3a2.81376,2.81376,0,0,1,2,.6l2.2,2Z" style="fill: #a50000"/>
            <path d="M311.2,142.1c-4.1,0-7.1-.9-9.2-2.9v2.6h-2.9V131.5h3.3v2c0,3.1,4.1,5.9,8.6,5.9,4,0,7-2.1,7-5s-2-4.5-9.7-7.5c-7-2.7-9.4-5.4-9.4-9.9,0-5.7,4.6-9.5,11.3-9.5a11.33127,11.33127,0,0,1,7.7,2.5l.4-2.6h3.1l-1.7,10.5h-3.1a7.09888,7.09888,0,0,0,.4-2.4c0-2.8-3.3-5.2-7.2-5.2-3.8,0-6.2,2-6.2,5.2,0,3.1.5,3.5,9.3,7,7.1,2.8,9.4,5.2,9.4,9.9C322.1,138,317.6,142.1,311.2,142.1Z" style="fill: #a50000"/>
            <path d="M327.8,141.1v-2.7h5.5V112.3H327v-2l10.5-2.8h1.3v30.9h5.5v2.7Zm7.9-42.2a3.8,3.8,0,1,1,0-7.6,3.8,3.8,0,0,1,0,7.6Z" style="fill: #a50000"/>
            <path d="M388.1,108.3V111H393l-8.1,21.4-8.8-21.4h5.2v-2.7h-24V98.8h-5.2v9.5h-6.3V111h6.3v23.8c0,4.4,2.5,7.1,6.8,7.1,2.7,0,4.1-.7,8-3.7l-1.2-2c-2.5,1.5-3.4,1.7-4.9,1.7-2.4,0-3.3-1-3.3-3.8V110.9h12.9l11.8,28.8a31.75513,31.75513,0,0,1-4.7,8.9c-2.3,2.9-3.6,4-7.6,6.2l4.7,4.9c1.3-1.7,2.3-3,2.9-3.9a63.64469,63.64469,0,0,0,6.7-13l12.3-31.9h3.1v-2.7H388.1Z" style="fill: #a50000"/>
          </g>
        </g>
        <g>
          <path d="M18.4,89.1,41,98.2l22.6-9.1A28.829,28.829,0,0,0,82,62.1V14.5A64.30055,64.30055,0,0,0,40.8,0,64.50723,64.50723,0,0,0,0,14.2V62.1A28.921,28.921,0,0,0,18.4,89.1Z" style="fill: #fff"/>
          <path d="M19.4,86.7,41,95.4l21.6-8.7A26.251,26.251,0,0,0,79.3,62.2V15.9A61.31,61.31,0,0,0,40.8,2.8,61.92867,61.92867,0,0,0,2.6,15.7V62.2A26.64,26.64,0,0,0,19.4,86.7ZM40.9,7.1a58.33557,58.33557,0,0,1,34.2,11V62.3a21.89161,21.89161,0,0,1-14,20.5L41,90.9,20.9,82.8a21.89161,21.89161,0,0,1-14-20.5V17.9A58.69371,58.69371,0,0,1,40.9,7.1Z" style="fill: #a50000"/>
          <g>
            <path d="M62,26.4l-7.6-7.6H19.9v7.7l3.5,3V65.7l-3.5,3v7.7H54.4L62,68.8V51.2l-3.7-3.6L62,43.9ZM37.1,41.5V31.1H48V41.5Zm0,22.7V53.8H48V64.2Z" style="fill: #a50000"/>
            <path d="M56.8,27.6l-4.3-4.3H24.9l3.6,3.2V68.7L24.9,72H52.5l4.3-4.3V51l-3.3-3.3,3.3-3.3ZM32,26.6H53.2V46H32ZM53.2,68.7H32V49.3H53.2Z" style="fill: #fff"/>
          </g>
        </g>
      </g>
    </g>
  </g>
</svg>
