<?xml version="1.0"?>
<svg width="300" height="100" xmlns="http://www.w3.org/2000/svg" xmlns:xlink="http://www.w3.org/1999/xlink" version="1.1">
 <desc>Logo of Buckinghamshire New University</desc>
 <g>
   <path fill="#542785" fill-rule="nonzero" id="path22" d="m24.1229,88.12535c0.15198,0.00589 0.29352,0.01935 0.4291,0.05958c0.00153,0 0.00153,0.00444 0.00153,0.00444c-0.14158,-0.02233 -0.2861,-0.04169 -0.43063,-0.06402m2.88465,1.32906c0.19665,0.30397 0.16388,1.25457 0.51699,1.16071c0.01793,0 0.04325,0 0.06264,-0.00298c0.05206,0.08789 0.1147,0.14449 0.20706,0.12368c0.89105,0.04015 3.32718,-0.7495 2.24246,-1.13242c-0.03874,-0.01346 -0.07152,-0.02087 -0.1088,-0.03426c-0.04165,-0.03281 -0.09836,-0.06708 -0.17879,-0.09538c-1.60771,-0.50061 -2.74311,-0.68984 -4.19436,-1.24117c-1.32601,-0.17585 -2.68341,-0.31438 -4.0319,-0.69582c-0.05809,-0.02684 -0.10433,-0.06258 -0.15493,-0.09837c-0.19822,-0.15795 -0.36209,-0.35461 -0.52597,-0.5453c0.03128,0.05508 0.06697,0.11023 0.10127,0.16537c-0.07301,-0.079 -0.14154,-0.16092 -0.21157,-0.24437c0.2518,0.42313 0.51848,0.85376 0.8374,1.3127c0.0566,0.1028 0.14449,0.16092 0.24733,0.19963c0.49913,0.41571 1.81626,-0.23244 2.7669,-0.05209c-0.04321,0.24431 -0.41568,0.93124 -0.06853,0.86716c0.0179,0.00596 0.03576,0.00596 0.05216,0.00596c0.00746,0.0745 0.0462,0.12369 0.149,0.10281c0.84482,0.06853 1.66286,-0.09386 2.2916,0.20415m-1.37526,2.42568l-0.00444,0.0358l0.48127,0.2056l0.05809,-0.10876l-0.53492,-0.13263l0,-0.00001zm69.31464,-39.30763l-0.17723,-0.05806l0.15788,0.12812l0.01936,-0.07006l-0.00001,0zm-3.88142,-8.05195c-0.4112,-0.01041 -0.21454,-0.37548 0.49917,-1.04744c0.85675,-0.16836 0.28461,0.44547 -0.49917,1.04744m-27.4636,27.81828c1.05937,-0.68388 -0.60938,-0.89996 1.14132,-1.50636l0.76888,0.25027c-0.60495,0.46191 -1.27101,0.83894 -1.91019,1.2561m-20.12391,25.83655c0.38589,0.02386 0.7733,0.0462 1.1637,0.06708c0.08789,0.08192 0.17737,0.17279 0.25926,0.27857c-0.57065,0.39935 -1.03405,0.11771 -1.42296,-0.34565m-1.28287,-6.91357c-0.1251,-0.01339 -0.24733,-0.02831 -0.37101,-0.0358c0.17286,-0.02081 0.34718,-0.0387 0.53339,-0.05959c0.02688,0 0.04322,0.00298 0.06562,0.00298c-0.07301,0.03128 -0.15049,0.06257 -0.22801,0.0924m-1.77606,1.59876c0.11917,0.05959 0.23987,0.1356 0.35907,0.22052c-0.11921,0.06853 -0.23991,-0.04766 -0.35907,-0.22052m-4.38658,3.64904c0.00447,-0.01048 0.01044,-0.02088 0.01342,-0.03281c0.08941,0 0.18327,0 0.27414,0.01193l0.00298,0c-0.09385,0.00298 -0.19073,0.0104 -0.29054,0.02088m-6.927,-2.95766c-0.19073,-0.28162 -0.14751,-0.50658 0.06111,-0.57817l0.07894,0.5752c-0.04616,0.00298 -0.09385,0.00298 -0.14005,0.00298m-1.31121,0.29501c0.01197,0.00298 0.02685,0.00742 0.04023,0.01492c0.01197,0.00887 0.02834,0.01338 0.04624,0.01782c-0.00298,0.10281 0.02383,0.21906 0.09236,0.35016c-0.05806,-0.13561 -0.11619,-0.26518 -0.17883,-0.3829m-1.37377,-1.5541c0.00597,-0.0611 0.0119,-0.12366 0.0283,-0.18922c0.03281,0.09087 0.0641,0.18327 0.10579,0.27567c-0.04471,-0.0283 -0.08788,-0.05812 -0.13408,-0.08643m66.53289,-34.34742c0.1028,-0.71815 0.18626,-1.43485 0.24729,-2.1247c0.05215,0.00742 0.10724,0.01637 0.16238,0.02532l0.09393,-0.4008c-0.06258,0.02975 -0.14005,0.0566 -0.23391,0.0849c0.01637,-0.20415 0.03275,-0.40822 0.04765,-0.60342c0.03718,0.00444 0.08337,0 0.11771,0.0104l0.00597,0.00298l-0.11925,-0.0924c0.07603,-1.10258 0.09982,-2.1068 0.09982,-2.91146c-0.54382,-1.27988 -1.40501,-1.9936 -2.35715,-2.36908c0.01935,-0.2339 0.04918,-0.46933 0.0358,-0.70324l-0.21608,-0.11328c-0.32178,-0.10433 -0.6347,-0.18923 0.21011,-0.6422l-0.00153,-0.16391l-0.15198,0.08941l0.15198,-0.1207l-0.00895,-0.7092c0.02097,-0.4828 -0.07143,-0.94471 -0.15788,-1.43638c-0.40685,-3.17963 -2.82059,-5.38189 -5.5175,-7.40233c-0.36951,-0.91183 -0.75838,-1.73729 -1.13393,-2.40037c-1.11298,-0.84627 -2.22604,-1.08622 -3.25705,-0.98487c-0.3233,-0.24438 -0.64663,-0.48425 -0.97147,-0.73605c-3.7653,-2.64176 -6.58437,0.29203 -10.82787,-3.85319c-1.76413,-1.45122 -3.95296,0.14303 -5.05998,0.70178c-0.01048,0.06708 -0.01939,0.14303 -0.02983,0.21455c2.44363,1.97279 3.85613,4.68607 5.1315,7.39491c0.00452,-1.77017 1.36494,-0.50513 2.41085,-0.5498c0.73314,3.22285 2.86977,4.72921 2.61346,8.49743c0.596,1.32164 1.15176,1.60175 1.71794,2.68498c0.26968,1.65689 -1.12194,2.72964 0.08949,3.62066c-0.34274,0.87465 -0.60495,1.74776 -1.04308,2.5509c0.05515,-0.45144 -0.2622,-0.30695 -0.42313,0.17584c-0.15344,2.49873 -2.37804,5.35061 -1.90121,6.98953l-0.14157,0.82103c-0.50658,0.88359 -2.2171,1.86395 -1.80437,0.49763l-0.13263,-0.38443c-0.23389,2.82212 -3.494,2.30208 -4.7039,4.89764c-0.21008,0.11626 -0.41277,0.23843 -0.61688,0.35759c-2.69392,4.37912 -4.47894,9.1218 -8.72991,12.33125c-1.24714,1.10113 -1.69411,2.92187 -2.58963,4.31802c-0.81503,0.71217 -2.10237,0.60938 -2.8414,0.89101c-1.16217,0.49168 -2.01593,1.25909 -2.9338,2.07858c1.11004,-0.49474 1.82375,-1.11604 2.96508,-1.79396c0.5394,-0.30695 0.40084,0.70775 0.09091,1.55701c-0.14602,0.03725 -0.28756,0.08498 -0.43809,0.12521c-0.29651,0.0849 -0.57959,0.20406 -0.85675,0.33226c-0.17879,-0.15649 -0.33226,-0.25187 -0.38738,-0.11176c-0.39036,0.10578 -0.68392,0.50507 -1.02659,0.92529c-0.20116,0.13409 -0.39931,0.27115 -0.59898,0.40822c-0.14005,-0.27413 -0.26526,-0.91488 -0.33376,-0.79716c-0.7227,0.38145 -1.22929,2.33932 -1.84463,1.93402c-0.44104,-0.19811 -0.82398,-0.40379 -1.18902,-0.60641c-0.23096,-0.05659 -0.45446,-0.14747 -0.70033,-0.11175l-0.4857,0.31437c-0.149,0.10732 -0.32186,0.20567 -0.50513,0.30251c-0.14452,-0.02088 -0.28163,-0.03579 -0.41418,-0.03579c-1.28884,-0.01041 -2.44508,0.2235 -3.59982,0.48875c-0.31295,0.04321 -0.62732,0.08643 -0.93725,0.12666c1.29633,0.13707 2.31845,-0.0075 3.61026,-0.02838c-0.61986,0.21609 -1.27989,0.42321 -1.89527,0.63776c-0.20411,0.00444 -0.40975,0.04467 -0.61983,0.1028c-0.50509,0.04169 -1.04002,0.26221 -1.62259,0.41572c-0.06562,-0.27414 0.03128,-0.86715 -0.09545,-0.78677c-0.09236,0.00452 -0.18468,0.02386 -0.27857,0.04774c0,-0.09837 -0.01645,-0.16093 -0.06559,-0.13561c-0.84336,0.04473 -1.78799,0.93721 -2.41528,1.01913c-0.35464,-0.26519 -0.67348,-0.52295 -0.97745,-0.78225c0.39782,-0.49465 0.84929,-1.26054 1.47061,-1.51234c0.15347,-0.17133 0.24289,1.22626 0.54391,0.88206c0.76286,-0.46039 1.45126,-1.13234 2.26624,-1.16216c0.37548,-0.31734 0.95813,1.23666 1.30972,0.92382c0.81204,-0.40233 3.26464,-2.05325 1.91321,-2.0905c-2.07407,0.04918 -3.43893,0.47231 -5.12413,0.85376c-1.12943,0.56173 -2.06213,1.22183 -2.96358,1.73285c-0.1207,-0.05064 -0.24736,-0.08788 -0.38141,-0.11175c-0.13416,-0.05959 -0.27421,-0.10724 -0.42466,-0.14151l-0.63027,0.09538c-1.54365,0.24431 -3.28694,0.20705 -4.91252,0.03426l-0.03128,0.10877c0.09385,0.03274 0.1892,0.05959 0.2801,0.09232l-0.00898,0.03281c0.1386,0.03725 0.27421,0.08344 0.4068,0.1386c0.58407,0.29501 1.08472,0.76138 1.50491,1.54507c-0.13558,-0.20261 -0.15646,-0.37097 -0.0924,-0.48723c0.14307,0.17737 0.28461,0.37104 0.41568,0.5901c-0.35908,0.02234 -0.7107,0.00742 -1.02063,-0.09093c-0.2905,-0.17133 -0.52295,-0.44846 -0.6645,-0.91634c0,0 -0.09091,0.02234 -0.21459,0.05515c-0.02233,-0.0641 -0.05216,-0.1207 -0.07297,-0.18777c0,0 -0.19673,0.0537 -0.39338,0.09982c-0.01342,-0.01186 -0.02983,-0.02531 -0.04471,-0.03572c-0.00746,-0.22205 0.10575,-0.47231 0.17577,-0.71073l-0.28752,-0.0745c0.00447,-0.01637 0.01339,-0.03281 0.01641,-0.05064l-0.52153,-0.14304c0.01193,0.2086 0.08498,0.45587 0.18327,0.70477c-0.05217,-0.02685 -0.09982,-0.05515 -0.15046,-0.08047c-0.17879,0.33524 -0.44405,0.68542 -0.34718,0.99229c0.2339,-0.02831 0.68243,-0.09087 0.68243,-0.09087c0.08789,1.25755 1.08916,1.37383 1.98912,1.33955l-0.0119,-0.24889c1.57639,0.6601 3.11557,1.23223 4.6398,1.77912c-0.05511,0.08789 -0.10724,0.19811 -0.1713,0.30688l1.0266,0.01192c-0.0924,-0.04467 -0.18028,-0.1028 -0.27119,-0.17876c0.06406,-0.05813 0.12368,-0.11029 0.1833,-0.15795c0.0864,0.16835 0.18029,0.30994 0.28753,0.40379l0.90593,0.2697l0.08345,-0.00597l0.12965,0.04023l-0.04325,0.01936l2.07261,0.6526l0.44551,-0.00146c0.05515,0.01193 0.11026,0.02677 0.16541,0.04321l0.4753,-0.03281c0.0283,-0.00146 0.05664,-0.00597 0.0849,-0.01041c0.25482,0.04321 0.47086,0.17133 0.59007,0.51699l0.37992,0.08942l-0.05511,-0.1207l0.12368,0.1386l1.61066,0.38887c1.05493,0.27567 2.13071,0.52004 3.24969,0.65115c7.19222,1.20386 14.17731,0.23092 21.50962,-2.41528c3.94999,-1.51234 7.79713,-3.22285 11.31056,-5.49961c7.2876,-4.62939 9.96217,-11.9095 15.96676,-18.22264c2.25886,-2.57323 3.52987,-8.47661 4.00073,-11.43726c-0.56028,-2.33627 -2.46455,-3.15278 -4.16901,-3.39716m-71.54672,34.25801l0.19367,-0.00895l-0.34274,-0.10126l0.14907,0.11021zm0.19367,0.12368l0.19367,-0.01192l-0.35016,-0.09982l0.15649,0.11175zm-4.90502,-5.71561c-0.31295,-0.1848 -0.54544,-0.09538 -0.57367,0.16981c-0.21611,-0.73904 -0.5454,-1.28585 -0.98789,-1.71947c-0.15948,-0.16086 -0.33674,-0.30542 -0.52896,-0.43951l0.06257,-0.08941l-0.00891,-0.00444l0.00146,-0.00298l-0.52295,-0.24438l-0.00746,0.03426l0.46635,0.30397c-0.19665,0.28162 -0.47825,0.55278 -0.40524,0.8582c0.00447,0.00153 0.00742,0.00153 0.01335,0.00153c0.00153,0.00443 -0.00146,0.00894 0,0.01337c0.20269,0.01936 0.57814,0.05661 0.66904,0.06709c-0.0179,0.59747 0.19076,0.98188 0.51706,1.24265c0.33074,0.28759 0.7852,0.44256 1.24715,0.57214l0.11615,-0.71365c-0.0223,-0.01193 -0.0402,-0.01791 -0.06108,-0.02837l0.00302,-0.02081l0.00001,0.00001zm8.64195,10.07233c-0.04318,-0.09386 -0.10877,-0.12514 -0.18625,-0.12514c-0.11924,-0.18472 -0.35468,-0.0462 -0.61684,0.05361l0.84034,0.62736c-0.00295,-0.00895 -0.00597,-0.01789 -0.0104,-0.02684l0.18174,0.13262c-0.10426,-0.17141 -0.1773,-0.38145 -0.20858,-0.66161m1.88338,1.42743c-0.10582,-0.15343 -0.18479,-0.32928 -0.22499,-0.51699c0,0.09982 -0.01492,0.19221 -0.05064,0.27268c-0.06264,-0.12521 -0.11477,-0.25188 -0.14456,-0.39491c0,0.21754 -0.05366,0.41425 -0.28756,0.43806l-0.00746,0l0.31884,0.08344c-0.03423,0.01492 -0.06704,0.03426 -0.11473,0.03725l-0.0104,0l0.45147,0.1207c0.08345,0.08344 0.18476,0.15351 0.30691,0.21011c0.16984,0.11772 0.38443,0.19964 0.65708,0.22948c-0.12514,-0.10876 -0.26224,-0.18777 -0.40524,-0.25035c-0.15351,-0.10126 -0.32037,-0.16981 -0.48872,-0.22945"/>
   <path fill="#00aeef" fill-rule="nonzero" id="path26" d="m100.30437,53.30466l0.02088,-0.18327l-0.10578,-0.16093l0.0849,0.3442zm-1.75373,-6.53067c-0.00291,-0.01935 -0.00443,-0.03725 -0.00597,-0.05507l-0.00298,-0.0358c0.08942,-0.04918 0.17432,-0.1311 0.25035,-0.25631c-0.08491,0.11771 -0.16537,0.23543 -0.2414,0.34718m-0.65559,1.95933c-0.05508,0.03136 -0.1132,0.05668 -0.17432,0.07304c0.0611,-0.0745 0.12215,-0.14602 0.18478,-0.22793c-0.0045,0.05209 -0.01048,0.10579 -0.01048,0.15489m-0.78668,-2.71473l0.46191,-0.35759c0.02532,0.03871 0.0491,0.08047 0.07442,0.11917c-0.149,0.31138 -0.36945,0.38588 -0.53634,0.23841m-0.35912,-7.71372c-0.04918,-0.08789 -0.09836,-0.1773 -0.14005,-0.27268c0.05515,0.08789 0.11327,0.18029 0.17278,0.26672c-0.01041,-0.00145 -0.02081,0.00597 -0.03274,0.00597m-2.28861,-7.27269c-0.16086,-0.33227 -0.32935,-0.66453 -0.50062,-1.00131c0.02975,-0.13998 0.06402,-0.28301 0.12513,-0.43354c0.62576,0.30396 0.60044,0.8582 0.37549,1.43485m-3.07684,5.30142c-0.00452,-0.13409 0,-0.27414 0.0163,-0.41717c0.11328,0.06853 0.0761,0.22649 -0.0163,0.41717m-2.43172,-0.83143c-0.01492,-0.02081 -0.01637,-0.03725 -0.02983,-0.05661c0.08643,0.06708 0.17439,0.1386 0.26083,0.2056c0.0849,0.17585 0.16981,0.3442 0.25478,0.50957c-0.15498,-0.21011 -0.31743,-0.42314 -0.48578,-0.65857m-56.24293,-5.73198c-1.13391,0.38734 -0.2518,-1.50193 0.97446,-2.831c0.88952,-0.2697 3.51342,-1.40509 3.84718,-0.72717c-2.16795,0.65864 -3.13641,2.23652 -4.82164,3.55817m-6.87632,-13.05836c-0.57516,-0.65711 0.24136,-0.47232 1.15326,-0.09087c0.19964,0.36057 -0.21459,0.37395 -1.15326,0.09087m72.84591,29.25015l-0.20705,0.1311c-0.21754,-1.69262 -0.49022,-3.31372 -0.78078,-4.90805c0.10578,0.00299 0.22502,-0.00444 0.35313,-0.00145l-0.50359,-0.894c0.00589,0.09982 0.00146,0.20858 -0.02088,0.32477c-0.08337,-0.02975 -0.15948,-0.0566 -0.22947,-0.08643c0.10135,-0.15795 0.18027,-0.30986 0.20714,-0.44846l-0.19818,-0.92681l-0.08192,-0.1311l-0.02386,-0.09982l0.07005,0.05217l-0.47384,-2.12027l-0.2414,-0.39636l-0.01782,-0.02234c-0.01048,-0.04023 -0.02242,-0.07901 -0.03129,-0.11626l-0.26228,-0.39782c-0.01791,-0.02088 -0.03426,-0.04023 -0.05216,-0.06111c-0.0924,-0.24729 -0.08643,-0.5036 0.16391,-0.78669l-0.10586,-0.37694l-0.08039,0.11022l0.06104,-0.1773c-0.15046,-0.52892 -0.2801,-1.06984 -0.45441,-1.59731c-0.31728,-1.03849 -0.66003,-2.08301 -1.06831,-3.1394c-2.50317,-6.86294 -6.93147,-12.37593 -12.86906,-17.40918c-3.24227,-2.74456 -6.70644,-5.10913 -10.41062,-7.07596c-7.66756,-3.96639 -15.30227,-2.64176 -23.78038,-4.68753c-3.37782,-0.71968 -9.1039,1.192 -11.91845,2.22459c-1.72692,1.68811 -1.48108,3.75329 -0.84336,5.35206c-0.67046,0.26817 -1.33208,0.55577 -1.96231,0.8478c-0.01936,-0.04918 -0.03874,-0.10433 -0.0566,-0.15198l-0.39338,0.11619c0.05362,0.04023 0.1207,0.09094 0.18923,0.15649c-0.18778,0.09232 -0.37548,0.18028 -0.55726,0.2697c-0.01342,-0.03725 -0.02979,-0.07603 -0.03874,-0.11328l-0.00302,-0.00895l-0.01637,0.15198c-0.99229,0.48723 -1.87592,0.96704 -2.57319,1.36639c-0.8374,1.11597 -1.02812,2.22154 -0.8821,3.23325c-0.20713,0.10135 -0.42466,0.18923 -0.61535,0.31735l0.00891,0.2414c0.07006,0.33227 0.15497,0.64816 -0.66453,0.14005l-0.14154,0.08498l0.15646,0.08643l-0.17879,-0.07152l-0.61088,0.36355c-0.42768,0.22052 -0.78229,0.53634 -1.16522,0.85675c-2.55384,1.94289 -3.25118,5.13453 -3.65348,8.47953c-0.60495,0.7733 -1.12492,1.52426 -1.50786,2.17992c-0.17879,1.38567 0.1669,2.4689 0.77185,3.31524c-0.04922,0.4008 -0.09836,0.80007 -0.15351,1.20684c-0.40378,4.58182 3.54769,5.55621 2.07858,11.30463c-0.30695,1.83572 1.28138,2.90251 2.44213,3.6043c-0.3502,-2.92485 2.30648,-5.6441 3.12001,-8.08768c0.87763,-0.32775 1.32758,-0.06555 2.29462,-0.8016c-0.05067,-1.14434 1.38716,-2.3944 1.72987,-3.31372c0.45293,-0.22357 0.56915,-0.10433 1.04598,-0.30848c0.20414,-2.03682 2.5881,-4.46846 5.06152,-5.72754c0.96999,-0.12812 1.89676,-0.29058 2.82801,-0.33081c0.80313,-0.55577 1.50044,-1.22925 2.22907,-1.75817c2.38097,-0.17286 4.59218,0.19222 6.48294,0.89844c0.30698,-0.02234 0.61837,-0.02532 0.94318,-0.00146c1.09516,0.15053 2.13667,-0.32332 3.40018,-0.35613c6.44424,1.01913 12.65901,-0.85675 18.7322,1.71502c1.57497,0.52892 3.3749,0.00444 5.03027,0.08047c1.02808,0.35009 1.5824,1.51975 2.19331,2.01739c1.0072,0.75846 2.09785,1.11757 3.26608,1.50193c-0.98342,-0.7167 -1.87742,-1.02059 -3.03515,-1.67174c-0.53642,-0.3159 0.41128,-0.70178 1.30521,-0.85675c0.10586,0.10724 0.21906,0.20713 0.32484,0.3159c0.2235,0.21302 0.46635,0.39782 0.71815,0.57213c-0.0462,0.23689 -0.05507,0.4187 0.09538,0.39636c0.28614,0.28607 0.78226,0.33969 1.32019,0.42459c0.21608,0.10578 0.43056,0.21164 0.64817,0.31146c-0.16691,0.26075 -0.66309,0.69131 -0.52303,0.69131c0.69284,0.43659 2.64329,-0.10579 2.59709,0.62881c0.04918,0.48127 0.0611,0.91932 0.07005,1.33656c0.06853,0.22946 0.10128,0.4678 0.25027,0.66002l0.51561,0.26672c0.16682,0.0745 0.34114,0.17585 0.51698,0.28759c0.05508,0.13408 0.1132,0.25777 0.17585,0.37395c0.66753,1.18007 1.50484,2.09647 2.35562,3.00983c0.15643,0.19963 0.31445,0.39636 0.47828,0.59301c-0.56769,-1.12645 -1.13387,-1.95191 -1.76864,-3.01281c0.47683,0.41572 0.9626,0.86126 1.43346,1.2665c0.10281,0.16544 0.23383,0.31742 0.38581,0.45893c0.29509,0.40974 0.76289,0.75249 1.18604,1.17111c-0.17584,0.19971 -0.80153,0.43063 -0.66002,0.50215c0.04765,0.07901 0.11327,0.15052 0.18327,0.2235c-0.05959,0.03725 -0.0924,0.07152 -0.05508,0.09982c0.44394,0.71524 1.6777,1.0937 2.05617,1.59287c-0.0507,0.44547 -0.11778,0.85078 -0.18625,1.24409c-0.62888,-0.09829 -1.5183,-0.10579 -2.04729,-0.51401c-0.22495,-0.04918 0.93867,-0.82546 0.49174,-0.91633c-0.77927,-0.43063 -1.70454,-0.6884 -2.13671,-1.38123c-0.46481,-0.16392 0.58858,-1.44533 0.14014,-1.59433c-0.74799,-0.50062 -3.41064,-1.79549 -2.76842,-0.60938c1.08469,1.7701 2.13364,2.74303 3.30331,4.01106c1.05186,0.69429 2.09196,1.17264 2.98443,1.69858c0.01644,0.13408 0.04475,0.2622 0.09087,0.39636c0.01936,0.13852 0.04766,0.27857 0.08942,0.42313l0.40079,0.49618c0.98196,1.21579 1.82227,2.74303 2.48528,4.239l0.11182,-0.0283c-0.02531,-0.09531 -0.04475,-0.18923 -0.05965,-0.28607l0.02983,-0.00895c-0.03725,-0.14005 -0.06112,-0.28607 -0.082,-0.42764c-0.03718,-0.64962 0.11481,-1.31416 0.58414,-2.07552c-0.10724,0.21899 -0.24285,0.32776 -0.37097,0.32928c0.07894,-0.21455 0.17731,-0.43063 0.30099,-0.65413c0.19521,0.30098 0.36201,0.60939 0.4291,0.92979c0,0.33525 -0.12368,0.67945 -0.46038,1.03252c0,0 0.06701,0.07152 0.15191,0.16093c-0.04169,0.05064 -0.07442,0.10135 -0.12215,0.15351c0,0 0.1386,0.14602 0.28162,0.29349c0,0.01789 -0.00596,0.03725 -0.00895,0.0566c-0.18923,0.11925 -0.46191,0.14602 -0.7033,0.20116l0.08053,0.28607c-0.01789,0.00298 -0.03434,0.00597 -0.0507,0.00895l0.13409,0.52448c0.17585,-0.11619 0.35315,-0.30244 0.52158,-0.50957c0,0.05813 0,0.11328 0.00444,0.17133c0.38145,-0.01491 0.81499,0.04322 1.03252,-0.1952c-0.14304,-0.18472 -0.4187,-0.54383 -0.4187,-0.54383c1.04154,-0.70622 0.6422,-1.63303 0.16246,-2.39294m1.06235,8.62859c-0.05515,0.07749 -0.05215,0.14602 -0.01935,0.21012c-0.11176,0.20109 0.14158,0.33372 0.36202,0.51553l0.11924,-1.04154c-0.00298,0.0075 -0.01338,0.01346 -0.01491,0.02088l0.02386,-0.21906c-0.09837,0.17439 -0.24438,0.3442 -0.47087,0.51408m0.59302,-1.69414l-0.10577,-0.16239l0.08498,0.35315l0.02081,-0.19076l-0.00002,0zm-3.07538,8.72696c0,0.02379 0.00299,0.04314 0.00444,0.06402l0.57664,-1.68818c-0.00742,0.36654 0.18626,0.52303 0.43507,0.41426c-0.53488,0.55424 -0.84627,1.11597 -1.00123,1.71793c-0.01942,0.06111 -0.02837,0.12667 -0.03878,0.18923c-0.0104,0.04322 -0.02379,0.08796 -0.02976,0.13263c-0.01789,0.11473 -0.03579,0.23244 -0.04329,0.35162l-0.11167,-0.00597l0,0.0075l-0.00306,0l0.05216,0.57512l0.03129,-0.00742l0,-0.01048l0.03136,-0.54682c0.33968,0.02983 0.71815,0.13707 0.94463,-0.07894c-0.00153,-0.00153 -0.00291,-0.00895 -0.00291,-0.01193c0.00145,-0.00451 0.00742,-0.00451 0.00742,-0.00749c-0.08498,-0.18472 -0.23842,-0.52892 -0.27421,-0.60939c0.52448,-0.2876 0.75394,-0.6601 0.81651,-1.07283c0.08345,-0.43055 -0.00742,-0.90287 -0.12666,-1.36478l-0.67494,0.25776l-0.59302,1.69415l0.00001,0.00001zm2.37206,-7.20568l0.00445,0.01048l-0.12368,-0.44998c0.03281,-0.11626 0.04023,-0.23841 0.02692,-0.37104c0.01781,-0.2056 -0.01791,-0.43361 -0.12368,-0.68542c0.5602,-1.53321 0.5602,-1.37373 0.57512,-1.22029c-0.00896,0.18777 0.01338,0.36508 0.0462,0.54085c-0.07748,0.1669 -0.19221,0.32339 -0.33678,0.45449c0.08796,-0.04918 0.17439,-0.08345 0.25929,-0.09087c-0.0745,0.11321 -0.1594,0.2235 -0.26672,0.31582c0.19077,-0.10723 0.38589,-0.15642 0.5215,0.03128l0.00597,0.0075l-0.0849,-0.31437c0.02982,0.01783 0.06255,0.04023 0.08941,0.07748m-4.79041,0.08789c-0.06998,-0.13263 -0.12812,-0.26672 -0.16093,-0.40379c0,-0.00153 0.00299,-0.00153 0,-0.00298c0.05515,0.13561 0.10884,0.27116 0.16093,0.40677m0.68541,-0.85078c-0.00589,-0.01346 -0.01637,-0.02983 -0.02386,-0.04322c0.0641,-0.0462 0.08498,-0.1028 0.01797,-0.18028c-0.36661,-0.77628 -0.92535,-1.40655 -0.97599,-2.10688c0.18916,-0.31888 1.0072,-0.75838 0.74944,-1.01171c-0.00895,-0.01491 -0.02088,-0.03274 -0.02983,-0.05216c0.05071,-0.08789 0.06563,-0.16981 0.00298,-0.23987c-0.41418,-0.78967 -2.31094,-2.50469 -2.10091,-1.37228c0.00749,0.03725 0.01492,0.07006 0.02386,0.10731c-0.00896,0.05362 -0.01041,0.11765 0.00145,0.20109c0.37104,1.64496 0.77781,2.72077 1.02525,4.25399c0.51247,1.23667 1.06824,2.48381 1.41544,3.83973c0.00298,0.06403 -0.00153,0.12368 -0.00597,0.18771c-0.04031,0.25035 -0.12667,0.48723 -0.21012,0.72564c0.02984,-0.05515 0.0641,-0.11473 0.09087,-0.17133c-0.03275,0.1028 -0.06853,0.20414 -0.10578,0.30542c0.24147,-0.43063 0.47974,-0.87762 0.72121,-1.38268c0.04911,-0.09095 0.067,-0.18182 0.05806,-0.28017c0.15643,-0.64213 -1.12485,-1.4721 -1.44678,-2.40037c0.21906,-0.09087 1.02219,-0.1028 0.79272,-0.37992m-64.09822,-42.72866l0.03572,0.18028l0.03729,-0.19818l-0.07301,0.0179zm65.90856,40.39385l0.03725,-0.01193l-0.06409,-0.52005l-0.12369,0.00597l0.15053,0.52601z"/>
   <path fill="#cd3c3c" fill-rule="nonzero" id="path30" d="m23.162,85.42174l0.1371,-0.12521l-0.19076,0.06853l0.05366,0.05667l0,0.00001zm6.02852,-76.69914c-0.07748,0.12368 -0.16093,0.23689 -0.26224,0.33227c0,0 0,0 0,0c0.08643,-0.11029 0.17584,-0.2235 0.26224,-0.33227m-4.0856,1.86097c-0.47977,0.75395 -1.01612,3.25719 -0.13856,2.50768c0.02535,-0.02532 0.05216,-0.04765 0.07901,-0.0745c0.04766,-0.01935 0.1028,-0.05209 0.16835,-0.10127c1.23969,-1.14733 1.97276,-2.03238 3.17221,-3.01724c0.81648,-1.05791 1.61815,-2.16646 2.61943,-3.14238c0.05511,-0.03579 0.11172,-0.06111 0.16686,-0.08796c0.23539,-0.09087 0.48574,-0.13707 0.73456,-0.18327c-0.0641,0.00298 -0.12961,0.00451 -0.19367,0.00451c0.10578,-0.0179 0.21008,-0.03725 0.31437,-0.05813c-0.49462,0.00749 -0.99825,0.02234 -1.557,0.07006c-0.10429,-0.00153 -0.19069,0.02976 -0.2697,0.08789c-0.63772,0.18625 -0.71371,1.7135 -1.35591,2.45704c-0.18625,-0.14754 -0.6064,-0.83594 -0.7271,-0.50222c-0.0104,0.01491 -0.01641,0.02685 -0.02677,0.04023c-0.06708,-0.0283 -0.12965,-0.02081 -0.16093,0.07748c-0.48429,0.70033 -0.75399,1.49451 -1.32761,1.88934c-0.35911,0.0179 -1.16966,-0.48869 -1.26501,-0.13561c-0.00746,0.01644 -0.0179,0.0358 -0.02536,0.05071c-0.10131,0.00146 -0.18323,0.0283 -0.20709,0.11764m0.08643,-2.43762l-0.02979,-0.02532l-0.41873,0.31437l0.06562,0.10433l0.3829,-0.39338zm1.20688,-3.13641c0.18778,-0.0179 0.38145,0.00298 0.57068,0.0641c-0.08789,-0.05071 -0.15944,-0.10586 -0.20859,-0.17432c0.13561,0.00742 0.2697,0.02532 0.40229,0.06999c-0.18625,-0.11022 -0.32932,-0.25624 -0.2354,-0.46788l0.00746,-0.00742l-0.22801,0.23092c0.00149,-0.0387 0.00447,-0.07748 0.02383,-0.11764l0.00294,-0.00895l-0.32928,0.33227c-0.11473,0.03274 -0.2279,0.08345 -0.33376,0.1594c-0.18778,0.08643 -0.36355,0.2339 -0.529,0.45144c0.18032,-0.06104 0.33234,-0.15642 0.47534,-0.26519c0.1371,-0.07894 0.26231,-0.16835 0.38145,-0.26672m5.67691,81.07376c0.21604,-0.35016 0.43503,0.00446 0.65707,0.95657c-0.28159,0.82692 -0.52594,0.02234 -0.65707,-0.95657m-21.81351,-64.71354c-0.15202,0.05362 -0.31739,0.09531 -0.49622,0.12062c-0.05067,-0.70178 0.45151,-0.95657 1.07432,-1.04591c-0.19672,0.30091 -0.38894,0.61084 -0.5781,0.92528m5.70222,-6.5888c0.01342,-0.00895 0.02088,-0.01492 0.02979,-0.0179c0.00149,0.00749 0.00149,0.0179 0.00593,0.02386c-0.0566,0.09684 -0.11768,0.19374 -0.18323,0.28607c0.05213,-0.09385 0.09829,-0.1952 0.14751,-0.29203m0.91186,5.72012c-0.07002,0.04321 -0.14005,0.0849 -0.21608,0.12368c0.0343,-0.06264 0.10582,-0.10433 0.21608,-0.12368m0.58257,2.20371c0.19222,-0.27719 0.37697,-0.55431 0.53787,-0.83441c-0.14449,0.36355 -0.3084,0.73903 -0.52295,1.12645c-0.02386,0.03572 -0.04471,0.06104 -0.06555,0.08789c0.0119,-0.12368 0.03128,-0.25187 0.05064,-0.37992m4.54595,-12.39535c0.34565,-0.02685 0.52299,0.12965 0.47381,0.35016l-0.54085,-0.22052c0.01939,-0.04474 0.04169,-0.0849 0.06704,-0.12965m0.40233,-1.27545c-0.02088,0.01491 -0.04176,0.02837 -0.06409,0.04773c-0.00298,0 -0.00447,0.00146 -0.00895,0.00597c-0.08494,-0.05216 -0.20116,-0.08643 -0.34715,-0.0924c0.14598,0.0179 0.28756,0.03128 0.42019,0.03871m2.02936,-0.41419c0.04918,0.03427 0.09833,0.06853 0.14452,0.1132c-0.0909,-0.01783 -0.18181,-0.03274 -0.27861,-0.04467c0.04471,-0.02386 0.09083,-0.04467 0.13408,-0.06853m22.46167,59.97538c-7.19069,-0.79564 -3.44482,0.70033 -7.86864,1.00131c2.59855,-0.32935 4.17646,2.09189 -0.76141,1.35736c-0.39931,-0.079 -0.75689,-0.14303 -1.0877,-0.19672c-0.08789,-0.28752 -0.1594,-0.59303 -0.19363,-0.93723c-0.07155,-5.13895 -4.32248,-5.45929 -6.88531,-8.00873c-1.30375,-0.23987 -2.23052,-0.11765 -2.08898,1.07283c-0.0924,0.1386 -0.26079,0.1311 -0.57814,-0.0462c-0.83143,-0.4187 -1.40655,-2.77432 -1.46464,-3.00531c-0.08647,0.03725 -0.35166,-0.4187 -0.52896,-0.62881c-0.07599,-1.35438 0.99385,-0.62131 1.26053,-0.73452c-1.24562,-0.23689 -2.75053,-3.25566 -2.41681,-6.27887c-2.24387,-3.80394 -4.73071,-7.35614 -5.29691,-11.93191c-0.3263,-1.63005 -1.68069,-2.92631 -2.4406,-4.39848c-0.21459,-1.06235 0.5215,-2.12768 0.64813,-2.90397c0.15347,-1.25609 -0.08196,-2.37657 -0.33376,-3.58196c-0.12812,1.20982 0.05515,2.13663 0.06853,3.46272c-0.00295,0.61543 -0.79265,0.0075 -1.37079,-0.67494c0.03874,-0.15642 0.0701,-0.30695 0.11175,-0.46191c0.08498,-0.30243 0.12666,-0.61237 0.15646,-0.92826c0.2056,-0.07152 0.34122,-0.15198 0.2518,-0.26373c0.09687,-0.36202 -0.06555,-0.77774 -0.24282,-1.23521c-0.01935,-0.27858 -0.04023,-0.55577 -0.06555,-0.83587c0.31732,0.0283 0.89251,0.22495 0.82688,0.10433c0.02092,-0.63179 -0.83441,-1.61964 -0.91928,-2.18887c0.00149,-0.06853 0.00149,-0.13707 0.00742,-0.19964c0.02234,-0.07297 0.07152,-0.13263 0.15351,-0.17134c0.39334,-0.2876 0.76431,-0.51706 1.12194,-0.72863c0.16391,-0.17432 0.35464,-0.32033 0.44849,-0.5498l-0.02834,-0.57963c-0.01935,-0.18028 -0.01935,-0.37548 -0.01189,-0.58254c0.09385,-0.11626 0.18323,-0.22801 0.26071,-0.33831c0.894,-1.2307 1.06239,-2.71328 1.57938,-3.97527c-0.00593,0.00895 -0.0119,0.02379 -0.02226,0.03427c0.04023,-0.1103 0.08494,-0.21455 0.12368,-0.32485c-0.69138,1.05049 -1.12947,1.95933 -1.72394,3.03216c0.11622,-0.59302 0.2518,-1.19796 0.36359,-1.78356c0.10876,-0.21004 0.18174,-0.44249 0.24136,-0.69283c0.18625,-0.43805 0.2518,-0.98188 0.39036,-1.52877c0.22801,-0.02532 0.84034,0.49771 0.8359,0.32783c0.04318,-0.09087 0.0685,-0.19221 0.09084,-0.29502c0.03725,0.0104 0.06111,0.00597 0.0641,-0.02233c0.40225,-0.75249 0.11171,-2.02197 0.37403,-2.59266c0.40229,-0.17133 0.78072,-0.31582 1.14729,-0.45144c0.23096,0.596 0.6705,1.37228 0.5781,2.03536c0.07148,0.22044 -1.18156,-0.40233 -1.03558,0.02975c0.01786,0.89254 0.25482,1.82227 -0.1251,2.5434c0.08789,0.48279 -1.54962,0.21164 -1.45428,0.67348c-0.06104,0.90295 0.14602,3.85021 0.85529,2.70288c0.99083,-1.82226 1.30968,-3.21543 1.82223,-4.86781c0.07748,-1.2561 -0.02979,-2.39738 -0.0223,-3.43594c0.1028,-0.0745 0.19371,-0.16239 0.28159,-0.26373c0.11772,-0.08941 0.23245,-0.18472 0.33972,-0.29647l0.23092,-0.59753c0.55875,-1.45871 1.46319,-2.95315 2.42721,-4.27028l-0.07897,-0.08199c-0.07148,0.06555 -0.14158,0.12812 -0.21455,0.18778l-0.02085,-0.02088c-0.12514,0.12215 -0.26224,0.2235 -0.40084,0.3263c-0.5319,0.33227 -1.16664,0.51852 -2.02339,0.4932c0.2339,-0.01492 0.39334,0.0462 0.46191,0.15642c-0.22204,0.0358 -0.45595,0.05966 -0.71077,0.06111c0.16246,-0.31735 0.35166,-0.61237 0.59458,-0.83143c0.29196,-0.16981 0.65111,-0.23543 1.12641,-0.11619c0,0 0.02681,-0.09087 0.05962,-0.21157c0.06555,0.0104 0.12514,0.01484 0.19218,0.0283c0,0 0.05518,-0.19673 0.11029,-0.3904c0.02088,-0.00597 0.04318,-0.01339 0.06257,-0.02088c0.19669,0.1028 0.35613,0.32783 0.52746,0.50513l0.20116,-0.20713c0.0104,0.01346 0.02383,0.02685 0.03423,0.04023l0.38592,-0.37847c-0.18774,-0.09538 -0.43656,-0.15642 -0.70182,-0.19665c0.04918,-0.02983 0.09833,-0.05813 0.14602,-0.09094c-0.20407,-0.32332 -0.37101,-0.73009 -0.68538,-0.79862c-0.0924,0.21753 -0.26369,0.63776 -0.26228,0.63776c-1.13238,-0.55133 -1.73438,0.25777 -2.153,1.05493l0.21903,0.11168c-1.3574,1.03558 -2.62394,2.08156 -3.85915,3.12907c-0.05209,-0.09094 -0.12066,-0.19222 -0.18174,-0.30098l-0.52303,0.88352c0.08498,-0.05959 0.1833,-0.10578 0.29803,-0.14602c0.01637,0.08498 0.02979,0.1669 0.04169,0.24285c-0.19218,-0.0104 -0.36504,-0.00291 -0.50211,0.04176l-0.70178,0.63769l-0.13114,0.25478l-0.02383,0.02386l0.02088,-0.1594l-1.60026,1.47064l-0.2235,0.40822c-0.01342,0.0283 -0.02532,0.05362 -0.03729,0.08199l-0.03874,0.03725l-0.2235,0.41717c-0.00891,0.01782 -0.01637,0.0387 -0.02088,0.05806c-0.1713,0.21608 -0.39633,0.34718 -0.77625,0.2697l-0.27566,0.28018l0.13408,0.01186l-0.18472,0.03732l-1.15326,1.19345c-0.74056,0.79418 -1.47807,1.61514 -2.18432,2.49422c-4.69204,5.59942 -7.25628,12.18975 -8.64497,19.85131c-0.75544,4.17941 -1.06988,8.36035 -0.92237,12.55323c0.40084,8.62408 5.36552,14.57214 7.82998,22.93847c1.06533,3.28693 5.58604,7.28905 7.89102,9.20822c2.33783,0.65704 4.00812,-0.60946 5.07345,-1.97127c0.56919,0.44547 1.15031,0.8716 1.72095,1.26649c-0.04471,0.05362 -0.08796,0.10877 -0.13263,0.15942l0.30247,0.28162c0.00447,-0.07748 0.02088,-0.16988 0.0462,-0.28461c0.18028,0.1207 0.35759,0.24139 0.5334,0.35612c-0.03278,0.0462 -0.06999,0.08942 -0.10578,0.12514l-0.00742,0.00444l0.18625,-0.07893c0.9119,0.60342 1.76566,1.11895 2.45402,1.50935c1.36632,0.1952 2.40189,-0.18174 3.19753,-0.80305c0.19516,0.1311 0.38592,0.27711 0.596,0.3829l0.20411,-0.13111c0.25628,-0.22648 0.48127,-0.45595 0.45446,0.50361l0.14303,0.08192l-0.00149,-0.18027l0.02834,0.19375l0.61983,0.34565c0.40229,0.2622 0.84929,0.40823 1.32164,0.58261c2.95613,1.23965 6.07021,0.24882 9.17094,-1.07581c0.97145,0.13408 1.87886,0.21156 2.64173,0.21753c1.29033,-0.54237 2.05326,-1.38421 2.48385,-2.32738c0.37101,-0.16239 0.74351,-0.31438 1.12642,-0.47232c4.16901,-1.94143 3.03962,-5.84824 8.7478,-7.45144c2.14114,-0.80016 1.85057,-3.49255 1.92208,-4.73373c-2.7833,-2.32885 -11.2346,-3.16181 -11.69797,-3.26461m-19.87808,-64.27549l-0.08487,0.17432l0.25475,-0.24584l-0.16988,0.07152l0,0zm-1.01913,4.07363c0.0924,0.00749 0.14456,-0.03274 0.1833,-0.09087c0.2354,-0.00153 0.22645,-0.28309 0.27265,-0.56617l1.62408,-3.88592c0.00746,0 0.01641,0.00298 0.02685,0.00298l-0.20116,0.09232c0.20116,-0.00597 0.42019,0.03579 0.67796,0.14754m-1.29033,1.13089l0.19221,0.08796c-0.04325,-0.02837 -0.11328,-0.05667 -0.19221,-0.08796m0.19371,-0.09982l0.18476,0.08789c-0.04027,-0.02677 -0.10877,-0.05507 -0.18476,-0.08789m9.17687,-2.7669c0.11022,-0.04176 0.21604,-0.08643 0.32481,-0.13561l0.05064,0.09982l0.00597,-0.00895l0.00156,0.00298l0.47374,-0.32928l-0.02532,-0.02379l-0.00294,0l-0.49316,0.25326c-0.14754,-0.31139 -0.2414,-0.69138 -0.54234,-0.78225c-0.00447,0.00451 -0.00745,0.00895 -0.01193,0.01048c-0.00153,0 -0.00298,-0.00451 -0.00448,-0.00451c-0.12964,0.18028 -0.36355,0.50513 -0.39334,0.54682c-0.51404,-0.31582 -0.94769,-0.32332 -1.33652,-0.17432c-0.4143,0.14005 -0.77628,0.45748 -1.12051,0.7912l0.56471,0.45893c0.01939,-0.01339 0.03278,-0.02685 0.05217,-0.03725l0.01189,0.0104c0.32034,-0.1773 0.35911,-0.42612 0.1371,-0.58407m-7.53194,1.97425l-0.09087,0.17286l0.26522,-0.25326l-0.17436,0.08039l0.00001,0.00001z"/>
   <path fill="#6d6e71" fill-rule="nonzero" id="path34" d="m134.79039,26.91606c-3.51343,-0.2339 -7.26077,1.48258 -9.13366,2.57767l0.07748,22.5616c0.70332,0.85675 4.60706,3.04256 9.36765,2.80859c6.63638,-0.31284 8.27544,-8.82074 8.27544,-14.4425c0,-5.77527 -1.09218,-13.03602 -8.5869,-13.50536m1.16966,31.85168l0,-0.07894c-11.47444,-0.3904 -15.84615,-6.00917 -15.84615,-5.93321l0,-47.22994l5.54282,-1.8729l0,22.40511c3.20051,-1.95191 6.47997,-3.12303 10.30332,-3.04562c9.36908,0.31291 13.74072,8.51088 13.74072,17.17673c-0.0775,9.91292 -4.91847,18.81267 -13.74072,18.57877"/>
   <path fill="#6d6e71" fill-rule="nonzero" id="path38" d="m165.15904,58.68909c-5.15242,0 -11.08556,-3.04409 -11.08556,-9.83551l0,-23.88914l5.85564,-1.95184l0,23.88907c0,5.23144 3.82336,8.19652 8.82083,8.11903c3.04257,-0.07748 5.8542,-1.48258 7.72711,-2.73263l0,-28.64971l5.70078,0l0,29.43043c-4.76202,3.43449 -10.30486,5.6203 -17.0188,5.6203"/>
   <path fill="#6d6e71" fill-rule="nonzero" id="path42" d="m200.4437,58.76759c-8.74333,-0.07894 -13.89569,-8.82081 -13.89569,-17.4091c0,-6.39957 2.65364,-12.72464 7.41719,-16.00409c4.76201,-3.27799 12.02133,-3.04256 17.40909,0.31291l-1.64044,3.04402c-2.3423,-1.09211 -5.54129,-2.02932 -8.19797,-1.8729c-6.1656,0.31146 -9.21121,8.04002 -9.21121,14.52006c0,6.16705 3.27953,13.50681 9.75803,13.58429c3.66985,0.07748 6.32353,-1.25013 9.44658,-2.73263l1.48256,2.96653c-3.35539,2.18582 -7.57213,3.59091 -12.56807,3.59091"/>
   <path fill="#6d6e71" fill-rule="nonzero" id="path46" d="m239.00735,58.06523l-11.9438,-18.34486l-3.20049,2.8876l0,15.45726l-5.69926,0l0,-52.46137l5.69926,-1.95038l0,33.72313l16.00409,-14.52006l2.81009,2.65522l-11.32108,10.22583l14.3651,22.32763l-6.71393,0l0,0l0.00002,0z"/>
   <path fill="#6d6e71" fill-rule="nonzero" id="path50" d="m258.67966,59.00216c-3.98129,0 -7.96114,-1.56159 -10.93066,-3.82489l2.03085,-3.27945c2.34233,1.79542 5.77824,3.04554 8.82083,3.04554c3.74884,0.07749 8.19788,-1.71793 8.04144,-6.01361c-0.07739,-3.35548 -3.12445,-4.37017 -5.6976,-5.38487c-1.01627,-0.3904 -2.10986,-0.78072 -3.20062,-1.17112c-2.10838,-0.70179 -4.29419,-1.64053 -6.09108,-2.96661c-1.87297,-1.40509 -3.27646,-3.27945 -3.27646,-6.4785c0,-6.55897 5.85413,-10.14835 11.94225,-10.14835c3.51343,0 6.7915,1.16966 9.91595,2.8876l-2.10834,3.357c-2.57617,-1.48403 -4.99597,-2.26482 -7.49469,-2.26482c-3.27802,-0.07748 -6.86884,1.71801 -6.94786,5.38633c0,1.95191 1.17113,3.04409 2.9666,3.82481c1.71802,0.78079 4.05875,1.71801 6.24454,2.57621c2.10986,0.85973 4.29422,1.64052 6.08813,3.04554c1.87592,1.48411 3.27957,3.51343 3.27957,6.635c-0.07748,7.33969 -7.02539,10.77419 -13.58286,10.77419"/>
   <path fill="#939598" fill-rule="nonzero" id="path54" d="m130.12193,87.71109l0,-10.60132c0,-2.38255 -1.5645,-3.69968 -3.84272,-3.66388c-1.3872,0.03571 -2.70288,0.63921 -3.52084,1.20837l0,13.05683l-2.59709,0l0,-13.37717c1.31721,-0.95956 2.48978,-1.70609 4.12586,-2.13219c1.28134,-0.35759 3.02467,-0.71227 4.87378,-0.2876c1.88629,0.4291 3.55956,1.77905 3.55956,3.8785l0,11.91846l-2.59854,0z"/>
   <path fill="#939598" fill-rule="nonzero" id="path58" d="m141.22,73.4448c-2.48978,0 -3.37926,2.41979 -3.55658,4.66075l6.83014,0l0.03427,0.03426c0,-2.27522 -0.99535,-4.69501 -3.30783,-4.69501m3.38087,14.15948c-2.24098,0.63921 -5.1584,0.67493 -7.00897,-0.88956c-1.70761,-1.45871 -2.73868,-3.9127 -2.73868,-6.54559c0.0358,-4.09153 1.7061,-8.32456 6.25952,-8.32456c4.34035,0 5.94209,2.98895 6.01361,7.79266l-9.53445,0c-0.28461,4.05428 1.77751,6.75716 4.69647,6.6871c1.77905,-0.07151 3.05893,-0.64066 4.37607,-1.28134l0.60342,1.24409c-0.81798,0.53342 -1.63596,0.99686 -2.66701,1.31721"/>
   <path fill="#939598" fill-rule="nonzero" id="path62" d="m165.23238,87.2483l-2.13371,0.74798l-4.09151,-12.41615l-3.34201,11.66817l-2.13672,0.74798l-5.01535,-15.40356l2.38408,-0.85378l3.98421,12.13002l3.16624,-11.27625l2.38254,-0.85378l4.02144,12.13002l3.41362,-12.13002l1.60176,0.56915l-4.23457,14.94021l-0.00002,0.00001z"/>
   <path fill="#939598" fill-rule="nonzero" id="path66" d="m184.86964,87.99613c-2.34819,0 -5.05113,-1.38865 -5.05113,-4.48338l0,-10.88448l2.66714,-0.88949l0,10.88593c0,2.38246 1.74477,3.7354 4.01999,3.6996c1.38721,-0.03725 2.66861,-0.67792 3.52238,-1.24561l0,-13.05684l2.59702,0l0,13.41144c-2.16945,1.56748 -4.69641,2.56282 -7.75542,2.56282"/>
   <path fill="#939598" fill-rule="nonzero" id="path70" d="m205.4325,87.71109l0,-10.60132c0,-2.38255 -1.5645,-3.69968 -3.84271,-3.66388c-1.38718,0.03571 -2.70279,0.63921 -3.52086,1.20837l0,13.05683l-2.59708,0l0,-13.37717c1.3172,-0.95956 2.48978,-1.70609 4.12587,-2.13219c1.27988,-0.35759 3.02466,-0.71227 4.87378,-0.2876c1.88628,0.4291 3.55655,1.77905 3.55655,3.8785l0,11.91846l-2.59555,0z"/>
   <path fill="#939598" fill-rule="nonzero" id="path74" d="m211.65695,87.71109l0,-15.11897l2.56128,-0.85377l0,15.97273l-2.56128,0l0,0.00001zm1.24568,-19.3178c-0.9268,0 -1.67328,-0.74799 -1.67328,-1.67029l0,-0.03725c0,-0.92529 0.74648,-1.67181 1.709,-1.67181c0.92383,0 1.67172,0.74652 1.67172,1.70905c0,0.92229 -0.74789,1.67029 -1.70744,1.67029"/>
   <path fill="#939598" fill-rule="nonzero" id="path78" d="m225.31776,87.35467l-2.31392,0.74799l-6.43681,-15.65392l2.38254,-0.9968l5.44292,13.09263l4.9453,-12.87808l1.60022,0.78226l-5.62024,14.90594l0,-0.00002z"/>
   <path fill="#939598" fill-rule="nonzero" id="path82" d="m238.1954,73.4448c-2.48976,0 -3.37926,2.41979 -3.55664,4.66075l6.83028,0l0.03419,0.03426c0,-2.27522 -0.9953,-4.69501 -3.30783,-4.69501m3.37935,14.15948c-2.24097,0.63921 -5.15831,0.67493 -7.00743,-0.88956c-1.70752,-1.45871 -2.73866,-3.9127 -2.73866,-6.54559c0.03426,-4.09153 1.70752,-8.32456 6.25945,-8.32456c4.34041,0 5.94215,2.98895 6.0137,7.79266l-9.53447,0c-0.28462,4.05428 1.77753,6.75716 4.6964,6.6871c1.77911,-0.07151 3.05908,-0.64066 4.37614,-1.28134l0.60349,1.24409c-0.81804,0.53342 -1.63602,0.99686 -2.66861,1.31721"/>
   <path fill="#939598" fill-rule="nonzero" id="path86" d="m254.98639,73.90773c-0.49762,-0.10724 -1.10257,-0.21303 -1.45724,-0.21303l-0.03725,0c-1.70605,0 -2.88162,0.63922 -3.80545,1.42293l0,12.59346l-2.59854,0l0,-12.94807c0.96251,-1.06832 2.2424,-1.92208 3.70113,-2.41979c1.5645,-0.5706 3.06047,-0.92529 5.22989,-0.53336c-0.32024,0.63921 -0.74643,1.45864 -1.03252,2.09785"/>
   <path fill="#939598" fill-rule="nonzero" id="path90" d="m262.24402,88.13662c-1.81485,0 -3.62814,-0.7092 -4.98108,-1.74179l0.92535,-1.49444c1.06677,0.81797 2.63129,1.38712 4.02002,1.38712c1.70752,0.03579 3.73386,-0.78217 3.66388,-2.7386c-0.03574,-1.53024 -1.423,-1.99359 -2.59711,-2.45398c-0.46185,-0.17883 -0.96109,-0.35613 -1.45724,-0.53497c-0.96103,-0.32034 -1.95776,-0.74646 -2.77579,-1.35139c-0.85376,-0.63922 -1.49442,-1.49597 -1.49442,-2.95169c0,-2.98895 2.66702,-4.62497 5.44141,-4.62497c1.60175,0 3.09769,0.53197 4.5206,1.31721l-0.96106,1.52724c-1.17401,-0.675 -2.27823,-1.03114 -3.41507,-1.03114c-1.49445,-0.03426 -3.1319,0.78378 -3.16623,2.45551c0,0.88956 0.53351,1.38576 1.35147,1.74333c0.78226,0.35612 1.84903,0.78079 2.84445,1.17265c0.96399,0.39185 1.95932,0.74645 2.77576,1.38865c0.85385,0.67501 1.49304,1.6003 1.49304,3.02322c-0.03427,3.34354 -3.2005,4.90804 -6.18799,4.90804"/>
   <path fill="#939598" fill-rule="nonzero" id="path94" d="m271.70499,87.71109l0,-15.11897l2.56277,-0.85377l0,15.97273l-2.56277,0l0,0.00001zm1.2457,-19.3178c-0.92529,0 -1.67029,-0.74799 -1.67029,-1.67029l0,-0.03725c0,-0.92529 0.745,-1.67181 1.70602,-1.67181c0.92526,0 1.67172,0.74652 1.67172,1.70905c0,0.92229 -0.74646,1.67029 -1.70746,1.67029"/>
   <path fill="#939598" fill-rule="nonzero" id="path98" d="m278.92874,84.01141l0,-10.20947l-1.77899,0l0,-1.67326l1.77899,0l0,-4.33889l2.59561,-0.92529l0,5.26418l2.91882,0l0,1.67326l-2.91882,0l0,10.13795c0,2.06512 1.10251,2.56129 2.91882,2.63281l0,1.35148c-3.45233,0.32033 -5.51443,-1.24417 -5.51443,-3.91277"/>
   <path fill="#939598" fill-rule="nonzero" id="path102" d="m299.13397,92.22895c-1.31561,2.48978 -5.01678,3.48658 -7.6481,3.55809l-0.42618,-1.63601c1.99222,-0.28606 4.83658,-0.57068 5.90491,-2.59855c0.53336,-0.99535 0.56763,-2.95322 0.56763,-4.09007c0,-0.39185 0.03735,-0.28461 0,-0.67646c-0.7822,0.35461 -2.52399,1.20989 -5.5845,1.20989c-2.34674,0 -5.01382,-1.67181 -5.01382,-4.55344l0,-10.81441l2.63135,-0.88949l0,10.92013l0,-0.03427c0,2.384 1.70612,3.62968 4.01855,3.59244c1.38715,-0.0358 2.95316,-0.81805 3.80695,-1.3872l0,-12.70077l2.59851,0l0,14.12521c0,1.81178 -0.10721,4.55192 -0.85529,5.97491"/>
 </g>
</svg>