<svg xmlns="http://www.w3.org/2000/svg" width="246" height="47.493" viewBox="0 0 246 47.493">
 <g transform="matrix(1.3333 0 0 -1.3333 38.593 39.25)">
  <g transform="matrix(1.46 0 0 1.46 -28.55 -5.9155)">
   <path d="m62.978 6.0073c-0.017 0-0.01689-8.6e-5 -0.08789-0.038086l-0.45264-0.23291c-0.08-0.045-0.12305-0.088977-0.12305-0.12598 0-0.016 0.0086-0.037848 0.01758-0.068848l0.20361-0.43506-1.6831-3.4907c-0.133-0.277-0.28526-0.41868-0.48926-0.47168-0.15-0.037-0.19482-0.073738-0.19482-0.15674v-0.14355h1.4985v0.14355c0 0.075-0.03509 0.1043-0.14209 0.1333-0.221 0.061-0.2915 0.1147-0.2915 0.2417 0 0.067 0.02547 0.16459 0.10547 0.32959l0.24756 0.54785h2.332l0.30029-0.62402c0.071-0.134 0.09814-0.23215 0.09814-0.30615 0-0.091-0.0536-0.13596-0.2666-0.18896-0.133-0.029-0.17725-0.058301-0.17725-0.1333v-0.14355h1.8882v0.14355c0 0.067-0.02568 0.097117-0.09668 0.12012-0.257 0.075-0.32806 0.13356-0.43506 0.35156l-2.1973 4.4956c-0.027 0.053-0.0352 0.052734-0.0542 0.052734zm-20.42-0.030762c-1.445 0-2.562-1.1549-2.562-2.6499 0-1.53 1.1171-2.6104 2.7041-2.6104 0.815 0 1.4072 0.30026 1.9482 0.96826l-0.27393 0.1875c-0.62-0.615-0.95769-0.78809-1.5337-0.78809-1.143 0-1.8691 0.86968-1.8691 2.2427 0 1.495 0.60216 2.3569 1.6392 2.3569 0.682 0 1.0724-0.29186 1.3564-1.0269 0.089-0.21 0.12377-0.25635 0.23877-0.25635h0.24756v1.2993h-0.32812c-0.026-0.076-0.06884-0.10547-0.13184-0.10547-0.061 0-0.11514 0.023145-0.26514 0.098145-0.4 0.202-0.72741 0.28418-1.1704 0.28418zm14.421-0.029297c-0.603 0-1.1695-0.20394-1.6655-0.58594-0.665-0.518-1.002-1.2159-1.002-2.0859 0-1.666 1.0993-2.5811 3.0923-2.5811 0.612 0 1.3563 0.15035 1.7812 0.36035 0.196 0.09 0.22266 0.11947 0.22266 0.20947v0.14941c-0.026 0-0.04374 0.00879-0.05274 0.00879-0.16 0.015-0.21387 0.0675-0.21387 0.1875v1.2217c0 0.181 0.01893 0.23514 0.10693 0.36914h-1.4883v-0.19629c0-0.059 0.03447-0.096441 0.10547-0.12744 0.39-0.134 0.45264-0.23162 0.45264-0.78662 0-0.818-0.27527-1.103-1.0723-1.103-1.285 0-1.9585 0.80106-1.9585 2.3101 0 1.508 0.61194 2.3496 1.7109 2.3496 0.682 0 1.0528-0.27126 1.3008-0.96826 0.098-0.278 0.15139-0.33838 0.27539-0.33838h0.28418v1.2993h-0.31934c-9e-3 -0.015-0.01758-0.022297-0.01758-0.029297-0.044-0.053-0.0893-0.068848-0.1333-0.068848-0.062 8e-3 -0.14077 0.03782-0.23877 0.09082-0.355 0.217-0.71841 0.31494-1.1704 0.31494zm43.626 0c-0.16-0.068-0.3633-0.098145-0.6123-0.098145h-3.3589v-0.12744c0-0.067 0.04488-0.11109 0.15088-0.14209l0.04395-0.014648c0.319-0.158 0.27539-0.10605 0.27539-0.33105v-3.7822c0-0.21-0.02639-0.24805-0.27539-0.33105l-0.04395-0.00586c-0.106-0.031-0.15088-0.07509-0.15088-0.14209v-0.12891h4.3169v1.2979h-0.1875c-0.124 0-0.17619-0.044387-0.22119-0.17139-0.186-0.66-0.41602-0.78809-1.374-0.78809h-1.1968v2.1079h0.51562c0.469 0 0.57641-0.052266 0.69141-0.32227 0.062-0.143 0.10615-0.18018 0.20215-0.18018h0.23144v1.2979h-0.23144c-0.079 0-0.11462-0.02968-0.14062-0.09668-0.079-0.308-0.18693-0.36035-0.75293-0.36035h-0.51562v1.8838h1.1528c0.674 0 0.78869-0.066586 1.0547-0.60059 0.071-0.142 0.10662-0.17285 0.20362-0.17285h0.22265zm8.9224 0c-0.93099 0-1.6494-0.58459-1.6494-1.3506 0-0.713 0.52288-1.1638 1.7549-1.5308 0.594-0.181 0.77159-0.26282 0.97559-0.46582 0.169-0.173 0.26514-0.39023 0.26514-0.61523 0-0.563-0.54763-0.99023-1.2656-0.99023-0.382 0-0.71001 0.10497-0.95801 0.29297-0.169 0.135-0.23001 0.22447-0.41601 0.58447-0.079 0.172-0.13345 0.21826-0.23145 0.21826h-0.24756v-1.2993h0.38965c0.054 0.09 0.1244 0.13477 0.2124 0.13477 0.054 0 0.0894-0.007059 0.2754-0.060059 0.44299-0.126 0.68254-0.17139 0.95654-0.17139 1.081 0 1.9321 0.72023 1.9321 1.6362 0 0.443-0.23063 0.86965-0.61963 1.1396-0.196 0.136-0.50487 0.2562-1.3389 0.5332-0.771 0.263-1.0356 0.48923-1.0356 0.88623 0 0.442 0.40712 0.76465 0.97412 0.76465 0.532 0 0.79811-0.17297 1.0371-0.66797 0.16-0.33 0.18612-0.36035 0.32812-0.36035h0.21973v1.125h-0.31787c-0.07-0.067-0.12425-0.09668-0.17725-0.09668-0.035 0-0.089 0.014707-0.18603 0.074707-0.284 0.158-0.54045 0.21826-0.87745 0.21826zm5.3965 0v-1.2539h0.27539c0.088 0 0.14057 0.061262 0.18457 0.21826 0.133 0.458 0.37216 0.60059 0.99316 0.60059h0.55957v-4.0752c0-0.218-0.0634-0.28541-0.27539-0.31641l-0.0879-0.00586c-0.108-0.016-0.16113-0.06009-0.16113-0.14209v-0.12891h1.916v0.12891c0 0.082-0.0531 0.12609-0.14209 0.14209l-0.0982 0.00586c-0.212 0.023-0.28271 0.098407-0.28271 0.31641v4.0752h0.5039c0.567 0 0.74486-0.075114 0.92285-0.39111 0.23-0.435 0.23008-0.42773 0.37208-0.42773h0.20361v1.2539c-0.23-0.076-0.4172-0.098145-0.7002-0.098145h-3.4556c-0.381 0-0.53303 0.022145-0.72803 0.098145zm-84.976-0.098144v-0.12744c0-0.083 0.04305-0.12709 0.12305-0.14209l0.07178-0.00732c0.221-0.037 0.27393-0.098407 0.27393-0.31641v-3.4966c0-0.36-0.07014-0.51015-0.26514-0.57715-0.204-0.075-0.19461-0.067262-0.20361-0.21826v-0.12012h1.3901v0.12012c-8e-3 0.135-0.0082 0.13529-0.17725 0.19629-0.222 0.081-0.29297 0.26159-0.29297 0.70459v3.4072l1.8882-4.4282h0.46143l1.8794 4.4282v-3.835c0-0.225-0.03639-0.26341-0.27539-0.31641l-0.04541-0.00586c-0.114-0.031-0.14941-0.06009-0.14941-0.14209v-0.12891h1.8076v0.12891c0 0.082-0.03593 0.13409-0.10693 0.14209l-0.08789 0.00586c-0.213 0.023-0.27539 0.098407-0.27539 0.31641v3.8188c0 0.218 0.06239 0.28541 0.27539 0.31641l0.07031 0.00732c0.08 0.015 0.12451 0.05909 0.12451 0.14209v0.12744h-1.5601l-1.6479-3.8335-1.6582 3.8335zm7.437 0v-0.12744c0-0.083 0.03509-0.11909 0.14209-0.14209l0.05273-0.00732c0.23-0.045 0.27393-0.090407 0.27393-0.31641v-3.8189c0-0.225-0.04393-0.27041-0.27393-0.31641l-0.05273-0.00586c-0.107-0.023-0.14209-0.06009-0.14209-0.14209v-0.12891h1.8076v0.12891c0 0.074-0.04509 0.11909-0.14209 0.14209l-0.05273 0.00586c-0.24 0.053-0.27393 0.091407-0.27393 0.31641v3.8188c0 0.226 0.03393 0.26341 0.27393 0.31641l0.05273 0.00732c0.097 0.023 0.14209 0.06709 0.14209 0.14209v0.12744zm8.0493 0v-0.12744c0-0.061 0.05367-0.11109 0.15967-0.14209l0.03369-0.00732c0.24-0.053 0.27539-0.090731 0.27539-0.32373v-3.8115c0-0.225-0.03539-0.26341-0.27539-0.31641l-0.04395-0.00586c-0.107-0.031-0.14941-0.07509-0.14941-0.14209v-0.12891h1.79v0.12891c0 0.082-0.0363 0.11909-0.1333 0.14209l-0.04541 0.00586c-0.239 0.053-0.27393 0.091407-0.27393 0.31641v1.8076h2.6411v-1.8076c0-0.225-0.03493-0.26341-0.27392-0.31641l-0.04541-0.00586c-0.106-0.023-0.14209-0.06009-0.14209-0.14209v-0.12891h1.7988v0.12891c0 0.074-0.04341 0.11909-0.14941 0.14209l-0.04395 0.00586c-0.24 0.053-0.27539 0.091407-0.27539 0.31641v3.8115c0 0.225 0.04439 0.27873 0.27539 0.32373l0.05274 0.00732c0.106 0.023 0.14062 0.05909 0.14062 0.14209v0.12744h-1.7988v-0.12744c0-0.083 0.03609-0.11909 0.14209-0.14209l0.04541-0.00732c0.239-0.053 0.27392-0.090731 0.27392-0.32373v-1.6655h-2.6411v1.6655c0 0.233 0.03493 0.27073 0.27393 0.32373l0.04541 0.00732c0.097 0.023 0.1333 0.05909 0.1333 0.14209v0.12744zm6.2666 0v-0.12744c0-0.083 0.03463-0.11909 0.14062-0.14209l0.0542-0.00732c0.23-0.045 0.27392-0.090407 0.27392-0.31641v-3.8189c0-0.225-0.04393-0.27041-0.27392-0.31641l-0.0542-0.00586c-0.106-0.023-0.14062-0.06009-0.14062-0.14209v-0.12891h1.8076v0.12891c0 0.074-0.04362 0.11909-0.14062 0.14209l-0.0542 0.00586c-0.24 0.053-0.27392 0.091407-0.27392 0.31641v3.8188c0 0.226 0.03393 0.26341 0.27392 0.31641l0.0542 0.00732c0.097 0.023 0.14062 0.06709 0.14062 0.14209v0.12744zm14.865 0v-0.12744c0-0.083 0.04451-0.12709 0.12451-0.14209l0.07031-0.00732c0.221-0.037 0.27393-0.098407 0.27393-0.31641v-3.4893c0-0.412-0.05203-0.49456-0.35303-0.62256-0.098-0.037-0.10672-0.052176-0.11572-0.18018v-0.12012h1.3916v0.12012c-8e-3 0.135-0.01867 0.15129-0.15967 0.19629-0.257 0.089-0.31055 0.24047-0.31055 0.85547v3.271l3.4731-4.4429h0.39111v4.0679c0 0.413 0.07887 0.57032 0.31787 0.65332 0.134 0.037 0.14188 0.051766 0.15088 0.13477v0.14941h-1.3901v-0.14941c0-0.053 0.06251-0.12788 0.12451-0.15088 0.283-0.09 0.34424-0.17944 0.34424-0.50244v-2.7393l-2.7744 3.542zm8.7905 0v-0.12744c0-0.083 0.03609-0.11909 0.14209-0.14209l0.0542-0.00732c0.222-0.045 0.27393-0.097645 0.27393-0.28564v-2.9121c0-1.058 0.79794-1.6582 2.1899-1.6582 1.32 0 2.1621 0.63823 2.1621 1.6362v2.5518c0 0.435 0.04382 0.55412 0.19482 0.59912 0.239 0.061 0.26493 0.083938 0.27393 0.21094v0.13477h-1.4355v-0.11279c-9e-3 -0.143 9e-3 -0.1575 0.18604-0.1875 0.257-0.037 0.32812-0.16415 0.32812-0.57715v-2.439c0-0.42-0.04404-0.6155-0.18604-0.8335-0.257-0.389-0.78018-0.61523-1.4092-0.61523-0.887 0-1.4355 0.44276-1.4355 1.1558v3.0161c0 0.226 0.03618 0.26341 0.28418 0.31641l0.04395 0.00732c0.106 0.023 0.14209 0.05909 0.14209 0.14209v0.12744zm6.208 0v-0.12744c0-0.083 0.04405-0.12709 0.12305-0.14209l0.07178-0.00732c0.222-0.037 0.27539-0.098407 0.27539-0.31641v-3.4893c0-0.412-0.05396-0.49456-0.35596-0.62256-0.098-0.037-0.10426-0.052176-0.11426-0.18018v-0.12012h1.3901v0.12012c-8e-3 0.135-0.0162 0.15129-0.1582 0.19629-0.257 0.089-0.31055 0.24047-0.31055 0.85547v3.271l3.4731-4.4429h0.39111v4.0679c0 0.413 0.07887 0.57032 0.31787 0.65332 0.133 0.037 0.14288 0.051766 0.15088 0.13477v0.14941h-1.3901v-0.14941c0-0.053 0.06105-0.12788 0.12305-0.15088 0.283-0.09 0.3457-0.17944 0.3457-0.50244v-2.7393l-2.7744 3.542zm6.2051 0v-0.12744c0-0.083 0.03609-0.11909 0.14209-0.14209l0.05273-0.00732c0.231-0.045 0.27539-0.090407 0.27539-0.31641v-3.8189c0-0.225-0.04439-0.27041-0.27539-0.31641l-0.05273-0.00586c-0.106-0.023-0.14209-0.06009-0.14209-0.14209v-0.12891h1.8091v0.12891c0 0.074-0.04509 0.11909-0.14209 0.14209l-0.0542 0.00586c-0.239 0.053-0.27393 0.091407-0.27393 0.31641v3.8188c0 0.226 0.03493 0.26341 0.27393 0.31641l0.0542 0.00732c0.097 0.023 0.14209 0.06709 0.14209 0.14209v0.12744zm2.5986 0v-0.14941c0-0.076 0.03613-0.10512 0.16113-0.12012 0.176-0.014 0.21208-0.051883 0.30908-0.25488l2.0112-4.5557h0.41748l1.9834 4.3887c0.134 0.301 0.19648 0.35488 0.41748 0.42188 0.116 0.031 0.15967 0.059117 0.15967 0.12012v0.14941h-1.4268v-0.14941c0-0.076 0.02546-0.089441 0.16846-0.12744 0.159-0.037 0.22998-0.10526 0.22998-0.21826 0-0.06-0.04389-0.22462-0.08789-0.30762l-1.4355-3.2197-1.5073 3.4072c-0.035 0.067-0.04395 0.11241-0.04395 0.14941 0 0.098 0.06302 0.15229 0.24902 0.19629 0.114 0.023 0.1582 0.059117 0.1582 0.12012v0.14941zm11.484 0v-0.12744c0-0.083 0.0251-0.11109 0.14209-0.14209l0.0527-0.014648c0.311-0.151 0.27393-0.11438 0.27393-0.33838v-3.7896c0-0.225-0.0429-0.27041-0.27393-0.31641l-0.063-0.00586c-0.097-0.023-0.13183-0.05209-0.13183-0.14209v-0.12891h1.8091v0.12891c0 0.082-0.0285 0.11109-0.14355 0.14209l-0.0527 0.00586c-0.239 0.053-0.27392 0.091407-0.27392 0.31641v1.8164h0.43212c0.134 0 0.28454-0.045793 0.37354-0.11279 0.142-0.113 0.38089-0.39064 0.56689-0.66064l1.1426-1.6362h1.2671v0.15088c0 0.105-0.0431 0.12641-0.20215 0.14941-0.213 0.03-0.31179 0.097379-0.48779 0.33838l-1.0635 1.4634c-0.204 0.277-0.36261 0.37541-0.68261 0.42041 1.099 0.067 1.7812 0.54677 1.7812 1.2598 0 0.368-0.23983 0.71294-0.67383 0.96094-0.31 0.187-0.6903 0.26221-1.2583 0.26221zm10.459 0v-0.12744c0-0.083 0.0351-0.11909 0.14209-0.14209l0.0527-0.00732c0.231-0.045 0.27539-0.090407 0.27539-0.31641v-3.8189c0-0.225-0.0444-0.27041-0.27539-0.31641l-0.0527-0.00586c-0.107-0.023-0.14209-0.06009-0.14209-0.14209v-0.12891h1.8091v0.12891c0 0.074-0.0455 0.11909-0.14355 0.14209l-0.0527 0.00586c-0.239 0.053-0.27539 0.091407-0.27539 0.31641v3.8188c0 0.226 0.0364 0.26341 0.27539 0.31641l0.0527 0.00732c0.098 0.023 0.14355 0.06709 0.14355 0.14209v0.12744zm8.1548 0 0.0102-0.14355c0-0.059 0.0249-0.096004 0.0879-0.104 0.257-0.061 0.34573-0.12812 0.59473-0.49512l1.5586-2.2134v-1.4561c0-0.225-0.0449-0.27041-0.27392-0.31641l-0.0542-0.00586c-0.106-0.023-0.14209-0.06009-0.14209-0.14209v-0.12891h1.8091v0.12891c0 0.082-0.0537 0.11909-0.15967 0.14209l-0.0542 0.014648c-0.213 0.038-0.25634 0.089617-0.25634 0.30762v1.5146l1.5864 2.2295c0.203 0.286 0.30174 0.35941 0.53174 0.42041 0.098 0.022 0.12451 0.053004 0.12451 0.104v0.14355h-1.5073v-0.14355c0-0.067 0.045-0.087977 0.18603-0.12598 0.186-0.038 0.23877-0.07509 0.23877-0.14209 0-0.068-0.0342-0.14405-0.1582-0.33105l-1.1968-1.7563-1.3037 1.8311c-0.07 0.105-0.12451 0.21056-0.12451 0.24756 0 0.067 0.0543 0.12055 0.15234 0.14355 0.212 0.038 0.24903 0.059301 0.24903 0.1333v0.14355zm-17.275-0.33691h1.0898c0.629 0 1.0635-0.37632 1.0635-0.92432 0-0.63-0.47872-0.99756-1.3037-0.99756h-0.8496zm-40.436-0.85547 0.98438-2.0801h-1.9849z" fill="#046a38" stroke="#046a38" stroke-width=".06"/>
   <path d="m0 23.944v-23.884h23.946v23.884zm63.16-0.40869c-2.497 0-4.4531-1.675-4.4531-3.813 0-2.758 2.3317-3.5706 4.3887-4.2876 1.797-0.627 3.4951-1.2186 3.4951-2.9766 0-1.495-1.3805-2.6235-3.2095-2.6235-2.375 0-3.0174 1.3477-3.4424 2.2397-0.218 0.459-0.39089 0.82031-0.73389 0.82031h-0.83203v-3.9331h1.2188l0.03369 0.067383c0.068 0.136 0.25131 0.32812 0.44531 0.32812 0.131 0 0.41421-0.083641 0.74121-0.18164 0.669-0.198 1.5859-0.47021 2.5239-0.47021 2.945 0 5.2529 2.0481 5.2529 4.6611 0 2.93-2.4776 3.7798-4.6626 4.5308-1.753 0.601-3.2651 1.1212-3.2651 2.5562 0 1.166 1.0406 2.0112 2.4756 2.0112 1.827 0 2.2743-1.0692 2.6353-1.9292 0.21-0.501 0.3921-0.9331 0.8291-0.9331h0.81006v3.3809h-1.04l-0.03809-0.03955c-0.088-0.094-0.21949-0.21826-0.35449-0.21826-0.081 0-0.23648 0.08078-0.41748 0.17578-0.455 0.237-1.2149 0.63428-2.4009 0.63428zm-13.251-0.10254c-0.078 0-0.22381-0.05807-0.7998-0.37207l-0.09375-0.05274c-0.012-5e-3 -0.12744-0.06445-0.12744-0.06445-0.431-0.216-0.854-0.44752-0.854-0.70752 0-0.189 0.14397-0.48783 0.29297-0.77783l0.03076-0.06006c-2e-3 3e-3 0.1887-0.41667 0.2417-0.53467-0.044-0.097-4.3301-9.3809-4.3301-9.3809-0.59-1.27-1.1096-1.4075-1.4546-1.4985-0.239-0.063-0.46436-0.12132-0.46436-0.54932v-0.47314h4.1953v0.47314c0 0.476-0.36721 0.55577-0.63721 0.61377-0.316 0.067-0.49512 0.12236-0.49512 0.46436 0 0.28 0.23096 0.78948 0.35596 1.0635 0.011 0.022 0.42013 0.96301 0.53613 1.229h5.9912c0.06-0.126 0.67822-1.4224 0.67822-1.4224 0.103-0.213 0.34424-0.70881 0.34424-1.0078 0-0.27-0.16493-0.30935-0.48193-0.36035-0.284-0.045-0.67236-0.10808-0.67236-0.58008v-0.47314h5.2178v0.47314c0 0.449-0.18013 0.50706-0.43213 0.53906-0.26 0.032-0.65082 0.083593-1.1118 1.0796l-5.5957 11.958c-3e-3 4e-3 -0.01758 0.04541-0.01758 0.04541-0.058 0.15-0.14241 0.37646-0.31641 0.37646zm-9.7236-0.0044-0.17871-0.09082c-0.343-0.176-0.87815-0.28125-1.4312-0.28125h-9.1157v-0.47022c0-0.473 0.32982-0.50341 0.56982-0.52441 0.324-0.03 0.62842-0.05616 0.62842-0.88916v-10.252c0-0.833-0.31107-0.85916-0.64307-0.88916-0.244-0.02-0.57715-0.04995-0.57715-0.52295v-0.47314h11.681v3.8276h-0.52148c-0.742 0-0.85154-0.50516-0.95654-0.99316-0.166-0.763-0.37077-1.7124-2.8638-1.7124h-3.5859v5.603h1.5864c1.067 0 1.1865-0.35163 1.3125-0.72363 0.11-0.322 0.23459-0.68848 0.97559-0.68848h0.49951v3.8481h-0.49951c-0.69 0-0.77461-0.32724-0.84961-0.61524-0.09-0.343-0.18248-0.7002-1.4385-0.7002h-1.5864v5.0566h3.1201c1.821 0 2.0892-0.72238 2.3262-1.3594 0.16-0.431 0.32788-0.87744 1.0049-0.87744h0.54346zm28.783-0.07324v-3.8247h0.54346c0.815 0 0.91428 0.46267 1.0093 0.90967 0.142 0.668 0.30328 1.4238 2.6763 1.4238h1.1001v-11.017c0-0.831-0.34545-0.85916-0.71045-0.88916-0.263-0.02-0.62109-0.04895-0.62109-0.52295v-0.47314h5.1958v0.47314c0 0.474-0.35956 0.50295-0.62256 0.52295-0.365 0.03-0.71045 0.058162-0.71045 0.88916v11.017h1.1001c2.373 0 2.5343-0.75583 2.6763-1.4238 0.096-0.447 0.19474-0.90967 1.0107-0.90967h0.54346v3.8247l-0.17871-0.09082c-0.345-0.176-0.87962-0.27978-1.4326-0.27978h-9.9697c-0.553 0-1.0886 0.10378-1.4326 0.27978zm25.179 0-0.17871-0.09082c-0.344-0.176-0.87962-0.27978-1.4326-0.27978h-9.1157v-0.47168c0-0.474 0.33029-0.50341 0.57129-0.52441 0.324-0.03 0.62842-0.0557 0.62842-0.8877v-10.254c0-0.833-0.31207-0.85916-0.64307-0.88916-0.244-0.02-0.57861-0.04995-0.57861-0.52295v-0.47314h11.681v3.8276h-0.52002c-0.742 0-0.85301-0.50516-0.95801-0.99316-0.165-0.764-0.36931-1.7124-2.8623-1.7124h-3.5859v5.6045h1.5864c1.066 0 1.1875-0.3531 1.3125-0.7251 0.111-0.322 0.23359-0.68701 0.97559-0.68701h0.49951v3.8452h-0.49951c-0.691 0-0.77608-0.32577-0.85107-0.61377-0.09-0.344-0.18202-0.7002-1.437-0.7002h-1.5864v5.0566h3.1201c1.822 0 2.0892-0.72238 2.3262-1.3594 0.16-0.431 0.32688-0.87744 1.0049-0.87744h0.54346zm2.4038-0.3706v-0.47168c0-0.474 0.33461-0.50341 0.57861-0.52441 0.33-0.03 0.64307-0.0567 0.64307-0.8877v-10.254c0-0.832-0.31778-0.85916-0.65478-0.88916-0.248-0.02-0.58887-0.04895-0.58887-0.52295v-0.47314h4.9966v0.47314c0 0.473-0.33461 0.50295-0.57861 0.52295-0.331 0.03-0.64307 0.056162-0.64307 0.88916v4.8193h0.5669c1.434 0 1.6868-0.38131 2.9048-2.2163l0.0791-0.12012 2.9238-4.3682h3.5186v0.47314c0 0.449-0.19001 0.50885-0.47901 0.54785-0.318 0.043-0.79619 0.10683-1.4502 1.0488l-2.5781 3.7061c-0.41 0.597-0.74412 1.0218-1.3491 1.2378 2.089 0.238 4.1016 1.3781 4.1016 3.5581 0 2.73-3.1736 3.4512-4.8516 3.4512zm14.842 0v-0.47168c0-0.474 0.34319-0.50341 0.59619-0.52441 0.343-0.03 0.66944-0.0567 0.66944-0.8877v-9.2754c0-1.565-0.45578-1.6531-0.82178-1.7241-0.271-0.052-0.57715-0.11251-0.57715-0.6665v-0.47314h4.396v0.47314c0 0.554-0.33249 0.6145-0.62549 0.6665-0.425 0.076-0.90674 0.16012-0.90674 1.7241v9.1641c0.42-0.564 8.9663-12.028 8.9663-12.028h1.2495v11.158c0 1.567 0.44048 1.6571 0.79248 1.7271 0.264 0.053 0.5625 0.11151 0.5625 0.6665v0.47168h-4.1748v-0.47168c0-0.555 0.29903-0.6135 0.56103-0.6665 0.354-0.07 0.79248-0.16005 0.79248-1.7271v-6.6914c-0.414 0.556-7.1221 9.5566-7.1221 9.5566zm-11.089-1.0635h2.7217c1.353 0 2.8081-0.77831 2.8081-2.4873 0-2.441-2.3987-2.7041-3.4307-2.7041h-2.0991zm-50.993-2.6016c0.199-0.425 2.3541-5.031 2.4961-5.335h-4.9497c0.139 0.303 2.2576 4.909 2.4536 5.335z" fill="#046a38"/>
   <path d="m5.882 7.657h1.628v9.021h-1.628v2.311h12.015v-4.32h-2.592v2.009h-4.239v-3.135h3.132v-2.309h-3.132v-3.577h4.239v2.029h2.592v-4.34h-12.015v2.311" fill="#fff"/>
  </g>
 </g>
</svg>