<svg xmlns="http://www.w3.org/2000/svg" viewBox="0 0 563.35 446.65" enable-background="new 0 0 563.35 446.65"><path class="st0" fill="#26B298" d="M506.9 7.16c-1.18 0-2.13.95-2.13 2.13V192.6c0 7.12-1.63 13.04-4.71 17.67-.3.45.2 1.01.7.81 18.6-7.46 29.69-15.3 38.2-26.72 15.75-21.12 24.38-46.31 24.38-70.92V9.28c0-1.18-.95-2.13-2.13-2.13H506.9zm-10.24 218.32c-31.31 11.18-41.66 31.94-45.05 43.21-.26.85.29 1.74 1.16 1.89 6.51 1.1 13.32 1.68 20.39 1.68 53.52 0 90.19-32.03 90.19-78.81v-23.06c0-.9-1.2-1.17-1.6-.36-3.69 7.48-8.08 14.7-13.16 21.51-11.11 14.9-26.15 24.73-51.93 33.94zM473.76 223.08c.48-.29.27-1.01-.28-1-20.49.15-31.08-10.82-31.08-29.47V9.29c0-1.18-.95-2.13-2.13-2.13h-56.85c-1.18 0-2.13.95-2.13 2.13v184.16c0 35.65 22.52 62.71 56.74 73.58.79.25 1.64-.2 1.87-.99 3.17-11.03 11.6-29.38 33.86-42.96z"/><path d="M270.1 0c-59.41 0-93.96 37.54-93.96 85.99v100.27c0 48.45 34.55 85.99 93.96 85.99 58.56 0 88.48-34.17 88.48-80.94v-25.26c0-1.18-.95-2.13-2.13-2.13h-49.67c-1.18 0-2.13.95-2.13 2.13v23.99c0 19.38-11.38 32.02-33.71 32.02s-33.7-13.06-33.7-30.76V81.36c0-18.12 11.38-31.18 33.7-31.18 22.33 0 33.71 12.64 33.71 32.02v24c0 1.18.95 2.13 2.13 2.13h49.67c1.18 0 2.13-.95 2.13-2.13V80.94C358.58 34.17 328.67 0 270.1 0z"/><g><path d="M2.16 265.09h152.06c1.18 0 2.13-.95 2.13-2.13v-48.41c0-1.18-.95-2.13-2.13-2.13H61.69c-.78 0-1.41-.63-1.41-1.41V154.8c0-.78.63-1.41 1.41-1.41h62.61c1.18 0 2.13-.95 2.13-2.13v-41.25c0-1.18-.95-2.13-2.13-2.13H61.69c-.78 0-1.41-.63-1.41-1.41V59.13c0-.78.63-1.41 1.41-1.41h92.53c1.18 0 2.13-.95 2.13-2.13V9.29c0-1.18-.95-2.13-2.13-2.13H2.16C.98 7.16.03 8.11.03 9.29v253.67c0 1.18.95 2.13 2.13 2.13zM40.32 313.43c-.2.2-.43.29-.71.29H12.2c-.28 0-.42.14-.42.42v12.95c0 .28.14.42.42.42h17.97c.28 0 .51.1.71.29.19.2.29.43.29.71v8.11c0 .28-.1.51-.29.71-.19.19-.43.29-.71.29H12.2c-.28 0-.42.14-.42.42v13.54c0 .28.14.42.42.42h27.41c.28 0 .51.1.71.29.19.19.29.43.29.71v8.11c0 .28-.1.52-.29.71-.2.2-.43.29-.71.29H1c-.28 0-.51-.1-.71-.29-.19-.19-.29-.43-.29-.71v-56.5c0-.28.1-.51.29-.71.19-.19.43-.29.71-.29h38.61c.28 0 .51.1.71.29.19.19.29.43.29.71v8.11c.01.28-.09.52-.29.71zM55.1 361.82c-.2-.19-.29-.43-.29-.71v-56.5c0-.28.1-.51.29-.71.19-.19.43-.29.71-.29H76.7c4.18 0 7.84.74 10.99 2.21 3.15 1.48 5.59 3.55 7.31 6.23 1.73 2.67 2.59 5.77 2.59 9.28v23.07c0 3.51-.87 6.6-2.59 9.28-1.73 2.67-4.17 4.75-7.31 6.23-3.15 1.48-6.81 2.21-10.99 2.21H55.81c-.28 0-.51-.1-.71-.3zm11.91-9.81h10.11c2.56 0 4.64-.86 6.23-2.59 1.59-1.72 2.41-4.04 2.47-6.94v-19.22c0-2.9-.8-5.21-2.38-6.94-1.59-1.73-3.72-2.59-6.39-2.59H67.01c-.28 0-.42.14-.42.42v37.44c0 .27.14.42.42.42zM112.19 361.82c-.2-.19-.29-.43-.29-.71v-56.5c0-.28.1-.51.29-.71.19-.19.43-.29.71-.29h9.78c.28 0 .51.1.71.29.2.19.29.43.29.71v56.5c0 .28-.1.52-.29.71-.19.2-.43.29-.71.29h-9.78c-.28.01-.51-.09-.71-.29zM180.39 303.91c.2.19.29.43.29.71v8.19c0 .28-.1.52-.29.71-.19.19-.43.29-.71.29h-14.96c-.28 0-.42.14-.42.42v46.89c0 .28-.1.52-.29.71-.19.2-.43.29-.71.29h-9.78c-.28 0-.51-.1-.71-.29-.2-.19-.29-.43-.29-.71v-46.89c0-.27-.14-.42-.42-.42h-14.54c-.28 0-.52-.1-.71-.29-.2-.19-.29-.43-.29-.71v-8.19c0-.28.1-.51.29-.71.19-.19.43-.29.71-.29h42.12c.28 0 .52.09.71.29zM223.89 303.91c.2-.19.43-.29.71-.29h9.78c.28 0 .51.1.71.29.19.19.29.43.29.71v56.5c0 .28-.1.52-.29.71-.19.2-.43.29-.71.29h-9.78c-.28 0-.51-.1-.71-.29-.19-.19-.29-.43-.29-.71v-23.07c0-.23-.19-.42-.42-.42h-18.47c-.23 0-.42.19-.42.42v23.06c0 .28-.1.52-.29.71-.19.2-.43.29-.71.29h-9.78c-.28 0-.51-.1-.71-.29-.2-.19-.29-.43-.29-.71v-56.5c0-.28.1-.51.29-.71.19-.19.43-.29.71-.29h9.78c.28 0 .51.1.71.29.2.19.29.43.29.71v22.48c0 .23.19.42.42.42h18.47c.23 0 .42-.19.42-.42v-22.48c0-.27.1-.51.29-.7zM36.01 381.64c-.47 0-.85.38-.85.85v42.37c0 3.41-1.07 6.21-3.17 8.31-2.1 2.1-4.9 3.17-8.31 3.17s-6.21-1.07-8.31-3.17c-2.1-2.1-3.17-4.9-3.17-8.31v-42.37c0-.47-.38-.85-.85-.85H.88c-.47 0-.85.38-.85.85v42.28c0 4.3 1 8.15 2.96 11.44 1.96 3.29 4.75 5.88 8.29 7.69 3.55 1.82 7.72 2.74 12.4 2.74 4.68 0 8.86-.92 12.4-2.74 3.54-1.81 6.32-4.4 8.28-7.69 1.96-3.29 2.96-7.14 2.96-11.44v-42.28c0-.47-.38-.85-.85-.85H36.01zM103.9 382.49l.08 40.74c0 .29-.37.39-.52.15l-24.85-41.06c-.26-.42-.71-.68-1.2-.68H67.29c-.47 0-.85.38-.85.85v62.57c0 .47.38.85.85.85h10.28c.47 0 .85-.38.85-.85v-40.98c0-.29.38-.39.52-.15l24.98 41.29c.26.42.71.68 1.2.68h10.1c.47 0 .85-.38.85-.85v-62.57c0-.47-.38-.85-.85-.85h-10.48c-.46.01-.84.39-.84.86zM148.48 445.9h-11.32c-.23 0-.43-.19-.43-.43v-63.41c0-.23.19-.43.43-.43h11.32c.23 0 .43.19.43.43v63.41c0 .24-.19.43-.43.43zM234.57 382.49v62.57c0 .47.38.85.85.85h42.62c.47 0 .85-.38.85-.85v-8.62c0-.47-.38-.85-.85-.85H247.3c-.31 0-.56-.25-.56-.56v-15.86c0-.31.25-.56.56-.56l20.21-.01c.47 0 .84-.38.84-.85v-8.62c0-.47-.38-.85-.85-.85l-20.21.01c-.31 0-.56-.25-.56-.56v-15.21c0-.31.25-.56.56-.56l30.74-.01c.47 0 .84-.38.84-.85v-8.62c0-.47-.38-.85-.85-.85l-42.62.01c-.45 0-.83.38-.83.85zM343.15 444.69l-12.45-25.88c-.22-.46 0-1.01.49-1.16 1.87-.62 6.18-2.38 8.76-6.24 1.98-2.96 3.08-6.48 3.08-10.58 0-3.81-.81-7.21-2.41-10.11-1.59-2.88-3.88-5.14-6.79-6.7-2.93-1.57-6.38-2.37-10.25-2.37h-26.44c-.47 0-.85.38-.85.85v62.57c0 .47.38.85.85.85h10.48c.47 0 .85-.38.85-.85v-25.62c0-.31.25-.56.56-.56h8.84c.55 0 1.06.32 1.28.83l11.43 25.36c.23.5.73.83 1.28.83h10.52c.63-.01 1.04-.66.77-1.22zm-21.6-34.91h-12.59c-.31 0-.56-.25-.56-.56v-16.7c0-.31.25-.56.56-.56h12.59c2.72 0 4.98.84 6.72 2.51 1.74 1.67 2.62 3.85 2.62 6.45 0 2.61-.88 4.77-2.62 6.41-1.74 1.63-4 2.45-6.72 2.45zM437.85 445.9h-11.32c-.23 0-.43-.19-.43-.43v-63.41c0-.23.19-.43.43-.43h11.32c.23 0 .43.19.43.43v63.41c0 .24-.19.43-.43.43zM404.07 418.97c-1.97-2.39-4.2-4.21-6.64-5.42-2.49-1.23-5.97-2.67-10.34-4.27-4.06-1.46-6.95-2.57-8.84-3.41-1.95-.86-3.44-1.86-4.45-2.96-1.04-1.14-1.57-2.56-1.57-4.24 0-2.32.9-4.18 2.66-5.51 1.72-1.3 4.12-1.96 7.14-1.96 3.83 0 6.9.96 9.12 2.86 1.44 1.23 2.32 2.69 2.95 4.23.36.89.44 2.4.44 3.34 0 .46.38.83.84.83h10.29c.47 0 .85-.38.85-.85-.01-1.12-.05-3.06-.18-3.89-.43-2.76-1.33-5.28-2.86-7.49-2.03-2.93-4.87-5.24-8.47-6.87-3.61-1.64-7.79-2.47-12.43-2.47-4.39 0-8.31.74-11.64 2.19-3.32 1.45-5.95 3.55-7.81 6.26-1.86 2.7-2.8 5.9-2.8 9.51 0 3.67.95 6.78 2.84 9.26 1.9 2.51 4.29 4.52 7.1 5.97 2.85 1.47 6.39 2.94 10.52 4.36 3.7 1.35 6.45 2.44 8.19 3.23 1.75.8 3.17 1.74 4.2 2.8 1.08 1.11 1.63 2.5 1.63 4.11 0 2.19-.87 4.05-2.59 5.54-1.7 1.47-4.28 2.22-7.68 2.22-4 0-7.08-1.12-9.61-2.66-3.07-1.87-3.56-6.14-3.63-7.92-.02-.45-.39-.8-.84-.8h-10.28c-.45 0-.82.34-.84.78-.11 2.03-.1 7.6 3.01 11.93 2.16 3.02 4.78 5.09 8.41 6.63 3.65 1.55 7.97 2.34 12.85 2.34 7.19 0 12.95-1.67 17.12-4.97 4.14-3.27 6.25-7.8 6.25-13.46.01-3.77-.98-6.88-2.91-9.24zM501.52 381.64h-47.03c-.47 0-.85.38-.85.85v8.71c0 .47.38.85.85.85h16.87c.31 0 .56.25.56.56v52.45c0 .47.38.85.85.85h10.48c.47 0 .85-.38.85-.85v-52.45c0-.31.25-.56.56-.56h16.87c.47 0 .85-.38.85-.85v-8.71c-.01-.47-.39-.85-.86-.85zM544.27 420.68l18.99-37.82c.28-.56-.13-1.22-.76-1.22h-11.33c-.33 0-.63.19-.76.49l-11.88 25.3c-.2.43-.82.43-1.02 0l-11.89-25.3c-.14-.3-.44-.49-.76-.49h-11.14c-.63 0-1.04.66-.76 1.22l18.82 37.82c.14.27.21.57.21.88v23.48c0 .47.38.85.85.85h10.39c.47 0 .85-.38.85-.85v-23.48c-.02-.3.05-.6.19-.88zM217.05 381.64h-10.6c-.64 0-1.19.43-1.36 1.04l-12.28 45.74c-.15.56-.94.56-1.09 0l-12.47-45.75c-.17-.61-.72-1.04-1.36-1.04H167c-.57 0-.97.55-.81 1.09l18.94 62.17c.18.59.73 1 1.35 1h10.8c.62 0 1.16-.4 1.35-.99l19.22-62.17c.18-.54-.23-1.09-.8-1.09zM341.87 360.36c-3.32-1.78-5.89-4.27-7.73-7.48-1.84-3.2-2.76-6.9-2.76-11.08v-17.89c0-4.12.92-7.77 2.76-10.95 1.84-3.18 4.42-5.64 7.73-7.4 3.31-1.76 7.14-2.63 11.49-2.63 4.4 0 8.26.88 11.57 2.63 3.31 1.76 5.89 4.22 7.73 7.4 1.84 3.18 2.76 6.83 2.76 10.95v17.89c0 4.18-.92 7.89-2.76 11.12-1.84 3.23-4.42 5.73-7.73 7.48-3.32 1.76-7.18 2.63-11.57 2.63-4.35.01-8.18-.89-11.49-2.67zM360.8 350c1.89-1.95 2.84-4.54 2.84-7.77v-18.39c0-3.23-.93-5.84-2.8-7.82-1.87-1.98-4.36-2.97-7.48-2.97-3.07 0-5.53.99-7.4 2.97-1.87 1.98-2.8 4.58-2.8 7.82v18.39c0 3.23.93 5.82 2.8 7.77 1.86 1.95 4.33 2.93 7.4 2.93 3.06-.01 5.54-.98 7.44-2.93zM399.02 361.28l-14.79-56.58-.08-.33c0-.5.31-.75.92-.75h10.36c.55 0 .92.28 1.09.84l7.94 34.02c.05.22.14.33.25.33.11 0 .19-.11.25-.33l7.69-33.93c.17-.61.53-.92 1.09-.92h10.11c.61 0 1 .28 1.17.84l8.36 34.02c.06.17.14.26.25.29.11.03.19-.07.25-.29l7.69-33.93c.17-.61.53-.92 1.09-.92h9.86c.78 0 1.09.36.92 1.09l-13.71 56.58c-.17.56-.56.84-1.17.84h-9.95c-.56 0-.92-.28-1.09-.84L419 325.09c-.06-.22-.14-.33-.25-.33-.11 0-.2.11-.25.33l-7.94 36.11c-.11.61-.48.92-1.09.92h-9.28c-.61 0-1-.28-1.17-.84zM495.09 361.28l-2.51-8.19c-.11-.22-.25-.33-.42-.33H471.6c-.17 0-.31.11-.42.33l-2.42 8.19c-.17.56-.53.84-1.09.84h-10.61c-.33 0-.58-.1-.75-.29-.17-.19-.2-.49-.08-.88l18.05-56.5c.17-.56.53-.84 1.09-.84h13.12c.56 0 .92.28 1.09.84l18.05 56.5c.05.11.08.25.08.42 0 .5-.31.75-.92.75h-10.61c-.56 0-.92-.28-1.09-.84zm-13.53-42.96l-7.35 24.82c-.06.33.05.5.33.5h14.71c.33 0 .45-.17.33-.5l-7.52-24.82s-.08-.29-.25-.29c-.18 0-.25.29-.25.29zM551.86 303.91c.19-.19.43-.29.71-.29h9.78c.28 0 .51.1.71.29.19.19.29.43.29.71v56.5c0 .28-.1.52-.29.71-.2.2-.43.29-.71.29h-9.44c-.56 0-.95-.22-1.17-.67l-21.65-35.77c-.11-.17-.22-.24-.33-.21-.11.03-.17.16-.17.38l.17 35.27c0 .28-.1.52-.29.71-.19.2-.43.29-.71.29h-9.78c-.28 0-.51-.1-.71-.29-.2-.19-.29-.43-.29-.71v-56.5c0-.28.1-.51.29-.71.19-.19.43-.29.71-.29h9.44c.56 0 .95.22 1.17.67l21.56 35.6c.11.17.22.24.33.21.11-.03.17-.15.17-.38l-.08-35.1c0-.28.09-.52.29-.71zM319.32 342.98c0-.42-.34-.77-.77-.77H308.3c-.42 0-.77.34-.77.77v.43c-.04 2.81-.93 5.1-2.7 6.84-1.81 1.79-4.19 2.67-7.15 2.67-3.01 0-5.42-.89-7.23-2.67-1.81-1.78-2.72-4.12-2.72-7.02v-20.39c0-2.95.91-5.32 2.72-7.1 1.81-1.78 4.22-2.67 7.23-2.67 2.95 0 5.34.9 7.15 2.67 1.77 1.75 2.66 4.06 2.7 6.92v.34c0 .42.34.77.77.77h10.26c.42 0 .77-.34.77-.77 0 0 .37-6.03-2.71-10.89-1.84-2.9-4.35-5.18-7.61-6.77-3.26-1.59-7.03-2.38-11.33-2.38-4.35 0-8.16.84-11.45 2.51-3.29 1.67-5.82 4.04-7.61 7.1-1.78 3.07-2.67 6.6-2.67 10.61v19.56c0 4.01.89 7.55 2.67 10.61s4.32 5.44 7.61 7.14c3.29 1.7 7.1 2.55 11.45 2.55 4.29 0 8.07-.81 11.33-2.42 3.26-1.61 5.79-3.9 7.61-6.85.23-.37 2.71-3.93 2.71-10.18-.01-.21-.01-.41-.01-.61z"/></g></svg>