<svg version="1.1" id="Layer_1" xmlns="http://www.w3.org/2000/svg" xmlns:xlink="http://www.w3.org/1999/xlink" x="0px" y="0px" viewBox="0 0 129 31" style="enable-background:new 0 0 129 31;" xml:space="preserve">
<style type="text/css">
	.st0{fill:#00BE96;}
</style>
<g>
	<path class="st0" d="M14.9,9c3.3,0,3.9,2.4,4,3.6h-8.2C11.1,10.4,12.6,9,14.9,9 M42.8,12.7h-2.7H40v0.1v10.3c0,1.5-1.3,3.1-3.5,3.1   c-2.3,0-4.1-1.6-4.1-3.1V12.8v-0.1h-0.1h-2.9h-1.5c-0.1-1.2-0.2-2.2-0.6-3.1c-0.7-1.7-1.5-2.9-2.4-3.9c-2.4-2.5-5.6-3.8-9.4-3.8   c-3.9,0-7.2,1.3-9.7,3.8S2,11.5,2,15.1c0,3.5,1.1,6.7,3.2,9.2c2.4,2.9,6.4,4.7,10.6,4.8c2.7,0.1,6.5-0.4,9.8-2.5l-1-2.2   c-2.4,1.5-5.1,2-8,2c-2.2-0.1-5.2-0.4-7.8-2.6c-0.9-0.7-3.7-3.5-3.7-8.6c0-3,1.1-5.7,3-7.6s4.6-3,7.6-3c3.2,0,5.6,1.1,7.6,3.4   c1.2,1.4,2,3.7,2,5.6c0,2.4-0.8,4.4-2.3,5.7c-1.4,1.3-3.4,2-5.7,2c-0.8,0-3-0.2-4.3-1.4c-2-1.8-2.1-4.1-2.1-4.7h11.2h0.1v-0.1   c0,0,0-1.4-0.1-2.3c-0.3-3.1-2.3-6.3-6.9-6.3c-2.9,0-5.3,1.5-6.6,4.2c-0.7,1.3-1,2.8-1,4.3c0,5.1,3.5,8.9,8.6,9.3   c0.9,0.1,1.3,0,1.3,0c4.2,0,7.2-1.9,9-4.8c0.4-0.7,1.2-2.2,1.5-4.2h1.5v7.5c0,0.1,0,0.2,0,0.3v0.5c0.2,3.4,4,5.4,7.1,5.4   c3.2,0,6.5-2.2,6.5-5.8V12.8v-0.1H42.8z"/>
	<rect x="48.3" y="2.5" class="st0" width="2" height="26"/>
	<path class="st0" d="M61.5,11.6c1,0,1.5-0.5,1.5-1.3v-0.1c0-0.8-0.5-1.3-1.6-1.3h-1.2v2.6h1.3V11.6z M61.4,7c1,0,1.4-0.3,1.4-1.1   V5.8c0-0.8-0.4-1.1-1.4-1.1h-1.2V7H61.4z M57,2.6h5.1c2.7,0,3.9,1.2,3.9,2.9v0.1c0,1.2-0.7,2.1-1.9,2.4c1.4,0.2,2.3,1.1,2.3,2.6   v0.1c0,2-1.3,3.1-4.2,3.1H57C57,13.8,57,2.6,57,2.6z"/>
	<path class="st0" d="M67.7,10.9V5.6h2.9v4.9c0,0.9,0.4,1.4,1.2,1.4c0.9,0,1.4-0.5,1.4-1.5V5.6h2.9v8.2h-2.9v-1.3   c-0.5,0.8-1.3,1.5-2.7,1.5C68.9,13.9,67.7,13,67.7,10.9"/>
	<path class="st0" d="M77.4,11.2h2.7c0.1,0.6,0.4,0.9,1.2,0.9c0.7,0,1-0.3,1-0.7s-0.4-0.6-1.6-0.7c-2.2-0.3-3.2-0.9-3.2-2.6   c0-1.8,1.7-2.7,3.6-2.7c2.1,0,3.5,0.7,3.7,2.6h-2.6c-0.1-0.5-0.4-0.8-1.1-0.8c-0.6,0-0.9,0.3-0.9,0.6c0,0.4,0.4,0.5,1.4,0.7   c2.3,0.3,3.5,0.9,3.5,2.6c0,1.9-1.5,2.8-3.8,2.8C78.9,13.9,77.5,13,77.4,11.2"/>
	<path class="st0" d="M86.5,5.6h2.9v8.2h-2.9V5.6z M86.3,3.4c0-0.8,0.7-1.5,1.6-1.5s1.6,0.6,1.6,1.5c0,0.8-0.7,1.4-1.6,1.4   C87,4.8,86.3,4.2,86.3,3.4"/>
	<path class="st0" d="M91.3,5.6h2.9v1.3c0.5-0.8,1.4-1.5,2.8-1.5c1.6,0,2.7,1,2.7,3.1v5.3h-2.9V9c0-0.9-0.4-1.4-1.2-1.4   c-0.9,0-1.4,0.5-1.4,1.5v4.6h-2.9V5.6z"/>
	<path class="st0" d="M107.1,8.8c0-1-0.5-1.5-1.5-1.5c-0.9,0-1.5,0.5-1.6,1.5H107.1z M101,9.8V9.7c0-2.6,2-4.3,4.5-4.3   c2.3,0,4.3,1.3,4.3,4.2v0.7h-5.9c0.1,1.1,0.7,1.7,1.8,1.7c0.9,0,1.4-0.4,1.5-1h2.7c-0.3,1.8-1.7,2.9-4.3,2.9   C103,13.9,101,12.4,101,9.8"/>
	<path class="st0" d="M110.8,11.2h2.7c0.1,0.6,0.4,0.9,1.2,0.9c0.7,0,1-0.3,1-0.7s-0.4-0.6-1.6-0.7c-2.2-0.3-3.2-0.9-3.2-2.6   c0-1.8,1.7-2.7,3.6-2.7c2.1,0,3.5,0.7,3.7,2.6h-2.6c-0.1-0.5-0.4-0.8-1.1-0.8c-0.6,0-0.9,0.3-0.9,0.6c0,0.4,0.4,0.5,1.4,0.7   c2.3,0.3,3.5,0.9,3.5,2.6c0,1.9-1.5,2.8-3.8,2.8C112.2,13.9,110.8,13,110.8,11.2"/>
	<path class="st0" d="M119.3,11.2h2.7c0.1,0.6,0.4,0.9,1.2,0.9c0.7,0,1-0.3,1-0.7s-0.4-0.6-1.6-0.7c-2.2-0.3-3.2-0.9-3.2-2.6   c0-1.8,1.7-2.7,3.6-2.7c2.1,0,3.5,0.7,3.7,2.6h-2.6c-0.1-0.5-0.4-0.8-1.1-0.8c-0.6,0-0.9,0.3-0.9,0.6c0,0.4,0.4,0.5,1.4,0.7   c2.3,0.3,3.5,0.9,3.5,2.6c0,1.9-1.5,2.8-3.8,2.8C120.8,13.9,119.4,13,119.3,11.2"/>
	<path class="st0" d="M56.2,25h3.1c0.1,0.8,0.5,1.5,1.8,1.5c0.9,0,1.5-0.5,1.5-1.1c0-0.7-0.4-0.9-1.8-1.1c-3.2-0.4-4.3-1.3-4.3-3.6   c0-2,1.7-3.5,4.5-3.5s4.3,1.1,4.5,3.5h-3.1c-0.1-0.8-0.6-1.2-1.5-1.2s-1.3,0.4-1.3,1s0.4,0.9,1.8,1.1c2.9,0.3,4.4,1,4.4,3.5   c0,2-1.7,3.7-4.6,3.7C58,28.7,56.3,27.4,56.2,25"/>
	<path class="st0" d="M66.9,24.5v-0.1c0-2.7,2-4.3,4.5-4.3c2.1,0,4,0.9,4.1,3.4h-2.7c-0.1-0.8-0.5-1.2-1.3-1.2c-1,0-1.6,0.7-1.6,2.1   v0.1c0,1.4,0.6,2.2,1.7,2.2c0.8,0,1.4-0.5,1.5-1.4h2.6c-0.1,2.1-1.5,3.4-4.2,3.4C68.8,28.7,66.9,27.3,66.9,24.5"/>
	<path class="st0" d="M76.9,16.8h2.9v4.9c0.5-0.8,1.4-1.5,2.8-1.5c1.6,0,2.7,1,2.7,3.1v5.3h-2.9v-4.7c0-0.9-0.4-1.4-1.2-1.4   c-0.9,0-1.4,0.5-1.4,1.5v4.6h-2.9V16.8z"/>
	<path class="st0" d="M92.9,24.5v-0.1c0-1.4-0.6-2.1-1.7-2.1s-1.7,0.7-1.7,2.1v0.1c0,1.4,0.6,2.2,1.7,2.2   C92.3,26.6,92.9,25.8,92.9,24.5 M86.6,24.5v-0.1c0-2.6,2-4.3,4.6-4.3s4.6,1.6,4.6,4.2v0.1c0,2.7-2,4.2-4.6,4.2   C88.6,28.7,86.6,27.2,86.6,24.5"/>
	<path class="st0" d="M103,24.5v-0.1c0-1.4-0.6-2.1-1.7-2.1s-1.7,0.7-1.7,2.1v0.1c0,1.4,0.6,2.2,1.7,2.2   C102.5,26.6,103,25.8,103,24.5 M96.8,24.5v-0.1c0-2.6,2-4.3,4.6-4.3s4.6,1.6,4.6,4.2v0.1c0,2.7-2,4.2-4.6,4.2S96.8,27.2,96.8,24.5"/>
	<rect x="107.5" y="16.8" class="st0" width="2.9" height="11.7"/>
</g>
</svg>