<svg width="167" height="44" viewBox="0 0 167 44" fill="none" xmlns="http://www.w3.org/2000/svg">
<g>
<path id="Vector" d="M23.8363 36.4442C23.8363 36.4442 23.8363 36.4651 23.8363 36.4859V36.4442ZM18.4929 26.7385V22.7728C16.9901 22.7519 14.9029 22.7728 12.4399 23.0024C6.03212 23.6077 0.104362 24.8392 0 24.86V37.5087C0 37.5087 5.9695 36.2355 12.4191 35.6302C14.882 35.4006 16.9901 35.3588 18.4721 35.4006V26.7594L18.4929 26.7385ZM41.1812 25.027C36.965 25.4027 34.0846 26.4046 30.0771 27.156V39.4498C30.0771 39.4498 30.0771 39.4498 30.0562 39.4498C28.4699 39.742 26.9254 39.9716 25.3391 40.1177C20.768 40.5561 19.2443 39.8881 18.8269 39.5124C18.5973 39.3246 18.5138 39.0532 18.5138 39.0532C18.5138 39.095 18.4721 39.4707 18.7643 39.7212C19.2235 40.1177 20.1836 40.5143 22.5422 40.5143C24.9008 40.5143 24.2537 40.4726 25.3599 40.3682C26.9671 40.2221 28.5117 39.9925 30.098 39.7003C31.4964 39.4289 32.7696 39.1367 34.0011 38.8445C36.2971 38.3018 38.4678 37.8009 41.2021 37.5713C46.7959 37.0912 50.2398 38.1349 50.2607 38.1349V25.5906C50.2607 25.5906 46.8794 24.5261 41.1812 25.027ZM26.988 19.9968L25.0677 20.4351L24.212 18.6609L23.3562 20.4351L21.4359 19.9968L22.2917 21.7709L20.7472 23.0024L22.6674 23.4407V25.4027L24.212 24.1712L25.7565 25.4027V23.4407L27.6768 23.0024L26.1322 21.7709L26.988 19.9968ZM26.988 9.12225L25.0677 9.56057L24.212 7.78641L23.3562 9.56057L21.4359 9.12225L22.2917 10.8964L20.7472 12.1279L22.6674 12.5662V14.5282L24.212 13.2967L25.7565 14.5282V12.5662L27.6768 12.1279L26.1322 10.8964L26.988 9.12225ZM26.988 30.8504L25.0677 31.2887L24.212 29.5146L23.3562 31.2887L21.4359 30.8504L22.2917 32.6245L20.7472 33.856L22.6674 34.2943V36.2563L24.212 35.0249L25.7565 36.2563V34.2943L27.6768 33.856L26.1322 32.6245L26.988 30.8504ZM42.4127 17.6799L40.4924 18.1182L39.6367 16.3441L38.7809 18.1182L36.8606 17.6799L37.7164 19.4541L36.1718 20.6855L38.0921 21.1239V23.0859L39.6367 21.8544L41.1812 23.0859V21.1239L43.1015 20.6855L41.5569 19.4541L42.4127 17.6799ZM12.5234 16.1354L10.6032 16.5737L9.7474 14.7995L8.89163 16.5737L6.97138 16.1354L7.82714 17.9095L6.28259 19.141L8.20285 19.5793V21.5413L9.7474 20.3098L11.292 21.5413V19.5793L13.2122 19.141L11.6677 17.9095L12.5234 16.1354ZM146.357 7.43158C150.323 7.43158 153.496 10.2494 153.496 14.2151C153.496 18.1809 150.323 20.9986 146.399 20.9986C142.475 20.9986 139.261 18.2017 139.261 14.2151C139.261 10.2285 142.433 7.43158 146.378 7.43158M146.378 18.2435C148.465 18.2435 150.219 16.6154 150.219 14.2151C150.219 11.8148 148.465 10.1867 146.378 10.1867C144.291 10.1867 142.517 11.8357 142.517 14.2151C142.517 16.5946 144.27 18.2435 146.378 18.2435ZM121.185 19.6211C121.185 19.1201 121.227 18.7027 121.227 18.7027H121.185C121.206 18.7027 120.204 20.9778 117.24 20.9778C114.276 20.9778 112.857 19.5376 112.857 16.9494C112.857 12.8375 118.409 12.5662 120.517 12.5662H120.955V12.3783C120.955 10.6668 119.891 10.1032 118.472 10.1032C117.052 10.1032 117.073 10.1032 116.426 10.1032C115.195 9.85278 114.276 8.76742 114.276 7.47333C114.986 7.47333 116.572 7.43158 118.785 7.43158C122.187 7.43158 124.17 9.3101 124.17 12.5871V20.6855H121.206V19.6211H121.185ZM120.976 14.7578H120.413C118.764 14.7578 116.092 14.9874 116.092 16.7824C116.092 18.5774 116.718 18.4522 118.054 18.4522C119.39 18.4522 120.976 16.6154 120.976 15.05V14.7369V14.7578ZM58.3592 13.4011H62.1371C63.139 12.8584 63.8069 11.7939 63.8069 10.5833H58.3592V5.49045H66.2072V2.67268H55.0822V20.6855H58.3592V13.4011ZM137.925 7.7238C136.151 7.7238 134.71 9.16399 134.71 10.9381V11.0634V20.6855H137.925V7.74467V7.7238ZM133.082 20.7273V17.9095C133.082 17.9095 132.853 17.9513 132.498 17.9513C131.6 17.9513 129.931 17.6382 129.931 15.5092V10.479H132.874V7.91165H129.931V3.59106C128.365 3.59106 127.071 4.71817 126.779 6.20011V7.93252H125.026V10.4998H126.695V15.9266C126.695 20.2681 130.265 20.7899 132.08 20.7899C133.896 20.7899 133.061 20.7064 133.061 20.7064M87.5597 18.7653C87.5597 18.7653 86.4743 20.9778 83.4895 20.9778C80.5048 20.9778 77.7496 18.2017 77.7496 14.1942C77.7496 10.1867 80.1917 7.41071 83.6148 7.41071C87.0378 7.41071 87.3509 9.05963 87.3509 9.05963H87.3927C87.3927 9.05963 87.3718 8.72567 87.3718 8.3291V5.59481C87.3718 3.82066 88.8329 2.38047 90.5862 2.38047V20.6647H87.5388V19.6002C87.5388 19.1201 87.5805 18.7653 87.5805 18.7653H87.5388M81.0266 14.2151C81.0266 16.678 82.3416 18.2852 84.2409 18.2852C86.1403 18.2852 87.497 17.0746 87.497 14.1942C87.497 11.3138 86.4325 10.2076 84.2827 10.2076C82.1328 10.2076 81.0266 11.6478 81.0266 14.2151ZM136.464 6.78454C137.34 6.78454 138.05 6.07488 138.05 5.19824C138.05 4.3216 137.34 3.61194 136.464 3.61194C135.587 3.61194 134.877 4.3216 134.877 5.19824C134.877 6.07488 135.587 6.78454 136.464 6.78454ZM76.6643 18.4105C76.0381 19.0992 74.0761 20.9778 71.3209 20.9778C67.0212 20.9778 64.3704 17.8886 64.3704 14.1942C64.3704 10.4998 67.0838 7.41071 70.9452 7.41071C74.8066 7.41071 76.6851 10.1241 76.6851 13.5472C76.6851 16.9703 76.6017 14.7995 76.6017 14.7995H67.6683C67.877 17.0538 69.6303 18.2226 71.5505 18.2226C73.4708 18.2226 74.7649 17.1999 75.1615 16.8868L76.6643 18.3896M70.8617 9.9154C69.2128 9.9154 68.0648 10.9381 67.7726 12.6079H73.429C73.3873 10.8547 72.2811 9.9154 70.8617 9.9154ZM104.174 18.4105C103.548 19.0992 101.586 20.9778 98.8307 20.9778C94.531 20.9778 91.8802 17.8886 91.8802 14.1942C91.8802 10.4998 94.5937 7.41071 98.455 7.41071C102.316 7.41071 104.195 10.1241 104.195 13.5472C104.195 16.9703 104.111 14.7995 104.111 14.7995H95.1781C95.3868 17.0538 97.1401 18.2226 99.0603 18.2226C100.981 18.2226 102.275 17.1999 102.671 16.8868L104.174 18.3896V18.4105ZM98.3715 9.9154C96.7226 9.9154 95.5746 10.9381 95.2824 12.6079H100.939C100.897 10.8547 99.7909 9.9154 98.3715 9.9154ZM112.627 10.5833C113.066 10.5833 113.4 10.6251 113.4 10.6251V7.45246C113.4 7.45246 113.128 7.41071 112.815 7.41071C110.832 7.41071 109.288 8.89265 108.703 10.7294H108.662C108.662 10.7294 108.703 10.2911 108.703 9.81104V7.7238H105.614V20.6647H108.829V15.384C108.829 14.6326 108.912 13.902 109.1 13.2759C109.705 11.3556 111.25 10.5624 112.627 10.5624M162.492 7.43158C159.882 7.43158 158.463 9.03876 157.9 10.1241H157.858C157.858 10.1241 157.9 9.72755 157.9 9.24748V7.74467H154.81V20.6855H158.025V14.7369C158.025 14.1316 158.067 13.5472 158.254 13.0045C158.734 11.46 160.008 10.3746 161.74 10.3746C163.473 10.3746 163.786 11.4391 163.786 13.0045V20.6647H166.979V12.3366C166.979 8.91352 165.351 7.41071 162.492 7.41071M65.2888 34.2943C65.2888 37.1539 63.4312 38.8654 60.6134 38.8654C57.7956 38.8654 55.9797 37.133 55.9797 34.3361V24.5678H55.0613V34.3778C55.0613 37.6548 57.3573 39.742 60.6343 39.742C63.9112 39.742 66.1863 37.6548 66.1863 34.3778V24.5678H65.268V34.2735L65.2888 34.2943ZM73.763 28.5753C71.0913 28.5753 69.6094 30.5791 69.2546 31.5809H69.2128C69.2128 31.5809 69.2963 31.2052 69.2963 30.7043V28.8258H68.3988V39.4707H69.2963V34.2735C69.2963 33.7725 69.3381 33.2716 69.4633 32.8333C70.006 30.8504 71.7593 29.4519 73.763 29.4519C75.7668 29.4519 76.3929 31.2052 76.3929 33.0629V39.4916H77.2904V32.7289C77.2904 30.2242 76.539 28.5753 73.7839 28.5753M79.7534 39.4916H80.6509V28.8467H79.7534V39.4916ZM87.7058 37.1747C87.5179 37.6965 87.3509 38.3227 87.3509 38.3227H87.3092C87.3092 38.3227 87.1422 37.6757 86.9544 37.1747L83.6774 28.8258H82.7173L86.9126 39.4707H87.7684L91.9429 28.8258H91.0036L87.7266 37.1747H87.7058ZM97.5575 28.5753C100.459 28.5753 101.899 30.8504 101.899 33.4386C101.899 36.0268 101.857 34.023 101.857 34.023H93.3204C93.3204 37.1121 95.4077 38.8863 97.8706 38.8863C100.334 38.8863 101.168 37.5504 101.168 37.5504L101.649 38.3018C101.649 38.3018 100.146 39.7629 97.8497 39.7629C95.5538 39.7629 92.3603 37.5922 92.3603 34.2109C92.3603 30.8295 94.8024 28.6171 97.5367 28.6171M100.981 33.1881C100.876 30.5791 99.3108 29.4102 97.5575 29.4102C95.8042 29.4102 93.7796 30.6834 93.4039 33.1881H100.981ZM104.758 31.727H104.717C104.717 31.727 104.8 31.3513 104.8 30.8504V28.8258H103.903V39.4707H104.8V34.8788C104.8 34.1691 104.884 33.3968 105.113 32.6454C105.573 31.0591 106.616 29.6607 108.286 29.6607C109.956 29.6607 108.766 29.7024 108.766 29.7024V28.8049C108.766 28.8049 108.474 28.7423 108.14 28.7423C106.449 28.7423 105.259 30.0781 104.738 31.727M111.271 31.3931C111.271 30.0155 112.46 29.4519 113.671 29.4519C115.487 29.4519 116.364 30.4538 116.364 30.4538L116.906 29.7233C116.906 29.7233 115.925 28.5753 113.754 28.5753C111.584 28.5753 110.352 29.5563 110.352 31.4557C110.352 34.9205 116.217 34.1691 116.217 36.8616C116.217 39.5542 115.069 38.8654 113.775 38.8654C111.667 38.8654 110.478 37.5296 110.478 37.5296L109.893 38.2183C109.893 38.2183 111.166 39.742 113.754 39.742C116.343 39.742 117.157 38.5732 117.157 36.8616C117.157 33.3342 111.292 34.1482 111.292 31.3931M119.536 39.4707H120.434V28.8258H119.536V39.4707ZM124.9 35.5676V29.7024H127.697V28.8884H124.9V25.8619H124.003V28.8884H122.604V29.7024H124.003V35.6302C124.003 39.1576 126.278 39.5751 127.384 39.5751C128.49 39.5751 127.927 39.5333 127.927 39.5333V38.6984C127.927 38.6984 127.739 38.7402 127.447 38.7402C126.591 38.7402 124.921 38.3853 124.921 35.5676M134.397 37.3417C134.189 37.8426 134.042 38.3436 134.042 38.3436H134.001C134.001 38.3436 133.834 37.8635 133.625 37.3417L130.118 28.8467H129.158L133.562 39.4289L132.79 41.2031C132.373 42.205 131.726 43.1234 130.703 43.1234C129.68 43.1234 129.388 42.6224 129.388 42.6224L128.991 43.3947C128.991 43.3947 129.701 44 130.724 44C131.746 44 132.957 43.1234 133.437 42.0171L138.906 28.8675H137.946L134.439 37.3626L134.397 37.3417ZM119.536 26.1332H120.434V24.5887H119.536V26.1332ZM79.7534 26.1332H80.6509V24.5887H79.7534V26.1332ZM41.1603 2.06738C38.4052 2.31785 36.2345 2.81879 33.9176 3.36147C32.6862 3.65368 31.4338 3.9459 30.0145 4.21724C28.4282 4.50945 26.9045 4.73905 25.2973 4.88515C24.7546 4.9269 24.2746 4.96864 23.8154 4.98951V1.149C23.8154 1.04463 23.7736 0.961145 23.6902 0.877655C23.1892 0.293228 21.1437 0.126249 20.8933 0.126249C20.8515 0.126249 17.345 -0.228581 12.3773 0.251484C6.01125 0.83591 0.0626172 2.08825 0 2.10913V14.4864C0.104362 14.4656 6.03212 13.2341 12.4191 12.6288C14.882 12.3992 16.9901 12.3575 18.4721 12.3992V4.02939C18.4721 4.092 18.5555 5.55307 24.1076 5.21911C24.1285 5.21911 24.1702 5.21911 24.1911 5.21911C24.5459 5.19824 24.9216 5.15649 25.3391 5.13562C25.3808 5.13562 25.4226 5.13562 25.4643 5.13562C26.1531 5.073 26.821 4.98951 27.5098 4.88515C27.5933 4.88515 27.6977 4.86428 27.802 4.84341C28.4908 4.73905 29.2005 4.63468 29.9101 4.48858C29.9727 4.48858 30.0145 4.48858 30.0771 4.46771V16.9703C34.1055 16.198 36.965 15.1961 41.1812 14.8413C46.8794 14.3403 50.2607 15.4048 50.2607 15.4048V2.63094C50.2398 2.63094 46.8376 1.58732 41.1812 2.06738" fill="#0602FF"/>
</g>
</svg>
