<svg version="1.1" xmlns="http://www.w3.org/2000/svg" style="display: block;" viewBox="0 0 2048 2048" width="610" height="610" preserveAspectRatio="none">
<path transform="translate(0,0)" fill="rgb(28,42,87)" d="M 0 0 L 2048 0 L 2048 2048 L 0 2048 L 0 0 z"/>
<path transform="translate(0,0)" fill="rgb(254,254,254)" d="M 1713.44 770.45 C 1745.81 767.674 1782.46 776.659 1799.51 806.922 C 1799.34 796.357 1799.55 785.395 1799.61 774.799 C 1818.74 774.639 1837.87 774.643 1857 774.812 C 1858.02 832.703 1856.35 891.125 1857.12 949.071 C 1857.4 969.633 1858.14 994.989 1855.9 1015.14 C 1854.61 1027.79 1851.22 1040.13 1845.86 1051.66 C 1816.03 1114.85 1742.9 1122.98 1684.03 1095.73 C 1659.75 1084.49 1646.68 1067.63 1638.15 1042.6 C 1637.19 1037.8 1636.36 1032.19 1635.53 1027.31 C 1654.55 1027.13 1673.58 1027.11 1692.61 1027.24 C 1702.68 1049.82 1718.51 1057.96 1742.57 1058.59 C 1759.17 1059 1774.65 1054.76 1786.74 1042.77 C 1806.31 1023.37 1802.24 991.368 1802.1 965.802 C 1788.21 982.429 1764.11 998.914 1742.32 1000.85 C 1697.4 1004.83 1654.59 982.881 1636.99 940.935 C 1609.07 874.388 1631.97 779.539 1713.44 770.45 z"/>
<path transform="translate(0,0)" fill="rgb(28,42,87)" d="M 1738.01 819.356 C 1783.5 816.384 1807.26 854.92 1801.61 895.635 C 1797.34 926.363 1783.28 945.408 1752.24 951.763 C 1742.38 952.147 1735.43 952.244 1725.9 948.7 C 1670.15 927.972 1676.88 825.568 1738.01 819.356 z"/>
<path transform="translate(0,0)" fill="rgb(254,254,254)" d="M 227.384 715.104 L 292.136 714.95 C 340.225 714.868 406.014 707.823 430.632 761.239 C 438.057 777.35 436.413 799.942 430.083 816.103 C 422.817 834.651 406.253 845.496 388.542 852.765 C 390.733 853.077 392.905 853.505 395.051 854.045 C 435.173 864.402 446.913 911.807 436.979 947.715 C 433.962 955.405 427.922 963.556 422.097 969.387 C 391.017 1000.5 341.687 996.39 300.863 996.357 L 227.524 996.253 C 226.737 963.997 227.321 929.473 227.319 897.077 L 227.384 715.104 z"/>
<path transform="translate(0,0)" fill="rgb(28,42,87)" d="M 279.749 873.858 C 301.258 873.769 325.971 872.477 347.034 875.106 C 379.008 879.096 390.944 916.799 371.594 941.126 C 370.415 940.829 369.237 940.531 368.059 940.234 C 363.435 942.552 352.776 948.652 347.936 948.835 C 325.839 949.672 301.792 949.245 279.755 949.18 C 279.595 924.073 279.593 898.965 279.749 873.858 z"/>
<path transform="translate(0,0)" fill="rgb(28,42,87)" d="M 282.143 762.225 C 307.08 762.05 347.996 757.343 367.315 774.486 C 379.941 785.69 377.647 811.386 366.029 823.346 C 347.842 835.993 305.497 832.634 282.326 832.604 L 282.143 762.225 z"/>
<path transform="translate(0,0)" fill="rgb(254,254,254)" d="M 904.165 223.168 C 923.338 223.026 942.512 223.045 961.685 223.225 L 961.669 289.202 C 961.68 301.441 962.17 317.639 961.069 329.579 C 966.373 323.472 984.731 305.668 992.017 304.876 C 992.966 306.38 992.683 305.854 993.405 307.259 L 993.857 308.156 C 999.089 307.43 1004.79 303.506 1010.02 302.252 C 1076.96 286.213 1134.52 330.256 1137.81 398.847 C 1139.58 435.72 1133.26 467.972 1108.48 496.161 C 1106.2 498.595 1103.79 500.9 1101.27 503.067 C 1080.83 520.541 1054.35 529.3 1027.52 527.462 C 1000.58 525.382 978.489 511.234 961.229 491.044 C 962.014 501.189 961.643 512.731 961.561 523.007 L 904.141 523.01 L 904.165 223.168 z"/>
<path transform="translate(0,0)" fill="rgb(28,42,87)" d="M 1012.33 349.237 C 1091.47 339.745 1102.9 459.91 1031.25 477.973 C 1024.53 478.389 1016.64 478.983 1010.15 477.522 C 948.039 463.542 948.924 360.108 1012.33 349.237 z"/>
<path transform="translate(0,0)" fill="rgb(254,254,254)" d="M 560.023 770.442 C 598.626 767.295 623.133 777.418 649.345 806.208 C 648.824 796.248 649.132 784.871 649.178 774.8 C 668.309 774.675 687.441 774.692 706.572 774.851 C 705.91 798.796 706.529 826.18 706.525 850.323 L 706.524 998.958 L 649.111 998.9 L 649.123 966.553 C 646.777 968.432 642.128 973.3 639.419 975.726 C 625.446 988.047 607.785 999.384 588.781 1000.86 C 524.19 1005.87 478.895 962.783 473.067 899.487 C 470.119 867.475 476.881 830.642 497.122 804.9 C 513.232 784.412 534.578 773.247 560.023 770.442 z"/>
<path transform="translate(0,0)" fill="rgb(28,42,87)" d="M 583.192 819.386 C 645.053 818.612 661.651 883.701 633.666 929.487 C 625.632 942.631 610.691 949.019 596.044 951.817 C 586.506 952.075 580.205 952.248 570.905 948.99 C 513.956 929.041 521.092 824.033 583.192 819.386 z"/>
<path transform="translate(0,0)" fill="rgb(254,254,254)" d="M 1257.64 299.405 C 1293.31 296.764 1318.19 308.445 1341.86 334.664 C 1341.03 325.404 1341.4 313.401 1341.44 303.909 C 1360.61 303.712 1379.78 303.7 1398.96 303.873 L 1398.9 528.007 L 1341.48 527.946 C 1341.46 517.999 1341.99 506.381 1341.36 496.6 L 1339.98 496.727 C 1302.55 539.274 1244.59 540.795 1202.21 505.983 C 1155.77 467.842 1153.4 376.082 1191.55 331.599 C 1209.89 310.218 1230.47 301.298 1257.64 299.405 z"/>
<path transform="translate(0,0)" fill="rgb(28,42,87)" d="M 1275.62 348.393 C 1306.2 347.394 1333.47 363.3 1339.62 393.96 C 1347.46 432.989 1333.65 472.263 1291.49 480.85 C 1282.7 481.214 1275.09 481.252 1266.62 478.353 C 1210.03 458.974 1215.36 357.107 1275.62 348.393 z"/>
<path transform="translate(0,0)" fill="rgb(254,254,254)" d="M 348.508 234.414 C 369.259 231.445 402.061 238.616 421.558 246.349 C 460.644 261.853 477.358 284.953 493.287 322.134 C 475.139 322.711 444.458 321.138 427.953 322.971 C 425.713 324.53 424.869 326.049 423.293 328.25 C 420.352 327.472 415.735 317.497 412.497 314.646 C 386.279 291.557 343.607 287.813 313.482 304.341 C 295.254 314.285 281.724 331.066 275.874 350.99 C 262.42 397.544 278.12 460.33 331.684 472.351 C 384.695 484.247 424.665 464.592 438.471 410.704 C 407.261 409.849 373.385 410.507 341.976 410.519 L 341.857 388.25 L 341.936 366.847 L 495.721 366.859 C 496.025 411.727 499.669 433.988 470.142 473.131 C 447.063 503.724 410.354 520.252 372.392 524.328 C 334.589 528.556 296.687 517.275 267.349 493.064 C 237.935 469.139 221.682 436.805 217.845 399.199 C 208.969 312.209 258.763 242.757 348.508 234.414 z"/>
<path transform="translate(0,0)" fill="rgb(254,254,254)" d="M 1064 1242.68 C 1127.78 1234.62 1185.97 1279.89 1193.84 1343.7 C 1201.71 1407.5 1156.25 1465.55 1092.42 1473.22 C 1028.88 1480.86 971.134 1435.64 963.301 1372.12 C 955.469 1308.6 1000.5 1250.71 1064 1242.68 z"/>
<path transform="translate(0,0)" fill="rgb(28,42,87)" d="M 1076.92 1290.36 C 1091.18 1289.48 1106.91 1294.23 1117.53 1303.69 C 1144.2 1327.44 1145.21 1381.64 1121.29 1407.62 C 1113.09 1416.52 1100.11 1424.66 1088.02 1425.16 C 1073.17 1425.04 1061.04 1425.54 1048.66 1416.11 C 1035.59 1406.28 1027.61 1390.11 1025.49 1374.18 C 1021.92 1347.48 1024.9 1317.63 1048.74 1300.85 C 1058.64 1293.88 1065.1 1291.7 1076.92 1290.36 z"/>
<path transform="translate(0,0)" fill="rgb(254,254,254)" d="M 1321.68 1242.7 C 1385.4 1234.63 1443.57 1279.81 1451.52 1343.55 C 1459.47 1407.28 1414.17 1465.37 1350.42 1473.19 C 1286.85 1480.99 1228.96 1435.85 1221.04 1372.29 C 1213.11 1308.73 1258.14 1250.76 1321.68 1242.7 z"/>
<path transform="translate(0,0)" fill="rgb(28,42,87)" d="M 1334.48 1290.34 C 1370.59 1288.31 1393.17 1315 1395.6 1348.84 C 1397.11 1369.76 1394.12 1390.04 1380.02 1406.5 C 1372.41 1415.38 1358.79 1424.31 1347.09 1425.17 C 1331.84 1424.99 1318.38 1425.78 1305.69 1415.68 C 1291.1 1404.15 1284.3 1386.7 1282.43 1368.76 C 1279.61 1342.46 1285.18 1313.87 1309.26 1298.9 C 1318.42 1293.21 1323.88 1291.53 1334.48 1290.34 z"/>
<path transform="translate(0,0)" fill="rgb(254,254,254)" d="M 738.67 297.341 C 802.601 293.632 857.459 342.398 861.266 406.323 C 865.073 470.249 816.391 525.181 752.471 529.085 C 688.413 532.999 633.336 484.188 629.521 420.124 C 625.706 356.061 674.601 301.058 738.67 297.341 z"/>
<path transform="translate(0,0)" fill="rgb(28,42,87)" d="M 741.531 346.389 C 822.235 339.968 825.391 468.57 757.097 481.061 C 721.089 481.393 697.875 465.077 692.074 427.834 C 686.251 390.446 699.983 352.563 741.531 346.389 z"/>
<path transform="translate(0,0)" fill="rgb(254,254,254)" d="M 714.063 1170.95 C 733.011 1170.63 752.662 1170.89 771.665 1170.89 C 771.7 1205.22 772.156 1240.7 771.257 1274.93 C 772.873 1272.8 774.637 1270.77 776.535 1268.88 C 810.525 1234.59 868.322 1233.63 902.685 1267.28 C 932.895 1296.87 927.851 1344.72 927.828 1383.48 L 927.672 1469.82 L 870.357 1469.83 L 870.322 1378.5 C 870.571 1343.25 873.316 1290.46 821.521 1290.1 C 766.184 1289.71 771.499 1347.46 771.544 1386.02 C 771.669 1413.96 771.646 1441.89 771.476 1469.82 L 714.163 1469.87 C 712.955 1371.09 714.058 1269.93 714.063 1170.95 z"/>
<path transform="translate(0,0)" fill="rgb(254,254,254)" d="M 1026.48 699.114 L 1083.94 699.081 L 1083.91 868.974 C 1108.06 837.518 1134.31 805.716 1159.19 774.704 L 1232.42 774.695 C 1199.76 809.638 1165.57 850.891 1133.22 887.191 C 1150.67 905.522 1169.98 928.457 1187 947.652 C 1202.16 964.683 1217.22 981.803 1232.17 999.011 L 1159.03 998.956 C 1136.86 967.671 1104.23 932.325 1083.96 901.639 L 1083.92 998.914 L 1026.71 998.918 C 1025.76 964.651 1026.44 927.376 1026.44 892.787 L 1026.48 699.114 z"/>
<path transform="translate(0,0)" fill="rgb(254,254,254)" d="M 318.125 1183.45 C 342.269 1182.61 372.762 1189.77 392.095 1204.82 C 412.493 1220.7 419.195 1239.55 422.614 1264.09 L 360.828 1264.08 C 358.819 1255.47 357.188 1249.75 350.217 1243.5 C 334.334 1229.26 302.444 1223.95 286.823 1241.17 C 278.535 1250.3 279.295 1261.01 280.012 1272.43 C 316.265 1318.39 428.249 1297.59 422.363 1389.35 C 418.508 1449.43 368.11 1469.07 314.751 1466.6 C 301.283 1465.96 285.708 1462.21 272.475 1457.5 C 270.637 1456.85 271.809 1460.38 267.648 1461.16 C 235.101 1446.95 220.614 1424.04 219.671 1389.08 L 279.571 1389.05 C 281.675 1415.07 300.744 1429.11 326.034 1428.22 C 351.799 1427.31 366.612 1412.62 365.427 1386.82 C 364.894 1375.23 356.12 1367.96 346.916 1362.41 C 315.055 1343.2 275.172 1345.38 246.073 1320.13 C 232.196 1307.88 223.735 1290.63 222.536 1272.15 C 221.162 1252.55 228.816 1228.22 242.165 1213.87 C 264.029 1190.35 287.875 1185.27 318.125 1183.45 z"/>
<path transform="translate(0,0)" fill="rgb(254,254,254)" d="M 211.681 1589.27 C 348.249 1587.67 488.549 1589.22 625.422 1589.22 L 1852.05 1589.13 C 1851.87 1595.18 1851.96 1601.69 1851.93 1607.79 C 1830.27 1606.98 1803.88 1607.7 1781.94 1607.7 L 1644.6 1607.7 L 1228.33 1607.69 L 565.927 1607.69 C 448.426 1607.69 329.078 1606.65 211.698 1607.95 L 211.681 1589.27 z"/>
<path transform="translate(0,0)" fill="rgb(254,254,254)" d="M 870.581 770.504 C 915.835 767.008 956.007 784.321 967.855 832.279 C 973.97 857.031 972.076 885.538 972.064 911.148 L 971.998 996.25 L 914.742 996.304 C 914.06 963.521 914.744 930.626 914.721 897.232 C 914.701 866.823 915.579 825.841 876.467 817.905 C 862.452 815.062 850.741 817.413 837.879 823.907 C 810.885 844.569 815.87 883.682 815.911 913.97 L 815.94 996.283 L 758.576 996.325 C 758.227 985.935 758.213 975.432 758.283 965.031 C 758.72 900.793 757.526 836.366 758.425 772.146 C 777.63 772.024 796.835 772.008 816.04 772.096 L 816.092 800.205 L 817.016 799.089 C 831.693 781.604 847.985 772.607 870.581 770.504 z"/>
<path transform="translate(0,0)" fill="rgb(254,254,254)" d="M 1484.64 770.511 C 1489.46 770.112 1494.29 769.882 1499.12 769.823 C 1522.7 769.582 1544.55 777.784 1561.57 794.338 C 1591.59 823.526 1586.33 875.828 1586.3 915.405 L 1586.22 996.244 L 1528.99 996.272 L 1528.92 912.058 C 1528.93 897.403 1529.55 882.832 1528.49 868.197 C 1525.41 825.477 1493.01 805.518 1453.29 823.195 C 1425.14 842.225 1430.08 885.543 1430.11 915.223 L 1430.14 996.263 L 1372.88 996.299 C 1372.03 969.793 1372.64 940.104 1372.62 913.335 L 1372.65 772.152 C 1391.84 772.02 1411.03 772.005 1430.22 772.107 L 1430.18 800.634 C 1444.66 782.458 1461.52 772.686 1484.64 770.511 z"/>
<path transform="translate(0,0)" fill="rgb(254,254,254)" d="M 554.638 1241.34 C 586.205 1237.9 623.998 1247.93 646.839 1270.65 C 661.075 1284.81 667.248 1299.93 672.624 1318.77 L 613.016 1318.79 C 609.632 1309.18 603.53 1297.59 593.848 1293.17 C 566.794 1280.82 534.515 1289.04 522.451 1318.19 C 513.207 1342.6 514.895 1368.4 523.433 1393.18 C 533.703 1422.97 564.551 1428.32 591.229 1418.46 C 602.284 1414.38 608.856 1402.5 613.016 1391.56 L 622.75 1391.44 L 672.608 1391.67 C 660.641 1435.25 636.166 1457.82 590.601 1467.37 C 530.609 1479.95 471.962 1440.89 460.924 1380.46 C 456.159 1354.36 458.384 1314.4 475.185 1291.67 C 497.114 1262 517.952 1247.4 554.638 1241.34 z"/>
<path transform="translate(0,0)" fill="rgb(254,254,254)" d="M 1450.78 225.892 C 1469.93 225.764 1489.07 225.762 1508.22 225.885 L 1508.12 525.483 L 1450.81 525.374 L 1450.78 225.892 z"/>
<path transform="translate(0,0)" fill="rgb(254,254,254)" d="M 1495.02 1170.18 C 1514.28 1170.31 1533.54 1170.3 1552.8 1170.13 C 1551.98 1212.33 1552.48 1256 1552.47 1298.31 L 1552.6 1467.87 L 1552.36 1468.82 C 1549.6 1470.62 1502.14 1469.95 1494.97 1469.95 L 1495.02 1170.18 z"/>
<path transform="translate(0,0)" fill="rgb(254,254,254)" d="M 534.778 225.842 C 553.721 225.62 572.995 225.826 591.965 225.847 L 591.892 525.461 L 534.698 525.372 L 534.778 225.842 z"/>
<path transform="translate(0,0)" fill="rgb(254,254,254)" d="M 1260.86 774.77 C 1279.85 774.537 1299.16 774.738 1318.17 774.754 C 1318.93 848.997 1318.18 924.588 1318.17 998.943 L 1260.88 998.919 L 1260.86 774.77 z"/>
<path transform="translate(0,0)" fill="rgb(254,254,254)" d="M 756.764 1789.34 C 768.073 1789.86 771.623 1792.77 780.272 1799.05 L 781.525 1798.69 C 781.751 1795.89 782.041 1793.1 782.396 1790.31 C 785.476 1788.82 791.311 1789.28 794.999 1789.29 L 795.171 1840.97 C 795.236 1861.1 798.444 1883.4 777.748 1895.88 C 760.1 1906.52 736.808 1902.5 725.769 1883.8 C 724.374 1881.43 725.218 1879.65 726.092 1877.38 C 730.107 1875.13 731.716 1875.9 736.726 1875.86 C 747.173 1892.71 776.413 1900.15 780.891 1876.14 C 781.812 1871.2 783.83 1860.62 781.209 1856.44 C 774.347 1861.02 767.852 1865.59 759.695 1866.99 C 740.083 1870.35 722.173 1855.03 719.849 1835.73 C 718.454 1824.13 719.459 1814.44 726.805 1805 C 735.329 1794.06 743.681 1790.93 756.764 1789.34 z"/>
<path transform="translate(0,0)" fill="rgb(28,42,87)" d="M 748.017 1800.32 C 758.332 1800.29 765.61 1802.02 774.28 1807.55 C 774.615 1808.2 774.938 1808.86 775.25 1809.53 C 783.574 1827.53 780.489 1848.62 760.997 1857.22 C 748.076 1858 734.269 1856.78 730.776 1840.2 C 727.414 1824.25 729.091 1804.49 748.017 1800.32 z"/>
<path transform="translate(0,0)" fill="rgb(254,254,254)" d="M 222.303 1765.98 C 245.549 1765.61 289.287 1758.32 284.463 1794.84 C 283.554 1801.71 274.53 1806.12 269.197 1809.57 C 275.864 1813.93 281.905 1819.18 287.152 1825.18 C 287.577 1832.87 287.381 1836.99 286.828 1844.72 C 285.925 1847.41 284.692 1851.45 282.511 1853.23 C 271.101 1862.56 237.087 1860.13 222.182 1860.05 C 222.056 1828.69 222.097 1797.34 222.303 1765.98 z"/>
<path transform="translate(0,0)" fill="rgb(28,42,87)" d="M 235.289 1818.03 C 245.874 1817.91 262.453 1816.79 271.196 1823.29 C 274.275 1825.55 276.274 1829 276.718 1832.79 C 277.505 1839.11 276.382 1843.19 272.545 1847.98 C 261.626 1854.16 247.866 1852.58 235.301 1852.38 L 235.289 1818.03 z"/>
<path transform="translate(0,0)" fill="rgb(28,42,87)" d="M 235.307 1779.47 C 250.554 1779.3 289.303 1779.31 269.534 1805.41 C 262.397 1812.98 245.654 1810.58 235.369 1810.32 L 235.307 1779.47 z"/>
<path transform="translate(0,0)" fill="rgb(254,254,254)" d="M 1351.93 1766 C 1374.92 1765.6 1418.32 1758.13 1414.41 1794.6 C 1413.74 1800.85 1404.06 1806.16 1399.19 1809.52 C 1405.96 1814.51 1411.84 1819.03 1416.9 1825.78 C 1417.28 1832.41 1417.05 1836.9 1416.72 1843.51 C 1415.81 1846.54 1414.64 1851.38 1412.27 1853.33 C 1401.03 1862.59 1365.6 1860.12 1351.93 1860.03 L 1351.93 1766 z"/>
<path transform="translate(0,0)" fill="rgb(28,42,87)" d="M 1365.13 1818.03 C 1377.27 1817.85 1390.42 1816.84 1401.11 1823.86 C 1410.34 1829.93 1407.75 1840.63 1401.96 1848.4 C 1392.32 1853.89 1376.4 1852.52 1365.12 1852.4 C 1364.99 1841.02 1365.11 1829.42 1365.13 1818.03 z"/>
<path transform="translate(0,0)" fill="rgb(28,42,87)" d="M 1365.17 1779.5 C 1380.23 1779.29 1418.62 1779.38 1399.39 1805.11 C 1392.01 1813.28 1375.65 1810.55 1365.01 1810.22 L 1365.17 1779.5 z"/>
<path transform="translate(0,0)" fill="rgb(254,254,254)" d="M 1464.32 1787.34 C 1485.02 1785.14 1484.32 1792.07 1496.5 1798.42 C 1498.18 1796.19 1497.72 1792.66 1497.85 1789.34 L 1510.92 1789.35 C 1511.04 1814.61 1511.03 1839.88 1510.89 1865.14 C 1491.91 1865.41 1500.25 1860.3 1496.24 1856.74 L 1492.72 1859.54 C 1448.35 1885.82 1422.96 1839.16 1441.01 1801.63 C 1445.04 1793.24 1455.9 1789.42 1464.32 1787.34 z"/>
<path transform="translate(0,0)" fill="rgb(28,42,87)" d="M 1462.96 1800.37 C 1497.34 1799.81 1498.49 1819.26 1491.15 1847.24 C 1486.24 1852.39 1483.36 1854.39 1476.89 1857.24 C 1470.38 1857.59 1465.63 1857.43 1459.14 1857.18 C 1454.02 1853.24 1448.87 1848.19 1447.55 1841.81 C 1443.86 1824.07 1443.5 1806.2 1462.96 1800.37 z"/>
<path transform="translate(0,0)" fill="rgb(254,254,254)" d="M 469.323 1787.14 C 493.91 1785.24 491.545 1798.84 500.776 1799.16 C 500.972 1796.16 501.141 1793.16 501.286 1790.15 C 504.489 1788.7 510.112 1789.24 513.874 1789.3 C 514.055 1814.59 514.045 1839.87 513.844 1865.15 C 509.635 1865.22 505.729 1865.87 502.314 1863.63 C 499.597 1859.87 500.394 1861.95 500.193 1857.03 L 499.317 1856.82 L 495.101 1860.08 C 454.043 1882.29 429.006 1847.48 442.373 1808.32 C 441.694 1806.53 441.462 1805.83 441.029 1803.97 C 448.456 1793.4 457.076 1789.42 469.323 1787.14 z"/>
<path transform="translate(0,0)" fill="rgb(28,42,87)" d="M 466.613 1800.39 C 492.519 1799.67 503.872 1815.27 496.35 1840.86 C 493.778 1849.62 487.841 1853.74 479.801 1857.27 C 473.094 1857.7 468.772 1857.49 462.081 1857.17 C 443.482 1842.97 448.619 1826.62 452.558 1807.02 C 457.332 1803.37 460.861 1801.73 466.613 1800.39 z"/>
<path transform="translate(0,0)" fill="rgb(254,254,254)" d="M 983.529 1787.25 C 985.108 1787.14 986.69 1787.05 988.272 1786.99 C 1000.87 1786.54 1007.66 1792.29 1016.27 1800.35 C 1016.09 1796.69 1015.46 1793.69 1017.14 1790.56 C 1020.03 1788.46 1025.34 1789.26 1029.22 1789.37 L 1029.1 1865.13 C 1022.87 1865.26 1020.43 1866.54 1016.1 1861.58 C 1015.86 1858.74 1016.33 1858.81 1015 1856.86 L 1011.57 1859.32 C 1007.56 1861.75 1001.73 1864.79 997.165 1866.15 C 989.03 1868.68 980.216 1867.78 972.755 1863.67 C 951.258 1851.75 949.606 1822.11 959.37 1802.02 C 963.806 1792.89 974.494 1789.35 983.529 1787.25 z"/>
<path transform="translate(0,0)" fill="rgb(28,42,87)" d="M 981.895 1800.38 C 1008.85 1799.74 1019.5 1815.54 1011.17 1842.08 C 1008.58 1850.33 1002.66 1853.99 995.003 1857.29 C 988.299 1857.65 983.917 1857.46 977.242 1857.13 C 971.594 1852.52 966.435 1846.94 965.36 1839.61 C 962.784 1822.04 962.506 1805.47 981.895 1800.38 z"/>
<path transform="translate(0,0)" fill="rgb(254,254,254)" d="M 1285.19 682.297 C 1331.67 675.519 1347.68 735.939 1300.1 747.64 C 1271.84 752.307 1247.88 732.832 1257.81 702.567 C 1261.34 691.788 1275.09 685.997 1285.19 682.297 z"/>
<path transform="translate(0,0)" fill="rgb(254,254,254)" d="M 387.614 1789.32 C 412.344 1790.61 421.312 1809.73 423.411 1831.53 C 405.085 1830.96 383.159 1831.49 364.76 1831.62 C 368.216 1845.25 373.73 1855.04 389.244 1856.2 C 403.379 1857.26 404.909 1845.69 411.169 1841.28 C 416.497 1841.41 420.498 1839.97 422.689 1844.86 C 422.235 1854.66 402.483 1865.03 393.554 1867.05 C 358.131 1875.04 337.863 1832.74 356.548 1805.7 C 364.593 1794.06 373.866 1791.42 387.614 1789.32 z"/>
<path transform="translate(0,0)" fill="rgb(28,42,87)" d="M 382.351 1798.08 C 393.916 1797.49 405.989 1800.2 411.916 1811.26 C 412.017 1815.24 412.535 1813.45 410.175 1816.78 C 406.759 1818.71 402.294 1818.04 398.208 1817.93 C 386.913 1817.96 375.618 1817.9 364.324 1817.77 C 369.36 1806.65 370.663 1803.03 382.351 1798.08 z"/>
<path transform="translate(0,0)" fill="rgb(254,254,254)" d="M 1213.18 1789.33 C 1238.25 1791.42 1246.18 1809.57 1248.54 1831.67 C 1231.4 1830.86 1207.03 1831.37 1189.74 1831.72 C 1197.22 1858.37 1219.4 1866.02 1235.1 1842.04 L 1237.02 1841.32 L 1244.27 1841.58 C 1247.01 1843.28 1246.05 1842.12 1247.12 1845.29 C 1246.84 1847.11 1246.51 1848.82 1245.3 1850.26 C 1209.44 1893.3 1154.42 1850.68 1182.15 1805.1 C 1188.73 1794.29 1201.1 1790.97 1213.18 1789.33 z"/>
<path transform="translate(0,0)" fill="rgb(28,42,87)" d="M 1207.46 1798.1 C 1218.28 1797.4 1233.3 1800.73 1237.65 1811.99 C 1236.25 1820.01 1228.3 1818.13 1221.81 1817.95 L 1189.6 1817.83 C 1194.5 1806.67 1195.92 1803.13 1207.46 1798.1 z"/>
<path transform="translate(0,0)" fill="rgb(254,254,254)" d="M 1126.81 1789.37 C 1152.41 1791.08 1159.74 1809.43 1162.91 1831.55 C 1152.88 1831.45 1112.45 1830.32 1105.88 1832.36 C 1100.82 1848.42 1133.24 1870.98 1148.86 1842.19 L 1149.32 1841.33 L 1162.67 1841.59 C 1148.66 1879.53 1094.57 1876.25 1089.36 1834.86 C 1085.98 1807.94 1101.24 1792.94 1126.81 1789.37 z"/>
<path transform="translate(0,0)" fill="rgb(28,42,87)" d="M 1124.33 1798.05 C 1135.87 1797.46 1147.93 1800.26 1153.86 1811.24 C 1154.01 1815.24 1154.51 1813.44 1152.17 1816.79 C 1148.76 1818.72 1144.33 1818.05 1140.25 1817.93 L 1106 1817.8 C 1111.32 1806.71 1112.74 1802.92 1124.33 1798.05 z"/>
<path transform="translate(0,0)" fill="rgb(254,254,254)" d="M 1693.56 1789.37 C 1719.3 1789.97 1727.3 1809.8 1730.41 1831.63 C 1713.01 1830.77 1690.01 1831.48 1672.19 1831.5 C 1673.34 1840.67 1675.75 1847.81 1684.32 1852.65 C 1689.81 1855.72 1696.28 1856.51 1702.34 1854.85 C 1710.59 1852.52 1712.93 1848.35 1716.66 1841.29 L 1730.45 1841.54 C 1725.91 1852.74 1715.08 1864.95 1703.11 1867.2 C 1651.61 1876.87 1633.3 1799.1 1693.56 1789.37 z"/>
<path transform="translate(0,0)" fill="rgb(28,42,87)" d="M 1689.3 1798.06 C 1699.57 1797.72 1716.36 1801.04 1719.51 1812.39 C 1717.28 1820.04 1708.62 1818.15 1702.09 1817.92 L 1671.41 1817.9 C 1675.28 1806.58 1678.26 1802.77 1689.3 1798.06 z"/>
<path transform="translate(0,0)" fill="rgb(254,254,254)" d="M 532.057 1763.37 L 545.089 1763.34 L 544.974 1823.71 C 554.613 1812.62 564.244 1800.76 573.689 1789.44 C 579.811 1789.36 586.071 1789.45 592.206 1789.46 C 580.643 1801.51 569.683 1814.27 557.955 1826.29 L 578.461 1846.54 C 583.921 1851.68 589.271 1857.48 594.464 1862.93 C 584.588 1862.27 582.187 1863.66 573.12 1863.63 C 569.097 1860.45 549.466 1836.91 544.99 1831.7 C 545.183 1842.56 544.973 1854.12 544.942 1865.04 L 531.984 1865.05 L 532.057 1763.37 z"/>
<path transform="translate(0,0)" fill="rgb(254,254,254)" d="M 888.358 1769.32 C 913.42 1768.09 924.491 1776.12 935.872 1797.95 L 920.025 1798.02 C 913.665 1784.65 899.428 1776.95 885.543 1779.93 C 837.954 1790.15 846.324 1866.13 903.433 1856.32 C 910.695 1852.59 915.694 1845.4 920.176 1838.84 L 935.89 1839.02 C 934.652 1841.3 933.342 1843.55 931.96 1845.75 C 917.913 1868.15 887.714 1875.64 867.44 1860.47 C 831.877 1833.87 841.746 1775.99 888.358 1769.32 z"/>
<path transform="translate(0,0)" fill="rgb(254,254,254)" d="M 633.415 1789.43 C 641.76 1789.11 645.311 1787.46 646.633 1796.03 C 650.724 1796.28 658.833 1790.39 665.825 1789.87 C 679.769 1788.85 685.998 1793.25 696.332 1800.83 C 703.566 1815.01 701.418 1847.83 701.334 1865 L 688.161 1865.05 L 687.992 1819.16 C 683.707 1788.51 642.612 1794.49 646.514 1828.66 C 647.364 1836.1 646.567 1856.62 646.622 1865.03 L 633.597 1865.03 C 633.09 1840.22 633.421 1814.33 633.415 1789.43 z"/>
<path transform="translate(0,0)" fill="rgb(254,254,254)" d="M 1818.36 1784.39 C 1832.31 1784.04 1858.62 1786.92 1853.43 1807.09 C 1845.89 1810.64 1840.2 1805.85 1836.38 1799.63 C 1828.85 1787.36 1809.49 1796.21 1809.67 1807.2 C 1814.15 1815.73 1836.29 1814.92 1844.23 1824.33 C 1858.52 1841.25 1842.26 1857.42 1823.77 1857.51 C 1819.67 1857.57 1811.46 1856.45 1808.88 1856.83 C 1808.76 1858.26 1808.72 1859.09 1808.73 1860.55 L 1808.75 1861.75 L 1807.01 1862.62 C 1800.96 1860.45 1795.41 1847.63 1793.68 1841.65 C 1811.7 1840.99 1802.21 1843.77 1815.59 1850.92 C 1822.97 1854.87 1837.76 1852.77 1841.56 1843.31 C 1839.8 1828.8 1807.13 1830.75 1801.14 1813.65 C 1794.99 1796.09 1803.87 1790.49 1818.36 1784.39 z"/>
<path transform="translate(0,0)" fill="rgb(254,254,254)" d="M 1080.85 1788.99 C 1081.39 1789.11 1082.77 1789.82 1083.34 1790.09 C 1084.67 1793.98 1084.26 1796.58 1084.17 1800.78 C 1058.96 1809.79 1060.33 1813.26 1060.46 1839.99 C 1060.51 1848.92 1060.59 1858.73 1060.66 1867.73 C 1056.7 1867.81 1050.64 1868.62 1047.67 1866.49 L 1047.25 1863.25 C 1047.06 1839.49 1047.13 1815.73 1047.47 1791.97 C 1051.44 1791.83 1056.39 1791.08 1059.6 1793.01 C 1061.45 1796.19 1060.5 1799.22 1060.03 1803.06 C 1068.38 1795.23 1070.15 1792.2 1080.85 1788.99 z"/>
<path transform="translate(0,0)" fill="rgb(254,254,254)" d="M 339.251 1788.9 C 340.138 1789.17 340.739 1789.67 341.568 1790.2 C 346.725 1809.52 332.927 1798.91 324.677 1809.16 C 315.076 1821.08 318.776 1852.2 318.759 1867.72 C 315.065 1867.75 308.528 1868.47 305.739 1866.58 L 305.374 1864.25 L 305.536 1792 C 309.346 1791.88 315.886 1791.21 318.647 1793.17 L 318.973 1801 C 321.028 1801.45 327.872 1793.58 330.602 1792.17 C 333.788 1790.53 335.738 1789.92 339.251 1788.9 z"/>
<path transform="translate(0,0)" fill="rgb(254,254,254)" d="M 1302.35 1789.02 L 1304.09 1789.56 C 1305.85 1792.39 1305.37 1797.11 1305.39 1800.65 C 1302.86 1803.17 1290.99 1805.2 1288.15 1807.86 C 1278.49 1816.92 1281.72 1854.46 1281.81 1867.65 C 1276.53 1867.87 1272.76 1868.91 1268.98 1865.97 L 1268.56 1862.25 C 1268.31 1838.85 1268.38 1815.44 1268.76 1792.04 C 1272.63 1791.92 1277.88 1791.07 1280.83 1793.1 C 1282.56 1796.18 1281.68 1799.14 1281.27 1802.82 C 1289.89 1794.89 1291.41 1791.96 1302.35 1789.02 z"/>
<path transform="translate(0,0)" fill="rgb(254,254,254)" d="M 1781.42 1789.03 C 1782.88 1789.41 1782.48 1789.41 1783.78 1790.61 C 1787.65 1811.73 1776.79 1797.37 1767.37 1807.93 C 1756.98 1819.59 1760.68 1852.56 1760.83 1867.64 C 1758.89 1867.67 1756.94 1867.69 1755 1867.7 C 1751.85 1867.73 1750.62 1868.18 1748.04 1866.36 L 1747.59 1863.25 L 1747.51 1792.03 C 1751.2 1791.9 1756.36 1791.18 1759.4 1792.82 C 1761.35 1796.55 1760.58 1797.92 1760.43 1802.53 C 1769.95 1795.22 1769.04 1791.99 1781.42 1789.03 z"/>
<path transform="translate(0,0)" fill="rgb(254,254,254)" d="M 1562.33 1789.05 C 1563.64 1789.26 1563.71 1789.47 1564.95 1790.09 C 1566.18 1793.52 1565.66 1798.89 1565.56 1802.72 C 1533.3 1803.71 1541.91 1843.64 1542.02 1867.67 C 1537.86 1867.72 1531.78 1868.38 1528.99 1865.98 L 1528.99 1792.02 C 1533.5 1791.9 1537.99 1791.18 1541.53 1793.29 C 1541.89 1796.19 1541.82 1797.41 1543.29 1799.98 C 1548.16 1799.11 1551.57 1791.78 1562.33 1789.05 z"/>
<path transform="translate(0,0)" fill="rgb(254,254,254)" d="M 1614.51 1788.99 C 1614.95 1789.1 1616.42 1789.86 1616.9 1790.09 C 1618.06 1793.55 1617.59 1798.83 1617.52 1802.64 C 1585.36 1803.94 1594.03 1843.65 1594.07 1867.68 C 1589.77 1867.8 1586.07 1868.21 1581.93 1867.15 L 1580.94 1865.13 L 1580.98 1791.95 C 1585.28 1791.83 1587.72 1791.77 1591.98 1792.16 C 1596.56 1796.05 1592 1794.86 1595.37 1799.82 C 1599.98 1798.98 1604.78 1791.76 1614.51 1788.99 z"/>
<path transform="translate(0,0)" fill="rgb(254,254,254)" d="M 1630.21 1789.37 L 1643.65 1789.31 L 1643.6 1865.09 L 1630.47 1865.04 C 1629.89 1840.37 1630.27 1814.16 1630.21 1789.37 z"/>
<path transform="translate(0,0)" fill="rgb(254,254,254)" d="M 602.314 1789.32 L 615.352 1789.38 L 615.233 1865.04 L 602.228 1865.01 L 602.314 1789.32 z"/>
<path transform="translate(0,0)" fill="rgb(254,254,254)" d="M 602.339 1763.32 C 605.941 1763.12 608.826 1762.49 611.882 1764.16 C 613.735 1767.03 612.951 1770.96 612.72 1774.57 C 609.148 1774.62 605.756 1775.25 603.065 1773.27 C 601.439 1770.38 602.128 1766.78 602.339 1763.32 z"/>
<path transform="translate(0,0)" fill="rgb(254,254,254)" d="M 1630.59 1763.15 C 1634.01 1763.04 1636.34 1762.67 1639.54 1763.86 C 1641.79 1767.5 1641.02 1769.55 1641.07 1774.35 C 1637.25 1774.52 1634.12 1775.24 1631.12 1773.21 C 1629.6 1770.38 1630.34 1766.54 1630.59 1763.15 z"/>
</svg>