<svg enable-background="new 0 0 841.89 595.28" height="145.236875" viewBox="69.28 222.97 703.38 148.9" width="688.530373" xmlns="http://www.w3.org/2000/svg"><g fill="#c02827"><path d="m134.37 305.76 23.64 56.2v-82.8l-23.64-56.19z"/><path d="m86.99 282.17h-17.68v88.65h79.84l-62.16-23.68z"/><path d="m119.59 267.3-17.78-17.74v82.8l50.29 32.55-32.51-45.83z"/><path d="m240.85 347.14-62.15 23.68h79.84v-88.65h-17.69z"/><path d="m193.48 222.97-23.65 56.19v82.8l23.65-56.2z"/><path d="m226.03 249.56-17.73 17.74v51.78l-32.56 45.83 50.29-32.55z"/><path d="m376.89 274.61c4.27 0 7.88-.8 10.93-2.44s5.35-3.89 6.94-6.75 2.39-6.15 2.39-9.9-.8-7.27-2.44-10.18-4.03-5.11-7.18-6.66-6.94-2.35-11.35-2.35h-29.78v62.53h12.57v-24.3h10.41l13.84 24.3h14.07l-13.28-22.28-7.13-2.02zm-17.92-9.47v-19.14h14.35c2.2 0 4.13.33 5.82.99s3 1.69 3.99 3.14c.99 1.41 1.45 3.28 1.45 5.58 0 3.28-1.03 5.68-3.14 7.22-2.11 1.5-4.93 2.25-8.54 2.25h-13.93z"/><path d="m572.5 346.53c4.27 0 7.88-.8 10.93-2.44s5.35-3.89 6.94-6.75 2.39-6.15 2.39-9.9-.8-7.27-2.44-10.18-4.03-5.11-7.18-6.66c-3.14-1.55-6.94-2.35-11.35-2.35h-29.79v62.53h12.57v-24.3h10.43l13.84 24.3h14.12l-13.28-22.28-7.13-2.02zm-17.92-9.48v-19.14h14.35c2.2 0 4.13.33 5.82.99s3 1.69 3.99 3.14c.99 1.41 1.45 3.28 1.45 5.58 0 3.28-1.03 5.68-3.14 7.18s-4.93 2.25-8.54 2.25z"/><path d="m405.32 236.38h12.57v62.53h-12.57z"/><path d="m438.91 272.31h25.51v-9.66h-25.51v-15.9h27.67v-10.37h-39.96v62.53h12.29z"/><path d="m512.23 262.65h-25.57v-15.9h27.72v-10.37h-39.96v62.53h12.24v-26.6h25.57z"/><path d="m522.22 236.38h12.57v62.53h-12.57z"/><path d="m561.2 298.91h12.2v-52.02h18.57v-10.51h-49.39v10.51h18.62z"/><path d="m639.54 261.95h-27.49v-25.57h-12.24v62.53h12.24v-26.27h27.49v26.27h12.24v-62.53h-12.24z"/><path d="m325.38 346.81c0 4.69-1.13 8.3-3.42 10.7-2.25 2.44-5.77 3.66-10.51 3.66s-8.21-1.22-10.51-3.66-3.42-6-3.42-10.7v-38.56h-12.52v39.31c0 4.97.99 9.29 3 12.9 1.97 3.66 4.97 6.47 8.91 8.4 3.94 1.97 8.82 2.96 14.59 2.96s10.65-.99 14.59-2.96 6.9-4.78 8.91-8.4c2.02-3.61 3-7.93 3-12.95v-39.31h-12.57v38.56z"/><path d="m385.15 351.03h-.19c-1.03-1.97-2.11-3.85-3.19-5.54l-22.99-37.2h-12.38v62.53h12.01v-42.59h.19c1.03 1.88 2.06 3.71 3.19 5.49l22.99 37.11h12.34v-62.53h-11.96v42.78z"/><path d="m405.32 308.29h12.57v62.53h-12.57z"/><path d="m457.81 351.12c-.8 2.53-1.59 5.39-2.35 8.49h-.42c-.8-3.14-1.55-5.96-2.35-8.49l-13.56-42.83h-13.37l21.72 62.53h15.43l21.72-62.53h-13.42l-13.46 42.83z"/><path d="m491.63 370.82h42.41v-10.36h-30.16v-16.23h26.41v-9.71h-26.41v-15.91h30.16v-10.36h-42.41z"/><path d="m635.83 336.91c-3.24-1.36-7.46-2.49-12.62-3.47-2.91-.66-5.16-1.31-6.8-1.92s-2.81-1.41-3.57-2.44-1.13-2.3-1.13-3.89.42-2.91 1.22-4.08 1.97-2.06 3.57-2.67c1.59-.61 3.38-.94 5.49-.94s4.03.38 5.63 1.17c1.59.8 2.91 1.92 3.85 3.42.99 1.5 1.55 3.28 1.78 5.35l12.24-1.45c-.52-3.99-1.69-7.36-3.66-10.18-1.97-2.81-4.6-4.93-7.93-6.38s-7.22-2.2-11.68-2.2-8.82.8-12.29 2.35-6.1 3.8-7.93 6.71-2.77 6.38-2.77 10.46.84 6.9 2.53 9.24c1.69 2.35 4.13 4.22 7.27 5.58s7.22 2.49 12.2 3.38c2.86.52 5.16 1.13 6.85 1.83s3 1.59 3.85 2.72c.84 1.08 1.27 2.49 1.27 4.17s-.47 3.14-1.36 4.36-2.16 2.11-3.8 2.67c-1.59.61-3.57.89-5.82.89s-4.69-.47-6.47-1.41-3.19-2.2-4.22-3.85c-1.03-1.64-1.69-3.52-1.97-5.68l-12.43 1.5c.61 4.22 1.92 7.79 4.03 10.7s4.88 5.11 8.4 6.66 7.79 2.35 12.71 2.35c4.93 0 9.15-.75 12.71-2.2 3.57-1.45 6.29-3.66 8.26-6.57 1.92-2.91 2.91-6.52 2.91-10.79s-.89-7.22-2.67-9.71-4.32-4.41-7.55-5.72z"/><path d="m652.67 308.29h12.57v62.53h-12.57z"/><path d="m759.39 308.25-13.89 24.77c-.33.56-.61 1.17-.89 1.78s-.52 1.13-.7 1.59h-.19c-.28-.47-.52-1.03-.84-1.64-.28-.61-.61-1.22-.94-1.78l-13.84-24.72h-55.12v10.55h18.62v52.02h12.2v-52.02h17.26l16.65 28v23.97h12.24v-24.11l22.7-38.42h-13.26z"/><path d="m295.69 296.05c4.27 2.58 9.29 3.89 15.06 3.89s9.1-.84 12.38-2.53c3.05-1.55 5.54-3.89 7.46-6.94.14-.23-3.24 8.44-3.24 8.44h10.55v-33.77h-25.99v9.38h13.74c-.38 5.3-1.74 8.87-4.08 11.16-2.35 2.35-5.63 3.52-9.94 3.52s-6.47-.84-8.91-2.53-4.27-4.13-5.49-7.27c-1.22-3.19-1.83-7.08-1.83-11.63s.61-8.4 1.78-11.63c1.17-3.24 3-5.72 5.39-7.46s5.35-2.58 8.91-2.58c3.57 0 4.83.47 6.71 1.36s3.38 2.2 4.55 3.94 2.06 3.89 2.72 6.52l11.87-2.2c-.94-4.32-2.53-7.97-4.78-11.02s-5.11-5.35-8.58-6.94c-3.52-1.59-7.6-2.39-12.24-2.39s-11.31 1.36-15.71 4.03c-4.41 2.67-7.74 6.47-10.04 11.4s-3.47 10.6-3.47 17.12 1.13 12.2 3.42 16.98c2.25 4.83 5.54 8.54 9.8 11.12z"/></g></svg>