<svg xmlns:xlink="http://www.w3.org/1999/xlink" width="300" height="250" xmlns="http://www.w3.org/2000/svg" viewBox="0 0 350.71 420.99"><g><g><path fill="#000" d="m0,387.17h12.48c7.82,0,12.12,2.69,12.12,8.7,0,4.87-2.74,7.1-8.18,7.72v.16c6.32.41,9.53,2.64,9.53,7.35,0,5.64-3,9.17-13.67,9.17H0v-33.09Zm12.01,14.24c3.52,0,4.76-1.61,4.76-4.09s-1.35-3.94-4.4-3.94h-3.99v8.03h3.62Zm.1,13.21c4.76,0,5.7-1.4,5.7-4.04s-1.45-4.04-5.8-4.04h-3.62v8.08h3.73Z"></path><path fill="#000" d="m29.1,411.41v-16.52h8.18v15.85c0,3.11,1.14,4.51,3.62,4.51,2.9,0,4.71-2.33,4.71-6.89v-13.46h8.18v25.37h-6.58s-1.24-2.8-1.24-5.7v-.26c-1.24,4.09-4.14,6.58-8.49,6.58-5.33,0-8.39-2.95-8.39-9.48Z"></path><path fill="#000" d="m57.43,418.24v-4.97c2.02,1.24,5.18,2.18,8.39,2.18s4.5-.83,4.5-2.38c0-.88-.62-1.4-1.66-1.71-1.76-.47-5.23-.47-7.87-1.81-2.54-1.35-3.47-3.78-3.47-6.58,0-6.47,5.44-8.7,10.77-8.7,3.62,0,6.58.88,8.13,2.33v4.97c-1.92-.88-4.56-1.71-7.92-1.71-2.64,0-4.04.83-4.04,2.28,0,.88.47,1.4,1.55,1.66,2.28.62,6.06.67,8.44,1.97,2.74,1.45,3.52,3.47,3.52,6.27,0,5.96-4.19,8.96-10.93,8.96-4.51,0-7.61-1.14-9.43-2.74Z"></path><path fill="#000" d="m81.04,388.57c0-2.43,1.92-4.4,4.4-4.4s4.4,1.97,4.4,4.4-1.92,4.35-4.4,4.35-4.4-1.92-4.4-4.35Zm.31,6.32h8.18v25.37h-8.18v-25.37Z"></path><path fill="#000" d="m94.14,394.89h6.58s1.4,2.54,1.4,5.85v.41c1.19-4.14,4.09-6.89,8.8-6.89,5.02,0,8.13,3,8.13,9.17v16.83h-8.23v-15.79c0-2.8-1.19-4.14-3.63-4.14-2.85,0-4.87,2.28-4.87,6.52v13.41h-8.18v-25.37Z"></path><path fill="#000" d="m130.59,409.18c.31,4.45,2.9,5.49,7.4,5.49,3.16,0,5.64-.73,7.25-1.5v4.35c-1.19,1.61-4.61,3.31-9.53,3.31-8.54,0-13.41-4.66-13.41-13.26v-.05c0-8.39,5.54-13.26,12.69-13.26,7.51,0,11.44,4.5,11.44,10.72,0,1.86-.41,3.21-.78,4.2h-15.07Zm0-3.68h8.49v-.52c0-3.88-1.4-5.59-3.88-5.59-2.74,0-4.45,1.97-4.61,6.11Z"></path><path fill="#000" d="m148.97,418.24v-4.97c2.02,1.24,5.18,2.18,8.39,2.18s4.51-.83,4.51-2.38c0-.88-.62-1.4-1.66-1.71-1.76-.47-5.23-.47-7.87-1.81-2.54-1.35-3.47-3.78-3.47-6.58,0-6.47,5.44-8.7,10.77-8.7,3.63,0,6.58.88,8.13,2.33v4.97c-1.92-.88-4.56-1.71-7.92-1.71-2.64,0-4.04.83-4.04,2.28,0,.88.47,1.4,1.55,1.66,2.28.62,6.06.67,8.44,1.97,2.74,1.45,3.52,3.47,3.52,6.27,0,5.96-4.19,8.96-10.93,8.96-4.5,0-7.61-1.14-9.42-2.74Z"></path><path fill="#000" d="m171.6,418.24v-4.97c2.02,1.24,5.18,2.18,8.39,2.18s4.51-.83,4.51-2.38c0-.88-.62-1.4-1.66-1.71-1.76-.47-5.23-.47-7.87-1.81-2.54-1.35-3.47-3.78-3.47-6.58,0-6.47,5.44-8.7,10.77-8.7,3.63,0,6.58.88,8.13,2.33v4.97c-1.92-.88-4.56-1.71-7.92-1.71-2.64,0-4.04.83-4.04,2.28,0,.88.47,1.4,1.55,1.66,2.28.62,6.06.67,8.44,1.97,2.74,1.45,3.52,3.47,3.52,6.27,0,5.96-4.19,8.96-10.93,8.96-4.5,0-7.61-1.14-9.42-2.74Z"></path><path fill="#000" d="m203.86,417.47v-5.7c2.12,1.55,5.9,3,10.1,3s5.8-1.09,5.8-3.68c0-1.35-.47-2.12-2.23-2.74-2.12-.88-6.68-1.24-9.79-3-2.95-1.71-4.09-4.51-4.09-8.34,0-7.51,6.01-10.51,12.43-10.51,4.51,0,7.82,1.19,9.68,3.11v5.96c-1.66-1.14-5.49-2.33-9.32-2.33-3.11,0-5.28.52-5.28,3.11,0,1.29.57,2.17,2.17,2.69,2.69,1.04,7.56,1.35,10.46,3.16,3.06,1.86,3.99,4.51,3.99,8.13,0,7.2-5.23,10.67-12.79,10.67-5.39,0-9.17-1.45-11.13-3.52Z"></path><path fill="#000" d="m230.47,407.52v-.05c0-8.75,6.06-13.2,12.53-13.2,4.76,0,7.2,1.09,8.54,2.64v5.44c-1.61-.83-3.73-1.55-6.89-1.55-3.47,0-5.96,1.55-5.96,6.11v1.14c0,4.87,2.07,6.89,6.32,6.89,2.95,0,5.28-.98,6.83-1.76v4.45c-1.24,1.66-3.88,3.26-8.7,3.26-7.61,0-12.69-4.92-12.69-13.36Z"></path><path fill="#000" d="m255.49,385.41h8.18v15.43c1.14-4.09,4.09-6.58,8.6-6.58,5.02,0,8.13,3,8.13,9.17v16.83h-8.23v-15.79c0-2.8-1.19-4.14-3.62-4.14-2.85,0-4.87,2.28-4.87,6.52v13.41h-8.18v-34.85Z"></path><path fill="#000" d="m283.65,407.32v-.1c0-8.29,5.65-12.95,13.15-12.95s13.15,4.66,13.15,12.89v.1c0,9.68-6.42,13.57-13.15,13.57s-13.15-3.88-13.15-13.52Zm18.02.78v-1.86c0-4.45-2.02-6.58-4.87-6.58s-4.87,2.12-4.87,6.58v1.86c0,5.96,2.18,7.51,4.87,7.51s4.87-1.55,4.87-7.51Z"></path><path fill="#000" d="m312.55,407.32v-.1c0-8.29,5.65-12.95,13.15-12.95s13.15,4.66,13.15,12.89v.1c0,9.68-6.42,13.57-13.15,13.57s-13.15-3.88-13.15-13.52Zm18.02.78v-1.86c0-4.45-2.02-6.58-4.87-6.58s-4.87,2.12-4.87,6.58v1.86c0,5.96,2.18,7.51,4.87,7.51s4.87-1.55,4.87-7.51Z"></path><path fill="#000" d="m342.53,385.41h8.18v34.85h-8.18v-34.85Z"></path></g><line stroke="#000" stroke-width="5px" y1="367.39" x2="350.71" y2="367.39"></line><g><g><path fill="#231F20" d="M109.16 0.42L115.65 5.31L226.26 5.31L232.75 0.42L109.16 0.42z"></path><path fill="#231F20" d="m226.4,5.72h-110.88l-7.6-5.72h126.08l-7.6,5.72Zm-110.61-.83h110.33l5.38-4.06h-121.1l5.39,4.06Z"></path></g><g><path fill="#E9E3DC" d="M170.95 5.31L170.95 5.31L115.65 5.31L117.99 9.75L170.95 9.75L170.95 9.75L223.92 9.75L226.26 5.31L170.95 5.31z"></path><path fill="#231F20" d="m224.17,10.17h-106.44l-2.77-5.28h111.98l-2.77,5.28Zm-105.94-.83h105.43l1.9-3.62h-109.23l1.9,3.62Z"></path></g><g><path fill="#231F20" d="M170.95 9.75L117.99 9.75L117.99 12.38L170.95 12.38L223.92 12.38L223.92 9.75L170.95 9.75z"></path><path fill="#231F20" d="m224.34,12.8h-106.77v-3.46h106.77v3.46Zm-105.94-.83h105.1v-1.8h-105.1v1.8Z"></path></g><path stroke="#231F20" fill="#E9E3DC" d="m285.48,89.62c-16.59-50.5-61.56-77.19-61.56-77.19h-105.94s-44.97,26.69-61.56,77.19c-16.59,50.5-9.65,89.33-9.65,89.33h124.18s124.18,0,124.18,0c0,0,6.95-38.83-9.65-89.33Z"></path><path fill="#231F20" d="m51.17,184.31c-.07-.45-6.83-46.04,10.52-95.91C79.09,38.41,127.19,10.44,127.67,10.17l1.03,1.81c-.48.27-47.91,27.87-65.05,77.12-17.18,49.36-10.5,94.46-10.43,94.91l-2.06.32Z"></path><path d="M46.77 171.07h10.97v3.33H46.77Z"></path><path fill="#231F20" d="m290.54,184.31l-2.06-.32c.07-.45,6.74-45.54-10.43-94.91-17.14-49.27-64.57-76.84-65.05-77.12l1.03-1.81c.48.28,48.58,28.24,65.98,78.24,17.35,49.87,10.59,95.45,10.52,95.91Z"></path><path fill="#E9E3DC" d="m249.29,176.46h-10.08l1.1-1.86v-30.4c1.51-5.45,6.15-5.82,8.1-5.73h1.75c1.95-.1,6.59.28,8.1,5.73v30.4l1.1,1.86h-10.08"></path><path fill="#E9E3DC" d="m92.63,176.46h-10.08l1.1-1.86v-30.4c1.51-5.45,6.15-5.82,8.1-5.73h1.75c1.95-.1,6.59.28,8.1,5.73v30.4l1.1,1.86h-10.08"></path><path fill="#E9E3DC" d="m222.44,181l1.49-2.75-3.71-2.81v-7.53l9.62,8.18-2.72,2.83h4.84l2.3-2.85-10.37-8.6s-3.12-4.06-.36-11.41c0,0,6.87-9.97,8.04-11.71,1.83-2.74,1.69-5.32,1.57-7.02-.24-3.35-3.34-6-6.76-6-3.2,0-5.83,2.42-6.16,5.53v-12.08h1.97l1.66-3.75-1.86-1.75,2.48-6.87,1.39-3.86h0l6.84-6.27-9.41-.08c-6.72-17.85-21.1-20.23-27.97-20.3l-2.61.1.58-4.34h2.64v-1.85l-2.55-1.99v-4.31l2.28-2.46.52-3.4,2.28-4.51-4.72-1.97-1.23-1.94.95-2.58-.59-2.49-2.04-2.32h4.33l3.39-3.33h-7.89l-16.49-11.18v-.53l1.78-.83v-1.85l-3.71-1.42-.23-1.88h-2.09l-.23,1.88-3.71,1.42v1.85l1.78.83v.61h0s0-.09,0-.09l-16.5,11.19h-7.89l3.39,3.33h4.5l-2.04,2.32-.59,2.49.95,2.58-1.23,1.94-4.72,1.97,2.28,4.51.52,3.4,2.28,2.46v4.31l-2.55,1.99v1.85h2.64l.58,4.34-2.61-.1c-6.82.04-21.34,2.33-28.11,20.3l-9.41.08,6.84,6.27h.04l1.39,3.86,2.48,6.87-1.86,1.75,1.66,3.75h1.97v12.25c-.25-3.19-2.91-5.7-6.17-5.7-3.42,0-6.52,2.65-6.76,6-.12,1.7-.26,4.28,1.57,7.02,1.16,1.74,8.04,11.71,8.04,11.71,2.75,7.35-.36,11.41-.36,11.41l-10.37,8.6,2.3,2.85h4.84l-2.72-2.83,9.63-8.19v7.54l-3.71,2.81,1.49,2.75H54.67v33.63h234.11v-33.63h-66.33Zm-2.22-42.8c.33,3.11,2.96,5.53,6.16,5.53h.07c.37,0,.73-.06,1.08-.16h0s-7.3,10.57-7.3,10.57v-15.95Zm-105.77,5.38h0c.34.09.7.15,1.08.15h.07c3.25,0,5.92-2.51,6.17-5.7v16.14l-7.31-10.59Z"></path><g><g><path fill="#E9E3DC" d="M124.75 244.84L124.97 246.02L126.11 249.35L130.38 249.35"></path><path fill="#231F20" d="m125.81,249.77l-1.23-3.61-.33-1.73m1,.83l.13.69,1.02,2.99"></path></g><g><path fill="#E9E3DC" d="M205.84 244.84L206.06 246.02L207.19 249.35L211.46 249.35L215.73 249.35L216.87 246.02L217.09 244.84L205.84 244.84z"></path><path fill="#231F20" d="m216.03,249.77h-9.14l-1.23-3.61.69-1.73h11.24l-.31,1.67-1.25,3.67Zm-8.54-.83h7.95l1.04-3.05.11-.63h-10.25l.13.69,1.02,2.99Z"></path></g><g><path fill="#E9E3DC" d="m200.99,215.38c-8.23-8.23-23.21-8.94-23.21-8.94h-13.73s-14.97.71-23.21,8.94c0,0-1.01,1.06-2.1,2.5l-.25.3v6.24h2.84l8.23-5.53s7.95,21.55,21.35,5.55c13.4,16,21.35-5.55,21.35-5.55l8.23,5.53h2.84v-6.24l-.25-.3c-1.09-1.44-2.09-2.5-2.09-2.5Z"></path><path fill="#231F20" d="m180.56,230.77c-3.14,0-6.38-1.91-9.64-5.69-3.26,3.77-6.5,5.69-9.64,5.69-6.87,0-10.99-8.99-11.91-11.24l-7.91,5.31h-3.38v-6.77l.1-.15.25-.3c1.08-1.43,2.07-2.48,2.11-2.52,8.26-8.26,23.34-9.07,23.49-9.07h13.75c.17,0,15.25.81,23.5,9.07.05.05,1.04,1.1,2.13,2.55l.34.4v6.81h-3.39l-7.91-5.31c-.92,2.25-5.04,11.24-11.91,11.24Zm-9.64-6.98l.32.38c3.2,3.82,6.34,5.76,9.32,5.76,7.11,0,11.28-11.08,11.32-11.19l.18-.5,8.57,5.76h2.3v-5.67l-.16-.19c-1.07-1.42-2.07-2.47-2.08-2.49-8.02-8.02-22.78-8.81-22.92-8.81h-13.71c-.13,0-14.89.8-22.91,8.82,0,0-1,1.06-2.06,2.46l-.17.2v5.67h2.3l8.56-5.76.18.5c.04.11,4.22,11.19,11.32,11.19,2.98,0,6.11-1.94,9.32-5.76l.32-.38Z"></path></g></g><g><g><path fill="#E9E3DC" d="M124.75 244.84L124.97 246.02L126.11 249.35L130.38 249.35"></path><path fill="#231F20" d="m125.81,249.77l-1.23-3.61-.33-1.73m1,.83l.13.69,1.02,2.99"></path></g><g><path fill="#E9E3DC" d="M133.95 230.1L138.5 226.6L138.5 218.19L140.85 215.38L140.99 208.44L130.38 208.44L113.71 208.44L114.73 211.52L119.91 215.38L122.26 218.19L122.26 226.6L126.81 230.1L126.46 242.35L124.35 242.71L124.75 244.84"></path><path fill="#231F20" d="m124.41,245.26l-.54-2.89,2.18-.38.33-11.7-4.54-3.49v-8.47l-2.22-2.65-5.25-3.91-1.24-3.75h28.28l-.16,7.51-2.35,2.8v8.47l-7.63,5.86m2.24-2.77l4.56-3.5v-8.36l2.35-2.81.13-6.37h-26.28l.8,2.41,5.15,3.85,2.45,2.92v8.36l4.56,3.5-.36,12.8-2.02.35.26,1.38"></path></g></g><g><g><path fill="#E9E3DC" d="M217.04 246.02L215.9 249.35L211.63 249.35L207.36 249.35L206.22 246.02L206.01 244.84L217.26 244.84L217.04 246.02z"></path><path fill="#231F20" d="m216.2,249.77h-9.14l-1.23-3.61-.33-1.73h12.25l-.31,1.67-1.25,3.67Zm-8.54-.83h7.95l1.04-3.05.11-.63h-10.25l.13.69,1.02,2.99Z"></path></g><g><path fill="#E9E3DC" d="M211.63 208.44L228.3 208.44L227.28 211.52L222.1 215.38L219.75 218.19L219.75 226.6L215.2 230.1L215.55 242.35L217.65 242.71L217.26 244.84L206.01 244.84L205.61 242.71L207.71 242.35L208.06 230.1L203.51 226.6L203.51 218.19L201.16 215.38L201.02 208.44L211.63 208.44z"></path><path fill="#231F20" d="m207.31,242l.33-11.7-4.54-3.49v-8.47l-2.35-2.8-.16-7.51h28.28l-1.24,3.75-5.25,3.91-2.22,2.65v8.47l-4.54,3.49.33,11.7,2.18.38-.54,2.89-10.05-.05m-1.2-.79h10.56l.26-1.38-2.02-.35-.36-12.8,4.55-3.5v-8.36l2.52-2.99,5.08-3.78.8-2.41h-26.28l.13,6.37,2.35,2.81v8.36l4.55,3.5-.36,12.8-2.02.35.26,1.38Z"></path></g></g><path fill="#231F20" d="M219.98 203.24h58.47v0.83H219.98Z"></path><path fill="#231F20" d="M64.11 203.24h57.74v0.83H64.11Z"></path><path fill="#231F20" d="M62.36 180.54h57.16v0.83H62.36Z"></path><path fill="#231F20" d="M62.36 197.37h59.43v0.83H62.36Z"></path><path fill="#231F20" d="M101.87 180.95h0.83v16.83H101.87Z"></path><path fill="#231F20" d="M221.2 180.54h59.2v0.83H221.2Z"></path><path fill="#231F20" d="M221.2 197.37h59.43v0.83H221.2Z"></path><path fill="#231F20" d="M238.83 180.95h0.83v16.83H238.83Z"></path><path fill="#231F20" d="M242.48 180.95h0.83v16.83H242.48Z"></path><path fill="#231F20" d="M246.13 180.95h0.83v16.83H246.13Z"></path><path fill="#231F20" d="M249.78 180.95h0.83v16.83H249.78Z"></path><g><path fill="#E9E3DC" transform="translate(-61.51 223.89) rotate(-45.04)" d="M237.96 184.84h2.58v2.58H237.96Z"></path><path fill="#231F20" d="m239.25,188.55l-2.42-2.41,2.42-2.42,2.41,2.41-2.41,2.42Zm-1.24-2.41l1.24,1.24,1.24-1.24-1.24-1.24-1.24,1.24Z"></path></g><g><path fill="#E9E3DC" transform="translate(-60.45 226.47) rotate(-45.04)" d="M241.6 184.84h2.58v2.58H241.6Z"></path><path fill="#231F20" d="m242.89,188.55l-2.41-2.41,2.41-2.42,2.41,2.41-2.41,2.42Zm-1.24-2.41l1.24,1.24,1.24-1.24-1.24-1.24-1.24,1.24Z"></path></g><g><path fill="#E9E3DC" transform="translate(-59.38 228.99) rotate(-45.03)" d="M245.25 184.84h2.58v2.58H245.25Z"></path><path fill="#231F20" d="m246.54,188.55l-2.41-2.41,2.41-2.42,2.41,2.41-2.41,2.42Zm-1.24-2.41l1.24,1.24,1.24-1.24-1.24-1.24-1.24,1.24Z"></path></g><g><path fill="#E9E3DC" transform="translate(-58.31 231.57) rotate(-45.03)" d="M248.9 184.84h2.58v2.58H248.9Z"></path><path fill="#231F20" d="m250.19,188.55l-2.41-2.41,2.41-2.42,2.41,2.41-2.41,2.42Zm-1.24-2.41l1.24,1.24,1.24-1.24-1.24-1.24-1.24,1.24Z"></path></g><g><path fill="#E9E3DC" transform="translate(-66.04 225.77) rotate(-45.04)" d="M237.96 191.23h2.58v2.58H237.96Z"></path><path fill="#231F20" d="m239.25,194.94l-2.42-2.41,2.42-2.42,2.41,2.41-2.41,2.42Zm-1.24-2.41l1.24,1.24,1.24-1.24-1.24-1.24-1.24,1.24Z"></path></g><g><path fill="#E9E3DC" transform="translate(-64.97 228.34) rotate(-45.04)" d="M241.6 191.23h2.58v2.58H241.6Z"></path><path fill="#231F20" d="m242.89,194.94l-2.41-2.41,2.41-2.42,2.41,2.41-2.41,2.42Zm-1.24-2.41l1.24,1.24,1.24-1.24-1.24-1.24-1.24,1.24Z"></path></g><g><path fill="#E9E3DC" transform="translate(-63.91 230.86) rotate(-45.03)" d="M245.25 191.23h2.58v2.58H245.25Z"></path><path fill="#231F20" d="m246.54,194.94l-2.41-2.41,2.41-2.42,2.41,2.41-2.41,2.42Zm-1.24-2.41l1.24,1.24,1.24-1.24-1.24-1.24-1.24,1.24Z"></path></g><g><path fill="#E9E3DC" transform="translate(-62.84 233.44) rotate(-45.03)" d="M248.9 191.23h2.58v2.58H248.9Z"></path><path fill="#231F20" d="m250.19,194.94l-2.41-2.41,2.41-2.42,2.41,2.41-2.41,2.42Zm-1.24-2.41l1.24,1.24,1.24-1.24-1.24-1.24-1.24,1.24Z"></path></g><g><path fill="#E9E3DC" transform="translate(-61.75 236.06) rotate(-45.03)" d="M252.6 191.23h2.58v2.58H252.6Z"></path><path fill="#231F20" d="m253.89,194.94l-2.41-2.41,2.41-2.42,2.41,2.41-2.41,2.42Zm-1.24-2.41l1.24,1.24,1.24-1.24-1.24-1.24-1.24,1.24Z"></path></g><path fill="#231F20" d="M161.51 62.87h8.74v25.77H161.51Z"></path><path fill="#231F20" d="M171.67 62.87h8.74v25.77H171.67Z"></path><path fill="#231F20" d="m170.25,51.9v9.4h-8.51s.16-7.71,8.51-9.4Z"></path><path fill="#231F20" d="m180.17,61.3s-.16-7.71-8.51-9.4v9.4"></path><path fill="#231F20" d="m180.32,93.1h-18.74l-1.74-1.77v-31.07c.02-.13.93-10.12,11.05-11.45h.05s.05,0,.05,0c10.13,1.33,11.03,11.31,11.04,11.41v31.1s-1.73,1.77-1.73,1.77Zm-18.39-.83h18.04l1.25-1.28v-30.73c-.04-.35-.88-9.35-10.27-10.61-9.4,1.26-10.23,10.26-10.26,10.65v30.7s1.25,1.28,1.25,1.28Z"></path><g><path fill="#231F20" d="M170.95 47.41L169.75 49.56L170.95 51.3L172.16 49.56L170.95 47.41z"></path><path fill="#231F20" d="m170.95,51.8l-1.54-2.23,1.54-2.75,1.54,2.75-1.54,2.23Zm-.87-2.26l.87,1.26.87-1.26-.87-1.55-.87,1.55Z"></path></g><g><path fill="#231F20" d="m150.19,93.96c-2.19,0-3.98-1.78-3.98-3.98s1.79-3.98,3.98-3.98,3.98,1.78,3.98,3.98-1.79,3.98-3.98,3.98Zm0-7.13c-1.73,0-3.15,1.41-3.15,3.15s1.41,3.15,3.15,3.15,3.15-1.41,3.15-3.15-1.41-3.15-3.15-3.15Z"></path><path fill="#231F20" d="m121.76,108.98h-5.84l-7.74-7.09,10.18-.09c7.03-18.32,22.31-20.3,28.58-20.3,1.25,0,2.46.07,3.5.21,4.4.59,7.57,4.07,7.57,8.27s-3.51,7.82-7.82,7.82-7.82-3.51-7.82-7.82c0-1.12.24-2.23.71-3.25-19.58,2.7-20.9,21.65-20.91,21.85l-.02.39h-.39Zm-5.51-.83h5.13c.31-2.84,3-20.15,22.4-22.33l.83-.09-.43.72c-.64,1.08-.98,2.31-.98,3.55,0,3.85,3.13,6.99,6.99,6.99s6.99-3.13,6.99-6.99-2.87-6.92-6.82-7.44c-1.02-.14-2.2-.21-3.41-.21-7.6,0-21.34,2.6-27.9,20.03l-.1.27-8.64.07,5.94,5.44Z"></path><path d="m129.2,108.98h-7.43v-.83h7.03c.12-2.3,1.4-13.24,14.27-14.96-.46-1.01-.69-2.08-.69-3.2,0-1.39.38-2.77,1.09-3.97l.72.42c-.64,1.08-.98,2.31-.98,3.55,0,1.12.26,2.2.79,3.21l.12.24-.4.51-.17.02c-13.95,1.64-13.94,14.06-13.93,14.59v.42s-.42,0-.42,0Z"></path></g><g><path fill="#231F20" d="m191.75,93.96c-2.19,0-3.98-1.78-3.98-3.98s1.79-3.98,3.98-3.98,3.98,1.78,3.98,3.98-1.79,3.98-3.98,3.98Zm0-7.13c-1.73,0-3.15,1.41-3.15,3.15s1.41,3.15,3.15,3.15,3.15-1.41,3.15-3.15-1.41-3.15-3.15-3.15Z"></path><path fill="#231F20" d="m226.02,108.98h-6.23l-.02-.39c-.01-.19-1.33-19.15-20.91-21.85.47,1.02.71,2.13.71,3.25,0,4.31-3.51,7.82-7.82,7.82s-7.82-3.51-7.82-7.82,3.17-7.69,7.54-8.27c1.06-.14,2.27-.22,3.52-.22,6.27,0,21.55,1.99,28.58,20.3l10.18.09-7.74,7.09Zm-5.46-.83h5.13l5.94-5.44-8.64-.07-.1-.27c-6.56-17.43-20.29-20.03-27.9-20.03-1.22,0-2.39.07-3.39.21-3.98.53-6.85,3.66-6.85,7.45s3.13,6.99,6.99,6.99,6.99-3.13,6.99-6.99c0-1.24-.34-2.47-.98-3.55l-.43-.72.83.09c19.4,2.19,22.09,19.49,22.4,22.33Z"></path><path d="m220.63,108.98h-8.3v-.42c.01-.53.03-12.96-13.92-14.59l-.17-.02-.4-.51.12-.24c.52-1,.79-2.08.79-3.21,0-1.24-.34-2.47-.98-3.55l-.43-.72.83.09c21.04,2.37,22.42,22.52,22.43,22.73l.03.44Zm-7.47-.83h6.57c-.33-2.88-2.97-18.94-20.87-21.41.47,1.02.71,2.13.71,3.25s-.23,2.19-.69,3.2c12.87,1.72,14.14,12.66,14.27,14.96Z"></path></g><path fill="#231F20" d="m182.47,95.74h-23.04l-2.14-1.98v-34.77c.02-.16,1.14-11.34,13.6-12.82h.06s.06,0,.06,0c12.46,1.48,13.58,12.67,13.59,12.78v34.82s-2.13,1.98-2.13,1.98Zm-22.66-.98h22.27l1.55-1.43v-34.35c-.05-.38-1.08-10.44-12.68-11.85-4.88.59-8.49,2.77-10.74,6.47-1.68,2.77-1.93,5.39-1.93,5.41v34.3s1.53,1.43,1.53,1.43Z"></path><path fill="#231F20" d="m156.86,87.34l-.71-1.16c-.92-1.51-2.38-2.67-4.13-3.27l-.26-.09v-28.29l-1.89-2.2h8.87l-1.89,2.2v32.8Zm-4.33-5.06c1.41.53,2.64,1.4,3.57,2.51v-30.54s.99-1.16.99-1.16h-5.55l1,1.16v28.03Z"></path><path fill="#231F20" d="m185.09,87.34v-32.8s-1.89-2.2-1.89-2.2h8.87l-1.89,2.2v28.29l-.26.09c-1.74.6-3.21,1.76-4.13,3.27l-.71,1.16Zm-.23-34.24l1,1.16v30.54c.92-1.11,2.15-1.98,3.56-2.51v-28.03l1-1.16h-5.55Z"></path><path fill="#231F20" d="m151.39,48.27h-4.8l-4.23-4.17h8.78l17.04-11.56v4.26l-16.79,11.46Zm-4.46-.83h4.2l16.21-11.07v-2.25l-15.96,10.82h-7l2.54,2.5Z"></path><path fill="#231F20" d="m195.32,48.27h-4.8l-.11-.07-16.68-11.39v-4.26l17.04,11.56h8.78l-4.23,4.17Zm-4.54-.83h4.2l2.54-2.5h-7l-15.96-10.82v2.25l16.21,11.07Z"></path><path fill="#231F20" d="m174.45,47.71l-.89-.23c-.87-.22-1.72-.39-2.61-.49-.88.1-1.73.26-2.59.49l-.89.23,1.32-2.61-.9-2.11,1.45-2.17-1.98-4.3v-3.44l-1.78-.83v-2.4l3.74-1.43.24-1.99h2.83l.24,1.99,3.74,1.43v2.4l-1.78.83-.04,3.61-1.94,4.13,1.45,2.17-.9,2.11,1.32,2.62Zm-3.5-1.56h.05c.64.08,1.26.18,1.89.31l-.68-1.34.88-2.05-1.46-2.19,2.11-4.47v-3.87l1.78-.83v-1.29l-3.67-1.4-.21-1.76h-1.35l-.21,1.76-3.67,1.4v1.29l1.78.83v3.87l2.1,4.47-1.46,2.19.88,2.05-.68,1.34c.62-.13,1.24-.23,1.87-.31h.05Z"></path><path fill="#231F20" transform="translate(-23.78 151.48) rotate(-45)" d="M167.65 101.13h6.63v6.63H167.65Z"></path><g><path fill="#231F20" d="m193.71,101.08h-45.5l-2.56-4.11h50.62l-2.56,4.11Zm-45.03-.83h44.57l1.52-2.44h-47.61l1.52,2.44Z"></path><path fill="#231F20" d="m191.72,104.27h-41.52l-2.51-4.02h46.54l-2.51,4.02Zm-41.06-.83h40.6l1.47-2.35h-43.53l1.47,2.35Z"></path></g><g><g><path fill="#E9E3DC" d="m244.3,133.22c-8.93,3.43-9.51,9.07-9.51,9.07v4.31h-4.08l2.55,4.69h4.13"></path><path fill="#231F20" d="m237.38,151.72h-4.37l-3-5.53h4.36v-3.89c.03-.28.72-5.99,9.78-9.46l.3.78c-8.55,3.28-9.24,8.68-9.25,8.73v4.68s-3.79,0-3.79,0l2.1,3.86h3.88v.83Z"></path></g><g><path fill="#E9E3DC" d="M237.38 151.3L240.31 151.3L240.31 144.19"></path><path fill="#231F20" d="M240.73 151.72L237.38 151.72L237.38 150.89L239.9 150.89L239.9 144.19L240.73 144.19L240.73 151.72z"></path></g></g><g><path fill="#231F20" d="m249.29,176.87h-10.81l1.41-2.39.02-30.4c1.68-6.03,6.87-7.14,8.55-7.07l1.77-.04.02.83-1.8.04c-1.9-.1-6.29,1.35-7.72,6.41v30.46l-.79,1.33h9.35v.83Z"></path><path fill="#231F20" d="M260.1 176.87L249.29 176.87L249.29 176.04L258.64 176.04L257.85 174.71L257.85 144.19L258.69 144.19L258.69 174.48L260.1 176.87z"></path></g><g><g><path fill="#E9E3DC" d="m261.2,151.3h4.13l2.55-4.69h-4.08v-4.31s-.59-5.65-9.51-9.07c0,0-3.95-1.98-9.99,0"></path><path fill="#231F20" d="m265.57,151.72h-4.37v-.83h3.88l2.1-3.86h-3.79v-4.73s-.7-5.4-9.24-8.69c-.07-.04-3.92-1.89-9.71,0l-.26-.79c6.14-2.01,10.14-.06,10.3.02,9.02,3.46,9.71,9.16,9.74,9.4v3.94h4.36l-3,5.53Z"></path></g><path fill="#231F20" d="m261.2,151.72h-3.35v-7.47c-1.44-5.08-5.7-6.55-7.59-6.45l-2.41.04v-.83s2.38-.04,2.38-.04c1.62-.09,6.75,1.05,8.44,7.11l.02.11v6.69h2.51v.83Z"></path></g><path fill="#231F20" d="m248.46,140.25v33.84h-6.37v-29.31s.12-4.69,6.37-4.53Z"></path><path fill="#231F20" d="m250.12,140.25v33.84h6.37v-29.31s-.11-4.69-6.37-4.53Z"></path><g><g><path fill="#E9E3DC" d="m87.63,133.22c-8.93,3.43-9.51,9.07-9.51,9.07v4.31h-4.08l2.55,4.69h4.13"></path><path fill="#231F20" d="m80.72,151.72h-4.37l-3-5.53h4.36v-3.89c.03-.28.72-5.99,9.78-9.46l.3.78c-8.55,3.28-9.24,8.68-9.25,8.73v4.68s-3.79,0-3.79,0l2.09,3.86h3.88v.83Z"></path></g><g><path fill="#E9E3DC" d="M80.72 151.3L83.65 151.3L83.65 144.19"></path><path fill="#231F20" d="M84.07 151.72L80.72 151.72L80.72 150.89L83.23 150.89L83.23 144.19L84.07 144.19L84.07 151.72z"></path></g></g><g><path fill="#231F20" d="m92.63,176.87h-10.81l1.41-2.39.02-30.4c1.68-6.03,6.87-7.14,8.55-7.07l1.77-.04.02.83-1.8.04c-1.93-.09-6.29,1.35-7.72,6.41v30.46l-.79,1.33h9.35v.83Z"></path><path fill="#231F20" d="M103.44 176.87L92.63 176.87L92.63 176.04L101.98 176.04L101.19 174.71L101.19 144.19L102.02 144.19L102.02 174.48L103.44 176.87z"></path></g><g><g><path fill="#E9E3DC" d="m104.54,151.3h4.13l2.55-4.69h-4.08v-4.31s-.59-5.65-9.51-9.07c0,0-3.95-1.98-9.99,0"></path><path fill="#231F20" d="m108.91,151.72h-4.37v-.83h3.88l2.09-3.86h-3.79v-4.73s-.7-5.4-9.24-8.69c-.08-.03-3.92-1.89-9.71,0l-.26-.79c6.13-2.01,10.14-.06,10.3.02,9.02,3.46,9.71,9.16,9.74,9.4v3.94h4.36l-3,5.53Z"></path></g><path fill="#231F20" d="m104.54,151.72h-3.35v-7.47c-1.44-5.08-5.73-6.55-7.59-6.45l-2.41.04-.02-.83,2.4-.04c1.65-.09,6.75,1.05,8.44,7.11l.02.11v6.69h2.51v.83Z"></path></g><path fill="#231F20" d="m91.8,140.25v33.84h-6.37v-29.31s.12-4.69,6.37-4.53Z"></path><path fill="#231F20" d="m93.46,140.25v33.84h6.37v-29.31s-.11-4.69-6.37-4.53Z"></path><path fill="#231F20" d="M147.07 145.4h8.74v25.77H147.07Z"></path><path fill="#231F20" d="M157.23 145.4h8.74v25.77H157.23Z"></path><path fill="#231F20" d="m155.81,134.43v9.4h-8.51s.16-7.71,8.51-9.4Z"></path><path fill="#231F20" d="m165.73,143.83s-.16-7.71-8.51-9.4v9.4"></path><path fill="#231F20" d="M175.92 145.4h8.74v25.77H175.92Z"></path><path fill="#231F20" d="M186.08 145.4h8.74v25.77H186.08Z"></path><path fill="#231F20" d="m184.66,134.43v9.4h-8.51s.16-7.71,8.51-9.4Z"></path><path fill="#231F20" d="m194.58,143.83s-.16-7.71-8.51-9.4v9.4"></path><g><path fill="#231F20" d="m142.04,140.03h-12.28v-.83h11.62c.54-1.91,3.8-11.51,14.95-11.54h.05c12.26,0,14.95,11.04,14.98,11.16l-.81.19c-.1-.43-2.58-10.51-14.16-10.51h-.05c-11.65.03-14.19,11.1-14.22,11.21l-.07.33Z"></path><path fill="#231F20" d="m211.93,140.03h-12.07l-.07-.33c-.1-.46-2.59-11.18-14.22-11.21h-.05c-11.61,0-14.14,10.4-14.16,10.51l-.81-.19c.03-.11,2.71-11.16,14.98-11.16h.05c11.14.03,14.41,9.63,14.95,11.54h11.41v.83Z"></path></g><path fill="#231F20" d="m165.85,175.55h-18.67l-1.69-1.72v-31.04c.02-.11.78-8.55,8.78-10.9v-5.14h4.49v5.14c8,2.35,8.76,10.79,8.77,10.87v31.06s-1.68,1.72-1.68,1.72Zm-18.39-.67h18.11l1.3-1.33v-30.76c-.02-.06-.77-8.21-8.53-10.33l-.25-.07v-4.98h-3.16v4.98l-.25.07c-7.78,2.12-8.52,10.27-8.52,10.35v30.74s1.29,1.33,1.29,1.33Z"></path><path fill="#231F20" d="m194.7,175.55h-18.67l-1.69-1.72v-31.04c.02-.11.78-8.55,8.78-10.9v-5.14h4.49v5.14c8,2.35,8.76,10.79,8.77,10.87v31.06s-1.68,1.72-1.68,1.72Zm-18.39-.67h18.11l1.3-1.33v-30.76c-.02-.06-.76-8.21-8.53-10.33l-.24-.07v-4.98h-3.16v4.98l-.24.07c-7.77,2.12-8.52,10.27-8.52,10.35v30.74s1.29,1.33,1.29,1.33Z"></path><path fill="#231F20" d="m159.15,124.53h-6.26l-.12-.13c-.16-.17-3.93-4.26-5.01-5.88-1.29-1.94-1.93-3.64-1.96-3.71-.04-.13-.08-.25-.13-.37-.18-.51-.44-1.21-.44-2.23,0-3.69,2.76-6.58,6.29-6.58h.2c1.27,0,2.65.6,3.5,1.52.64.69.94,1.51.88,2.38-.16,2.05-1.71,3.59-3.62,3.59-.71,0-1.37-.2-1.93-.56.11.99.62,2.77,2.63,5.03,3.3,3.71,6.21,6.18,6.24,6.21l.87.73h-1.14Zm-5.9-.83h4.8c-1.11-1.01-3.21-2.99-5.49-5.55-2.79-3.14-2.93-5.48-2.86-6.33-.53-.63-.85-1.44-.85-2.32h.83c0,1.54,1.25,2.79,2.79,2.79s2.67-1.19,2.79-2.82c.05-.64-.17-1.23-.66-1.75-.69-.75-1.85-1.25-2.89-1.25h-.2c-3.06,0-5.46,2.52-5.46,5.74,0,.87.21,1.45.39,1.95.05.13.09.26.13.38h0s.63,1.66,1.86,3.52c.93,1.41,4.13,4.92,4.8,5.64Z"></path><path fill="#231F20" d="m158.52,127.52l-4.08-.03c-.73-.29-2.06-1.37-1.81-3.42l.05-.39h6.58l.09.05c.13.07,1.26.67,1.25,1.69-.01.77-.66,1.45-1.98,2.06l-.09.04Zm-3.82-.87h3.63c.88-.42,1.38-.87,1.39-1.24,0-.35-.44-.7-.68-.85h-5.56c0,1.39.95,1.96,1.22,2.09Z"></path><path fill="#231F20" d="m170.97,123.21h-.21l-.06-.06c-2.66-.8-14.55-4.58-14.23-8.52.2-2.46,4.91-4.23,14.39-5.42h.13c9.54,1.19,14.24,2.96,14.45,5.42.32,3.93-11.52,7.71-14.21,8.52l-.05.05h-.22Zm-.02-13.17c-11.66,1.46-13.55,3.55-13.64,4.66-.23,2.77,8.79,6.21,13.66,7.66,4.87-1.45,13.88-4.89,13.66-7.66-.09-1.11-1.99-3.19-13.67-4.66Z"></path><path fill="#231F20" d="m170.95,132.97l-1.77-.93v-1.38l-.85-1.77,1.13-.96-.42-.43h-2.36l-3.39-3.28,4.35-2.96.2.07c1.52.54,2.7.9,3.13,1.03.42-.13,1.6-.49,3.12-1.03l.2-.07,4.34,2.96-3.39,3.28h-2.36l-.42.43,1.13.96-.85,1.77v1.38l-1.78.93Zm-.94-1.43l.94.49.94-.49.04-1.15.61-1.28-1.32-1.12,1.29-1.32h2.37l2.41-2.33-3.15-2.14c-1.4.49-2.49.83-2.92.96l-.05.05h-.42s-.06-.05-.06-.05c-.43-.13-1.53-.47-2.95-.97l-3.15,2.15,2.41,2.33h2.37l1.29,1.32-1.32,1.12.65,1.46v.97Z"></path><g><g><path fill="#E9E3DC" d="M130.52 121.68L121.33 121.68L121.76 124.35L130.1 124.35L130.52 121.68z"></path><path fill="#231F20" d="m130.45,124.77h-9.05l-.56-3.5h10.17l-.56,3.5Zm-8.34-.83h7.63l.29-1.84h-8.22l.29,1.84Z"></path></g><g><path fill="#E9E3DC" d="M131.12 117.98L129.76 116.4L132.66 108.61L125.96 108.53L125.96 108.53L125.93 108.53L125.89 108.53L125.89 108.53L119.19 108.61L122.1 116.4L120.73 117.98L121.33 121.68L130.52 121.68L131.12 117.98z"></path><path fill="#231F20" d="m130.88,122.1h-9.91l-.68-4.25,1.33-1.54-3.02-8.12,7.29-.08,7.37.08-3.02,8.12,1.33,1.54-.68,4.25Zm-9.2-.83h8.48l.51-3.16-1.4-1.62,2.78-7.47-6.11-.07-6.16.07,2.78,7.47-1.39,1.62.51,3.16Z"></path></g><g><path fill="#E9E3DC" d="M131.34 125.45L130.1 124.35L121.76 124.35L120.51 125.45L122.1 129.01L129.76 129.01L131.34 125.45z"></path><path fill="#231F20" d="m130.03,129.43h-8.2l-1.82-4.09,1.59-1.4h8.65l1.59,1.4-1.82,4.09Zm-7.66-.83h7.12l1.35-3.04-.9-.79h-8.03l-.9.79,1.35,3.04Z"></path></g><g><path fill="#E9E3DC" d="M131.3 184.73L131.3 181.9L120.55 181.9L120.55 184.73L121.14 186.19L130.72 186.19L131.3 184.73z"></path><path fill="#231F20" d="m131,186.61h-10.14l-.72-1.88v-3.24h11.59l-.03,3.39-.69,1.72Zm-9.58-.83h9.02l.45-1.13v-2.33h-9.92v2.33l.45,1.13Z"></path></g><g><path fill="#E9E3DC" d="M132.66 178.68L129.76 173.94L122.1 173.94L119.19 178.68L120.55 181.9L131.3 181.9L132.66 178.68z"></path><path fill="#231F20" d="m131.58,182.32h-11.31l-1.55-3.68,3.13-5.12h8.13l3.14,5.12-1.55,3.68Zm-10.75-.83h10.2l1.17-2.78-2.67-4.35h-7.19l-2.67,4.35,1.17,2.78Z"></path></g><g><path fill="#E9E3DC" d="M122.1 129.01h7.66v44.93H122.1Z"></path><path fill="#231F20" d="m130.17,174.36h-8.49v-45.76h8.49v45.76Zm-7.66-.83h6.83v-44.09h-6.83v44.09Z"></path></g></g><g><path fill="#E9E3DC" d="m114.45,143.57l7.31,10.59v13.74l-9.63,8.19,2.72,2.83h-4.84l-2.3-2.85,10.37-8.6s3.12-4.06.36-11.41c0,0-6.87-9.97-8.04-11.71-1.83-2.74-1.69-5.32-1.57-7.02.24-3.35,3.34-6,6.76-6s6.19,2.77,6.19,6.19-2.77,6.19-6.19,6.19h-.07c-2.51,0-4.46-2.38-4.46-4.89s2.02-4.21,4.53-4.21h.07c1.59,0,2.81,1.29,2.81,2.88s-1.29,2.88-2.88,2.88c-1.1,0-2.06-.62-2.54-1.53"></path><path fill="#231F20" d="m115.83,179.34h-6.02l-2.68-3.32,10.64-8.83c.28-.4,2.77-4.29.3-10.93-.49-.71-6.9-10.01-8.01-11.67-1.95-2.91-1.75-5.64-1.64-7.28.25-3.52,3.47-6.39,7.17-6.39s6.61,2.97,6.61,6.61-2.97,6.61-6.61,6.61c-.08,0-.17,0-.25,0l6.84,9.9v14.06l-9.44,8.03,3.09,3.21Zm-5.62-.83h3.67l-2.35-2.44,9.83-8.35v-13.42l-7.17-10.38c-2.04-.67-3.54-2.72-3.54-5.08,0-2.64,2.13-4.63,4.95-4.63,1.88,0,3.3,1.45,3.3,3.3s-1.48,3.3-3.3,3.3c-1.22,0-2.34-.67-2.91-1.75l.74-.39c.43.81,1.26,1.31,2.18,1.31,1.36,0,2.46-1.1,2.46-2.46s-1.05-2.46-2.39-2.46c-2.46,0-4.19,1.6-4.19,3.79,0,2.38,1.89,4.47,4.05,4.47,3.26,0,5.85-2.59,5.85-5.78s-2.59-5.78-5.78-5.78-6.12,2.52-6.34,5.61c-.11,1.53-.29,4.08,1.5,6.76,1.15,1.72,7.96,11.6,8.03,11.7l.05.09c2.8,7.48-.29,11.64-.42,11.81l-.06.07-10.05,8.34,1.92,2.37Z"></path></g><g><g><path fill="#E9E3DC" d="M211.45 121.68L220.64 121.68L220.22 124.35L211.88 124.35L211.45 121.68z"></path><path fill="#231F20" d="m220.57,124.77h-9.05l-.56-3.5h10.17l-.56,3.5Zm-8.34-.83h7.63l.29-1.84h-8.22l.29,1.84Z"></path></g><g><path fill="#E9E3DC" d="M210.85 117.98L212.22 116.4L209.31 108.61L216.01 108.53L216.01 108.53L216.05 108.53L216.08 108.53L216.08 108.53L222.78 108.61L219.88 116.4L221.24 117.98L220.64 121.68L211.45 121.68L210.85 117.98z"></path><path fill="#231F20" d="m221,122.1h-9.91l-.68-4.25,1.33-1.54-3.02-8.12,7.29-.08,7.37.08-3.02,8.12,1.33,1.54-.68,4.25Zm-9.2-.83h8.48l.51-3.16-1.39-1.62,2.78-7.47-6.11-.07-6.16.07,2.78,7.47-1.39,1.62.51,3.16Z"></path></g><g><path fill="#E9E3DC" d="M210.63 125.45L211.88 124.35L220.22 124.35L221.46 125.45L219.88 129.01L212.22 129.01L210.63 125.45z"></path><path fill="#231F20" d="m220.15,129.43h-8.2l-1.82-4.09,1.59-1.4h8.65l1.59,1.4-1.82,4.09Zm-7.66-.83h7.12l1.35-3.04-.9-.79h-8.03l-.9.79,1.35,3.04Z"></path></g><g><path fill="#E9E3DC" d="M210.67 184.73L210.67 181.9L221.42 181.9L221.42 184.73L220.84 186.19L211.26 186.19L210.67 184.73z"></path><path fill="#231F20" d="m221.12,186.61h-10.14l-.72-1.88v-3.24h11.59l-.03,3.39-.69,1.72Zm-9.58-.83h9.02l.45-1.13v-2.33h-9.92v2.33l.45,1.13Z"></path></g><g><path fill="#E9E3DC" d="M209.31 178.68L212.22 173.94L219.88 173.94L222.78 178.68L221.42 181.9L210.67 181.9L209.31 178.68z"></path><path fill="#231F20" d="m221.7,182.32h-11.31l-1.55-3.68,3.14-5.12h8.13l3.14,5.12-1.55,3.68Zm-10.75-.83h10.2l1.17-2.78-2.67-4.35h-7.19l-2.67,4.35,1.17,2.78Z"></path></g><g><path fill="#E9E3DC" d="M212.22 129.01h7.66v44.93H212.22Z"></path><path fill="#231F20" d="m220.29,174.36h-8.49v-45.76h8.49v45.76Zm-7.66-.83h6.83v-44.09h-6.83v44.09Z"></path></g></g><g><g><path fill="#E9E3DC" d="M207.19 186.19h9.58v10.89H207.19Z"></path><path fill="#231F20" d="m217.19,197.49h-10.41v-11.72h10.41v11.72Zm-9.58-.83h8.75v-10.05h-8.75v10.05Z"></path></g><g><path fill="#E9E3DC" d="M216.77 197.08L217.74 197.95L217.74 203.63L212.01 203.63L211.95 203.63L206.22 203.63L206.22 197.95L207.19 197.08L216.77 197.08z"></path><path fill="#231F20" d="m218.15,204.05h-12.35v-6.28l1.22-1.11h9.9l1.22,1.11v6.28Zm-11.52-.83h10.68v-5.08l-.71-.64h-9.26l-.71.64v5.08Z"></path></g></g><path fill="#231F20" d="m188.94,124.53h-7.4l.87-.73s2.94-2.5,6.24-6.21c2.01-2.26,2.52-4.03,2.63-5.03-.56.35-1.22.56-1.93.56-1.91,0-3.47-1.54-3.62-3.59-.07-.87.24-1.69.88-2.38.85-.92,2.23-1.52,3.5-1.52h.2c3.53,0,6.29,2.89,6.29,6.58,0,1.02-.25,1.72-.44,2.23-.04.12-.09.24-.12.35-.03.09-.68,1.79-1.96,3.73-1.07,1.62-4.85,5.71-5.01,5.88l-.12.13Zm-5.17-.83h4.8c.67-.73,3.87-4.24,4.8-5.64,1.23-1.86,1.87-3.53,1.87-3.54.03-.1.08-.23.12-.36.18-.5.39-1.07.39-1.95,0-3.22-2.4-5.74-5.46-5.74h-.2c-1.04,0-2.2.5-2.89,1.25-.49.52-.71,1.11-.66,1.75.12,1.64,1.3,2.82,2.79,2.82s2.79-1.25,2.79-2.79h.83c0,.88-.32,1.69-.85,2.32.07.85-.07,3.19-2.86,6.33-2.28,2.56-4.38,4.55-5.49,5.55Z"></path><path fill="#231F20" d="m187.3,127.52l-4.09-.04c-1.32-.62-1.97-1.29-1.98-2.06-.02-1.02,1.12-1.62,1.25-1.69l.09-.05h6.58l.05.39c.24,2.05-1.08,3.14-1.81,3.42l-.08.03Zm-3.81-.87h3.63c.27-.13,1.22-.7,1.22-2.09h-5.56c-.24.15-.69.49-.68.85,0,.37.51.82,1.39,1.24Z"></path><g><path fill="#E9E3DC" d="M39.99 181.24h22.18v15.88H39.99Z"></path><path fill="#231F20" d="m62.58,197.54h-23.01v-16.71h23.01v16.71Zm-22.18-.83h21.34v-15.04h-21.34v15.04Z"></path></g><g><g><path fill="#E9E3DC" d="M64.11 199.09L62.14 197.12L51.18 197.12L50.98 197.12L40.02 197.12L38.05 199.09L38.05 203.66L64.11 203.66L64.11 199.09z"></path><path fill="#231F20" d="m64.53,204.08h-26.9v-5.16l2.21-2.22h22.47l2.21,2.22v5.16Zm-26.06-.83h25.23v-3.98l-1.72-1.73h-21.78l-1.72,1.73v3.98Z"></path></g><g><path fill="#E9E3DC" d="M38.05 203.66L36.41 204.92L36.41 206.61L50.98 206.61L51.18 206.61L65.75 206.61L65.75 204.92L64.11 203.66L38.05 203.66z"></path><path fill="#231F20" d="m66.16,207.02h-30.17v-2.31l1.91-1.47h26.35l1.91,1.47v2.31Zm-29.33-.83h28.5v-1.07l-1.36-1.05h-25.78l-1.36,1.05v1.07Z"></path></g></g><g><path fill="#E9E3DC" d="M51.05 177.38L36.59 177.38L39.99 181.24L51.05 181.24L62.1 181.24L65.5 177.38L51.05 177.38z"></path><path fill="#231F20" d="m62.29,181.66h-22.49l-4.14-4.69h30.76l-4.14,4.69Zm-22.11-.83h21.74l2.67-3.03h-27.07l2.67,3.03Z"></path></g><g><path fill="#E9E3DC" d="M280.39 181.24h22.18v15.88H280.39Z"></path><path fill="#231F20" d="m302.99,197.54h-23.01v-16.71h23.01v16.71Zm-22.18-.83h21.34v-15.04h-21.34v15.04Z"></path></g><g><g><path fill="#E9E3DC" d="M304.51 199.09L302.55 197.12L291.58 197.12L291.38 197.12L280.42 197.12L278.45 199.09L278.45 203.66L304.51 203.66L304.51 199.09z"></path><path fill="#231F20" d="m304.93,204.08h-26.9v-5.16l2.21-2.22h22.47l2.21,2.22v5.16Zm-26.06-.83h25.23v-3.98l-1.72-1.73h-21.78l-1.72,1.73v3.98Z"></path></g><g><path fill="#E9E3DC" d="M278.45 203.66L276.81 204.92L276.81 206.61L291.38 206.61L291.58 206.61L306.15 206.61L306.15 204.92L304.51 203.66L278.45 203.66z"></path><path fill="#231F20" d="m306.56,207.02h-30.17v-2.31l1.91-1.47h26.35l1.91,1.47v2.31Zm-29.33-.83h28.5v-1.07l-1.36-1.05h-25.78l-1.36,1.05v1.07Z"></path></g></g><g><path fill="#E9E3DC" d="M291.45 177.38L276.99 177.38L280.39 181.24L291.45 181.24L302.5 181.24L305.91 177.38L291.45 177.38z"></path><path fill="#231F20" d="m302.69,181.66h-22.49l-4.14-4.69h30.76l-4.14,4.69Zm-22.11-.83h21.74l2.67-3.03h-27.07l2.67,3.03Z"></path></g><g><path fill="#E9E3DC" d="m227.52,143.57l-7.31,10.59v13.74l9.64,8.19-2.72,2.83h4.84l2.3-2.85-10.37-8.6s-3.12-4.06-.36-11.41c0,0,6.87-9.97,8.04-11.71,1.83-2.74,1.69-5.32,1.57-7.02-.24-3.35-3.34-6-6.76-6s-6.19,2.77-6.19,6.19,2.77,6.19,6.19,6.19h.07c2.51,0,4.47-2.38,4.47-4.89s-2.02-4.21-4.53-4.21h-.07c-1.59,0-2.81,1.29-2.81,2.88s1.29,2.88,2.88,2.88c1.1,0,2.06-.62,2.54-1.53"></path><path fill="#231F20" d="m232.17,179.34h-6.02l3.09-3.21-9.44-8.03v-14.06l6.83-9.89c-.06,0-.12,0-.18,0-3.71,0-6.68-2.97-6.68-6.61s2.97-6.61,6.61-6.61,6.92,2.87,7.17,6.39c.11,1.63.31,4.37-1.64,7.28-1.11,1.66-7.52,10.96-8.01,11.67-2.48,6.68.02,10.54.3,10.93l10.65,8.83-2.68,3.32Zm-4.06-.83h3.67l1.92-2.37-10.12-8.4c-.13-.17-3.22-4.33-.42-11.81l.05-.09c.07-.1,6.89-9.99,8.03-11.7,1.79-2.67,1.61-5.23,1.5-6.76-.22-3.09-3.06-5.61-6.34-5.61s-5.78,2.59-5.78,5.78,2.59,5.78,5.78,5.78c2.23,0,4.12-2.09,4.12-4.47,0-2.2-1.73-3.79-4.12-3.79-1.41,0-2.46,1.08-2.46,2.46s1.1,2.46,2.46,2.46c.91,0,1.75-.5,2.18-1.31l.74.39c-.57,1.08-1.69,1.75-2.91,1.75-1.82,0-3.3-1.48-3.3-3.3s1.42-3.3,3.22-3.3c2.89,0,5.02,1.99,5.02,4.63,0,2.38-1.53,4.45-3.55,5.1l-7.16,10.36v13.42l9.83,8.35-2.35,2.44Z"></path></g><g><path fill="#E9E3DC" d="m227.93,60.89c-5.35,0-9.68,4.75-9.68,10.62s3.59,12.74,9.68,8.45c6.09,4.29,9.68-2.59,9.68-8.45s-4.33-10.62-9.68-10.62Z"></path><path fill="#231F20" d="m231.55,81.72h0c-1.15,0-2.37-.42-3.62-1.25-1.25.83-2.46,1.25-3.62,1.25-4.06,0-6.48-5.19-6.48-10.21,0-6.09,4.53-11.04,10.1-11.04s10.1,4.95,10.1,11.04c0,2.45-.59,4.93-1.63,6.82-1.2,2.19-2.93,3.39-4.85,3.39Zm-3.62-2.27l.24.17c1.19.84,2.33,1.27,3.38,1.27,2.06,0,3.37-1.61,4.12-2.96.97-1.76,1.53-4.1,1.53-6.41,0-5.63-4.16-10.2-9.26-10.2s-9.26,4.58-9.26,10.2c0,4.51,2.16,9.38,5.65,9.38,1.05,0,2.19-.43,3.38-1.27l.24-.17Z"></path></g><g><path fill="#E9E3DC" d="m227.93,57.72h0c-13.86,1.52-12.59,14.35-12.59,14.35l3.14,2.01c-.15-.85-.22-1.72-.22-2.57,0-5.86,4.33-10.62,9.68-10.62s9.68,4.75,9.68,10.62c0,.85-.08,1.72-.22,2.57l3.14-2.01s1.27-12.83-12.59-14.35Z"></path><path fill="#231F20" d="m219.05,74.94l-4.1-2.62-.02-.2c-.01-.13-1.14-13.26,12.96-14.81h.05s.05,0,.05,0c14.11,1.55,12.97,14.68,12.96,14.81l-.02.2-4.1,2.62.16-.93c.15-.84.22-1.68.22-2.5,0-5.63-4.16-10.2-9.26-10.2s-9.26,4.58-9.26,10.2c0,.82.07,1.66.22,2.5l.16.93Zm-3.31-3.11l2.2,1.4c-.07-.58-.1-1.16-.1-1.73,0-6.09,4.53-11.04,10.1-11.04s10.1,4.95,10.1,11.04c0,.57-.03,1.15-.1,1.73l2.19-1.4c.1-1.65.27-12.3-12.19-13.7-12.48,1.4-12.3,12.04-12.19,13.7Z"></path></g><g><path fill="#E9E3DC" d="m114,60.89c-5.35,0-9.68,4.75-9.68,10.62s3.59,12.74,9.68,8.45c6.09,4.29,9.68-2.59,9.68-8.45s-4.33-10.62-9.68-10.62Z"></path><path fill="#231F20" d="m117.62,81.72h0c-1.15,0-2.37-.42-3.62-1.25-1.25.83-2.46,1.25-3.62,1.25-4.06,0-6.48-5.19-6.48-10.21,0-6.09,4.53-11.04,10.1-11.04s10.1,4.95,10.1,11.04c0,2.45-.59,4.93-1.63,6.82-1.2,2.19-2.93,3.39-4.85,3.39Zm-3.62-2.27l.24.17c1.19.84,2.33,1.27,3.38,1.27,2.06,0,3.37-1.61,4.12-2.96.97-1.76,1.53-4.1,1.53-6.41,0-5.63-4.16-10.2-9.26-10.2s-9.26,4.58-9.26,10.2c0,4.51,2.16,9.38,5.65,9.38,1.05,0,2.19-.43,3.38-1.27l.24-.17Z"></path></g><g><path fill="#E9E3DC" d="m114,57.72h0c-13.86,1.52-12.59,14.35-12.59,14.35l3.14,2.01c-.15-.85-.22-1.72-.22-2.57,0-5.86,4.33-10.62,9.68-10.62s9.68,4.75,9.68,10.62c0,.85-.08,1.72-.22,2.57l3.14-2.01s1.27-12.83-12.59-14.35Z"></path><path fill="#231F20" d="m105.12,74.94l-4.1-2.62-.02-.2c-.01-.13-1.14-13.26,12.96-14.81h.05s.05,0,.05,0c14.1,1.55,12.97,14.68,12.96,14.81l-.02.2-4.1,2.62.16-.93c.14-.84.22-1.68.22-2.5,0-5.63-4.16-10.2-9.26-10.2s-9.26,4.58-9.26,10.2c0,.82.07,1.66.22,2.5l.16.93Zm-3.31-3.11l2.2,1.41c-.07-.58-.1-1.16-.1-1.73,0-6.09,4.53-11.04,10.1-11.04s10.1,4.95,10.1,11.04c0,.57-.03,1.15-.1,1.73l2.19-1.4c.1-1.65.27-12.3-12.19-13.7-12.46,1.39-12.29,12.04-12.19,13.7Z"></path></g><g><path fill="#231F20" d="M114.02 54.18L112.26 57.33L114.02 59.88L115.78 57.33L114.02 54.18z"></path><path fill="#231F20" d="m114.02,60.61l-2.25-3.26,2.25-4.03,2.25,4.03-2.25,3.26Zm-1.27-3.3l1.27,1.84,1.27-1.84-1.27-2.27-1.27,2.27Z"></path></g><g><path fill="#231F20" d="m120.86,70.89c0,4.37-3.06,7.92-6.84,7.92s-6.84-3.54-6.84-7.92,3.06-7.92,6.84-7.92,6.84,3.54,6.84,7.92Z"></path><path fill="#231F20" d="m114.02,79.25c-4.02,0-7.29-3.75-7.29-8.36s3.27-8.36,7.29-8.36,7.29,3.75,7.29,8.36-3.27,8.36-7.29,8.36Zm0-15.83c-3.53,0-6.4,3.35-6.4,7.47s2.87,7.47,6.4,7.47,6.4-3.35,6.4-7.47-2.87-7.47-6.4-7.47Z"></path></g><g><path fill="#231F20" d="M112.81 79.95a1.21 1.21 0 1 0 2.42 0a1.21 1.21 0 1 0 -2.42 0"></path><path fill="#231F20" d="m114.02,81.49c-.85,0-1.54-.69-1.54-1.54s.69-1.54,1.54-1.54,1.54.69,1.54,1.54-.69,1.54-1.54,1.54Zm0-2.42c-.48,0-.87.39-.87.87s.39.87.87.87.87-.39.87-.87-.39-.87-.87-.87Z"></path></g><g><path fill="#231F20" d="M227.95 54.18L226.19 57.33L227.95 59.88L229.71 57.33L227.95 54.18z"></path><path fill="#231F20" d="m227.95,60.61l-2.25-3.26,2.25-4.03,2.25,4.03-2.25,3.26Zm-1.27-3.3l1.27,1.84,1.27-1.84-1.27-2.27-1.27,2.27Z"></path></g><g><path fill="#231F20" d="m234.79,70.89c0,4.37-3.06,7.92-6.84,7.92s-6.84-3.54-6.84-7.92,3.06-7.92,6.84-7.92,6.84,3.54,6.84,7.92Z"></path><path fill="#231F20" d="m227.95,79.25c-4.02,0-7.29-3.75-7.29-8.36s3.27-8.36,7.29-8.36,7.29,3.75,7.29,8.36-3.27,8.36-7.29,8.36Zm0-15.83c-3.53,0-6.4,3.35-6.4,7.47s2.87,7.47,6.4,7.47,6.4-3.35,6.4-7.47-2.87-7.47-6.4-7.47Z"></path></g><g><path fill="#231F20" d="m229.16,79.95c0,.67-.54,1.21-1.21,1.21s-1.21-.54-1.21-1.21.54-1.21,1.21-1.21,1.21.54,1.21,1.21Z"></path><path fill="#231F20" d="m227.95,81.49c-.85,0-1.54-.69-1.54-1.54s.69-1.54,1.54-1.54,1.54.69,1.54,1.54-.69,1.54-1.54,1.54Zm0-2.42c-.48,0-.87.39-.87.87s.39.87.87.87.87-.39.87-.87-.39-.87-.87-.87Z"></path></g><path fill="#231F20" d="M148.63 52.24h8.75v0.83H148.63Z"></path><g><path d="m143.24,92.52s.03.09.05.13c-.02-.04-.03-.09-.05-.13Z"></path><path d="m142.99,91.68c.02.07.03.13.05.2-.02-.07-.04-.13-.05-.2Z"></path><path d="m142.84,90.83c0,.07.02.14.03.22-.01-.07-.02-.14-.03-.22Z"></path><path fill="#231F20" d="m151.72,82.84l-.16-.05c-.43-.12-.82-.2-1.2-.25-.15-.02-.5-.07-1.02-.11l-.33-.03-.58-4.31h-2.69v-2.47l2.55-1.99v-3.94l-2.25-2.43-.53-3.46-2.45-4.86,5.01-2.09,1.05-1.66-.93-2.51.65-2.71,2.19-2.47,1.26-.84,10.43.03-3.92,3.72-1.24,2.65h-5.96l.97,1.17v28.12l-.84.47Zm-1.98-1.21c.36.04.6.07.71.08.38.05.76.13,1.17.23l.12-.06v-27.33l-1.92-2.31h7.21l1.14-2.37,2.47-2.34-8.1-.03-1,.66-1.94,2.2-.54,2.26.98,2.66-1.41,2.23-4.43,1.85,2.12,4.24.51,3.28,2.3,2.48v4.67l-2.55,1.99v1.23h2.59l.59,4.37Z"></path><path fill="#231F20" d="m142.59,91.77h0s0,0,0,0c-.03-.11-.05-.22-.07-.33t0,0c-.02-.11-.04-.22-.05-.33l.82-.12s0,0,0,0h0c.01.1.03.2.05.3h0c.02.1.04.2.06.29l-.81.19Z"></path><path fill="#231F20" d="m142.43,90.88c-.03-.29-.05-.59-.05-.9h.83c0,.27.02.54.05.8h0s-.83.1-.83.1Z"></path><path fill="#231F20" d="m142.85,92.66s0,0,0,0h0s0,0,0,0c-.04-.11-.08-.22-.11-.33,0,0,0,0,0,0-.04-.11-.07-.23-.1-.34l.81-.21h0s0,0,0,0c.03.1.05.2.08.29,0,0,0,0,0,0,.03.1.07.2.1.3l-.78.29Z"></path><path fill="#231F20" d="m143.25,93.58c-.13-.25-.24-.51-.35-.78l.78-.3c.09.24.19.47.31.69l-.74.38Z"></path></g><path fill="#231F20" d="M184.7 52.24h8.75v0.83H184.7Z"></path><path fill="#231F20" d="m190.36,82.84l-.84-.47v-28.12l.97-1.17h-5.96l-1.24-2.65-3.92-3.72,10.43-.03,1.34.91,2.11,2.4.65,2.71-.93,2.51,1.05,1.66,5.01,2.09-2.45,4.86-.53,3.46-2.25,2.43v3.94l2.55,1.99v2.47h-2.69l-.58,4.31-.33.03c-.52.04-.87.09-1,.11-.4.05-.79.14-1.22.26l-.17.05Zm0-.96l.12.06c.4-.11.78-.18,1.14-.23.13-.02.37-.05.73-.08l.59-4.37h2.59v-1.23l-2.55-1.99v-4.67l2.3-2.48.55-3.4,2.08-4.11-4.43-1.85-1.41-2.23.98-2.66-.54-2.26-1.94-2.2-1-.66-8.1.03,2.56,2.46,1.05,2.25h7.21l-1.92,2.31v27.33Z"></path><g><path fill="#E9E3DC" d="M119.91 215.38L114.97 211.7L30.28 211.7L33.52 219.63L122.26 219.63L122.26 218.19L119.91 215.38z"></path><path fill="#231F20" d="m122.67,220.05H33.24l-3.59-8.76h85.45l5.12,3.83,2.45,2.92v2.01Zm-88.87-.83h88.04v-.88l-2.22-2.65-4.79-3.57H30.9l2.91,7.1Z"></path></g><path fill="#231F20" d="M31.78 214.55h109.06v1.67H31.78Z"></path><g><g><path fill="#231F20" d="M122.26 225.48L39.34 225.48L40.88 227.24L123.09 227.24L122.26 226.6L122.26 225.48z"></path><path fill="#231F20" d="m124.32,227.66H40.7l-2.27-2.6h84.25v1.33l1.64,1.26Zm-83.24-.83h80.79l-.02-.02v-.91H40.26l.81.93Z"></path></g><g><path fill="#E9E3DC" d="M122.26 219.63L37.62 219.63L39.48 222.68L38.43 224.44L39.34 225.48L122.26 225.48L122.26 219.63z"></path><path fill="#231F20" d="m122.67,225.89H39.15l-1.24-1.41,1.07-1.8-2.11-3.47h85.79v6.68Zm-83.14-.83h82.31v-5.01H38.36l1.6,2.64-1.02,1.71.59.67Z"></path></g></g><path fill="#231F20" d="M39.48 222.27h82.78v0.83H39.48Z"></path><g><path fill="#E9E3DC" d="M113.71 208.44L27.2 208.44L30.28 211.7L114.97 211.7L114.73 211.52L113.71 208.44z"></path><path fill="#231F20" d="m116.12,212.08H30.11l-3.79-4.03h87.67l1.07,3.23,1.07.8Zm-85.68-.76h83.82l-.82-2.5H28.09l2.35,2.5Z"></path></g><path fill="#231F20" d="M114.97 211.28h25.95v0.83H114.97Z"></path><path fill="#231F20" d="M122.26 222.27h16.24v0.83H122.26Z"></path><path fill="#231F20" d="M127.39 248.27h5.97v3H127.39Z"></path><g><path fill="#E9E3DC" d="M221.65 215.38L226.59 211.7L311.29 211.7L308.04 219.63L219.3 219.63L219.3 218.19L221.65 215.38z"></path><path fill="#231F20" d="m308.32,220.05h-89.43v-2.01l2.52-2.99,5.05-3.76h85.45l-3.59,8.76Zm-88.6-.83h88.04l2.91-7.1h-83.93l-4.79,3.57-2.22,2.65v.88Z"></path></g><path fill="#231F20" d="M309.78 216.21L201.59 216.21L200.72 214.55L309.78 214.55L309.78 216.21z"></path><g><g><path fill="#231F20" d="M219.3 225.48L302.22 225.48L300.68 227.24L218.47 227.24L219.3 226.6L219.3 225.48z"></path><path fill="#231F20" d="m300.87,227.66h-83.62l1.64-1.26v-1.33h84.25l-2.27,2.6Zm-81.17-.83h80.79l.81-.93h-81.58l-.02.93Z"></path></g><g><path fill="#E9E3DC" d="M219.3 219.63L303.94 219.63L302.09 222.68L303.13 224.44L302.22 225.48L219.3 225.48L219.3 219.63z"></path><path fill="#231F20" d="m302.41,225.89h-83.52v-6.68h85.79l-2.11,3.47,1.07,1.8-1.24,1.41Zm-82.69-.83h82.31l.59-.67-1.02-1.71,1.6-2.64h-83.48v5.01Z"></path></g></g><path fill="#231F20" d="M219.3 222.27h82.78v0.83H219.3Z"></path><g><path fill="#E9E3DC" d="M227.85 208.44L314.36 208.44L311.29 211.7L226.59 211.7L226.84 211.52L227.85 208.44z"></path><path fill="#231F20" d="m311.45,212.08h-86.01l1.07-.8,1.07-3.23h87.67l-3.79,4.03Zm-84.15-.76h83.82l2.35-2.5h-85.35l-.82,2.5Z"></path></g><path fill="#231F20" d="M200.64 211.28h25.95v0.83H200.64Z"></path><path fill="#231F20" d="M203.06 222.27h16.24v0.83H203.06Z"></path><path fill="#231F20" d="M207.27 241.93h7.84v0.83H207.27Z"></path><path fill="#231F20" d="M208.2 248.27h5.97v3H208.2Z"></path><g><path fill="#231F20" d="M154.06 182.79h0.83v15.07H154.06Z"></path><path fill="#231F20" d="M157.7 182.79h0.83v15.07H157.7Z"></path><path fill="#231F20" d="M161.35 182.79h0.83v15.07H161.35Z"></path><path fill="#231F20" d="M165 182.79h0.83v15.07H165Z"></path><path fill="#231F20" d="M168.7 182.79h0.83v15.07H168.7Z"></path><path fill="#231F20" d="M172.24 182.79h0.83v15.07H172.24Z"></path><path fill="#231F20" d="M175.93 182.79h0.83v15.07H175.93Z"></path><g><path fill="#E9E3DC" transform="translate(-87.18 164.19) rotate(-45.03)" d="M153.18 185.97h2.58v2.58H153.18Z"></path><path fill="#231F20" d="m154.47,189.67l-2.41-2.41,2.41-2.42,2.41,2.41-2.41,2.42Zm-1.24-2.41l1.24,1.24,1.24-1.24-1.24-1.24-1.24,1.24Z"></path></g><g><path fill="#E9E3DC" transform="translate(-86.11 166.76) rotate(-45.03)" d="M156.82 185.97h2.58v2.58H156.82Z"></path><path fill="#231F20" d="m158.12,189.67l-2.41-2.41,2.41-2.42,2.41,2.41-2.41,2.42Zm-1.24-2.41l1.24,1.24,1.24-1.24-1.24-1.24-1.24,1.24Z"></path></g><g><path fill="#E9E3DC" transform="translate(-85.04 169.37) rotate(-45.03)" d="M160.48 185.97h2.58v2.58H160.48Z"></path><path fill="#231F20" d="m161.77,189.67l-2.41-2.41,2.41-2.42,2.41,2.41-2.41,2.42Zm-1.24-2.41l1.24,1.24,1.24-1.24-1.24-1.24-1.24,1.24Z"></path></g><g><path fill="#E9E3DC" transform="translate(-83.97 171.95) rotate(-45.03)" d="M164.13 185.97h2.58v2.58H164.13Z"></path><path fill="#231F20" d="m165.42,189.67l-2.41-2.41,2.41-2.42,2.41,2.41-2.41,2.42Zm-1.24-2.41l1.24,1.24,1.24-1.24-1.24-1.24-1.24,1.24Z"></path></g><g><path fill="#E9E3DC" transform="translate(-82.89 174.59) rotate(-45.04)" d="M167.82 185.97h2.58v2.58H167.82Z"></path><path fill="#231F20" d="m169.11,189.67l-2.41-2.41,2.41-2.42,2.41,2.41-2.41,2.42Zm-1.24-2.41l1.24,1.24,1.24-1.24-1.24-1.24-1.24,1.24Z"></path></g><g><path fill="#E9E3DC" transform="translate(-81.85 177.05) rotate(-45.03)" d="M171.36 185.97h2.58v2.58H171.36Z"></path><path fill="#231F20" d="m172.65,189.67l-2.41-2.41,2.41-2.42,2.41,2.41-2.41,2.42Zm-1.24-2.41l1.24,1.24,1.24-1.24-1.24-1.24-1.24,1.24Z"></path></g><g><path fill="#E9E3DC" transform="translate(-80.76 179.6) rotate(-45.01)" d="M175.06 185.97h2.58v2.58H175.06Z"></path><path fill="#231F20" d="m176.35,189.67l-2.41-2.41,2.41-2.42,2.42,2.41-2.42,2.42Zm-1.24-2.41l1.24,1.24,1.24-1.24-1.24-1.24-1.24,1.24Z"></path></g><g><path fill="#E9E3DC" transform="translate(-91.7 166.06) rotate(-45.03)" d="M153.18 192.36h2.58v2.58H153.18Z"></path><path fill="#231F20" d="m154.47,196.06l-2.41-2.41,2.41-2.42,2.41,2.41-2.41,2.42Zm-1.24-2.41l1.24,1.24,1.24-1.24-1.24-1.24-1.24,1.24Z"></path></g><g><path fill="#E9E3DC" transform="translate(-90.63 168.64) rotate(-45.03)" d="M156.82 192.36h2.58v2.58H156.82Z"></path><path fill="#231F20" d="m158.12,196.06l-2.41-2.41,2.41-2.42,2.41,2.41-2.41,2.42Zm-1.24-2.41l1.24,1.24,1.24-1.24-1.24-1.24-1.24,1.24Z"></path></g><g><path fill="#E9E3DC" transform="translate(-89.56 171.25) rotate(-45.03)" d="M160.48 192.36h2.58v2.58H160.48Z"></path><path fill="#231F20" d="m161.77,196.06l-2.41-2.41,2.41-2.42,2.41,2.41-2.41,2.42Zm-1.24-2.41l1.24,1.24,1.24-1.24-1.24-1.24-1.24,1.24Z"></path></g><g><path fill="#E9E3DC" transform="translate(-88.49 173.83) rotate(-45.03)" d="M164.13 192.36h2.58v2.58H164.13Z"></path><path fill="#231F20" d="m165.42,196.06l-2.41-2.41,2.41-2.42,2.41,2.41-2.41,2.42Zm-1.24-2.41l1.24,1.24,1.24-1.24-1.24-1.24-1.24,1.24Z"></path></g><g><path fill="#E9E3DC" transform="translate(-87.41 176.47) rotate(-45.04)" d="M167.82 192.36h2.58v2.58H167.82Z"></path><path fill="#231F20" d="m169.11,196.06l-2.41-2.41,2.41-2.42,2.41,2.41-2.41,2.42Zm-1.24-2.41l1.24,1.24,1.24-1.24-1.24-1.24-1.24,1.24Z"></path></g><g><path fill="#E9E3DC" transform="translate(-86.37 178.92) rotate(-45.03)" d="M171.36 192.36h2.58v2.58H171.36Z"></path><path fill="#231F20" d="m172.65,196.06l-2.41-2.41,2.41-2.42,2.41,2.41-2.41,2.42Zm-1.24-2.41l1.24,1.24,1.24-1.24-1.24-1.24-1.24,1.24Z"></path></g><g><path fill="#E9E3DC" transform="translate(-85.28 181.48) rotate(-45.01)" d="M175.06 192.36h2.58v2.58H175.06Z"></path><path fill="#231F20" d="m176.35,196.06l-2.41-2.41,2.41-2.42,2.42,2.41-2.42,2.42Zm-1.24-2.41l1.24,1.24,1.24-1.24-1.24-1.24-1.24,1.24Z"></path></g><path fill="#231F20" d="M179.64 182.79h0.83v15.07H179.64Z"></path><path fill="#231F20" d="M183.12 182.79h0.83v15.07H183.12Z"></path><path fill="#231F20" d="M186.82 182.79h0.83v15.07H186.82Z"></path><g><path fill="#E9E3DC" transform="translate(-79.69 182.3) rotate(-45.04)" d="M178.71 185.97h2.58v2.58H178.71Z"></path><path fill="#231F20" d="m180,189.67l-2.41-2.41,2.41-2.42,2.41,2.41-2.41,2.42Zm-1.24-2.41l1.24,1.24,1.24-1.24-1.24-1.24-1.24,1.24Z"></path></g><g><path fill="#E9E3DC" transform="translate(-78.65 184.74) rotate(-45.02)" d="M182.25 185.97h2.58v2.58H182.25Z"></path><path fill="#231F20" d="m183.54,189.67l-2.41-2.41,2.41-2.42,2.41,2.41-2.41,2.42Zm-1.24-2.41l1.24,1.24,1.24-1.24-1.24-1.24-1.24,1.24Z"></path></g><g><path fill="#E9E3DC" transform="translate(-77.57 187.3) rotate(-45.01)" d="M185.95 185.97h2.58v2.58H185.95Z"></path><path fill="#231F20" d="m187.24,189.67l-2.41-2.41,2.41-2.42,2.42,2.41-2.42,2.42Zm-1.24-2.41l1.24,1.24,1.24-1.24-1.24-1.24-1.24,1.24Z"></path></g><g><path fill="#E9E3DC" transform="translate(-84.22 184.18) rotate(-45.04)" d="M178.71 192.36h2.58v2.58H178.71Z"></path><path fill="#231F20" d="m180,196.06l-2.41-2.41,2.41-2.42,2.41,2.41-2.41,2.42Zm-1.24-2.41l1.24,1.24,1.24-1.24-1.24-1.24-1.24,1.24Z"></path></g><g><path fill="#E9E3DC" transform="translate(-83.18 186.62) rotate(-45.02)" d="M182.25 192.36h2.58v2.58H182.25Z"></path><path fill="#231F20" d="m183.54,196.06l-2.41-2.41,2.41-2.42,2.41,2.41-2.41,2.42Zm-1.24-2.41l1.24,1.24,1.24-1.24-1.24-1.24-1.24,1.24Z"></path></g><g><path fill="#E9E3DC" transform="translate(-82.09 189.18) rotate(-45.01)" d="M185.95 192.36h2.58v2.58H185.95Z"></path><path fill="#231F20" d="m187.24,196.06l-2.41-2.41,2.41-2.42,2.42,2.41-2.42,2.42Zm-1.24-2.41l1.24,1.24,1.24-1.24-1.24-1.24-1.24,1.24Z"></path></g><path fill="#231F20" d="M131.67 182.37h78.1v0.83H131.67Z"></path><path fill="#231F20" d="M131.67 197.44h78.1v0.83H131.67Z"></path></g><g><path fill="#E9E3DC" d="M167.48 221.3L165.84 221.3L165.63 221.3L163.99 221.3L163.99 241.04L165.73 242.61L167.48 241.04L167.48 221.3z"></path><path fill="#231F20" d="m165.73,243.17l-2.16-1.94v-20.35h4.32v20.35l-2.16,1.94Zm-1.32-2.31l1.32,1.19,1.32-1.19v-19.14h-2.65v19.14Z"></path></g><g><path fill="#E9E3DC" d="M170.96 221.3L169.33 221.3L169.11 221.3L167.48 221.3L167.48 241.04L169.22 242.61L170.96 241.04L170.96 221.3z"></path><path fill="#231F20" d="m169.22,243.17l-2.16-1.94v-20.35h4.32v20.35l-2.16,1.94Zm-1.32-2.31l1.32,1.19,1.32-1.19v-19.14h-2.65v19.14Z"></path></g><g><path fill="#E9E3DC" d="M174.44 221.3L172.81 221.3L172.59 221.3L170.96 221.3L170.96 241.04L172.7 242.61L174.44 241.04L174.44 221.3z"></path><path fill="#231F20" d="m172.7,243.17l-2.16-1.94v-20.35h4.32v20.35l-2.16,1.94Zm-1.32-2.31l1.32,1.19,1.32-1.19v-19.14h-2.65v19.14Z"></path></g><g><path fill="#E9E3DC" d="M177.93 221.3L176.29 221.3L176.08 221.3L174.44 221.3L174.44 241.04L176.18 242.61L177.93 241.04L177.93 221.3z"></path><path fill="#231F20" d="m176.18,243.17l-2.16-1.94v-20.35h4.32v20.35l-2.16,1.94Zm-1.32-2.31l1.32,1.19,1.32-1.19v-19.14h-2.65v19.14Z"></path></g><g><path fill="#231F20" d="M170.96 216.16L170.94 216.16L163.98 216.16L163.98 224.36L166.32 222.68L167.46 224.36L170.95 221.31L174.44 224.36L175.58 222.68L177.93 224.36L177.93 216.16L170.96 216.16z"></path><path fill="#231F20" d="m163.58,225.13v-9.37h14.74v9.37l-2.64-1.88-1.17,1.71-3.56-3.12-3.56,3.12-1.16-1.71-2.64,1.88Zm7.37-4.35l3.41,2.98,1.12-1.64,2.05,1.46v-7.03h-13.15v7.03l2.05-1.46,1.12,1.64,3.41-2.98Z"></path></g><g><path d="M26.77 206.61L26.77 208.44L140.99 208.44L141.93 207.69L141.44 206.61L26.77 206.61z"></path><path fill="#231F20" d="m141.12,208.81H26.4v-2.57h115.27l.71,1.56-1.26,1.01Zm-113.98-.74h113.72l.61-.49-.27-.6H27.14v1.09Z"></path></g><g><path d="M315.26 206.61L315.26 208.44L201.04 208.44L200.1 207.69L200.59 206.61L315.26 206.61z"></path><path fill="#231F20" d="m315.62,208.81h-114.72l-1.26-1.01.71-1.56h115.27v2.57Zm-114.46-.74h113.72v-1.09h-114.06l-.27.6.61.49Z"></path></g><path fill="#231F20" d="m178.3,216.56h-14.72l-1.64-5.12h18.01l-1.64,5.12Zm-14.14-.8h13.55l1.13-3.52h-15.81l1.13,3.52Z"></path><g><g><path fill="#E9E3DC" d="m138.5,218.19v.04c.08-.12.17-.23.25-.34l-.25.3Z"></path><path fill="#231F20" d="M138.08 219.5L138.08 218.03L138.43 217.62L139.08 218.13L138.08 219.5z"></path></g><g><path fill="#E9E3DC" d="m141.34,224.42h-2.84v2.18l-2.49,1.91h6.14l9.16-5.98c-1.14-2.02-1.74-3.64-1.74-3.64l-8.23,5.53Z"></path><path fill="#231F20" d="m142.27,228.93h-7.49l3.3-2.54v-2.39h3.13l8.56-5.76.18.5s.6,1.61,1.71,3.58l.19.34-9.59,6.26Zm-5.04-.83h4.79l8.73-5.7c-.68-1.24-1.14-2.29-1.38-2.87l-7.91,5.31h-2.55v1.96l-1.68,1.29Z"></path></g></g><g><path fill="#E9E3DC" d="m200.62,224.42h2.84v2.18l2.49,1.91h-6.14l-9.16-5.98c1.14-2.02,1.74-3.64,1.74-3.64l8.23,5.53Z"></path><path fill="#231F20" d="m207.18,228.93h-7.49l-9.59-6.26.19-.34c1.11-1.97,1.71-3.56,1.71-3.58l.18-.5,8.57,5.76h3.13v2.39l3.3,2.54Zm-7.25-.83h4.79l-1.68-1.29v-1.96h-2.55l-7.91-5.31c-.24.58-.7,1.63-1.38,2.87l8.73,5.7Z"></path></g><path fill="#E9E3DC" d="M221.33 208.32h81v16.69H221.33Z"></path><path fill="#E9E3DC" d="M28.42 208.32h81v16.69H28.42Z"></path><path fill="#E9E3DC" d="M117.01 208.59h23.51v5.99H117.01Z"></path><path fill="#E9E3DC" d="M201.56 214.62L225.08 214.62L225.08 208.64L201.36 208.65L201.56 214.62z"></path><path fill="#000" d="M92.3 178.75L92.3 234.17L42.66 234.37L42.66 178.75L3.49 178.75L3.49 336.41L42.66 336.41L42.66 275.83L92.3 275.63L92.3 336.41L133.55 336.41L133.55 178.75L92.3 178.75z"></path><path fill="#000" d="M299.31 178.75L276.75 288.61L253.28 178.75L205.39 178.75L205.39 336.41L236.7 336.41L236.7 225.88L260.62 336.4L296.55 336.41L315.88 225.88L315.88 336.41L348.8 336.41L348.8 178.75L299.31 178.75z"></path><path fill="#000" d="m170.39,211.02c-11.53,0-17.49-4.17-17.49-4.17v129.56h35v-129.76s-5.98,4.37-17.5,4.37Z"></path><g><g><path fill="#FFFFFF" d="M188.34 156.82L180.77 157.88L181.01 168.4L172.2 169.64L172.4 178.67L181.21 177.43L181.45 187.95L189.03 186.88L188.79 176.37L197.59 175.13L197.39 166.1L188.58 167.34L188.34 156.82"></path></g></g><g><path fill="#ED1C24" transform="translate(-17.23 325.51) rotate(-84.39)" d="M139.14 172.26a31.78 31.78 0 1 0 63.56 0a31.78 31.78 0 1 0 -63.56 0"></path><path fill="#ED1C24" d="m170.92,204.46c-17.75,0-32.2-14.44-32.2-32.2s14.44-32.2,32.2-32.2,32.2,14.44,32.2,32.2-14.44,32.2-32.2,32.2Zm0-63.56c-17.29,0-31.36,14.07-31.36,31.36s14.07,31.36,31.36,31.36,31.36-14.07,31.36-31.36-14.07-31.36-31.36-31.36Z"></path></g><path fill="#FFFFFF" d="m183.16,154.29s6.37.87,8.28,1.43c0,0,1.32,7.81,1.25,11.47,0,0,4.95.33,6.78.8v9.03s-1.53.35-6.71.68c0,0-.96,11.13-1.34,11.65,0,0-7.01,1.52-8.4,1.35,0,0,.68-11.87.61-12.32l-10.7.06v-11.57l10.9.1-.68-12.68Z"></path></g></g></svg>