<?xml version="1.0" encoding="UTF-8" standalone="no"?>
<svg
   version="1.0"
   width="316"
   height="316"
   viewBox="0 0 237 237"
   preserveAspectRatio="xMidYMid meet"
   id="svg35"
   sodipodi:docname="2.svg"
   inkscape:version="1.1 (c68e22c387, 2021-05-23)"
   xmlns:inkscape="http://www.inkscape.org/namespaces/inkscape"
   xmlns:sodipodi="http://sodipodi.sourceforge.net/DTD/sodipodi-0.dtd"
   xmlns="http://www.w3.org/2000/svg"
   xmlns:svg="http://www.w3.org/2000/svg">
  <defs
     id="defs39" />
  <sodipodi:namedview
     id="namedview37"
     pagecolor="#ffffff"
     bordercolor="#666666"
     borderopacity="1.0"
     inkscape:pageshadow="2"
     inkscape:pageopacity="0.0"
     inkscape:pagecheckerboard="0"
     inkscape:document-units="px"
     showgrid="false"
     units="px"
     inkscape:showpageshadow="false"
     inkscape:zoom="0.94316065"
     inkscape:cx="263.47579"
     inkscape:cy="206.2215"
     inkscape:window-width="1366"
     inkscape:window-height="705"
     inkscape:window-x="-8"
     inkscape:window-y="-8"
     inkscape:window-maximized="1"
     inkscape:current-layer="g33" />
  <metadata
     id="metadata9">
Created by potrace 1.10, written by Peter Selinger 2001-2011
</metadata>
  <g
     transform="matrix(0.03243067,0,0,-0.03823833,-27.460008,286.92514)"
     fill="#000000"
     stroke="none"
     id="g33"
     style="fill:#2c5aa0;stroke-width:2.83971">
    <path
       d="m 4369.8109,7065.7133 c -5.2362,-1.9522 -38.7479,-11.7132 -73.3069,-21.4741 -212.5902,-57.5896 -370.7236,-204.98 -440.8889,-408.9841 -27.2282,-80.0397 -28.2755,-280.1393 -1.0472,-351.3943 50.2676,-133.7252 147.6611,-259.6413 252.3854,-326.016 59.6927,-37.0916 179.0782,-88.8247 206.3066,-88.8247 11.5196,0 30.37,-4.8805 41.8897,-10.7369 55.5038,-27.3307 300.5584,-4.8805 383.2905,36.1155 16.7558,6.8325 33.5118,13.6653 37.7007,13.6653 16.756,0 128.8108,76.1354 173.8423,118.1076 126.7162,118.1076 189.5508,262.5696 189.5508,433.3863 0,278.1872 -170.7006,491.9522 -471.2591,590.5377 -33.5116,10.7371 -275.4245,23.4265 -298.4639,15.6177 z m 203.165,-127.8685 c 29.3228,-55.6375 24.0865,-75.1595 -21.992,-71.2549 -33.5119,2.9282 -34.5591,4.8803 -37.7008,49.7808 -3.1417,43.9244 11.5196,80.0398 28.2755,71.2549 4.1888,-2.9283 17.8031,-24.4023 31.4173,-49.7808 z m -208.4012,34.1633 c 0,-5.8565 -9.4251,-28.3067 -21.9921,-49.7809 -14.6613,-27.3306 -26.181,-38.0678 -36.6535,-34.1633 -9.4251,2.9282 -20.9448,5.8565 -27.2283,5.8565 -14.6613,0 -7.3306,12.6894 28.2756,52.7093 30.37,33.1872 57.5983,44.9004 57.5983,25.3784 z m 94.2518,-48.8047 v -58.5658 h -35.6062 c -19.8976,0 -38.748,3.9044 -41.8897,8.7848 -9.4251,12.6892 46.0787,108.3467 62.8345,108.3467 10.4725,0 14.6614,-14.6415 14.6614,-58.5657 z m 214.6847,22.4501 c 36.6534,-38.0677 43.9841,-51.7331 27.2282,-51.7331 -5.2362,0 -16.7559,-2.9283 -25.1338,-5.8565 -9.4252,-2.9283 -23.0393,7.8088 -37.7007,30.259 -42.9369,68.3267 -20.9449,84.9203 35.6063,27.3306 z m -433.5583,4.8806 c -9.4252,-24.4025 -63.8817,-38.0678 -63.8817,-16.5938 0,15.6176 31.4172,37.0917 54.4565,38.0678 14.6614,0 16.7559,-4.8805 9.4252,-21.474 z m 549.8021,-1.9522 c 18.8503,-13.6653 18.8503,-14.6416 2.0945,-20.4982 -25.1339,-8.7848 -50.2676,0.9763 -50.2676,19.5219 0,18.546 20.9448,18.546 48.1731,0.9763 z m -640.9121,-50.757 c 20.9448,-7.8089 20.9448,-35.1396 1.0472,-71.2551 -18.8504,-36.1154 -41.8897,-43.9241 -72.2597,-24.4023 -38.748,23.4263 -39.7952,47.8287 -3.1417,76.1355 33.5117,26.3545 46.0786,29.2828 74.3542,19.5219 z m 743.5419,-14.6415 c 31.417,-23.4263 33.5116,-35.1395 9.4251,-59.5419 -28.2755,-29.2827 -59.6928,-22.4502 -80.6376,18.5458 -17.8032,34.1635 -17.8032,37.0917 0,48.8048 25.1337,17.5698 38.7478,15.6177 71.2125,-7.8087 z m -615.7784,-42.9481 c 21.992,-13.6655 21.992,-14.6415 3.1417,-65.3985 -13.6142,-38.0676 -24.0865,-52.7092 -40.8425,-54.6613 -25.1337,-3.9044 -62.8344,22.4502 -62.8344,43.9241 0,25.3787 52.3621,90.777 73.3069,90.777 3.1418,0 15.7086,-6.8327 27.2283,-14.6413 z m 477.5424,2.9281 c 21.992,-17.5696 50.2674,-58.5656 50.2674,-74.1832 0,-14.6413 -69.1178,-44.9004 -83.7792,-36.1155 -6.2834,3.9045 -10.4724,11.7131 -10.4724,17.5698 0,6.8326 -7.3307,24.4023 -16.7558,40.9959 -14.6615,27.3308 -14.6615,30.259 6.2833,45.8765 27.2283,20.4979 32.4646,21.4742 54.4567,5.8565 z m -302.6529,-34.1632 c 4.1889,-1.9522 7.3306,-32.2112 7.3306,-67.3507 0,-45.8764 -4.1889,-64.4223 -14.6614,-68.3267 -17.8032,-5.8565 -128.8107,13.6654 -136.1414,23.4264 -7.3308,11.7132 32.4644,111.2748 47.1259,120.0597 13.6141,7.8089 76.4487,2.9283 96.3463,-7.8087 z m 179.0784,3.9044 c 13.614,-9.761 18.8503,-27.3308 19.8975,-65.3983 l 2.0945,-51.7332 -57.5983,-12.6892 c -72.2597,-15.6176 -83.7793,-7.8089 -83.7793,58.5656 0,70.2789 1.0472,71.2551 90.0627,82.9683 5.2362,0 18.8503,-4.8806 29.3229,-11.7132 z m -565.5108,-58.5657 30.37,-22.4503 -21.992,-63.4461 c -11.5198,-34.1633 -24.0866,-87.8486 -28.2755,-119.0837 -7.3308,-64.4223 -20.945,-75.1594 -91.1101,-75.1594 -69.118,0 -75.4015,7.8089 -67.0235,77.1115 9.4251,76.1355 53.4092,179.6017 98.4408,227.4304 16.7558,18.5457 28.2755,15.6175 79.5903,-24.4024 z m 948.8012,-10.7372 c 57.5985,-94.6812 92.1573,-222.5497 69.1179,-257.6892 -8.3778,-12.6892 -67.0233,-15.6174 -118.3383,-5.8565 -30.37,5.8565 -31.4171,7.8087 -37.7007,75.1594 -5.2361,63.4461 -12.5669,92.729 -39.7952,160.0796 -6.2833,16.5936 -2.0944,29.2828 17.8032,51.733 41.8896,45.8766 70.1652,39.0437 108.9131,-23.4263 z m -164.417,-68.3267 c 10.4724,-19.5219 20.945,-71.2549 25.1338,-113.227 l 6.2836,-77.1115 -29.3228,-6.8327 c -15.7087,-3.9044 -46.0787,-2.9283 -67.0237,1.9522 l -37.7006,8.7848 -6.2834,82.968 c -7.3306,93.7053 -4.189,101.514 38.7479,126.8925 39.7952,23.4263 47.1259,20.4982 70.1652,-23.4263 z m -647.1955,7.8089 c 18.8503,-7.8089 36.6534,-20.4979 38.7479,-26.3547 2.0945,-6.8327 1.0473,-46.8526 -2.0945,-88.8247 -5.2361,-74.1833 -6.2833,-78.0877 -34.5589,-86.8725 -45.0315,-13.6653 -122.5274,0 -122.5274,21.4742 0,31.235 39.7952,166.9124 52.3622,181.5537 16.7558,18.5459 25.1337,18.5459 68.0707,-0.976 z m 480.6841,-48.8047 c 3.1417,-8.785 9.4252,-45.8766 12.5669,-82.9683 6.2835,-61.4941 5.2362,-67.3506 -12.5669,-68.3267 -10.4724,0 -48.1731,-1.9522 -82.7322,-3.9044 -34.5591,-1.9521 -69.1178,0.9762 -75.4014,6.8327 -13.614,10.7371 -18.8504,101.5139 -7.3307,128.8447 4.189,9.7609 19.8976,15.6175 39.7952,16.5935 17.8032,0.9763 43.9842,4.8805 58.6456,8.785 41.8897,12.6892 59.6928,10.7369 67.0235,-5.8565 z m -236.6768,-8.785 c 8.3781,-2.9283 12.567,-26.3546 12.567,-72.2311 0,-61.494 -2.0945,-67.3506 -23.0394,-72.2311 -29.3228,-5.8565 -141.3776,0 -154.9918,7.8088 -11.5196,6.8327 -4.1889,90.7769 11.5198,129.8207 8.3778,21.4742 13.614,22.4503 74.3541,16.5936 36.6535,-3.9044 72.2597,-7.8087 79.5903,-9.7609 z m -427.2747,-200.0995 c 13.6143,-6.8327 21.9921,-25.3785 26.1812,-56.6136 8.3779,-58.5657 35.6061,-147.3904 53.4092,-174.721 8.3781,-11.7133 11.5197,-27.3309 8.3781,-35.1394 -8.3781,-20.4982 -65.9764,-57.5898 -84.8268,-53.6854 -19.8975,3.9044 -85.8738,100.5378 -111.0076,163.9841 -26.181,66.3745 -34.559,146.4141 -16.7558,157.1513 19.8976,11.7132 100.5352,10.737 124.6217,-0.976 z m 191.6453,0.976 c 21.9922,-7.8087 26.1811,-17.5697 32.4645,-76.1354 3.1417,-36.1155 9.4253,-78.0876 12.567,-91.7529 5.2361,-21.4742 0,-28.3068 -32.4646,-45.8766 -40.8424,-23.4264 -78.5431,-28.3067 -78.5431,-10.737 0,5.8565 -6.2835,24.4023 -14.6614,40.996 -12.5669,26.3546 -48.1732,150.3187 -48.1732,167.8884 0,19.5219 86.9212,30.259 128.8108,15.6175 z m 225.157,2.9283 c 20.9449,-5.8566 23.0394,-11.7132 23.0394,-78.0877 0,-70.2789 -1.0473,-73.207 -28.2755,-82.968 -16.7559,-5.8566 -50.2677,-11.7132 -75.4014,-11.7132 -52.3622,-1.9523 -55.5039,2.9282 -69.1181,108.3466 -6.2834,51.7331 -5.2362,59.5418 12.5669,63.4463 28.2756,6.8326 109.9605,7.8086 137.1887,0.976 z m 246.102,-5.8566 c 14.6613,-10.737 15.7086,-21.4741 7.3307,-81.0159 -13.6142,-89.8008 -15.7086,-92.7291 -49.2205,-92.7291 -40.8424,0 -111.0076,19.522 -120.4328,33.1872 -12.5669,17.5699 -9.4251,127.8686 4.189,140.5578 16.7558,15.6176 136.1414,14.6415 158.1336,0 z m 184.3145,-1.9522 c 20.9448,-23.4262 -18.8504,-171.7928 -55.5037,-211.8128 -15.7088,-17.5696 -17.8031,-17.5696 -54.4567,2.9284 -29.3228,15.6175 -35.6062,24.4024 -31.4174,40.996 3.1418,11.7131 9.4254,52.7092 13.6143,91.7529 5.2362,60.518 9.4251,73.2073 28.2755,80.04 34.5591,13.6653 85.874,10.7369 99.488,-3.9045 z m 218.8736,-33.1871 c 4.1889,-51.7331 -27.2283,-144.4623 -74.3541,-215.7172 -43.9843,-69.3029 -60.74,-78.0876 -92.1574,-51.7331 -12.5669,11.7131 -27.2282,21.4742 -32.4645,21.4742 -4.1889,0 -12.5668,8.7848 -18.8504,19.5219 -8.3779,15.6174 -8.3779,27.3305 3.1419,48.8047 8.3778,14.6414 26.181,68.3268 39.7952,119.0836 12.5668,49.7808 29.3226,93.7052 34.5589,98.5858 6.2835,3.9043 39.7951,5.8566 74.3541,4.8803 l 62.8346,-2.9282 z m -626.2507,-304.5419 c 0,-75.1593 -4.1889,-136.6534 -9.4252,-136.6534 -5.2362,0 -15.7086,9.761 -24.0866,22.4502 -28.2755,39.0439 -92.1572,185.4582 -92.1572,208.8844 0,27.3307 28.2755,40.02 86.921,40.996 l 38.748,0.9762 z m 151.8502,126.8924 c 14.6611,-4.8805 29.3226,-16.5935 33.5116,-25.3784 7.3308,-18.546 -17.8031,-87.8487 -67.0235,-186.4343 -55.5038,-110.2988 -65.9761,-96.6334 -65.9761,83.9442 0,68.3267 3.1417,127.8685 7.3306,130.7968 10.4724,9.7608 60.74,7.8088 92.1574,-2.9283 z m -326.7396,-60.518 c 8.378,-12.6891 26.181,-50.7569 39.7952,-85.8963 12.5668,-35.1394 32.4644,-76.1354 42.9369,-92.7292 39.7951,-62.47 3.1417,-66.3744 -50.2676,-4.8803 -16.7559,18.5457 -32.4645,36.1155 -35.6063,39.0436 -27.2282,22.4503 -83.7793,104.4423 -83.7793,122.9883 0,41.9721 62.8345,57.5896 86.9211,21.4739 z m 469.1645,11.7133 c 10.4723,-5.8566 19.8976,-16.5938 19.8976,-24.4024 0,-31.2351 -130.9053,-209.8607 -153.9447,-209.8607 -16.7558,0 -12.5669,21.4741 12.567,73.2073 34.5589,72.231 47.1258,101.5141 47.1258,114.2031 0,17.5697 29.3227,56.6135 42.937,56.6135 6.2833,0 19.8976,-4.8805 31.4173,-9.7608 z m 124.6217,-70.2789 c 17.8031,-11.7131 31.4172,-26.3547 31.4172,-32.2112 0,-12.6893 -31.4172,-39.0438 -99.4879,-80.0399 -91.1101,-55.6373 -102.6298,-38.0676 -36.6534,57.5896 36.6534,51.7331 58.6455,75.1595 71.2122,76.1355 2.0946,0 16.7561,-9.761 33.5119,-21.474 z m -715.2663,-12.6893 c 10.4725,-13.6654 34.559,-44.9004 53.4094,-68.3267 59.6928,-76.1355 34.5589,-84.9203 -68.0708,-22.4501 -76.4487,47.8286 -90.0628,71.2549 -54.4565,96.6333 33.5117,24.4025 47.1258,23.4265 69.1179,-5.8565 z"
       id="path11"
       style="fill:#2c5aa0;stroke-width:2.83971" />
    <path
       d="m 5236.9273,6033.0042 c -5.2361,-6.8326 -19.8976,-39.0438 -33.5118,-71.2549 -12.5668,-32.2113 -28.2754,-67.3506 -32.4644,-78.0877 -5.2363,-10.7371 -33.5118,-74.1833 -62.8346,-141.5339 -30.37,-67.3506 -61.7873,-137.6294 -71.2124,-156.1752 -8.378,-18.5458 -21.9921,-46.8526 -29.3228,-63.4462 -6.2834,-15.6176 -17.8031,-40.0199 -23.0394,-53.6853 -31.4171,-70.2788 -52.3619,-116.1553 -69.1179,-156.1752 -10.4724,-24.4025 -23.0392,-52.7092 -28.2756,-63.4463 -10.4723,-24.4025 -48.1731,-114.2031 -69.1179,-165.9362 -16.7558,-40.996 -20.9448,-49.7809 -53.4095,-122.012 -10.4722,-24.4023 -28.2754,-63.4462 -37.7006,-87.8485 -10.4724,-24.4024 -25.1337,-56.6136 -32.4644,-73.2073 -42.9369,-93.7052 -72.2597,-161.0556 -93.2046,-209.8605 -10.4723,-24.4023 -25.1338,-56.6135 -32.4645,-73.2071 -7.3307,-15.6175 -18.8503,-40.0199 -24.0866,-53.6852 -6.2834,-13.6654 -20.9448,-44.9005 -32.4644,-70.2789 -12.567,-25.3785 -21.9921,-49.7809 -21.9921,-54.6615 0,-10.7369 -35.6062,-40.9959 -48.1732,-40.9959 -6.2835,0 -15.7087,16.5937 -21.9921,37.0916 -16.7558,53.6852 -64.9289,180.5777 -75.4014,197.1714 -5.2362,8.7848 -12.5668,29.2828 -15.7086,46.8524 -4.189,16.5937 -12.5669,33.1874 -17.8031,36.1156 -5.2363,3.9044 -9.4252,12.6893 -9.4252,21.4741 0,7.8087 -6.2834,28.3067 -14.6614,44.9004 -7.3307,17.5698 -29.3228,71.255 -47.1259,119.0836 -18.8504,48.8049 -40.8425,102.4901 -49.2204,120.0598 -8.3779,17.5698 -14.6613,36.1156 -14.6613,40.996 0,4.8805 -5.2363,20.4981 -12.567,36.1156 -18.8503,43.9244 -71.2123,180.5776 -82.7321,217.6692 -6.2834,18.546 -15.7086,38.0677 -20.9449,42.9483 -5.2361,5.8566 -9.4251,16.5936 -9.4251,24.4023 0,8.7849 -7.3307,28.3068 -15.7086,43.9243 -8.3779,14.6415 -15.7087,32.2112 -15.7087,37.0917 0,5.8566 -6.2833,23.4262 -14.6614,40.02 -20.9448,45.8764 -77.4958,193.2669 -85.8738,224.5019 -3.1417,14.6414 -10.4723,29.2827 -15.7086,32.2112 -5.2361,2.9281 -9.4251,13.6653 -9.4251,25.3784 0,10.7371 -6.2835,33.1873 -14.6615,49.7808 -7.3307,17.5698 -31.4172,83.9443 -53.4093,148.3666 -21.9921,64.4223 -42.937,121.0358 -47.1258,124.9403 -5.2363,5.8565 -482.7787,10.7369 -667.0932,7.8087 -20.9448,-0.9761 -24.0866,-5.8566 -24.0866,-39.0439 v -37.0916 l 83.7794,-4.8804 c 78.5432,-3.9044 86.921,-6.8327 121.4799,-38.0679 l 36.6536,-33.1872 -4.1889,-92.729 c -4.189,-87.8485 -15.7087,-200.0996 -39.7952,-361.1553 -6.2836,-40.0199 -14.6614,-117.1315 -19.8976,-170.8166 -11.5198,-122.9882 -38.748,-317.2311 -46.0788,-336.7531 -3.1417,-7.8087 -10.4724,-56.6135 -16.7558,-107.3704 -5.2362,-50.757 -16.7558,-136.6536 -26.1811,-190.3387 -8.3779,-53.6853 -20.9448,-134.7011 -26.1809,-180.5777 -6.2836,-45.8765 -17.8033,-130.7968 -26.1812,-190.3387 -47.1259,-328.9442 -56.551,-357.2509 -149.7557,-443.1473 -67.0233,-61.494 -127.7634,-85.8963 -237.7238,-95.6573 -79.5904,-6.8326 -102.6297,-24.4025 -97.3935,-73.2072 l 3.1418,-32.2111 471.2587,-2.9284 c 259.7161,-0.9761 481.7315,0 495.3457,2.9284 19.8976,4.8804 23.0392,11.7131 23.0392,58.5658 v 53.685 l -70.1653,0.9763 c -117.2909,0 -198.9759,42.9481 -246.1018,128.8445 -24.0866,44.9004 -23.0394,104.4422 6.2835,309.4224 8.378,61.4939 20.9448,152.2708 27.2283,200.0995 6.2834,48.8048 15.7087,114.2032 21.992,146.4143 5.2363,32.2112 14.6615,104.4422 19.8976,161.0558 6.2835,56.6135 16.7559,148.3666 25.1339,204.9801 8.378,56.6135 19.8976,139.5817 26.181,185.4581 6.2835,45.8765 16.7559,108.3466 23.0394,139.5816 5.2361,31.235 13.6141,94.6813 16.7557,140.5578 4.1891,56.6135 10.4725,83.9443 20.9449,87.8486 17.8031,6.8327 45.0315,-13.6654 45.0315,-33.1873 0,-14.6413 20.9449,-63.4462 48.1731,-113.2271 8.378,-15.6175 14.6613,-32.211 14.6613,-38.0676 0,-10.7371 24.0867,-64.4224 48.1733,-108.3467 8.3779,-15.6175 14.6613,-32.2111 14.6613,-38.0677 0,-4.8804 6.2834,-23.4263 14.6615,-40.0199 8.3778,-17.5698 25.1337,-57.5896 38.7479,-89.8008 13.614,-32.2112 28.2755,-62.4701 32.4644,-67.3506 4.1891,-5.8565 8.378,-16.5936 8.378,-24.4024 0,-8.7848 6.2835,-26.3546 13.614,-40.0199 7.3309,-13.6652 21.9922,-45.8764 32.4647,-73.2072 10.4724,-26.3546 25.1337,-61.494 32.4645,-78.0877 7.3307,-15.6174 19.8976,-46.8525 29.3227,-68.3266 28.2755,-68.3265 60.74,-145.4382 69.118,-165.9363 18.8503,-40.0198 73.3069,-186.4341 80.6377,-212.7889 3.1416,-14.6412 10.4723,-29.2826 15.7085,-32.211 5.2363,-2.9283 9.4252,-12.6892 9.4252,-21.474 0,-8.785 7.3307,-29.283 15.7087,-44.9006 8.3779,-14.6414 15.7085,-32.2111 15.7085,-37.0915 0,-5.8566 6.2835,-23.4263 14.6615,-40.0199 7.3306,-17.5697 24.0865,-55.6375 36.6535,-84.9204 33.5117,-77.1115 42.9369,-98.5857 59.6928,-129.8207 8.3778,-15.6174 14.6613,-32.2111 14.6613,-37.0915 0,-4.8806 13.6141,-36.1156 30.37,-69.3028 16.7559,-34.1634 33.5118,-70.279 36.6535,-81.992 4.1889,-10.737 18.8504,-26.3546 33.5118,-34.1634 26.181,-12.6892 29.3227,-11.7132 52.362,15.6175 13.6142,16.5936 25.1338,33.1873 25.1338,37.0915 0,6.8328 19.8976,50.757 58.6456,130.7969 8.378,17.5699 21.992,45.8766 30.3701,63.4463 8.3779,17.5696 26.1809,56.6135 39.7952,85.8963 14.6613,29.283 57.5983,123.9641 96.3463,209.8605 38.7479,85.8964 76.4485,169.8406 83.7793,185.4582 8.3779,16.5937 21.992,46.8526 31.4172,68.3267 9.4252,21.4742 20.9448,47.8287 26.1811,58.5657 5.2362,10.7372 26.181,59.5419 48.1731,107.3706 20.9449,48.8047 52.3622,115.1792 68.0707,149.3425 16.7559,33.1872 30.37,62.4702 30.37,64.4224 0,2.9282 14.6615,34.1632 32.4646,71.2548 16.7558,36.1157 35.6061,75.1595 40.8425,85.8966 5.2361,10.7371 23.0392,47.8287 39.7952,82.9681 16.7557,35.1393 41.8895,87.8486 54.4564,117.1314 12.5669,29.283 29.3229,67.3505 36.6534,82.9682 7.3308,16.5936 21.9922,48.8047 31.4174,73.2071 20.9449,50.7571 27.2283,64.4224 57.5984,131.7729 48.1731,104.4422 57.5982,121.0359 69.1179,122.0119 17.8031,0 59.6928,-741.8326 75.4014,-1343.1074 10.4724,-387.5099 11.5196,-375.7968 -48.1732,-429.482 -25.1338,-23.4262 -52.362,-42.9481 -58.6455,-42.9481 -6.2835,0 -24.0866,-6.8327 -39.7952,-13.6655 -15.7087,-7.8087 -55.5038,-17.5697 -89.0155,-20.4979 -33.5118,-3.9045 -69.1179,-13.6653 -78.5432,-22.4501 -21.992,-17.5698 -24.0866,-53.6854 -4.189,-69.3029 9.4252,-7.8088 172.795,-9.761 588.55,-8.7848 l 574.9359,2.9281 v 43.9244 43.9243 l -52.3622,7.8088 c -162.3224,25.3785 -255.527,69.3028 -296.3694,138.6055 -19.8976,32.2111 -36.6534,156.1752 -54.4565,385.5578 -6.2836,82.9681 -13.6142,158.1274 -16.756,165.9363 -3.1416,7.8087 -10.4725,67.3505 -14.6614,131.7728 -5.2362,64.4223 -14.6614,154.2231 -20.9448,200.0996 -5.2362,45.8764 -14.6615,133.7249 -20.9448,195.219 -6.2834,61.4942 -18.8504,178.6255 -27.2282,258.6654 -8.378,81.0158 -19.8976,199.1235 -25.134,263.5458 -5.2362,64.4223 -14.6612,165.9361 -21.9921,225.4781 -11.5195,103.4661 -10.4723,110.2987 11.5197,149.3425 34.5591,64.4225 92.1574,109.3227 168.6059,131.773 l 67.0237,20.498 v 39.0438 39.0438 l -315.22,2.9282 c -245.0546,1.9523 -317.3143,-0.976 -325.6922,-9.7609 z"
       id="path13"
       style="fill:#2c5aa0;stroke-width:2.83971" />
    <path
       d="m 6396.2242,6034.9565 -329.8812,-4.8805 v -34.1633 c 0,-31.2352 3.1416,-34.1634 31.4173,-37.0917 55.5037,-4.8806 123.5745,-34.1633 183.2673,-76.1354 120.4329,-85.8965 135.0942,-120.0598 188.5035,-433.3865 6.2835,-35.1394 13.6142,-70.2788 16.7559,-78.0877 3.1417,-7.8087 13.6141,-42.9481 21.9921,-78.0876 23.0393,-94.6813 45.0314,-183.5058 61.7872,-248.9043 8.3779,-32.2113 21.9922,-84.9203 29.3228,-117.1315 20.945,-81.0159 53.4094,-206.9324 94.2518,-356.2749 20.9448,-76.1355 47.126,-180.5776 63.8817,-248.9043 16.7559,-72.2311 43.9843,-176.6733 64.9292,-253.7849 8.3779,-32.2112 17.8031,-101.5138 20.9448,-153.2469 l 5.2361,-94.6814 -47.1258,-42.9481 c -40.8424,-38.0677 -56.5511,-45.8764 -123.5747,-59.5419 -42.9369,-7.8087 -91.11,-16.5936 -108.9131,-17.5697 -33.5118,-2.9282 -42.9369,-21.4741 -32.4645,-62.47 l 6.2835,-23.4264 h 585.4082 c 518.3849,0 587.5028,1.9522 602.1643,15.6175 20.9447,18.546 20.9447,23.4264 0,50.757 -12.5669,17.5697 -26.1812,21.474 -67.0236,21.474 -71.2125,0 -183.2673,25.3785 -229.346,52.7093 -50.2675,30.2589 -93.2045,77.1115 -118.3384,132.749 -24.0865,51.7331 -77.4959,199.1235 -97.3935,268.4263 -7.3306,27.3306 -21.9921,75.1593 -31.4172,107.3705 -8.378,32.2111 -23.0394,82.968 -30.3701,112.2509 -13.614,48.8048 -20.9448,76.1354 -62.8345,219.6215 -8.3778,27.3307 -21.992,73.2072 -31.4171,102.4901 -9.4253,29.2829 -24.0867,78.0877 -31.4173,107.3704 -8.3779,29.283 -21.9922,78.0877 -30.3701,107.3705 -35.6062,120.0598 -82.7321,291.8525 -96.3462,346.514 -15.7087,64.4222 -36.6535,139.5817 -60.74,214.741 -37.7008,119.0836 -52.3621,169.8406 -65.9764,232.3108 -7.3306,36.1154 -16.7557,70.2788 -19.8976,76.1354 -10.4723,14.6414 42.9371,108.3465 73.3071,128.8446 14.6613,9.7609 57.5982,22.4501 96.3462,29.2828 65.9762,10.7371 71.2124,13.6653 74.3543,38.0678 2.0944,16.5936 -4.1892,33.1871 -17.8032,45.8766 -19.8976,18.5456 -33.5117,20.4979 -139.2832,18.5456 -64.9291,-1.9522 -267.0468,-4.8803 -448.2196,-7.8086 z"
       id="path15"
       style="fill:#2c5aa0;stroke-width:2.83971" />
    <path
       d="m 1981.0519,5998.8409 c -3.1417,-9.7609 -10.4725,-25.3786 -15.7086,-35.1394 -14.6615,-25.3785 -5.2362,-33.1872 51.3149,-38.0678 63.8817,-5.8565 137.1886,-39.0438 164.4169,-74.1833 27.2283,-34.1633 28.2755,-148.3666 1.0474,-231.3346 -9.4253,-32.211 -31.4174,-100.5377 -48.1733,-151.2948 -36.6534,-115.1792 -55.5038,-179.6017 -77.4958,-273.3068 -10.4725,-40.0198 -25.1339,-97.6094 -33.5117,-126.8925 -40.8426,-140.5576 -48.1732,-163.984 -62.8346,-208.8843 -7.3307,-25.3784 -14.6614,-53.6852 -14.6614,-61.4941 0,-7.8086 -7.3307,-37.0914 -16.7559,-64.4221 -8.3779,-28.3069 -21.9921,-72.2312 -30.37,-99.5618 -26.1811,-88.8248 -47.126,-155.1992 -62.8345,-203.0279 -8.378,-25.3785 -15.7087,-53.6853 -15.7087,-61.494 0,-7.8088 -6.2833,-35.1395 -14.6613,-60.5179 -8.3779,-25.3786 -23.0394,-72.2311 -32.4646,-104.4422 -40.8425,-142.51 -73.3069,-237.1913 -95.2989,-285.0201 -8.378,-16.5935 -14.6615,-35.1393 -14.6615,-41.972 0,-26.3545 -72.2597,-111.2748 -120.4328,-140.5577 -45.0314,-28.3068 -70.1652,-35.1396 -180.1257,-49.7809 -137.1886,-18.5457 -153.9445,-28.3067 -128.8107,-73.2072 11.5197,-19.5219 15.7086,-19.5219 605.3059,-17.5696 l 593.7862,2.9281 3.1416,40.02 c 3.1419,38.0677 1.0474,40.996 -30.3698,46.8526 -17.8032,2.9283 -50.2677,5.8566 -71.2125,5.8566 -97.3936,0 -191.6452,60.5179 -206.3067,132.7491 -7.3307,39.0437 6.2834,155.1991 32.4645,259.6414 8.3779,37.0916 23.0394,93.7051 31.4172,126.8922 8.378,34.1635 21.9921,91.7531 31.4174,128.8447 8.3778,36.1156 17.803,69.3027 20.9448,73.2072 2.0944,4.8804 9.4251,31.235 14.6614,60.5178 5.2362,29.283 27.2282,114.2033 48.1731,189.3625 20.9448,75.1595 42.9369,152.271 47.1259,170.8169 5.2362,18.5457 16.7558,60.5179 25.1338,92.729 20.9448,81.0159 43.9842,175.6971 58.6456,239.1435 6.2834,29.2827 15.7086,67.3506 20.9448,82.968 5.2362,16.5937 12.5668,46.8527 15.7086,68.3267 4.189,21.474 11.5196,49.7809 16.7558,63.4462 5.2363,13.6653 13.6143,52.7092 19.8976,87.8486 36.6535,215.7171 50.2678,258.6653 99.488,320.1594 61.7874,75.1592 144.5193,122.9879 246.1019,142.5099 48.1731,8.7848 58.6456,14.6415 60.74,33.1872 8.378,50.757 13.6143,49.7809 -475.4477,50.757 -426.2275,0 -455.5504,-0.9761 -460.7866,-16.5936 z"
       id="path17"
       style="fill:#2c5aa0;stroke-width:2.83971" />
    <path
       d="m 1277.3053,2785.5345 c -9.4252,-5.8567 -12.5669,-98.5858 -10.4724,-407.0318 l 3.1418,-399.223 51.3147,-2.9285 c 105.7715,-6.8327 100.5352,-15.6175 100.5352,178.6255 0,204.98 2.0945,206.9323 103.6771,99.5618 36.6534,-38.0678 114.1493,-117.1314 171.7477,-174.7211 l 104.7241,-105.4182 h 92.1574 c 50.2676,0 94.2517,2.9282 96.3461,7.8086 3.1418,3.9044 -32.4644,43.9243 -78.5431,89.8008 -222.0153,219.6216 -280.6609,282.0916 -280.6609,297.7092 0,14.6415 27.2285,52.709 85.874,117.1314 9.4251,10.7372 65.9762,77.1115 124.6217,146.4144 59.6928,70.2788 112.055,129.8206 117.2911,132.749 35.6063,22.4502 -98.4407,40.0199 -165.4641,22.4502 -11.5198,-2.9283 -58.6456,-51.7332 -104.7243,-108.3467 -46.0787,-57.5896 -89.0156,-108.3465 -94.2517,-114.2031 -6.2836,-5.8566 -33.5119,-39.0439 -61.7874,-74.1832 -53.4093,-66.3747 -85.8738,-97.6097 -101.5824,-97.6097 -5.2362,0 -9.4253,87.8486 -9.4253,195.2191 0,107.3706 -3.1416,195.2191 -7.3305,196.1953 -43.9842,5.8564 -126.7164,5.8564 -137.1888,0 z"
       id="path19"
       style="fill:#2c5aa0;stroke-width:2.83971" />
    <path
       d="m 2510.9563,2788.4628 c -90.0627,-30.259 -132.9996,-53.6854 -191.6452,-101.5141 -60.74,-50.7569 -105.7715,-122.0118 -128.8108,-203.0277 -53.4094,-189.3627 45.0315,-383.6057 242.9602,-475.3586 76.4486,-36.1155 81.6847,-37.0916 192.6925,-37.0916 111.0076,0 116.2439,0.9761 193.7398,37.0916 250.2909,117.1314 329.8813,391.4144 175.9366,607.1315 -35.6061,49.7808 -141.3778,139.5815 -165.4642,139.5815 -5.2363,0 -24.0866,7.8088 -41.8897,16.5937 -23.0394,11.7131 -63.8818,16.5937 -146.6138,18.5459 -62.8346,1.9521 -122.5274,0.9759 -130.9054,-1.9522 z m 188.5037,-131.773 c 45.0313,-8.7847 64.9289,-20.498 118.3382,-71.255 73.3071,-67.3505 101.5826,-126.8924 101.5826,-209.8604 0,-51.7332 -36.6534,-137.6296 -79.5904,-185.4582 -41.8898,-46.8526 -157.0863,-98.5857 -220.9681,-98.5857 -73.307,0 -198.976,74.1834 -245.0546,146.4143 -65.9763,101.514 -46.0787,249.8805 45.0314,341.6335 79.5904,79.0637 160.228,101.514 280.6609,77.1115 z"
       id="path21"
       style="fill:#2c5aa0;stroke-width:2.83971" />
    <path
       d="m 3394.8286,2780.6539 c -2.0945,-5.8564 -3.1418,-188.3864 -2.0945,-406.0557 l 3.1418,-395.3185 h 303.7001 303.7002 v 63.446 63.4463 l -227.2515,2.9283 c -171.7476,1.952 -228.2987,4.8805 -228.2987,14.6415 0,5.8566 -1.0473,155.1991 -2.0945,331.8724 -1.0472,215.717 -5.2363,322.1115 -12.567,327.968 -16.7558,12.6893 -132.9996,9.7609 -138.2359,-2.9283 z"
       id="path23"
       style="fill:#2c5aa0;stroke-width:2.83971" />
    <path
       d="m 4275.5592,2781.63 c -3.1417,-5.8565 -4.189,-189.3625 -3.1417,-407.0318 l 3.1417,-395.3185 h 73.3069 73.3069 l 3.1417,170.8166 c 1.0472,93.7052 6.2836,173.7449 11.5197,178.6254 7.3307,6.8328 198.976,-175.6973 305.7947,-292.8285 29.3228,-32.2113 57.5983,-52.7093 77.4959,-56.6135 48.1731,-9.7612 167.5587,-1.9523 167.5587,10.7369 0,8.7849 -128.8108,141.5338 -277.5191,286.972 -72.2597,70.279 -83.7794,88.8247 -71.2125,110.2988 6.2833,11.7132 17.8031,27.3309 25.1338,34.1635 8.378,6.8326 36.6535,40.0198 63.8817,73.207 27.2283,33.1874 93.2047,111.275 146.6139,172.769 54.4566,62.4701 92.1573,114.2031 85.874,118.1076 -6.2836,2.9283 -45.0315,6.8326 -87.9683,6.8326 -81.6849,1.9523 -83.7795,0.976 -130.9053,-55.6375 -14.6615,-17.5697 -56.5513,-67.3505 -94.2519,-111.2749 -82.7321,-98.5856 -144.5193,-171.7928 -176.9838,-210.8364 -13.6142,-16.5937 -28.2756,-27.3309 -33.5118,-24.4025 -5.2361,2.9283 -9.4251,91.7529 -9.4251,199.1234 0,218.6454 6.2834,204.9802 -90.0629,204.9802 -36.6535,0 -58.6456,-4.8806 -61.7872,-12.6894 z"
       id="path25"
       style="fill:#2c5aa0;stroke-width:2.83971" />
    <path
       d="m 6152.2168,2787.4866 c -15.7087,-3.9044 -17.8031,-13.6653 -15.7087,-64.4223 l 3.1418,-60.5179 99.488,-1.9522 c 54.4566,-1.9522 109.9604,-4.8804 123.5746,-7.8087 l 23.0393,-4.8804 v -330.8965 c 0,-292.8286 2.0944,-331.8726 16.7559,-336.753 24.0865,-8.7848 112.0548,-6.8325 127.7634,2.9283 10.4726,5.8566 13.6143,75.1594 12.567,329.9203 0,257.6892 2.0945,324.0637 13.6141,332.8486 7.3308,5.8565 64.9291,12.6892 128.8108,13.6653 l 114.1493,2.9283 3.1419,59.5419 c 3.1416,55.6374 1.0472,60.5179 -20.9449,66.3745 -27.2284,6.8326 -601.117,5.8566 -629.3925,-0.9762 z"
       id="path27"
       style="fill:#2c5aa0;stroke-width:2.83971" />
    <path
       d="m 5451.6118,2465.375 c -95.2989,-176.6732 -192.6923,-355.2987 -215.7317,-397.2707 -24.0865,-41.9722 -40.8424,-81.0161 -37.7008,-85.8965 3.1418,-3.9044 37.7008,-7.8086 77.496,-7.8086 72.2596,0 72.2596,0 99.488,36.1154 14.6614,20.4981 26.1809,41.9721 26.1809,47.8287 0,29.2829 31.4172,34.1634 231.4405,34.1634 223.0627,0 212.5902,2.9283 253.4326,-69.3029 24.0865,-43.9241 25.1338,-43.9241 85.8739,-46.8526 34.559,-1.952 72.2597,-0.9761 84.8267,1.9522 l 23.0392,5.8566 -28.2756,51.7332 c -16.7558,27.3304 -108.9131,196.1951 -205.2594,372.8683 -95.2991,177.6494 -179.0784,326.0159 -184.3146,331.8726 -5.2361,4.8803 -9.4252,16.5936 -9.4252,26.3545 0,52.7091 -43.984,-13.6653 -201.0705,-301.6136 z m 227.2517,-58.5656 c 17.8031,-36.1156 41.8896,-84.9202 54.4565,-109.3227 32.4645,-64.4224 23.0394,-70.2789 -105.7715,-67.3506 -89.0154,2.9282 -105.7714,5.8566 -108.913,19.522 -4.189,20.4979 102.6296,222.5497 117.291,222.5497 6.2834,0 26.181,-29.2828 42.937,-65.3984 z"
       id="path29"
       style="fill:#2c5aa0;stroke-width:2.83971" />
    <path
       d="m 7244.4903,2704.5186 c -24.0866,-44.9005 -115.1966,-210.8367 -201.0705,-368.9641 -86.9212,-158.1275 -166.5116,-302.5898 -178.0312,-320.1594 -26.1811,-39.0439 -17.8031,-42.9482 81.6849,-39.0439 l 72.2597,2.9285 28.2755,52.7089 c 15.7087,28.3068 30.37,53.6854 33.5118,56.6136 2.0945,1.9522 97.3934,4.8806 210.4956,4.8806 l 206.3066,0.976 19.8976,-23.4263 c 10.4726,-12.6892 19.8976,-28.3068 19.8976,-34.1633 0,-5.8565 9.4253,-22.4502 21.9922,-37.0916 19.8976,-23.4264 28.2756,-25.3784 93.2045,-25.3784 39.7952,0 75.4015,3.9042 78.5431,9.7608 3.1418,4.8805 -14.6614,45.8766 -40.8423,89.8008 -25.1339,44.9004 -122.5273,221.5737 -214.6847,393.3665 -93.2047,171.7929 -172.7951,313.3266 -178.0312,315.2789 -4.1889,0.976 -28.2754,-34.1634 -53.4092,-78.0876 z m 100.5352,-307.4703 c 19.8976,-41.9721 43.9842,-90.7767 53.4093,-107.3704 27.2283,-54.6614 16.7558,-61.4939 -98.4407,-61.4939 -56.5512,0 -108.9132,3.9043 -117.2911,8.7848 -11.5197,6.8327 -6.2836,24.4023 29.3227,91.7529 23.0393,45.8765 42.9369,86.8726 42.9369,90.777 0,7.8086 41.8897,52.7091 49.2205,52.7091 2.0944,0 19.8976,-34.1634 40.8424,-75.1595 z"
       id="path31"
       style="fill:#2c5aa0;stroke-width:2.83971" />
  </g>
</svg>
