<?xml version="1.0" encoding="UTF-8"?>
<svg xmlns="http://www.w3.org/2000/svg" viewBox="0 0 200 67.8">
  <defs>
    <style>
      .cls-1, .cls-2 {
        fill-rule: evenodd;
      }

      .cls-1, .cls-3 {
        fill: #00549b;
      }

      .cls-2 {
        fill: #fff;
      }

      .cls-4 {
        fill: #fed206;
      }
    </style>
  </defs>
  <polygon class="cls-3" points="96.02 9.48 81.88 47.72 67.53 9.48 58.02 9.48 58.02 58.58 63.76 58.58 63.76 17.54 79.14 58.58 83.68 58.58 98.91 17.56 98.91 58.58 99.2 58.58 105.38 58.58 105.38 9.48 96.02 9.48"/>
  <path class="cls-3" d="m131.72,22.25c0,7.57-4.37,12.73-10.77,12.73-3.28,0-6.02-1.32-7.79-3.73-1.81-2.45-2.79-5.69-2.79-9.3,0-7.53,4.44-12.84,10.77-12.84s10.58,5.16,10.58,13.14Zm-15.14-6.89c-.87,1.66-1.32,4.07-1.32,6.74,0,5.99,2.03,9.23,5.72,9.23,2,0,3.84-1.17,4.71-2.9.75-1.51,1.13-3.58,1.13-6.1,0-6.33-1.92-9.56-5.72-9.56-2.03,0-3.69.94-4.52,2.6Z"/>
  <path class="cls-3" d="m152.83,25.63c0,3.77-.45,5.27-2.11,6.93-1.58,1.58-3.84,2.41-6.67,2.41s-5.2-.87-6.7-2.45c-1.47-1.51-2-3.28-2-6.59V9.48h4.63v16.15c0,1.96.34,3.28,1.09,4.07.75.79,2.11,1.32,3.54,1.32,1.54,0,3.01-.6,3.73-1.54.56-.75.9-2.15.9-3.84V9.48h3.58v16.15Z"/>
  <path class="cls-3" d="m172.78,34.6l-9.79-16.04c-.11-.19-.34-.68-.68-1.36-.08-.19-.38-.75-.68-1.36v18.75h-3.65V9.48h5.01l8.77,14.8c.04.08.41.75.75,1.39.3.6.53,1.05.83,1.62V9.48h3.58v25.12h-4.14Z"/>
  <path class="cls-3" d="m186.48,34.6V13.36h-6.66v-3.88h18.19v3.88h-6.67v21.24h-4.86Z"/>
  <rect class="cls-3" x="0" y="0" width="200" height="2.21"/>
  <rect class="cls-3" y="65.59" width="200" height="2.21"/>
  <path class="cls-3" d="m193.62,47.11v-6.72h2.11v-1.23h-5.75v1.23h2.11v6.72h1.54Zm-5.28,0v-7.95h-1.13v5.63l-.26-.51-.24-.44-2.78-4.68h-1.58v7.95h1.16v-5.93l.21.43c.11.21.18.37.21.43l3.1,5.07h1.31Zm-8.19,0v-1.23h-3.73v-2.23h2.95v-1.16h-2.95v-2.16h3.68v-1.18h-5.11v7.95h5.16Zm-8.04-2.76c-.12,1-.75,1.68-1.57,1.68-1.1,0-1.74-1.07-1.74-2.93s.61-2.9,1.69-2.9c.45,0,.88.21,1.13.56.23.31.33.58.49,1.24l1.32-.14c-.3-1.82-1.33-2.81-2.95-2.81-1.97,0-3.23,1.61-3.23,4.09,0,1.25.33,2.32.96,3.11.52.67,1.25.99,2.22.99s1.66-.3,2.23-.93c.46-.51.64-.94.77-1.8l-1.32-.16Zm-6.63,2.76v-7.95h-1.13v5.63l-.26-.51-.24-.44-2.78-4.68h-1.58v7.95h1.16v-5.93l.21.43c.11.21.18.37.21.43l3.1,5.07h1.31Zm-8.28,0v-7.95h-1.43v7.95h1.43Zm-5.34,0l2.48-7.95h-1.19l-1.86,6.09-1.82-6.09h-1.51l2.45,7.95h1.45Zm-9.15,0v-6.72h2.11v-1.23h-5.75v1.23h2.11v6.72h1.54Zm-5.07,0v-7.95h-1.13v5.63l-.26-.51-.24-.44-2.78-4.68h-1.58v7.95h1.16v-5.93l.21.43c.11.21.18.37.21.43l3.1,5.07h1.31Zm-8.28,0v-7.95h-1.43v7.95h1.43Zm-5.58-3.04h-2.31l1.16-3.55,1.16,3.55Zm2.55,3.04l-2.67-7.95h-1.76l-2.63,7.95h1.22l.63-1.89h3.05l.63,1.89h1.54Zm-14.26-1.92c.2.64.41.96.8,1.29.63.5,1.45.75,2.44.75,1.92,0,3.17-.98,3.17-2.49,0-.49-.13-.92-.38-1.29-.31-.46-.82-.75-1.68-.98l-1.36-.33c-.75-.19-1.11-.5-1.11-.97,0-.6.54-.98,1.36-.98s1.27.29,1.49.89l1.36-.33c-.14-.49-.32-.74-.67-1.02-.57-.45-1.33-.69-2.19-.69-1.69,0-2.81.95-2.81,2.37,0,.51.16.98.46,1.37.29.38.69.6,1.5.81l1.52.39c.67.18.99.49.99.96,0,.69-.61,1.12-1.57,1.12-.62,0-1.16-.14-1.49-.42-.23-.18-.33-.36-.45-.76l-1.38.3Z"/>
  <path class="cls-3" d="m192.94,58.6v-3.35l2.57-4.6h-1.38l-1.8,3.28-1.88-3.28h-1.73l2.7,4.6v3.35h1.51Zm-9,0v-6.72h2.11v-1.23h-5.75v1.23h2.11v6.72h1.54Zm-7.28,0v-7.95h-1.43v7.95h1.43Zm-11.6-1.92c.2.64.41.96.8,1.29.63.5,1.45.75,2.44.75,1.92,0,3.17-.98,3.17-2.49,0-.49-.13-.92-.38-1.29-.31-.46-.82-.75-1.68-.98l-1.36-.33c-.75-.19-1.11-.5-1.11-.97,0-.6.54-.98,1.36-.98s1.27.29,1.49.89l1.36-.33c-.14-.49-.32-.74-.67-1.02-.57-.45-1.33-.69-2.19-.69-1.69,0-2.81.95-2.81,2.37,0,.51.15.98.46,1.37.29.38.69.6,1.5.81l1.52.39c.67.18.99.49.99.96,0,.69-.61,1.12-1.57,1.12-.62,0-1.16-.14-1.49-.42-.23-.18-.33-.36-.45-.76l-1.38.3Zm-7.61-2.49v-2.39h1.91c.87,0,1.41.45,1.41,1.17,0,.79-.55,1.23-1.52,1.23h-1.79Zm4.97,4.41l-1.39-3.5c.99-.43,1.43-1.08,1.43-2.11,0-.73-.25-1.31-.71-1.72-.51-.44-1.12-.62-2.07-.62h-3.44v7.95h1.43v-3.26h2.01l1.24,3.26h1.51Zm-10.18,0v-1.23h-3.73v-2.23h2.95v-1.16h-2.95v-2.16h3.68v-1.18h-5.11v7.95h5.16Zm-10.86,0l2.48-8.06h-1.19l-1.86,6.18-1.82-6.18h-1.51l2.45,8.06h1.45Zm-7.34,0v-7.95h-1.43v7.95h1.43Zm-5.82,0v-7.95h-1.13v5.63l-.26-.51-.24-.44-2.78-4.68h-1.58v7.95h1.16v-5.93l.21.43c.11.21.18.37.21.43l3.1,5.07h1.31Zm-9.85-7.95h-1.13v5.11c0,.54-.11.98-.29,1.22-.23.3-.69.49-1.18.49-.45,0-.88-.17-1.12-.42s-.35-.67-.35-1.29v-5.11h-1.47v5.21c0,1.05.17,1.61.63,2.09.48.5,1.22.77,2.12.77s1.61-.26,2.11-.76c.52-.52.67-1,.67-2.19v-5.11Z"/>
  <path class="cls-1" d="m49.47,9.48v19c0,14.8-3.75,26.84-23.55,34.86C6.12,55.32,2.38,43.28,2.38,28.48V9.48h47.09Z"/>
  <g>
    <path class="cls-2" d="m34.68,27.75l2.47,13.12-10.18-.93c-.1.29-.57.55-1.05.55s-.94-.26-1.05-.55l-10.18.93,2.47-13.12h.39l-2.4,12.7,9.95-.91s.06.2.14.31c.17.22.4.26.68.26s.52-.05.69-.28c.07-.1.13-.3.13-.3l9.95.91-2.4-12.7h.39Z"/>
    <path class="cls-2" d="m25.03,34.8v-.41c-1.56-.3-2.59-.09-3.49.21-.81.27-1.58.67-2.44.76-.76.07-1.59-.12-1.76-.25l-.06.39c.35.2,1.06.34,1.86.27.47-.04.89-.17,1.3-.32,1.69-.61,2.65-1.02,4.6-.65Zm0,1.81v-.41c-1.62-.31-2.68-.07-3.62.26-.87.3-1.68.74-2.61.82-.72.07-1.59-.13-1.76-.3l-.07.4c.3.18,1.1.37,1.86.29.52-.05.97-.18,1.41-.34,1.77-.65,2.71-1.13,4.79-.73Zm0-8v-.4c-1.31-.33-2.17-.15-2.93.03-.58.14-1.18.37-1.77.48-.89.17-1.78-.05-1.94-.18l-.06.4c.33.16,1.12.33,2.05.17.27-.05.56-.12.85-.21,1.37-.43,2.25-.66,3.81-.31Zm0,1.39v-.41c-1.36-.27-2.3-.13-3.1.08-.64.17-1.28.48-1.94.55-.87.17-1.68-.06-1.84-.18l-.07.42c.36.14,1.07.31,1.96.16.32-.03.64-.13.96-.23,1.44-.48,2.43-.7,4.03-.39Zm0,1.49v-.41c-1.43-.28-2.4-.12-3.23.12-.69.2-1.38.55-2.1.62-.83.09-1.63-.08-1.8-.2l-.06.41c.34.14,1.05.28,1.9.19.37-.04.72-.14,1.07-.26,1.53-.52,2.5-.81,4.22-.47Zm0,1.59v-.41c-1.49-.29-2.49-.11-3.36.17-.75.23-1.48.61-2.27.69-.84.11-1.6-.12-1.77-.24l-.06.4c.35.17,1.05.32,1.87.24.42-.04.81-.16,1.18-.29,1.61-.56,2.58-.91,4.41-.56Zm-3.4-5.79c1.43-.62,2.8-.43,3.98.08v11.14c-.53-.47-1.67-1.01-3.79-.15-3.04,1.22-4.86,1.11-5.77.95.08-.54,1.89-11.83,1.89-11.83,0,0,1.6.72,3.68-.19Z"/>
    <path class="cls-2" d="m26.81,36.62c2.08-.4,3.01.08,4.79.73.44.16.89.29,1.41.34.76.07,1.56-.11,1.86-.29l-.07-.4c-.17.17-1.03.37-1.76.3-.93-.09-1.75-.52-2.61-.82-.94-.33-2-.57-3.62-.26v.41Zm0-1.81c1.95-.38,2.91.04,4.6.65.41.15.83.27,1.3.32.79.08,1.51-.07,1.86-.27l-.06-.39c-.17.13-1,.33-1.76.25-.86-.08-1.64-.49-2.44-.76-.9-.3-1.93-.51-3.49-.21v.41Zm0-6.18c1.56-.35,2.44-.13,3.81.31.29.09.57.16.85.21.94.16,1.73-.01,2.05-.17l-.06-.4c-.16.12-1.05.34-1.94.18-.59-.11-1.18-.34-1.77-.48-.76-.18-1.62-.36-2.93-.03v.4Zm0,1.39c1.6-.31,2.59-.09,4.03.39.32.11.64.2.96.23.88.16,1.6-.01,1.96-.16l-.07-.42c-.17.12-.97.34-1.84.18-.66-.07-1.3-.38-1.94-.55-.8-.21-1.74-.34-3.1-.08v.41Zm0,1.49c1.72-.33,2.69-.05,4.22.47.35.12.7.22,1.07.26.86.09,1.57-.05,1.9-.19l-.06-.41c-.16.12-.96.29-1.8.2-.72-.07-1.41-.42-2.1-.62-.83-.24-1.81-.4-3.23-.12v.41Zm0,1.59c1.83-.36,2.8,0,4.41.56.38.13.76.25,1.19.29.82.08,1.52-.07,1.87-.24l-.06-.4c-.17.13-.92.35-1.77.24-.79-.08-1.52-.45-2.27-.69-.87-.27-1.87-.46-3.36-.17v.41Zm3.39-5.79c2.09.91,3.68.19,3.68.19,0,0,1.81,11.28,1.89,11.83-.91.16-2.73.28-5.77-.95-2.12-.85-3.25-.32-3.79.15v-11.14c1.19-.51,2.56-.7,3.98-.08Z"/>
  </g>
  <g>
    <path class="cls-2" d="m9.42,30.18c.16-.29.43-.57.88-.74.29.74.21,1.27.04,1.65-.09.19-.2.35-.3.47-.05.06-.1.11-.14.16-.04.05-.07.09-.1.12-.3.46.2.7.33.21,0-.03.02-.12.05-.22.03-.1.08-.23.16-.35.15-.24.42-.46.9-.48.22.65.08,1.13-.14,1.48-.11.18-.24.33-.36.45-.06.06-.11.12-.15.17-.04.05-.08.1-.1.14-.09.17-.05.32.05.37.1.04.24-.02.33-.21.03-.05.09-.19.2-.37.11-.17.25-.37.44-.55.38-.36.92-.62,1.65-.38-.07.73-.28,1.05-.51,1.22-.11.09-.23.13-.34.17-.05.02-.1.04-.15.06-.05.02-.09.05-.12.08-.13.11-.15.26-.08.35.07.09.2.09.35-.04.05-.05,1.32-1.09,2.63.25-.97,1.6-2.44.86-2.5.83-.17-.09-.31-.06-.35.04-.05.1,0,.24.16.32.04.02.08.04.13.04.05,0,.1.02.16.02.11.02.24.04.37.09.26.11.53.38.77,1.08-.66.4-1.25.26-1.69,0-.22-.13-.41-.3-.55-.44-.14-.14-.24-.26-.27-.31-.13-.17-.28-.19-.37-.13-.09.07-.1.22.03.37.03.04.08.07.13.11.05.04.12.08.19.13.14.09.3.21.45.36.29.29.54.73.47,1.41-.47.09-.78-.07-.98-.27-.1-.1-.18-.21-.23-.3-.05-.09-.09-.17-.1-.2-.24-.45-.67-.1-.28.28.03.03.07.06.12.1.05.04.11.08.17.13.13.1.27.22.4.39.25.33.45.83.33,1.62-.43-.06-.74-.24-.96-.45-.74-2.82-1.04-5.88-1.11-9.22Zm-4.68,5.79l-.12-1.09c.52.18,1.76.28,1.89-.21.06-.2-.03-.36-.17-.5-.07-.07-.16-.14-.25-.22-.09-.07-.19-.15-.29-.24-.4-.34-.78-.79-.67-1.66.75-.14,1.13.12,1.39.39.07.07.13.14.18.2l.03.03c.11,1.75.3,3.4.58,4.96l-.04.06c-.04.07-.08.15-.13.23-.2.32-.51.66-1.27.69-.31-.82-.03-1.35.28-1.77.08-.11.16-.2.23-.3.07-.09.14-.18.19-.27.1-.17.15-.34.05-.53-.24-.44-1.43-.07-1.89.22Z"/>
    <path class="cls-2" d="m41.31,39.41c-.22.21-.52.38-.94.44-.12-.79.08-1.29.33-1.62.13-.17.27-.29.4-.39.06-.05.12-.09.17-.13.05-.04.09-.07.12-.1.39-.38-.04-.73-.28-.28-.02.03-.05.11-.1.2-.05.09-.13.2-.23.3-.2.2-.51.36-.98.27-.07-.68.18-1.11.47-1.41.15-.15.31-.26.45-.36.07-.05.13-.09.19-.13.05-.04.1-.07.13-.11.13-.15.12-.3.03-.37-.09-.07-.24-.04-.37.13-.04.05-.13.17-.27.31-.14.14-.33.31-.55.44-.45.26-1.04.4-1.69,0,.23-.7.51-.96.77-1.08.13-.06.25-.08.37-.09.06,0,.11-.01.16-.02.05,0,.09-.02.13-.04.15-.08.2-.22.16-.32-.05-.1-.18-.14-.35-.04-.06.03-1.53.77-2.5-.83,1.31-1.34,2.57-.29,2.63-.25.15.13.29.12.35.04.07-.09.05-.23-.08-.35-.03-.03-.08-.05-.12-.08-.05-.02-.1-.04-.15-.06-.11-.04-.22-.09-.34-.17-.22-.17-.43-.49-.51-1.22.73-.24,1.27.03,1.65.38.19.18.34.38.44.55.11.17.17.31.2.37.09.19.23.25.33.21.11-.05.15-.19.05-.37-.02-.04-.06-.09-.1-.14-.04-.05-.1-.1-.15-.17-.11-.12-.25-.27-.36-.45-.22-.35-.37-.83-.15-1.48.48.02.74.24.9.48.08.12.13.25.16.35.03.1.05.18.05.22.13.49.63.25.33-.21-.02-.03-.06-.08-.1-.12-.04-.05-.09-.1-.14-.16-.1-.12-.21-.28-.3-.47-.17-.38-.25-.91.04-1.65.45.17.72.45.87.73-.07,3.35-.37,6.42-1.12,9.25Zm5.81-3.44c-.46-.3-1.65-.67-1.89-.22-.1.18-.06.35.05.53.05.09.12.18.19.27.07.09.15.19.23.3.31.42.59.95.28,1.77-.76-.03-1.07-.37-1.27-.69-.05-.08-.09-.16-.13-.23-.02-.03-.03-.05-.05-.08.28-1.55.47-3.19.58-4.92l.04-.04c.06-.06.12-.13.18-.2.26-.26.64-.53,1.39-.39.11.87-.28,1.32-.67,1.66-.1.08-.2.16-.29.24-.09.07-.18.14-.25.22-.14.15-.22.3-.17.5.14.49,1.37.39,1.89.21l-.13,1.09Z"/>
    <path class="cls-2" d="m21.99,53.65c.65-.25,1.4-.22,1.74.08.18.16.28.3.4.46.06.08.11.15.16.21.05.06.09.11.13.14.18.14.34.1.4-.01.06-.11.01-.29-.18-.42-.06-.04-.14-.11-.34-.25-.19-.13-.39-.29-.58-.49-.42-.45-.61-.96-.26-1.8.78.18,1.1.48,1.25.77.08.15.12.29.15.42.02.07.03.13.05.18.02.06.04.11.06.15.11.17.26.21.37.14.1-.07.12-.23,0-.42-.04-.07-1.01-1.72.59-3.1,1.6,1.38.63,3.03.59,3.1-.12.2-.1.36,0,.42.1.07.26.03.37-.14.03-.04.05-.1.06-.15.02-.06.03-.12.05-.18.03-.13.07-.28.15-.42.16-.29.48-.59,1.25-.77.35.84.16,1.35-.26,1.8-.19.21-.39.36-.58.49-.2.14-.29.21-.34.25-.19.13-.24.31-.18.42.06.12.22.15.4.01.04-.03.09-.08.13-.14.05-.06.1-.13.16-.21.12-.15.22-.3.4-.46.34-.3,1.08-.32,1.74-.08-1.2.7-2.51,1.38-3.93,2.05-1.43-.66-2.73-1.34-3.93-2.05Zm4.47,7.2h-1.08c.24-.51.47-1.76,0-1.96-.19-.08-.35-.02-.51.11-.08.06-.16.14-.24.23-.08.09-.17.18-.26.27-.37.37-.86.71-1.7.49-.06-.78.26-1.1.56-1.29.08-.05.15-.09.22-.13.07-.04.13-.08.19-.12.11-.09.16-.2.1-.36-.07-.22-.29-.28-.58-.28-.28,0-.63.04-1,.04-.71,0-1.45-.15-1.71-1.19.28-.16.51-.23.71-.26,1.41.8,2.93,1.57,4.59,2.31l.15.07.15-.07c1.66-.75,3.19-1.51,4.59-2.31.19.03.42.11.71.26-.26,1.04-1,1.19-1.71,1.19-.36,0-.72-.05-1-.04-.28,0-.5.07-.58.28-.05.17,0,.27.1.36.05.04.12.08.19.12.07.04.14.08.22.13.3.19.61.51.56,1.29-.83.22-1.32-.13-1.69-.49-.09-.09-.18-.19-.26-.27-.08-.09-.16-.17-.24-.23-.16-.13-.32-.19-.51-.11-.46.2-.23,1.45,0,1.96Z"/>
    <path class="cls-2" d="m8.78,13.7s0-.06,0-.09c0-.07-.02-.16-.04-.25-.03-.19-.06-.41-.05-.64.02-.46.18-.96.79-1.32.43.38.54.77.53,1.08,0,.16-.04.3-.07.4-.04.11-.07.19-.09.22-.18.5.43.68.44.08,0-.05,0-.1-.01-.17,0-.07-.02-.15-.03-.24-.02-.18-.02-.39.02-.61.08-.44.34-.94,1.07-1.33.81,1.29,0,2.19-.16,2.35-.34.34.06.66.3.28.02-.03.04-.07.05-.11s.03-.09.04-.14c.03-.1.06-.22.12-.33.12-.23.35-.47.87-.61.36.59.33,1.05.12,1.44h-3.9Zm-2.18,1.73s-.06,0-.09,0c-.06.01-.23.04-.45.05-.22,0-.5,0-.79-.06-.58-.12-1.21-.46-1.57-1.29.65-.39,1.08-.4,1.39-.3.16.05.28.13.4.2.06.04.11.07.16.1.05.03.1.05.15.06.19.05.33-.03.35-.14.02-.12-.08-.25-.3-.3-.08-.02-1.9-.54-1.8-2.59,2.05-.1,2.57,1.72,2.59,1.8.05.22.19.32.3.3.12-.02.19-.16.14-.35-.01-.05-.04-.1-.07-.15-.03-.05-.06-.1-.1-.16-.07-.11-.15-.24-.2-.4-.1-.31-.09-.74.3-1.39.83.36,1.17.99,1.29,1.57.06.29.07.57.06.79,0,.22-.04.39-.05.45,0,.02,0,.05,0,.07h-1.71v1.73Zm0,4.36c-.39.21-.85.25-1.45-.12.14-.52.38-.75.61-.87.12-.06.23-.09.33-.12.05-.01.1-.03.14-.04.04-.01.08-.03.11-.05.38-.25.05-.64-.28-.3-.17.17-1.07.98-2.35.16.39-.73.88-.99,1.33-1.07.22-.04.44-.03.61-.02.09,0,.17.02.24.03.07,0,.13.01.17.01.6-.01.42-.63-.08-.44-.04.01-.11.05-.22.09-.11.04-.25.07-.4.07-.31,0-.7-.1-1.08-.53.37-.61.87-.78,1.33-.8.23,0,.45.02.64.05.09.01.18.03.25.04.04,0,.08,0,.11.01v3.89Zm4.98-.36c-.2-.52-.93-1.56-1.38-1.39-.19.07-.25.23-.26.42,0,.1,0,.21,0,.32s.01.24.02.37c0,.45-.06.94-.56,1.33v-3.99h3.98c-.39.52-.9.58-1.35.57-.13,0-.25-.01-.37-.02-.12,0-.23,0-.32,0-.2.02-.35.08-.42.26-.17.45.87,1.18,1.39,1.38l-.73.73Z"/>
    <path class="cls-2" d="m45.25,15.89s.07,0,.11-.01c.07,0,.16-.02.25-.04.19-.03.41-.06.64-.05.46.02.96.18,1.33.79-.38.43-.77.54-1.08.53-.16,0-.3-.04-.4-.07-.11-.04-.19-.07-.22-.09-.5-.18-.68.43-.08.44.05,0,.1,0,.17-.01.07,0,.15-.02.24-.03.18-.02.39-.02.61.02.44.08.94.34,1.33,1.07-1.29.81-2.19,0-2.35-.16-.34-.34-.66.06-.28.3.03.02.07.04.11.05.04.01.09.03.14.04.1.03.22.06.33.12.23.12.47.35.61.87-.6.37-1.06.33-1.45.12v-3.9Zm-1.72-2.19s0-.05,0-.08c-.01-.06-.04-.23-.05-.45,0-.22,0-.5.06-.79.12-.58.46-1.21,1.29-1.57.39.65.4,1.08.3,1.39-.05.16-.13.28-.2.4-.04.06-.07.11-.1.16-.03.05-.05.1-.07.15-.05.19.03.33.14.35.12.02.25-.08.3-.3.02-.08.54-1.9,2.59-1.8.1,2.05-1.72,2.57-1.8,2.59-.22.05-.32.19-.3.3.02.12.16.19.35.14.05-.01.1-.04.15-.07.05-.03.1-.06.16-.1.11-.07.24-.15.4-.2.31-.1.74-.09,1.39.3-.36.83-.99,1.17-1.57,1.29-.29.06-.57.07-.79.06-.22,0-.39-.04-.45-.05-.03,0-.06,0-.08,0v-1.73h-1.72Zm-4.37,0c-.2-.38-.24-.85.12-1.44.52.14.75.38.87.61.06.12.09.23.12.33.01.05.03.1.04.14.01.04.03.08.05.11.25.38.64.06.3-.28-.17-.17-.98-1.07-.16-2.35.74.39,1,.88,1.07,1.33.04.22.03.44.02.61,0,.09-.02.17-.03.24,0,.07-.01.13-.01.17.01.6.63.42.44-.08-.01-.03-.05-.11-.09-.22-.04-.11-.07-.25-.07-.4,0-.31.1-.7.53-1.08.61.37.78.87.79,1.33,0,.23-.02.45-.05.64-.01.09-.03.18-.04.25,0,.04,0,.07-.01.1h-3.9Zm1.1,5.72l-.73-.73c.52-.2,1.56-.93,1.39-1.38-.07-.19-.23-.25-.42-.26-.1,0-.21,0-.32,0-.12,0-.24.01-.37.02-.45,0-.95-.06-1.34-.57h3.98v3.98c-.5-.39-.57-.89-.56-1.34,0-.13.01-.25.02-.37,0-.12,0-.23,0-.32-.02-.2-.08-.35-.26-.42-.45-.17-1.18.87-1.38,1.39Z"/>
  </g>
  <path class="cls-4" d="m43.02,15.93H8.83v12.55c0,12.23,2.48,21.11,16.94,27.77l.16.07.16-.07c14.46-6.66,16.94-15.54,16.94-27.77v-12.55Zm-17.1,42.21c-14.46-6.53-18.76-14.66-18.76-29.66v-14.21h37.52v14.21c0,15-4.3,23.14-18.76,29.66Z"/>
  <g>
    <g>
      <g>
        <path class="cls-4" d="m15.21,18.22c-.3.44-.47.96-.47,1.53,0,1.5,1.21,2.71,2.71,2.71s2.71-1.21,2.71-2.71c0-.57-.17-1.1-.47-1.53.58.62.94,1.48.94,2.42,0,1.89-1.42,3.42-3.18,3.42s-3.18-1.53-3.18-3.42c0-.95.36-1.8.94-2.42Z"/>
        <path class="cls-4" d="m13.05,21.67c0-.92.28-1.77.76-2.47-.15.45-.24.94-.24,1.45,0,2.3,1.74,4.17,3.88,4.17s3.88-1.87,3.88-4.17c0-.51-.08-1-.24-1.45.48.7.76,1.55.76,2.47,0,2.43-1.97,4.4-4.4,4.4s-4.4-1.97-4.4-4.4Z"/>
      </g>
      <g>
        <path class="cls-4" d="m32.16,18.22c-.3.44-.47.96-.47,1.53,0,1.5,1.21,2.71,2.71,2.71s2.71-1.21,2.71-2.71c0-.57-.17-1.1-.47-1.53.58.62.94,1.48.94,2.42,0,1.89-1.42,3.42-3.18,3.42s-3.18-1.53-3.18-3.42c0-.95.36-1.8.94-2.42Z"/>
        <path class="cls-4" d="m30,21.67c0-.92.28-1.77.76-2.47-.15.45-.24.94-.24,1.45,0,2.3,1.74,4.17,3.88,4.17s3.88-1.87,3.88-4.17c0-.51-.08-1-.24-1.45.48.7.76,1.55.76,2.47,0,2.43-1.97,4.4-4.4,4.4s-4.4-1.97-4.4-4.4Z"/>
      </g>
    </g>
    <g>
      <path class="cls-4" d="m23.68,41.07c-.3.43-.47.96-.47,1.53,0,1.5,1.21,2.71,2.71,2.71s2.71-1.21,2.71-2.71c0-.57-.17-1.09-.47-1.53.58.62.94,1.48.94,2.42,0,1.89-1.42,3.42-3.18,3.42s-3.18-1.53-3.18-3.42c0-.95.36-1.8.94-2.42Z"/>
      <path class="cls-4" d="m21.53,44.51c0-.92.28-1.77.76-2.47-.15.45-.24.94-.24,1.45,0,2.3,1.74,4.17,3.88,4.17s3.88-1.87,3.88-4.17c0-.51-.08-1-.24-1.45.48.7.76,1.55.76,2.47,0,2.43-1.97,4.4-4.4,4.4s-4.4-1.97-4.4-4.4Z"/>
    </g>
  </g>
</svg>