<?xml version="1.0" encoding="UTF-8" standalone="no"?>
<!-- Created with Inkscape (http://www.inkscape.org/) -->

<svg
   xmlns:dc="http://purl.org/dc/elements/1.1/"
   xmlns:cc="http://creativecommons.org/ns#"
   xmlns:rdf="http://www.w3.org/1999/02/22-rdf-syntax-ns#"
   xmlns:svg="http://www.w3.org/2000/svg"
   xmlns="http://www.w3.org/2000/svg"
   xmlns:sodipodi="http://sodipodi.sourceforge.net/DTD/sodipodi-0.dtd"
   xmlns:inkscape="http://www.inkscape.org/namespaces/inkscape"
   width="240.49998"
   height="47.323002"
   viewBox="0 0 240.49999 47.323001"
   id="svg3855"
   version="1.1"
   inkscape:version="0.91 r13725"
   sodipodi:docname="nipissing university.svg">
  <defs
     id="defs3857" />
  <sodipodi:namedview
     id="base"
     pagecolor="#ffffff"
     bordercolor="#666666"
     borderopacity="1.0"
     inkscape:pageopacity="0.0"
     inkscape:pageshadow="2"
     inkscape:zoom="3.7708333"
     inkscape:cx="120"
     inkscape:cy="23.361502"
     inkscape:document-units="px"
     inkscape:current-layer="layer1"
     showgrid="false"
     fit-margin-top="0"
     fit-margin-left="0"
     fit-margin-right="0"
     fit-margin-bottom="0"
     units="px"
     inkscape:window-width="1280"
     inkscape:window-height="744"
     inkscape:window-x="-4"
     inkscape:window-y="-4"
     inkscape:window-maximized="1" />
  <metadata
     id="metadata3860">
    <rdf:RDF>
      <cc:Work
         rdf:about="">
        <dc:format>image/svg+xml</dc:format>
        <dc:type
           rdf:resource="http://purl.org/dc/dcmitype/StillImage" />
        <dc:title></dc:title>
      </cc:Work>
    </rdf:RDF>
  </metadata>
  <g
     inkscape:label="Layer 1"
     inkscape:groupmode="layer"
     id="layer1"
     transform="translate(-1148.5714,-748.40071)">
    <g
       id="g3864"
       transform="translate(1143.8214,743.56162)">
	<path
   id="path3866"
   d="m 32.485,16.715 0,14.106 0,0.034 -0.025,0.025 -9.624,9.586 -0.025,0.025 -0.034,0 -0.084,-0.005 -0.042,-0.122 0,-22.385 -8.444,8.444 c -0.004,0.731 -0.042,20.948 -0.042,20.948 0,1.763 1.146,3.421 2.85,4.131 2.008,0.829 4.258,0.212 6.165,-1.7 l 9.375,-9.29 0.144,-0.139 0,0.202 0,8.153 8.191,-8.233 0.042,-32.187 -8.447,8.407 z"
   inkscape:connector-curvature="0"
   style="fill:#007f61" />

	<path
   id="path3868"
   d="m 13.486,26.103 0.025,-0.025 9.582,-9.544 0.025,-0.025 0.034,0 0.084,0.004 0.042,0.123 0,22.217 8.444,-8.444 C 31.726,29.678 31.764,9.63 31.764,9.63 c 0,-1.763 -1.15,-3.425 -2.871,-4.131 -2.017,-0.829 -4.254,-0.211 -6.144,1.7 l -9.29,9.286 -0.144,0.144 0,-0.199 L 13.273,8.146 5.041,16.506 5,48.771 l 8.486,-8.567 0,-14.068 0,-0.033 z"
   inkscape:connector-curvature="0"
   style="fill:#004b84" />

	<path
   id="path3870"
   d="m 55.898,15.827 0,15.464 c 0,3.142 0.402,4.147 4.03,3.945 l 0,1.091 -9.641,0 0,-1.091 c 2.9,0.08 3.383,-0.846 3.383,-3.464 l 0,-18.118 c -0.964,-0.846 -1.852,-1.167 -3.383,-1.29 l 0,-1.087 7.302,0 17.971,18.974 0,-14.424 c 0,-3.019 -0.482,-3.501 -3.987,-3.463 l 0,-1.087 9.759,0 0,1.087 c -2.698,0 -3.543,0.482 -3.543,3.543 l 0,20.665 -2.186,0 -19.705,-20.745 z"
   inkscape:connector-curvature="0"
   style="fill:#004b84" />

	<path
   id="path3872"
   d="m 82.795,11.277 11.235,0 0,1.087 c -2.698,0 -3.463,0.604 -3.463,3.463 l 0,15.662 c 0,3.023 0.563,3.827 3.463,3.747 l 0,1.091 -11.235,0 0,-1.091 c 3.184,0.08 3.303,-1.167 3.303,-3.464 l 0,-16.389 c 0,-2.173 -0.524,-3.057 -3.303,-3.019 l 0,-1.087 z"
   inkscape:connector-curvature="0"
   style="fill:#004b84" />

	<path
   id="path3874"
   d="m 96.534,36.327 12.415,0 0,-1.091 c -3.755,-0.038 -4.563,-0.724 -4.563,-3.827 l 0,-5.518 c 1.129,0.199 2.22,0.279 3.311,0.279 5.695,0 9.603,-3.26 9.603,-7.971 0,-5.514 -4.11,-7.248 -11.742,-7.248 -0.77,0 -3.425,0.119 -5.357,0.199 -0.969,0.042 -2.981,0.127 -4.148,0.127 l 0,1.087 c 3.18,0 3.865,0.364 3.865,4.267 l 0,14.334 c 0,3.586 -0.604,4.148 -3.383,4.271 l 0,1.091 z m 7.852,-24.128 c 0.604,-0.08 1.209,-0.118 1.979,-0.118 4.85,0 6.059,3.34 6.059,6.038 0,3.945 -2.583,6.761 -6.3,6.761 -0.609,0 -1.213,-0.123 -1.738,-0.203 l 0,-12.478 z"
   inkscape:connector-curvature="0"
   style="fill:#004b84" />

	<path
   id="path3876"
   d="m 119.093,11.277 11.235,0 0,1.087 c -2.698,0 -3.464,0.604 -3.464,3.463 l 0,15.662 c 0,3.023 0.563,3.827 3.464,3.747 l 0,1.091 -11.235,0 0,-1.091 c 3.184,0.08 3.302,-1.167 3.302,-3.464 l 0,-16.389 c 0,-2.173 -0.52,-3.057 -3.302,-3.019 l 0,-1.087 z"
   inkscape:connector-curvature="0"
   style="fill:#004b84" />

	<path
   id="path3878"
   d="m 132.814,29.722 1.205,0 c 1.006,3.704 3.501,5.798 6.96,5.798 2.935,0 4.989,-1.729 4.989,-4.148 0,-5.637 -12.673,-7.852 -12.673,-14.863 0,-3.463 3.058,-5.881 7.362,-5.881 1.327,0 2.292,0.161 3.095,0.321 0.808,0.165 1.451,0.326 2.136,0.326 0.521,0 0.804,-0.123 1.125,-0.491 l 1.006,0 0.884,6.25 -1.205,0 c -1.205,-3.18 -3.7,-5.116 -6.559,-5.116 -2.575,0 -3.94,1.531 -3.94,3.307 0,5.396 12.711,7.006 12.711,14.778 0,4.148 -3.501,6.973 -8.651,6.973 -3.016,0 -4.263,-0.727 -5.388,-0.727 -0.481,0 -0.803,0.122 -1.086,0.447 l -0.965,0 -1.006,-6.974 z"
   inkscape:connector-curvature="0"
   style="fill:#004b84" />

	<path
   id="path3880"
   d="m 152.273,29.722 1.205,0 c 1.007,3.704 3.497,5.798 6.96,5.798 2.935,0 4.99,-1.729 4.99,-4.148 0,-5.637 -12.673,-7.852 -12.673,-14.863 0,-3.463 3.057,-5.881 7.361,-5.881 1.328,0 2.292,0.161 3.096,0.321 0.804,0.165 1.45,0.326 2.131,0.326 0.524,0 0.808,-0.123 1.129,-0.491 l 1.002,0 0.889,6.25 -1.21,0 c -1.205,-3.18 -3.695,-5.116 -6.554,-5.116 -2.579,0 -3.945,1.531 -3.945,3.307 0,5.396 12.711,7.006 12.711,14.778 0,4.148 -3.497,6.973 -8.647,6.973 -3.019,0 -4.262,-0.727 -5.387,-0.727 -0.482,0 -0.804,0.122 -1.087,0.447 l -0.969,0 -1.002,-6.974 z"
   inkscape:connector-curvature="0"
   style="fill:#004b84" />

	<path
   id="path3882"
   d="m 171.83,11.277 11.231,0 0,1.087 c -2.698,0 -3.464,0.604 -3.464,3.463 l 0,15.662 c 0,3.023 0.563,3.827 3.464,3.747 l 0,1.091 -11.231,0 0,-1.091 c 3.18,0.08 3.303,-1.167 3.303,-3.464 l 0,-16.389 c 0,-2.173 -0.524,-3.057 -3.303,-3.019 l 0,-1.087 z"
   inkscape:connector-curvature="0"
   style="fill:#004b84" />

	<path
   id="path3884"
   d="m 190.977,15.827 0,15.464 c 0,3.142 0.402,4.147 4.03,3.945 l 0,1.091 -9.641,0 0,-1.091 c 2.9,0.08 3.387,-0.846 3.387,-3.464 l 0,-18.118 c -0.969,-0.846 -1.856,-1.167 -3.387,-1.29 l 0,-1.087 7.302,0 17.972,18.974 0,-14.424 c 0,-3.019 -0.482,-3.501 -3.992,-3.463 l 0,-1.087 9.764,0 0,1.087 c -2.702,0 -3.548,0.482 -3.548,3.543 l 0,20.665 -2.182,0 -19.705,-20.745 z"
   inkscape:connector-curvature="0"
   style="fill:#004b84" />

	<path
   id="path3886"
   d="m 242.222,34.513 c -4.546,1.814 -7.446,2.461 -10.795,2.461 -8.178,0 -13.611,-5.04 -13.611,-12.613 0,-5.357 3.1,-13.734 14.178,-13.734 3.949,0 6.364,1.091 7.684,1.095 0.52,0 0.803,-0.118 1.044,-0.444 l 1.171,0 0,7.421 -1.209,-0.017 c -0.926,-4.347 -3.784,-6.766 -7.962,-6.766 -6.047,0 -10.03,4.753 -10.03,12 0,8.059 5.032,11.565 9.907,11.565 1.814,0 3.463,-0.444 5.154,-1.332 l 0,-4.795 c 0,-2.778 -0.803,-3.142 -4.79,-3.142 l 0,-1.087 12.037,0 0,1.087 c -2.74,0 -2.778,1.653 -2.778,3.184 l 0,5.117 z"
   inkscape:connector-curvature="0"
   style="fill:#004b84" />

	<path
   id="path3888"
   d="m 50.156,42.708 3.324,0 0,0.321 c -0.867,0 -1.032,0.186 -1.032,1.002 l 0,3.133 c 0,1.553 1.04,2.263 2.503,2.263 1.298,0 2.516,-0.559 2.516,-2.283 l 0,-3.112 c 0,-0.909 -0.177,-1.002 -1.125,-1.002 l 0,-0.321 2.833,0 0,0.321 c -0.888,0 -1.062,0.186 -1.062,1.002 l 0,3.239 c 0,1.831 -1.42,2.884 -3.547,2.884 -2.225,0 -3.417,-1.065 -3.417,-2.965 l 0,-3.276 c 0,-0.711 -0.186,-0.884 -0.994,-0.884 l 0,-0.322 z"
   inkscape:connector-curvature="0"
   style="fill:#007f61" />

	<path
   id="path3890"
   d="m 74.338,44.031 0,4.478 c 0,0.909 0.114,1.201 1.167,1.142 l 0,0.322 -2.795,0 0,-0.323 c 0.842,0.025 0.981,-0.245 0.981,-1.002 l 0,-5.247 C 73.412,43.156 73.154,43.062 72.71,43.029 l 0,-0.321 2.119,0 5.197,5.497 0,-4.174 c 0,-0.875 -0.14,-1.015 -1.154,-1.002 l 0,-0.321 2.833,0 0,0.321 c -0.787,0 -1.032,0.14 -1.032,1.023 l 0,5.983 -0.634,0 -5.701,-6.004 z"
   inkscape:connector-curvature="0"
   style="fill:#007f61" />

	<path
   id="path3892"
   d="m 95.485,42.708 3.26,0 0,0.321 c -0.782,0 -1.006,0.173 -1.006,1.002 l 0,4.537 c 0,0.871 0.165,1.107 1.006,1.082 l 0,0.322 -3.26,0 0,-0.322 c 0.922,0.025 0.956,-0.338 0.956,-1.002 l 0,-4.744 c 0,-0.63 -0.152,-0.888 -0.956,-0.875 l 0,-0.321 z"
   inkscape:connector-curvature="0"
   style="fill:#007f61" />

	<path
   id="path3894"
   d="m 113.575,43.926 c -0.326,-0.804 -0.457,-0.896 -1.205,-0.896 l 0,-0.321 3.603,0 0,0.321 c -0.96,0.013 -1.121,0.254 -1.121,0.499 l 0.186,0.701 1.768,4.33 1.717,-4.131 c 0.211,-0.503 0.271,-0.723 0.271,-0.9 0,-0.385 -0.304,-0.499 -1.053,-0.499 l 0,-0.321 2.837,0 0,0.321 c -0.829,0 -0.981,0.431 -1.354,1.327 l -2.418,5.802 -0.714,0 -2.517,-6.233 z"
   inkscape:connector-curvature="0"
   style="fill:#007f61" />

	<path
   id="path3896"
   d="m 133.969,49.973 0,-0.323 c 0.947,0 1.184,-0.151 1.184,-0.808 l 0,-5.027 c 0,-0.766 -0.389,-0.786 -1.184,-0.786 l 0,-0.321 5.962,0 0.105,1.746 -0.309,0 -0.059,-0.245 c -0.229,-0.951 -0.415,-0.977 -1.167,-0.977 l -2.051,0 0,2.701 1.805,0 c 0.677,0 0.804,-0.08 0.88,-0.875 l 0.317,0 0,2.343 -0.317,0 c -0.085,-0.833 -0.236,-0.938 -0.88,-0.938 l -1.805,0 0,2.14 c 0,0.727 0.093,0.846 0.688,0.846 l 1.294,0 c 1.185,0 1.417,-0.165 1.734,-1.319 l 0.313,0 -0.174,1.844 -6.336,0 z"
   inkscape:connector-curvature="0"
   style="fill:#007f61" />

	<path
   id="path3898"
   d="m 156.308,46.949 1.036,0 c 0.49,0.363 0.664,0.528 1.26,1.124 l 0.617,0.618 c 1.058,1.057 1.633,1.463 3.933,1.403 l 0,-0.324 c -0.973,-0.102 -1.768,-0.571 -2.808,-1.615 l -0.761,-0.762 -0.88,-0.799 c 0.989,-0.406 1.48,-1.04 1.48,-1.903 0,-1.061 -0.813,-2.089 -3.168,-2.089 -0.232,0 -0.808,0 -1.425,0.025 -0.808,0.034 -1.403,0.081 -1.674,0.081 l 0,0.321 c 0.964,0 1.091,0.186 1.091,0.942 l 0,4.673 c 0,0.773 -0.106,1.044 -1.091,1.006 l 0,0.322 3.577,0 0,-0.322 c -1.062,0.038 -1.188,-0.151 -1.188,-1.158 l 0,-1.543 z m 0,-3.975 0.559,-0.046 c 1.272,0 1.898,0.702 1.898,1.882 0,1.188 -0.533,1.784 -2.085,1.856 l -0.372,-0.038 0,-3.654 z"
   inkscape:connector-curvature="0"
   style="fill:#007f61" />

	<path
   id="path3900"
   d="m 176.634,48.053 0.352,0 c 0.291,1.074 1.019,1.679 2.025,1.679 0.862,0 1.458,-0.499 1.458,-1.201 0,-1.637 -3.695,-2.279 -3.695,-4.309 0,-1.007 0.893,-1.7 2.144,-1.7 l 0.905,0.089 0.626,0.093 0.321,-0.14 0.292,0 0.253,1.806 -0.347,0 c -0.351,-0.922 -1.073,-1.479 -1.906,-1.479 -0.753,0 -1.15,0.444 -1.15,0.955 0,1.565 3.695,2.034 3.695,4.288 0,1.201 -1.011,2.021 -2.512,2.021 -0.879,0 -1.243,-0.212 -1.573,-0.212 l -0.313,0.136 -0.283,0 -0.292,-2.026 z"
   inkscape:connector-curvature="0"
   style="fill:#007f61" />

	<path
   id="path3902"
   d="m 195.662,42.708 3.265,0 0,0.321 c -0.787,0 -1.007,0.173 -1.007,1.002 l 0,4.537 c 0,0.871 0.161,1.107 1.007,1.082 l 0,0.322 -3.265,0 0,-0.322 c 0.922,0.025 0.956,-0.338 0.956,-1.002 l 0,-4.744 c 0,-0.63 -0.152,-0.888 -0.956,-0.875 l 0,-0.321 z"
   inkscape:connector-curvature="0"
   style="fill:#007f61" />

	<path
   id="path3904"
   d="m 212.838,42.505 0.321,0 0.187,0.165 0.57,0.038 4.947,0 c 0.597,0 0.689,-0.025 0.762,-0.203 l 0.317,0 0.211,2.013 -0.343,0 c -0.164,-1.214 -0.397,-1.285 -1.099,-1.285 l -1.671,0 0,5.497 c 0,0.795 0.127,0.921 1.354,0.921 l 0,0.322 -4.009,0 0,-0.323 c 1.167,0 1.354,-0.151 1.354,-0.921 l 0,-5.497 -1.671,0 c -0.688,0 -0.926,0.071 -1.099,1.285 l -0.339,0 0.208,-2.012 z"
   inkscape:connector-curvature="0"
   style="fill:#007f61" />

	<path
   id="path3906"
   d="m 235.089,43.972 c -0.584,-0.837 -0.736,-0.909 -1.464,-0.942 l 0,-0.321 3.522,0 0,0.321 c -0.63,0 -0.815,0.127 -0.815,0.338 0,0.152 0.093,0.347 0.397,0.782 l 1.53,2.178 1.332,-2.11 c 0.267,-0.431 0.385,-0.663 0.385,-0.828 0,-0.254 -0.22,-0.359 -0.748,-0.359 l 0,-0.321 2.752,0 0,0.321 c -0.854,0.093 -1.065,0.245 -1.818,1.446 l -1.577,2.541 0,1.619 c 0,0.863 0.14,1.015 1.112,1.015 l 0,0.322 -3.535,0 0,-0.324 c 0.893,0 1.125,-0.08 1.125,-1.048 l 0,-1.48 -2.198,-3.15 z"
   inkscape:connector-curvature="0"
   style="fill:#007f61" />

</g>
  </g>
</svg>
