<?xml version="1.0" encoding="UTF-8" standalone="no"?>
<!-- Created with Inkscape (http://www.inkscape.org/) -->

<svg
   xmlns:dc="http://purl.org/dc/elements/1.1/"
   xmlns:cc="http://creativecommons.org/ns#"
   xmlns:rdf="http://www.w3.org/1999/02/22-rdf-syntax-ns#"
   xmlns:svg="http://www.w3.org/2000/svg"
   xmlns="http://www.w3.org/2000/svg"
   xmlns:sodipodi="http://sodipodi.sourceforge.net/DTD/sodipodi-0.dtd"
   xmlns:inkscape="http://www.inkscape.org/namespaces/inkscape"
   width="123.2475mm"
   height="35.40416mm"
   viewBox="0 0 123.2475 35.40416"
   version="1.1"
   id="svg4302"
   inkscape:version="0.92.0 r15299"
   sodipodi:docname="northtec.svg">
  <defs
     id="defs4296" />
  <sodipodi:namedview
     id="base"
     pagecolor="#ffffff"
     bordercolor="#666666"
     borderopacity="1.0"
     inkscape:pageopacity="0.0"
     inkscape:pageshadow="2"
     inkscape:zoom="1.9413996"
     inkscape:cx="231.0189"
     inkscape:cy="65.015735"
     inkscape:document-units="mm"
     inkscape:current-layer="layer1"
     showgrid="false"
     fit-margin-top="0"
     fit-margin-left="0"
     fit-margin-right="0"
     fit-margin-bottom="0"
     inkscape:window-width="1280"
     inkscape:window-height="744"
     inkscape:window-x="-4"
     inkscape:window-y="-4"
     inkscape:window-maximized="1" />
  <metadata
     id="metadata4299">
    <rdf:RDF>
      <cc:Work
         rdf:about="">
        <dc:format>image/svg+xml</dc:format>
        <dc:type
           rdf:resource="http://purl.org/dc/dcmitype/StillImage" />
        <dc:title></dc:title>
      </cc:Work>
    </rdf:RDF>
  </metadata>
  <g
     inkscape:label="Layer 1"
     inkscape:groupmode="layer"
     id="layer1"
     transform="translate(-61.34054,-143.48247)">
    <g
       id="g4542"
       style="fill:#008896;fill-opacity:1"
       transform="translate(0.49999878,-0.50000114)">
      <path
         d="m 148.55243,157.63615 c 0,-1.61925 -1.36137,-2.57281 -2.97815,-2.57281 -0.63324,0 -1.18181,0.0984 -1.65029,0.33197 -0.55457,0.26246 -1.24143,0.67662 -1.55611,1.19344 h -0.002 v -6.70172 h -3.17535 v 17.69886 h 3.17535 v -8.52452 c 0,-1.11054 0.1965,-2.1784 1.50566,-2.1784 1.30951,0 1.50601,1.06786 1.50601,2.1784 v 8.52452 h 3.17535 z"
         style="fill:#008896;fill-opacity:1;fill-rule:nonzero;stroke:none;stroke-width:0.35277778"
         id="path98"
         inkscape:connector-curvature="0" />
      <path
         d="m 151.39154,152.53181 h 4.20829 v 15.05409 h 3.42582 v -15.05409 h 4.20829 v -2.64477 h -11.8424 z"
         style="fill:#008896;fill-opacity:1;fill-rule:nonzero;stroke:none;stroke-width:0.35277778"
         id="path102"
         inkscape:connector-curvature="0" />
      <path
         d="m 165.0744,159.10565 c 0.0741,-1.05904 0.41487,-2.2225 1.7593,-2.2225 1.83868,0 1.80658,1.8736 1.80658,3.15348 v 0.1778 h -3.58775 v -0.1778 c 0,-0.27234 -10e-4,-0.59725 0.0219,-0.93098 m 1.7593,-4.04213 c -4.4898,0 -4.98157,2.7806 -4.98157,6.22335 0,3.94265 0.59161,6.54862 4.98157,6.54862 1.62207,0 2.82681,-0.44203 3.61139,-1.17793 0.77047,-0.70132 1.20544,-1.71273 1.28623,-2.96686 h -3.2191 c -0.0286,1.00366 -0.32138,2.25037 -1.67852,2.25037 -1.82315,0 -1.78117,-2.72979 -1.78117,-3.92853 v -0.17815 h 6.76804 c 0.10442,-3.95958 -0.47061,-6.77087 -4.98687,-6.77087"
         style="fill:#008896;fill-opacity:1;fill-rule:nonzero;stroke:none;stroke-width:0.35277778"
         id="path106"
         inkscape:connector-curvature="0" />
      <path
         d="m 178.60823,155.06348 c -4.4898,0 -4.98157,2.78059 -4.98157,6.22335 0,3.94265 0.5916,6.54862 4.98157,6.54862 3.16583,0 4.91772,-1.35996 4.97981,-4.54519 h -3.17535 c -0.0374,1.55998 -0.57644,2.65077 -1.80446,2.65077 -1.51271,0 -1.80657,-1.08197 -1.80657,-4.85387 0,-2.53788 0.0903,-4.12926 1.80657,-4.12926 1.22202,0 1.72438,0.73166 1.75507,2.50084 h 3.17465 c -0.0646,-3.05788 -1.81187,-4.39526 -4.92972,-4.39526"
         style="fill:#008896;fill-opacity:1;fill-rule:nonzero;stroke:none;stroke-width:0.35277778"
         id="path110"
         inkscape:connector-curvature="0" />
      <path
         d="m 72.621248,154.47459 6.872817,9.05263 h -9.431514 z m -1.240367,4.56424 3.345392,4.39773 1.28658,-4.39773 z"
         style="fill:#008896;fill-opacity:1;fill-rule:nonzero;stroke:none;stroke-width:0.35277778"
         id="path114"
         inkscape:connector-curvature="0" />
      <path
         d="m 74.372261,154.44591 h 9.582503 l -2.709334,9.11119 z m 3.539419,4.49827 4.63162,-10e-4 -3.383492,-4.40972 z"
         style="fill:#008896;fill-opacity:1;fill-rule:nonzero;stroke:none;stroke-width:0.35277778"
         id="path118"
         inkscape:connector-curvature="0" />
      <path
         d="m 62.043974,162.84664 1.116894,-3.81 H 61.35253 c -0.0081,-0.19121 -0.01199,-0.38347 -0.01199,-0.57644 0,-0.60501 0.03845,-1.20121 0.113242,-1.78576 l 5.202414,6.84918 h -4.3688 c -0.08678,-0.22296 -0.167923,-0.44873 -0.243417,-0.67698"
         style="fill:#008896;fill-opacity:1;fill-rule:nonzero;stroke:none;stroke-width:0.35277778"
         id="path122"
         inkscape:connector-curvature="0" />
      <path
         d="m 61.926552,154.44577 9.177866,-0.001 -2.709686,9.11084 -6.58248,-8.70726 c 0.03634,-0.13476 0.07444,-0.26917 0.1143,-0.40252 m 3.134783,4.49827 4.63162,-0.001 -3.383492,-4.41007 z"
         style="fill:#008896;fill-opacity:1;fill-rule:nonzero;stroke:none;stroke-width:0.35277778"
         id="path126"
         inkscape:connector-curvature="0" />
      <path
         d="m 85.376626,154.45854 3.919361,5.16255 c -0.112183,1.36137 -0.419806,2.66735 -0.894644,3.89008 h -5.583414 z m -1.2319,4.578 3.336925,4.38397 1.275292,-4.38397 z"
         style="fill:#008896;fill-opacity:1;fill-rule:nonzero;stroke:none;stroke-width:0.35277778"
         id="path130"
         inkscape:connector-curvature="0" />
      <path
         d="m 87.133644,154.4548 1.626306,-0.002 c 0.275166,0.92039 0.458258,1.88065 0.537986,2.86984 z"
         style="fill:#008896;fill-opacity:1;fill-rule:nonzero;stroke:none;stroke-width:0.35277778"
         id="path134"
         inkscape:connector-curvature="0" />
      <path
         d="m 72.013024,169.26286 2.391833,3.14396 c -1.094669,-0.0723 -2.154766,-0.26988 -3.166533,-0.57891 l 2.015067,-7.12964 5.549194,7.3092 c -0.990247,0.25118 -2.022828,0.39723 -3.085042,0.42545 l 0.927453,-3.17006 z"
         style="fill:#008896;fill-opacity:1;fill-rule:nonzero;stroke:none;stroke-width:0.35277778"
         id="path138"
         inkscape:connector-curvature="0" />
      <path
         d="m 75.010515,164.6947 9.577916,-3.5e-4 -1.639005,5.50227 c -0.856544,0.55422 -1.777294,1.01777 -2.748844,1.37654 z m 3.491089,4.46828 h 4.66478 l -3.374319,-4.38996 z"
         style="fill:#008896;fill-opacity:1;fill-rule:nonzero;stroke:none;stroke-width:0.35277778"
         id="path142"
         inkscape:connector-curvature="0" />
      <path
         d="m 66.341707,169.16771 3.983567,-7.1e-4 -3.383845,-4.41007 -1.118658,3.95358 c -1.2319,-1.14053 -2.257778,-2.50014 -3.015897,-4.01602 l 8.915752,-3.5e-4 -1.9558,6.59165 c -1.246363,-0.54081 -2.398536,-1.2573 -3.425119,-2.11808"
         style="fill:#008896;fill-opacity:1;fill-rule:nonzero;stroke:none;stroke-width:0.35277778"
         id="path146"
         inkscape:connector-curvature="0" />
      <path
         d="m 84.872224,168.70032 1.131358,-4.00614 1.873603,3.5e-4 c -0.756003,1.51165 -1.778,2.86702 -3.004961,4.00579"
         style="fill:#008896;fill-opacity:1;fill-rule:nonzero;stroke:none;stroke-width:0.35277778"
         id="path150"
         inkscape:connector-curvature="0" />
      <path
         d="m 71.540822,145.0035 6.188075,8.15093 h -9.431161 l 2.209094,-7.81614 c 0.338667,-0.12453 0.683684,-0.23637 1.033992,-0.33479 m -1.925108,3.66289 3.345744,4.39702 1.286581,-4.39702 z"
         style="fill:#008896;fill-opacity:1;fill-rule:nonzero;stroke:none;stroke-width:0.35277778"
         id="path154"
         inkscape:connector-curvature="0" />
      <path
         d="m 76.146954,148.58733 4.631619,-0.001 -2.984852,-3.89043 c 1.35643,0.23918 2.64548,0.6731 3.837163,1.27247 l -2.150533,7.23053 -6.435725,-8.52946 c 0.747536,-0.12312 1.514828,-0.18697 2.297289,-0.18697 0.654756,0 1.298928,0.0448 1.929342,0.13158 z"
         style="fill:#008896;fill-opacity:1;fill-rule:nonzero;stroke:none;stroke-width:0.35277778"
         id="path158"
         inkscape:connector-curvature="0" />
      <path
         d="m 63.389169,151.17675 1.489428,1.96144 h -2.487789 c 0.282222,-0.68262 0.616303,-1.33808 0.998361,-1.96144"
         style="fill:#008896;fill-opacity:1;fill-rule:nonzero;stroke:none;stroke-width:0.35277778"
         id="path162"
         inkscape:connector-curvature="0" />
      <path
         d="m 65.430535,148.58715 h 2.504017 l -0.999773,-1.30563 c 0.56515,-0.42404 1.163109,-0.80645 1.789995,-1.14265 l -2.094795,7.04392 -2.417938,-3.20428 c 0.375355,-0.49037 0.782461,-0.95497 1.218494,-1.39136"
         style="fill:#008896;fill-opacity:1;fill-rule:nonzero;stroke:none;stroke-width:0.35277778"
         id="path166"
         inkscape:connector-curvature="0" />
      <path
         d="m 82.371303,148.65023 3.345392,4.39737 0.858308,-2.93334 c 0.691797,0.92639 1.271058,1.94098 1.718028,3.02401 h -7.240059 l 1.825978,-6.46007 c 0.885472,0.56551 1.702859,1.22802 2.437342,1.97203 z"
         style="fill:#008896;fill-opacity:1;fill-rule:nonzero;stroke:none;stroke-width:0.35277778"
         id="path170"
         inkscape:connector-curvature="0" />
      <path
         d="m 99.287995,154.38227 -3.53e-4,-0.94544 0.352425,0.94544 4.934653,13.20341 h 4.68277 v -17.6985 h -3.17535 v 12.50279 l 0.001,0.90664 -0.35207,-0.90664 -4.80942,-12.50279 h -4.809418 v 17.6985 h 3.175353 z"
         style="fill:#008896;fill-opacity:1;fill-rule:nonzero;stroke:none;stroke-width:0.35277778"
         id="path174"
         inkscape:connector-curvature="0" />
      <path
         d="m 114.74548,161.08656 c 0,3.7719 0.29351,4.85422 1.80657,4.85422 1.51307,0 1.80623,-1.08232 1.80623,-4.85422 0,-2.53753 -0.09,-4.12926 -1.80623,-4.12926 -1.71661,0 -1.80657,1.59173 -1.80657,4.12926 m 6.78815,0.20002 c 0,3.94265 -0.59161,6.54862 -4.98158,6.54862 -4.39031,0 -4.98157,-2.60597 -4.98157,-6.54862 0,-3.44275 0.49142,-6.2237 4.98157,-6.2237 4.48981,0 4.98158,2.78095 4.98158,6.2237"
         style="fill:#008896;fill-opacity:1;fill-rule:nonzero;stroke:none;stroke-width:0.35277778"
         id="path178"
         inkscape:connector-curvature="0" />
      <path
         d="m 123.6453,167.58572 v -12.27243 h 3.00002 l -7e-4,1.6256 c 0.60819,-1.35467 1.90782,-1.83551 3.33234,-1.87325 l 2.25283,0.002 v -1.81716 l 3.17571,-1.41605 v 3.23321 h 1.82845 v 2.78201 h -1.82845 v 6.21347 c 0,0.97049 -0.0138,1.75295 1.30528,1.75295 0.11641,0 0.23248,0 0.34219,-0.006 l 0.10584,-0.008 v 1.80304 c -0.42687,0.048 -0.9017,0.1069 -1.6503,0.1069 -2.98027,0 -3.27872,-1.24178 -3.27872,-1.89689 v -7.96466 h -2.25813 c -3.09315,0.002 -3.15065,1.79175 -3.15065,3.03777 v 6.69854 z"
         style="fill:#008896;fill-opacity:1;fill-rule:nonzero;stroke:none;stroke-width:0.35277778"
         id="path182"
         inkscape:connector-curvature="0" />
      <path
         d="m 97.586459,178.76659 h 0.548569 v -5.71747 h 1.508831 v -0.46214 h -3.566231 v 0.46214 h 1.508831 z"
         style="fill:#008896;fill-opacity:1;fill-rule:nonzero;stroke:none;stroke-width:0.35277778"
         id="path186"
         inkscape:connector-curvature="0" />
      <path
         d="m 101.78654,172.58708 -1.954742,6.17961 h 0.548572 l 0.48895,-1.62631 h 2.4264 l 0.49707,1.62631 h 0.57432 l -1.92899,-6.17961 z m -0.75459,4.09116 1.04598,-3.49214 h 0.0173 l 1.05445,3.49214 z"
         style="fill:#008896;fill-opacity:1;fill-rule:nonzero;stroke:none;stroke-width:0.35277778"
         id="path190"
         inkscape:connector-curvature="0" />
      <path
         inkscape:connector-curvature="0"
         id="path192"
         style="fill:#008896;fill-opacity:1;fill-rule:nonzero;stroke:none;stroke-width:0.35277778"
         d="m 105.54922,178.76649 h 0.54892 v -6.17962 h -0.54892 z" />
      <path
         d="m 111.0768,178.76659 h 0.54892 v -5.71747 h 1.50848 v -0.46214 h -3.56623 v 0.46214 h 1.50883 z"
         style="fill:#008896;fill-opacity:1;fill-rule:nonzero;stroke:none;stroke-width:0.35277778"
         id="path196"
         inkscape:connector-curvature="0" />
      <path
         d="m 114.70244,175.67685 c 0,-1.64324 0.0173,-2.74743 1.32045,-2.74743 1.30316,0 1.32044,1.10419 1.32044,2.74743 0,1.64324 -0.0173,2.74743 -1.32044,2.74743 -1.30316,0 -1.32045,-1.10419 -1.32045,-2.74743 m -0.54857,0 c 0,1.66899 0.0169,3.20957 1.86902,3.20957 1.85173,0 1.86901,-1.54058 1.86901,-3.20957 0,-1.66899 -0.0173,-3.20957 -1.86901,-3.20957 -1.85209,0 -1.86902,1.54058 -1.86902,3.20957"
         style="fill:#008896;fill-opacity:1;fill-rule:nonzero;stroke:none;stroke-width:0.35277778"
         id="path200"
         inkscape:connector-curvature="0" />
      <path
         d="m 120.00842,178.76659 v -3.16689 h 0.0173 l 2.23767,3.16689 h 0.6858 l -2.38337,-3.2953 2.31493,-2.88431 h -0.6604 l -2.19463,2.83316 h -0.0173 v -2.83316 h -0.54857 v 6.17961 z"
         style="fill:#008896;fill-opacity:1;fill-rule:nonzero;stroke:none;stroke-width:0.35277778"
         id="path204"
         inkscape:connector-curvature="0" />
      <path
         d="m 124.10708,172.58708 v 6.17961 h 2.8635 v -0.46214 H 124.656 v -2.48215 h 2.15159 v -0.46213 H 124.656 v -2.31105 h 2.2546 v -0.46214 z"
         style="fill:#008896;fill-opacity:1;fill-rule:nonzero;stroke:none;stroke-width:0.35277778"
         id="path208"
         inkscape:connector-curvature="0" />
      <path
         d="m 129.82462,175.77091 c 1.19168,0 1.01177,1.18957 1.02023,1.45521 0.008,0.33373 0.0346,1.36066 0.0857,1.54058 h 0.52317 c -0.0173,-0.23989 -0.06,-0.47943 -0.06,-0.71896 0,-2.20839 -0.0519,-2.31105 -0.91758,-2.49061 v -0.0173 c 0.8315,-0.18838 0.96026,-0.70167 0.96026,-1.47214 0,-1.08691 -0.29986,-1.48061 -1.4919,-1.48061 h -1.70603 v 6.17961 h 0.54892 v -2.99579 z m -1.03717,-2.72168 h 1.12289 c 0.64312,0 0.97755,0.16263 0.97755,1.01 0,1.03576 -0.38594,1.24954 -1.20897,1.24954 h -0.89147 z"
         style="fill:#008896;fill-opacity:1;fill-rule:nonzero;stroke:none;stroke-width:0.35277778"
         id="path212"
         inkscape:connector-curvature="0" />
      <path
         d="m 134.39471,172.58708 -1.95474,6.17961 h 0.54892 l 0.4886,-1.62631 h 2.4264 l 0.49707,1.62631 h 0.57467 l -1.92934,-6.17961 z m -0.75424,4.09116 1.04563,-3.49214 h 0.0173 l 1.05445,3.49214 z"
         style="fill:#008896;fill-opacity:1;fill-rule:nonzero;stroke:none;stroke-width:0.35277778"
         id="path216"
         inkscape:connector-curvature="0" />
      <path
         d="m 138.60344,172.58708 h -0.54892 v 4.28801 c 0,1.59209 0.84031,2.01154 1.80904,2.01154 0.96908,0 1.80905,-0.41945 1.80905,-2.01154 v -4.28801 h -0.54857 v 3.88585 c 0,0.80433 0,1.95156 -1.26048,1.95156 -1.26012,0 -1.26012,-1.14723 -1.26012,-1.95156 z"
         style="fill:#008896;fill-opacity:1;fill-rule:nonzero;stroke:none;stroke-width:0.35277778"
         id="path220"
         inkscape:connector-curvature="0" />
      <path
         d="m 146.85743,178.04767 h -0.0169 l -1.25166,-5.46065 h -0.58314 l 1.4919,6.17961 h 0.6858 l 1.2774,-5.49487 h 0.0173 l 1.24284,5.49487 h 0.72037 l 1.53458,-6.17961 h -0.5401 l -1.32045,5.41761 h -0.0169 l -1.24319,-5.41761 h -0.73731 z"
         style="fill:#008896;fill-opacity:1;fill-rule:nonzero;stroke:none;stroke-width:0.35277778"
         id="path224"
         inkscape:connector-curvature="0" />
      <path
         d="m 154.16872,172.58708 -1.95474,6.17961 h 0.54892 l 0.4886,-1.62631 h 2.4264 l 0.49707,1.62631 h 0.57432 l -1.92899,-6.17961 z m -0.75424,4.09116 1.04563,-3.49214 h 0.0173 l 1.05445,3.49214 z"
         style="fill:#008896;fill-opacity:1;fill-rule:nonzero;stroke:none;stroke-width:0.35277778"
         id="path228"
         inkscape:connector-curvature="0" />
      <path
         d="m 158.46317,178.76659 v -5.46911 l 0.0173,-0.0173 2.52024,5.4864 h 0.83185 v -6.17961 h -0.54892 v 5.40914 l -0.0169,0.0173 -2.51177,-5.42643 h -0.84032 v 6.17961 z"
         style="fill:#008896;fill-opacity:1;fill-rule:nonzero;stroke:none;stroke-width:0.35277778"
         id="path232"
         inkscape:connector-curvature="0" />
      <path
         d="m 164.94369,172.58708 -1.95439,6.17961 h 0.54857 l 0.4886,-1.62631 h 2.4264 l 0.49707,1.62631 h 0.57467 l -1.92899,-6.17961 z m -0.75424,4.09116 1.04563,-3.49214 h 0.0173 l 1.05445,3.49214 z"
         style="fill:#008896;fill-opacity:1;fill-rule:nonzero;stroke:none;stroke-width:0.35277778"
         id="path236"
         inkscape:connector-curvature="0" />
      <path
         d="m 169.2382,178.76659 v -5.46911 l 0.0169,-0.0173 2.5206,5.4864 h 0.83185 v -6.17961 h -0.54857 v 5.40914 l -0.0173,0.0173 -2.51213,-5.42643 h -0.83996 v 6.17961 z"
         style="fill:#008896;fill-opacity:1;fill-rule:nonzero;stroke:none;stroke-width:0.35277778"
         id="path240"
         inkscape:connector-curvature="0" />
      <path
         d="m 177.19337,178.24444 c -0.29139,0.11148 -0.6858,0.17992 -1.15746,0.17992 -1.33738,0 -1.32045,-1.18992 -1.32045,-2.74744 0,-1.55786 -0.0169,-2.74743 1.32045,-2.74743 0.86607,0 1.21743,0.42792 1.21743,1.24107 h 0.54892 c 0.0258,-1.19838 -0.58314,-1.70321 -1.76635,-1.70321 -2.01472,0 -1.86902,2.01119 -1.86902,3.20957 0,1.19839 -0.1457,3.20958 1.86902,3.20958 0.58314,0 1.15746,-0.0857 1.70638,-0.25683 v -3.08998 h -1.80058 v 0.46249 h 1.25166 z"
         style="fill:#008896;fill-opacity:1;fill-rule:nonzero;stroke:none;stroke-width:0.35277778"
         id="path244"
         inkscape:connector-curvature="0" />
      <path
         d="m 180.87042,172.58708 -1.95474,6.17961 h 0.54892 l 0.4886,-1.62631 h 2.4264 l 0.49707,1.62631 h 0.57467 l -1.92899,-6.17961 z m -0.75424,4.09116 1.04563,-3.49214 h 0.0173 l 1.05445,3.49214 z"
         style="fill:#008896;fill-opacity:1;fill-rule:nonzero;stroke:none;stroke-width:0.35277778"
         id="path248"
         inkscape:connector-curvature="0" />
      <path
         inkscape:connector-curvature="0"
         id="path250"
         style="fill:#008896;fill-opacity:1;fill-rule:nonzero;stroke:none;stroke-width:0.35277778"
         d="m 152.94844,171.27631 h 3.06529 v 0.42156 h -3.06529 z" />
    </g>
  </g>
  <style
     id="style4544">.st1{fill:#fff}</style>
</svg>
