<?xml version="1.0" encoding="utf-8"?>
<svg xmlns="http://www.w3.org/2000/svg" width="300px" height="130px">
<path fill="#4780B5" d="M278.79,104.43l-3.2,5.2l-3.2,5.8l-3-5.6l-3.2-5.4h-4.6v0.4l8.81,14.21v10.01h4v-10.01l8.81-14.21v-0.4H278.79z M254.17,104.43h-18.21v3.8h7v20.61h4v-20.81h7v-3.6H254.17z M215.74,128.84h11.81v-3.2h-3.8v-18.01h3.6v-3.2h-11.21v3.2h3.6v18.01h-3.8v3.2H215.74z M197.13,129.24c5.8,0,9.61-2.8,9.61-7.4c0-4-3-6.4-9.41-7.2c-4-0.4-5.6-1.4-5.6-3.6c0-2,1.8-3.2,5-3.2c3.4,0,5,1.4,5.4,3.6h3.8c-0.4-4.4-3.8-7.4-9.21-7.4c-5.6,0-9.21,2.8-9.21,7c0,4.2,3,6.6,9.01,7.2c4.2,0.4,6,1.6,6,3.6c0,2.2-2.2,3.6-5.6,3.6c-3.6,0-5.6-1.4-5.8-4h-4C187.53,126.04,191.13,129.24,197.13,129.24z M162.31,107.83h6c2.8,0,4.6,1.6,4.6,4.4c0,2.8-1.6,4.4-4.6,4.4h-6V107.83z M172.11,119.84c3.2-1.2,5-3.8,5-7.61c0-4.8-3.4-7.81-8.41-7.81h-10.21v24.42h4v-8.41h5.6l6,8.41h4.6v-0.2L172.11,119.84z M135.69,125.24v-7h10.21v-3.6h-10.21v-6.4h10.81v-3.8h-14.81v24.42h15.21v-3.8h-11.21V125.24z M117.48,104.43l-3.6,8.41l-3.2,9.01l-3.4-9.01l-3.6-8.61h-4.4v0.4l10.61,24.42h1.4l10.61-24.42v-0.4h-4.4V104.43z M79.25,128.84h11.81v-3.2h-3.8v-18.01h3.6v-3.2H79.65v3.2h3.4v18.01h-3.8V128.84z M64.44,104.43v9.01l0.2,7.2l-14.81-16.21h-1.4v24.42h4v-8.81l-0.2-7.4l14.81,16.21h1.4v-24.42H64.44z M26.62,129.24c5.8,0,9.41-3.8,9.41-9.61v-15.21h-4v15.41c0,3.6-2,5.8-5.4,5.8s-5.6-2.2-5.6-5.8v-15.41h-4v15.21C17.01,125.44,20.81,129.24,26.62,129.24z"/>
<path fill="#002D73" d="M265.98,69.4V55.79h29.42V35.78h-29.42V22.77H298V2.16h-54.84v87.66H299V69.4H265.98z M191.93,91.22c24.02,0,39.23-14.01,43.23-34.82h-22.62c-3.2,8.01-10.21,13.01-19.81,13.01c-13.01,0-21.61-9.41-21.61-23.42c0-14.21,8.61-23.42,21.61-23.42c8.81,0,15.61,4.2,19.01,11.41h22.82c-4.6-20.01-19.41-33.22-42.63-33.22c-25.82,0-44.03,18.61-44.03,45.23S166.11,91.22,191.93,91.22z M105.47,37.58L113.28,59H97.06L105.47,37.58z M110.47,1.16h-10.01L59.24,88.62v1.2h24.62l4.8-11.21h33.02l5,11.21h24.62v-1.2L110.47,1.16z M37.22,45.99H24.02V21.97h13.21c7.4,0,11.81,4.2,11.81,11.81S44.63,45.99,37.22,45.99z M39.43,2.16H1v87.66h23.02V65.6h15.61c19.61,0,32.82-12.61,32.82-31.82C72.25,14.77,59.44,2.16,39.43,2.16z"/>
</svg>