<svg xmlns="http://www.w3.org/2000/svg" height="114.63" width="248" viewBox="0 0 250 116.63">
 <g transform="matrix(0.496 0 0 0.496 .88079 1.1197)">
  <path fill="#3f1a0a" d="m355.73 0c-40.079 0-72.568 32.488-72.568 72.566 0 40.079 32.488 72.568 72.568 72.568 40.078 0 72.568-32.489 72.568-72.568 0-40.074-32.49-72.562-72.57-72.562zm-323.84 52.316c-3.059 0-6.9954 0.51562-12.898 0.51562-5.774 0-15.138-0.20367-18.098-0.51367-0.568-0.089-0.87362 0.2765-0.89062 0.6875-0.02 0.454 0.25462 0.67755 0.89062 0.81055 1.321 0.311 2.776 0.46772 4.084 0.63672 1.313 0.17 2.4104 0.34864 3.0684 0.68164 0.66 0.309 1.3691 3.1448 1.3691 34.383 0 31.11-0.69967 33.877-1.3887 34.283-0.651 0.378-1.7329 0.55394-3.0469 0.71094-1.307 0.156-2.762 0.28665-4.084 0.59766-0.636 0.132-0.91062 0.39951-0.89062 0.85351 0.016 0.405 0.314 0.73234 0.875 0.65234 2.944-0.308 8.3967-0.41015 14.178-0.41015 5.767 0 12.294 0.10025 15.359 0.40625 0.558 0.106 0.79945-0.271 0.81445-0.625 0.018-0.423-0.20559-0.734-0.80859-0.875-1.376-0.313-2.7796-0.44461-4.0176-0.59961-1.24-0.157-2.2455-0.33194-2.8965-0.71094-0.691-0.407-1.2806-2.2525-1.3906-29.437 0-0.881 0.09152-1.0461 0.60352-1.2891 0.364-0.17 1.1518-0.17774 2.1738-0.17774 0.523 0 1.0107 0.02894 1.4727 0.08594 3.112 0.413 4.5294 1.6248 5.4844 3.7598l0.16797 0.43945c8.094 19.688 19.045 32.625 41.359 32.625 0.795 0 0.80859-0.23109 0.68359-0.62109-0.065-0.206-0.17688-0.42903-0.29688-0.58203-0.058-0.076-0.12817-0.15199-0.20117-0.20899-0.067-0.051-0.17559-0.11914-0.30859-0.11914-10.218 0-24.322-21.388-31.42-37.307-0.031-0.106-0.03644-0.20816 0.10156-0.41016 10.229-2.46 18.326-10.418 18.326-18.982 0-12.111-11.282-19.26-28.375-19.26zm-1.9668 3.25c11.497 0 15.783 6.9459 15.783 16.422 0 8.191-4.4362 17.758-14.908 17.758-6.467 0-6.7466-0.000828-8.0176-0.29883-0.566-0.154-0.66211-0.47492-0.66211-1.1699 0-25.939 0.58972-31.116 1.5117-31.727 1.338-0.874 2.776-0.98438 6.293-0.98438zm211.09 20.524c-0.20058 0.0064-0.42291 0.09081-0.66016 0.28906-3.475 2.713-9.9797 6.5083-15.18 8.0293-0.629 0.125-1.2942 0.91775 0.13476 1.0938 2.578 0.216 3.28 0.63008 4.207 1.4551 0.874 0.874 1.2227 2.7676 1.2227 15.975 0 19.179-0.59492 20.656-1.1699 20.986-0.608 0.353-1.2996 0.51244-2.1836 0.64844-0.893 0.136-1.9401 0.24748-3.2031 0.52148-0.579 0.145-0.8286 0.4005-0.8086 0.8125 0.015 0.355 0.27621 0.67666 0.78321 0.59766 2.729-0.218 6.9824-0.32617 12.439-0.32617 4.683 0 8.4978 0.10817 12.094 0.32617 0.515 0.106 0.70703-0.30566 0.70703-0.59766 0-0.401-0.23836-0.6675-0.81836-0.8125-1.211-0.274-2.2313-0.38448-3.1113-0.52148-0.869-0.136-1.5571-0.29349-2.1641-0.64649-0.283-0.178-0.49023-0.79472-0.61523-3.6367-0.123-2.773-0.17585-7.8524-0.33985-17.357l-0.22-11.61c0-1.218 0.28486-1.9973 1.1309-2.9473 2.031-2.247 5.019-3.9492 8.75-3.9492 5.809 0 8.4647 3.5096 8.6797 10.516 0.66 22.901-0.16897 28.432-1.168 28.977-0.619 0.362-1.1385 0.51934-1.8145 0.65234-0.699 0.137-1.5495 0.24748-2.8105 0.52148-0.579 0.145-0.82664 0.39855-0.80664 0.81055 0.017 0.355 0.27525 0.67661 0.78125 0.59961 3.165-0.218 6.6557-0.32617 11.678-0.32617 5.434 0 9.5683 0.10426 12.404 0.32226 0.529 0.104 0.79836-0.18292 0.81836-0.54492 0.018-0.412-0.2296-0.71633-0.8086-0.86133-1.264-0.274-2.3131-0.38448-3.2051-0.52148-0.881-0.135-1.6605-0.1943-2.1895-0.6543-0.757-0.656-1.1621-4.8475-1.1621-30.729 0-9.17-4.6624-16.654-14.273-16.654-6.256 0-11.803 4.7923-16.393 10.361-0.057 0.003-0.14528-0.0062-0.23828-0.03516-0.094-0.027-0.17291-0.06677-0.25391-0.13477 0.108-4.028 0.55244-8.2261 0.77344-9.5781 0-0.39375-0.40413-1.0738-1.0059-1.0547zm-37.805 1.668c-8.549 0-20.318 7.3389-20.547 13.17-0.118 2.358 1.1539 4.998 4.5859 4.998 3.24 0 5.6757-2.772 6.0117-7.918 0.32-4.826 3.4427-6.7285 7.7227-6.7285 4.541 0 6.3828 2.7948 6.3828 10.426v5.4453c-0.114 1.713-0.23886 2.6337-1.0059 2.8887-3.801 1.176-7.2982 2.2167-10.408 3.2617-3.116 1.047-5.856 2.1034-8.125 3.3164-4.548 2.433-7.2422 5.519-7.2422 10.418 0 5.745 4.6229 10.559 11.545 10.559 6.231 0 10.787-3.4596 14.074-6.3086 0.174-0.173 0.39911-0.14694 0.53711 0.0391 1.249 3.136 4.9362 6.1602 8.4512 6.1602 4.807 0 7.3144-2.1145 8.5664-4.7285 0.201-0.351 0.11201-0.79398-0.084-0.95898-0.225-0.19001-0.61865-0.36738-0.93165 0.0156-0.06 0.053-0.26737 0.33133-0.48437 0.48633-0.457 0.322-0.62281 0.35937-1.3828 0.35937-2.011 0-2.7754-1.787-2.7754-4.748 0-8.309 0.98437-17.788 0.98437-26.205 0-9.375-7.01-13.947-15.875-13.947zm-114.7 0.07813c-14.253 0-24.988 10.397-24.988 24.441 0 13.806 9.1848 25.207 25.424 25.207 14.347 0 25.098-9.7291 25.098-23.787 0-13.906-9.2872-25.861-25.533-25.861zm77.81 0.976c-0.41661 0.03559-0.6133 0.49203-0.63867 0.78516-0.036 0.391 0.14637 0.45311 0.73437 0.53711 5.098 0.68 7.1875 1.9063 7.1875 2.9043 0 2.088-3.0462 11.068-9.7402 28.424-2.803-9.074-5.359-16.033-7.127-20.965-1.855-5.174-2.741-8.3647-2.375-9.0977 0.08-0.16 0.30223-0.31531 0.74023-0.44531 0.437-0.128 0.99452-0.20548 1.6035-0.27148 0.63-0.069 1.3134-0.12512 1.9844-0.20312 0.685-0.081 1.3554-0.18652 1.9434-0.35352 0.541-0.156 0.73427-0.25934 0.69727-0.65234-0.034-0.343-0.2936-0.7443-0.8086-0.6543-2.835 0.326-8.504 0.43555-13.957 0.43555-5.559 0-7.6295-0.10855-10.605-0.43555-0.538 0-1.4856 0.95555-0.0586 1.3105 1.415 0.273 2.2633 0.41027 2.9453 0.57227 0.657 0.16 1.1524 0.33884 1.9004 0.71484 1.075 0.585 3.4202 6.3936 6.4922 14.725-2.327 5.07-4.458 9.4506-8.082 17.311-3.353-8.797-6.4823-16.25-8.6973-21.75-2.298-5.699-3.51-9.5457-3.209-10.303 0.201-0.401 0.67734-0.57875 1.5273-0.71875 0.843-0.137 1.8881-0.21974 2.9941-0.55274 0.576-0.144 0.82321-0.28403 0.78321-0.70703-0.039-0.403-0.36244-0.68766-0.89844-0.59766-2.725 0.325-7.4058 0.43359-12.967 0.43359-5.448 0-7.8463-0.1105-10.822-0.4375-0.54 0-1.4856 0.95555-0.0606 1.3105 1.421 0.274 2.5218 0.43919 3.4648 0.61719 0.935 0.178 1.7119 0.36459 2.5059 0.68359 1.044 0.379 3.5901 6.5149 6.9961 15.17 3.361 8.54 7.486 19.71 11.748 30.693 0.311 0.932 3.2766 1.0963 3.8086-0.0957 3.604-9.008 8.9557-20.177 12.264-26.82 2.682 7.585 5.7651 17.66 8.9531 26.908 0.299 0.896 3.4003 1.1605 3.8203-0.10547 8.458-23.17 16.825-44.294 19.963-45.758 0.783-0.364 1.5171-0.52483 2.4121-0.67383 0.909-0.15 1.9541-0.28709 3.3301-0.62109 0.592-0.147 0.8051-0.16894 0.7461-0.58594-0.052-0.355-0.35071-0.80766-0.84571-0.72266-2.831 0.326-3.1576 0.43555-8.6016 0.43555-5.326 0-9.0274-0.10864-11.859-0.43164-0.0686-0.01375-0.13189-0.0168-0.19141-0.01172zm-78.344 2c9.751 0 13.159 10.919 13.16 23.76 0 12.051-3.1785 20.045-11.52 20.045-9.644 0-13.051-10.486-13.051-23.213 0-12.063 3.1842-20.592 11.41-20.592zm118.78 21.736c0.20293 0.0355 0.29493 0.19276 0.29493 0.38476 0 2.618-0.21635 10.909-0.65235 14.289-0.093 1.013-3.0997 4.7734-8.1367 4.7734-2.89 0-5.3984-2.0444-5.3984-6.2734 0-7.138 2.5813-10.341 13.652-13.166 0.0933-0.0182 0.17259-0.0196 0.24023-0.008zm-109.91 31.45c-0.533 0-0.74648 1.1679 0.10352 1.3809 2.659 0.638 5.74 0.63781 7.123 1.3828 0.851 0.53101 1.3828-4.1127 1.3828 39.906 0 17.65 10.563 29.877 28.746 29.877 16.48 0 27.68-10.844 27.998-28.92 0.639-42.957 0.63767-39.375 2.7637-40.545 1.383-0.745 5.8518-1.0632 8.5078-1.7012 0.851-0.212 0.63747-1.3809 0.10547-1.3809-2.872 0.318-5.9548 0.53125-11.59 0.53125-5.742 0-9.6754-0.21325-12.652-0.53125-0.533 0-0.63911 1.1698 0.21289 1.3828 2.551 0.638 6.3797 0.95617 7.7617 1.7012 1.382 0.851 2.0212-3.2635 1.7012 39.48-0.213 17.863-9.4985 25.307-20.77 25.307-13.187 0-23.961-6.1667-23.961-27.221 0-39.555 0.63982-37.463 1.3828-37.887 1.382-0.745 4.2536-0.74481 6.8066-1.3828 0.851-0.213 0.74447-1.3809 0.10547-1.3809-2.87 0.318-7.0183 0.5293-12.654 0.5293-5.741 0-10.098-0.2113-13.074-0.5293zm133.04 5.7559c-2.978 0-5.7422 2.3384-5.7422 5.5274 0 2.765 2.2321 4.5723 4.9961 4.5723 3.191 0.001 5.4238-2.445 5.4238-5.209 0-2.871-1.9127-4.8906-4.6777-4.8906zm177.68 0c-2.977 0-5.7422 2.3384-5.7422 5.5274 0 2.765 2.234 4.5723 4.998 4.5723 3.192 0.001 5.4238-2.445 5.4238-5.209 0-2.871-1.9147-4.8906-4.6797-4.8906zm25.562 9.3574c-0.31825-0.0256-0.62615 0.0585-0.78515 0.33789-3.082 6.061-8.398 10.951-15.416 12.652-0.746 0.212-0.74584 2.2324-0.21484 2.2324 2.553-0.213 5.4247-0.104 8.7207 0 0 3.404-0.21289 19.673-0.21289 28.393 0 7.016 1.8075 13.076 11.27 13.076 4.361 0 10.102-2.5503 12.654-5.5273 0.213-0.215-0.21267-1.1695-0.63867-0.85352-2.339 1.807-5.2108 2.6602-8.5078 2.6602-5.636 0-7.2305-4.1472-7.2305-10.74 0-8.293 0.21289-22.117 0.21289-27.113 7.552 0 6.7994 0.21378 10.732 0.42578 1.382 0.108 1.2749-5.317 0.21094-5.209-3.934 0.211-2.0111 0.42383-9.4531 0.42383-0.746 0-0.95703-0.31872-0.95703-0.63672 0.107-3.934 0.53172-8.1878 0.63672-9.4648 0.0662-0.265-0.49106-0.61366-1.0215-0.65625zm-252.06 7.4746c-0.13955 0.009-0.29142 0.0679-0.45117 0.20118-3.403 2.658-7.1255 6.3782-12.229 7.8672-0.531 0.108-0.74353 0.84903 0.10547 0.95703 2.551 0.212 3.8302 0.63733 4.7852 1.4863 0.957 0.958 1.2754 2.3416 1.2754 15.1 0 18.502-0.53139 19.887-1.2754 20.311-1.275 0.746-3.4036 0.63897-5.8496 1.168-0.849 0.214-0.63647 1.2778-0.10547 1.1738 2.66-0.213 5.7416-0.32227 11.059-0.32227 4.572 0 7.2312 0.10927 10.74 0.32227 0.424 0.104 0.63711-0.95983-0.21289-1.1738-2.339-0.529-4.1479-0.42197-5.4219-1.168-0.851-0.531-0.95934-1.8086-1.2773-20.311l-0.21289-10.312c0-1.275 0.21445-1.8087 1.0644-2.7637 2.765-3.085 5.7404-5.3164 10.525-5.3164 6.059 0 9.8906 2.5518 10.102 9.6738 0.639 22.117-0.10735 28.394-1.2774 29.029-1.275 0.746-2.6576 0.63897-5.1016 1.168-0.851 0.214-0.64042 1.2778-0.10742 1.1738 3.084-0.213 5.4205-0.32227 10.312-0.32227 5.317-0.001 8.2945 0.10731 11.061 0.32031 0.0406 0.008 0.0967-0.004 0.14844-0.01 0.0355 0.002 0.0818 0.0152 0.10938 0.01 2.765-0.213 5.7425-0.32031 11.061-0.32031 4.892 0 7.9736 0.10731 11.059 0.32031 0.533 0.104 0.74358-0.95787-0.10743-1.1719-2.337-0.529-4.5722-0.42392-5.7422-1.1699-0.955-0.531-1.5949-1.8066-1.3809-20.309l0.21289-15.629c0-3.829-0.21211-7.6571 0.21289-9.0391 0.106-0.426-0.53392-1.1711-1.1699-0.74414-3.403 2.338-7.9741 5.6378-13.078 6.5938-0.426 0.106-0.64006 0.74208 0.21094 0.95508 2.444 0.429 3.7208 1.0635 4.6758 2.0215 1.066 1.063 1.2774 3.0838 1.2774 15.842 0 18.502-0.42435 19.885-1.2774 20.309-1.274 0.746-3.3998 0.64092-5.8438 1.1699-0.15155-0.004-0.23562 0.01-0.35937 0.0137-0.0448-0.003-0.0671-0.0113-0.11524-0.0137-2.444-0.529-4.5726-0.42392-5.8476-1.1699-0.851-0.424-1.2774-4.0394-1.2774-29.027 0-8.824-3.8267-14.887-12.971-14.887-5.955 0-11.377 4.0418-16.375 9.4648-0.105 0.211-0.95703-0.00036-0.95703-0.31836 0.106-3.934 0.53114-9.1459 0.74414-10.422 0-0.31875-0.29816-0.75625-0.7168-0.73047zm160.08 0.0762c-0.14791-0.0164-0.30875 0.0163-0.46875 0.12304-3.402 2.338-7.9742 5.6378-13.076 6.5938-0.424 0.106-0.63753 0.74208 0.10547 0.95508 2.55 0.429 3.8292 1.0635 4.7832 2.0215 0.959 0.955 1.2793 3.0838 1.2793 15.842 0 18.502-0.4273 19.885-1.2793 20.309-1.275 0.746-3.4027 0.64092-5.8477 1.1699-0.85 0.214-0.63842 1.2759-0.10742 1.1719 2.767-0.213 5.7426-0.32031 11.061-0.32031 4.892 0 10.208 0.10731 13.291 0.32031 0.422 0.104 0.63554-0.95787-0.10547-1.1719-2.447-0.529-6.807-0.42392-8.082-1.1699-0.85-0.531-0.95743-1.8066-1.2734-20.309l-0.21289-9.5684c0-1.275 0.2125-1.8096 1.0625-2.7676 3.508-4.146 4.5708-5.5273 7.7598-5.5273 2.871 0 3.9385 4.1445 7.2305 4.1445 2.766 0.001 4.4668-2.1231 4.4668-4.9941 0-3.616-2.8709-5.4219-7.3359-5.4219-4.253 0-9.7833 5.1025-12.654 10.312 0 0.104-0.84961-0.10783-0.84961-0.42383 0-3.831 0.53203-9.0399 0.95703-10.422 0.078-0.3195-0.2594-0.81811-0.70312-0.86718zm69.975 0c-0.14759-0.0164-0.3073 0.0163-0.4668 0.12304-3.402 2.338-7.9761 5.6378-13.078 6.5938-0.426 0.106-0.63907 0.74208 0.21093 0.95508 2.445 0.429 3.7247 1.0635 4.6797 2.0215 1.063 1.063 1.2754 3.0838 1.2754 15.842 0 18.502-0.42339 19.885-1.2754 20.309-1.275 0.746-3.4036 0.64092-5.8496 1.1699-0.849 0.214-0.63647 1.2759-0.10547 1.1719 2.763-0.213 5.7406-0.32031 11.059-0.32031 4.89 0 7.9716 0.10731 11.057 0.32031 0.532 0.104 0.74453-0.95787-0.10547-1.1719-2.339-0.529-4.5722-0.42392-5.7422-1.1699-0.958-0.531-1.5949-1.8066-1.3789-20.309l0.21289-15.629c0-3.829-0.21302-7.6571 0.20898-9.0391 0.0795-0.3195-0.25839-0.81811-0.70117-0.86718zm-30.617 1.9297c-9.04 0-15.418 5.8513-15.418 13.611 0 12.441 21.691 11.805 21.691 22.758 0 5.422-3.4042 8.7148-8.8262 8.7148-5.423 0-12.013-6.5924-13.184-11.693-0.106-0.533-1.2754-0.63911-1.2754 0.21289 0.213 4.57 1.2735 10.206 2.2285 10.844 2.023 1.169 7.766 2.7656 11.168 2.7656 10.102-0.002 16.906-6.1696 16.906-14.143 0-14.142-21.902-12.547-21.902-23.711 0-4.36 2.5515-7.2305 7.2305-7.2305 4.676 0 9.9929 5.5284 10.631 9.5684 0.106 0.532 1.2754 0.64111 1.2754-0.21289 0-3.827-0.32039-9.2483-1.2754-9.7793-1.488-0.959-6.485-1.7051-9.25-1.7051zm-73.578 0.10742c-13.716 0-22.646 10.847-22.646 23.285 0 12.229 7.5483 23.924 23.072 23.924 6.273 0 13.717-3.7201 15.844-9.0371 0.317-0.742-0.74599-1.0637-0.95899-0.63867-2.444 3.085-7.0152 4.9961-11.906 4.9961-11.697 0-17.652-8.8237-17.652-20.096 0-2.231 0.00031-3.1871 0.32031-4.9941 2.657-0.107 6.6972-0.10742 14.035-0.10742 9.461 0 16.584 0.95586 17.33-0.74414 1.487-3.188-2.9765-16.588-17.438-16.588zm-68.891 0.84961c-0.531 0-0.955 0.95888 0 1.1719 2.659 0.636 4.2536 0.53039 5.8496 1.2754 2.232 0.955 9.8867 23.177 18.18 43.594 0.108 0.427 2.3388 0.63953 2.5508-0.10547 9.359-22.755 16.91-41.998 20.205-43.486 1.594-0.746 2.3391-0.64134 4.9961-1.2773 0.852-0.213 0.532-1.1719 0-1.1719-2.766 0.319-2.6566 0.42579-7.9746 0.42579-5.209 0-7.551-0.10579-10.207-0.42579-0.532 0-0.745 1.0649 0 1.1719 4.784 0.744 6.3809 1.3822 6.3809 2.6582 0 2.232-4.8926 14.885-12.018 32.961-7.124-18.82-12.228-32.536-11.377-34.238 0.425-1.062 5.6357-0.74486 7.7637-1.3809 0.743-0.213 0.53-1.1719 0-1.1719-2.658 0.319-8.9346 0.42579-14.143 0.42579-5.318 0-7.443-0.10579-10.207-0.42579zm208.95 0c-0.531 0-0.849 0.95888 0 1.1719 2.659 0.531 4.2556 0.52997 5.8516 1.168 2.231 1.063 11.375 22.329 19.988 42.959-4.254 12.012-8.0808 19.031-10.633 19.031-1.913 0-2.6583-1.7012-5.5313-1.7012-2.765 0-4.5703 2.0198-4.5703 4.4648 0 2.765 2.127 4.4668 6.168 4.4668 6.485 0 10.948-7.5507 21.584-36.471 7.973-21.479 12.334-31.475 14.461-32.75 1.488-0.849 2.4435-0.63697 5.1035-1.168 0.955-0.213 0.63747-1.1719 0.10547-1.1719-2.766 0.213-2.6576 0.42579-7.9766 0.42579-5.21 0-7.5471-0.21279-10.205-0.42579-0.531 0-0.85342 1.0649-0.10743 1.1719 4.784 0.744 6.3789 1.2758 6.3789 2.5508 0 2.552-3.5083 13.823-10.736 31.898-8.507-18.607-14.037-31.473-13.293-33.174 0.532-0.956 5.6341-0.74439 7.8711-1.2754 0.742-0.213 0.527-1.1719 0-1.1719-2.766 0.213-8.933 0.42579-14.25 0.42579-5.318 0-7.444-0.21279-10.209-0.42579zm-140.59 0.95899c8.931 0 9.992 10.526 9.25 13.715-0.107 0.213-7.8713 0.10742-8.6133 0.10742-6.805 0.104-11.164 0.2129-13.822 0.2129 2.126-7.974 6.0616-14.035 13.186-14.035z"/>
  <path fill="#edd51c" d="m371.99 49.396c0 0.787 0.638 1.426 1.425 1.426h-33.451c0.788 0 1.425-0.639 1.425-1.426 0-0.443-0.201-0.839-0.518-1.099l-0.688-0.451c-3.169-2.113-4.747-4.018-6.228-7.53 2.083 2.186 4.314 4.689 7.343 4.443 1.237-0.098-1.86-3.79-3.845-5.623-0.755-0.639-2.643-2.797-3.697-5.52 0 0 2.379 3.209 2.991 1.668 0.354-0.883-1.604-2.682-1.69-7.581 1.987 4.437 2.317 4.563 4.27 6.685 0.933 1.012 1.809 2.289 2.218 0.828 0.231-0.82-0.279-1.518-0.755-2.633-0.97-2.264-0.86-4.313-0.899-7.108 0.655 2.611 2.172 4.33 3.339 6.04 1.906 2.793 4.825 5.497 7.033 3.888 2.998-2.188-0.146-7.097-2.62-10.528-1.278-1.772-3.119-3.323-4.218-3.83 0 0 1.496 0.209 2.203-0.485 1.312-1.291 0.933-3.369-0.176-8.358 2.745 5.91 4.594 8.688 5.877 6.333 1.504-2.76-0.089-5.412-1.549-9.941 2.02 2.597 3.386 3.807 4.09 2.796 0.889-1.282 1.361-6.8 1.608-8.169 0.731 1.816 1.453 8.036 3.225 7.178 1.194-0.58 1.362-2.321 2.279-4.661 0 0-0.808 6.226 2.718 5.028-1.908 1.876-2.773 5.044-1.461 7.162 1.462 2.357 4.508-2.192 7.274-4.911-0.938 2.336-3.141 6.611-1.62 7.402 0.602 0.311 1.081-0.022 1.699-0.295-2.426 3.453-7.678 8.517-7.059 13.853 0.363 3.136 5.072 1.044 7.869-2.198 1.534-1.78 1.928-2.542 2.695-5.254 0.263 1.805 0.562 2.739 1.284 2.54 1.19-0.327 1.583-1.196 2.164-3.368 0.264 4.013-0.736 5.227-1.285 6.095-0.791 1.25-1.142 3.147 0.089 2.779 2.389-0.714 3.322-3.807 4.998-5.136-1.007 2.305-0.486 5.826-1.899 7.4-2.105 2.341-9.151 6.093-4.999 6.462 2.226 0.198 5.175-2.633 5.175-2.633s-2.021 4.148-4.154 6.056c-0.716 0.643-1.4 1.206-2.083 1.689-0.244 0.257-0.397 0.604-0.397 0.987"/>
  <path fill="#fff" d="m363.09 74.355v39.814s-0.117 0.708-0.821 0.69h-2.14v4.589c1.721 0.509 2.691 1.619 2.854 3.319 0.222 2.326-3.785 4.697-4.518 4.897v2.227c0.91 0.216 1.512 1.057 1.512 1.481 0 0.386-0.497 1.196-1.268 1.418 0.94 0.271 1.771 0.896 1.621 2.496-0.254 2.685-3.537 5.05-3.537 5.05s-3.443-1.776-3.804-4.854c-0.185-1.583 0.723-2.325 1.71-2.67-0.822-0.219-1.354-1.04-1.354-1.44 0-0.425 0.6-1.266 1.512-1.481v-2.227c-0.734-0.2-4.741-2.571-4.52-4.897 0.163-1.7 1.134-2.811 2.855-3.319v-4.589h-2.297c-0.703-0.038-0.665-0.669-0.665-0.669v-39.835c-1.648-0.437-2.327-2.203-2.594-2.938-8.344-2.698-13.267-10.594-13.267-17.969 0-0.167 0.066-0.332 0.072-0.498h44.485c0.009 0.219 0.021 0.277 0.021 0.498 0 7.375-4.924 15.271-13.268 17.969-0.265 0.735-0.944 2.501-2.589 2.938"/>
 </g>
</svg>
