<?xml version="1.0"?>
<svg xmlns="http://www.w3.org/2000/svg" xmlns:xlink="http://www.w3.org/1999/xlink" width="538.319" height="106.591">
<polygon fill-rule="evenodd" clip-rule="evenodd" fill="#0060A9" points="533.444,83.171 532.888,83.171 532.888,79.997 
	532.037,79.997 532.037,79.476 534.292,79.476 534.292,79.997 533.444,79.997 "/>
<polygon fill-rule="evenodd" clip-rule="evenodd" fill="#0060A9" points="537.348,80.922 536.291,83.328 535.233,80.922 
	534.836,83.171 534.258,83.171 535.035,79.194 536.291,82.062 537.539,79.194 538.319,83.171 537.744,83.171 "/>
<path fill-rule="evenodd" clip-rule="evenodd" fill="#0060A9" d="M344.118,83.051l1.121-0.335V63.887c0-4.559,0-4.743,1.455-4.894
	l1.347-0.112v-0.823h-9.076v0.823l1.343,0.112c1.457,0.15,1.457,0.335,1.457,4.894v15.169c-0.561,0.671-2.876,2.986-6.761,2.986
	c-5.792,0-6.688-3.548-6.688-8.891v-9.265c0-4.559,0-4.743,1.455-4.894l1.345-0.112v-0.823h-9.076v0.823l1.345,0.112
	c1.457,0.15,1.457,0.335,1.457,4.894v9.864c0,5.078,0.636,9.524,8.367,9.524c4.968,0,8.069-2.354,8.594-2.354
	c0.562,0,0.858,0.523,1.384,1.046L344.118,83.051z"/>
<path fill-rule="evenodd" clip-rule="evenodd" fill="#0060A9" d="M350.077,82.716h8.068v-0.822l-1.343-0.11
	c-1.942-0.188-1.942-1.196-1.942-5.308V63.887l11.208,11.843c3.886,3.997,6.198,6.465,7.021,7.321l0.822-0.335V64.298
	c0-4.035,0.263-5.194,1.605-5.305l1.347-0.112v-0.823h-8.07v0.823l1.347,0.112c2.052,0.187,2.052,1.195,2.052,5.305v12.815
	c-4.071-4-15.092-15.432-18.193-19.391l-0.859,0.335v18.418c0,4.035-0.261,5.193-1.719,5.308l-1.343,0.11V82.716z"/>
<path fill-rule="evenodd" clip-rule="evenodd" fill="#0060A9" d="M379.724,82.716h9.083v-0.822l-1.351-0.11
	c-1.454-0.15-1.454-0.338-1.454-4.896v-13c0-4.559,0-4.743,1.454-4.894l1.351-0.112v-0.823h-9.083v0.823l1.348,0.112
	c1.453,0.15,1.453,0.335,1.453,4.894v13c0,4.559,0,4.746-1.453,4.896l-1.348,0.11V82.716z"/>
<path fill-rule="evenodd" clip-rule="evenodd" fill="#0060A9" d="M402.201,83.275c0.483-0.148,1.081-0.411,1.268-0.56
	c0.338-0.973,2.207-5.528,4.337-10.685l2.538-6.128c0.937-1.792,2.127-5.379,2.953-6.198c0.297-0.303,0.708-0.525,1.118-0.602
	l0.971-0.223v-0.823h-8.066v0.823L409,59.104c0.708,0.114,1.457,0.299,1.457,1.047c0,1.158-5.871,15.689-6.727,17.933l-6.465-16.662
	c-0.183-0.449-0.487-1.307-0.487-1.495c0-0.746,1.084-0.858,1.686-0.933l1.156-0.112v-0.823h-9.303v0.823l1.084,0.112
	c1.233,0.11,1.644,1.493,2.203,2.877L402.201,83.275z"/>
<path fill-rule="evenodd" clip-rule="evenodd" fill="#0060A9" d="M416.842,82.716h17.111c0.636-2.055,1.123-3.811,1.233-6.2
	l-0.933-0.152c-0.75,3.066-1.122,5.306-7.063,5.306c-1.347,0-2.728-0.224-4.071-0.484V70.428h3.326c2.91,0,3.588,0.034,3.809,1.565
	l0.19,1.271h0.97v-6.725h-0.97l-0.19,1.271c-0.221,1.531-0.898,1.569-3.809,1.569h-3.326V59.104h3.102
	c5.266,0,5.342,0.562,6.164,4.559l0.897-0.15c0-0.335,0.073-0.634,0.073-1.493c0-1.72-0.263-3.138-0.411-3.961h-16.104v0.823
	l1.348,0.112c1.457,0.15,1.457,0.335,1.457,4.894v13c0,4.559,0,4.746-1.457,4.896l-1.348,0.11V82.716z"/>
<path fill-rule="evenodd" clip-rule="evenodd" fill="#0060A9" d="M438.151,82.716h9.041v-0.822l-1.344-0.11
	c-1.423-0.15-1.423-0.338-1.423-4.896v-4.93h1.381c0.788,0,1.721,0,2.321,0.483c0.487,0.415,1.344,1.832,2.313,3.664l1.495,2.875
	c1.119,2.055,2.843,3.736,5.305,3.736h2.877v-0.822c-0.822,0-1.496-0.15-1.869-0.372c-0.932-0.525-2.575-2.729-4.146-5.531
	c-1.005-1.792-2.238-4.182-2.801-5.229c2.055-0.973,5.155-3.027,5.155-6.499c0-5.68-5.003-6.204-8.554-6.204h-9.752v0.823
	l1.343,0.112c1.458,0.15,1.458,0.335,1.458,4.894v13c0,4.559,0,4.746-1.458,4.896l-1.343,0.11V82.716z M444.425,59.589
	c0.75-0.148,1.533-0.299,2.321-0.299c2.91,0,5.787,1.347,5.787,5.717c0,4.222-2.838,5.905-5.978,5.905h-2.131V59.589z"/>
<path fill-rule="evenodd" clip-rule="evenodd" fill="#0060A9" d="M469.615,67.398c-2.017-1.192-3.622-2.392-3.622-4.595
	c0-2.505,1.902-4.071,4.071-4.071c4.224,0,4.817,3.252,5.193,5.118h0.933c0-0.935-0.072-3.961-0.373-5.156
	c-0.971-0.599-2.839-1.196-5.156-1.196c-3.961,0-7.77,1.904-7.77,6.463c0,2.802,1.979,5.117,4.109,6.276l2.394,1.309
	c2.915,1.31,5.19,3.176,5.19,5.901c0,2.915-1.906,4.595-4.482,4.595c-5.122,0-6.503-4.446-6.914-7.134l-1.195,0.3
	c0,2.354,0.525,5.118,1.195,6.575c1.16,0.708,2.953,1.492,5.867,1.492c3.961,0,8.63-1.94,8.63-6.986c0-4.48-3.063-6.052-6.012-7.729
	L469.615,67.398z"/>
<path fill-rule="evenodd" clip-rule="evenodd" fill="#0060A9" d="M480.881,82.716h9.079v-0.822l-1.348-0.11
	c-1.457-0.15-1.457-0.338-1.457-4.896v-13c0-4.559,0-4.743,1.457-4.894l1.348-0.112v-0.823h-9.079v0.823l1.347,0.112
	c1.458,0.15,1.458,0.335,1.458,4.894v13c0,4.559,0,4.746-1.458,4.896l-1.347,0.11V82.716z"/>
<path fill-rule="evenodd" clip-rule="evenodd" fill="#0060A9" d="M497.589,82.716h10.35v-0.822l-1.343-0.11
	c-2.093-0.15-2.093-0.338-2.093-4.896V59.104h1.94c5.27,0,5.346,0.562,6.164,4.896h0.897c0-0.148,0.072-1.159,0.072-1.644
	c0-1.719-0.259-3.475-0.407-4.298h-20.81c-0.148,0.823-0.411,2.579-0.411,4.298c0,0.484,0.073,1.495,0.073,1.644h0.897
	c0.826-4.334,0.898-4.896,6.164-4.896h1.944v17.783c0,4.559,0,4.746-2.059,4.896l-1.381,0.11V82.716z"/>
<path fill-rule="evenodd" clip-rule="evenodd" fill="#0060A9" d="M521.184,82.716h10.346v-0.822l-1.605-0.11
	c-1.826-0.04-1.826-1.122-1.826-2.281v-4.78c0-1.422,0.483-3.027,1.343-4.597l1.679-3.176c1.868-3.584,3.101-5.827,4.6-7.244
	c0.297-0.303,0.708-0.525,1.119-0.602l0.97-0.223v-0.823h-8.07v0.823l1.686,0.223c0.704,0.114,1.458,0.299,1.458,1.047
	c0,0.561-4.711,9.714-5.647,11.207c-0.97-1.569-5.939-10.608-5.939-11.432c0-0.746,1.085-0.858,1.686-0.933l1.382-0.112v-0.823
	h-9.49v0.823l1.081,0.112c1.012,0.11,1.457,0.858,1.982,1.83l4.969,9.302c0.822,1.569,1.717,3.249,1.717,4.597v4.78
	c0,1.159,0,2.241-1.831,2.281l-1.605,0.11V82.716z"/>
<path fill-rule="evenodd" clip-rule="evenodd" fill="#0060A9" d="M221.059,102.036c0.014-0.397,0.104-0.413,1.119-0.662v4.688
	c0,0.204-0.177,0.249-0.367,0.263v0.177h2.934v-0.177c-0.179-0.014-0.355-0.059-0.355-0.263v-6.868c0-0.207,0.177-0.251,0.384-0.267
	v-0.175h-2.89v0.175c0.118,0.016,0.295,0.06,0.295,0.267v0.47c-0.134,0.03-0.885,0.354-0.957,0.354c-0.148,0-0.162-0.25-0.162-0.354
	h-0.179v2.373H221.059z"/>
<path fill-rule="evenodd" clip-rule="evenodd" fill="#0060A9" d="M252.774,98.661c-1.134,0-3.491,0.34-3.491,2.167
	c0,0.781,0.516,1.282,1.033,1.533c-0.736,0.369-1.387,0.897-1.387,1.872c0,1.929,2.344,2.357,3.845,2.357
	c1.505,0,3.848-0.429,3.848-2.357c0-0.975-0.649-1.503-1.532-1.813c0.664-0.31,1.178-0.811,1.178-1.592
	C256.267,99.001,253.91,98.661,252.774,98.661 M252.774,103.23c0.59,0,1.724,0.162,1.724,0.959c0,0.793-1.134,0.955-1.724,0.955
	c-0.588,0-1.722-0.162-1.722-0.955C251.052,103.393,252.186,103.23,252.774,103.23 M252.774,101.726
	c-0.526,0-1.369-0.146-1.369-0.811c0-0.662,0.843-0.811,1.369-0.811c0.533,0,1.372,0.148,1.372,0.811
	C254.146,101.579,253.307,101.726,252.774,101.726"/>
<path fill-rule="evenodd" clip-rule="evenodd" fill="#0060A9" d="M316.971,98.971l-0.164-0.057c-0.087,0.072-0.148,0.19-0.265,0.19
	c-0.135,0-0.382-0.104-0.827-0.221c-0.443-0.118-1.075-0.223-2.002-0.223c-2.344,0-4.318,1.607-4.318,4.054
	c0,2.681,1.724,3.876,4.214,3.876c1.577,0,3.491-0.738,3.491-2.624c0-1.77-1.604-2.652-3.152-2.652c-0.972,0-1.693,0.221-2.462,0.87
	c0.018-1.431,1.079-2.08,2.416-2.08c1.254,0,1.888,0.399,1.888,0.664c0,0.03,0,0.092-0.016,0.146l0.136,0.09L316.971,98.971z
	 M315.125,103.908c0,0.694-0.721,1.062-1.621,1.062c-0.899,0-1.621-0.367-1.621-1.062c0-0.69,0.722-1.089,1.621-1.089
	C314.405,102.819,315.125,103.218,315.125,103.908"/>
<path fill-rule="evenodd" clip-rule="evenodd" fill="#0060A9" d="M280.785,105.78l0.178,0.087c0.087-0.057,0.179-0.103,0.221-0.103
	c0.061,0,0.191,0.06,0.323,0.118c0.476,0.19,1.507,0.708,3.156,0.708c2.344,0,4.007-1.033,4.007-2.713
	c0-1.871-1.547-2.578-3.184-2.578c-0.69,0-1.311,0.074-2.003,0.297v-1.284h4.272c0.118,0,0.265,0.074,0.265,0.367h0.177v-2.297
	h-0.177c0,0.309-0.146,0.369-0.265,0.369h-6.512v0.175c0.146,0.016,0.325,0.06,0.325,0.267v2.478c0,0.087-0.048,0.145-0.12,0.145
	c-0.044,0-0.131,0-0.177-0.03l-0.101,0.148l2.563,1.546l0.088-0.161c-0.058-0.088-0.104-0.132-0.104-0.19
	c0-0.177,0.283-0.385,1.12-0.385c1.075,0,1.649,0.475,1.649,1.031c0,0.68-0.662,1.077-1.661,1.077c-1.609,0-2.446-0.648-2.446-0.943
	c0-0.072,0.014-0.148,0.042-0.221l-0.162-0.134L280.785,105.78z"/>
<path fill-rule="evenodd" clip-rule="evenodd" fill="#0060A9" d="M149.25,82.726h7.829v-0.822l-2.235-0.297
	c-0.413-0.038-0.896-0.146-0.896-0.857c0-0.299,0.297-1.306,0.746-2.498l1.9-5.185c1.305-0.223,2.61-0.369,3.917-0.369
	c1.379,0,2.759,0.108,4.138,0.369l2.612,7.049c0.072,0.261,0.223,0.521,0.223,0.783c0,0.409-0.485,0.596-1.157,0.708l-1.678,0.297
	v0.822h9.249v-0.822l-1.492-0.223c-0.97-0.187-1.343-1.044-1.903-2.536l-8.315-21.592l-1.079,0.375
	c-0.3,0.708-0.597,1.455-0.896,2.199l-7.758,18.869c-0.895,2.161-1.079,2.572-2.496,2.799l-0.708,0.108V82.726z M160.624,62.627
	l3.428,9.023c-1.193-0.15-2.384-0.187-3.581-0.187c-1.119,0-2.273,0.112-3.392,0.187L160.624,62.627z"/>
<path fill-rule="evenodd" clip-rule="evenodd" fill="#0060A9" d="M7.606,67.863C5.589,66.67,3.99,65.479,3.99,63.279
	c0-2.498,1.902-4.062,4.06-4.062c4.214,0,4.81,3.242,5.183,5.104h0.931c0-0.933-0.071-3.951-0.373-5.143
	c-0.967-0.598-2.831-1.194-5.141-1.194c-3.952,0-7.753,1.902-7.753,6.449c0,2.795,1.975,5.106,4.1,6.261l2.384,1.306
	c2.909,1.305,5.183,3.168,5.183,5.89c0,2.905-1.903,4.584-4.471,4.584c-5.106,0-6.485-4.436-6.896-7.12L0,75.653
	c0,2.348,0.523,5.106,1.195,6.559c1.155,0.711,2.943,1.491,5.852,1.491c3.95,0,8.607-1.937,8.607-6.969c0-4.473-3.055-6.039-6-7.715
	L7.606,67.863z"/>
<path fill-rule="evenodd" clip-rule="evenodd" fill="#0060A9" d="M16.084,83.146h17.071c0.633-2.051,1.119-3.803,1.231-6.187
	l-0.934-0.15c-0.746,3.058-1.119,5.293-7.043,5.293c-1.341,0-2.719-0.225-4.063-0.485V70.882h3.318c2.907,0,3.577,0.038,3.801,1.568
	l0.187,1.265h0.97v-6.708h-0.97l-0.187,1.267c-0.225,1.528-0.894,1.566-3.801,1.566h-3.318V59.589h3.093
	c5.257,0,5.331,0.56,6.151,4.547l0.894-0.148c0-0.337,0.074-0.634,0.074-1.491c0-1.715-0.26-3.132-0.409-3.952H16.084v0.82
	l1.343,0.112c1.453,0.15,1.453,0.335,1.453,4.884v12.97c0,4.547,0,4.733-1.453,4.882l-1.343,0.114V83.146z"/>
<path fill-rule="evenodd" clip-rule="evenodd" fill="#0060A9" d="M40.071,83.146h10.323v-0.819l-1.343-0.114
	c-2.085-0.148-2.085-0.335-2.085-4.882V59.589H48.9c5.257,0,5.331,0.56,6.151,4.884h0.894c0-0.15,0.074-1.157,0.074-1.64
	c0-1.717-0.261-3.469-0.409-4.289H34.849c-0.146,0.82-0.409,2.572-0.409,4.289c0,0.482,0.074,1.489,0.074,1.64h0.894
	c0.822-4.324,0.894-4.884,6.151-4.884h1.938V77.33c0,4.547,0,4.733-2.049,4.882l-1.377,0.114V83.146z"/>
<path fill-rule="evenodd" clip-rule="evenodd" fill="#0060A9" d="M68.464,83.703c7.38,0,13.344-4.882,13.344-13.082
	c0-8.273-5.776-12.636-12.636-12.636c-7.191,0-13.417,4.995-13.417,13.047C55.755,79.082,61.086,83.703,68.464,83.703
	 M59.668,70.323c0-6.448,3.282-11.105,8.87-11.105c5.852,0,9.357,5.329,9.357,12.374c0,5.441-2.388,10.883-8.723,10.883
	C63.546,82.475,59.668,77.927,59.668,70.323"/>
<path fill-rule="evenodd" clip-rule="evenodd" fill="#0060A9" d="M81.958,83.146h8.05v-0.819l-1.343-0.114
	c-1.937-0.185-1.937-1.193-1.937-5.289V64.36l11.181,11.814c3.877,3.989,6.187,6.448,7.009,7.304l0.82-0.333V64.77
	c0-4.026,0.26-5.181,1.6-5.293l1.343-0.112v-0.82h-8.049v0.82l1.341,0.112c2.049,0.187,2.049,1.192,2.049,5.293v12.785
	C99.96,73.566,88.964,62.161,85.87,58.209l-0.858,0.335v18.379c0,4.023-0.261,5.179-1.714,5.289l-1.339,0.114V83.146z"/>
<path fill-rule="evenodd" clip-rule="evenodd" fill="#0060A9" d="M120.812,82.726h9.063v-0.822l-1.343-0.108
	c-1.452-0.15-1.452-0.335-1.452-4.888v-6.636h13.274v6.636c0,4.553,0,4.737-1.456,4.888l-1.341,0.108v0.822h9.06v-0.822
	l-1.341-0.108c-1.454-0.15-1.454-0.335-1.454-4.888V63.933c0-4.55,0-4.737,1.454-4.888l1.341-0.11v-0.822h-9.06v0.822l1.341,0.11
	c1.456,0.15,1.456,0.338,1.456,4.888v5.292h-13.274v-5.292c0-4.55,0-4.737,1.452-4.888l1.343-0.11v-0.822h-9.063v0.822l1.345,0.11
	c1.456,0.15,1.456,0.338,1.456,4.888v12.975c0,4.553,0,4.737-1.456,4.888l-1.345,0.108V82.726z"/>
<path fill-rule="evenodd" clip-rule="evenodd" fill="#0060A9" d="M176.666,82.726h16.669c0.634-2.051,1.119-3.806,1.229-6.191
	l-0.933-0.148c-0.745,3.058-1.116,5.295-6.636,5.295c-1.343,0-2.725-0.221-4.065-0.449V63.933c0-4.55,0-4.737,1.453-4.888
	l1.341-0.11v-0.822h-9.06v0.822l1.343,0.11c1.453,0.15,1.453,0.338,1.453,4.888v12.975c0,4.553,0,4.737-1.453,4.888l-1.343,0.108
	V82.726z"/>
<path fill-rule="evenodd" clip-rule="evenodd" fill="#0060A9" d="M197.331,82.726H214c0.634-2.051,1.119-3.806,1.231-6.191
	l-0.935-0.148c-0.743,3.058-1.118,5.295-6.636,5.295c-1.341,0-2.721-0.221-4.065-0.449V63.933c0-4.55,0-4.737,1.455-4.888
	l1.344-0.11v-0.822h-9.064v0.822l1.346,0.11c1.451,0.15,1.451,0.338,1.451,4.888v12.975c0,4.553,0,4.737-1.451,4.888l-1.346,0.108
	V82.726z"/>
<path fill-rule="evenodd" clip-rule="evenodd" fill="#BCBDC0" d="M279.605,41.207h2.803v6.269l1.932,4.32l3.263,0.018l13.767-20.093
	l0.002-3.933h-1.119l-1.142,0.654v-2.958l1.142,0.7l1.094,0.004l0.004-1.117l-0.683-1.146h2.958l-0.681,1.146v1.117l1.098-0.004
	l1.146-0.7v2.958l-1.146-0.654h-1.117l0.004,3.921l13.721,19.98v31.017h-4.826v-18.88c0-1.842-2.137-5.436-2.137-5.436
	s-2.135,3.688-2.135,5.436v18.88h-3.279V60.373c0-1.846-2.137-5.436-2.137-5.436S300,58.624,300,60.373v22.333h-3.318v-18.88
	c0-1.747-2.135-5.436-2.135-5.436s-2.138,3.594-2.138,5.436v18.88h-21.74v-7.874h-4.178v7.874h-20.479l0.002-27.609h-4.778v27.609
	h-3.856V55.097h-4.773v27.609h-3.856V55.097h-4.775v27.609h-3.505V43.737h3.872c0.07-4.857,3.223-8.94,7.661-10.225v-2.416h2.239
	l-0.002-3.28h-1.058l-1.086,0.62v-2.802l1.086,0.662l1.035,0.004l0.004-1.059l-0.646-1.084h2.801l-0.65,1.084l0.006,1.059
	l1.04-0.004l1.083-0.662v2.802l-1.083-0.62h-1.06l-0.002,3.28h2.323v2.43c4.416,1.299,7.545,5.371,7.617,10.211h3.812l0.003,8.059
	h3.408l1.921-4.254v-6.335h2.861l2.078-4.597l3.396,0.017v-9.856h-4.448l4.037-4.279l4.978-14.278l0.187,0.002V5.938
	c-0.552-0.205-0.997-0.63-1.237-1.166h-2.302v-1.75h2.291c0.235-0.548,0.687-0.984,1.248-1.193V0h1.459v1.798
	c0.6,0.2,1.085,0.646,1.334,1.224h2.283v1.75h-2.297c-0.251,0.563-0.73,1.001-1.32,1.196v2.257l0.241,0.002l4.881,14.265
	l4.098,4.279h-4.45v9.856l3.438-0.017L279.605,41.207z M274.02,65.119h4.316v7.087h-4.316V65.119z M266.474,65.119h4.195v7.087
	h-4.195V65.119z M258.891,65.119h4.278v7.087h-4.278V65.119z M274.02,55.072h4.316v7.085h-4.316V55.072z M266.474,55.072h4.195
	v7.085h-4.195V55.072z M258.891,55.072h4.278v7.085h-4.278V55.072z M223.974,47.698h4.775v4.775h-4.775V47.698z M241.236,47.698
	h4.778v4.775h-4.778V47.698z M232.606,47.698h4.773v4.775h-4.773V47.698z M302.148,51.9h2.04v-4.316l-2.043-3.18l-2.044,3.18V51.9
	H302.148z M261.039,52.468h-2.131v-3.455c0-1.846,2.135-5.438,2.135-5.438s2.137,3.689,2.137,5.438v3.455H261.039z M276.189,52.468
	h2.132v-3.455c0-1.846-2.138-5.438-2.138-5.438s-2.135,3.689-2.135,5.438v3.455H276.189z M268.619,52.468h2.131v-4.322
	c0-1.844-2.137-5.438-2.137-5.438s-2.135,3.692-2.135,5.438v4.322H268.619z M270.667,36.633v-7.346l-2.041-1.794l-2.046,1.794v7.346
	H270.667z"/>
<rect x="1.76" y="88.526" fill-rule="evenodd" clip-rule="evenodd" fill="#BCBDC0" width="534.138" height="3.394"/>
</svg>
