<?xml version="1.0" encoding="UTF-8" standalone="no"?>
<svg
   xmlns:dc="http://purl.org/dc/elements/1.1/"
   xmlns:cc="http://creativecommons.org/ns#"
   xmlns:rdf="http://www.w3.org/1999/02/22-rdf-syntax-ns#"
   xmlns:svg="http://www.w3.org/2000/svg"
   xmlns="http://www.w3.org/2000/svg"
   viewBox="0 0 313.93466 127.43053"
   height="127.43053"
   width="313.93466"
   xml:space="preserve"
   id="svg2"
   version="1.1"><metadata
     id="metadata8"><rdf:RDF><cc:Work
         rdf:about=""><dc:format>image/svg+xml</dc:format><dc:type
           rdf:resource="http://purl.org/dc/dcmitype/StillImage" /></cc:Work></rdf:RDF></metadata><defs
     id="defs6"><clipPath
       id="clipPath18"
       clipPathUnits="userSpaceOnUse"><path
         id="path16"
         d="M 0,95.573 H 235.451 V 0 H 0 Z" /></clipPath></defs><g
     transform="matrix(1.3333333,0,0,-1.3333333,0,127.43053)"
     id="g10"><g
       id="g12"><g
         clip-path="url(#clipPath18)"
         id="g14"><g
           transform="translate(51.8115,61.9416)"
           id="g20"><path
             id="path22"
             style="fill:#03293c;fill-opacity:1;fill-rule:nonzero;stroke:none"
             d="m 0,0 v 0 c -2.542,-0.013 -4.888,-1.112 -8.051,-3.075 l -19.552,-12.437 c -0.098,-0.062 -0.203,0.068 -0.121,0.151 l 7.241,7.3 -5.776,3.68 c -2.947,1.828 -5.132,2.852 -7.5,2.864 -2.367,-0.012 -4.553,-1.036 -7.499,-2.864 l -6.764,-4.309 -3.064,-1.895 v -7.388 c 0,-6.762 1.977,-12.633 5.067,-17.672 11.803,0.375 21.951,2.007 26.729,4.04 4.403,1.872 3.083,3.014 0.857,3.813 -1.639,0.589 -10.788,3.434 -13.021,4.076 -5.18,1.488 -4.546,3.052 -3.282,3.943 0.841,0.592 1.294,0.361 1.035,0.012 -0.314,-0.424 0.459,-0.907 2.044,-1.119 20.185,-2.544 33.301,-6.094 43.448,-12.506 2.346,4.513 3.793,9.636 3.793,15.413 V -7.834 L 8.05,-3.075 C 4.887,-1.112 2.541,-0.013 0,0" /></g><g
           transform="translate(18.1797,63.4143)"
           id="g24"><path
             id="path26"
             style="fill:#03293c;fill-opacity:1;fill-rule:nonzero;stroke:none"
             d="M 0,0 C 1.286,-0.006 2.471,-0.196 3.649,-0.554 3.644,-0.55 3.644,-0.545 3.636,-0.541 2.806,-0.057 -5.062,4.096 -5.062,4.096 -5.146,4.141 -5.104,4.27 -5.01,4.256 L 5.03,2.817 C 5.115,2.805 5.168,2.908 5.108,2.97 l -7.048,7.294 c -0.066,0.069 0.013,0.178 0.099,0.135 L 7.208,5.939 C 7.285,5.901 7.367,5.983 7.329,6.061 L 2.891,15.12 c -0.042,0.086 0.067,0.165 0.136,0.098 l 7.277,-7.065 c 0.062,-0.06 0.164,-0.008 0.153,0.077 L 9.042,18.274 c -0.014,0.095 0.115,0.136 0.16,0.052 l 4.699,-8.927 c 0.04,-0.077 0.154,-0.059 0.169,0.026 l 1.734,9.938 c 0.017,0.095 0.152,0.095 0.169,0 L 17.707,9.37 c 0.014,-0.085 0.128,-0.103 0.168,-0.027 l 4.76,8.956 c 0.045,0.085 0.173,0.043 0.159,-0.052 L 21.349,8.263 c -0.013,-0.085 0.09,-0.138 0.152,-0.077 l 7.245,7.02 c 0.068,0.066 0.178,-0.013 0.136,-0.099 L 24.411,6.003 C 24.373,5.926 24.454,5.844 24.532,5.882 l 9.114,4.449 c 0.086,0.042 0.166,-0.068 0.099,-0.137 L 26.707,2.967 C 26.647,2.905 26.699,2.802 26.785,2.814 l 9.987,1.422 c 0.095,0.013 0.137,-0.115 0.052,-0.16 L 32.19,1.628 c 0.467,0.057 0.939,0.094 1.424,0.096 3.424,-0.017 6.306,-1.384 9.849,-3.582 l 5.753,-3.606 v 29.292 c 0,0 -13.544,3.406 -33.335,3.406 -19.791,0 -33.335,-3.406 -33.335,-3.406 V -8.377 l 9.304,5.662 C -5.226,-0.9 -2.844,-0.015 0,0" /></g><g
           transform="translate(45.5708,28.7502)"
           id="g28"><path
             id="path30"
             style="fill:#03293c;fill-opacity:1;fill-rule:nonzero;stroke:none"
             d="m 0,0 c 0,0 -5.572,-6.652 -13.299,-11.202 -5.71,-3.361 -9.094,-4.939 -11.89,-5.923 4.793,-3.249 9.686,-5.638 13.679,-7.21 5.885,2.318 13.721,6.4 20.318,12.417 C 7.376,-3.814 0,0 0,0" /></g><g
           transform="translate(85.0723,65.864)"
           id="g32"><path
             id="path34"
             style="fill:#03293c;fill-opacity:1;fill-rule:nonzero;stroke:none"
             d="m 0,0 v 14.64 h -5.371 v 3.614 H 9.605 V 14.64 H 4.208 V 0 Z" /></g><g
           transform="translate(108.4243,65.864)"
           id="g36"><path
             id="path38"
             style="fill:#03293c;fill-opacity:1;fill-rule:nonzero;stroke:none"
             d="M 0,0 V 7.204 H -7.204 V 0 h -4.208 v 18.254 h 4.208 V 10.87 H 0 v 7.384 H 4.234 L 4.234,0 Z" /></g><g
           transform="translate(128.7021,75.0559)"
           id="g40"><path
             id="path42"
             style="fill:#03293c;fill-opacity:1;fill-rule:nonzero;stroke:none"
             d="m 0,0 c 0,3.77 -1.419,5.783 -4.338,5.783 -2.969,0 -4.415,-2.117 -4.415,-5.809 0,-3.873 1.498,-5.887 4.389,-5.887 C -1.472,-5.913 0,-3.873 0,0 m -13.013,-0.181 c 0,6.016 2.97,9.528 8.675,9.528 5.655,0 8.571,-3.512 8.571,-9.322 0,-5.86 -2.942,-9.501 -8.726,-9.501 -5.679,0 -8.52,3.512 -8.52,9.295" /></g><g
           transform="translate(151.2402,65.864)"
           id="g44"><path
             id="path46"
             style="fill:#03293c;fill-opacity:1;fill-rule:nonzero;stroke:none"
             d="m 0,0 -0.49,9.527 0.077,2.944 -1.085,-2.944 -2.892,-5.68 h -2.866 l -2.891,5.68 -1.111,2.892 L -11.18,9.527 -11.645,0 h -4.106 l 0.904,18.254 h 4.649 l 3.795,-7.926 0.567,-1.549 0.568,1.575 3.77,7.9 H 3.176 L 4.054,0 Z" /></g><g
           transform="translate(165.8389,75.1076)"
           id="g48"><path
             id="path50"
             style="fill:#03293c;fill-opacity:1;fill-rule:nonzero;stroke:none"
             d="M 0,0 C 2.556,0 3.149,1.213 3.149,2.892 3.149,4.596 2.556,5.68 0,5.68 H -2.918 V 0 Z M -7.126,-9.244 V 9.011 h 7.487 c 5.809,0 7.075,-2.659 7.075,-6.145 0,-3.305 -1.55,-6.197 -7.075,-6.197 h -3.279 v -5.913 z" /></g><g
           transform="translate(204.5576,75.0559)"
           id="g52"><path
             id="path54"
             style="fill:#03293c;fill-opacity:1;fill-rule:nonzero;stroke:none"
             d="m 0,0 c 0,3.77 -1.421,5.783 -4.338,5.783 -2.969,0 -4.415,-2.117 -4.415,-5.809 0,-3.873 1.497,-5.887 4.389,-5.887 C -1.473,-5.913 0,-3.873 0,0 m -13.013,-0.181 c 0,6.016 2.969,9.528 8.675,9.528 5.655,0 8.571,-3.512 8.571,-9.322 0,-5.86 -2.942,-9.501 -8.726,-9.501 -5.68,0 -8.52,3.512 -8.52,9.295" /></g><g
           transform="translate(223.0527,65.864)"
           id="g56"><path
             id="path58"
             style="fill:#03293c;fill-opacity:1;fill-rule:nonzero;stroke:none"
             d="M 0,0 -6.067,9.217 -7.513,11.929 -7.28,9.244 V 0 h -3.95 v 18.254 h 4.234 L -0.8,8.753 0.595,5.939 0.362,9.476 v 8.778 h 3.95 L 4.312,0 Z" /></g><g
           transform="translate(87.9902,49.7678)"
           id="g60"><path
             id="path62"
             style="fill:#03293c;fill-opacity:1;fill-rule:nonzero;stroke:none"
             d="M 0,0 C 2.659,0 3.331,1.033 3.331,2.736 3.331,4.441 2.659,5.421 0,5.421 H -2.918 V 0 Z M 3.253,-9.501 0.18,-3.254 H -2.918 V -9.501 H -7.125 V 8.753 H 0.62 c 5.55,0 6.996,-2.505 6.996,-5.99 0,-2.401 -0.929,-4.441 -3.356,-5.397 l 3.589,-6.867 z" /></g><path
           id="path64"
           style="fill:#03293c;fill-opacity:1;fill-rule:nonzero;stroke:none"
           d="m 98.726,58.521 h 4.208 V 40.267 h -4.208 z" /><g
           transform="translate(111.1294,40.2663)"
           id="g66"><path
             id="path68"
             style="fill:#03293c;fill-opacity:1;fill-rule:nonzero;stroke:none"
             d="m 0,0 -6.015,18.254 h 4.389 L 2.221,6.352 2.763,3.95 3.253,6.352 7.023,18.254 H 11.36 L 5.319,0 Z" /></g><g
           transform="translate(124.6992,40.2663)"
           id="g70"><path
             id="path72"
             style="fill:#03293c;fill-opacity:1;fill-rule:nonzero;stroke:none"
             d="m 0,0 v 18.254 h 13.168 v -3.538 h -8.96 v -3.82 h 7.771 V 7.513 H 4.208 V 3.537 h 8.96 V 0 Z" /></g><g
           transform="translate(148.2969,49.7678)"
           id="g74"><path
             id="path76"
             style="fill:#03293c;fill-opacity:1;fill-rule:nonzero;stroke:none"
             d="M 0,0 C 2.659,0 3.332,1.033 3.332,2.736 3.332,4.441 2.659,5.421 0,5.421 H -2.918 V 0 Z M 3.254,-9.501 0.181,-3.254 H -2.918 V -9.501 H -7.126 V 8.753 H 0.62 c 5.551,0 6.996,-2.505 6.996,-5.99 0,-2.401 -0.929,-4.441 -3.355,-5.397 L 7.85,-9.501 Z" /></g><g
           transform="translate(161.5224,46.4802)"
           id="g78"><path
             id="path80"
             style="fill:#03293c;fill-opacity:1;fill-rule:nonzero;stroke:none"
             d="m 0,0 c 0.145,-1.159 0.605,-2.959 3.109,-3.013 1.808,-0.039 3.355,0.267 3.358,1.951 0.006,3.196 -9.78,1.501 -9.642,8.006 0.078,3.639 2.817,5.466 7.539,5.365 5.698,-0.122 6.127,-4.583 6.106,-5.574 L 6.729,6.368 C 6.546,8.226 6.043,9.003 4.106,9.044 2.197,9.085 1.062,8.513 1.036,7.009 0.988,4.068 10.846,5.61 10.702,-1.101 10.62,-4.921 7.795,-6.591 3.045,-6.49 c -7.279,0.157 -6.811,5.968 -6.811,5.968 z" /></g><g
           transform="translate(181.7236,20.8859)"
           id="g82"><path
             id="path84"
             style="fill:#03293c;fill-opacity:1;fill-rule:nonzero;stroke:none"
             d="m 0,0 c 0.145,-1.159 0.605,-2.959 3.11,-3.013 1.807,-0.039 3.354,0.268 3.357,1.951 0.007,3.196 -9.78,1.5 -9.641,8.005 0.077,3.64 2.816,5.467 7.539,5.366 5.697,-0.122 6.126,-4.583 6.105,-5.574 L 6.729,6.368 C 6.546,8.226 6.043,9.003 4.107,9.044 2.197,9.085 1.062,8.514 1.037,7.009 0.988,4.067 10.846,5.61 10.702,-1.102 10.62,-4.922 7.795,-6.592 3.045,-6.49 c -7.278,0.156 -6.811,5.968 -6.811,5.968 z" /></g><g
           transform="translate(178.9014,72.0817)"
           id="g86"><path
             id="path88"
             style="fill:#03293c;fill-opacity:1;fill-rule:nonzero;stroke:none"
             d="m 0,0 c 0.145,-1.159 0.604,-2.959 3.109,-3.013 1.808,-0.038 3.355,0.268 3.358,1.951 0.006,3.196 -9.781,1.501 -9.642,8.006 0.078,3.639 2.816,5.466 7.539,5.365 5.698,-0.122 6.127,-4.583 6.106,-5.574 L 6.729,6.368 C 6.546,8.226 6.043,9.003 4.106,9.044 2.196,9.085 1.062,8.513 1.036,7.009 0.987,4.068 10.846,5.61 10.702,-1.101 10.62,-4.921 7.794,-6.591 3.045,-6.49 c -7.279,0.157 -6.812,5.968 -6.812,5.968 z" /></g><g
           transform="translate(91.7856,32.9221)"
           id="g90"><path
             id="path92"
             style="fill:#03293c;fill-opacity:1;fill-rule:nonzero;stroke:none"
             d="m 0,0 h 4.209 v -10.689 c 0,-5.112 -2.041,-7.849 -7.694,-7.849 -5.63,0 -7.644,2.737 -7.644,7.849 V 0 h 4.209 v -10.611 c 0,-2.608 0.646,-4.338 3.435,-4.338 2.814,0 3.485,1.73 3.485,4.338 z" /></g><g
           transform="translate(110.8032,14.6682)"
           id="g94"><path
             id="path96"
             style="fill:#03293c;fill-opacity:1;fill-rule:nonzero;stroke:none"
             d="m 0,0 -6.068,9.217 -1.444,2.712 0.231,-2.686 V 0 h -3.949 v 18.254 h 4.233 L -0.8,8.753 0.595,5.938 0.362,9.476 v 8.778 h 3.95 L 4.312,0 Z" /></g><path
           id="path98"
           style="fill:#03293c;fill-opacity:1;fill-rule:nonzero;stroke:none"
           d="m 118.842,32.922 h 4.208 V 14.668 h -4.208 z" /><g
           transform="translate(131.248,14.6682)"
           id="g100"><path
             id="path102"
             style="fill:#03293c;fill-opacity:1;fill-rule:nonzero;stroke:none"
             d="m 0,0 -6.015,18.254 h 4.389 L 2.221,6.352 2.763,3.95 3.254,6.352 7.022,18.254 H 11.36 L 5.319,0 Z" /></g><g
           transform="translate(144.8174,14.6682)"
           id="g104"><path
             id="path106"
             style="fill:#03293c;fill-opacity:1;fill-rule:nonzero;stroke:none"
             d="M 0,0 V 18.254 H 13.168 V 14.717 H 4.209 V 10.896 H 11.98 V 7.514 H 4.209 V 3.537 h 8.959 V 0 Z" /></g><g
           transform="translate(168.416,24.1691)"
           id="g108"><path
             id="path110"
             style="fill:#03293c;fill-opacity:1;fill-rule:nonzero;stroke:none"
             d="M 0,0 C 2.659,0 3.331,1.033 3.331,2.737 3.331,4.441 2.659,5.422 0,5.422 H -2.918 V 0 Z M 3.254,-9.501 0.18,-3.253 H -2.918 V -9.501 H -7.127 V 8.753 h 7.746 c 5.551,0 6.997,-2.505 6.997,-5.989 0,-2.402 -0.929,-4.442 -3.356,-5.398 l 3.589,-6.867 z" /></g><path
           id="path112"
           style="fill:#03293c;fill-opacity:1;fill-rule:nonzero;stroke:none"
           d="m 194.739,32.922 h 4.208 V 14.668 h -4.208 z" /><g
           transform="translate(206.6123,14.6682)"
           id="g114"><path
             id="path116"
             style="fill:#03293c;fill-opacity:1;fill-rule:nonzero;stroke:none"
             d="m 0,0 v 14.64 h -5.371 v 3.614 H 9.605 V 14.64 H 4.208 V 0 Z" /></g><g
           transform="translate(224.2168,14.6682)"
           id="g118"><path
             id="path120"
             style="fill:#03293c;fill-opacity:1;fill-rule:nonzero;stroke:none"
             d="m 0,0 v 6.532 l -6.403,11.722 h 4.544 l 3.227,-6.145 0.697,-1.833 0.698,1.86 3.149,6.118 h 4.597 L 4.131,6.584 V 0 Z" /></g></g></g></g></svg>