<?xml version="1.0" encoding="UTF-8" standalone="no"?>
<!-- Created with Inkscape (http://www.inkscape.org/) -->

<svg
   xmlns:dc="http://purl.org/dc/elements/1.1/"
   xmlns:cc="http://creativecommons.org/ns#"
   xmlns:rdf="http://www.w3.org/1999/02/22-rdf-syntax-ns#"
   xmlns:svg="http://www.w3.org/2000/svg"
   xmlns="http://www.w3.org/2000/svg"
   version="1.1"
   width="241.779266247"
   height="413.600394906" viewBox="0 0 300.0 513.19586"
   id="svg5132">
  <defs
     id="defs5134" />
  <metadata
     id="metadata5137">
    <rdf:RDF>
      <cc:Work
         rdf:about="">
        <dc:format>image/svg+xml</dc:format>
        <dc:type
           rdf:resource="http://purl.org/dc/dcmitype/StillImage" />
        <dc:title></dc:title>
      </cc:Work>
    </rdf:RDF>
  </metadata>
  <g
     transform="translate(-215.7143,-264.33572)"
     id="layer1">
    <g
       transform="matrix(4.4923885,0,0,4.4923885,-3530.4696,-1116.9383)"
       id="g5063">
      <path
         d="m 844.19042,400.92635 c 0,3.36125 -0.8075,4.6425 -3.45,4.6425 -2.66875,0 -3.4525,-1.28125 -3.4525,-4.6425 l 0,-9.67875 -3.095,0 0,9.835 c 0,4.7975 2.30875,7.17375 6.5475,7.17375 4.21375,0 6.52,-2.37625 6.52,-7.17375 l 0,-9.835 -3.07,0 0,9.67875 z m 12.43,-5.96 c -1.41,0 -2.77625,0.5375 -4.145,1.32125 l 0,-1.00875 -2.82375,0 0,12.6175 2.9375,0 0,-9.59 c 1.34375,-0.5375 2.465,-0.8525 3.3175,-0.8525 1.45625,0 1.76875,0.6275 1.76875,2.4425 l 0,8 2.98125,0 0,-8 c 0,-2.87 -0.47,-4.93 -4.03625,-4.93 m 16.9725,-2.89 -2.95625,0 0,3.2025 -2.3525,0 0,2.175 2.3525,0.20125 0,6.94875 c 0,2.64375 0.985,3.6325 3.4725,3.6325 1.12,0 2.21625,-0.27125 2.5575,-0.36125 l 0,-2.015 c -0.3625,0.045 -1.25625,0.0863 -1.90875,0.0863 -1.075,0 -1.165,-0.2225 -1.165,-1.3875 l 0,-6.90375 3.07375,0 0,-2.37625 -3.07375,0 0,-3.2025 z m -10.39375,15.82 2.9825,0 0,-12.6175 -2.9825,0 0,12.6175 z m 34.095,-10.41875 c 0.69625,0 1.7925,0.0663 3.38125,0.1975 l 0,-2.24 c -0.58,-0.1775 -1.97125,-0.46875 -3.89875,-0.46875 -3.62875,0 -5.30875,1.97 -5.30875,5.825 l 0,1.5925 c 0,3.7875 1.68,5.8525 5.30875,5.8525 1.9275,0 3.31875,-0.3125 3.89875,-0.4725 l 0,-2.245 c -1.58875,0.13625 -2.685,0.205 -3.38125,0.205 -1.83625,0 -2.87,-0.62375 -2.87,-3.34 l 0,-1.5925 c 0,-2.73 1.03375,-3.31375 2.87,-3.31375 m -13.4575,-2.51125 c -3.76375,0 -5.6925,2.06 -5.6925,6.3 l 0,0.78375 c 0,4.4375 1.61,6.18625 6.16125,6.18625 2.11,0 3.7475,-0.3125 4.68375,-0.54125 l 0,-2.2175 c -1.65875,0.15625 -3.2275,0.29125 -4.54875,0.29125 -3.095,0 -3.36125,-1.18875 -3.36125,-3.025 l 0,-0.225 8.45125,0 0,-0.98875 c 0,-3.82625 -1.4775,-6.56375 -5.69375,-6.56375 m 2.73,5.62375 -5.4675,0 0,-0.19875 c 0,-1.43625 0.36125,-3.04875 2.7375,-3.04875 2.43875,0 2.73,1.5925 2.73,3.04875 l 0,0.19875 z m -23.3875,-7.26125 3.0475,0 0,-2.845 -3.0475,0 0,2.845 z"
         id="path4258"
         style="fill:#606267;fill-opacity:1;fill-rule:nonzero;stroke:none" />
      <path
         d="m 867.53117,373.05522 c 0.003,-0.001 0.005,-0.004 0.006,-0.005 5.6675,-3.83125 8.62,-7.17125 10.76125,-9.9325 3.24625,-4.1875 2.86,-11.4975 2.85625,-11.57 l -0.002,-0.0663 0,-39.12125 -8.72,3.17375 0,31.88875 c 0,6.9275 0.135,12.025 -4.9475,18.5325 -5.255,-6.435 -5.20375,-11.26375 -5.20375,-18.525 l 0,-28.19875 -8.7375,3.18125 -10e-4,29.66125 c -0.005,0.0763 -0.41125,7.57 2.9975,11.56125 1.425,1.66625 4.6625,4.9725 10.99125,9.42"
         id="path4262"
         style="fill:#606267;fill-opacity:1;fill-rule:nonzero;stroke:none" />
      <path
         d="m 867.50892,375.81272 -2.02375,-1.4075 c -4.59125,-3.27375 -8.2475,-6.42875 -10.685,-9.28375 -3.92,-4.58875 -3.5825,-12.46 -3.545,-13.15 l 0,-28.725 -11.12625,4.05125 0,19.20875 c 0,10.07625 -0.0312,16.0825 5.38125,22.00625 0.9425,1.125 4.24,4.72375 10.62875,8.43875 -2.84375,2.59625 -5.51625,5.00625 -7.99,7.2375 3.835,-1.9175 7.42125,-3.845 10.75375,-5.77 0.79,0.4075 1.62125,0.82375 2.31375,1.14 0.0488,0.0225 0.105,0.0462 0.1575,0.07 -3.59375,2.12125 -11.6725,6.43875 -11.6725,6.43875 l 7.955,-1.5575 9.82875,-2.3725 c 4.86125,1.67125 10.73625,3.075 17.48375,3.905 -6.5775,-3.3775 -12.4925,-6.85125 -17.46,-10.23"
         id="path4266"
         style="fill:#606267;fill-opacity:1;fill-rule:nonzero;stroke:none" />
      <path
         d="m 877.59555,376.9261 c 0.98125,-0.5325 2.64,-1.395 3.89125,-2.15875 13.3575,-8.51875 13.15875,-15.545 13.10625,-28.26 l 0,-39.0375 -11.15125,4.0575 0,39.9225 c 0.035,0.66625 0.345,8.32625 -3.33375,13.07125 -2.15625,2.78125 -5.1,6.12 -10.55625,9.92125 1.735,1.16375 3.67875,2.3975 5.83375,3.68875 0.75125,-0.395 2.21,-1.205 2.21,-1.205"
         id="path4270"
         style="fill:#606267;fill-opacity:1;fill-rule:nonzero;stroke:none" />
      <path
         d="m 877.7023,379.49322 c 1.19625,0.69 2.44625,1.39375 3.7675,2.11375 l -0.0187,-0.0225 c 0.28875,0.16 0.58,0.32375 0.8675,0.48375 1.435,0.7725 2.9425,1.56125 4.5275,2.36625 l -6.62625,-6.30625 c -0.8275,0.455 -1.66625,0.91 -2.5175,1.365"
         id="path4274"
         style="fill:#606267;fill-opacity:1;fill-rule:nonzero;stroke:none" />
      <path
         d="m 833.8958,419.1791 0,0.38625 0.74,0 0,2.08875 0.465,0 0,-2.08875 0.74,0 0,-0.38625 -1.945,0 z"
         id="path4278"
         style="fill:#606267;fill-opacity:1;fill-rule:nonzero;stroke:none" />
      <path
         d="m 836.6958,421.6536 0,-2.475 1.575,0 0,0.3875 -1.10875,0 0,0.63 1.03875,0 0,0.37125 -1.03875,0 0,0.7025 1.10875,0 0,0.38375 -1.575,0 z"
         id="path4282"
         style="fill:#606267;fill-opacity:1;fill-rule:nonzero;stroke:none" />
      <path
         d="m 842.67755,421.6536 -0.6225,0 -0.3125,-1.30875 c -0.0275,-0.10875 -0.0438,-0.22625 -0.07,-0.33 l -0.006,0 c -0.0275,0.10375 -0.0437,0.22125 -0.0712,0.33 l -0.30875,1.30875 -0.62875,0 -0.43,-2.475 0.47375,0 0.245,1.5 c 0.0263,0.15875 0.0475,0.32875 0.07,0.47875 l 0.0137,0 c 0.0362,-0.15375 0.0663,-0.30875 0.1025,-0.46125 l 0.26,-1.08625 0.5625,0 0.26,1.09875 c 0.0337,0.14625 0.07,0.29875 0.1,0.44875 l 0.0125,0 c 0.0213,-0.15625 0.04,-0.30875 0.0713,-0.47875 l 0.24875,-1.5 0.4625,0 -0.4325,2.475 z"
         id="path4286"
         style="fill:#606267;fill-opacity:1;fill-rule:nonzero;stroke:none" />
      <path
         d="m 845.55455,421.6536 0,-1.08875 -1.0825,0 0,1.08875 -0.46625,0 0,-2.475 0.46625,0 0,0.98625 1.0825,0 0,-0.98625 0.46625,0 0,2.475 -0.46625,0 z"
         id="path4290"
         style="fill:#606267;fill-opacity:1;fill-rule:nonzero;stroke:none" />
      <path
         d="m 848.56317,421.6536 -0.21375,-0.6925 -0.795,0 -0.21875,0.6925 -0.47625,0 0.74875,-2.475 0.69625,0 0.7475,2.475 -0.48875,0 z m -0.50875,-1.75875 c -0.0362,-0.1225 -0.0638,-0.255 -0.0863,-0.38875 l -0.03,0 c -0.0275,0.13375 -0.0512,0.26625 -0.0863,0.38875 l -0.21125,0.6825 0.62,0 -0.20625,-0.6825 z"
         id="path4294"
         style="fill:#606267;fill-opacity:1;fill-rule:nonzero;stroke:none" />
      <path
         d="m 851.3363,421.6536 -0.545,-0.91625 c -0.0675,0.004 -0.14,0.004 -0.2175,0.004 l -0.22875,0 0,0.9125 -0.4525,0 0,-2.475 c 0.21875,-0.009 0.44125,-0.0163 0.69125,-0.0163 0.59625,0 1.08875,0.12125 1.08875,0.7725 l 0,0.0238 c 0,0.37625 -0.1625,0.57375 -0.42625,0.68625 l 0.58375,1.00875 -0.49375,0 z m -0.12,-1.7125 c 0,-0.3825 -0.265,-0.385 -0.87125,-0.385 l 0,0.81125 c 0.0862,0.004 0.16875,0.004 0.255,0.004 0.42625,0 0.61625,-0.0888 0.61625,-0.41 l 0,-0.02 z"
         id="path4298"
         style="fill:#606267;fill-opacity:1;fill-rule:nonzero;stroke:none" />
      <path
         d="m 852.6448,421.6536 0,-2.475 1.575,0 0,0.3875 -1.10875,0 0,0.63 1.03875,0 0,0.37125 -1.03875,0 0,0.7025 1.10875,0 0,0.38375 -1.575,0 z"
         id="path4302"
         style="fill:#606267;fill-opacity:1;fill-rule:nonzero;stroke:none" />
      <path
         d="m 858.6268,421.6536 -0.6225,0 -0.3125,-1.30875 c -0.0275,-0.10875 -0.0437,-0.22625 -0.07,-0.33 l -0.008,0 c -0.0263,0.10375 -0.0425,0.22125 -0.07,0.33 l -0.30875,1.30875 -0.62875,0 -0.43125,-2.475 0.475,0 0.245,1.5 c 0.0275,0.15875 0.0475,0.32875 0.07,0.47875 l 0.0137,0 c 0.0362,-0.15375 0.0663,-0.30875 0.10375,-0.46125 l 0.25875,-1.08625 0.5625,0 0.26,1.09875 c 0.0337,0.14625 0.0688,0.29875 0.1,0.44875 l 0.0125,0 c 0.0213,-0.15625 0.0412,-0.30875 0.07,-0.47875 l 0.25,-1.5 0.4625,0 -0.4325,2.475 z"
         id="path4306"
         style="fill:#606267;fill-opacity:1;fill-rule:nonzero;stroke:none" />
      <path
         d="m 861.2768,421.6536 -0.21375,-0.6925 -0.795,0 -0.21875,0.6925 -0.47625,0 0.7475,-2.475 0.6975,0 0.74875,2.475 -0.49,0 z m -1.23125,-3.0075 1.25125,0 0,0.29625 -1.25125,0 0,-0.29625 z m 0.72125,1.24875 c -0.035,-0.1225 -0.0625,-0.255 -0.0862,-0.38875 l -0.03,0 c -0.0263,0.13375 -0.05,0.26625 -0.0862,0.38875 l -0.21,0.6825 0.62,0 -0.2075,-0.6825 z"
         id="path4310"
         style="fill:#606267;fill-opacity:1;fill-rule:nonzero;stroke:none" />
      <path
         d="m 864.00292,421.6536 -0.7925,-1.46875 c -0.06,-0.1125 -0.13,-0.2475 -0.18625,-0.37 l -0.006,0 c 0.006,0.14125 0.0137,0.29375 0.0137,0.44375 l 0,1.395 -0.4275,0 0,-2.475 0.54,0 0.79,1.44 c 0.0588,0.11375 0.135,0.25625 0.18875,0.37375 l 0.006,0 c -0.01,-0.14375 -0.0125,-0.3175 -0.0125,-0.46875 l 0,-1.345 0.42875,0 0,2.475 -0.5425,0 z"
         id="path4314"
         style="fill:#606267;fill-opacity:1;fill-rule:nonzero;stroke:none" />
      <path
         d="m 867.08567,421.6536 -0.21375,-0.6925 -0.795,0 -0.21875,0.6925 -0.4775,0 0.74875,-2.475 0.69625,0 0.75,2.475 -0.49,0 z m -0.51,-1.75875 c -0.035,-0.1225 -0.0625,-0.255 -0.0862,-0.38875 l -0.0287,0 c -0.0275,0.13375 -0.0513,0.26625 -0.0863,0.38875 l -0.21,0.6825 0.61875,0 -0.2075,-0.6825 z"
         id="path4318"
         style="fill:#606267;fill-opacity:1;fill-rule:nonzero;stroke:none" />
      <path
         d="m 869.8123,421.6536 -0.79125,-1.46875 c -0.0612,-0.1125 -0.13,-0.2475 -0.1875,-0.37 l -0.006,0 c 0.006,0.14125 0.0125,0.29375 0.0125,0.44375 l 0,1.395 -0.42625,0 0,-2.475 0.54,0 0.79,1.44 c 0.0587,0.11375 0.13625,0.25625 0.18875,0.37375 l 0.006,0 c -0.01,-0.14375 -0.0125,-0.3175 -0.0125,-0.46875 l 0,-1.345 0.42875,0 0,2.475 -0.5425,0 z"
         id="path4322"
         style="fill:#606267;fill-opacity:1;fill-rule:nonzero;stroke:none" />
      <path
         d="m 872.32267,421.7066 c -0.565,0 -1.035,-0.22 -1.035,-1.11625 l 0,-0.34875 c 0,-0.945 0.5325,-1.11125 1.045,-1.11125 0.36375,0 0.71875,0.0587 0.795,0.0825 l 0,0.355 c -0.16,-0.0125 -0.54625,-0.0312 -0.715,-0.0312 -0.4025,0 -0.66375,0.0888 -0.66375,0.705 l 0,0.34875 c 0,0.56625 0.2075,0.71125 0.6075,0.71125 0.1225,0 0.24625,-0.005 0.33375,-0.0113 l 0,-0.95625 0.44125,0 0,1.295 c -0.13625,0.0312 -0.45375,0.0775 -0.80875,0.0775"
         id="path4326"
         style="fill:#606267;fill-opacity:1;fill-rule:nonzero;stroke:none" />
      <path
         d="m 875.62305,421.6536 -0.21375,-0.6925 -0.795,0 -0.22125,0.6925 -0.47625,0 0.75,-2.475 0.69625,0 0.7475,2.475 -0.4875,0 z m -0.51,-1.75875 c -0.0362,-0.1225 -0.0638,-0.255 -0.0875,-0.38875 l -0.0287,0 c -0.0275,0.13375 -0.05,0.26625 -0.0875,0.38875 l -0.21,0.6825 0.62,0 -0.20625,-0.6825 z"
         id="path4330"
         style="fill:#606267;fill-opacity:1;fill-rule:nonzero;stroke:none" />
      <path
         d="m 879.02455,421.7066 c -0.62875,0 -1.01625,-0.3425 -1.01625,-1.14625 l 0,-0.28875 c 0,-0.79875 0.39,-1.14125 1.01625,-1.14125 0.625,0 1.0175,0.3425 1.0175,1.14125 l 0,0.28875 c 0,0.80375 -0.38875,1.14625 -1.0175,1.14625 m 0.55625,-1.43125 c 0,-0.55375 -0.215,-0.73875 -0.55625,-0.73875 -0.33625,0 -0.5525,0.185 -0.5525,0.73875 l 0,0.285 c 0,0.5575 0.21875,0.74375 0.5525,0.74375 0.33625,0 0.55625,-0.18625 0.55625,-0.74375 l 0,-0.285 z"
         id="path4334"
         style="fill:#606267;fill-opacity:1;fill-rule:nonzero;stroke:none" />
      <path
         d="m 884.44942,421.6536 -0.6225,0 -0.3125,-1.30875 c -0.0263,-0.10875 -0.0425,-0.22625 -0.0688,-0.33 l -0.006,0 c -0.0288,0.10375 -0.0438,0.22125 -0.0713,0.33 l -0.30875,1.30875 -0.63,0 -0.43,-2.475 0.47375,0 0.24625,1.5 c 0.0263,0.15875 0.0462,0.32875 0.0688,0.47875 l 0.0137,0 c 0.0362,-0.15375 0.0675,-0.30875 0.105,-0.46125 l 0.2575,-1.08625 0.5625,0 0.26125,1.09875 c 0.0325,0.14625 0.0688,0.29875 0.0987,0.44875 l 0.0138,0 c 0.02,-0.15625 0.0412,-0.30875 0.07,-0.47875 l 0.25,-1.5 0.4625,0 -0.43375,2.475 z"
         id="path4338"
         style="fill:#606267;fill-opacity:1;fill-rule:nonzero;stroke:none" />
      <path
         d="m 887.0998,421.6536 -0.2125,-0.6925 -0.795,0 -0.22,0.6925 -0.47625,0 0.74875,-2.475 0.69625,0 0.7475,2.475 -0.48875,0 z m -0.51,-1.75875 c -0.035,-0.1225 -0.0625,-0.255 -0.085,-0.38875 l -0.03,0 c -0.0275,0.13375 -0.05,0.26625 -0.0875,0.38875 l -0.20875,0.6825 0.61875,0 -0.2075,-0.6825 z"
         id="path4342"
         style="fill:#606267;fill-opacity:1;fill-rule:nonzero;stroke:none" />
      <path
         d="m 888.42805,421.65285 0.46625,0 0,-2.47375 -0.46625,0 0,2.47375 z"
         id="path4344"
         style="fill:#606267;fill-opacity:1;fill-rule:nonzero;stroke:none" />
      <path
         d="m 891.36417,421.6536 -0.54625,-0.91625 c -0.0662,0.004 -0.13875,0.004 -0.215,0.004 l -0.23125,0 0,0.9125 -0.45125,0 0,-2.475 c 0.21875,-0.009 0.4425,-0.0163 0.6925,-0.0163 0.595,0 1.09,0.12125 1.09,0.7725 l 0,0.0238 c 0,0.37625 -0.165,0.57375 -0.4275,0.68625 l 0.58125,1.00875 -0.4925,0 z m -0.12,-1.7125 c 0,-0.3825 -0.26625,-0.385 -0.8725,-0.385 l 0,0.81125 c 0.0875,0.004 0.17125,0.004 0.2575,0.004 0.42625,0 0.615,-0.0888 0.615,-0.41 l 0,-0.02 z"
         id="path4348"
         style="fill:#606267;fill-opacity:1;fill-rule:nonzero;stroke:none" />
      <path
         d="m 894.1913,421.6536 -0.2125,-0.6925 -0.79625,0 -0.22,0.6925 -0.47625,0 0.74875,-2.475 0.69625,0 0.75,2.475 -0.49,0 z m -0.51,-1.75875 c -0.0362,-0.1225 -0.0625,-0.255 -0.0862,-0.38875 l -0.03,0 c -0.0263,0.13375 -0.05,0.26625 -0.0875,0.38875 l -0.21,0.6825 0.62,0 -0.20625,-0.6825 z"
         id="path4352"
         style="fill:#606267;fill-opacity:1;fill-rule:nonzero;stroke:none" />
      <path
         d="m 896.91692,421.6536 -0.91875,-1.165 0,1.165 -0.465,0 0,-2.475 0.465,0 0,1.1525 0.95375,-1.1525 0.55875,0 -1.0225,1.21875 1.015,1.25625 -0.58625,0 z"
         id="path4356"
         style="fill:#606267;fill-opacity:1;fill-rule:nonzero;stroke:none" />
      <path
         d="m 899.82005,421.6536 -0.2125,-0.6925 -0.79625,0 -0.22,0.6925 -0.475,0 0.74875,-2.475 0.695,0 0.75,2.475 -0.49,0 z m -0.51,-1.75875 c -0.0362,-0.1225 -0.0625,-0.255 -0.0863,-0.38875 l -0.0287,0 c -0.0275,0.13375 -0.0512,0.26625 -0.0875,0.38875 l -0.20875,0.6825 0.6175,0 -0.20625,-0.6825 z"
         id="path4360"
         style="fill:#606267;fill-opacity:1;fill-rule:nonzero;stroke:none" />
      <path
         d="m 870.97605,411.20347 -3.455,0 0,0.68625 1.31375,0 0,3.71 0.8275,0 0,-3.71 1.31375,0 0,-0.68625 z m 2.1875,2.4675 -1.4425,0 0,-0.0538 c 0,-0.38 0.0937,-0.805 0.72,-0.805 0.645,0 0.7225,0.42125 0.7225,0.805 l 0,0.0538 z m -0.7225,-1.48625 c -0.99375,0 -1.5025,0.545 -1.5025,1.66375 l 0,0.20625 c 0,1.17125 0.42625,1.63375 1.6275,1.63375 0.555,0 0.98625,-0.0838 1.23625,-0.1425 l 0,-0.58625 c -0.43875,0.0425 -0.85125,0.0775 -1.20125,0.0775 -0.81625,0 -0.8875,-0.31375 -0.8875,-0.8 l 0,-0.0575 2.23125,0 0,-0.26125 c 0,-1.01125 -0.3925,-1.73375 -1.50375,-1.73375 m 2.0925,1.54 0,0.41875 c 0,0.99875 0.44375,1.545 1.4025,1.545 0.51,0 0.87625,-0.0838 1.03,-0.125 l 0,-0.59125 c -0.42,0.035 -0.71125,0.0525 -0.89375,0.0525 -0.485,0 -0.7575,-0.16375 -0.7575,-0.88125 l 0,-0.41875 c 0,-0.7225 0.2725,-0.87625 0.7575,-0.87625 0.1825,0 0.47375,0.0175 0.89375,0.0525 l 0,-0.59125 c -0.15375,-0.0475 -0.52,-0.125 -1.03,-0.125 -0.95875,0 -1.4025,0.52125 -1.4025,1.54 m -11.83625,0.41375 c 0,0.63875 -0.21875,0.88125 -0.7275,0.88125 -0.50875,0 -0.7275,-0.2425 -0.7275,-0.88125 l 0,-0.41 c 0,-0.6375 0.225,-0.875 0.7275,-0.875 0.50875,0 0.7275,0.2375 0.7275,0.875 l 0,0.41 z m -0.7275,-1.95375 c -0.97,0 -1.5025,0.49875 -1.5025,1.54375 l 0,0.41 c 0,1.0525 0.5325,1.55 1.5025,1.55 0.97,0 1.5025,-0.4975 1.5025,-1.55 l 0,-0.41 c 0,-1.045 -0.5325,-1.54375 -1.5025,-1.54375 m -4.03125,1.48625 -1.44375,0 0,-0.0538 c 0,-0.38 0.095,-0.805 0.72125,-0.805 0.64375,0 0.7225,0.42125 0.7225,0.805 l 0,0.0538 z m -0.7225,-1.48625 c -0.99375,0 -1.5025,0.545 -1.5025,1.66375 l 0,0.20625 c 0,1.17125 0.42625,1.63375 1.6275,1.63375 0.55625,0 0.9875,-0.0838 1.235,-0.1425 l 0,-0.58625 c -0.43625,0.0425 -0.85,0.0775 -1.2,0.0775 -0.8175,0 -0.88625,-0.31375 -0.88625,-0.8 l 0,-0.0575 2.22875,0 0,-0.26125 c 0,-1.01125 -0.39,-1.73375 -1.5025,-1.73375 m 7.15375,-0.235 0,0.31875 -0.58625,0 0,0.57375 0.58625,0.0525 0,2.705 0.78625,0 0,-2.705 0.8525,0 0,-0.62625 -0.8525,0 0,-0.3075 c 0,-0.3425 0.0187,-0.4725 0.34375,-0.4725 0.17125,0 0.35375,0.0113 0.52,0.0175 l 0,-0.4975 c -0.17625,-0.0475 -0.4375,-0.0937 -0.715,-0.0937 -0.76375,0 -0.935,0.42625 -0.935,1.035 m 34.885,2.0875 c -0.0875,0.29625 -0.14625,0.56125 -0.2175,0.88625 -0.095,-0.325 -0.14875,-0.59 -0.2425,-0.88625 l -0.57875,-1.76875 -0.84625,0 1.2425,3.3075 -0.0775,0.20625 c -0.14125,0.3675 -0.23125,0.4975 -0.515,0.4975 -0.2075,0 -0.35625,-0.006 -0.62625,-0.0238 l 0,0.5675 c 0.17125,0.0362 0.4725,0.0713 0.79125,0.0713 0.7325,0 0.9825,-0.385 1.25,-1.17125 l 1.1575,-3.455 -0.80875,0 -0.52875,1.76875 z m -3.21,0.91125 c -0.0762,0.0175 -0.3475,0.0412 -0.555,0.0412 -0.58,0 -0.7925,-0.22 -0.7925,-0.8875 l 0,-0.36625 c 0,-0.615 0.165,-0.9 0.805,-0.9 0.2475,0 0.47875,0.0225 0.5425,0.035 l 0,2.0775 z m -2.12875,-1.22 0,0.37375 c 0,1.1125 0.55625,1.5375 1.53125,1.5375 0.21375,0 0.4925,-0.0288 0.5975,-0.0462 l 0,0.13 c 0,0.37875 -0.07,0.5625 -0.685,0.5625 -0.40875,0 -0.88125,-0.03 -1.255,-0.0538 l 0,0.5325 c 0.1125,0.0238 0.72875,0.13 1.3025,0.13 1.13625,0 1.41875,-0.44875 1.41875,-1.17125 l 0,-3.455 c -0.35875,-0.0425 -0.84125,-0.0837 -1.27625,-0.0837 -1.15375,0 -1.63375,0.49125 -1.63375,1.54375 m -6.68,0.41 c 0,0.63875 -0.22,0.88125 -0.72875,0.88125 -0.5075,0 -0.7275,-0.2425 -0.7275,-0.88125 l 0,-0.41 c 0,-0.6375 0.225,-0.875 0.7275,-0.875 0.50875,0 0.72875,0.2375 0.72875,0.875 l 0,0.41 z m -0.72875,-1.95375 c -0.96875,0 -1.5025,0.49875 -1.5025,1.54375 l 0,0.41 c 0,1.0525 0.53375,1.55 1.5025,1.55 0.97125,0 1.50375,-0.4975 1.50375,-1.55 l 0,-0.41 c 0,-1.045 -0.5325,-1.54375 -1.50375,-1.54375 m -3.28125,0 c -0.37125,0 -0.7325,0.14375 -1.0925,0.35 l 0,-0.26625 -0.7475,0 0,3.33125 0.77625,0 0,-2.5325 c 0.355,-0.14125 0.65,-0.225 0.875,-0.225 0.38375,0 0.4675,0.165 0.4675,0.64375 l 0,2.11375 0.78625,0 0,-2.11375 c 0,-0.75625 -0.12375,-1.30125 -1.065,-1.30125 m 5.54,3.415 0.78125,0 0,-4.59625 -0.78125,0 0,4.59625 z m -9.325,-3.415 c -0.425,0 -0.8025,0.125 -1.03375,0.24875 l 0,-1.43125 -0.775,0 0,4.5975 0.775,0 0,-2.575 c 0.1825,-0.0825 0.4975,-0.1825 0.81625,-0.1825 0.39125,0 0.5275,0.14125 0.5275,0.6575 l 0,2.1 0.78625,0 0,-2.11375 c 0,-0.81 -0.27375,-1.30125 -1.09625,-1.30125 m 13.09375,1.95375 c 0,0.63875 -0.22,0.88125 -0.72875,0.88125 -0.50875,0 -0.72875,-0.2425 -0.72875,-0.88125 l 0,-0.41 c 0,-0.6375 0.225,-0.875 0.72875,-0.875 0.50875,0 0.72875,0.2375 0.72875,0.875 l 0,0.41 z m -0.72875,-1.95375 c -0.97,0 -1.5025,0.49875 -1.5025,1.54375 l 0,0.41 c 0,1.0525 0.5325,1.55 1.5025,1.55 0.97,0 1.5025,-0.4975 1.5025,-1.55 l 0,-0.41 c 0,-1.045 -0.5325,-1.54375 -1.5025,-1.54375 m -57.40125,3.415 0.82875,0 0,-4.39625 -0.82875,0 0,4.39625 z m 6.8775,-1.9875 -0.26625,-0.1075 c -0.40875,-0.16 -0.52625,-0.21875 -0.52625,-0.43125 0,-0.2375 0.17,-0.2725 0.57375,-0.2725 0.28875,0 0.655,0.0238 1.02875,0.0575 l 0,-0.54125 c -0.16625,-0.055 -0.6625,-0.1325 -1.04125,-0.1325 -0.8875,0 -1.33,0.2375 -1.33,0.90625 0,0.515 0.28875,0.79875 0.91625,1.0475 l 0.25375,0.0987 c 0.49125,0.19625 0.59125,0.255 0.59125,0.48625 0,0.23625 -0.13,0.35 -0.61375,0.35 -0.4275,0 -0.92875,-0.0662 -1.10125,-0.0788 l 0,0.55625 c 0.14875,0.0487 0.67375,0.13125 1.13625,0.13125 0.9275,0 1.34875,-0.37875 1.34875,-1.005 -0.005,-0.55125 -0.255,-0.7775 -0.97,-1.065 m -3.31125,-1.4275 c -0.3725,0 -0.73375,0.14375 -1.09375,0.35 l 0,-0.26625 -0.745,0 0,3.33125 0.77375,0 0,-2.5325 c 0.355,-0.14125 0.65125,-0.225 0.875,-0.225 0.38375,0 0.4675,0.165 0.4675,0.64375 l 0,2.11375 0.78625,0 0,-2.11375 c 0,-0.75625 -0.12375,-1.30125 -1.06375,-1.30125 m 10.2625,-0.7625 -0.78125,0 0,0.84625 -0.62,0 0,0.57375 0.62,0.0525 0,1.83625 c 0,0.69625 0.2625,0.9575 0.91875,0.9575 0.29625,0 0.585,-0.0713 0.67375,-0.095 l 0,-0.5325 c -0.095,0.0125 -0.33125,0.0238 -0.5025,0.0238 -0.28375,0 -0.30875,-0.06 -0.30875,-0.3675 l 0,-1.8225 0.81125,0 0,-0.62625 -0.81125,0 0,-0.84625 z m -2.78375,0.33125 0.805,0 0,-0.75125 -0.805,0 0,0.75125 z m -1.43625,-0.33125 -0.78125,0 0,0.84625 -0.62125,0 0,0.57375 0.62125,0.0525 0,1.83625 c 0,0.69625 0.26,0.9575 0.91625,0.9575 0.295,0 0.58625,-0.0713 0.675,-0.095 l 0,-0.5325 c -0.0937,0.0125 -0.33125,0.0238 -0.50375,0.0238 -0.28375,0 -0.30625,-0.06 -0.30625,-0.3675 l 0,-1.8225 0.81,0 0,-0.62625 -0.81,0 0,-0.84625 z m 1.44125,4.1775 0.78625,0 0,-3.33 -0.78625,0 0,3.33 z m 6.31,-0.79375 c -0.355,0.1375 -0.645,0.225 -0.87,0.225 -0.39,0 -0.47875,-0.17 -0.47875,-0.645 l 0,-2.1175 -0.775,0 0,2.1175 c 0,0.6875 0.13,1.3025 1,1.3025 0.385,0 0.75625,-0.1425 1.1525,-0.35625 l 0,0.2675 0.7525,0 0,-3.33125 -0.78125,0 0,2.5375 z m 2.74875,-3.38375 -0.78125,0 0,0.84625 -0.62,0 0,0.57375 0.62,0.0525 0,1.83625 c 0,0.69625 0.26,0.9575 0.9175,0.9575 0.29625,0 0.585,-0.0713 0.675,-0.095 l 0,-0.5325 c -0.0962,0.0125 -0.3325,0.0238 -0.50375,0.0238 -0.28375,0 -0.3075,-0.06 -0.3075,-0.3675 l 0,-1.8225 0.81125,0 0,-0.62625 -0.81125,0 0,-0.84625 z"
         id="path4364"
         style="fill:#606267;fill-opacity:1;fill-rule:nonzero;stroke:none" />
    </g>
  </g>
</svg>
