<?xml version="1.0" encoding="utf-8"?>
<svg xmlns="http://www.w3.org/2000/svg" x="0px" y="0px" width="250px" height="80.3px">
<path style="fill:#009CDE;" d="M138.3,74.6H78.8V71h59.5V74.6z M7.7,63.7l15.5-10.1c0.5-0.4,0.2-1.2-0.4-1.1L3.9,55.9
	c-0.5,0.1-0.8,0.6-0.6,1c0.9,2.3,2,4.5,3.3,6.6C6.8,63.9,7.3,64,7.7,63.7 M35.7,23.2L30.4,3.5c-0.3-1-0.9-1.2-1.9-0.9
	c-1.8,0.6-3.8,1.4-5.5,2.2C22,5.2,21.4,6,22,7l13.1,16.5C35.3,23.8,35.8,23.5,35.7,23.2 M30.4,29.7L16.9,12.4
	c-0.7-0.9-1.6-1.5-2.5-0.7c-1.3,1.3-3.4,3.4-4.6,4.8c-0.8,0.9-0.1,2.1,0.9,2.7l19.1,11C30.2,30.4,30.6,30,30.4,29.7 M35.5,1.4
	l5.2,14.7c0.1,0.4,0.7,0.3,0.7-0.1l0.2-15.3c0-0.3-0.2-0.5-0.5-0.5c-1.7,0-3.5,0.2-5.2,0.5C35.6,0.8,35.4,1.1,35.5,1.4 M24.3,44.8
	l-22-4.1c-0.9-0.2-1.7,0.5-1.8,1.4c-0.1,2,0,4,0.2,6c0.1,0.9,0.9,1.5,1.7,1.3l21.8-3.7C24.8,45.6,24.8,44.9,24.3,44.8 M26.2,37.5
	L6.4,25.3c-0.7-0.4-1.6-0.1-1.9,0.6c-0.9,2-1.7,4-2.3,6.1c-0.3,0.9,0.3,1.8,1.2,1.9L26,38.2C26.4,38.2,26.6,37.7,26.2,37.5"/>
<path style="fill:#004C97;" d="M78.7,42h3.3l2.1,15.7L86.7,42h3l2.5,15.7L94.2,42h3.2l-3.6,22.9h-3.3l-2.4-15.4l-2.4,15.4h-3.3
	L78.7,42z M102.5,64.8h8.5v-3h-5.3v-6.9h4.7v-3h-4.7V45h5.2v-3h-8.4V64.8z M115.9,63.9c1.2,0.7,2.5,1,4,1c3,0,5.3-2.2,5.3-5.6v0
	c0-2.4-0.8-4-3.8-7.6c-2.1-2.5-2.5-3.3-2.5-4.5c0-1.5,1-2.4,2.3-2.4c1,0,1.9,0.4,3.2,1.1v-3.3c-0.9-0.5-2-0.8-3.4-0.8
	c-3,0-5.3,2.2-5.3,5.5v0c0,2.5,1,4,3.8,7.3c2.1,2.5,2.5,3.6,2.5,4.7c0,1.7-1,2.6-2.5,2.6c-1.2,0-2.2-0.5-3.6-1.3V63.9 M132,64.8h3.2
	V45h3.1v-3h-9.4v3h3.1V64.8z M151.8,64.8h3.2V55h4.3v-3.1h-4.3V45h4.8v-3h-8V64.8z M165.2,64.8h7.9v-3h-4.7V42h-3.2V64.8z
	 M176.7,53.9c0,7.5,2.4,11.2,5.9,11.2c3.4,0,5.9-3.7,5.9-11.2v-1c0-7.5-2.4-11.2-5.9-11.2c-3.4,0-5.9,3.7-5.9,11.2V53.9 M185.2,53.9
	c0,6.1-1.1,8.3-2.6,8.3c-1.5,0-2.6-2.2-2.6-8.3v-1c0-6.1,1.1-8.3,2.6-8.3c1.5,0,2.6,2.2,2.6,8.3V53.9 M194,64.8h3.2v-8.3h0.8
	c0.1,0,0.3,0,0.4,0l3.1,8.3h3.4l-3.4-9.4c1.8-1.1,3.1-3.1,3.1-6.1v-0.2c0-2.4-0.7-4.1-1.9-5.3c-1.2-1.2-3-1.8-5-1.8H194V64.8z
	 M197.2,53.6V45h0.5c2.1,0,3.7,1,3.7,4.2v0.2c0,2.9-1.5,4.2-3.6,4.2H197.2z M210.2,64.8h3.2V42h-3.2V64.8z M219.5,64.8h3.4
	c4.8,0,7.7-3.7,7.7-11V53c0-7.3-2.9-11-7.7-11h-3.4V64.8z M223.2,44.9c2.3,0,4.2,2.2,4.2,8.1v0.7c0,5.9-1.9,8.1-4.2,8.1h-0.5V44.9
	H223.2z M234.6,64.8h3.1l0.9-5.1h4.3l0.9,5.1h3.3l-4.5-22.8h-3.4L234.6,64.8z M239.1,56.8l1.7-9.1l1.7,9.1H239.1z M78.8,25
	c0,4.5,2.3,6.7,5.5,6.7c3.2,0,5.4-2.2,5.4-6.7V8.6h-3.2v16.7c0,2.3-0.9,3.4-2.2,3.4c-1.3,0-2.2-1.1-2.2-3.4V8.6h-3.2V25 M95.6,31.4
	h3.1V16.9l5.2,14.5h2.9V8.6h-3.1v14l-5-14h-3.1V31.4z M112.8,31.4h3.2V8.6h-3.2V31.4z M125.3,31.5h3.3l4.3-22.9h-3.2L127,25.1
	l-2.7-16.5H121L125.3,31.5z M137.8,31.4h8.5v-3H141v-6.9h4.7v-3H141v-6.8h5.2v-3h-8.4V31.4z M151.7,31.4h3.2v-8.3h0.8
	c0.1,0,0.3,0,0.4,0l3.1,8.3h3.4l-3.4-9.4c1.8-1.1,3.1-3.1,3.1-6.1v-0.2c0-2.4-0.7-4.1-1.9-5.3c-1.2-1.2-3-1.8-5-1.8h-3.7V31.4z
	 M155,20.2v-8.6h0.5c2.1,0,3.7,1,3.7,4.2V16c0,2.9-1.5,4.2-3.6,4.2H155z M167.3,30.6c1.2,0.7,2.5,1,4,1c3,0,5.3-2.2,5.3-5.6v0
	c0-2.4-0.8-4-3.8-7.6c-2.1-2.5-2.5-3.3-2.5-4.5c0-1.5,1-2.4,2.3-2.4c1,0,1.9,0.4,3.2,1.1V9.3c-0.9-0.5-2-0.8-3.4-0.8
	c-3,0-5.3,2.2-5.3,5.5v0c0,2.5,1,4,3.8,7.3c2.1,2.5,2.5,3.6,2.5,4.7c0,1.7-1,2.6-2.5,2.6c-1.2,0-2.2-0.5-3.6-1.3V30.6 M181.8,31.4
	h3.2V8.6h-3.2V31.4z M193.3,31.4h3.2V11.7h3.1v-3h-9.4v3h3.1V31.4z M207.4,31.4h3.2v-9.2l4.4-13.5h-3.3l-2.7,9.3l-2.7-9.3h-3.3
	l4.4,13.5V31.4z M225.2,16.9c-1.7,1.6-2.8,4.2-2.9,6.2c-0.1,2,1.1,3.6,3.4,3.6c1.2,0,2.8-0.3,4.4-1.9c1.9-1.8,2.7-4.3,2.7-6
	c0-2.1-0.9-3.8-3.4-3.8C228.1,15,226.8,15.4,225.2,16.9 M227.9,24.1c-0.8,1.2-1.4,1.6-2.1,1.6c-0.6,0-1-0.6-1-1.4c0-2,1.4-5.3,2.7-7
	c0.7-0.9,1.3-1.2,1.8-1.2c0.8,0,0.9,0.7,0.9,1.5C230.2,19.3,228.9,22.7,227.9,24.1 M245.1,16.7c0.4-0.2,0.6-0.9,0.3-1.2h-3.3
	c0.6-2.2,1.2-4.3,2.1-6.1c0.7-1.4,1.2-1.8,1.7-1.8c0.6,0,1.3,0.6,1.5,2.2c0.1,0.4,0.2,0.6,0.6,0.6c0.6,0,1.5-0.7,1.5-1.6
	c0-1.1-1.1-2.1-2.6-2.1c-2,0-3.8,1.2-5.1,3.2c-1.1,1.6-1.7,3.5-2.4,5.7h-2.5c-0.4,0.2-0.6,0.8-0.3,1.2h2.5
	c-1.4,4.9-2.7,10.2-3.7,13.5c-0.6,1.9-0.9,2.4-1.4,2.4c-0.5,0-1.1-0.6-1.6-1.5c-0.2-0.4-0.4-0.6-0.8-0.6c-0.6,0-1.4,0.7-1.4,1.4
	c0,1,1,1.9,2.5,1.9c1.8,0,3.2-1.2,3.9-1.9c0.9-0.9,1.5-2.5,2.2-4.7c0.9-2.7,2.1-7.7,3-10.5H245.1z M39.8,34.3
	c-9.1,2.3-13,11.4-11.1,17.5c1.4,4.4,5.2,7.4,9.8,7.3c2.9-0.1,6-1.9,6.5-5c0.5-3.4-2.1-6.2-4.6-6c-2,0.1-3.1,1.9-3.1,2.8
	c0,1,0.7,1.6,1.3,1.6c0.4,0,0.9-0.2,0.9-0.8c0-0.2,0.2-0.1,0.3,0c0.1,0.4,0.3,1.3-0.6,1.8c-1.4,0.7-3.5-0.8-3.5-2.7
	c0-2.2,1.8-4.7,5.2-4.8c3.7,0,6.7,3.4,7,7.4c0.3,3.6-2.5,7.6-6.8,8.8c-3.9,1.1-9.1-0.1-13.2-3.5c-1.1-0.9-2.7-1-3.8-0.1L10.5,68.9
	c-0.1,0.1-0.2,0.3,0,0.4c6.8,6.9,16.2,11,25.6,10.8c0.3,0,0.7,0,1,0c14.6-0.8,27.9-12.7,26.1-28C61.8,40.9,52.1,31.2,39.8,34.3"/>
</svg>
