<svg xmlns="http://www.w3.org/2000/svg" fill="none" viewBox="0 0 376 89.38">
<path d="M13.4218 47.386C10.8383 44.8654 11.5314 43.6052 14.9971 44.6134L50.0325 54.6325C53.4982 55.6407 55.5147 53.6243 54.5695 50.0955L44.5504 15.0602C43.5422 11.5944 44.8024 10.9013 47.3229 13.4848L72.6543 39.6983C75.1748 42.2819 77.9474 41.5257 78.8296 38.06L87.7144 2.64655C88.1555 0.882183 88.7227 0 89.2898 0H0V89.2898C11.6574 84.0597 26.9067 79.9008 44.3613 77.2542L13.4218 47.386Z" fill="#0052C4"/>
<path d="M89.2898 81.4131C125.459 81.4131 157.722 84.5008 178.58 89.3528C166.922 84.1227 151.673 79.9638 134.218 77.3172L165.158 47.386C167.741 44.8654 167.048 43.6052 163.582 44.6134L128.547 54.6325C125.081 55.6407 123.065 53.6243 124.01 50.0955L134.029 15.0602C135.037 11.5944 133.777 10.9013 131.257 13.4848L105.925 39.6983C103.405 42.2819 100.632 41.5257 99.75 38.06L90.8651 2.64655C90.424 0.882183 89.8569 0 89.2898 0V81.4131Z" fill="url(#paint0_linear_104_331)"/>
<path d="M262.135 68.3063C262.135 68.9365 261.631 69.3775 261.064 69.3775C260.497 69.3775 259.993 68.8734 259.993 68.3063C259.993 67.6762 260.497 67.2351 261.064 67.2351C261.631 67.2351 262.135 67.6762 262.135 68.3063ZM236.174 72.0871V83.3035H237.686V73.0953V72.9693L237.749 72.9063C238.316 72.7172 239.072 72.5912 239.955 72.5912C241.215 72.5912 241.845 72.7172 242.16 72.8433L242.475 71.583C242.223 71.457 241.467 71.2679 240.207 71.2679C237.875 71.331 236.489 71.8981 236.174 72.0871ZM251.927 75.6159V82.9884C251.486 83.1144 249.659 83.4925 247.579 83.4925C243.798 83.4925 243.231 81.161 243.231 79.7747C243.231 78.4514 243.861 76.183 248.209 76.183C249.407 76.183 250.478 76.498 250.478 76.498V75.8049C250.478 74.8597 250.478 72.5912 247.642 72.5912C246.382 72.5912 245.374 72.8433 244.933 73.0323L244.618 71.772C244.933 71.646 245.941 71.2679 247.768 71.2679C249.596 71.331 251.927 72.0871 251.927 75.6159ZM250.415 77.8843C250.415 77.8843 249.785 77.5063 248.083 77.5063C246.571 77.5063 244.681 77.8843 244.681 79.8377C244.681 80.4049 244.681 82.1692 247.705 82.1692C249.47 82.1692 250.352 81.9802 250.352 81.9802V77.8843H250.415ZM223.382 77.3172C222.941 77.1282 222.5 76.9391 222.059 76.7501C221.618 76.5611 221.24 76.435 220.862 76.246C220.483 76.057 219.349 75.5528 219.349 74.3556C219.349 73.2844 220.294 72.6542 221.807 72.6542C223.319 72.6542 224.264 73.0323 224.642 73.1583L225.02 71.8351C224.705 71.709 223.634 71.2679 221.933 71.2679C218.908 71.2679 217.9 72.9693 217.9 74.4816C217.9 75.6789 218.593 76.6241 219.979 77.3172C220.42 77.5063 220.799 77.6953 221.24 77.8843L221.492 78.0104C223.193 78.7035 224.138 79.0816 224.138 80.4049C224.138 81.6021 223.13 82.2322 221.177 82.2322C219.475 82.2322 218.467 81.7912 218.089 81.5391L217.711 82.9254C217.963 83.0514 219.034 83.5555 221.177 83.5555C222.563 83.5555 223.634 83.3035 224.453 82.7364C225.272 82.1692 225.651 81.4131 225.651 80.3419C225.525 78.2624 223.949 77.5693 223.382 77.3172ZM198.429 67.5502C200.508 71.709 204.163 81.3501 204.856 83.3665H203.218C202.966 82.6103 201.895 79.7117 201.642 79.0186H193.955C193.703 79.7117 192.632 82.6103 192.38 83.3665H190.741C191.434 81.3501 195.026 71.709 197.169 67.5502H198.429ZM201.138 77.6953C200.571 76.12 198.807 71.583 197.799 69.3145C196.727 71.52 195.026 76.12 194.459 77.6953H201.138ZM231.574 82.2322C229.998 82.2322 229.116 81.7281 229.116 79.0816V72.8433H233.842V71.583H229.116V67.9913L227.604 68.3693V78.9556C227.604 81.7281 228.234 83.6185 231.448 83.6185C232.897 83.6185 234.031 83.0514 234.283 82.8624L233.968 81.6021C233.527 81.8542 232.897 82.2322 231.574 82.2322ZM272.721 75.6159V82.9884C272.28 83.1144 270.453 83.4925 268.374 83.4925C264.593 83.4925 264.026 81.161 264.026 79.7747C264.026 78.4514 264.656 76.183 269.004 76.183C270.201 76.183 271.272 76.498 271.272 76.498V75.8049C271.272 74.8597 271.272 72.5912 268.437 72.5912C267.176 72.5912 266.168 72.8433 265.727 73.0323L265.412 71.772C265.727 71.646 266.735 71.2679 268.563 71.2679C270.39 71.331 272.721 72.0871 272.721 75.6159ZM271.209 77.8843C271.209 77.8843 270.579 77.5063 268.878 77.5063C267.365 77.5063 265.475 77.8843 265.475 79.8377C265.475 80.4049 265.475 82.1692 268.5 82.1692C270.264 82.1692 271.146 81.9802 271.146 81.9802V77.8843H271.209ZM260.308 83.3035H261.82V71.52H260.308V83.3035ZM213.93 81.9172C213.93 81.9172 212.922 82.2322 211.094 82.2322C208.259 82.2322 207.692 80.5309 207.692 77.6953V71.583H206.179V78.1994C206.179 80.5309 206.684 83.6185 210.842 83.6185C213.048 83.6185 214.434 83.2405 215.316 82.9884H215.379V71.583H213.867V81.9172H213.93ZM256.527 80.4679V65.6598L255.015 66.0378V80.4679C255.015 82.7994 256.338 83.1774 256.716 83.3035C257.094 83.4295 257.409 83.4925 257.913 83.4925L258.228 82.2953C257.913 82.2322 257.661 82.1692 257.472 82.1062C257.22 82.1062 256.527 81.9802 256.527 80.4679ZM262.009 35.9805C261.19 35.9805 260.56 36.6107 260.56 37.4298C260.56 38.249 261.19 38.8791 262.009 38.8791C262.828 38.8791 263.458 38.249 263.458 37.4298C263.458 36.6737 262.828 35.9805 262.009 35.9805ZM229.998 48.2051V55.7037H232.078V47.638C232.078 44.2983 231.133 40.9586 226.281 40.9586C223.445 40.9586 221.807 41.4627 220.673 41.7777V55.7037H222.752V43.227C224.012 42.912 225.146 42.912 225.966 42.912C229.368 42.912 229.998 44.8024 229.998 48.2051ZM215.19 53.6872C213.93 54.0023 212.796 54.0023 211.977 54.0023C208.7 54.0023 208.007 52.1119 208.007 48.7092V41.2106H205.927V49.2763C205.927 52.616 206.873 55.9557 211.725 55.9557C214.56 55.9557 216.199 55.4516 217.333 55.1366V41.2106H215.253V53.6872H215.19ZM255.582 55.7037H257.661V47.638C257.661 44.2983 256.716 40.9586 251.864 40.9586C250.226 40.9586 248.902 41.3997 248.398 41.5887V34.1531L246.319 34.5312V55.7037H248.398V43.4791C248.461 43.4791 250.226 42.912 251.612 42.912C254.889 42.912 255.582 44.8024 255.582 48.2051V55.7037ZM197.043 54.1914C193.892 54.1914 191.938 52.8051 191.938 52.8051L191.245 54.6955C191.245 54.6955 193.325 56.0818 197.043 56.0818C201.643 56.0818 203.848 53.9393 203.848 50.7886C203.848 47.2599 201.075 46.1257 200.382 45.8106C199.689 45.4955 198.996 45.1805 198.24 44.8654C197.61 44.6133 197.043 44.3613 196.538 44.1092C196.034 43.8572 194.018 43.101 194.018 40.9586C194.018 40.3915 194.018 37.9339 197.988 37.9339C200.886 37.9339 202.462 39.1942 202.462 39.1942L203.218 37.3038C203.218 37.3038 201.327 35.9175 198.051 35.9175C192.443 35.9175 191.812 39.3832 191.812 41.0216C191.812 44.0462 194.207 45.1805 194.837 45.5585C195.467 45.8736 196.16 46.1887 196.98 46.5037C197.61 46.7558 198.177 47.0078 198.744 47.1969C199.311 47.3859 199.815 47.701 200.193 48.0161C200.634 48.3311 201.579 49.0873 201.579 50.7886C201.579 52.0489 201.327 54.1914 197.043 54.1914ZM241.341 48.2051C240.837 47.953 240.333 47.764 239.766 47.5119C239.261 47.3229 238.757 47.0709 238.379 46.9448C238.001 46.7558 236.552 46.2517 236.552 44.8024C236.552 43.3531 238.001 42.912 239.387 42.912C241.593 42.912 242.853 43.6051 242.853 43.6051L243.357 41.7147C243.357 41.7147 242.034 40.9586 239.45 40.9586C235.985 40.9586 234.409 42.849 234.409 44.9284C234.409 47.2599 236.489 48.2051 236.993 48.4571C237.497 48.7092 238.001 48.8982 238.505 49.1503C240.774 50.0325 241.908 50.4736 241.908 52.0489C241.908 52.8051 241.593 54.0653 238.568 54.0653C236.048 54.0653 234.724 53.1831 234.724 53.1831L234.22 55.1366C234.22 55.1366 235.481 56.0187 238.568 56.0187C240.27 56.0187 241.593 55.7037 242.601 55.0105C243.609 54.3174 244.113 53.3092 244.113 51.9859C244.05 49.2763 241.845 48.3941 241.341 48.2051ZM310.592 37.997C312.483 37.997 313.806 38.5641 314.751 39.0682L315.759 37.3668C315.759 37.3668 313.869 36.0435 310.277 36.0435C305.614 36.0435 301.329 39.5723 301.329 46.0626C301.329 52.553 305.551 56.0818 310.277 56.0818C313.869 56.0818 315.759 54.7585 315.759 54.7585L314.751 53.0571C313.806 53.6242 312.483 54.1283 310.592 54.1283C306.308 54.1283 303.598 51.2297 303.598 46.0626C303.598 40.8956 306.308 37.997 310.592 37.997ZM351.74 48.2051C351.236 47.953 350.732 47.764 350.165 47.5119C349.661 47.3229 349.157 47.0709 348.778 46.9448C348.4 46.7558 346.951 46.2517 346.951 44.8024C346.951 43.3531 348.4 42.912 349.787 42.912C351.992 42.912 353.252 43.6051 353.252 43.6051L353.756 41.7147C353.756 41.7147 352.433 40.9586 349.85 40.9586C346.384 40.9586 344.809 42.849 344.809 44.9284C344.809 47.2599 346.888 48.2051 347.392 48.4571C347.896 48.7092 348.4 48.8982 348.904 49.1503C351.173 50.0325 352.307 50.4736 352.307 52.0489C352.307 52.8051 351.992 54.0653 348.967 54.0653C346.447 54.0653 345.124 53.1831 345.124 53.1831L344.62 55.1366C344.62 55.1366 345.88 56.0187 348.967 56.0187C350.669 56.0187 351.992 55.7037 353 55.0105C354.009 54.3174 354.513 53.3092 354.513 51.9859C354.45 49.2763 352.244 48.3941 351.74 48.2051ZM342.477 46.3147V55.3256C342.477 55.3256 339.957 56.0187 337.121 56.0187C332.899 56.0187 331.765 53.5612 331.765 51.4188C331.765 49.8434 332.458 46.9448 337.877 46.9448C339.137 46.9448 340.398 47.2599 340.398 47.2599V46.6298C340.398 44.9914 340.146 42.912 337.121 42.912C335.42 42.912 334.222 43.2901 333.781 43.4791L333.277 41.6517C333.277 41.6517 334.537 40.9586 337.247 40.9586C339.452 40.9586 342.477 41.8408 342.477 46.3147ZM340.398 49.0873C340.398 49.0873 339.642 48.7092 337.814 48.7092C333.907 48.7092 333.907 50.7886 333.907 51.3558C333.907 52.1749 334.033 54.0023 337.436 54.0023C339.452 54.0023 340.398 53.8133 340.398 53.8133V49.0873ZM330 48.4571C330 52.8681 327.291 55.9557 323.384 55.9557C319.477 55.9557 316.768 52.8681 316.768 48.4571C316.768 44.0462 319.477 40.9586 323.384 40.9586C327.291 40.9586 330 44.0462 330 48.4571ZM327.795 48.4571C327.795 45.7476 326.598 42.912 323.384 42.912C320.17 42.912 318.973 45.8106 318.973 48.4571C318.973 51.1667 320.17 54.0023 323.384 54.0023C326.598 54.0023 327.795 51.1667 327.795 48.4571ZM292.634 48.0161C292.634 48.5832 292.571 49.0243 292.571 49.0243H282.678C282.678 50.0955 282.804 54.0653 287.656 54.0653C289.987 54.0653 291.31 53.2462 291.31 53.2462L291.688 55.0735C291.688 55.0735 290.113 55.9557 287.593 55.9557C284.568 55.9557 280.472 54.6955 280.472 48.4571C280.472 43.7312 283.308 40.9586 286.836 40.9586C288.538 40.9586 292.634 41.5257 292.634 48.0161ZM290.491 47.1969C290.491 45.6216 289.798 42.912 286.836 42.912C283.686 42.912 282.741 46.1257 282.741 47.1969H290.491ZM260.938 55.7037H263.017V41.2106H260.938V55.7037ZM361.381 54.0653C359.617 54.0653 358.609 53.5612 358.609 50.4106V43.101H364.217V41.2736H358.609V36.9257L356.529 37.4928V50.2845C356.529 53.4982 357.222 56.0187 361.255 56.0187C363.398 56.0187 364.847 55.0735 364.847 55.0735L364.343 53.2462C363.902 53.5612 363.082 54.0653 361.381 54.0653ZM272.091 40.9586C269.256 40.9586 267.617 41.4627 266.483 41.7777V55.7037H268.563V43.227C269.823 42.912 270.957 42.912 271.776 42.912C275.053 42.912 275.746 44.8024 275.746 48.2051V55.7037H277.826V47.638C277.889 44.2983 276.943 40.9586 272.091 40.9586ZM241.53 18.1478C241.53 13.4218 244.365 10.6492 247.894 10.6492C249.659 10.6492 253.754 11.2163 253.754 17.7067C253.754 18.2738 253.691 18.7149 253.691 18.7149H243.798C243.798 19.7861 243.924 23.756 248.776 23.756C251.108 23.756 252.431 22.9368 252.431 22.9368L252.809 24.7642C252.809 24.7642 251.234 25.6464 248.713 25.6464C245.626 25.6464 241.53 24.4491 241.53 18.1478ZM243.798 16.8875H251.549C251.549 15.3122 250.856 12.6026 247.894 12.6026C244.807 12.6026 243.798 15.8163 243.798 16.8875ZM225.462 8.63278C226.281 8.63278 226.911 8.00265 226.911 7.18347C226.911 6.3643 226.281 5.73417 225.462 5.73417C224.642 5.73417 224.012 6.3643 224.012 7.18347C224.012 8.00265 224.642 8.63278 225.462 8.63278ZM235.607 25.3943C239.324 17.7067 240.9 10.9013 240.9 10.9013H238.694C238.694 10.9013 237.371 16.9505 234.661 22.9368C231.889 16.9505 230.629 10.9013 230.629 10.9013H228.423C228.423 10.9013 229.998 17.6437 233.716 25.3943H235.607ZM269.382 23.756C266.861 23.756 265.538 22.8738 265.538 22.8738L265.034 24.8272C265.034 24.8272 266.294 25.7094 269.382 25.7094C271.083 25.7094 272.406 25.3943 273.415 24.7012C274.423 24.008 274.927 22.9998 274.927 21.6765C274.927 19.03 272.721 18.1478 272.217 17.8957C271.713 17.6437 271.209 17.4546 270.642 17.2026C270.138 17.0135 269.634 16.7615 269.256 16.6355C268.878 16.4464 267.428 15.9423 267.428 14.493C267.428 13.0437 268.878 12.6026 270.264 12.6026C272.469 12.6026 273.73 13.2958 273.73 13.2958L274.234 11.4054C274.234 11.4054 272.91 10.6492 270.327 10.6492C266.861 10.6492 265.286 12.5396 265.286 14.619C265.286 16.9505 267.365 17.8957 267.869 18.1478C268.374 18.3998 268.878 18.5889 269.382 18.8409C271.65 19.7231 272.784 20.1642 272.784 21.7395C272.721 22.4957 272.469 23.756 269.382 23.756ZM287.277 25.6464C289.42 25.6464 290.869 24.7012 290.869 24.7012L290.365 22.8738C289.861 23.1888 289.042 23.6929 287.341 23.6929C285.576 23.6929 284.568 23.1888 284.568 20.0382V12.7286H290.176V10.9013H284.568V6.55334L282.489 7.12046V19.9122C282.489 23.1888 283.182 25.6464 287.277 25.6464ZM375.874 18.7149H365.981C365.981 19.7861 366.107 23.756 370.959 23.756C373.291 23.756 374.614 22.9368 374.614 22.9368L374.992 24.7642C374.992 24.7642 373.417 25.6464 370.896 25.6464C367.871 25.6464 363.776 24.3861 363.776 18.1478C363.776 13.4218 366.611 10.6492 370.14 10.6492C371.904 10.6492 376 11.2163 376 17.7067C375.937 18.2738 375.874 18.7149 375.874 18.7149ZM373.795 16.8875C373.795 15.3122 373.102 12.6026 370.14 12.6026C366.989 12.6026 366.044 15.8163 366.044 16.8875H373.795ZM327.543 12.7286H333.214V10.9013H327.543V9.57798C327.543 8.06566 327.732 5.73417 330.883 5.73417C332.458 5.73417 333.34 6.17526 333.34 6.17526L333.844 4.34788C333.844 4.34788 332.962 3.78076 330.82 3.78076C325.716 3.78076 325.464 7.81361 325.464 9.51497V25.3313H327.543V12.7286ZM224.39 25.3943H226.47V10.9013H224.39V25.3943ZM277.069 25.3943H279.149V10.9013H277.069V25.3943ZM301.519 10.9013C301.519 10.9013 299.817 18.8409 298.179 22.9368C295.154 16.9505 293.642 10.9013 293.642 10.9013H291.436C291.436 10.9013 293.201 18.2738 297.171 25.3943C296.54 26.9066 295.847 28.734 293.138 28.734C292.066 28.734 291.436 28.2929 291.436 28.2929L290.932 30.1203C290.932 30.1203 291.751 30.6244 293.075 30.6244C297.171 30.6244 298.242 28.0409 299.187 25.8354C302.086 18.9039 303.724 11.0273 303.724 11.0273H301.519V10.9013ZM278.141 5.73417C277.321 5.73417 276.691 6.3643 276.691 7.18347C276.691 8.00265 277.321 8.63278 278.141 8.63278C278.96 8.63278 279.59 8.00265 279.59 7.18347C279.59 6.3643 278.96 5.73417 278.141 5.73417ZM316.075 25.6464C312.168 25.6464 309.458 22.5587 309.458 18.1478C309.458 13.7369 312.168 10.6492 316.075 10.6492C319.981 10.6492 322.691 13.7369 322.691 18.1478C322.691 22.5587 320.044 25.6464 316.075 25.6464ZM320.485 18.1478C320.485 15.4382 319.288 12.6026 316.075 12.6026C312.861 12.6026 311.664 15.5012 311.664 18.1478C311.664 20.7943 312.861 23.6929 316.075 23.6929C319.288 23.6929 320.485 20.8573 320.485 18.1478ZM211.851 12.9177C213.111 12.6026 214.245 12.6026 215.064 12.6026C218.341 12.6026 219.034 14.493 219.034 17.8957V25.3943H221.114V17.3286C221.114 13.9889 220.168 10.6492 215.316 10.6492C212.481 10.6492 210.842 11.1533 209.708 11.4684V25.3943H211.788V12.9177H211.851ZM261.379 10.6492C258.165 10.6492 256.401 11.6574 256.401 11.6574V25.3943H258.48V12.9807C258.606 12.9177 259.426 12.6026 261.064 12.6026C262.891 12.6026 263.585 12.9177 263.774 12.9807L264.278 11.1533C264.278 11.1533 263.332 10.6492 261.379 10.6492ZM347.518 22.8738C347.014 23.1888 346.195 23.6929 344.494 23.6929C342.729 23.6929 341.721 23.1888 341.721 20.0382V12.7286H347.329V10.9013H341.721V6.55334L339.642 7.12046V19.9122C339.642 23.1258 340.335 25.6464 344.368 25.6464C346.51 25.6464 347.959 24.7012 347.959 24.7012L347.518 22.8738ZM199.059 25.8354C206.242 25.8354 206.116 19.282 206.116 18.2108V6.11225H203.911V17.9587C203.911 18.967 203.911 23.819 198.996 23.819C194.081 23.819 194.081 18.967 194.081 17.9587V6.11225H191.875V18.2108C192.001 19.282 191.875 25.8354 199.059 25.8354ZM359.05 17.8957V25.3943H361.129V17.3286C361.129 13.9889 360.184 10.6492 355.332 10.6492C353.693 10.6492 352.37 11.0903 351.866 11.2793V3.84377L349.787 4.41089V25.3943H351.866V13.1697C351.929 13.1697 353.693 12.6026 355.08 12.6026C358.419 12.6026 359.05 14.493 359.05 17.8957Z" fill="black"/>
<defs>
<linearGradient id="paint0_linear_104_331" x1="78.0383" y1="100.602" x2="161.539" y2="17.1014" gradientUnits="userSpaceOnUse">
<stop offset="0.2703" stop-color="#FFDD15"/>
<stop offset="0.8809" stop-color="#FAAF40"/>
</linearGradient>
</defs>
</svg>