<?xml version="1.0"?>
<svg xmlns="http://www.w3.org/2000/svg" xmlns:xlink="http://www.w3.org/1999/xlink" width="496.5" height="113" viewBox="0 0 496.5 113">
<path fill="#008357" d="M2.842,2.993v54.735c0,0-2.293,33.269,44.742,53.177c47.035-19.908,44.744-53.177,44.744-53.177V2.993H2.842 z"/>
<path fill="none" stroke="#231F20" stroke-width="1.4706" d="M2.842,2.993v54.735c0,0-2.293,33.269,44.742,53.177
	c47.035-19.908,44.744-53.177,44.744-53.177V2.993H2.842z"/>
<path fill="#231F20" d="M47.591,60.179c-0.249,1.94,3.009,2.401,3.009,2.401l21.401,5.593l-0.032-19.476h2.114l0.007,22.2
	l-24.298-6.363c-0.816,1.021-2.202,0.921-2.202,0.921s-1.387,0.101-2.203-0.921l-24.298,6.363l0.007-22.2h2.115l-0.033,19.476
	L44.58,62.58C44.58,62.58,47.838,62.119,47.591,60.179"/>
<path fill="none" stroke="#231F20" stroke-width="1.1716" d="M47.591,60.179c-0.249,1.94,3.009,2.401,3.009,2.401l21.401,5.593
	l-0.032-19.476h2.114l0.007,22.2l-24.298-6.363c-0.816,1.021-2.202,0.921-2.202,0.921s-1.387,0.101-2.203-0.921l-24.298,6.363
	l0.007-22.2h2.115l-0.033,19.476L44.58,62.58C44.58,62.58,47.838,62.119,47.591,60.179"/>
<polyline fill="#231F20" points="72.031,48.68 74.091,48.692 74.091,70.896 49.772,64.527 "/>
<polyline fill="none" stroke="#231F20" stroke-width="1.1727" points="72.031,48.68 74.091,48.692 74.091,70.896 49.772,64.527 "/>
<polyline fill="#231F20" points="23.147,48.68 21.089,48.692 21.089,70.896 45.407,64.527 "/>
<polyline fill="none" stroke="#231F20" stroke-width="1.1727" points="23.147,48.68 21.089,48.692 21.089,70.896 45.407,64.527 "/>
<path fill="#FFD520" d="M27.143,42.586l-3.944,6.052l-0.034,19.505l21.441-5.575c0,0,3.199-0.415,2.982-2.451
	c0,0-1.545-2.258-5.037-2.463c-2.681-0.156-5.101,0.492-9.291,3.091c-5.659,3.508-6.117,1.256-6.117,1.256V42.586z"/>
<path fill="none" stroke="#FFD520" stroke-width="0.2941" d="M27.143,42.586l-3.944,6.052l-0.034,19.505l21.441-5.575
	c0,0,3.199-0.415,2.982-2.451c0,0-1.545-2.258-5.037-2.463c-2.681-0.156-5.101,0.492-9.291,3.091
	c-5.659,3.508-6.117,1.256-6.117,1.256V42.586z"/>
<path fill="#FFD520" d="M68.037,42.586l3.946,6.052l0.031,19.505l-21.439-5.575c0,0-3.2-0.415-2.982-2.451
	c0,0,1.544-2.258,5.038-2.463c2.68-0.156,5.1,0.492,9.29,3.091c5.66,3.508,6.117,1.256,6.117,1.256V42.586z"/>
<path fill="none" stroke="#FFD520" stroke-width="0.2941" d="M68.037,42.586l3.946,6.052l0.031,19.505l-21.439-5.575
	c0,0-3.2-0.415-2.982-2.451c0,0,1.544-2.258,5.038-2.463c2.68-0.156,5.1,0.492,9.29,3.091c5.66,3.508,6.117,1.256,6.117,1.256 V42.586z"/>
<line fill="none" stroke="#231F20" stroke-width="1.1727" x1="68.022" y1="42.644" x2="72.433" y2="49.405"/>
<line fill="none" stroke="#231F20" stroke-width="1.1727" x1="27.158" y1="42.644" x2="22.747" y2="49.405"/>
<path fill="#FFFFFF" d="M47.592,60.113c0,0-4.075-5.913-14.046,0.497c-5.895,3.787-6.378,1.399-6.378,1.399l-0.005-0.015V42.644
	c0,0,1.496,1.563,6.384-1.396c10.139-6.139,14.046-0.41,14.046-0.41V60.113z"/>
<path fill="none" stroke="#231F20" stroke-width="1.1725" d="M47.592,60.113c0,0-4.075-5.913-14.046,0.497
	c-5.895,3.787-6.378,1.399-6.378,1.399l-0.005-0.015V42.644c0,0,1.496,1.563,6.384-1.396c10.139-6.139,14.046-0.41,14.046-0.41 V60.113z"/>
<path fill="#FFFFFF" d="M47.589,60.113c0,0,4.073-5.913,14.044,0.497c5.896,3.787,6.379,1.399,6.379,1.399l0.005-0.015V42.644
	c0,0-1.496,1.563-6.385-1.396c-10.138-6.139-14.044-0.41-14.044-0.41V60.113z"/>
<path fill="none" stroke="#231F20" stroke-width="1.1725" d="M47.589,60.113c0,0,4.073-5.913,14.044,0.497
	c5.896,3.787,6.379,1.399,6.379,1.399l0.005-0.015V42.644c0,0-1.496,1.563-6.385-1.396c-10.138-6.139-14.044-0.41-14.044-0.41 V60.113z"/>
<line fill="none" stroke="#231F20" stroke-width="1.1727" x1="68.038" y1="62.004" x2="71.999" y2="68.159"/>
<line fill="none" stroke="#231F20" stroke-width="1.1727" x1="27.142" y1="62.004" x2="23.181" y2="68.159"/>
<path fill="none" stroke="#231F20" stroke-width="1.1727" d="M23.216,48.745l-0.038,19.42L44.58,62.57c0,0,3.148-0.354,3.012-2.218"/>
<path fill="none" stroke="#231F20" stroke-width="1.1727" d="M71.966,48.745l0.035,19.42L50.6,62.57c0,0-2.777-0.121-3.008-2.218"/>
<path fill="#231F20" d="M52.38,49.333c1.861-0.142,1.922,1.002,1.946,1.408c0.043,0.778-0.328,1.229-0.658,1.479
	c-0.269,0.204-0.351,0.258-0.244,0.467c0.611,1.208,0.917,1.59,1.562,2.227c0.111,0.11,0.222,0.139,0.286,0.137
	c0.079,0,0.157-0.053,0.235-0.056c0.072,0,0.118,0.052,0.12,0.122c0.003,0.272-0.517,0.47-0.833,0.472
	c-0.622,0.005-1.297-0.582-1.545-1.088l-0.674-1.216c-0.185-0.384-0.328-0.462-0.722-0.457c-0.418,0.001-0.37,0.062-0.368,0.369
	l0.012,1.25c-0.014,1.029,0.796,0.533,0.798,0.849c0.001,0.077-0.061,0.132-0.243,0.133c-0.133,0.001-0.434,0.062-0.783,0.131
	c-0.406,0.083-0.623,0.143-1.119,0.34c-0.08,0.033-0.252,0.03-0.254-0.146c-0.002-0.28,0.654-0.059,0.63-1.416l-0.024-3.186
	c-0.057-1.325-0.751-0.61-0.767-0.985c-0.004-0.089,0.14-0.13,0.229-0.162C49.964,50.005,51.247,49.421,52.38,49.333z"/>
<path fill="none" stroke="#231F20" stroke-width="0.0749" d="M52.38,49.333c1.861-0.142,1.922,1.002,1.946,1.408
	c0.043,0.778-0.328,1.229-0.658,1.479c-0.269,0.204-0.351,0.258-0.244,0.467c0.611,1.208,0.917,1.59,1.562,2.227
	c0.111,0.11,0.222,0.139,0.286,0.137c0.079,0,0.157-0.053,0.235-0.056c0.072,0,0.118,0.052,0.12,0.122
	c0.003,0.272-0.517,0.47-0.833,0.472c-0.622,0.005-1.297-0.582-1.545-1.088l-0.674-1.216c-0.185-0.384-0.328-0.462-0.722-0.457
	c-0.418,0.001-0.37,0.062-0.368,0.369l0.012,1.25c-0.014,1.029,0.796,0.533,0.798,0.849c0.001,0.077-0.061,0.132-0.243,0.133
	c-0.133,0.001-0.434,0.062-0.783,0.131c-0.406,0.083-0.623,0.143-1.119,0.34c-0.08,0.033-0.252,0.03-0.254-0.146
	c-0.002-0.28,0.654-0.059,0.63-1.416l-0.024-3.186c-0.057-1.325-0.751-0.61-0.767-0.985c-0.004-0.089,0.14-0.13,0.229-0.162
	C49.964,50.005,51.247,49.421,52.38,49.333z"/>
<path fill="#231F20" d="M57.382,54.679c-0.014,1.605,0.775,1.295,0.77,1.575c-0.003,0.097-0.079,0.15-0.251,0.092
	c-0.359-0.123-0.68-0.265-1.159-0.429c-0.319-0.111-0.644-0.199-0.92-0.263c-0.07-0.014-0.086-0.063-0.085-0.106
	c0.007-0.307,0.681,0.194,0.675-0.822l0.099-4.203c-0.013-0.743-0.611-0.427-0.605-0.732c0.003-0.147,0.193-0.112,0.263-0.095
	c0.317,0.072,0.44,0.12,0.786,0.221c0.271,0.08,0.535,0.18,0.86,0.289c0.224,0.076,0.322,0.101,0.319,0.205
	c-0.006,0.3-0.726-0.237-0.671,0.796L57.382,54.679z"/>
<path fill="none" stroke="#231F20" stroke-width="0.0749" d="M57.382,54.679c-0.014,1.605,0.775,1.295,0.77,1.575
	c-0.003,0.097-0.079,0.15-0.251,0.092c-0.359-0.123-0.68-0.265-1.159-0.429c-0.319-0.111-0.644-0.199-0.92-0.263
	c-0.07-0.014-0.086-0.063-0.085-0.106c0.007-0.307,0.681,0.194,0.675-0.822l0.099-4.203c-0.013-0.743-0.611-0.427-0.605-0.732
	c0.003-0.147,0.193-0.112,0.263-0.095c0.317,0.072,0.44,0.12,0.786,0.221c0.271,0.08,0.535,0.18,0.86,0.289
	c0.224,0.076,0.322,0.101,0.319,0.205c-0.006,0.3-0.726-0.237-0.671,0.796L57.382,54.679z"/>
<path fill="#231F20" d="M62.949,58.64c0.604,0.34,1.466,0.968,2.083,0.093c0.095-0.135,0.312-0.092,0.238,0.089
	c-0.483,1.195-0.513,1.281-1.192,0.891c-0.58-0.332-1.232-0.678-1.904-1.093c-0.235-0.145-0.53-0.291-1.028-0.607
	c-0.088-0.055-0.331-0.183-0.346-0.238c-0.127-0.49,0.748,0.51,0.75-0.869v-1.54l-1.3-0.716c-0.062-0.036-0.183-0.05-0.233,0.071
	c0,0-0.679,1.162-0.703,1.201c-0.337,0.516-0.012,0.634,0.088,0.727c0.166,0.152,0.207,0.257,0.155,0.316
	c-0.089,0.101-0.1,0.102-0.225,0.032c-0.065-0.037-0.159-0.072-0.159-0.072c-0.278-0.145-0.612-0.293-0.818-0.385
	c-0.15-0.068-0.393-0.124-0.404-0.267c-0.022-0.282,0.379,0.178,0.688-0.338l2.062-3.391c0.169-0.279,0.176-0.378,0.09-0.559
	c-0.1-0.204-0.171-0.141-0.214-0.259c-0.066-0.181,0.116-0.176,0.178-0.148c0.304,0.131,1.246,0.761,1.858,1.114
	c0.428,0.248,1.287,0.747,2.069,1.176c0.09,0.051,0.157,0.088,0.157,0.167l0.017,0.602c0.009,0.111,0.047,0.402-0.133,0.401
	c-0.371-0.002-0.002-0.875-1.731-1.621c-0.482-0.207-0.396,0.021-0.425,1.171l-0.01,0.465c0,0.376,0.174,0.312,0.509,0.534
	l0.357,0.197c0.588,0.305,0.426-0.271,0.597-0.493c0.034-0.044,0.141-0.054,0.149,0.182l0.016,1.636
	c0.007,0.113,0.048,0.329-0.146,0.253c-0.181-0.074,0.229-0.502-0.725-1.039l-0.231-0.12c-0.192-0.106-0.53-0.295-0.551,0.059
	c0,0-0.044,1.534-0.035,1.631C62.511,58.026,62.614,58.45,62.949,58.64z"/>
<path fill="none" stroke="#231F20" stroke-width="0.0749" d="M62.949,58.64c0.604,0.34,1.466,0.968,2.083,0.093
	c0.095-0.135,0.312-0.092,0.238,0.089c-0.483,1.195-0.513,1.281-1.192,0.891c-0.58-0.332-1.232-0.678-1.904-1.093
	c-0.235-0.145-0.53-0.291-1.028-0.607c-0.088-0.055-0.331-0.183-0.346-0.238c-0.127-0.49,0.748,0.51,0.75-0.869v-1.54l-1.3-0.716
	c-0.062-0.036-0.183-0.05-0.233,0.071c0,0-0.679,1.162-0.703,1.201c-0.337,0.516-0.012,0.634,0.088,0.727
	c0.166,0.152,0.207,0.257,0.155,0.316c-0.089,0.101-0.1,0.102-0.225,0.032c-0.065-0.037-0.159-0.072-0.159-0.072
	c-0.278-0.145-0.612-0.293-0.818-0.385c-0.15-0.068-0.393-0.124-0.404-0.267c-0.022-0.282,0.379,0.178,0.688-0.338l2.062-3.391
	c0.169-0.279,0.176-0.378,0.09-0.559c-0.1-0.204-0.171-0.141-0.214-0.259c-0.066-0.181,0.116-0.176,0.178-0.148
	c0.304,0.131,1.246,0.761,1.858,1.114c0.428,0.248,1.287,0.747,2.069,1.176c0.09,0.051,0.157,0.088,0.157,0.167l0.017,0.602
	c0.009,0.111,0.047,0.402-0.133,0.401c-0.371-0.002-0.002-0.875-1.731-1.621c-0.482-0.207-0.396,0.021-0.425,1.171l-0.01,0.465
	c0,0.376,0.174,0.312,0.509,0.534l0.357,0.197c0.588,0.305,0.426-0.271,0.597-0.493c0.034-0.044,0.141-0.054,0.149,0.182
	l0.016,1.636c0.007,0.113,0.048,0.329-0.146,0.253c-0.181-0.074,0.229-0.502-0.725-1.039l-0.231-0.12
	c-0.192-0.106-0.53-0.295-0.551,0.059c0,0-0.044,1.534-0.035,1.631C62.511,58.026,62.614,58.45,62.949,58.64z"/>
<path fill="#231F20" d="M49.979,41.646c-0.168,0.087-0.221,0.07-0.22,0.168c0.006,0.34,0.849-0.287,0.849,0.83l0.022,3.764
	c-0.014,1.095-0.647,0.907-0.645,1.162c0.001,0.147,0.143,0.13,0.167,0.13c0.047,0,0.643-0.259,0.979-0.324
	c0.168-0.03,0.531-0.146,1.068-0.191c0.109-0.008,0.195,0.007,0.188-0.132c-0.016-0.305-0.789,0.102-0.804-1.063l-0.028-3.818
	c-0.003-0.392,0.086-0.553,0.43-0.64c1.072-0.263,1.499,0.531,1.534,1.421c0.014,0.391-0.261,1.363-1.215,1.368
	c-0.173,0.002-0.307-0.049-0.371-0.049c-0.094,0-0.109,0.105-0.108,0.167c0,0.034,0.041,0.254,0.812,0.246
	c0.939-0.004,1.866-0.656,1.888-1.752c0.027-1.341-0.688-2.18-2.174-1.946C52.349,40.987,51.013,41.112,49.979,41.646z"/>
<path fill="none" stroke="#231F20" stroke-width="0.0749" d="M49.979,41.646c-0.168,0.087-0.221,0.07-0.22,0.168
	c0.006,0.34,0.849-0.287,0.849,0.83l0.022,3.764c-0.014,1.095-0.647,0.907-0.645,1.162c0.001,0.147,0.143,0.13,0.167,0.13
	c0.047,0,0.643-0.259,0.979-0.324c0.168-0.03,0.531-0.146,1.068-0.191c0.109-0.008,0.195,0.007,0.188-0.132
	c-0.016-0.305-0.789,0.102-0.804-1.063l-0.028-3.818c-0.003-0.392,0.086-0.553,0.43-0.64c1.072-0.263,1.499,0.531,1.534,1.421
	c0.014,0.391-0.261,1.363-1.215,1.368c-0.173,0.002-0.307-0.049-0.371-0.049c-0.094,0-0.109,0.105-0.108,0.167
	c0,0.034,0.041,0.254,0.812,0.246c0.939-0.004,1.866-0.656,1.888-1.752c0.027-1.341-0.688-2.18-2.174-1.946
	C52.349,40.987,51.013,41.112,49.979,41.646z"/>
<path fill="#231F20" d="M55.587,44.839c-0.157-0.026-0.432-0.154-0.618,0.386c-0.059,0.174-0.377,0.886-0.383,1.098
	c-0.018,0.63,0.81,0.642,0.803,0.877c-0.005,0.186-0.202,0.096-0.394,0.069c-0.293-0.04-0.519-0.059-0.77-0.093
	c-0.175-0.022-0.44-0.045-0.669-0.049c-0.111-0.004-0.238,0.01-0.235-0.104c0.006-0.202,0.421-0.119,0.631-0.604l2.251-5.021
	c0.059-0.138,0.104-0.304,0.206-0.302c0.071,0.002,0.086,0.021,0.203,0.288l2.724,6.729c0.203,0.546,0.641,0.393,0.557,0.707
	c-0.035,0.129-0.115,0.106-0.32-0.005c-0.264-0.139-0.413-0.19-0.878-0.404c-0.307-0.143-0.869-0.343-1.145-0.456
	c-0.132-0.053-0.341-0.076-0.336-0.197c0.007-0.255,0.698,0.043,0.635-0.676c-0.017-0.194-0.38-1.064-0.478-1.298
	c-0.174-0.411-0.222-0.476-0.56-0.602C56.812,45.182,56.14,44.93,55.587,44.839z"/>
<path fill="none" stroke="#231F20" stroke-width="0.0749" d="M55.587,44.839c-0.157-0.026-0.432-0.154-0.618,0.386
	c-0.059,0.174-0.377,0.886-0.383,1.098c-0.018,0.63,0.81,0.642,0.803,0.877c-0.005,0.186-0.202,0.096-0.394,0.069
	c-0.293-0.04-0.519-0.059-0.77-0.093c-0.175-0.022-0.44-0.045-0.669-0.049c-0.111-0.004-0.238,0.01-0.235-0.104
	c0.006-0.202,0.421-0.119,0.631-0.604l2.251-5.021c0.059-0.138,0.104-0.304,0.206-0.302c0.071,0.002,0.086,0.021,0.203,0.288
	l2.724,6.729c0.203,0.546,0.641,0.393,0.557,0.707c-0.035,0.129-0.115,0.106-0.32-0.005c-0.264-0.139-0.413-0.19-0.878-0.404
	c-0.307-0.143-0.869-0.343-1.145-0.456c-0.132-0.053-0.341-0.076-0.336-0.197c0.007-0.255,0.698,0.043,0.635-0.676
	c-0.017-0.194-0.38-1.064-0.478-1.298c-0.174-0.411-0.222-0.476-0.56-0.602C56.812,45.182,56.14,44.93,55.587,44.839z"/>
<path fill="#231F20" d="M60.797,44.181c0-0.42-0.121-0.521-0.553-0.71l-0.514-0.259c-0.791-0.328-0.572,0.67-0.926,0.67
	c-0.167,0-0.119-0.194-0.102-0.307l0.126-1.153c0.001-0.016,0-0.241,0.125-0.182c0.695,0.319,1.262,0.573,2.329,1.15
	c1.094,0.592,1.78,1.031,2.546,1.375c0.108,0.049,0.013,0.294,0.042,0.38l-0.032,0.43c-0.057,0.395-0.042,0.546-0.247,0.546
	c-0.315,0,0.094-0.895-0.93-1.364l-0.546-0.294c-0.311-0.098-0.439,0.004-0.439,0.424l-0.005,3.954
	c-0.002,1.075,0.458,0.829,0.598,1.135c0.084,0.188,0.03,0.387-0.167,0.273c-0.235-0.136-0.378-0.23-0.83-0.503
	c-0.304-0.181-0.64-0.38-0.999-0.584c-0.206-0.117-0.465-0.215-0.465-0.327c0-0.499,0.99,0.576,0.99-0.9V44.181z"/>
<path fill="none" stroke="#231F20" stroke-width="0.0749" d="M60.797,44.181c0-0.42-0.121-0.521-0.553-0.71l-0.514-0.259
	c-0.791-0.328-0.572,0.67-0.926,0.67c-0.167,0-0.119-0.194-0.102-0.307l0.126-1.153c0.001-0.016,0-0.241,0.125-0.182
	c0.695,0.319,1.262,0.573,2.329,1.15c1.094,0.592,1.78,1.031,2.546,1.375c0.108,0.049,0.013,0.294,0.042,0.38l-0.032,0.43
	c-0.057,0.395-0.042,0.546-0.247,0.546c-0.315,0,0.094-0.895-0.93-1.364l-0.546-0.294c-0.311-0.098-0.439,0.004-0.439,0.424
	l-0.005,3.954c-0.002,1.075,0.458,0.829,0.598,1.135c0.084,0.188,0.03,0.387-0.167,0.273c-0.235-0.136-0.378-0.23-0.83-0.503
	c-0.304-0.181-0.64-0.38-0.999-0.584c-0.206-0.117-0.465-0.215-0.465-0.327c0-0.499,0.99,0.576,0.99-0.9V44.181z"/>
<path fill="#231F20" d="M63.664,48.6c0.701,0.447,1.174,0.613,1.174,0.613c0.193,0.075,0.399,0.175,0.464,0.018
	c0.025-0.249,0.025-0.249,0.039-0.452c0.015-0.215-0.116-0.268-0.116-0.268c-0.031-0.034-0.105-0.06-0.212-0.112
	c0,0-0.695-0.266-1.151-0.59c-0.196-0.152-0.365-0.297-0.416-0.041l-0.017,0.498C63.429,48.265,63.367,48.469,63.664,48.6z"/>
<path fill="none" stroke="#231F20" stroke-width="0.0749" d="M63.664,48.6c0.701,0.447,1.174,0.613,1.174,0.613
	c0.193,0.075,0.399,0.175,0.464,0.018c0.025-0.249,0.025-0.249,0.039-0.452c0.015-0.215-0.116-0.268-0.116-0.268
	c-0.031-0.034-0.105-0.06-0.212-0.112c0,0-0.695-0.266-1.151-0.59c-0.196-0.152-0.365-0.297-0.416-0.041l-0.017,0.498
	C63.429,48.265,63.367,48.469,63.664,48.6z"/>
<path fill="#FFFFFF" d="M51.468,51.988c0.001,0.217,0.169,0.349,0.406,0.328c1.135-0.096,1.402-0.688,1.437-1.255
	c0.064-1.018-0.396-1.373-1.269-1.248c-0.637,0.089-0.584,0.28-0.58,0.806L51.468,51.988z"/>
<path fill="none" stroke="#231F20" stroke-width="0.0749" d="M51.468,51.988c0.001,0.217,0.169,0.349,0.406,0.328
	c1.135-0.096,1.402-0.688,1.437-1.255c0.064-1.018-0.396-1.373-1.269-1.248c-0.637,0.089-0.584,0.28-0.58,0.806L51.468,51.988z"/>
<path fill="#FFFFFF" d="M61.587,52.656c0-0.077,0.005-0.153-0.055-0.175c-0.198-0.072-0.446,0.418-0.517,0.548l-0.588,0.995
	c-0.048,0.086,0.112,0.169,0.29,0.27l0.85,0.477L61.587,52.656z"/>
<path fill="none" stroke="#231F20" stroke-width="0.0749" d="M61.587,52.656c0-0.077,0.005-0.153-0.055-0.175
	c-0.198-0.072-0.446,0.418-0.517,0.548l-0.588,0.995c-0.048,0.086,0.112,0.169,0.29,0.27l0.85,0.477L61.587,52.656z"/>
<path fill="#FFFFFF" d="M56.506,44.64c0.168,0.055,0.402,0.144,0.371-0.022c-0.023-0.122-0.046-0.131-0.083-0.237l-0.603-1.601
	c-0.046-0.072-0.022-0.072-0.063-0.072c-0.014-0.001-0.046,0.007-0.088,0.103l-0.506,1.201c-0.042,0.104-0.092,0.197-0.096,0.32
	c-0.002,0.087,0.116,0.065,0.313,0.103C55.75,44.434,56.127,44.515,56.506,44.64z"/>
<path fill="none" stroke="#231F20" stroke-width="0.0749" d="M56.506,44.64c0.168,0.055,0.402,0.144,0.371-0.022
	c-0.023-0.122-0.046-0.131-0.083-0.237l-0.603-1.601c-0.046-0.072-0.022-0.072-0.063-0.072c-0.014-0.001-0.046,0.007-0.088,0.103
	l-0.506,1.201c-0.042,0.104-0.092,0.197-0.096,0.32c-0.002,0.087,0.116,0.065,0.313,0.103C55.75,44.434,56.127,44.515,56.506,44.64z"/>
<path fill="#231F20" d="M29.54,46.572c0-0.894-0.843-0.607-0.843-0.93c0-0.086,0.086-0.138,0.142-0.138
	c0.15,0,0.395,0.04,1.145-0.125c0.53-0.113,1.169-0.485,1.536-0.659c1.547-0.74,3.163,0.3,3,3.037
	c-0.103,1.743-2.114,2.842-2.931,3.348c-0.464,0.287-1.157,0.696-1.621,0.907c-0.315,0.144-0.454,0.244-0.706,0.345
	c-0.166,0.066-0.315,0.035-0.315-0.124c0-0.333,0.62-0.177,0.594-1.06L29.54,46.572z"/>
<path fill="none" stroke="#231F20" stroke-width="0.0749" d="M29.54,46.572c0-0.894-0.843-0.607-0.843-0.93
	c0-0.086,0.086-0.138,0.142-0.138c0.15,0,0.395,0.04,1.145-0.125c0.53-0.113,1.169-0.485,1.536-0.659c1.547-0.74,3.163,0.3,3,3.037
	c-0.103,1.743-2.114,2.842-2.931,3.348c-0.464,0.287-1.157,0.696-1.621,0.907c-0.315,0.144-0.454,0.244-0.706,0.345
	c-0.166,0.066-0.315,0.035-0.315-0.124c0-0.333,0.62-0.177,0.594-1.06L29.54,46.572z"/>
<path fill="#231F20" d="M36.487,44.473c-0.017,0.291,0.05,0.319,0.305,0.256l0.553-0.174c0.881-0.235,0.728-0.914,0.885-0.914
	c0.055,0,0.141-0.017,0.149,0.218l0.005,1.675c0.007,0.114,0.054,0.429-0.136,0.429c-0.252-0.002-0.03-0.93-0.85-0.931l-0.559,0.169
	c-0.409,0.113-0.355,0.313-0.357,0.823l-0.002,1.234c-0.001,0.543,0.375,0.508,0.876,0.365c1.521-0.434,1.658-1.469,1.958-1.466
	c0.032,0,0.085,0.026,0.085,0.192c0,0.685-0.218,1.173-0.906,1.341c-1.147,0.281-2.007,0.767-2.355,0.917
	c-0.34,0.148-0.67,0.343-1.081,0.533c-0.094,0.043-0.188-0.11-0.187-0.163c0.001-0.402,0.639,0.022,0.639-1.359l0.01-4.118
	c-0.003-0.643-0.89,0.003-0.89-0.347c0.001-0.079,0.141-0.141,0.241-0.186c0.394-0.182,0.979-0.48,2.087-0.899
	c0.524-0.196,1.209-0.504,1.745-0.615c0.102-0.021,0.181,0.116,0.181,0.195l0.03,0.868c0.007,0.113,0.046,0.402-0.135,0.401
	c-0.37,0,0.156-1.136-1.217-0.684c-1.217,0.399-1.036,0.442-1.073,1.801L36.487,44.473z"/>
<path fill="none" stroke="#231F20" stroke-width="0.0749" d="M36.487,44.473c-0.017,0.291,0.05,0.319,0.305,0.256l0.553-0.174
	c0.881-0.235,0.728-0.914,0.885-0.914c0.055,0,0.141-0.017,0.149,0.218l0.005,1.675c0.007,0.114,0.054,0.429-0.136,0.429
	c-0.252-0.002-0.03-0.93-0.85-0.931l-0.559,0.169c-0.409,0.113-0.355,0.313-0.357,0.823l-0.002,1.234
	c-0.001,0.543,0.375,0.508,0.876,0.365c1.521-0.434,1.658-1.469,1.958-1.466c0.032,0,0.085,0.026,0.085,0.192
	c0,0.685-0.218,1.173-0.906,1.341c-1.147,0.281-2.007,0.767-2.355,0.917c-0.34,0.148-0.67,0.343-1.081,0.533
	c-0.094,0.043-0.188-0.11-0.187-0.163c0.001-0.402,0.639,0.022,0.639-1.359l0.01-4.118c-0.003-0.643-0.89,0.003-0.89-0.347
	c0.001-0.079,0.141-0.141,0.241-0.186c0.394-0.182,0.979-0.48,2.087-0.899c0.524-0.196,1.209-0.504,1.745-0.615
	c0.102-0.021,0.181,0.116,0.181,0.195l0.03,0.868c0.007,0.113,0.046,0.402-0.135,0.401c-0.37,0,0.156-1.136-1.217-0.684
	c-1.217,0.399-1.036,0.442-1.073,1.801L36.487,44.473z"/>
<path fill="#231F20" d="M42.926,40.853c1.521,0.222,2.693,1.334,2.631,3.191c-0.04,1.224-0.574,3.338-3.144,3.253
	c-1.583-0.053-2.56-1.383-2.53-3.161C39.925,41.574,41.335,40.623,42.926,40.853z"/>
<path fill="none" stroke="#231F20" stroke-width="0.0749" d="M42.926,40.853c1.521,0.222,2.693,1.334,2.631,3.191
	c-0.04,1.224-0.574,3.338-3.144,3.253c-1.583-0.053-2.56-1.383-2.53-3.161C39.925,41.574,41.335,40.623,42.926,40.853z"/>
<path fill="#231F20" d="M34.395,53.448c0,0.378-0.001,0.771,0.345,0.647l0.697-0.368c0.837-0.404,0.595-0.869,0.732-0.945
	c0.139-0.077,0.167-0.028,0.175,0.208l-0.003,1.444c0.007,0.115,0.057,0.43-0.134,0.43c-0.252,0.001,0.052-0.961-0.682-0.679
	l-0.573,0.306c-0.407,0.29-0.55,0.125-0.548,0.634l0.003,1.607c0,0.536,0.551,0.166,1.033-0.067
	c1.495-0.724,1.355-1.448,1.608-1.448c0.031,0,0.123,0.027,0.125,0.193c0.01,0.827-0.142,1.037-0.828,1.292
	c-0.804,0.303-1.763,0.915-2.322,1.22c-0.215,0.116-0.478,0.295-0.88,0.547c-0.046,0.028-0.306-0.061-0.132-0.314
	c0.087-0.128,0.525-0.1,0.425-1.21l-0.01-3.299c-0.004-1.324-0.774-0.509-0.874-0.77c-0.054-0.142,0.058-0.181,0.154-0.235
	c0.367-0.213,1.124-0.717,2.054-1.204c0.604-0.316,1.309-0.661,1.82-0.863c0.096-0.038,0.178,0.125,0.178,0.202l0.033,0.935
	c0.009,0.114,0.05,0.402-0.132,0.403c-0.371,0,0.077-1.299-1.447-0.526c-0.82,0.413-0.771,0.45-0.823,1.029L34.395,53.448z"/>
<path fill="none" stroke="#231F20" stroke-width="0.0749" d="M34.395,53.448c0,0.378-0.001,0.771,0.345,0.647l0.697-0.368
	c0.837-0.404,0.595-0.869,0.732-0.945c0.139-0.077,0.167-0.028,0.175,0.208l-0.003,1.444c0.007,0.115,0.057,0.43-0.134,0.43
	c-0.252,0.001,0.052-0.961-0.682-0.679l-0.573,0.306c-0.407,0.29-0.55,0.125-0.548,0.634l0.003,1.607
	c0,0.536,0.551,0.166,1.033-0.067c1.495-0.724,1.355-1.448,1.608-1.448c0.031,0,0.123,0.027,0.125,0.193
	c0.01,0.827-0.142,1.037-0.828,1.292c-0.804,0.303-1.763,0.915-2.322,1.22c-0.215,0.116-0.478,0.295-0.88,0.547
	c-0.046,0.028-0.306-0.061-0.132-0.314c0.087-0.128,0.525-0.1,0.425-1.21l-0.01-3.299c-0.004-1.324-0.774-0.509-0.874-0.77
	c-0.054-0.142,0.058-0.181,0.154-0.235c0.367-0.213,1.124-0.717,2.054-1.204c0.604-0.316,1.309-0.661,1.82-0.863
	c0.096-0.038,0.178,0.125,0.178,0.202l0.033,0.935c0.009,0.114,0.05,0.402-0.132,0.403c-0.371,0,0.077-1.299-1.447-0.526
	c-0.82,0.413-0.771,0.45-0.823,1.029L34.395,53.448z"/>
<path fill="#FFFFFF" d="M30.508,49.895c0,0.58-0.198,1.372,0.892,0.831c1.088-0.542,1.861-1.419,1.991-2.802
	c0.078-0.829-0.263-2.977-2.186-2.531c-0.706,0.163-0.734,0.6-0.696,0.924L30.508,49.895z"/>
<path fill="none" stroke="#231F20" stroke-width="0.0749" d="M30.508,49.895c0,0.58-0.198,1.372,0.892,0.831
	c1.088-0.542,1.861-1.419,1.991-2.802c0.078-0.829-0.263-2.977-2.186-2.531c-0.706,0.163-0.734,0.6-0.696,0.924L30.508,49.895z"/>
<path fill="#FFFFFF" d="M42.635,46.945c1.356,0.02,1.875-1.103,1.923-2.554c0.064-1.934-0.864-3.152-1.881-3.169
	c-1.333-0.018-1.766,1.177-1.808,2.447C40.826,44.946,41.225,46.927,42.635,46.945z"/>
<path fill="none" stroke="#231F20" stroke-width="0.0749" d="M42.635,46.945c1.356,0.02,1.875-1.103,1.923-2.554
	c0.064-1.934-0.864-3.152-1.881-3.169c-1.333-0.018-1.766,1.177-1.808,2.447C40.826,44.946,41.225,46.927,42.635,46.945z"/>
<path fill="#231F20" d="M37.714,50.118c-0.11,0.045-0.113,0.137-0.121,0.226l-0.098,1.094c-0.015,0.113-0.062,0.306,0.104,0.306
	c0.355-0.001,0.07-1.201,1.134-1.438l0.562-0.15c0.222-0.01,0.355,0.094,0.357,0.514l0.016,3.817
	c0.005,1.043-0.964,0.763-0.963,1.104c0.002,0.193,0.138,0.211,0.278,0.184c0.368-0.075,0.643-0.172,1.165-0.24
	c0.508-0.066,0.808-0.111,1.124-0.111c0.229-0.001,0.382,0,0.382-0.21c-0.002-0.248-1.01,0.241-1.014-0.837l-0.017-3.635
	c-0.027-0.545,0.086-0.895,0.456-0.894l0.632-0.037c0.987,0.121,0.669,1.101,0.984,1.101c0.206-0.002,0.116-0.343,0.101-0.448
	l-0.118-0.862c-0.009-0.088-0.01-0.247-0.127-0.259C42.547,49.345,40.265,49.063,37.714,50.118z"/>
<path fill="none" stroke="#231F20" stroke-width="0.0749" d="M37.714,50.118c-0.11,0.045-0.113,0.137-0.121,0.226l-0.098,1.094
	c-0.015,0.113-0.062,0.306,0.104,0.306c0.355-0.001,0.07-1.201,1.134-1.438l0.562-0.15c0.222-0.01,0.355,0.094,0.357,0.514
	l0.016,3.817c0.005,1.043-0.964,0.763-0.963,1.104c0.002,0.193,0.138,0.211,0.278,0.184c0.368-0.075,0.643-0.172,1.165-0.24
	c0.508-0.066,0.808-0.111,1.124-0.111c0.229-0.001,0.382,0,0.382-0.21c-0.002-0.248-1.01,0.241-1.014-0.837l-0.017-3.635
	c-0.027-0.545,0.086-0.895,0.456-0.894l0.632-0.037c0.987,0.121,0.669,1.101,0.984,1.101c0.206-0.002,0.116-0.343,0.101-0.448
	l-0.118-0.862c-0.009-0.088-0.01-0.247-0.127-0.259C42.547,49.345,40.265,49.063,37.714,50.118z"/>
<path fill="#FFD520" d="M25.19,9.586c-0.706,0.038-0.459-3.534-0.459-3.534l-0.896,0.056c0,0-0.015,3.104,0.125,3.963
	c0.119,0.741,0.418,0.84,0.418,0.84s0.807,0.14,0.765,0.976c-0.02,0.381-0.736,0.438-1.28-0.029
	c-0.544-0.47-0.611-1.156-0.611-1.156c-0.295-1.146-0.319-4.465-0.319-4.465C22.671,6.265,22.13,6.41,22.13,6.41
	s0.413,4.986,0.672,7.11c0.307,2.5,0.592,3.275,1.914,3.552c0,0,0.291,3.216,0.018,5.57h0.91c-0.271-2.354,0.018-5.57,0.018-5.57
	c1.326-0.276,1.609-1.052,1.915-3.552c0.26-2.124,0.673-7.11,0.673-7.11s-0.541-0.146-0.801-0.173c0,0-0.015,2.413-0.312,3.558
	c0,0-0.067,0.688-0.611,1.156c-0.545,0.467-1.261,0.409-1.28,0.028c-0.042-0.834,0.764-0.973,0.764-0.973s0.301-0.101,0.421-0.841
	c0.138-0.857,0.114-3.056,0.114-3.056l-0.898-0.056C25.647,6.052,25.896,9.546,25.19,9.586z"/>
<path fill="none" stroke="#FFD520" stroke-width="0.2941" d="M25.19,9.586c-0.706,0.038-0.459-3.534-0.459-3.534l-0.896,0.056
	c0,0-0.015,3.104,0.125,3.963c0.119,0.741,0.418,0.84,0.418,0.84s0.807,0.14,0.765,0.976c-0.02,0.381-0.736,0.438-1.28-0.029
	c-0.544-0.47-0.611-1.156-0.611-1.156c-0.295-1.146-0.319-4.465-0.319-4.465C22.671,6.265,22.13,6.41,22.13,6.41
	s0.413,4.986,0.672,7.11c0.307,2.5,0.592,3.275,1.914,3.552c0,0,0.291,3.216,0.018,5.57h0.91c-0.271-2.354,0.018-5.57,0.018-5.57
	c1.326-0.276,1.609-1.052,1.915-3.552c0.26-2.124,0.673-7.11,0.673-7.11s-0.541-0.146-0.801-0.173c0,0-0.015,2.413-0.312,3.558
	c0,0-0.067,0.688-0.611,1.156c-0.545,0.467-1.261,0.409-1.28,0.028c-0.042-0.834,0.764-0.973,0.764-0.973s0.301-0.101,0.421-0.841
	c0.138-0.857,0.114-3.056,0.114-3.056l-0.898-0.056C25.647,6.052,25.896,9.546,25.19,9.586z"/>
<path fill="#FFD520" d="M17.479,12.266c-0.563,0.429-2.189-2.389-2.189-2.389l-0.682,0.536c0,0,1.53,2.317,2.125,2.949
	c0.514,0.546,0.819,0.46,0.819,0.46s0.746-0.336,1.181,0.377c0.197,0.327-0.362,0.775-1.075,0.695
	c-0.714-0.082-1.156-0.612-1.156-0.612c-0.889-0.784-2.582-3.227-2.582-3.227c-0.202,0.168-0.568,0.534-0.568,0.534
	s2.953,3.663,4.36,5.276c1.657,1.897,2.328,2.379,3.581,1.865c0,0,1.873,1.928,1.839,3.915h1.041c-0.573-2.683-2.1-4.445-2.1-4.445
	c0.941-0.974,0.742-1.775-0.411-4.017c-1.018-1.982-3.464-6.321-3.464-6.321s-0.471,0.301-0.701,0.425c0,0,1.313,1.944,1.711,3.061
	c0,0,0.331,0.604,0.144,1.298c-0.188,0.694-0.813,1.048-1.043,0.743c-0.502-0.668,0.084-1.233,0.084-1.233s0.193-0.253-0.123-0.933
	c-0.322-0.688-1.549-2.461-1.549-2.461l-0.674,0.513C16.048,9.273,18.042,11.838,17.479,12.266z"/>
<path fill="none" stroke="#FFD520" stroke-width="0.2941" d="M17.479,12.266c-0.563,0.429-2.189-2.389-2.189-2.389l-0.682,0.536
	c0,0,1.53,2.317,2.125,2.949c0.514,0.546,0.819,0.46,0.819,0.46s0.746-0.336,1.181,0.377c0.197,0.327-0.362,0.775-1.075,0.695
	c-0.714-0.082-1.156-0.612-1.156-0.612c-0.889-0.784-2.582-3.227-2.582-3.227c-0.202,0.168-0.568,0.534-0.568,0.534
	s2.953,3.663,4.36,5.276c1.657,1.897,2.328,2.379,3.581,1.865c0,0,1.873,1.928,1.839,3.915h1.041c-0.573-2.683-2.1-4.445-2.1-4.445
	c0.941-0.974,0.742-1.775-0.411-4.017c-1.018-1.982-3.464-6.321-3.464-6.321s-0.471,0.301-0.701,0.425c0,0,1.313,1.944,1.711,3.061
	c0,0,0.331,0.604,0.144,1.298c-0.188,0.694-0.813,1.048-1.043,0.743c-0.502-0.668,0.084-1.233,0.084-1.233s0.193-0.253-0.123-0.933
	c-0.322-0.688-1.549-2.461-1.549-2.461l-0.674,0.513C16.048,9.273,18.042,11.838,17.479,12.266z"/>
<path fill="#FFD520" d="M12.987,19.038c-0.332,0.626-3.309-1.075-3.309-1.075l-0.321,0.824c0,0,2.981,1.325,3.818,1.56
	c0.721,0.205,1.227-0.013,1.227-0.013s0.466-0.673,1.205-0.285c0.339,0.179,0.09,0.852-0.563,1.149s-1.596,0.055-1.596,0.055
	c-1.131-0.208-4.377-1.611-4.377-1.611c-0.086,0.246-0.233,0.762-0.233,0.762s3.958,1.205,5.994,1.862
	c2.398,0.772,3.222,0.84,4.029-0.247c0,0,0.656-0.4,2.399,0.625h1.077c-1.069-1.106-3.079-1.482-3.079-1.482
	c0.304-1.317-0.28-1.902-2.421-3.229c-1.818-1.127-5.59-3.137-5.59-3.137s-0.272,0.471-0.406,0.698c0,0,2.501,1.102,3.417,1.852
	c0,0,0.596,0.351,0.792,1.04c0.197,0.69-0.156,1.315-0.512,1.171c-0.774-0.312-0.563-1.102-0.563-1.102s0.035-0.315-0.585-0.734
	c-0.722-0.486-2.964-1.424-2.964-1.424l-0.382,0.798c0,0,3.204,1.29,2.942,1.949V19.038z"/>
<path fill="none" stroke="#FFD520" stroke-width="0.2941" d="M12.987,19.038c-0.332,0.626-3.309-1.075-3.309-1.075l-0.321,0.824
	c0,0,2.981,1.325,3.818,1.56c0.721,0.205,1.227-0.013,1.227-0.013s0.466-0.673,1.205-0.285c0.339,0.179,0.09,0.852-0.563,1.149
	s-1.596,0.055-1.596,0.055c-1.131-0.208-4.377-1.611-4.377-1.611c-0.086,0.246-0.233,0.762-0.233,0.762s3.958,1.205,5.994,1.862
	c2.398,0.772,3.222,0.84,4.029-0.247c0,0,0.656-0.4,2.399,0.625h1.077c-1.069-1.106-3.079-1.482-3.079-1.482
	c0.304-1.317-0.28-1.902-2.421-3.229c-1.818-1.127-5.59-3.137-5.59-3.137s-0.272,0.471-0.406,0.698c0,0,2.501,1.102,3.417,1.852
	c0,0,0.596,0.351,0.792,1.04c0.197,0.69-0.156,1.315-0.512,1.171c-0.774-0.312-0.563-1.102-0.563-1.102s0.035-0.315-0.585-0.734
	c-0.722-0.486-2.964-1.424-2.964-1.424l-0.382,0.798c0,0,3.204,1.29,2.942,1.949V19.038z"/>
<path fill="#FFD520" d="M32.907,12.266c0.562,0.429,2.188-2.389,2.188-2.389l0.682,0.536c0,0-1.528,2.317-2.125,2.949
	c-0.514,0.546-0.82,0.46-0.82,0.46s-0.745-0.336-1.178,0.377c-0.2,0.327,0.361,0.775,1.074,0.695
	c0.713-0.082,1.154-0.612,1.154-0.612c0.888-0.784,2.583-3.227,2.583-3.227c0.201,0.168,0.568,0.534,0.568,0.534
	s-2.954,3.663-4.362,5.276c-1.656,1.897-2.328,2.379-3.579,1.865c0,0-1.874,1.928-1.839,3.915h-1.043
	c0.574-2.683,2.1-4.445,2.1-4.445c-0.939-0.974-0.74-1.775,0.411-4.017c1.019-1.982,3.465-6.321,3.465-6.321
	s0.472,0.301,0.701,0.425c0,0-1.313,1.944-1.711,3.061c0,0-0.331,0.604-0.143,1.298c0.187,0.694,0.813,1.048,1.043,0.743
	c0.503-0.668-0.084-1.233-0.084-1.233s-0.193-0.253,0.124-0.933c0.321-0.688,1.547-2.461,1.547-2.461l0.674,0.513
	C34.337,9.273,32.343,11.838,32.907,12.266z"/>
<path fill="none" stroke="#FFD520" stroke-width="0.2941" d="M32.907,12.266c0.562,0.429,2.188-2.389,2.188-2.389l0.682,0.536
	c0,0-1.528,2.317-2.125,2.949c-0.514,0.546-0.82,0.46-0.82,0.46s-0.745-0.336-1.178,0.377c-0.2,0.327,0.361,0.775,1.074,0.695
	c0.713-0.082,1.154-0.612,1.154-0.612c0.888-0.784,2.583-3.227,2.583-3.227c0.201,0.168,0.568,0.534,0.568,0.534
	s-2.954,3.663-4.362,5.276c-1.656,1.897-2.328,2.379-3.579,1.865c0,0-1.874,1.928-1.839,3.915h-1.043
	c0.574-2.683,2.1-4.445,2.1-4.445c-0.939-0.974-0.74-1.775,0.411-4.017c1.019-1.982,3.465-6.321,3.465-6.321
	s0.472,0.301,0.701,0.425c0,0-1.313,1.944-1.711,3.061c0,0-0.331,0.604-0.143,1.298c0.187,0.694,0.813,1.048,1.043,0.743
	c0.503-0.668-0.084-1.233-0.084-1.233s-0.193-0.253,0.124-0.933c0.321-0.688,1.547-2.461,1.547-2.461l0.674,0.513
	C34.337,9.273,32.343,11.838,32.907,12.266z"/>
<path fill="#FFD520" d="M37.398,19.038c0.331,0.626,3.308-1.075,3.308-1.075l0.321,0.824c0,0-2.98,1.325-3.817,1.56
	c-0.722,0.205-1.228-0.013-1.228-0.013s-0.465-0.673-1.205-0.285c-0.338,0.179-0.09,0.852,0.563,1.149
	c0.654,0.298,1.594,0.055,1.594,0.055c1.132-0.208,4.377-1.611,4.377-1.611c0.086,0.246,0.232,0.762,0.232,0.762
	s-3.958,1.205-5.993,1.862c-2.398,0.772-3.221,0.84-4.029-0.247c0,0-0.656-0.4-2.401,0.625h-1.075
	c1.069-1.106,3.079-1.482,3.079-1.482c-0.305-1.317,0.278-1.902,2.421-3.229c1.818-1.127,5.59-3.137,5.59-3.137
	s0.272,0.471,0.404,0.698c0,0-2.499,1.102-3.414,1.852c0,0-0.597,0.351-0.792,1.04c-0.197,0.69,0.156,1.315,0.512,1.171
	c0.774-0.312,0.563-1.102,0.563-1.102s-0.036-0.315,0.586-0.734c0.72-0.486,2.962-1.424,2.962-1.424l0.382,0.798
	c0,0-3.203,1.29-2.94,1.949V19.038z"/>
<path fill="none" stroke="#FFD520" stroke-width="0.2941" d="M37.398,19.038c0.331,0.626,3.308-1.075,3.308-1.075l0.321,0.824
	c0,0-2.98,1.325-3.817,1.56c-0.722,0.205-1.228-0.013-1.228-0.013s-0.465-0.673-1.205-0.285c-0.338,0.179-0.09,0.852,0.563,1.149
	c0.654,0.298,1.594,0.055,1.594,0.055c1.132-0.208,4.377-1.611,4.377-1.611c0.086,0.246,0.232,0.762,0.232,0.762
	s-3.958,1.205-5.993,1.862c-2.398,0.772-3.221,0.84-4.029-0.247c0,0-0.656-0.4-2.401,0.625h-1.075
	c1.069-1.106,3.079-1.482,3.079-1.482c-0.305-1.317,0.278-1.902,2.421-3.229c1.818-1.127,5.59-3.137,5.59-3.137
	s0.272,0.471,0.404,0.698c0,0-2.499,1.102-3.414,1.852c0,0-0.597,0.351-0.792,1.04c-0.197,0.69,0.156,1.315,0.512,1.171
	c0.774-0.312,0.563-1.102,0.563-1.102s-0.036-0.315,0.586-0.734c0.72-0.486,2.962-1.424,2.962-1.424l0.382,0.798
	c0,0-3.203,1.29-2.94,1.949V19.038z"/>
<polygon fill="#FFD520" points="25.194,25.127 30.467,24.779 30.298,23.882 25.194,23.882 25.19,23.882 20.087,23.882 
	19.918,24.779 25.19,25.127 "/>
<polygon fill="none" stroke="#FFD520" stroke-width="0.2941" points="25.194,25.127 30.467,24.779 30.298,23.882 25.194,23.882 
	25.19,23.882 20.087,23.882 19.918,24.779 25.19,25.127 "/>
<polygon fill="#FFD520" points="25.194,27.036 30.796,26.514 30.599,25.588 25.194,26.052 25.19,26.052 19.788,25.588 
	19.588,26.514 25.19,27.036 "/>
<polygon fill="none" stroke="#FFD520" stroke-width="0.2941" points="25.194,27.036 30.796,26.514 30.599,25.588 25.194,26.052 
	25.19,26.052 19.788,25.588 19.588,26.514 25.19,27.036 "/>
<path fill="#FFD520" d="M22.892,27.702l-1.188-0.133L18.16,36.02c0,0,1.693,1,2.43,1.158L22.892,27.702z"/>
<path fill="none" stroke="#FFD520" stroke-width="0.2941" d="M22.892,27.702l-1.188-0.133L18.16,36.02c0,0,1.693,1,2.43,1.158
	L22.892,27.702z"/>
<path fill="#FFD520" d="M20.428,27.422l-1.197-0.134l-4.948,5.26c0,0,1.084,1.303,1.52,1.679L20.428,27.422z"/>
<path fill="none" stroke="#FFD520" stroke-width="0.2941" d="M20.428,27.422l-1.197-0.134l-4.948,5.26c0,0,1.084,1.303,1.52,1.679
	L20.428,27.422z"/>
<path fill="#FFD520" d="M27.495,27.702l1.186-0.133l3.544,8.451c0,0-1.691,1-2.43,1.158L27.495,27.702z"/>
<path fill="none" stroke="#FFD520" stroke-width="0.2941" d="M27.495,27.702l1.186-0.133l3.544,8.451c0,0-1.691,1-2.43,1.158
	L27.495,27.702z"/>
<path fill="#FFD520" d="M29.958,27.422l1.198-0.134l4.947,5.26c0,0-1.086,1.303-1.52,1.679L29.958,27.422z"/>
<path fill="none" stroke="#FFD520" stroke-width="0.2941" d="M29.958,27.422l1.198-0.134l4.947,5.26c0,0-1.086,1.303-1.52,1.679
	L29.958,27.422z"/>
<path fill="#FFD520" d="M25.194,37.988c0.29,0.043,1.62-0.072,1.62-0.072l-0.982-10.031l-0.637,0.074H25.19l-0.635-0.074
	L23.57,37.916c0,0,1.332,0.115,1.62,0.072H25.194z"/>
<path fill="none" stroke="#FFD520" stroke-width="0.2941" d="M25.194,37.988c0.29,0.043,1.62-0.072,1.62-0.072l-0.982-10.031
	l-0.637,0.074H25.19l-0.635-0.074L23.57,37.916c0,0,1.332,0.115,1.62,0.072H25.194z"/>
<path fill="#008357" d="M26.855,11.474c0,0,0.458,0.885-0.139,1.565c-0.473,0.54-1.265,0.595-1.336,0.182
	c-0.143-0.829,0.688-1.032,0.688-1.032S26.736,12.067,26.855,11.474z"/>
<path fill="none" stroke="#FFD520" stroke-width="0.2941" d="M26.855,11.474c0,0,0.458,0.885-0.139,1.565
	c-0.473,0.54-1.265,0.595-1.336,0.182c-0.143-0.829,0.688-1.032,0.688-1.032S26.736,12.067,26.855,11.474z"/>
<path fill="#008357" d="M26.828,13.519c0,0,0.46,0.885-0.137,1.565c-0.475,0.54-1.266,0.594-1.337,0.182
	c-0.143-0.828,0.688-1.03,0.688-1.03S26.711,14.114,26.828,13.519z"/>
<path fill="none" stroke="#FFD520" stroke-width="0.2941" d="M26.828,13.519c0,0,0.46,0.885-0.137,1.565
	c-0.475,0.54-1.266,0.594-1.337,0.182c-0.143-0.828,0.688-1.03,0.688-1.03S26.711,14.114,26.828,13.519z"/>
<path fill="#008357" d="M23.486,12.201c0,0-0.46,0.884,0.137,1.564c0.475,0.54,1.266,0.594,1.338,0.182
	c0.143-0.829-0.688-1.033-0.688-1.033S23.604,12.793,23.486,12.201z"/>
<path fill="none" stroke="#FFD520" stroke-width="0.2941" d="M23.486,12.201c0,0-0.46,0.884,0.137,1.564
	c0.475,0.54,1.266,0.594,1.338,0.182c0.143-0.829-0.688-1.033-0.688-1.033S23.604,12.793,23.486,12.201z"/>
<path fill="#008357" d="M23.742,14.531c0,0-0.459,0.886,0.138,1.565c0.475,0.54,1.266,0.593,1.338,0.183
	c0.141-0.829-0.687-1.032-0.687-1.032S23.86,15.124,23.742,14.531z"/>
<path fill="none" stroke="#FFD520" stroke-width="0.2941" d="M23.742,14.531c0,0-0.459,0.886,0.138,1.565
	c0.475,0.54,1.266,0.593,1.338,0.183c0.141-0.829-0.687-1.032-0.687-1.032S23.86,15.124,23.742,14.531z"/>
<path fill="#008357" d="M19.917,12.895c0,0,0.878,0.475,0.765,1.373c-0.089,0.711-0.714,1.202-1.005,0.901
	c-0.582-0.606-0.01-1.24-0.01-1.24S20.153,13.453,19.917,12.895z"/>
<path fill="none" stroke="#FFD520" stroke-width="0.2941" d="M19.917,12.895c0,0,0.878,0.475,0.765,1.373
	c-0.089,0.711-0.714,1.202-1.005,0.901c-0.582-0.606-0.01-1.24-0.01-1.24S20.153,13.453,19.917,12.895z"/>
<path fill="#008357" d="M21.044,14.602c0,0,0.876,0.475,0.764,1.373c-0.089,0.714-0.714,1.203-1.004,0.901
	c-0.709-0.735-0.01-1.239-0.01-1.239S21.28,15.16,21.044,14.602z"/>
<path fill="none" stroke="#FFD520" stroke-width="0.2941" d="M21.044,14.602c0,0,0.876,0.475,0.764,1.373
	c-0.089,0.714-0.714,1.203-1.004,0.901c-0.709-0.735-0.01-1.239-0.01-1.239S21.28,15.16,21.044,14.602z"/>
<path fill="#008357" d="M17.537,15.386c0,0,0.116,0.991,0.993,1.218c0.694,0.18,1.38-0.218,1.209-0.6
	c-0.347-0.765-1.148-0.467-1.148-0.467S17.84,15.685,17.537,15.386z"/>
<path fill="none" stroke="#FFD520" stroke-width="0.2941" d="M17.537,15.386c0,0,0.116,0.991,0.993,1.218
	c0.694,0.18,1.38-0.218,1.209-0.6c-0.347-0.765-1.148-0.467-1.148-0.467S17.84,15.685,17.537,15.386z"/>
<path fill="#008357" d="M19.056,17.172c0,0,0.118,0.991,0.994,1.219c0.695,0.18,1.381-0.221,1.209-0.602
	c-0.347-0.764-1.256-0.615-1.256-0.615S19.488,17.597,19.056,17.172z"/>
<path fill="none" stroke="#FFD520" stroke-width="0.2941" d="M19.056,17.172c0,0,0.118,0.991,0.994,1.219
	c0.695,0.18,1.381-0.221,1.209-0.602c-0.347-0.764-1.256-0.615-1.256-0.615S19.488,17.597,19.056,17.172z"/>
<path fill="#008357" d="M16.059,21.78c0,0,0.612,0.789,1.48,0.532c0.687-0.203,1.071-0.899,0.725-1.136
	c-0.691-0.479-1.331,0.04-1.331,0.04S16.649,21.922,16.059,21.78z"/>
<path fill="none" stroke="#FFD520" stroke-width="0.2941" d="M16.059,21.78c0,0,0.612,0.789,1.48,0.532
	c0.687-0.203,1.071-0.899,0.725-1.136c-0.691-0.479-1.331,0.04-1.331,0.04S16.649,21.922,16.059,21.78z"/>
<path fill="#008357" d="M16.262,18.558c0,0,0.997-0.049,1.369,0.776c0.13,0.289-0.107,1.366-0.389,1.292
	c-0.813-0.213-0.654-1.054-0.654-1.054S16.755,18.915,16.262,18.558z"/>
<path fill="none" stroke="#FFD520" stroke-width="0.2941" d="M16.262,18.558c0,0,0.997-0.049,1.369,0.776
	c0.13,0.289-0.107,1.366-0.389,1.292c-0.813-0.213-0.654-1.054-0.654-1.054S16.755,18.915,16.262,18.558z"/>
<path fill="#008357" d="M30.468,12.895c0,0-0.878,0.475-0.765,1.373c0.088,0.711,0.715,1.202,1.005,0.901
	c0.582-0.606,0.009-1.24,0.009-1.24S30.232,13.453,30.468,12.895z"/>
<path fill="none" stroke="#FFD520" stroke-width="0.2941" d="M30.468,12.895c0,0-0.878,0.475-0.765,1.373
	c0.088,0.711,0.715,1.202,1.005,0.901c0.582-0.606,0.009-1.24,0.009-1.24S30.232,13.453,30.468,12.895z"/>
<path fill="#008357" d="M29.341,14.602c0,0-0.876,0.475-0.765,1.373c0.09,0.714,0.715,1.203,1.005,0.901
	c0.583-0.604,0.009-1.239,0.009-1.239S29.105,15.16,29.341,14.602z"/>
<path fill="none" stroke="#FFD520" stroke-width="0.2941" d="M29.341,14.602c0,0-0.876,0.475-0.765,1.373
	c0.09,0.714,0.715,1.203,1.005,0.901c0.583-0.604,0.009-1.239,0.009-1.239S29.105,15.16,29.341,14.602z"/>
<path fill="#008357" d="M32.85,15.386c0,0-0.118,0.991-0.995,1.218c-0.694,0.18-1.381-0.218-1.207-0.6
	c0.346-0.765,1.146-0.467,1.146-0.467S32.417,15.813,32.85,15.386z"/>
<path fill="none" stroke="#FFD520" stroke-width="0.2941" d="M32.85,15.386c0,0-0.118,0.991-0.995,1.218
	c-0.694,0.18-1.381-0.218-1.207-0.6c0.346-0.765,1.146-0.467,1.146-0.467S32.417,15.813,32.85,15.386z"/>
<path fill="#008357" d="M31.327,17.172c0,0-0.116,0.991-0.993,1.219c-0.695,0.18-1.38-0.221-1.208-0.602
	c0.347-0.764,1.148-0.466,1.148-0.466S30.896,17.597,31.327,17.172z"/>
<path fill="none" stroke="#FFD520" stroke-width="0.2941" d="M31.327,17.172c0,0-0.116,0.991-0.993,1.219
	c-0.695,0.18-1.38-0.221-1.208-0.602c0.347-0.764,1.148-0.466,1.148-0.466S30.896,17.597,31.327,17.172z"/>
<path fill="#008357" d="M34.326,21.78c0,0-0.611,0.789-1.479,0.532c-0.688-0.203-1.071-0.899-0.726-1.136
	c0.69-0.479,1.223,0.189,1.223,0.189S33.736,21.922,34.326,21.78z"/>
<path fill="none" stroke="#FFD520" stroke-width="0.2941" d="M34.326,21.78c0,0-0.611,0.789-1.479,0.532
	c-0.688-0.203-1.071-0.899-0.726-1.136c0.69-0.479,1.223,0.189,1.223,0.189S33.736,21.922,34.326,21.78z"/>
<path fill="#008357" d="M34.123,18.558c0,0-0.997-0.049-1.368,0.776c-0.293,0.654-0.015,1.397,0.389,1.292
	c0.812-0.213,0.654-1.054,0.654-1.054S33.631,18.915,34.123,18.558z"/>
<path fill="none" stroke="#FFD520" stroke-width="0.2941" d="M34.123,18.558c0,0-0.997-0.049-1.368,0.776
	c-0.293,0.654-0.015,1.397,0.389,1.292c0.812-0.213,0.654-1.054,0.654-1.054S33.631,18.915,34.123,18.558z"/>
<path fill="#FFD520" d="M69.921,9.605c-0.707,0.039-0.459-3.53-0.459-3.53l-0.897,0.056c0,0-0.015,3.105,0.125,3.961
	c0.12,0.741,0.42,0.843,0.42,0.843s0.805,0.138,0.763,0.972c-0.019,0.382-0.735,0.439-1.279-0.027
	c-0.544-0.468-0.611-1.156-0.611-1.156C67.687,9.58,67.663,6.26,67.663,6.26c-0.261,0.027-0.803,0.17-0.803,0.17
	s0.415,4.987,0.673,7.11c0.305,2.503,0.59,3.276,1.916,3.555c0,0,0.289,3.216,0.017,5.569h0.909
	c-0.272-2.354,0.018-5.569,0.018-5.569c1.324-0.278,1.609-1.052,1.915-3.555c0.26-2.123,0.673-7.11,0.673-7.11
	S72.44,6.287,72.18,6.26c0,0-0.014,2.411-0.311,3.556c0,0-0.066,0.689-0.61,1.157c-0.545,0.468-1.261,0.409-1.28,0.028
	c-0.042-0.834,0.764-0.973,0.764-0.973s0.299-0.102,0.418-0.84c0.139-0.858,0.116-3.057,0.116-3.057l-0.898-0.056
	C70.379,6.075,70.628,9.568,69.921,9.605z"/>
<path fill="none" stroke="#FFD520" stroke-width="0.2941" d="M69.921,9.605c-0.707,0.039-0.459-3.53-0.459-3.53l-0.897,0.056
	c0,0-0.015,3.105,0.125,3.961c0.12,0.741,0.42,0.843,0.42,0.843s0.805,0.138,0.763,0.972c-0.019,0.382-0.735,0.439-1.279-0.027
	c-0.544-0.468-0.611-1.156-0.611-1.156C67.687,9.58,67.663,6.26,67.663,6.26c-0.261,0.027-0.803,0.17-0.803,0.17
	s0.415,4.987,0.673,7.11c0.305,2.503,0.59,3.276,1.916,3.555c0,0,0.289,3.216,0.017,5.569h0.909
	c-0.272-2.354,0.018-5.569,0.018-5.569c1.324-0.278,1.609-1.052,1.915-3.555c0.26-2.123,0.673-7.11,0.673-7.11
	S72.44,6.287,72.18,6.26c0,0-0.014,2.411-0.311,3.556c0,0-0.066,0.689-0.61,1.157c-0.545,0.468-1.261,0.409-1.28,0.028
	c-0.042-0.834,0.764-0.973,0.764-0.973s0.299-0.102,0.418-0.84c0.139-0.858,0.116-3.057,0.116-3.057l-0.898-0.056
	C70.379,6.075,70.628,9.568,69.921,9.605z"/>
<path fill="#FFD520" d="M62.21,12.289c-0.563,0.428-2.19-2.394-2.19-2.394l-0.682,0.538c0,0,1.529,2.317,2.126,2.95
	c0.514,0.545,0.82,0.458,0.82,0.458s0.744-0.336,1.179,0.377c0.197,0.327-0.363,0.777-1.076,0.694
	c-0.713-0.081-1.154-0.613-1.154-0.613c-0.888-0.78-2.583-3.225-2.583-3.225c-0.2,0.168-0.568,0.535-0.568,0.535
	s2.955,3.662,4.361,5.273c1.657,1.899,2.328,2.381,3.58,1.865c0,0,1.873,1.929,1.839,3.915h1.042c-0.574-2.683-2.1-4.444-2.1-4.444
	c0.939-0.974,0.742-1.774-0.411-4.018c-1.019-1.982-3.465-6.319-3.465-6.319s-0.472,0.301-0.701,0.425c0,0,1.312,1.945,1.711,3.06
	c0,0,0.331,0.606,0.143,1.3c-0.187,0.692-0.812,1.047-1.042,0.743c-0.502-0.667,0.086-1.237,0.086-1.237s0.192-0.251-0.124-0.931
	c-0.323-0.689-1.549-2.462-1.549-2.462L60.78,9.295C60.78,9.295,62.773,11.86,62.21,12.289z"/>
<path fill="none" stroke="#FFD520" stroke-width="0.2941" d="M62.21,12.289c-0.563,0.428-2.19-2.394-2.19-2.394l-0.682,0.538
	c0,0,1.529,2.317,2.126,2.95c0.514,0.545,0.82,0.458,0.82,0.458s0.744-0.336,1.179,0.377c0.197,0.327-0.363,0.777-1.076,0.694
	c-0.713-0.081-1.154-0.613-1.154-0.613c-0.888-0.78-2.583-3.225-2.583-3.225c-0.2,0.168-0.568,0.535-0.568,0.535
	s2.955,3.662,4.361,5.273c1.657,1.899,2.328,2.381,3.58,1.865c0,0,1.873,1.929,1.839,3.915h1.042c-0.574-2.683-2.1-4.444-2.1-4.444
	c0.939-0.974,0.742-1.774-0.411-4.018c-1.019-1.982-3.465-6.319-3.465-6.319s-0.472,0.301-0.701,0.425c0,0,1.312,1.945,1.711,3.06
	c0,0,0.331,0.606,0.143,1.3c-0.187,0.692-0.812,1.047-1.042,0.743c-0.502-0.667,0.086-1.237,0.086-1.237s0.192-0.251-0.124-0.931
	c-0.323-0.689-1.549-2.462-1.549-2.462L60.78,9.295C60.78,9.295,62.773,11.86,62.21,12.289z"/>
<path fill="#FFD520" d="M57.718,19.061c-0.332,0.623-3.308-1.076-3.308-1.076l-0.322,0.823c0,0,2.98,1.326,3.818,1.56
	c0.722,0.203,1.228-0.013,1.228-0.013s0.466-0.671,1.205-0.284c0.339,0.178,0.09,0.851-0.563,1.149
	c-0.654,0.297-1.595,0.053-1.595,0.053c-1.131-0.207-4.377-1.61-4.377-1.61c-0.085,0.249-0.231,0.764-0.231,0.764
	s3.957,1.202,5.992,1.86c2.4,0.774,3.222,0.841,4.031-0.246c0,0,0.655-0.401,2.399,0.625h1.077c-1.071-1.106-3.081-1.48-3.081-1.48
	c0.304-1.318-0.278-1.903-2.421-3.231c-1.817-1.127-5.591-3.135-5.591-3.135s-0.271,0.469-0.404,0.693c0,0,2.5,1.103,3.417,1.854
	c0,0,0.595,0.351,0.79,1.04c0.197,0.691-0.156,1.316-0.511,1.173c-0.774-0.313-0.563-1.102-0.563-1.102s0.036-0.316-0.585-0.736
	c-0.722-0.486-2.963-1.424-2.963-1.424l-0.383,0.799C54.777,17.117,57.981,18.406,57.718,19.061L57.718,19.061z"/>
<path fill="none" stroke="#FFD520" stroke-width="0.2941" d="M57.718,19.061c-0.332,0.623-3.308-1.076-3.308-1.076l-0.322,0.823
	c0,0,2.98,1.326,3.818,1.56c0.722,0.203,1.228-0.013,1.228-0.013s0.466-0.671,1.205-0.284c0.339,0.178,0.09,0.851-0.563,1.149
	c-0.654,0.297-1.595,0.053-1.595,0.053c-1.131-0.207-4.377-1.61-4.377-1.61c-0.085,0.249-0.231,0.764-0.231,0.764
	s3.957,1.202,5.992,1.86c2.4,0.774,3.222,0.841,4.031-0.246c0,0,0.655-0.401,2.399,0.625h1.077c-1.071-1.106-3.081-1.48-3.081-1.48
	c0.304-1.318-0.278-1.903-2.421-3.231c-1.817-1.127-5.591-3.135-5.591-3.135s-0.271,0.469-0.404,0.693c0,0,2.5,1.103,3.417,1.854
	c0,0,0.595,0.351,0.79,1.04c0.197,0.691-0.156,1.316-0.511,1.173c-0.774-0.313-0.563-1.102-0.563-1.102s0.036-0.316-0.585-0.736
	c-0.722-0.486-2.963-1.424-2.963-1.424l-0.383,0.799C54.777,17.117,57.981,18.406,57.718,19.061L57.718,19.061z"/>
<path fill="#FFD520" d="M77.638,12.289c0.563,0.428,2.19-2.394,2.19-2.394l0.681,0.538c0,0-1.527,2.317-2.125,2.95
	c-0.514,0.545-0.819,0.458-0.819,0.458s-0.746-0.336-1.18,0.377c-0.198,0.327,0.363,0.777,1.076,0.694
	c0.713-0.081,1.154-0.613,1.154-0.613c0.889-0.78,2.583-3.225,2.583-3.225c0.201,0.168,0.569,0.535,0.569,0.535
	s-2.955,3.662-4.36,5.273c-1.658,1.899-2.328,2.381-3.582,1.865c0,0-1.872,1.929-1.84,3.915h-1.041c0.574-2.683,2.1-4.444,2.1-4.444
	c-0.939-0.974-0.742-1.774,0.412-4.018c1.017-1.982,3.463-6.319,3.463-6.319s0.471,0.301,0.701,0.425c0,0-1.313,1.945-1.711,3.06
	c0,0-0.331,0.606-0.143,1.3c0.188,0.692,0.813,1.047,1.042,0.743c0.502-0.667-0.084-1.237-0.084-1.237s-0.193-0.251,0.124-0.931
	c0.321-0.689,1.549-2.462,1.549-2.462l0.673,0.513C79.069,9.295,77.074,11.86,77.638,12.289z"/>
<path fill="none" stroke="#FFD520" stroke-width="0.2941" d="M77.638,12.289c0.563,0.428,2.19-2.394,2.19-2.394l0.681,0.538
	c0,0-1.527,2.317-2.125,2.95c-0.514,0.545-0.819,0.458-0.819,0.458s-0.746-0.336-1.18,0.377c-0.198,0.327,0.363,0.777,1.076,0.694
	c0.713-0.081,1.154-0.613,1.154-0.613c0.889-0.78,2.583-3.225,2.583-3.225c0.201,0.168,0.569,0.535,0.569,0.535
	s-2.955,3.662-4.36,5.273c-1.658,1.899-2.328,2.381-3.582,1.865c0,0-1.872,1.929-1.84,3.915h-1.041c0.574-2.683,2.1-4.444,2.1-4.444
	c-0.939-0.974-0.742-1.774,0.412-4.018c1.017-1.982,3.463-6.319,3.463-6.319s0.471,0.301,0.701,0.425c0,0-1.313,1.945-1.711,3.06
	c0,0-0.331,0.606-0.143,1.3c0.188,0.692,0.813,1.047,1.042,0.743c0.502-0.667-0.084-1.237-0.084-1.237s-0.193-0.251,0.124-0.931
	c0.321-0.689,1.549-2.462,1.549-2.462l0.673,0.513C79.069,9.295,77.074,11.86,77.638,12.289z"/>
<path fill="#FFD520" d="M82.129,19.061c0.332,0.623,3.308-1.076,3.308-1.076l0.322,0.823c0,0-2.98,1.326-3.818,1.56
	c-0.722,0.203-1.228-0.013-1.228-0.013s-0.466-0.671-1.205-0.284c-0.339,0.178-0.09,0.851,0.563,1.149
	c0.654,0.297,1.595,0.053,1.595,0.053c1.132-0.207,4.376-1.61,4.376-1.61c0.086,0.249,0.234,0.764,0.234,0.764
	s-3.958,1.202-5.994,1.86c-2.398,0.774-3.221,0.841-4.031-0.246c0,0-0.655-0.401-2.398,0.625h-1.077
	c1.07-1.106,3.078-1.48,3.078-1.48c-0.304-1.318,0.28-1.903,2.422-3.231c1.818-1.127,5.59-3.135,5.59-3.135s0.272,0.469,0.406,0.693
	c0,0-2.5,1.103-3.416,1.854c0,0-0.596,0.351-0.792,1.04c-0.195,0.691,0.157,1.316,0.512,1.173c0.774-0.313,0.563-1.102,0.563-1.102
	s-0.036-0.316,0.586-0.736c0.72-0.486,2.962-1.424,2.962-1.424l0.382,0.799C85.07,17.117,81.867,18.406,82.129,19.061L82.129,19.061
	z"/>
<path fill="none" stroke="#FFD520" stroke-width="0.2941" d="M82.129,19.061c0.332,0.623,3.308-1.076,3.308-1.076l0.322,0.823
	c0,0-2.98,1.326-3.818,1.56c-0.722,0.203-1.228-0.013-1.228-0.013s-0.466-0.671-1.205-0.284c-0.339,0.178-0.09,0.851,0.563,1.149
	c0.654,0.297,1.595,0.053,1.595,0.053c1.132-0.207,4.376-1.61,4.376-1.61c0.086,0.249,0.234,0.764,0.234,0.764
	s-3.958,1.202-5.994,1.86c-2.398,0.774-3.221,0.841-4.031-0.246c0,0-0.655-0.401-2.398,0.625h-1.077
	c1.07-1.106,3.078-1.48,3.078-1.48c-0.304-1.318,0.28-1.903,2.422-3.231c1.818-1.127,5.59-3.135,5.59-3.135s0.272,0.469,0.406,0.693
	c0,0-2.5,1.103-3.416,1.854c0,0-0.596,0.351-0.792,1.04c-0.195,0.691,0.157,1.316,0.512,1.173c0.774-0.313,0.563-1.102,0.563-1.102
	s-0.036-0.316,0.586-0.736c0.72-0.486,2.962-1.424,2.962-1.424l0.382,0.799C85.07,17.117,81.867,18.406,82.129,19.061L82.129,19.061
	z"/>
<polygon fill="#FFD520" points="69.927,25.147 75.2,24.8 75.03,23.904 69.927,23.904 69.923,23.904 64.818,23.904 64.649,24.8 
	69.923,25.147 "/>
<polygon fill="none" stroke="#FFD520" stroke-width="0.2941" points="69.927,25.147 75.2,24.8 75.03,23.904 69.927,23.904 
	69.923,23.904 64.818,23.904 64.649,24.8 69.923,25.147 "/>
<polygon fill="#FFD520" points="69.927,27.057 75.528,26.536 75.329,25.611 69.927,26.075 69.923,26.075 64.519,25.611 
	64.32,26.536 69.923,27.057 "/>
<polygon fill="none" stroke="#FFD520" stroke-width="0.2941" points="69.927,27.057 75.528,26.536 75.329,25.611 69.927,26.075 
	69.923,26.075 64.519,25.611 64.32,26.536 69.923,27.057 "/>
<path fill="#FFD520" d="M67.622,27.723l-1.185-0.135l-3.545,8.453c0,0,1.691,0.998,2.43,1.158L67.622,27.723z"/>
<path fill="none" stroke="#FFD520" stroke-width="0.2941" d="M67.622,27.723l-1.185-0.135l-3.545,8.453c0,0,1.691,0.998,2.43,1.158
	L67.622,27.723z"/>
<path fill="#FFD520" d="M65.158,27.443l-1.196-0.132l-4.949,5.258c0,0,1.085,1.302,1.519,1.678L65.158,27.443z"/>
<path fill="none" stroke="#FFD520" stroke-width="0.2941" d="M65.158,27.443l-1.196-0.132l-4.949,5.258c0,0,1.085,1.302,1.519,1.678
	L65.158,27.443z"/>
<path fill="#FFD520" d="M72.227,27.723l1.186-0.135l3.544,8.453c0,0-1.693,0.998-2.43,1.158L72.227,27.723z"/>
<path fill="none" stroke="#FFD520" stroke-width="0.2941" d="M72.227,27.723l1.186-0.135l3.544,8.453c0,0-1.693,0.998-2.43,1.158
	L72.227,27.723z"/>
<path fill="#FFD520" d="M74.689,27.443l1.196-0.132l4.949,5.258c0,0-1.085,1.302-1.52,1.678L74.689,27.443z"/>
<path fill="none" stroke="#FFD520" stroke-width="0.2941" d="M74.689,27.443l1.196-0.132l4.949,5.258c0,0-1.085,1.302-1.52,1.678
	L74.689,27.443z"/>
<path fill="#FFD520" d="M69.927,38.009c0.289,0.045,1.62-0.071,1.62-0.071l-0.983-10.03l-0.637,0.072h-0.004l-0.637-0.072
	l-0.985,10.03c0,0,1.332,0.116,1.622,0.071H69.927z"/>
<path fill="none" stroke="#FFD520" stroke-width="0.2941" d="M69.927,38.009c0.289,0.045,1.62-0.071,1.62-0.071l-0.983-10.03
	l-0.637,0.072h-0.004l-0.637-0.072l-0.985,10.03c0,0,1.332,0.116,1.622,0.071H69.927z"/>
<path fill="#008357" d="M71.587,11.494c0,0,0.458,0.887-0.14,1.565c-0.473,0.54-1.266,0.593-1.336,0.181
	c-0.142-0.827,0.688-1.03,0.688-1.03S71.468,12.088,71.587,11.494z"/>
<path fill="none" stroke="#FFD520" stroke-width="0.2941" d="M71.587,11.494c0,0,0.458,0.887-0.14,1.565
	c-0.473,0.54-1.266,0.593-1.336,0.181c-0.142-0.827,0.688-1.03,0.688-1.03S71.468,12.088,71.587,11.494z"/>
<path fill="#008357" d="M71.56,13.54c0,0,0.46,0.886-0.138,1.565c-0.475,0.54-1.266,0.594-1.337,0.183
	c-0.143-0.829,0.688-1.033,0.688-1.033S71.442,14.134,71.56,13.54z"/>
<path fill="none" stroke="#FFD520" stroke-width="0.2941" d="M71.56,13.54c0,0,0.46,0.886-0.138,1.565
	c-0.475,0.54-1.266,0.594-1.337,0.183c-0.143-0.829,0.688-1.033,0.688-1.033S71.442,14.134,71.56,13.54z"/>
<path fill="#008357" d="M68.218,12.22c0,0-0.458,0.887,0.139,1.568c0.473,0.538,1.265,0.592,1.337,0.18
	c0.142-0.827-0.688-1.031-0.688-1.031S68.337,12.814,68.218,12.22z"/>
<path fill="none" stroke="#FFD520" stroke-width="0.2941" d="M68.218,12.22c0,0-0.458,0.887,0.139,1.568
	c0.473,0.538,1.265,0.592,1.337,0.18c0.142-0.827-0.688-1.031-0.688-1.031S68.337,12.814,68.218,12.22z"/>
<path fill="#008357" d="M68.473,14.552c0,0-0.459,0.887,0.138,1.566c0.475,0.54,1.266,0.593,1.338,0.181
	c0.142-0.827-0.689-1.031-0.689-1.031S68.592,15.146,68.473,14.552z"/>
<path fill="none" stroke="#FFD520" stroke-width="0.2941" d="M68.473,14.552c0,0-0.459,0.887,0.138,1.566
	c0.475,0.54,1.266,0.593,1.338,0.181c0.142-0.827-0.689-1.031-0.689-1.031S68.592,15.146,68.473,14.552z"/>
<path fill="#008357" d="M64.649,12.917c0,0,0.876,0.474,0.763,1.373c-0.089,0.711-0.714,1.202-1.003,0.899
	c-0.583-0.604-0.011-1.24-0.011-1.24S64.884,13.474,64.649,12.917z"/>
<path fill="none" stroke="#FFD520" stroke-width="0.2941" d="M64.649,12.917c0,0,0.876,0.474,0.763,1.373
	c-0.089,0.711-0.714,1.202-1.003,0.899c-0.583-0.604-0.011-1.24-0.011-1.24S64.884,13.474,64.649,12.917z"/>
<path fill="#008357" d="M65.775,14.623c0,0,0.875,0.476,0.764,1.375c-0.088,0.709-0.714,1.202-1.003,0.899
	c-0.709-0.735-0.01-1.238-0.01-1.238S66.011,15.182,65.775,14.623z"/>
<path fill="none" stroke="#FFD520" stroke-width="0.2941" d="M65.775,14.623c0,0,0.875,0.476,0.764,1.375
	c-0.088,0.709-0.714,1.202-1.003,0.899c-0.709-0.735-0.01-1.238-0.01-1.238S66.011,15.182,65.775,14.623z"/>
<path fill="#008357" d="M62.269,15.409c0,0,0.118,0.99,0.993,1.218c0.694,0.179,1.38-0.22,1.207-0.602
	c-0.347-0.766-1.146-0.466-1.146-0.466S62.57,15.707,62.269,15.409z"/>
<path fill="none" stroke="#FFD520" stroke-width="0.2941" d="M62.269,15.409c0,0,0.118,0.99,0.993,1.218
	c0.694,0.179,1.38-0.22,1.207-0.602c-0.347-0.766-1.146-0.466-1.146-0.466S62.57,15.707,62.269,15.409z"/>
<path fill="#008357" d="M63.789,17.193c0,0,0.118,0.991,0.993,1.218c0.695,0.182,1.381-0.22,1.208-0.6
	c-0.346-0.766-1.255-0.618-1.255-0.618S64.22,17.62,63.789,17.193z"/>
<path fill="none" stroke="#FFD520" stroke-width="0.2941" d="M63.789,17.193c0,0,0.118,0.991,0.993,1.218
	c0.695,0.182,1.381-0.22,1.208-0.6c-0.346-0.766-1.255-0.618-1.255-0.618S64.22,17.62,63.789,17.193z"/>
<path fill="#008357" d="M60.791,21.801c0,0,0.611,0.789,1.479,0.532c0.689-0.205,1.07-0.9,0.727-1.139
	c-0.692-0.476-1.334,0.042-1.334,0.042S61.38,21.943,60.791,21.801z"/>
<path fill="none" stroke="#FFD520" stroke-width="0.2941" d="M60.791,21.801c0,0,0.611,0.789,1.479,0.532
	c0.689-0.205,1.07-0.9,0.727-1.139c-0.692-0.476-1.334,0.042-1.334,0.042S61.38,21.943,60.791,21.801z"/>
<path fill="#008357" d="M60.993,18.582c0,0,0.998-0.052,1.369,0.774c0.129,0.289-0.107,1.365-0.389,1.292
	c-0.812-0.214-0.654-1.055-0.654-1.055S61.486,18.937,60.993,18.582z"/>
<path fill="none" stroke="#FFD520" stroke-width="0.2941" d="M60.993,18.582c0,0,0.998-0.052,1.369,0.774
	c0.129,0.289-0.107,1.365-0.389,1.292c-0.812-0.214-0.654-1.055-0.654-1.055S61.486,18.937,60.993,18.582z"/>
<path fill="#008357" d="M75.2,12.917c0,0-0.879,0.474-0.765,1.373c0.089,0.711,0.714,1.202,1.004,0.899
	c0.583-0.604,0.009-1.24,0.009-1.24S74.964,13.474,75.2,12.917z"/>
<path fill="none" stroke="#FFD520" stroke-width="0.2941" d="M75.2,12.917c0,0-0.879,0.474-0.765,1.373
	c0.089,0.711,0.714,1.202,1.004,0.899c0.583-0.604,0.009-1.24,0.009-1.24S74.964,13.474,75.2,12.917z"/>
<path fill="#008357" d="M74.072,14.623c0,0-0.876,0.476-0.765,1.375c0.09,0.709,0.715,1.202,1.004,0.899
	c0.583-0.604,0.011-1.238,0.011-1.238S73.838,15.182,74.072,14.623z"/>
<path fill="none" stroke="#FFD520" stroke-width="0.2941" d="M74.072,14.623c0,0-0.876,0.476-0.765,1.375
	c0.09,0.709,0.715,1.202,1.004,0.899c0.583-0.604,0.011-1.238,0.011-1.238S73.838,15.182,74.072,14.623z"/>
<path fill="#008357" d="M77.581,15.409c0,0-0.118,0.99-0.995,1.218c-0.694,0.179-1.38-0.22-1.208-0.602
	c0.348-0.766,1.149-0.466,1.149-0.466S77.148,15.833,77.581,15.409z"/>
<path fill="none" stroke="#FFD520" stroke-width="0.2941" d="M77.581,15.409c0,0-0.118,0.99-0.995,1.218
	c-0.694,0.179-1.38-0.22-1.208-0.602c0.348-0.766,1.149-0.466,1.149-0.466S77.148,15.833,77.581,15.409z"/>
<path fill="#008357" d="M76.06,17.193c0,0-0.117,0.991-0.994,1.218c-0.694,0.182-1.38-0.22-1.207-0.6
	c0.347-0.766,1.146-0.467,1.146-0.467S75.628,17.62,76.06,17.193z"/>
<path fill="none" stroke="#FFD520" stroke-width="0.2941" d="M76.06,17.193c0,0-0.117,0.991-0.994,1.218
	c-0.694,0.182-1.38-0.22-1.207-0.6c0.347-0.766,1.146-0.467,1.146-0.467S75.628,17.62,76.06,17.193z"/>
<path fill="#008357" d="M79.057,21.801c0,0-0.611,0.789-1.48,0.532c-0.687-0.205-1.069-0.9-0.725-1.139
	c0.691-0.476,1.225,0.192,1.225,0.192S78.467,21.943,79.057,21.801z"/>
<path fill="none" stroke="#FFD520" stroke-width="0.2941" d="M79.057,21.801c0,0-0.611,0.789-1.48,0.532
	c-0.687-0.205-1.069-0.9-0.725-1.139c0.691-0.476,1.225,0.192,1.225,0.192S78.467,21.943,79.057,21.801z"/>
<path fill="#008357" d="M78.854,18.582c0,0-0.997-0.052-1.368,0.774c-0.293,0.655-0.016,1.397,0.389,1.292
	c0.814-0.214,0.654-1.055,0.654-1.055S78.362,18.937,78.854,18.582z"/>
<path fill="none" stroke="#FFD520" stroke-width="0.2941" d="M78.854,18.582c0,0-0.997-0.052-1.368,0.774
	c-0.293,0.655-0.016,1.397,0.389,1.292c0.814-0.214,0.654-1.055,0.654-1.055S78.362,18.937,78.854,18.582z"/>
<path fill="#FFD520" d="M47.583,74.245c-0.708,0.036-0.458-3.533-0.458-3.533l-0.898,0.056c0,0-0.014,3.104,0.125,3.963
	c0.119,0.74,0.419,0.843,0.419,0.843s0.805,0.137,0.763,0.974c-0.019,0.382-0.735,0.438-1.278-0.03
	c-0.545-0.47-0.611-1.155-0.611-1.155c-0.297-1.146-0.321-4.465-0.321-4.465c-0.259,0.028-0.801,0.171-0.801,0.171
	s0.413,4.985,0.672,7.11c0.307,2.502,0.592,3.276,1.915,3.553c0,0,0.29,3.218,0.019,5.571h0.908
	c-0.271-2.354,0.019-5.571,0.019-5.571c1.323-0.276,1.609-1.051,1.915-3.553c0.259-2.125,0.672-7.11,0.672-7.11
	s-0.542-0.143-0.801-0.171c0,0-0.015,2.411-0.311,3.557c0,0-0.066,0.688-0.611,1.157c-0.544,0.467-1.26,0.41-1.28,0.027
	c-0.042-0.834,0.765-0.974,0.765-0.974s0.3-0.101,0.42-0.842c0.138-0.857,0.115-3.055,0.115-3.055l-0.899-0.056
	C48.041,70.712,48.289,74.204,47.583,74.245z"/>
<path fill="none" stroke="#FFD520" stroke-width="0.2941" d="M47.583,74.245c-0.708,0.036-0.458-3.533-0.458-3.533l-0.898,0.056
	c0,0-0.014,3.104,0.125,3.963c0.119,0.74,0.419,0.843,0.419,0.843s0.805,0.137,0.763,0.974c-0.019,0.382-0.735,0.438-1.278-0.03
	c-0.545-0.47-0.611-1.155-0.611-1.155c-0.297-1.146-0.321-4.465-0.321-4.465c-0.259,0.028-0.801,0.171-0.801,0.171
	s0.413,4.985,0.672,7.11c0.307,2.502,0.592,3.276,1.915,3.553c0,0,0.29,3.218,0.019,5.571h0.908
	c-0.271-2.354,0.019-5.571,0.019-5.571c1.323-0.276,1.609-1.051,1.915-3.553c0.259-2.125,0.672-7.11,0.672-7.11
	s-0.542-0.143-0.801-0.171c0,0-0.015,2.411-0.311,3.557c0,0-0.066,0.688-0.611,1.157c-0.544,0.467-1.26,0.41-1.28,0.027
	c-0.042-0.834,0.765-0.974,0.765-0.974s0.3-0.101,0.42-0.842c0.138-0.857,0.115-3.055,0.115-3.055l-0.899-0.056
	C48.041,70.712,48.289,74.204,47.583,74.245z"/>
<path fill="#FFD520" d="M39.872,76.926c-0.564,0.428-2.191-2.391-2.191-2.391l-0.68,0.535c0,0,1.528,2.318,2.125,2.949
	c0.513,0.547,0.818,0.461,0.818,0.461s0.746-0.338,1.18,0.376c0.199,0.327-0.362,0.776-1.075,0.694
	c-0.713-0.084-1.154-0.612-1.154-0.612c-0.889-0.783-2.584-3.225-2.584-3.225c-0.199,0.166-0.567,0.534-0.567,0.534
	s2.955,3.662,4.36,5.273c1.659,1.897,2.328,2.38,3.581,1.865c0,0,1.874,1.929,1.841,3.915h1.04
	c-0.574-2.683-2.098-4.446-2.098-4.446c0.939-0.972,0.741-1.774-0.412-4.016c-1.019-1.983-3.464-6.318-3.464-6.318
	s-0.47,0.3-0.701,0.425c0,0,1.312,1.945,1.711,3.06c0,0,0.331,0.605,0.143,1.298c-0.188,0.693-0.813,1.049-1.042,0.745
	c-0.502-0.67,0.085-1.236,0.085-1.236s0.193-0.252-0.124-0.933c-0.321-0.688-1.55-2.463-1.55-2.463l-0.674,0.516
	C38.439,73.933,40.436,76.496,39.872,76.926z"/>
<path fill="none" stroke="#FFD520" stroke-width="0.2941" d="M39.872,76.926c-0.564,0.428-2.191-2.391-2.191-2.391l-0.68,0.535
	c0,0,1.528,2.318,2.125,2.949c0.513,0.547,0.818,0.461,0.818,0.461s0.746-0.338,1.18,0.376c0.199,0.327-0.362,0.776-1.075,0.694
	c-0.713-0.084-1.154-0.612-1.154-0.612c-0.889-0.783-2.584-3.225-2.584-3.225c-0.199,0.166-0.567,0.534-0.567,0.534
	s2.955,3.662,4.36,5.273c1.659,1.897,2.328,2.38,3.581,1.865c0,0,1.874,1.929,1.841,3.915h1.04
	c-0.574-2.683-2.098-4.446-2.098-4.446c0.939-0.972,0.741-1.774-0.412-4.016c-1.019-1.983-3.464-6.318-3.464-6.318
	s-0.47,0.3-0.701,0.425c0,0,1.312,1.945,1.711,3.06c0,0,0.331,0.605,0.143,1.298c-0.188,0.693-0.813,1.049-1.042,0.745
	c-0.502-0.67,0.085-1.236,0.085-1.236s0.193-0.252-0.124-0.933c-0.321-0.688-1.55-2.463-1.55-2.463l-0.674,0.516
	C38.439,73.933,40.436,76.496,39.872,76.926z"/>
<path fill="#FFD520" d="M35.379,83.695c-0.331,0.626-3.308-1.074-3.308-1.074l-0.321,0.823c0,0,2.98,1.325,3.818,1.562
	c0.722,0.2,1.229-0.015,1.229-0.015s0.465-0.672,1.205-0.284c0.339,0.178,0.089,0.853-0.563,1.149
	c-0.654,0.298-1.594,0.054-1.594,0.054c-1.134-0.206-4.379-1.61-4.379-1.61c-0.084,0.248-0.231,0.765-0.231,0.765
	s3.958,1.202,5.993,1.858c2.398,0.772,3.221,0.84,4.029-0.244c0,0,0.656-0.402,2.399,0.625l1.077-0.002
	c-1.07-1.106-3.08-1.481-3.08-1.481c0.306-1.317-0.277-1.9-2.419-3.229c-1.818-1.13-5.591-3.134-5.591-3.134
	s-0.272,0.469-0.406,0.694c0,0,2.502,1.1,3.416,1.851c0,0,0.597,0.35,0.792,1.042c0.196,0.691-0.156,1.315-0.511,1.172
	c-0.775-0.312-0.563-1.1-0.563-1.1s0.036-0.318-0.586-0.736c-0.72-0.488-2.963-1.426-2.963-1.426l-0.382,0.798
	c0,0,3.203,1.292,2.94,1.948V83.695z"/>
<path fill="none" stroke="#FFD520" stroke-width="0.2941" d="M35.379,83.695c-0.331,0.626-3.308-1.074-3.308-1.074l-0.321,0.823
	c0,0,2.98,1.325,3.818,1.562c0.722,0.2,1.229-0.015,1.229-0.015s0.465-0.672,1.205-0.284c0.339,0.178,0.089,0.853-0.563,1.149
	c-0.654,0.298-1.594,0.054-1.594,0.054c-1.134-0.206-4.379-1.61-4.379-1.61c-0.084,0.248-0.231,0.765-0.231,0.765
	s3.958,1.202,5.993,1.858c2.398,0.772,3.221,0.84,4.029-0.244c0,0,0.656-0.402,2.399,0.625l1.077-0.002
	c-1.07-1.106-3.08-1.481-3.08-1.481c0.306-1.317-0.277-1.9-2.419-3.229c-1.818-1.13-5.591-3.134-5.591-3.134
	s-0.272,0.469-0.406,0.694c0,0,2.502,1.1,3.416,1.851c0,0,0.597,0.35,0.792,1.042c0.196,0.691-0.156,1.315-0.511,1.172
	c-0.775-0.312-0.563-1.1-0.563-1.1s0.036-0.318-0.586-0.736c-0.72-0.488-2.963-1.426-2.963-1.426l-0.382,0.798
	c0,0,3.203,1.292,2.94,1.948V83.695z"/>
<path fill="#FFD520" d="M55.299,76.926c0.563,0.428,2.19-2.391,2.19-2.391l0.682,0.535c0,0-1.53,2.318-2.125,2.949
	c-0.515,0.547-0.82,0.461-0.82,0.461s-0.745-0.338-1.179,0.376c-0.198,0.327,0.363,0.776,1.075,0.694
	c0.713-0.084,1.155-0.612,1.155-0.612c0.888-0.783,2.583-3.225,2.583-3.225c0.2,0.166,0.568,0.534,0.568,0.534
	s-2.954,3.662-4.362,5.273c-1.657,1.897-2.328,2.38-3.58,1.865c0,0-1.873,1.929-1.84,3.915h-1.041c0.574-2.683,2.1-4.446,2.1-4.446
	c-0.94-0.972-0.741-1.774,0.411-4.016c1.019-1.983,3.465-6.318,3.465-6.318s0.47,0.3,0.7,0.425c0,0-1.313,1.945-1.711,3.06
	c0,0-0.331,0.605-0.143,1.298c0.187,0.693,0.812,1.049,1.042,0.745c0.503-0.67-0.085-1.236-0.085-1.236s-0.192-0.252,0.124-0.933
	c0.322-0.688,1.55-2.463,1.55-2.463l0.673,0.516C56.73,73.933,54.736,76.496,55.299,76.926z"/>
<path fill="none" stroke="#FFD520" stroke-width="0.2941" d="M55.299,76.926c0.563,0.428,2.19-2.391,2.19-2.391l0.682,0.535
	c0,0-1.53,2.318-2.125,2.949c-0.515,0.547-0.82,0.461-0.82,0.461s-0.745-0.338-1.179,0.376c-0.198,0.327,0.363,0.776,1.075,0.694
	c0.713-0.084,1.155-0.612,1.155-0.612c0.888-0.783,2.583-3.225,2.583-3.225c0.2,0.166,0.568,0.534,0.568,0.534
	s-2.954,3.662-4.362,5.273c-1.657,1.897-2.328,2.38-3.58,1.865c0,0-1.873,1.929-1.84,3.915h-1.041c0.574-2.683,2.1-4.446,2.1-4.446
	c-0.94-0.972-0.741-1.774,0.411-4.016c1.019-1.983,3.465-6.318,3.465-6.318s0.47,0.3,0.7,0.425c0,0-1.313,1.945-1.711,3.06
	c0,0-0.331,0.605-0.143,1.298c0.187,0.693,0.812,1.049,1.042,0.745c0.503-0.67-0.085-1.236-0.085-1.236s-0.192-0.252,0.124-0.933
	c0.322-0.688,1.55-2.463,1.55-2.463l0.673,0.516C56.73,73.933,54.736,76.496,55.299,76.926z"/>
<path fill="#FFD520" d="M59.791,83.695c0.333,0.626,3.309-1.074,3.309-1.074l0.322,0.823c0,0-2.981,1.325-3.818,1.562
	c-0.722,0.2-1.228-0.015-1.228-0.015s-0.466-0.672-1.206-0.284c-0.338,0.178-0.088,0.853,0.564,1.149
	c0.653,0.298,1.595,0.054,1.595,0.054c1.132-0.206,4.377-1.61,4.377-1.61c0.084,0.248,0.232,0.765,0.232,0.765
	s-3.958,1.202-5.992,1.858c-2.4,0.772-3.222,0.84-4.031-0.244c0,0-0.656-0.402-2.4,0.625l-1.077-0.002
	c1.07-1.106,3.08-1.481,3.08-1.481c-0.305-1.317,0.278-1.9,2.419-3.229c1.818-1.13,5.592-3.134,5.592-3.134s0.271,0.469,0.404,0.694
	c0,0-2.5,1.1-3.415,1.851c0,0-0.596,0.35-0.791,1.042c-0.197,0.691,0.156,1.315,0.512,1.172c0.774-0.312,0.563-1.1,0.563-1.1
	s-0.037-0.318,0.587-0.736c0.72-0.488,2.962-1.426,2.962-1.426l0.383,0.798c0,0-3.204,1.292-2.942,1.948V83.695z"/>
<path fill="none" stroke="#FFD520" stroke-width="0.2941" d="M59.791,83.695c0.333,0.626,3.309-1.074,3.309-1.074l0.322,0.823
	c0,0-2.981,1.325-3.818,1.562c-0.722,0.2-1.228-0.015-1.228-0.015s-0.466-0.672-1.206-0.284c-0.338,0.178-0.088,0.853,0.564,1.149
	c0.653,0.298,1.595,0.054,1.595,0.054c1.132-0.206,4.377-1.61,4.377-1.61c0.084,0.248,0.232,0.765,0.232,0.765
	s-3.958,1.202-5.992,1.858c-2.4,0.772-3.222,0.84-4.031-0.244c0,0-0.656-0.402-2.4,0.625l-1.077-0.002
	c1.07-1.106,3.08-1.481,3.08-1.481c-0.305-1.317,0.278-1.9,2.419-3.229c1.818-1.13,5.592-3.134,5.592-3.134s0.271,0.469,0.404,0.694
	c0,0-2.5,1.1-3.415,1.851c0,0-0.596,0.35-0.791,1.042c-0.197,0.691,0.156,1.315,0.512,1.172c0.774-0.312,0.563-1.1,0.563-1.1
	s-0.037-0.318,0.587-0.736c0.72-0.488,2.962-1.426,2.962-1.426l0.383,0.798c0,0-3.204,1.292-2.942,1.948V83.695z"/>
<polygon fill="#FFD520" points="47.587,89.785 52.861,89.437 52.69,88.539 47.587,88.539 47.583,88.539 42.48,88.539 42.31,89.437 
	47.583,89.785 "/>
<polygon fill="none" stroke="#FFD520" stroke-width="0.2941" points="47.587,89.785 52.861,89.437 52.69,88.539 47.587,88.539 
	47.583,88.539 42.48,88.539 42.31,89.437 47.583,89.785 "/>
<polygon fill="#FFD520" points="47.587,91.694 53.19,91.176 52.991,90.248 47.587,90.711 47.583,90.711 42.181,90.248 
	41.981,91.176 47.583,91.694 "/>
<polygon fill="none" stroke="#FFD520" stroke-width="0.2941" points="47.587,91.694 53.19,91.176 52.991,90.248 47.587,90.711 
	47.583,90.711 42.181,90.248 41.981,91.176 47.583,91.694 "/>
<path fill="#FFD520" d="M45.283,92.36l-1.187-0.134l-3.543,8.453c0,0,1.692,0.997,2.431,1.157L45.283,92.36z"/>
<path fill="none" stroke="#FFD520" stroke-width="0.2941" d="M45.283,92.36l-1.187-0.134l-3.543,8.453c0,0,1.692,0.997,2.431,1.157
	L45.283,92.36z"/>
<path fill="#FFD520" d="M42.82,92.081l-1.196-0.134l-4.949,5.26c0,0,1.085,1.301,1.519,1.679L42.82,92.081z"/>
<path fill="none" stroke="#FFD520" stroke-width="0.2941" d="M42.82,92.081l-1.196-0.134l-4.949,5.26c0,0,1.085,1.301,1.519,1.679
	L42.82,92.081z"/>
<path fill="#FFD520" d="M49.888,92.36l1.186-0.134l3.545,8.453c0,0-1.693,0.997-2.431,1.157L49.888,92.36z"/>
<path fill="none" stroke="#FFD520" stroke-width="0.2941" d="M49.888,92.36l1.186-0.134l3.545,8.453c0,0-1.693,0.997-2.431,1.157
	L49.888,92.36z"/>
<path fill="#FFD520" d="M52.352,92.081l1.197-0.134l4.947,5.26c0,0-1.084,1.301-1.518,1.679L52.352,92.081z"/>
<path fill="none" stroke="#FFD520" stroke-width="0.2941" d="M52.352,92.081l1.197-0.134l4.947,5.26c0,0-1.084,1.301-1.518,1.679
	L52.352,92.081z"/>
<path fill="#FFD520" d="M47.587,102.646c0.29,0.044,1.622-0.072,1.622-0.072l-0.985-10.03l-0.636,0.073h-0.004l-0.636-0.073
	l-0.984,10.03c0,0,1.332,0.116,1.62,0.072H47.587z"/>
<path fill="none" stroke="#FFD520" stroke-width="0.2941" d="M47.587,102.646c0.29,0.044,1.622-0.072,1.622-0.072l-0.985-10.03
	l-0.636,0.073h-0.004l-0.636-0.073l-0.984,10.03c0,0,1.332,0.116,1.62,0.072H47.587z"/>
<path fill="#008357" d="M49.247,76.13c0,0,0.46,0.888-0.137,1.567c-0.475,0.54-1.267,0.593-1.338,0.183
	c-0.141-0.83,0.688-1.031,0.688-1.031S49.13,76.725,49.247,76.13z"/>
<path fill="none" stroke="#FFD520" stroke-width="0.2941" d="M49.247,76.13c0,0,0.46,0.888-0.137,1.567
	c-0.475,0.54-1.267,0.593-1.338,0.183c-0.141-0.83,0.688-1.031,0.688-1.031S49.13,76.725,49.247,76.13z"/>
<path fill="#008357" d="M49.222,78.178c0,0,0.46,0.886-0.139,1.564c-0.473,0.54-1.265,0.595-1.336,0.183
	c-0.143-0.828,0.688-1.031,0.688-1.031S49.103,78.772,49.222,78.178z"/>
<path fill="none" stroke="#FFD520" stroke-width="0.2941" d="M49.222,78.178c0,0,0.46,0.886-0.139,1.564
	c-0.473,0.54-1.265,0.595-1.336,0.183c-0.143-0.828,0.688-1.031,0.688-1.031S49.103,78.772,49.222,78.178z"/>
<path fill="#008357" d="M45.879,76.856c0,0-0.46,0.888,0.138,1.566c0.474,0.539,1.267,0.594,1.337,0.182
	c0.142-0.828-0.688-1.031-0.688-1.031S45.998,77.452,45.879,76.856z"/>
<path fill="none" stroke="#FFD520" stroke-width="0.2941" d="M45.879,76.856c0,0-0.46,0.888,0.138,1.566
	c0.474,0.539,1.267,0.594,1.337,0.182c0.142-0.828-0.688-1.031-0.688-1.031S45.998,77.452,45.879,76.856z"/>
<path fill="#008357" d="M46.134,79.189c0,0-0.458,0.888,0.139,1.564c0.474,0.54,1.265,0.594,1.336,0.182
	c0.145-0.827-0.687-1.029-0.687-1.029S46.253,79.784,46.134,79.189z"/>
<path fill="none" stroke="#FFD520" stroke-width="0.2941" d="M46.134,79.189c0,0-0.458,0.888,0.139,1.564
	c0.474,0.54,1.265,0.594,1.336,0.182c0.145-0.827-0.687-1.029-0.687-1.029S46.253,79.784,46.134,79.189z"/>
<path fill="#008357" d="M42.31,77.552c0,0,0.877,0.476,0.765,1.374c-0.09,0.711-0.713,1.202-1.004,0.901
	c-0.583-0.606-0.01-1.241-0.01-1.241S42.546,78.11,42.31,77.552z"/>
<path fill="none" stroke="#FFD520" stroke-width="0.2941" d="M42.31,77.552c0,0,0.877,0.476,0.765,1.374
	c-0.09,0.711-0.713,1.202-1.004,0.901c-0.583-0.606-0.01-1.241-0.01-1.241S42.546,78.11,42.31,77.552z"/>
<path fill="#008357" d="M43.437,79.26c0,0,0.877,0.475,0.764,1.375c-0.088,0.711-0.713,1.199-1.003,0.898
	c-0.71-0.735-0.01-1.238-0.01-1.238S43.673,79.818,43.437,79.26z"/>
<path fill="none" stroke="#FFD520" stroke-width="0.2941" d="M43.437,79.26c0,0,0.877,0.475,0.764,1.375
	c-0.088,0.711-0.713,1.199-1.003,0.898c-0.71-0.735-0.01-1.238-0.01-1.238S43.673,79.818,43.437,79.26z"/>
<path fill="#008357" d="M39.929,80.046c0,0,0.118,0.99,0.994,1.217c0.695,0.181,1.381-0.22,1.208-0.601
	c-0.347-0.767-1.147-0.468-1.147-0.468S40.232,80.344,39.929,80.046z"/>
<path fill="none" stroke="#FFD520" stroke-width="0.2941" d="M39.929,80.046c0,0,0.118,0.99,0.994,1.217
	c0.695,0.181,1.381-0.22,1.208-0.601c-0.347-0.767-1.147-0.468-1.147-0.468S40.232,80.344,39.929,80.046z"/>
<path fill="#008357" d="M41.449,81.832c0,0,0.118,0.99,0.995,1.218c0.694,0.182,1.38-0.221,1.207-0.601
	c-0.347-0.765-1.255-0.617-1.255-0.617S41.882,82.257,41.449,81.832z"/>
<path fill="none" stroke="#FFD520" stroke-width="0.2941" d="M41.449,81.832c0,0,0.118,0.99,0.995,1.218
	c0.694,0.182,1.38-0.221,1.207-0.601c-0.347-0.765-1.255-0.617-1.255-0.617S41.882,82.257,41.449,81.832z"/>
<path fill="#008357" d="M38.453,86.438c0,0,0.61,0.79,1.478,0.532c0.689-0.205,1.071-0.899,0.727-1.136
	c-0.69-0.479-1.331,0.038-1.331,0.038S39.042,86.581,38.453,86.438z"/>
<path fill="none" stroke="#FFD520" stroke-width="0.2941" d="M38.453,86.438c0,0,0.61,0.79,1.478,0.532
	c0.689-0.205,1.071-0.899,0.727-1.136c-0.69-0.479-1.331,0.038-1.331,0.038S39.042,86.581,38.453,86.438z"/>
<path fill="#008357" d="M38.655,83.217c0,0,0.997-0.05,1.368,0.774c0.129,0.291-0.107,1.367-0.388,1.294
	c-0.813-0.214-0.653-1.056-0.653-1.056S39.147,83.572,38.655,83.217z"/>
<path fill="none" stroke="#FFD520" stroke-width="0.2941" d="M38.655,83.217c0,0,0.997-0.05,1.368,0.774
	c0.129,0.291-0.107,1.367-0.388,1.294c-0.813-0.214-0.653-1.056-0.653-1.056S39.147,83.572,38.655,83.217z"/>
<path fill="#008357" d="M52.861,77.552c0,0-0.877,0.476-0.764,1.374c0.088,0.711,0.712,1.202,1.002,0.901
	c0.584-0.606,0.011-1.241,0.011-1.241S52.626,78.11,52.861,77.552z"/>
<path fill="none" stroke="#FFD520" stroke-width="0.2941" d="M52.861,77.552c0,0-0.877,0.476-0.764,1.374
	c0.088,0.711,0.712,1.202,1.002,0.901c0.584-0.606,0.011-1.241,0.011-1.241S52.626,78.11,52.861,77.552z"/>
<path fill="#008357" d="M51.734,79.26c0,0-0.876,0.475-0.764,1.375c0.09,0.711,0.713,1.199,1.004,0.898
	c0.583-0.605,0.01-1.238,0.01-1.238S51.499,79.818,51.734,79.26z"/>
<path fill="none" stroke="#FFD520" stroke-width="0.2941" d="M51.734,79.26c0,0-0.876,0.475-0.764,1.375
	c0.09,0.711,0.713,1.199,1.004,0.898c0.583-0.605,0.01-1.238,0.01-1.238S51.499,79.818,51.734,79.26z"/>
<path fill="#008357" d="M55.241,80.046c0,0-0.118,0.99-0.993,1.217c-0.694,0.181-1.38-0.22-1.208-0.601
	c0.347-0.767,1.148-0.468,1.148-0.468S54.811,80.471,55.241,80.046z"/>
<path fill="none" stroke="#FFD520" stroke-width="0.2941" d="M55.241,80.046c0,0-0.118,0.99-0.993,1.217
	c-0.694,0.181-1.38-0.22-1.208-0.601c0.347-0.767,1.148-0.468,1.148-0.468S54.811,80.471,55.241,80.046z"/>
<path fill="#008357" d="M53.721,81.832c0,0-0.118,0.99-0.994,1.218c-0.695,0.182-1.381-0.221-1.208-0.601
	c0.347-0.765,1.148-0.468,1.148-0.468S53.29,82.257,53.721,81.832z"/>
<path fill="none" stroke="#FFD520" stroke-width="0.2941" d="M53.721,81.832c0,0-0.118,0.99-0.994,1.218
	c-0.695,0.182-1.381-0.221-1.208-0.601c0.347-0.765,1.148-0.468,1.148-0.468S53.29,82.257,53.721,81.832z"/>
<path fill="#008357" d="M56.719,86.438c0,0-0.612,0.79-1.48,0.532c-0.688-0.205-1.069-0.899-0.726-1.136
	c0.692-0.479,1.226,0.188,1.226,0.188S56.128,86.581,56.719,86.438z"/>
<path fill="none" stroke="#FFD520" stroke-width="0.2941" d="M56.719,86.438c0,0-0.612,0.79-1.48,0.532
	c-0.688-0.205-1.069-0.899-0.726-1.136c0.692-0.479,1.226,0.188,1.226,0.188S56.128,86.581,56.719,86.438z"/>
<path fill="#008357" d="M56.517,83.217c0,0-0.998-0.05-1.369,0.774c-0.294,0.656-0.016,1.398,0.388,1.294
	c0.813-0.214,0.655-1.056,0.655-1.056S56.023,83.572,56.517,83.217z"/>
<path fill="none" stroke="#FFD520" stroke-width="0.2941" d="M56.517,83.217c0,0-0.998-0.05-1.369,0.774
	c-0.294,0.656-0.016,1.398,0.388,1.294c0.813-0.214,0.655-1.056,0.655-1.056S56.023,83.572,56.517,83.217z"/>
<path fill="#231F20" d="M147.498,5.733c-0.537,0.02-1.32,0.134-2.353,0.345c-1.034,0.212-1.875,0.526-2.524,0.947
	c-0.652,0.44-1.101,1.35-1.349,2.729c-0.25,1.378-0.373,3.063-0.373,5.054v17.716c0,2.259-0.471,4.221-1.413,5.886
	c-0.941,1.666-2.178,3.033-3.714,4.105c-1.517,1.034-3.116,1.776-4.796,2.227c-1.681,0.449-3.289,0.674-4.825,0.674
	c-2.458,0-4.648-0.322-6.568-0.962c-1.921-0.641-3.534-1.507-4.839-2.598c-1.287-1.091-2.257-2.34-2.909-3.748
	c-0.654-1.407-0.98-2.876-0.98-4.408V9.61c0-0.67-0.112-1.229-0.333-1.68c-0.222-0.449-0.671-0.865-1.345-1.25
	c-0.483-0.267-1.102-0.483-1.854-0.645c-0.753-0.163-1.37-0.264-1.852-0.302V3.649h16.932v2.084
	c-0.529,0.02-1.195,0.106-1.998,0.259s-1.394,0.297-1.771,0.43c-0.643,0.231-1.071,0.613-1.289,1.149
	c-0.216,0.537-0.325,1.12-0.325,1.752v22.512c0,1.092,0.119,2.236,0.361,3.433c0.242,1.196,0.719,2.31,1.434,3.344
	c0.751,1.053,1.774,1.915,3.068,2.584c1.291,0.67,3.067,1.005,5.325,1.005c2.122,0,3.902-0.334,5.34-1.005
	c1.438-0.67,2.571-1.55,3.401-2.642c0.791-1.034,1.35-2.115,1.678-3.244c0.328-1.128,0.493-2.269,0.493-3.418V15.181
	c0-2.124-0.153-3.861-0.46-5.211c-0.307-1.348-0.755-2.234-1.349-2.656c-0.67-0.479-1.584-0.852-2.743-1.12
	c-1.159-0.268-2.043-0.422-2.655-0.46V3.649h16.585V5.733z"/>
<path fill="#231F20" d="M181.699,13.896c-0.423,0.017-1.072,0.138-1.948,0.364c-0.877,0.228-1.503,0.461-1.881,0.702
	c-0.544,0.379-0.911,1.104-1.099,2.18c-0.188,1.074-0.282,2.436-0.282,4.085v23.582h-1.947l-19.5-26.382v16.589
	c0,1.859,0.117,3.287,0.352,4.283c0.233,0.997,0.593,1.707,1.076,2.13c0.347,0.333,1.063,0.643,2.151,0.929
	c1.087,0.288,1.805,0.438,2.152,0.453v1.65h-13.199v-1.65c0.41-0.029,1.104-0.176,2.078-0.44c0.975-0.264,1.583-0.502,1.828-0.714
	c0.532-0.421,0.897-1.068,1.095-1.936c0.198-0.868,0.297-2.352,0.297-4.45V19.444c0-0.695-0.122-1.389-0.364-2.083
	c-0.243-0.694-0.568-1.23-0.977-1.607c-0.545-0.499-1.284-0.924-2.215-1.28c-0.933-0.355-1.687-0.548-2.262-0.578v-1.649h9.174
	l18.091,24.471V21.48c0-1.866-0.121-3.298-0.361-4.299c-0.242-1.001-0.588-1.668-1.04-1.999c-0.421-0.284-1.111-0.563-2.066-0.834
	c-0.955-0.271-1.681-0.421-2.178-0.452v-1.649h13.025V13.896z"/>
<path fill="#231F20" d="M200.548,44.461h-14.587v-1.65c0.409-0.029,1.004-0.074,1.78-0.135c0.775-0.06,1.324-0.151,1.644-0.271
	c0.502-0.195,0.867-0.464,1.095-0.803c0.228-0.339,0.343-0.812,0.343-1.417V16.908c0-0.528-0.084-0.969-0.25-1.324
	c-0.169-0.356-0.563-0.654-1.188-0.896c-0.457-0.18-1.032-0.35-1.725-0.508c-0.692-0.159-1.259-0.254-1.699-0.284v-1.649h14.587
	v1.649c-0.473,0.017-1.037,0.073-1.69,0.171c-0.655,0.098-1.226,0.222-1.711,0.374c-0.58,0.182-0.967,0.476-1.166,0.883
	c-0.198,0.407-0.295,0.86-0.295,1.357v23.253c0,0.5,0.11,0.941,0.331,1.326c0.22,0.386,0.597,0.691,1.13,0.918
	c0.319,0.12,0.84,0.252,1.563,0.396c0.723,0.145,1.336,0.223,1.838,0.237V44.461z"/>
<path fill="#231F20" d="M236.352,13.896c-0.394,0.017-0.871,0.104-1.432,0.263c-0.56,0.158-1.022,0.351-1.385,0.578
	c-0.516,0.317-0.928,0.726-1.237,1.225c-0.311,0.499-0.618,1.089-0.92,1.77c-1.015,2.406-2.537,6.155-4.567,11.246
	c-2.03,5.091-4.118,10.396-6.268,15.918h-1.886c-2.182-5.854-4.286-11.497-6.316-16.928c-2.03-5.431-3.406-9.1-4.134-11.007
	c-0.182-0.468-0.424-0.881-0.726-1.236c-0.304-0.355-0.705-0.693-1.204-1.012c-0.41-0.256-0.864-0.448-1.363-0.577
	c-0.5-0.129-0.961-0.209-1.386-0.239v-1.649h13.317v1.649c-1.135,0.062-2.093,0.175-2.871,0.341
	c-0.779,0.167-1.168,0.462-1.168,0.884c0,0.167,0.03,0.364,0.091,0.591c0.059,0.228,0.112,0.41,0.158,0.545
	c0.559,1.482,1.469,3.907,2.731,7.271c1.262,3.367,3.055,8.156,5.381,14.37c1.154-2.81,2.483-6.129,3.989-9.958
	c1.504-3.829,2.515-6.457,3.033-7.886c0.501-1.381,0.793-2.337,0.875-2.866c0.083-0.529,0.125-0.961,0.125-1.294
	c0-0.347-0.156-0.639-0.466-0.874c-0.31-0.233-0.721-0.434-1.234-0.602c-0.5-0.152-1.006-0.265-1.521-0.341
	c-0.514-0.076-1.035-0.135-1.563-0.182v-1.649h11.946V13.896z"/>
<path fill="#231F20" d="M266.77,34.996l-0.614,9.465h-26.824v-1.65c0.456-0.029,1.062-0.093,1.822-0.191
	c0.761-0.098,1.253-0.201,1.482-0.307c0.485-0.225,0.823-0.52,1.013-0.883c0.19-0.363,0.285-0.822,0.285-1.381V16.953
	c0-0.498-0.084-0.939-0.251-1.325c-0.167-0.385-0.516-0.698-1.047-0.94c-0.412-0.195-0.962-0.368-1.653-0.521
	c-0.691-0.151-1.241-0.241-1.651-0.271v-1.649h25.006v7.728h-1.734c-0.305-1.138-0.959-2.346-1.965-3.626
	c-1.007-1.279-1.965-1.98-2.872-2.1c-0.47-0.06-1.03-0.104-1.681-0.135c-0.651-0.029-1.393-0.044-2.226-0.044h-5.064v12.764h3.643
	c1.166,0,2.02-0.11,2.56-0.332c0.538-0.219,1.014-0.588,1.423-1.106c0.333-0.441,0.616-1.031,0.853-1.77
	c0.234-0.738,0.392-1.434,0.467-2.089h1.736v12.59h-1.736c-0.06-0.722-0.224-1.487-0.489-2.293c-0.266-0.806-0.543-1.389-0.83-1.752
	c-0.471-0.587-1.007-0.971-1.605-1.153c-0.6-0.18-1.392-0.272-2.377-0.272h-3.643v9.717c0,0.972,0.069,1.741,0.204,2.302
	c0.136,0.563,0.399,0.988,0.792,1.278c0.392,0.289,0.928,0.475,1.606,0.559c0.678,0.084,1.643,0.125,2.893,0.125
	c0.498,0,1.155,0,1.969,0c0.814,0,1.499-0.03,2.058-0.091c0.572-0.059,1.165-0.17,1.775-0.329c0.611-0.16,1.044-0.375,1.299-0.649
	c0.694-0.727,1.423-1.829,2.186-3.308c0.758-1.479,1.245-2.567,1.456-3.265H266.77z"/>
<path fill="#231F20" d="M291.367,20.418c0-1.95-0.553-3.496-1.66-4.637c-1.107-1.141-2.667-1.711-4.687-1.711h-3.813v13.806h2.937
	c2.065,0,3.782-0.669,5.158-2.006C290.678,24.531,291.367,22.714,291.367,20.418z M303.351,44.461h-8.695
	c-1.91-3.009-3.638-5.611-5.18-7.805c-1.544-2.192-3.218-4.454-5.022-6.784h-3.245v10.179c0,0.529,0.082,0.993,0.246,1.392
	c0.167,0.399,0.516,0.704,1.056,0.916c0.27,0.105,0.741,0.203,1.418,0.293c0.672,0.09,1.242,0.144,1.709,0.158v1.65h-13.546v-1.65
	c0.357-0.029,0.876-0.081,1.554-0.157c0.68-0.077,1.153-0.174,1.422-0.296c0.448-0.195,0.774-0.483,0.976-0.86
	c0.2-0.377,0.303-0.861,0.303-1.449V16.817c0-0.528-0.075-0.996-0.224-1.403c-0.149-0.407-0.5-0.718-1.055-0.93
	c-0.37-0.135-0.857-0.259-1.453-0.372c-0.598-0.115-1.104-0.187-1.522-0.217v-1.649h14.8c1.354,0,2.626,0.139,3.814,0.418
	c1.191,0.28,2.269,0.73,3.232,1.35c0.933,0.605,1.679,1.395,2.237,2.369c0.558,0.976,0.836,2.15,0.836,3.526
	c0,1.24-0.189,2.334-0.565,3.287c-0.378,0.953-0.934,1.778-1.673,2.473c-0.679,0.65-1.493,1.213-2.441,1.689
	c-0.95,0.476-1.995,0.88-3.14,1.212c1.584,2.109,2.9,3.882,3.95,5.324c1.05,1.44,2.34,3.19,3.864,5.253
	c0.666,0.91,1.265,1.578,1.802,2.001c0.535,0.423,1.067,0.77,1.596,1.037c0.394,0.194,0.885,0.343,1.474,0.448
	c0.589,0.104,1.08,0.164,1.474,0.177V44.461z"/>
<path fill="#231F20" d="M326.722,29.676c0.678,0.76,1.181,1.591,1.505,2.493c0.325,0.904,0.486,1.954,0.486,3.153
	c0,2.854-1.046,5.207-3.138,7.057c-2.092,1.852-4.687,2.777-7.786,2.777c-1.431,0-2.859-0.233-4.289-0.698
	c-1.43-0.467-2.664-1.018-3.702-1.653l-0.969,1.657h-1.824l-0.348-11.028h1.823c0.379,1.368,0.82,2.601,1.326,3.702
	c0.507,1.102,1.175,2.129,2.009,3.084c0.784,0.897,1.704,1.611,2.754,2.143c1.05,0.531,2.271,0.796,3.662,0.796
	c1.043,0,1.952-0.136,2.731-0.41c0.777-0.274,1.408-0.662,1.893-1.164c0.484-0.502,0.843-1.09,1.079-1.768
	c0.232-0.676,0.351-1.456,0.351-2.338c0-1.292-0.363-2.497-1.091-3.614c-0.728-1.119-1.809-1.966-3.247-2.544
	c-0.985-0.396-2.112-0.835-3.384-1.316c-1.271-0.479-2.37-0.934-3.292-1.363c-1.817-0.817-3.228-1.886-4.234-3.21
	c-1.007-1.324-1.511-3.052-1.511-5.185c0-1.224,0.248-2.367,0.747-3.426c0.495-1.059,1.206-2.004,2.125-2.837
	c0.873-0.785,1.908-1.401,3.1-1.848c1.19-0.446,2.435-0.67,3.732-0.67c1.479,0,2.801,0.236,3.969,0.709
	c1.169,0.471,2.234,1.01,3.199,1.615l0.929-1.542h1.824l0.174,10.68h-1.824c-0.332-1.228-0.704-2.403-1.121-3.525
	c-0.414-1.123-0.953-2.139-1.615-3.049c-0.647-0.879-1.438-1.581-2.372-2.104c-0.936-0.523-2.079-0.786-3.436-0.786
	c-1.433,0-2.652,0.464-3.661,1.388c-1.011,0.924-1.515,2.053-1.515,3.386c0,1.394,0.323,2.549,0.972,3.466
	c0.649,0.917,1.594,1.67,2.832,2.261c1.101,0.532,2.184,0.99,3.247,1.377c1.063,0.388,2.095,0.801,3.091,1.242
	c0.906,0.394,1.775,0.842,2.614,1.343C325.374,28.425,326.103,29.009,326.722,29.676z"/>
<path fill="#231F20" d="M348.94,44.461h-14.588v-1.65c0.408-0.029,1.003-0.074,1.78-0.135c0.775-0.06,1.324-0.151,1.645-0.271
	c0.501-0.195,0.867-0.464,1.096-0.803c0.228-0.339,0.342-0.812,0.342-1.417V16.908c0-0.528-0.085-0.969-0.25-1.324
	c-0.168-0.356-0.564-0.654-1.188-0.896c-0.457-0.18-1.031-0.35-1.724-0.508c-0.692-0.159-1.26-0.254-1.701-0.284v-1.649h14.588
	v1.649c-0.473,0.017-1.037,0.073-1.69,0.171c-0.655,0.098-1.225,0.222-1.711,0.374c-0.579,0.182-0.967,0.476-1.166,0.883
	c-0.198,0.407-0.296,0.86-0.296,1.357v23.253c0,0.5,0.11,0.941,0.332,1.326c0.219,0.386,0.596,0.691,1.13,0.918
	c0.318,0.12,0.839,0.252,1.564,0.396c0.721,0.145,1.334,0.223,1.837,0.237V44.461z"/>
<path fill="#231F20" d="M381.272,21.016h-1.564c-0.138-0.543-0.386-1.187-0.739-1.934c-0.359-0.746-0.759-1.451-1.197-2.117
	c-0.456-0.693-0.956-1.299-1.492-1.821c-0.54-0.52-1.062-0.819-1.561-0.896c-0.473-0.059-1.066-0.104-1.781-0.134
	c-0.713-0.03-1.372-0.046-1.979-0.046h-1.322v25.686c0,0.5,0.104,0.955,0.321,1.37c0.211,0.416,0.585,0.735,1.117,0.961
	c0.273,0.106,0.849,0.25,1.727,0.43c0.876,0.182,1.556,0.279,2.045,0.294v1.65h-15.282v-1.65c0.424-0.029,1.071-0.089,1.946-0.18
	c0.869-0.091,1.474-0.206,1.807-0.34c0.499-0.196,0.868-0.479,1.104-0.848c0.233-0.369,0.353-0.865,0.353-1.484V14.07h-1.321
	c-0.473,0-1.058,0.012-1.756,0.034c-0.7,0.022-1.368,0.072-2.006,0.146c-0.503,0.061-1.022,0.36-1.561,0.895
	c-0.54,0.537-1.036,1.144-1.492,1.822c-0.455,0.679-0.86,1.399-1.21,2.162c-0.35,0.762-0.591,1.391-0.727,1.888h-1.563v-8.77h28.135
	V21.016z"/>
<path fill="#231F20" d="M414.852,13.896c-0.258,0.017-0.668,0.119-1.229,0.307c-0.563,0.189-0.964,0.374-1.206,0.554
	c-0.591,0.364-0.994,0.644-1.204,0.839c-0.212,0.197-0.622,0.709-1.229,1.54c-1.184,1.661-2.274,3.345-3.276,5.05
	c-1.001,1.705-2.252,3.87-3.756,6.497c-0.561,0.966-0.93,1.743-1.111,2.332s-0.273,1.443-0.273,2.56v6.136
	c0,0.543,0.107,1.015,0.327,1.415c0.22,0.401,0.595,0.721,1.124,0.962c0.317,0.12,0.882,0.267,1.698,0.44
	c0.817,0.174,1.474,0.269,1.973,0.283v1.65H391.58v-1.65c0.425-0.029,1.063-0.085,1.914-0.169c0.848-0.083,1.442-0.193,1.775-0.329
	c0.546-0.226,0.921-0.536,1.127-0.928c0.204-0.392,0.308-0.875,0.308-1.451v-7.81c0-0.241-0.147-0.683-0.442-1.324
	c-0.297-0.642-0.649-1.355-1.06-2.141c-0.911-1.75-1.918-3.646-3.025-5.684c-1.107-2.038-2.069-3.782-2.891-5.23
	c-0.5-0.86-0.942-1.509-1.332-1.947c-0.388-0.437-0.83-0.822-1.328-1.154c-0.368-0.227-0.805-0.4-1.312-0.521
	c-0.504-0.122-0.966-0.197-1.376-0.227v-1.649h13.763v1.649c-1.543,0.03-2.63,0.136-3.267,0.317
	c-0.635,0.182-0.952,0.44-0.952,0.771c0,0.093,0.043,0.252,0.136,0.479c0.09,0.226,0.22,0.512,0.386,0.859
	c0.195,0.394,0.431,0.843,0.701,1.35c0.271,0.507,0.527,0.994,0.769,1.46c0.711,1.346,1.437,2.687,2.173,4.023
	c0.741,1.338,1.707,3.079,2.901,5.224c2.389-3.818,4.21-6.794,5.466-8.93s1.883-3.417,1.883-3.842c0-0.349-0.128-0.63-0.385-0.843
	c-0.259-0.213-0.598-0.38-1.021-0.502c-0.439-0.123-0.914-0.202-1.43-0.24c-0.514-0.039-0.989-0.079-1.426-0.125v-1.649h11.217
	V13.896z"/>
<path fill="#231F20" d="M457.915,38.923c0.847-1.38,1.463-2.942,1.848-4.687c0.386-1.745,0.58-3.694,0.58-5.849
	c0-2.214-0.217-4.247-0.647-6.097c-0.433-1.851-1.062-3.428-1.895-4.732c-0.832-1.289-1.875-2.294-3.132-3.015
	s-2.694-1.082-4.312-1.082c-1.815,0-3.359,0.418-4.628,1.253c-1.274,0.834-2.311,1.95-3.111,3.344
	c-0.757,1.335-1.321,2.897-1.69,4.687c-0.372,1.791-0.556,3.671-0.556,5.643c0,2.184,0.195,4.158,0.589,5.917
	c0.394,1.76,1.014,3.321,1.861,4.686c0.816,1.335,1.846,2.378,3.085,3.128c1.24,0.752,2.724,1.127,4.45,1.127
	c1.617,0,3.078-0.379,4.38-1.137C456.037,41.35,457.098,40.288,457.915,38.923z M461.279,16.053
	c1.419,1.484,2.531,3.275,3.332,5.373c0.801,2.098,1.201,4.418,1.201,6.961c0,2.561-0.408,4.884-1.223,6.974
	c-0.817,2.09-1.951,3.87-3.399,5.339c-1.406,1.454-3.038,2.575-4.896,3.362c-1.858,0.786-3.838,1.181-5.938,1.181
	c-2.236,0-4.304-0.421-6.199-1.261c-1.897-0.84-3.523-2.01-4.884-3.509c-1.36-1.469-2.429-3.252-3.206-5.35
	c-0.779-2.098-1.167-4.342-1.167-6.735c0-2.618,0.406-4.955,1.224-7.008c0.814-2.051,1.94-3.827,3.375-5.327
	c1.42-1.484,3.071-2.619,4.953-3.406c1.88-0.787,3.848-1.182,5.904-1.182c2.13,0,4.138,0.401,6.028,1.205
	C458.273,13.473,459.903,14.601,461.279,16.053z"/>
<path fill="#231F20" d="M493.492,20.322h-1.738c-0.318-1.193-0.982-2.468-1.987-3.828c-1.009-1.359-1.973-2.107-2.897-2.243
	c-0.468-0.06-1.026-0.105-1.67-0.135c-0.643-0.03-1.373-0.046-2.191-0.046h-5.406v12.938h3.695c1.118,0,1.986-0.116,2.605-0.349
	s1.149-0.59,1.589-1.072c0.301-0.33,0.576-0.845,0.825-1.545c0.25-0.698,0.412-1.446,0.489-2.243h1.736v12.59h-1.736
	c-0.047-0.664-0.201-1.421-0.466-2.268c-0.265-0.846-0.548-1.458-0.849-1.837c-0.454-0.559-1.025-0.941-1.713-1.145
	c-0.688-0.203-1.516-0.307-2.481-0.307h-3.695v11.062c0,0.498,0.099,0.942,0.298,1.335c0.2,0.392,0.552,0.708,1.061,0.95
	c0.228,0.105,0.726,0.235,1.494,0.384c0.767,0.151,1.351,0.234,1.749,0.249v1.65h-14.066v-1.65c0.455-0.029,1.062-0.078,1.82-0.146
	c0.761-0.068,1.255-0.155,1.483-0.261c0.455-0.195,0.785-0.487,0.99-0.872c0.204-0.385,0.308-0.85,0.308-1.392V16.953
	c0-0.498-0.083-0.939-0.252-1.325c-0.166-0.385-0.516-0.698-1.046-0.94c-0.411-0.195-0.963-0.368-1.653-0.521
	c-0.691-0.151-1.24-0.241-1.65-0.271v-1.649h25.355V20.322z"/>
<path fill="#231F20" d="M135.761,75.148c0.863,0.961,1.502,2.013,1.915,3.154c0.412,1.143,0.619,2.472,0.619,3.988
	c0,3.613-1.334,6.59-4.001,8.934c-2.667,2.342-5.977,3.513-9.929,3.513c-1.824,0-3.646-0.294-5.469-0.879
	c-1.823-0.587-3.396-1.281-4.719-2.089l-1.237,2.101h-2.258l-0.434-13.98h2.344c0.479,1.734,1.04,3.297,1.683,4.692
	c0.643,1.396,1.492,2.699,2.548,3.912c0.997,1.136,2.162,2.04,3.496,2.714c1.333,0.675,2.882,1.012,4.648,1.012
	c1.323,0,2.479-0.173,3.467-0.517c0.987-0.346,1.789-0.832,2.404-1.465c0.613-0.632,1.068-1.374,1.366-2.225
	c0.297-0.854,0.446-1.835,0.446-2.945c0-1.625-0.461-3.142-1.384-4.552c-0.922-1.406-2.297-2.474-4.121-3.201
	c-1.25-0.498-2.681-1.052-4.296-1.656c-1.614-0.606-3.008-1.178-4.18-1.718c-2.306-1.037-4.097-2.397-5.375-4.082
	c-1.278-1.683-1.917-3.88-1.917-6.591c0-1.559,0.316-3.011,0.95-4.356s1.536-2.549,2.708-3.607c1.112-0.999,2.427-1.783,3.944-2.35
	c1.517-0.567,3.101-0.852,4.751-0.852c1.882,0,3.567,0.294,5.055,0.88c1.486,0.585,2.846,1.263,4.075,2.03l1.181-1.955h2.257
	l0.261,13.544h-2.345c-0.422-1.554-0.896-3.042-1.423-4.463c-0.528-1.422-1.212-2.708-2.055-3.861c-0.825-1.112-1.832-2-3.02-2.663
	c-1.189-0.663-2.646-0.995-4.371-0.995c-1.821,0-3.374,0.586-4.658,1.755c-1.285,1.17-1.927,2.6-1.927,4.29
	c0,1.766,0.413,3.229,1.237,4.39c0.825,1.162,2.025,2.115,3.6,2.862c1.4,0.673,2.778,1.254,4.131,1.742
	c1.353,0.49,2.662,1.014,3.929,1.57c1.151,0.499,2.259,1.066,3.325,1.7C134.047,73.564,134.973,74.303,135.761,75.148z"/>
<path fill="#231F20" d="M158.354,80.672l-4.858-12.438l-4.791,12.438H158.354z M171.349,93.87h-13.42v-1.65
	c1.179-0.077,2.158-0.226,2.937-0.455c0.778-0.229,1.168-0.508,1.168-0.841c0-0.137-0.016-0.304-0.046-0.501
	c-0.03-0.197-0.077-0.37-0.136-0.522l-2.676-7.232h-11.253c-0.425,1.062-0.773,1.986-1.039,2.774
	c-0.267,0.789-0.506,1.517-0.718,2.183c-0.198,0.651-0.335,1.184-0.411,1.594c-0.076,0.408-0.113,0.741-0.113,1
	c0,0.605,0.476,1.075,1.428,1.408c0.953,0.335,2.027,0.533,3.221,0.593v1.65h-12.113v-1.65c0.393-0.03,0.886-0.116,1.475-0.261
	c0.589-0.144,1.073-0.335,1.451-0.578c0.605-0.406,1.074-0.835,1.408-1.279c0.333-0.446,0.658-1.061,0.975-1.848
	c1.618-4.032,3.403-8.564,5.354-13.597c1.951-5.029,3.691-9.51,5.219-13.437h1.814l10.732,27.735
	c0.227,0.589,0.483,1.063,0.771,1.428c0.288,0.363,0.688,0.716,1.204,1.064c0.347,0.213,0.8,0.391,1.36,0.534
	c0.559,0.143,1.028,0.221,1.407,0.237V93.87z"/>
<path fill="#231F20" d="M192.508,79.084c0.678,0.76,1.18,1.59,1.505,2.492c0.323,0.904,0.486,1.954,0.486,3.154
	c0,2.854-1.046,5.205-3.138,7.057c-2.093,1.852-4.688,2.777-7.787,2.777c-1.43,0-2.858-0.233-4.289-0.699
	c-1.43-0.467-2.664-1.019-3.701-1.652l-0.97,1.657h-1.823l-0.347-11.029h1.823c0.377,1.369,0.82,2.602,1.326,3.701
	c0.506,1.104,1.175,2.131,2.008,3.085c0.785,0.896,1.704,1.611,2.753,2.143c1.051,0.531,2.271,0.797,3.662,0.797
	c1.042,0,1.953-0.136,2.731-0.408c0.779-0.275,1.411-0.665,1.894-1.165c0.484-0.502,0.843-1.091,1.078-1.769
	c0.233-0.675,0.352-1.456,0.352-2.338c0-1.291-0.365-2.496-1.091-3.613c-0.728-1.119-1.809-1.968-3.247-2.545
	c-0.985-0.396-2.113-0.835-3.384-1.315c-1.272-0.48-2.371-0.936-3.293-1.364c-1.816-0.816-3.227-1.886-4.234-3.209
	c-1.007-1.325-1.51-3.053-1.51-5.187c0-1.225,0.249-2.365,0.746-3.426c0.497-1.059,1.207-2.003,2.126-2.836
	c0.874-0.787,1.907-1.402,3.099-1.849s2.436-0.671,3.732-0.671c1.478,0,2.8,0.236,3.97,0.71c1.168,0.471,2.234,1.01,3.199,1.614
	l0.928-1.542h1.823l0.174,10.681h-1.823c-0.331-1.228-0.705-2.403-1.12-3.526s-0.953-2.139-1.616-3.049
	c-0.649-0.879-1.439-1.581-2.373-2.104c-0.936-0.524-2.081-0.786-3.436-0.786c-1.433,0-2.652,0.463-3.662,1.386
	c-1.009,0.925-1.514,2.054-1.514,3.387c0,1.396,0.324,2.551,0.973,3.467c0.648,0.917,1.593,1.67,2.831,2.261
	c1.102,0.531,2.185,0.991,3.248,1.378c1.064,0.387,2.095,0.801,3.091,1.241c0.905,0.394,1.776,0.842,2.615,1.341
	C191.161,77.833,191.889,78.416,192.508,79.084z"/>
<path fill="#231F20" d="M229.743,93.87h-9.013c-1.737-2.704-3.665-5.387-5.785-8.051c-2.123-2.664-4.345-5.249-6.669-7.754h-0.589
	v11.223c0,0.501,0.092,0.948,0.279,1.342s0.526,0.712,1.019,0.953c0.239,0.105,0.683,0.235,1.333,0.387
	c0.648,0.152,1.19,0.233,1.624,0.25v1.65H198.57v-1.65c0.35-0.03,0.861-0.076,1.531-0.138c0.671-0.058,1.144-0.148,1.419-0.27
	c0.457-0.194,0.788-0.488,0.995-0.873c0.206-0.386,0.309-0.849,0.309-1.391V66.361c0-0.514-0.088-0.959-0.263-1.336
	c-0.176-0.376-0.522-0.688-1.041-0.929c-0.413-0.195-0.899-0.369-1.464-0.521c-0.564-0.15-1.062-0.241-1.487-0.271v-1.65h13.372
	v1.65c-0.418,0.016-0.941,0.084-1.569,0.203c-0.627,0.12-1.089,0.234-1.388,0.339c-0.507,0.18-0.85,0.481-1.029,0.903
	s-0.269,0.882-0.269,1.377v11.07h0.453c1.358-1.147,2.695-2.345,4.008-3.593c1.313-1.244,2.505-2.487,3.577-3.727
	c1.191-1.373,2.063-2.468,2.618-3.285c0.552-0.814,0.829-1.537,0.829-2.167c0-0.225-0.141-0.407-0.42-0.549
	c-0.279-0.141-0.601-0.259-0.965-0.35c-0.422-0.09-0.801-0.145-1.133-0.166c-0.334-0.021-0.605-0.041-0.817-0.057v-1.65h12.084v1.65
	c-0.047,0-0.145,0.008-0.296,0.022c-0.152,0.016-0.328,0.03-0.525,0.044c-0.212,0.017-0.426,0.046-0.638,0.089
	c-0.214,0.046-0.486,0.098-0.82,0.158c-0.533,0.121-1.083,0.311-1.654,0.573c-0.569,0.263-1.038,0.588-1.402,0.977
	c-1.565,1.752-3.193,3.572-4.881,5.462c-1.689,1.89-3.362,3.612-5.02,5.171c2.291,2.606,4.188,4.845,5.689,6.723
	c1.5,1.879,3.095,3.884,4.784,6.019c0.651,0.813,1.302,1.464,1.954,1.953c0.651,0.487,1.211,0.853,1.681,1.093
	c0.393,0.196,0.884,0.346,1.476,0.451c0.59,0.104,1.083,0.164,1.477,0.181V93.87z"/>
<path fill="#231F20" d="M247.758,80.672L242.9,68.234l-4.791,12.438H247.758z M260.754,93.87h-13.421v-1.65
	c1.18-0.077,2.159-0.226,2.938-0.455c0.779-0.229,1.167-0.508,1.167-0.841c0-0.137-0.015-0.304-0.046-0.501
	c-0.028-0.197-0.074-0.37-0.135-0.522l-2.675-7.232h-11.253c-0.426,1.062-0.773,1.986-1.04,2.774
	c-0.266,0.789-0.505,1.517-0.717,2.183c-0.199,0.651-0.335,1.184-0.411,1.594c-0.076,0.408-0.113,0.741-0.113,1
	c0,0.605,0.476,1.075,1.428,1.408c0.953,0.335,2.027,0.533,3.222,0.593v1.65h-12.114v-1.65c0.394-0.03,0.886-0.116,1.475-0.261
	c0.589-0.144,1.073-0.335,1.452-0.578c0.605-0.406,1.073-0.835,1.407-1.279c0.332-0.446,0.657-1.061,0.975-1.848
	c1.618-4.032,3.402-8.564,5.354-13.597c1.951-5.029,3.692-9.51,5.22-13.437h1.814l10.733,27.735c0.225,0.589,0.482,1.063,0.77,1.428
	c0.287,0.363,0.688,0.716,1.203,1.064c0.348,0.213,0.8,0.391,1.361,0.534c0.558,0.143,1.028,0.221,1.406,0.237V93.87z"/>
<path fill="#231F20" d="M288.16,70.424h-1.563c-0.14-0.542-0.387-1.188-0.741-1.932c-0.357-0.747-0.757-1.453-1.196-2.117
	c-0.457-0.694-0.955-1.301-1.494-1.822c-0.54-0.521-1.06-0.819-1.56-0.895c-0.472-0.06-1.065-0.104-1.779-0.135
	c-0.713-0.028-1.374-0.046-1.981-0.046h-1.321v25.687c0,0.498,0.106,0.955,0.32,1.37c0.211,0.416,0.586,0.735,1.117,0.959
	c0.274,0.107,0.851,0.25,1.727,0.432c0.876,0.181,1.558,0.278,2.046,0.295v1.65h-15.283v-1.65c0.424-0.03,1.073-0.09,1.946-0.181
	c0.871-0.092,1.473-0.205,1.809-0.341c0.498-0.195,0.866-0.478,1.103-0.848c0.233-0.37,0.353-0.864,0.353-1.483v-25.89h-1.321
	c-0.471,0-1.058,0.012-1.754,0.034c-0.701,0.023-1.368,0.072-2.005,0.146c-0.503,0.061-1.024,0.359-1.562,0.894
	c-0.54,0.537-1.038,1.144-1.494,1.823c-0.455,0.679-0.858,1.397-1.207,2.161c-0.351,0.763-0.595,1.391-0.729,1.888h-1.563v-8.77
	h28.134V70.424z"/>
<path fill="#231F20" d="M304.831,94.65c-1.919,0-3.759-0.379-5.519-1.138c-1.761-0.76-3.318-1.854-4.679-3.281
	c-1.346-1.428-2.417-3.169-3.218-5.226s-1.201-4.377-1.201-6.96c0-2.579,0.393-4.923,1.178-7.026
	c0.785-2.102,1.874-3.913,3.265-5.433c1.375-1.503,2.998-2.664,4.872-3.483c1.873-0.82,3.876-1.231,6.007-1.231
	c1.585,0,3.021,0.21,4.305,0.63c1.284,0.419,2.509,0.984,3.671,1.694l0.929-1.542h1.824l0.175,11.463h-1.824
	c-0.242-1.138-0.604-2.371-1.086-3.701c-0.484-1.329-1.049-2.454-1.694-3.376c-0.726-1.046-1.584-1.864-2.579-2.456
	c-0.997-0.592-2.135-0.888-3.416-0.888c-1.463,0-2.821,0.327-4.082,0.982c-1.259,0.655-2.347,1.623-3.268,2.901
	c-0.874,1.232-1.561,2.8-2.058,4.705c-0.498,1.904-0.747,4.027-0.747,6.37c0,2.072,0.259,3.972,0.778,5.7
	c0.518,1.729,1.259,3.247,2.222,4.557c0.963,1.294,2.101,2.307,3.416,3.038c1.316,0.73,2.786,1.095,4.411,1.095
	c1.218,0,2.336-0.19,3.36-0.577c1.022-0.382,1.909-0.892,2.661-1.523c0.751-0.662,1.413-1.418,1.984-2.261
	c0.571-0.845,1.038-1.762,1.399-2.758l1.736,0.818c-1.3,3.195-3.021,5.48-5.166,6.852C310.343,93.964,307.79,94.65,304.831,94.65z"
	/>
<path fill="#231F20" d="M353.795,93.87h-13.372v-1.65c0.357-0.03,0.875-0.076,1.556-0.138c0.68-0.058,1.146-0.148,1.4-0.272
	c0.448-0.18,0.777-0.456,0.986-0.827c0.209-0.374,0.312-0.854,0.312-1.444V78.065h-15.109v11.223c0,0.531,0.089,0.977,0.264,1.342
	c0.177,0.363,0.524,0.682,1.042,0.953c0.258,0.139,0.72,0.274,1.383,0.411c0.665,0.135,1.184,0.209,1.568,0.226v1.65h-13.373v-1.65
	c0.358-0.03,0.876-0.076,1.557-0.138c0.678-0.058,1.145-0.148,1.4-0.27c0.448-0.182,0.775-0.456,0.986-0.827
	c0.208-0.367,0.311-0.848,0.311-1.437V66.361c0-0.483-0.098-0.925-0.29-1.324c-0.195-0.4-0.528-0.715-1.007-0.94
	c-0.403-0.195-0.893-0.369-1.468-0.521c-0.576-0.15-1.072-0.241-1.489-0.271v-1.65h13.373v1.65
	c-0.428,0.016-0.951,0.084-1.568,0.203c-0.616,0.12-1.08,0.234-1.383,0.339c-0.518,0.18-0.865,0.481-1.042,0.903
	c-0.175,0.422-0.264,0.882-0.264,1.377v9.941h15.109v-9.714c0-0.481-0.098-0.923-0.291-1.323c-0.194-0.397-0.528-0.709-1.007-0.937
	c-0.402-0.194-0.892-0.368-1.468-0.52c-0.573-0.15-1.07-0.241-1.488-0.271v-1.65h13.372v1.65c-0.428,0.016-0.95,0.084-1.565,0.204
	c-0.619,0.121-1.08,0.233-1.386,0.34c-0.518,0.181-0.865,0.482-1.04,0.904c-0.177,0.424-0.265,0.883-0.265,1.382v23.163
	c0,0.53,0.088,0.976,0.265,1.338c0.175,0.36,0.522,0.679,1.04,0.949c0.259,0.137,0.721,0.272,1.386,0.409
	c0.662,0.135,1.184,0.209,1.565,0.226V93.87z"/>
<path fill="#231F20" d="M385.368,84.405l-0.615,9.465h-26.824v-1.65c0.456-0.03,1.062-0.095,1.821-0.192
	c0.76-0.097,1.254-0.2,1.481-0.306c0.485-0.225,0.825-0.521,1.015-0.883c0.19-0.363,0.284-0.822,0.284-1.381V66.361
	c0-0.498-0.084-0.938-0.251-1.324s-0.516-0.699-1.048-0.94c-0.409-0.195-0.961-0.369-1.652-0.521c-0.69-0.15-1.241-0.241-1.65-0.271
	v-1.65h25.008v7.729H381.2c-0.304-1.139-0.958-2.347-1.965-3.627c-1.007-1.279-1.965-1.979-2.872-2.1
	c-0.47-0.061-1.029-0.105-1.682-0.135c-0.651-0.03-1.392-0.045-2.225-0.045h-5.064v12.765h3.643c1.166,0,2.019-0.109,2.558-0.331
	c0.539-0.221,1.014-0.589,1.424-1.107c0.334-0.44,0.616-1.031,0.854-1.771c0.233-0.736,0.391-1.433,0.466-2.088h1.737v12.591h-1.737
	c-0.062-0.722-0.223-1.489-0.489-2.293c-0.267-0.808-0.543-1.391-0.831-1.753c-0.471-0.589-1.006-0.972-1.605-1.154
	c-0.6-0.18-1.391-0.271-2.376-0.271h-3.643v9.716c0,0.973,0.068,1.74,0.204,2.303c0.135,0.563,0.399,0.989,0.792,1.278
	c0.392,0.288,0.927,0.474,1.605,0.559c0.678,0.085,1.643,0.124,2.894,0.124c0.498,0,1.154,0,1.969,0c0.815,0,1.5-0.028,2.057-0.09
	c0.573-0.059,1.167-0.17,1.776-0.329c0.611-0.159,1.043-0.376,1.3-0.649c0.694-0.727,1.42-1.829,2.184-3.309
	c0.76-1.478,1.246-2.566,1.457-3.263H385.368z"/>
<path fill="#231F20" d="M432.362,63.305c-0.377,0.016-0.817,0.103-1.315,0.262c-0.499,0.158-0.96,0.365-1.384,0.622
	c-0.529,0.335-0.957,0.716-1.282,1.147c-0.325,0.431-0.61,1.033-0.851,1.804c-1.074,3.496-2.322,7.575-3.744,12.243
	c-1.424,4.668-2.959,9.641-4.607,14.92h-2.069l-8.152-24.818l-8.446,24.818h-2.004c-1.498-5.293-3.047-10.789-4.651-16.485
	c-1.604-5.695-2.677-9.512-3.222-11.45c-0.136-0.468-0.337-0.883-0.602-1.247c-0.264-0.362-0.625-0.694-1.077-0.999
	c-0.379-0.257-0.821-0.449-1.327-0.577c-0.509-0.13-0.965-0.21-1.372-0.239v-1.65h13.157v1.65c-1.149,0.062-2.13,0.174-2.939,0.34
	c-0.811,0.167-1.214,0.446-1.214,0.84c0,0.152,0.021,0.353,0.068,0.602c0.045,0.25,0.084,0.449,0.113,0.601
	c0.349,1.333,0.963,3.528,1.846,6.592c0.881,3.062,2.188,7.647,3.921,13.755l8.028-23.945h2.222l8.13,24.459
	c1.089-3.748,2.028-7.025,2.815-9.828c0.786-2.804,1.438-5.204,1.953-7.199c0.365-1.406,0.59-2.368,0.682-2.891
	c0.09-0.521,0.135-0.964,0.135-1.327c0-0.515-0.352-0.946-1.053-1.293c-0.703-0.348-1.842-0.583-3.415-0.704v-1.65h11.657V63.305z"
	/>
<path fill="#231F20" d="M445.83,80.672l-4.856-12.438l-4.793,12.438H445.83z M458.826,93.87h-13.421v-1.65
	c1.181-0.077,2.16-0.226,2.939-0.455c0.777-0.229,1.167-0.508,1.167-0.841c0-0.137-0.018-0.304-0.048-0.501
	c-0.029-0.197-0.075-0.37-0.135-0.522l-2.676-7.232H435.4c-0.426,1.062-0.773,1.986-1.039,2.774
	c-0.265,0.789-0.505,1.517-0.717,2.183c-0.197,0.651-0.335,1.184-0.412,1.594c-0.075,0.408-0.111,0.741-0.111,1
	c0,0.605,0.475,1.075,1.427,1.408c0.952,0.335,2.026,0.533,3.222,0.593v1.65h-12.113v-1.65c0.394-0.03,0.887-0.116,1.476-0.261
	c0.589-0.144,1.073-0.335,1.452-0.578c0.604-0.406,1.071-0.835,1.406-1.279c0.333-0.446,0.659-1.061,0.977-1.848
	c1.616-4.032,3.402-8.564,5.354-13.597c1.951-5.029,3.69-9.51,5.218-13.437h1.815l10.732,27.735
	c0.226,0.589,0.482,1.063,0.771,1.428c0.286,0.363,0.686,0.716,1.201,1.064c0.348,0.213,0.801,0.391,1.361,0.534
	c0.559,0.143,1.029,0.221,1.406,0.237V93.87z"/>
<path fill="#231F20" d="M494.308,63.305c-0.423,0.016-1.072,0.136-1.947,0.362c-0.876,0.229-1.504,0.463-1.882,0.704
	c-0.545,0.378-0.91,1.104-1.099,2.179c-0.188,1.074-0.28,2.437-0.28,4.086v23.581h-1.95L467.65,67.834v16.589
	c0,1.858,0.117,3.288,0.351,4.283c0.233,0.998,0.595,1.708,1.076,2.13c0.349,0.335,1.065,0.644,2.153,0.931
	c1.084,0.288,1.803,0.437,2.151,0.453v1.65h-13.198v-1.65c0.409-0.03,1.102-0.177,2.075-0.441c0.974-0.263,1.586-0.503,1.829-0.713
	c0.532-0.422,0.896-1.067,1.093-1.938c0.199-0.868,0.299-2.351,0.299-4.449V68.852c0-0.695-0.122-1.387-0.362-2.082
	c-0.245-0.695-0.57-1.231-0.977-1.608c-0.546-0.497-1.287-0.924-2.219-1.278c-0.93-0.356-1.686-0.549-2.26-0.578v-1.65h9.175
	l18.091,24.472V70.889c0-1.866-0.122-3.298-0.361-4.301c-0.24-1.001-0.589-1.667-1.039-1.999c-0.424-0.284-1.111-0.563-2.068-0.832
	c-0.955-0.272-1.679-0.423-2.176-0.452v-1.65h13.024V63.305z"/>
</svg>
