<?xml version="1.0" encoding="utf-8"?>
<!-- Generator: Adobe Illustrator 15.1.0, SVG Export Plug-In . SVG Version: 6.00 Build 0)  -->
<!DOCTYPE svg PUBLIC "-//W3C//DTD SVG 1.1//EN" "http://www.w3.org/Graphics/SVG/1.1/DTD/svg11.dtd">
<svg version="1.1" id="Layer_1" xmlns="http://www.w3.org/2000/svg" xmlns:xlink="http://www.w3.org/1999/xlink" x="0px" y="0px"
	 width="478.581px" height="190.601px" viewBox="0 0 478.581 190.601" enable-background="new 0 0 478.581 190.601"
	 xml:space="preserve">
<g>
	<path fill="#003E7E" d="M89.694,179.34c77.862-53.689,72.176-122.57,72.176-160.088C115.944,29.224,89.253,4.039,89.253,4.039
		s-30.307,23.909-77.18,13.734c0,38.284-1.125,107.877,76.747,161.566H89.694z"/>
	<path fill="#003E7E" d="M89.29,164.802c66.203-47.831,62.125-103.561,62.7-134.275c-44.037,6.011-62.7-12.991-62.7-12.991
		S67.167,35.413,22.224,29.277C22.821,60.619,23.083,116.971,89.29,164.802"/>
	<g>
		<path fill="#FFFFFF" d="M89.29,164.802l0.555,0.769c33.253-24.018,48.934-50.116,56.311-74.045
			c7.38-23.925,6.491-45.669,6.781-60.98l0.021-1.107l-1.097,0.149c-5.973,0.814-11.47,1.167-16.511,1.167
			c-15.934-0.002-27.302-3.507-34.681-6.993c-3.689-1.742-6.381-3.481-8.142-4.776c-0.882-0.646-1.53-1.184-1.954-1.555
			l-0.469-0.424l-0.14-0.136l-0.603-0.613l-0.67,0.54l-0.165,0.128c-1.772,1.34-17.64,12.685-48.023,12.687
			c-5.562,0-11.612-0.382-18.154-1.274l-1.097-0.149l0.021,1.107c0.566,31.33,0.915,88.246,67.458,136.275l0.555,0.399l0.555-0.399
			L89.29,164.802l0.555-0.769C23.974,116.397,23.798,60.612,23.171,29.259l-0.947,0.019l-0.128,0.939
			c6.624,0.905,12.761,1.291,18.41,1.291c32.926,0.001,49.265-13.138,49.38-13.235l-0.596-0.737L88.614,18.2
			c0.116,0.128,14.3,14.456,46.737,14.45c5.129,0,10.712-0.357,16.767-1.184l-0.128-0.94l-0.949-0.018
			c-0.284,15.403,0.578,36.88-6.697,60.458c-7.28,23.573-22.66,49.254-55.609,73.067L89.29,164.802l0.555-0.769L89.29,164.802z"/>
	</g>
	<path fill="#FFD200" d="M77.414,127.048c0,0,3.452-0.342,6.483,1.654c2.612,1.724,4.052,5.248,4.052,5.248
		s-4.311,0.412-7.077-1.413C77.836,130.539,77.414,127.048,77.414,127.048"/>
	<path fill="#FFD200" d="M99.911,127.109c0,0-3.449-0.342-6.483,1.654c-2.608,1.727-4.046,5.242-4.046,5.242
		s4.305,0.418,7.071-1.403C99.491,130.6,99.911,127.109,99.911,127.109"/>
	<path fill="#FFD200" d="M89.267,114.051c0,0,3.046,4.576,3.046,9.022c0,3.829-3.428,8.497-3.428,8.497s-3.158-4.369-3.158-8.549
		C85.728,118.573,89.267,114.051,89.267,114.051"/>
	<path fill="#003E7E" d="M191.006,80.722c0-2.921-0.069-3.059-1.878-3.059h-3.893c-6.398,0-8.276,0.766-10.848,6.396
		c-0.486,0.418-1.949,0.209-2.227-0.485c1.181-3.755,2.227-8.066,2.712-10.5c0.14-0.209,0.418-0.279,0.766-0.279
		c0.278,0,0.556,0.07,0.693,0.279c0.351,1.736,1.326,1.805,6.052,1.805h28.375c3.405,0,4.45-0.209,5.283-1.805
		c0.279-0.14,0.557-0.279,0.834-0.279c0.417,0,0.766,0.139,0.903,0.348c-0.694,2.853-1.25,8.831-1.041,11.057
		c-0.349,0.555-1.53,0.695-2.155,0.209c-0.906-5.423-2.227-6.746-9.667-6.746h-3.965c-1.808,0-1.876,0.137-1.876,3.059v30.043
		c0,7.368,0.624,7.576,3.892,7.923l2.506,0.281c0.483,0.488,0.418,1.736-0.14,2.02c-4.034-0.141-7.161-0.211-10.223-0.211
		c-3.059,0-6.326,0.07-10.776,0.211c-0.558-0.284-0.627-1.672-0.14-2.02l2.921-0.348c3.268-0.281,3.893-0.488,3.893-7.856V80.722z"
		/>
	<path fill="#003E7E" d="M267.709,97.966c0,13.699-10.435,23.926-24.479,23.926c-15.717,0-24.759-11.057-24.759-23.438
		c0-14.184,10.294-24.684,24.896-24.684C259.435,73.77,267.709,85.311,267.709,97.966 M227.931,96.44
		c0,9.593,4.102,22.669,15.992,22.669c7.933,0,14.327-5.913,14.327-19.886c0-10.504-4.729-22.673-15.789-22.673
		C235.508,76.55,227.931,81.626,227.931,96.44"/>
	<path fill="#003E7E" d="M286.759,109.304c0,3.478,0.141,5.98,1.184,7.164c0.833,0.97,1.946,1.525,7.511,1.525
		c7.719,0,8.83-0.345,12.028-7.509c0.695-0.348,1.812-0.137,2.16,0.418c-0.562,2.923-2.088,8.204-2.923,10.081
		c-2.923-0.134-8.903-0.208-16.689-0.208h-7.234c-3.545,0-7.023,0.073-9.943,0.208c-0.556-0.274-0.766-1.666-0.141-2.014
		l2.087-0.348c3.265-0.418,3.893-0.628,3.893-7.856V84.893c0-7.232-0.628-7.438-3.893-7.925l-1.946-0.279
		c-0.485-0.347-0.485-1.736,0.14-2.014c3.478,0.137,6.603,0.206,9.803,0.206c3.06,0,6.19-0.069,9.248-0.211
		c0.628,0.282,0.695,1.672,0.14,2.019l-1.532,0.279c-3.264,0.486-3.893,0.692-3.893,7.925V109.304z"/>
	<path fill="#003E7E" d="M321.602,84.894c0-7.37-0.628-7.579-3.893-8.067l-1.117-0.137c-0.484-0.487-0.414-1.741,0.141-2.018
		c2.643,0.14,5.913,0.209,8.971,0.209h13.283c4.449,0,8.482-0.069,9.385-0.209c0.281,1.181,0.696,6.677,1.111,9.667
		c-0.275,0.555-1.666,0.695-2.221,0.277c-1.114-4.033-2.158-5.771-4.382-6.326c-1.599-0.488-3.686-0.628-5.565-0.628h-4.658
		c-2.99,0-2.99,0.14-2.99,4.105v11.751c0,1.807,0.073,1.88,1.669,1.88h3.337c6.051,0,7.232-0.073,7.72-3.061l0.488-2.366
		c0.556-0.486,1.876-0.486,2.224,0.069c-0.07,1.878-0.21,4.381-0.21,6.957c0,2.642,0.14,5.077,0.21,7.304
		c-0.348,0.482-1.668,0.482-2.224,0.064l-0.488-2.78c-0.487-2.917-1.669-3.057-7.72-3.057h-3.337c-1.596,0-1.669,0.141-1.669,1.874
		v8.835c0,3.545,0.137,6.047,1.181,7.228c0.836,0.973,2.02,1.532,7.859,1.532c8.829,0.14,10.361-1.876,12.796-7.512
		c0.625-0.485,1.809-0.277,2.227,0.418c-0.418,2.923-1.949,8.207-2.922,10.084c-3.057-0.138-9.043-0.211-17.178-0.211h-7.926
		c-3.058,0-7.305,0.073-10.429,0.211c-0.556-0.278-0.628-1.529-0.141-2.017l2.575-0.281c3.265-0.348,3.893-0.552,3.893-7.926V84.894
		z"/>
	<path fill="#003E7E" d="M365.896,85.311c0-6.676-0.072-7.51-3.341-7.927l-1.458-0.14c-0.485-0.346-0.485-1.599,0.07-1.947
		c5.004-0.418,10.568-0.624,17.385-0.624c6.605,0,11.334,0.556,16.41,2.365c8.346,3.059,14.252,10.428,14.252,20.794
		c0,7.713-3.82,15.646-12.445,20.023c-4.936,2.505-10.916,3.338-17.24,3.338c-4.244,0-7.512-0.418-10.088-0.418
		c-2.642,0-5.77,0.07-8.829,0.211c-0.558-0.281-0.628-1.529-0.14-2.017l1.531-0.21c3.264-0.415,3.893-0.625,3.893-7.997V85.311z
		 M373.963,108.053c0,6.743,0.488,10.361,7.857,10.361c12.377,0,17.943-8.763,17.943-20.518c0-13.766-8-20.442-19.613-20.442
		c-2.92,0-5.143,0.555-5.631,0.973c-0.488,0.417-0.557,1.878-0.557,5.147V108.053z"/>
	<path fill="#003E7E" d="M464.084,97.966c0,13.699-10.432,23.926-24.479,23.926c-15.715,0-24.756-11.057-24.756-23.438
		c0-14.184,10.291-24.684,24.896-24.684C455.811,73.77,464.084,85.311,464.084,97.966 M424.305,96.44
		c0,9.593,4.104,22.669,16,22.669c7.926,0,14.322-5.913,14.322-19.886c0-10.504-4.73-22.673-15.787-22.673
		C431.887,76.55,424.305,81.626,424.305,96.44"/>
	<path fill="#003E7E" d="M183.914,58.463c0,2.314,0.044,2.624,1.326,2.755l0.704,0.069c0.134,0.088,0.087,0.485-0.042,0.55
		c-1.258-0.044-2.009-0.065-2.889-0.065c-0.885,0-1.654,0.021-3.066,0.065c-0.131-0.065-0.174-0.441,0-0.55l0.795-0.069
		c1.255-0.11,1.368-0.441,1.368-2.755v-9.854c0-0.681,0-0.705-0.664-0.705h-1.211c-0.951,0-2.162,0.046-2.712,0.553
		c-0.528,0.483-0.749,0.968-0.993,1.521c-0.175,0.131-0.485,0.023-0.572-0.155c0.354-0.99,0.685-2.403,0.837-3.283
		c0.066-0.044,0.353-0.065,0.418,0c0.134,0.705,0.86,0.684,1.875,0.684h8.926c1.191,0,1.392-0.044,1.723-0.618
		c0.108-0.044,0.352-0.022,0.396,0.066c-0.244,0.906-0.396,2.689-0.331,3.352c-0.088,0.175-0.462,0.175-0.572,0.044
		c-0.068-0.551-0.221-1.366-0.552-1.609c-0.506-0.375-1.344-0.553-2.557-0.553h-1.565c-0.662,0-0.641,0.024-0.641,0.749V58.463z"/>
	<path fill="none" stroke="#003E7E" stroke-width="0.143" stroke-miterlimit="3.864" d="M183.914,58.463
		c0,2.314,0.044,2.624,1.326,2.755l0.704,0.069c0.134,0.088,0.087,0.485-0.042,0.55c-1.258-0.044-2.009-0.065-2.889-0.065
		c-0.885,0-1.654,0.021-3.066,0.065c-0.131-0.065-0.174-0.441,0-0.55l0.795-0.069c1.255-0.11,1.368-0.441,1.368-2.755v-9.854
		c0-0.681,0-0.705-0.664-0.705h-1.211c-0.951,0-2.162,0.046-2.712,0.553c-0.528,0.483-0.749,0.968-0.993,1.521
		c-0.175,0.131-0.485,0.023-0.572-0.155c0.354-0.99,0.685-2.403,0.837-3.283c0.066-0.044,0.353-0.065,0.418,0
		c0.134,0.705,0.86,0.684,1.875,0.684h8.926c1.191,0,1.392-0.044,1.723-0.618c0.108-0.044,0.352-0.022,0.396,0.066
		c-0.244,0.906-0.396,2.689-0.331,3.352c-0.088,0.175-0.462,0.175-0.572,0.044c-0.068-0.551-0.221-1.366-0.552-1.609
		c-0.506-0.375-1.344-0.553-2.557-0.553h-1.565c-0.662,0-0.641,0.024-0.641,0.749V58.463z"/>
	<path fill="#003E7E" d="M200.49,54.649c-1.056,0-1.098,0.044-1.098,0.706v3.109c0,2.314,0.108,2.621,1.342,2.755l0.638,0.065
		c0.134,0.087,0.09,0.484-0.041,0.554c-1.19-0.047-1.939-0.07-2.802-0.07c-0.946,0-1.696,0.044-2.556,0.07
		c-0.131-0.07-0.178-0.422-0.044-0.554l0.375-0.065c1.234-0.221,1.279-0.441,1.279-2.755v-7.936c0-2.315-0.157-2.691-1.3-2.778
		l-0.575-0.047c-0.131-0.087-0.087-0.48,0.044-0.549c1.08,0.021,1.831,0.069,2.776,0.069c0.863,0,1.612-0.021,2.56-0.069
		c0.131,0.069,0.174,0.462,0.043,0.549l-0.418,0.047c-1.279,0.131-1.321,0.462-1.321,2.778v2.534c0,0.684,0.042,0.707,1.098,0.707
		h6.305c1.06,0,1.103-0.023,1.103-0.707v-2.534c0-2.315-0.043-2.646-1.343-2.778l-0.419-0.047c-0.134-0.087-0.09-0.48,0.044-0.549
		c1.014,0.047,1.762,0.069,2.668,0.069c0.859,0,1.606-0.021,2.6-0.069c0.134,0.069,0.174,0.462,0.042,0.549l-0.462,0.047
		c-1.277,0.131-1.321,0.462-1.321,2.778v7.936c0,2.314,0.044,2.599,1.321,2.755l0.528,0.065c0.136,0.087,0.088,0.484-0.043,0.554
		c-1.059-0.047-1.806-0.07-2.665-0.07c-0.906,0-1.699,0.023-2.668,0.07c-0.134-0.07-0.179-0.422-0.044-0.554l0.419-0.065
		c1.343-0.179,1.3-0.441,1.343-2.755v-3.109c0-0.662-0.043-0.706-1.103-0.706H200.49z"/>
	<path fill="none" stroke="#003E7E" stroke-width="0.143" stroke-miterlimit="3.864" d="M200.49,54.649
		c-1.056,0-1.098,0.044-1.098,0.706v3.109c0,2.314,0.108,2.621,1.342,2.755l0.638,0.065c0.134,0.087,0.09,0.484-0.041,0.554
		c-1.19-0.047-1.939-0.07-2.802-0.07c-0.946,0-1.696,0.044-2.556,0.07c-0.131-0.07-0.178-0.422-0.044-0.554l0.375-0.065
		c1.234-0.221,1.279-0.441,1.279-2.755v-7.936c0-2.315-0.157-2.691-1.3-2.778l-0.575-0.047c-0.131-0.087-0.087-0.48,0.044-0.549
		c1.08,0.021,1.831,0.069,2.776,0.069c0.863,0,1.612-0.021,2.56-0.069c0.131,0.069,0.174,0.462,0.043,0.549l-0.418,0.047
		c-1.279,0.131-1.321,0.462-1.321,2.778v2.534c0,0.684,0.042,0.707,1.098,0.707h6.305c1.06,0,1.103-0.023,1.103-0.707v-2.534
		c0-2.315-0.043-2.646-1.343-2.778l-0.419-0.047c-0.134-0.087-0.09-0.48,0.044-0.549c1.014,0.047,1.762,0.069,2.668,0.069
		c0.859,0,1.606-0.021,2.6-0.069c0.134,0.069,0.174,0.462,0.042,0.549l-0.462,0.047c-1.277,0.131-1.321,0.462-1.321,2.778v7.936
		c0,2.314,0.044,2.599,1.321,2.755l0.528,0.065c0.136,0.087,0.088,0.484-0.043,0.554c-1.059-0.047-1.806-0.07-2.665-0.07
		c-0.906,0-1.699,0.023-2.668,0.07c-0.134-0.07-0.179-0.422-0.044-0.554l0.419-0.065c1.343-0.179,1.3-0.441,1.343-2.755v-3.109
		c0-0.662-0.043-0.706-1.103-0.706H200.49z"/>
	<path fill="#003E7E" d="M219.759,50.527c0-2.294-0.044-2.625-1.344-2.778l-0.352-0.044c-0.131-0.087-0.089-0.483,0.042-0.549
		c0.95,0.044,1.698,0.065,2.603,0.065h4.143c1.413,0,2.712,0,2.975-0.065c0.134,0.375,0.265,1.961,0.352,2.93
		c-0.087,0.131-0.441,0.179-0.549,0.044c-0.331-1.038-0.528-1.81-1.675-2.095c-0.465-0.108-1.168-0.134-2.14-0.134h-1.586
		c-0.659,0-0.659,0.047-0.659,0.885v4.409c0,0.618,0.062,0.618,0.725,0.618h1.28c0.926,0,1.609-0.047,1.872-0.134
		c0.265-0.087,0.419-0.218,0.531-0.772l0.175-0.903c0.113-0.131,0.485-0.131,0.575,0.023c0,0.528-0.09,1.387-0.09,2.228
		c0,0.793,0.09,1.63,0.09,2.114c-0.09,0.154-0.462,0.154-0.575,0.023l-0.197-0.859c-0.09-0.398-0.244-0.729-0.683-0.837
		c-0.31-0.092-0.838-0.11-1.698-0.11h-1.28c-0.662,0-0.725,0.019-0.725,0.594v3.109c0,1.168,0.062,1.917,0.418,2.293
		c0.262,0.262,0.728,0.506,2.668,0.506c1.693,0,2.334-0.087,2.821-0.331c0.394-0.22,0.992-0.99,1.565-2.137
		c0.154-0.11,0.463-0.044,0.55,0.153c-0.152,0.771-0.703,2.468-0.99,3.064c-1.985-0.042-3.947-0.065-5.908-0.065h-1.985
		c-0.949,0-1.7,0.023-2.999,0.065c-0.134-0.065-0.174-0.418-0.046-0.549l0.731-0.069c1.255-0.11,1.365-0.441,1.365-2.755V50.527z"/>
	<path fill="none" stroke="#003E7E" stroke-width="0.143" stroke-miterlimit="3.864" d="M219.759,50.527
		c0-2.294-0.044-2.625-1.344-2.778l-0.352-0.044c-0.131-0.087-0.089-0.483,0.042-0.549c0.95,0.044,1.698,0.065,2.603,0.065h4.143
		c1.413,0,2.712,0,2.975-0.065c0.134,0.375,0.265,1.961,0.352,2.93c-0.087,0.131-0.441,0.179-0.549,0.044
		c-0.331-1.038-0.528-1.81-1.675-2.095c-0.465-0.108-1.168-0.134-2.14-0.134h-1.586c-0.659,0-0.659,0.047-0.659,0.885v4.409
		c0,0.618,0.062,0.618,0.725,0.618h1.28c0.926,0,1.609-0.047,1.872-0.134c0.265-0.087,0.419-0.218,0.531-0.772l0.175-0.903
		c0.113-0.131,0.485-0.131,0.575,0.023c0,0.528-0.09,1.387-0.09,2.228c0,0.793,0.09,1.63,0.09,2.114
		c-0.09,0.154-0.462,0.154-0.575,0.023l-0.197-0.859c-0.09-0.398-0.244-0.729-0.683-0.837c-0.31-0.092-0.838-0.11-1.698-0.11h-1.28
		c-0.662,0-0.725,0.019-0.725,0.594v3.109c0,1.168,0.062,1.917,0.418,2.293c0.262,0.262,0.728,0.506,2.668,0.506
		c1.693,0,2.334-0.087,2.821-0.331c0.394-0.22,0.992-0.99,1.565-2.137c0.154-0.11,0.463-0.044,0.55,0.153
		c-0.152,0.771-0.703,2.468-0.99,3.064c-1.985-0.042-3.947-0.065-5.908-0.065h-1.985c-0.949,0-1.7,0.023-2.999,0.065
		c-0.134-0.065-0.174-0.418-0.046-0.549l0.731-0.069c1.255-0.11,1.365-0.441,1.365-2.755V50.527z"/>
	<path fill="#003E7E" d="M257.479,52.755c0-1.369-0.046-3.902-0.418-4.564c-0.159-0.263-0.556-0.418-1.104-0.462l-0.552-0.044
		c-0.131-0.152-0.088-0.44,0.045-0.527c0.836,0.044,1.654,0.065,2.514,0.065c0.921,0,1.52-0.021,2.313-0.065
		c0.177,0.109,0.152,0.394,0.042,0.527l-0.531,0.044c-0.549,0.044-0.989,0.244-1.102,0.528c-0.333,0.728-0.305,3.265-0.305,4.499
		v2.489c0,1.919-0.308,3.947-1.543,5.268c-0.949,1.038-2.582,1.612-4.208,1.612c-1.526,0-3.045-0.287-4.125-1.216
		c-1.168-0.967-1.721-2.576-1.721-5.202v-5.201c0-2.294-0.043-2.668-1.324-2.778l-0.549-0.044c-0.134-0.087-0.085-0.462,0.043-0.527
		c1.104,0.044,1.855,0.065,2.733,0.065c0.903,0,1.632-0.021,2.709-0.065c0.134,0.065,0.18,0.44,0.049,0.527l-0.531,0.044
		c-1.278,0.11-1.324,0.484-1.324,2.778v4.761c0,3.548,1.104,5.885,4.476,5.885c3.194,0,4.412-2.511,4.412-5.864V52.755z"/>
	<path fill="none" stroke="#003E7E" stroke-width="0.143" stroke-miterlimit="3.864" d="M257.479,52.755
		c0-1.369-0.046-3.902-0.418-4.564c-0.159-0.263-0.556-0.418-1.104-0.462l-0.552-0.044c-0.131-0.152-0.088-0.44,0.045-0.527
		c0.836,0.044,1.654,0.065,2.514,0.065c0.921,0,1.52-0.021,2.313-0.065c0.177,0.109,0.152,0.394,0.042,0.527l-0.531,0.044
		c-0.549,0.044-0.989,0.244-1.102,0.528c-0.333,0.728-0.305,3.265-0.305,4.499v2.489c0,1.919-0.308,3.947-1.543,5.268
		c-0.949,1.038-2.582,1.612-4.208,1.612c-1.526,0-3.045-0.287-4.125-1.216c-1.168-0.967-1.721-2.576-1.721-5.202v-5.201
		c0-2.294-0.043-2.668-1.324-2.778l-0.549-0.044c-0.134-0.087-0.085-0.462,0.043-0.527c1.104,0.044,1.855,0.065,2.733,0.065
		c0.903,0,1.632-0.021,2.709-0.065c0.134,0.065,0.18,0.44,0.049,0.527l-0.531,0.044c-1.278,0.11-1.324,0.484-1.324,2.778v4.761
		c0,3.548,1.104,5.885,4.476,5.885c3.194,0,4.412-2.511,4.412-5.864V52.755z"/>
	<path fill="#003E7E" d="M279.675,58.022c0,0.663,0,3.287,0.067,3.859c-0.046,0.131-0.177,0.244-0.418,0.244
		c-0.266-0.378-0.906-1.15-2.822-3.332l-5.117-5.819c-0.595-0.686-2.093-2.49-2.56-2.975h-0.037
		c-0.092,0.262-0.116,0.772-0.116,1.431v4.805c0,1.038,0.043,3.902,0.403,4.564c0.152,0.244,0.571,0.375,1.12,0.419l0.687,0.065
		c0.128,0.177,0.107,0.439-0.045,0.552c-0.992-0.044-1.761-0.068-2.582-0.068c-0.924,0-1.516,0.024-2.291,0.068
		c-0.153-0.113-0.177-0.421-0.046-0.552l0.598-0.065c0.503-0.044,0.857-0.197,0.967-0.441c0.312-0.793,0.287-3.484,0.287-4.543
		v-6.371c0-0.615-0.019-1.08-0.482-1.586c-0.311-0.307-0.836-0.462-1.37-0.528l-0.369-0.044c-0.134-0.135-0.134-0.462,0.037-0.549
		c0.931,0.065,2.096,0.065,2.496,0.065c0.348,0,0.726-0.023,1.013-0.065c0.439,1.121,3.063,4.033,3.771,4.848l2.136,2.402
		c1.501,1.718,2.603,2.931,3.637,3.989h0.049c0.085-0.108,0.085-0.462,0.085-0.924v-4.717c0-1.038-0.021-3.902-0.439-4.566
		c-0.134-0.197-0.485-0.331-1.37-0.439l-0.375-0.044c-0.152-0.135-0.134-0.484,0.042-0.549c1.019,0.042,1.767,0.065,2.606,0.065
		c0.949,0,1.519-0.023,2.267-0.065c0.18,0.108,0.18,0.415,0.046,0.549l-0.308,0.044c-0.705,0.108-1.147,0.287-1.236,0.462
		c-0.372,0.793-0.33,3.527-0.33,4.543V58.022z"/>
	<path fill="none" stroke="#003E7E" stroke-width="0.143" stroke-miterlimit="3.864" d="M279.675,58.022
		c0,0.663,0,3.287,0.067,3.859c-0.046,0.131-0.177,0.244-0.418,0.244c-0.266-0.378-0.906-1.15-2.822-3.332l-5.117-5.819
		c-0.595-0.686-2.093-2.49-2.56-2.975h-0.037c-0.092,0.262-0.116,0.772-0.116,1.431v4.805c0,1.038,0.043,3.902,0.403,4.564
		c0.152,0.244,0.571,0.375,1.12,0.419l0.687,0.065c0.128,0.177,0.107,0.439-0.045,0.552c-0.992-0.044-1.761-0.068-2.582-0.068
		c-0.924,0-1.516,0.024-2.291,0.068c-0.153-0.113-0.177-0.421-0.046-0.552l0.598-0.065c0.503-0.044,0.857-0.197,0.967-0.441
		c0.312-0.793,0.287-3.484,0.287-4.543v-6.371c0-0.615-0.019-1.08-0.482-1.586c-0.311-0.307-0.836-0.462-1.37-0.528l-0.369-0.044
		c-0.134-0.135-0.134-0.462,0.037-0.549c0.931,0.065,2.096,0.065,2.496,0.065c0.348,0,0.726-0.023,1.013-0.065
		c0.439,1.121,3.063,4.033,3.771,4.848l2.136,2.402c1.501,1.718,2.603,2.931,3.637,3.989h0.049c0.085-0.108,0.085-0.462,0.085-0.924
		v-4.717c0-1.038-0.021-3.902-0.439-4.566c-0.134-0.197-0.485-0.331-1.37-0.439l-0.375-0.044c-0.152-0.135-0.134-0.484,0.042-0.549
		c1.019,0.042,1.767,0.065,2.606,0.065c0.949,0,1.519-0.023,2.267-0.065c0.18,0.108,0.18,0.415,0.046,0.549l-0.308,0.044
		c-0.705,0.108-1.147,0.287-1.236,0.462c-0.372,0.793-0.33,3.527-0.33,4.543V58.022z"/>
	<path fill="#003E7E" d="M289.484,50.572c0-2.337-0.046-2.712-1.345-2.822l-0.552-0.042c-0.128-0.089-0.083-0.485,0.045-0.551
		c1.102,0.044,1.852,0.065,2.78,0.065c0.875,0,1.632-0.021,2.73-0.065c0.134,0.065,0.177,0.462,0.043,0.551l-0.549,0.042
		c-1.3,0.11-1.349,0.485-1.349,2.822v7.847c0,2.337,0.049,2.646,1.349,2.799l0.549,0.065c0.134,0.088,0.091,0.485-0.043,0.554
		c-1.098-0.044-1.855-0.068-2.73-0.068c-0.928,0-1.678,0.024-2.78,0.068c-0.128-0.068-0.174-0.422-0.045-0.554l0.552-0.065
		c1.299-0.153,1.345-0.462,1.345-2.799V50.572z"/>
	<path fill="none" stroke="#003E7E" stroke-width="0.143" stroke-miterlimit="3.864" d="M289.484,50.572
		c0-2.337-0.046-2.712-1.345-2.822l-0.552-0.042c-0.128-0.089-0.083-0.485,0.045-0.551c1.102,0.044,1.852,0.065,2.78,0.065
		c0.875,0,1.632-0.021,2.73-0.065c0.134,0.065,0.177,0.462,0.043,0.551l-0.549,0.042c-1.3,0.11-1.349,0.485-1.349,2.822v7.847
		c0,2.337,0.049,2.646,1.349,2.799l0.549,0.065c0.134,0.088,0.091,0.485-0.043,0.554c-1.098-0.044-1.855-0.068-2.73-0.068
		c-0.928,0-1.678,0.024-2.78,0.068c-0.128-0.068-0.174-0.422-0.045-0.554l0.552-0.065c1.299-0.153,1.345-0.462,1.345-2.799V50.572z"
		/>
	<path fill="#003E7E" d="M300.727,49.559c-0.506-1.234-0.839-1.699-1.785-1.806l-0.399-0.047c-0.152-0.131-0.134-0.441,0.042-0.549
		c0.641,0.042,1.349,0.065,2.294,0.065c0.97,0,1.742-0.023,2.667-0.065c0.158,0.087,0.201,0.418,0.042,0.549l-0.33,0.047
		c-0.836,0.107-1.013,0.241-1.034,0.415c0.046,0.223,0.418,1.413,1.102,3.087c1.013,2.559,2.029,5.092,3.13,7.604
		c0.684-1.453,1.633-3.724,2.118-4.893c0.662-1.5,1.672-3.989,2.051-4.939c0.176-0.462,0.197-0.702,0.197-0.859
		c0-0.153-0.223-0.331-0.991-0.415l-0.396-0.047c-0.155-0.131-0.11-0.462,0.046-0.549c0.613,0.042,1.452,0.065,2.291,0.065
		c0.727,0,1.406-0.023,2.139-0.065c0.152,0.087,0.152,0.439,0.043,0.549l-0.662,0.047c-0.527,0.042-0.86,0.307-1.146,0.769
		c-0.617,1.037-1.475,2.824-2.466,5.071l-1.192,2.71c-0.883,2.027-1.919,4.587-2.292,5.756c-0.067,0.043-0.152,0.065-0.244,0.065
		c-0.11,0-0.22-0.022-0.33-0.065c-0.244-0.929-0.616-2.006-1.013-2.934L300.727,49.559z"/>
	<path fill="none" stroke="#003E7E" stroke-width="0.143" stroke-miterlimit="3.864" d="M300.727,49.559
		c-0.506-1.234-0.839-1.699-1.785-1.806l-0.399-0.047c-0.152-0.131-0.134-0.441,0.042-0.549c0.641,0.042,1.349,0.065,2.294,0.065
		c0.97,0,1.742-0.023,2.667-0.065c0.158,0.087,0.201,0.418,0.042,0.549l-0.33,0.047c-0.836,0.107-1.013,0.241-1.034,0.415
		c0.046,0.223,0.418,1.413,1.102,3.087c1.013,2.559,2.029,5.092,3.13,7.604c0.684-1.453,1.633-3.724,2.118-4.893
		c0.662-1.5,1.672-3.989,2.051-4.939c0.176-0.462,0.197-0.702,0.197-0.859c0-0.153-0.223-0.331-0.991-0.415l-0.396-0.047
		c-0.155-0.131-0.11-0.462,0.046-0.549c0.613,0.042,1.452,0.065,2.291,0.065c0.727,0,1.406-0.023,2.139-0.065
		c0.152,0.087,0.152,0.439,0.043,0.549l-0.662,0.047c-0.527,0.042-0.86,0.307-1.146,0.769c-0.617,1.037-1.475,2.824-2.466,5.071
		l-1.192,2.71c-0.883,2.027-1.919,4.587-2.292,5.756c-0.067,0.043-0.152,0.065-0.244,0.065c-0.11,0-0.22-0.022-0.33-0.065
		c-0.244-0.929-0.616-2.006-1.013-2.934L300.727,49.559z"/>
	<path fill="#003E7E" d="M320.653,50.527c0-2.294-0.043-2.625-1.343-2.778l-0.354-0.044c-0.135-0.087-0.089-0.483,0.045-0.549
		c0.946,0.044,1.697,0.065,2.6,0.065h4.145c1.412,0,2.711,0,2.975-0.065c0.133,0.375,0.265,1.961,0.356,2.93
		c-0.092,0.131-0.439,0.179-0.556,0.044c-0.329-1.038-0.524-1.81-1.672-2.095c-0.467-0.108-1.168-0.134-2.142-0.134h-1.587
		c-0.658,0-0.658,0.047-0.658,0.885v4.409c0,0.618,0.061,0.618,0.726,0.618h1.282c0.92,0,1.607-0.047,1.869-0.134
		c0.266-0.087,0.418-0.218,0.531-0.772l0.174-0.903c0.113-0.131,0.485-0.131,0.574,0.023c0,0.528-0.089,1.387-0.089,2.228
		c0,0.793,0.089,1.63,0.089,2.114c-0.089,0.154-0.461,0.154-0.574,0.023l-0.195-0.859c-0.092-0.398-0.244-0.729-0.684-0.837
		c-0.311-0.092-0.839-0.11-1.695-0.11h-1.282c-0.665,0-0.726,0.019-0.726,0.594v3.109c0,1.168,0.061,1.917,0.42,2.293
		c0.264,0.262,0.724,0.506,2.668,0.506c1.695,0,2.33-0.087,2.818-0.331c0.396-0.22,0.992-0.99,1.568-2.137
		c0.152-0.11,0.461-0.044,0.549,0.153c-0.158,0.771-0.701,2.468-0.991,3.064c-1.983-0.042-3.944-0.065-5.909-0.065h-1.984
		c-0.948,0-1.695,0.023-2.996,0.065c-0.134-0.065-0.18-0.418-0.045-0.549l0.729-0.069c1.258-0.11,1.364-0.441,1.364-2.755V50.527z"
		/>
	<path fill="none" stroke="#003E7E" stroke-width="0.143" stroke-miterlimit="3.864" d="M320.653,50.527
		c0-2.294-0.043-2.625-1.343-2.778l-0.354-0.044c-0.135-0.087-0.089-0.483,0.045-0.549c0.946,0.044,1.697,0.065,2.6,0.065h4.145
		c1.412,0,2.711,0,2.975-0.065c0.133,0.375,0.265,1.961,0.356,2.93c-0.092,0.131-0.439,0.179-0.556,0.044
		c-0.329-1.038-0.524-1.81-1.672-2.095c-0.467-0.108-1.168-0.134-2.142-0.134h-1.587c-0.658,0-0.658,0.047-0.658,0.885v4.409
		c0,0.618,0.061,0.618,0.726,0.618h1.282c0.92,0,1.607-0.047,1.869-0.134c0.266-0.087,0.418-0.218,0.531-0.772l0.174-0.903
		c0.113-0.131,0.485-0.131,0.574,0.023c0,0.528-0.089,1.387-0.089,2.228c0,0.793,0.089,1.63,0.089,2.114
		c-0.089,0.154-0.461,0.154-0.574,0.023l-0.195-0.859c-0.092-0.398-0.244-0.729-0.684-0.837c-0.311-0.092-0.839-0.11-1.695-0.11
		h-1.282c-0.665,0-0.726,0.019-0.726,0.594v3.109c0,1.168,0.061,1.917,0.42,2.293c0.264,0.262,0.724,0.506,2.668,0.506
		c1.695,0,2.33-0.087,2.818-0.331c0.396-0.22,0.992-0.99,1.568-2.137c0.152-0.11,0.461-0.044,0.549,0.153
		c-0.158,0.771-0.701,2.468-0.991,3.064c-1.983-0.042-3.944-0.065-5.909-0.065h-1.984c-0.948,0-1.695,0.023-2.996,0.065
		c-0.134-0.065-0.18-0.418-0.045-0.549l0.729-0.069c1.258-0.11,1.364-0.441,1.364-2.755V50.527z"/>
	<path fill="#003E7E" d="M337.938,50.549c0-2.093-0.064-2.468-0.967-2.577l-0.711-0.091c-0.153-0.108-0.153-0.462,0.023-0.549
		c1.232-0.11,2.756-0.175,4.918-0.175c1.364,0,2.668,0.109,3.68,0.659c1.059,0.554,1.831,1.544,1.831,3.088
		c0,2.093-1.653,3.239-2.759,3.682c-0.109,0.131,0,0.351,0.11,0.528c1.767,2.843,2.933,4.605,4.437,5.864
		c0.372,0.333,0.922,0.572,1.52,0.616c0.109,0.044,0.128,0.221,0.018,0.31c-0.195,0.065-0.549,0.108-0.967,0.108
		c-1.877,0-2.996-0.549-4.561-2.777c-0.574-0.816-1.478-2.334-2.164-3.327c-0.332-0.485-0.684-0.706-1.564-0.706
		c-0.988,0-1.037,0.021-1.037,0.483v2.778c0,2.314,0.049,2.58,1.323,2.755l0.464,0.069c0.131,0.109,0.086,0.485-0.043,0.55
		c-0.994-0.044-1.744-0.065-2.623-0.065c-0.928,0-1.721,0.021-2.759,0.065c-0.134-0.065-0.177-0.396-0.042-0.55l0.549-0.069
		c1.281-0.153,1.324-0.441,1.324-2.755V50.549z M339.744,53.702c0,0.396,0,0.641,0.066,0.728c0.066,0.065,0.4,0.108,1.52,0.108
		c0.793,0,1.635-0.087,2.273-0.571c0.594-0.462,1.102-1.234,1.102-2.733c0-1.741-1.08-3.396-3.527-3.396
		c-1.367,0-1.434,0.09-1.434,0.705V53.702z"/>
	<path fill="none" stroke="#003E7E" stroke-width="0.143" stroke-miterlimit="3.864" d="M337.938,50.549
		c0-2.093-0.064-2.468-0.967-2.577l-0.711-0.091c-0.153-0.108-0.153-0.462,0.023-0.549c1.232-0.11,2.756-0.175,4.918-0.175
		c1.364,0,2.668,0.109,3.68,0.659c1.059,0.554,1.831,1.544,1.831,3.088c0,2.093-1.653,3.239-2.759,3.682
		c-0.109,0.131,0,0.351,0.11,0.528c1.767,2.843,2.933,4.605,4.437,5.864c0.372,0.333,0.922,0.572,1.52,0.616
		c0.109,0.044,0.128,0.221,0.018,0.31c-0.195,0.065-0.549,0.108-0.967,0.108c-1.877,0-2.996-0.549-4.561-2.777
		c-0.574-0.816-1.478-2.334-2.164-3.327c-0.332-0.485-0.684-0.706-1.564-0.706c-0.988,0-1.037,0.021-1.037,0.483v2.778
		c0,2.314,0.049,2.58,1.323,2.755l0.464,0.069c0.131,0.109,0.086,0.485-0.043,0.55c-0.994-0.044-1.744-0.065-2.623-0.065
		c-0.928,0-1.721,0.021-2.759,0.065c-0.134-0.065-0.177-0.396-0.042-0.55l0.549-0.069c1.281-0.153,1.324-0.441,1.324-2.755V50.549z
		 M339.744,53.702c0,0.396,0,0.641,0.066,0.728c0.066,0.065,0.4,0.108,1.52,0.108c0.793,0,1.635-0.087,2.273-0.571
		c0.594-0.462,1.102-1.234,1.102-2.733c0-1.741-1.08-3.396-3.527-3.396c-1.367,0-1.434,0.09-1.434,0.705V53.702z"/>
	<path fill="#003E7E" d="M358.682,62.123c-1.853,0-3.023-0.574-3.439-0.815c-0.268-0.488-0.552-2.05-0.595-3.087
		c0.106-0.153,0.437-0.2,0.528-0.069c0.329,1.126,1.232,3.288,3.789,3.288c1.852,0,2.755-1.213,2.755-2.534
		c0-0.972-0.198-2.049-1.804-3.086l-2.096-1.368c-1.107-0.729-2.379-1.985-2.379-3.791c0-2.096,1.632-3.792,4.494-3.792
		c0.684,0,1.479,0.11,2.05,0.287c0.286,0.067,0.595,0.131,0.772,0.131c0.197,0.533,0.396,1.764,0.396,2.691
		c-0.089,0.131-0.439,0.2-0.55,0.065c-0.29-1.055-0.885-2.489-2.999-2.489c-2.16,0-2.624,1.434-2.624,2.445
		c0,1.278,1.06,2.185,1.874,2.712l1.764,1.103c1.391,0.859,2.758,2.137,2.758,4.233C363.377,60.468,361.546,62.123,358.682,62.123"
		/>
	<path fill="none" stroke="#003E7E" stroke-width="0.143" stroke-miterlimit="3.864" d="M358.682,62.123
		c-1.853,0-3.023-0.574-3.439-0.815c-0.268-0.488-0.552-2.05-0.595-3.087c0.106-0.153,0.437-0.2,0.528-0.069
		c0.329,1.126,1.232,3.288,3.789,3.288c1.852,0,2.755-1.213,2.755-2.534c0-0.972-0.198-2.049-1.804-3.086l-2.096-1.368
		c-1.107-0.729-2.379-1.985-2.379-3.791c0-2.096,1.632-3.792,4.494-3.792c0.684,0,1.479,0.11,2.05,0.287
		c0.286,0.067,0.595,0.131,0.772,0.131c0.197,0.533,0.396,1.764,0.396,2.691c-0.089,0.131-0.439,0.2-0.55,0.065
		c-0.29-1.055-0.885-2.489-2.999-2.489c-2.16,0-2.624,1.434-2.624,2.445c0,1.278,1.06,2.185,1.874,2.712l1.764,1.103
		c1.391,0.859,2.758,2.137,2.758,4.233C363.377,60.468,361.546,62.123,358.682,62.123z"/>
	<path fill="#003E7E" d="M371.752,50.572c0-2.337-0.043-2.712-1.343-2.822l-0.552-0.042c-0.135-0.089-0.089-0.485,0.043-0.551
		c1.104,0.044,1.852,0.065,2.781,0.065c0.876,0,1.63-0.021,2.734-0.065c0.128,0.065,0.17,0.462,0.043,0.551l-0.556,0.042
		c-1.3,0.11-1.346,0.485-1.346,2.822v7.847c0,2.337,0.046,2.646,1.346,2.799l0.556,0.065c0.127,0.088,0.085,0.485-0.043,0.554
		c-1.104-0.044-1.858-0.068-2.734-0.068c-0.93,0-1.678,0.024-2.781,0.068c-0.132-0.068-0.178-0.422-0.043-0.554l0.552-0.065
		c1.3-0.153,1.343-0.462,1.343-2.799V50.572z"/>
	<path fill="none" stroke="#003E7E" stroke-width="0.143" stroke-miterlimit="3.864" d="M371.752,50.572
		c0-2.337-0.043-2.712-1.343-2.822l-0.552-0.042c-0.135-0.089-0.089-0.485,0.043-0.551c1.104,0.044,1.852,0.065,2.781,0.065
		c0.876,0,1.63-0.021,2.734-0.065c0.128,0.065,0.17,0.462,0.043,0.551l-0.556,0.042c-1.3,0.11-1.346,0.485-1.346,2.822v7.847
		c0,2.337,0.046,2.646,1.346,2.799l0.556,0.065c0.127,0.088,0.085,0.485-0.043,0.554c-1.104-0.044-1.858-0.068-2.734-0.068
		c-0.93,0-1.678,0.024-2.781,0.068c-0.132-0.068-0.178-0.422-0.043-0.554l0.552-0.065c1.3-0.153,1.343-0.462,1.343-2.799V50.572z"/>
	<path fill="#003E7E" d="M388.901,58.463c0,2.314,0.042,2.624,1.324,2.755l0.708,0.069c0.131,0.088,0.086,0.485-0.043,0.55
		c-1.26-0.044-2.008-0.065-2.893-0.065c-0.879,0-1.653,0.021-3.061,0.065c-0.134-0.065-0.18-0.441,0-0.55l0.794-0.069
		c1.254-0.11,1.364-0.441,1.364-2.755v-9.854c0-0.681,0-0.705-0.66-0.705h-1.214c-0.946,0-2.159,0.046-2.709,0.553
		c-0.53,0.483-0.751,0.968-0.995,1.521c-0.174,0.131-0.484,0.023-0.573-0.155c0.356-0.99,0.683-2.403,0.836-3.283
		c0.067-0.044,0.354-0.065,0.425,0c0.131,0.705,0.857,0.684,1.869,0.684h8.931c1.19,0,1.388-0.044,1.718-0.618
		c0.113-0.044,0.354-0.022,0.396,0.066c-0.244,0.906-0.396,2.689-0.33,3.352c-0.088,0.175-0.463,0.175-0.572,0.044
		c-0.068-0.551-0.221-1.366-0.553-1.609c-0.506-0.375-1.346-0.553-2.557-0.553h-1.565c-0.659,0-0.641,0.024-0.641,0.749V58.463z"/>
	<path fill="none" stroke="#003E7E" stroke-width="0.143" stroke-miterlimit="3.864" d="M388.901,58.463
		c0,2.314,0.042,2.624,1.324,2.755l0.708,0.069c0.131,0.088,0.086,0.485-0.043,0.55c-1.26-0.044-2.008-0.065-2.893-0.065
		c-0.879,0-1.653,0.021-3.061,0.065c-0.134-0.065-0.18-0.441,0-0.55l0.794-0.069c1.254-0.11,1.364-0.441,1.364-2.755v-9.854
		c0-0.681,0-0.705-0.66-0.705h-1.214c-0.946,0-2.159,0.046-2.709,0.553c-0.53,0.483-0.751,0.968-0.995,1.521
		c-0.174,0.131-0.484,0.023-0.573-0.155c0.356-0.99,0.683-2.403,0.836-3.283c0.067-0.044,0.354-0.065,0.425,0
		c0.131,0.705,0.857,0.684,1.869,0.684h8.931c1.19,0,1.388-0.044,1.718-0.618c0.113-0.044,0.354-0.022,0.396,0.066
		c-0.244,0.906-0.396,2.689-0.33,3.352c-0.088,0.175-0.463,0.175-0.572,0.044c-0.068-0.551-0.221-1.366-0.553-1.609
		c-0.506-0.375-1.346-0.553-2.557-0.553h-1.565c-0.659,0-0.641,0.024-0.641,0.749V58.463z"/>
	<path fill="#003E7E" d="M407.422,58.419c0,2.358,0.133,2.712,1.322,2.799l0.838,0.069c0.131,0.131,0.084,0.483-0.043,0.549
		c-1.371-0.042-2.117-0.065-3.002-0.065c-0.922,0-1.715,0.023-2.887,0.065c-0.129-0.065-0.174-0.418-0.047-0.549l0.688-0.069
		c1.277-0.131,1.324-0.441,1.324-2.799v-1.125c0-1.212-0.068-1.5-0.709-2.73l-2.602-5.071c-0.748-1.457-1.08-1.565-1.74-1.678
		l-0.615-0.11c-0.135-0.152-0.113-0.462,0.045-0.549c0.703,0.044,1.496,0.065,2.555,0.065c1.012,0,1.809-0.021,2.357-0.065
		c0.201,0.065,0.201,0.418,0.068,0.549l-0.287,0.044c-0.77,0.134-0.928,0.221-0.928,0.396c0,0.223,0.574,1.478,0.684,1.7
		c0.818,1.627,1.633,3.371,2.49,4.892c0.686-1.168,1.414-2.445,2.074-3.724c0.615-1.147,1.434-2.646,1.434-2.913
		c0-0.131-0.402-0.287-0.928-0.352l-0.396-0.044c-0.152-0.152-0.135-0.462,0.047-0.549c0.793,0.044,1.43,0.065,2.113,0.065
		s1.301-0.021,2.051-0.065c0.176,0.109,0.201,0.418,0.043,0.549l-0.617,0.11c-1.146,0.179-1.807,1.586-2.91,3.483l-1.385,2.402
		c-0.996,1.654-1.037,1.875-1.037,3.571V58.419z"/>
	<path fill="none" stroke="#003E7E" stroke-width="0.143" stroke-miterlimit="3.864" d="M407.422,58.419
		c0,2.358,0.133,2.712,1.322,2.799l0.838,0.069c0.131,0.131,0.084,0.483-0.043,0.549c-1.371-0.042-2.117-0.065-3.002-0.065
		c-0.922,0-1.715,0.023-2.887,0.065c-0.129-0.065-0.174-0.418-0.047-0.549l0.688-0.069c1.277-0.131,1.324-0.441,1.324-2.799v-1.125
		c0-1.212-0.068-1.5-0.709-2.73l-2.602-5.071c-0.748-1.457-1.08-1.565-1.74-1.678l-0.615-0.11c-0.135-0.152-0.113-0.462,0.045-0.549
		c0.703,0.044,1.496,0.065,2.555,0.065c1.012,0,1.809-0.021,2.357-0.065c0.201,0.065,0.201,0.418,0.068,0.549l-0.287,0.044
		c-0.77,0.134-0.928,0.221-0.928,0.396c0,0.223,0.574,1.478,0.684,1.7c0.818,1.627,1.633,3.371,2.49,4.892
		c0.686-1.168,1.414-2.445,2.074-3.724c0.615-1.147,1.434-2.646,1.434-2.913c0-0.131-0.402-0.287-0.928-0.352l-0.396-0.044
		c-0.152-0.152-0.135-0.462,0.047-0.549c0.793,0.044,1.43,0.065,2.113,0.065s1.301-0.021,2.051-0.065
		c0.176,0.109,0.201,0.418,0.043,0.549l-0.617,0.11c-1.146,0.179-1.807,1.586-2.91,3.483l-1.385,2.402
		c-0.996,1.654-1.037,1.875-1.037,3.571V58.419z"/>
	<path fill="#003E7E" d="M428.01,54.648c0-4.409,3.307-7.78,7.846-7.78c5.094,0,7.652,3.681,7.652,7.562
		c0,4.451-3.398,7.694-7.652,7.694C430.963,62.124,428.01,58.619,428.01,54.648 M441.303,55.113c0-3.64-1.607-7.563-5.818-7.563
		c-2.295,0-5.271,1.568-5.271,6.395c0,3.262,1.588,7.495,5.93,7.495C438.791,61.439,441.303,59.456,441.303,55.113"/>
	<path fill="none" stroke="#003E7E" stroke-width="0.143" stroke-miterlimit="3.864" d="M428.01,54.648
		c0-4.409,3.307-7.78,7.846-7.78c5.094,0,7.652,3.681,7.652,7.562c0,4.451-3.398,7.694-7.652,7.694
		C430.963,62.124,428.01,58.619,428.01,54.648z M441.303,55.113c0-3.64-1.607-7.563-5.818-7.563c-2.295,0-5.271,1.568-5.271,6.395
		c0,3.262,1.588,7.495,5.93,7.495C438.791,61.439,441.303,59.456,441.303,55.113z"/>
	<path fill="#003E7E" d="M453.559,53.438c0,0.597,0.066,0.597,0.727,0.597h1.5c0.904,0,1.611-0.047,1.873-0.134
		c0.244-0.089,0.418-0.197,0.553-0.772l0.199-0.882c0.109-0.131,0.482-0.131,0.57,0c0,0.531-0.088,1.413-0.088,2.227
		c0,0.795,0.088,1.633,0.088,2.138c-0.088,0.131-0.418,0.131-0.57,0l-0.223-0.859c-0.09-0.397-0.285-0.707-0.705-0.837
		c-0.309-0.087-0.861-0.108-1.697-0.108h-1.5c-0.66,0-0.727,0.021-0.727,0.593v3.065c0,2.314,0.043,2.642,1.342,2.755l0.752,0.065
		c0.133,0.087,0.088,0.485-0.043,0.551c-1.301-0.044-2.051-0.065-2.93-0.065c-0.973,0-1.721,0.021-2.758,0.065
		c-0.135-0.065-0.178-0.419-0.047-0.551l0.551-0.065c1.281-0.156,1.326-0.441,1.326-2.755v-7.939c0-2.312-0.045-2.621-1.326-2.775
		l-0.352-0.047c-0.135-0.087-0.088-0.483,0.045-0.549c0.926,0.047,1.676,0.066,2.561,0.066h4.053c1.408,0,2.689,0,2.977-0.066
		c0,1.016,0.02,2.072,0.064,2.909c-0.064,0.134-0.373,0.2-0.527,0.069c-0.178-0.993-0.439-1.788-1.545-2.096
		c-0.482-0.11-1.211-0.131-2.135-0.131h-1.35c-0.658,0-0.658,0.042-0.658,0.88V53.438z"/>
	<path fill="none" stroke="#003E7E" stroke-width="0.143" stroke-miterlimit="3.864" d="M453.559,53.438
		c0,0.597,0.066,0.597,0.727,0.597h1.5c0.904,0,1.611-0.047,1.873-0.134c0.244-0.089,0.418-0.197,0.553-0.772l0.199-0.882
		c0.109-0.131,0.482-0.131,0.57,0c0,0.531-0.088,1.413-0.088,2.227c0,0.795,0.088,1.633,0.088,2.138
		c-0.088,0.131-0.418,0.131-0.57,0l-0.223-0.859c-0.09-0.397-0.285-0.707-0.705-0.837c-0.309-0.087-0.861-0.108-1.697-0.108h-1.5
		c-0.66,0-0.727,0.021-0.727,0.593v3.065c0,2.314,0.043,2.642,1.342,2.755l0.752,0.065c0.133,0.087,0.088,0.485-0.043,0.551
		c-1.301-0.044-2.051-0.065-2.93-0.065c-0.973,0-1.721,0.021-2.758,0.065c-0.135-0.065-0.178-0.419-0.047-0.551l0.551-0.065
		c1.281-0.156,1.326-0.441,1.326-2.755v-7.939c0-2.312-0.045-2.621-1.326-2.775l-0.352-0.047c-0.135-0.087-0.088-0.483,0.045-0.549
		c0.926,0.047,1.676,0.066,2.561,0.066h4.053c1.408,0,2.689,0,2.977-0.066c0,1.016,0.02,2.072,0.064,2.909
		c-0.064,0.134-0.373,0.2-0.527,0.069c-0.178-0.993-0.439-1.788-1.545-2.096c-0.482-0.11-1.211-0.131-2.135-0.131h-1.35
		c-0.658,0-0.658,0.042-0.658,0.88V53.438z"/>
	<path fill="#FFD200" d="M87.167,50.817c-0.688,0.024-1.696,0.171-3.025,0.444c-1.328,0.271-2.409,0.674-3.245,1.214
		c-0.834,0.566-1.413,1.734-1.734,3.502c-0.319,1.771-0.478,3.933-0.478,6.493v22.75c0,2.903-0.604,5.421-1.806,7.56
		c-1.207,2.137-2.793,3.898-4.758,5.271c-1.944,1.33-3.991,2.282-6.144,2.858c-2.152,0.577-4.21,0.867-6.18,0.867
		c-3.146,0-5.951-0.412-8.407-1.236c-2.458-0.82-4.526-1.934-6.198-3.338c-1.646-1.4-2.889-3.003-3.724-4.812
		c-0.837-1.805-1.255-3.692-1.255-5.658V55.793c0-0.859-0.145-1.578-0.429-2.156c-0.287-0.578-0.865-1.112-1.737-1.606
		c-0.621-0.343-1.417-0.618-2.389-0.827c-0.972-0.21-1.77-0.337-2.391-0.387v-2.605H55.04v2.605
		c-0.681,0.024-1.54,0.134-2.577,0.331c-1.035,0.197-1.797,0.384-2.284,0.552c-0.829,0.297-1.385,0.787-1.663,1.475
		c-0.281,0.691-0.421,1.44-0.421,2.25v28.902c0,1.402,0.152,2.871,0.462,4.404c0.31,1.538,0.918,2.969,1.833,4.296
		c0.962,1.353,2.269,2.46,3.92,3.318c1.654,0.857,3.924,1.291,6.814,1.291c2.712,0,4.985-0.434,6.827-1.291
		c1.84-0.857,3.286-1.989,4.349-3.39c1.012-1.328,1.727-2.719,2.146-4.168c0.421-1.449,0.63-2.912,0.63-4.386V62.945
		c0-2.728-0.197-4.958-0.587-6.689c-0.394-1.733-0.969-2.871-1.727-3.411c-0.856-0.613-2.024-1.094-3.506-1.437
		c-1.481-0.345-2.614-0.54-3.396-0.59v-2.605h21.304V50.817z"/>
	<path fill="#FFD200" d="M135.604,74.074h-2.471c-0.22-0.867-0.613-1.898-1.179-3.088c-0.568-1.193-1.202-2.317-1.906-3.377
		c-0.725-1.106-1.515-2.078-2.374-2.907c-0.859-0.832-1.687-1.303-2.483-1.425c-0.75-0.098-1.693-0.17-2.829-0.22
		c-1.136-0.046-2.19-0.072-3.154-0.072h-2.104v41.01c0,0.793,0.167,1.525,0.503,2.185c0.334,0.665,0.925,1.171,1.765,1.534
		c0.432,0.168,1.338,0.4,2.722,0.687c1.38,0.29,2.456,0.446,3.225,0.47v2.539H101.14v-2.539c0.674-0.046,1.706-0.144,3.094-0.29
		c1.384-0.143,2.346-0.327,2.874-0.54c0.796-0.311,1.381-0.763,1.756-1.354c0.371-0.589,0.559-1.379,0.559-2.368V62.985h-2.093
		c-0.749,0-1.675,0.02-2.784,0.056c-1.106,0.035-2.165,0.113-3.176,0.235c-0.795,0.093-1.619,0.572-2.475,1.425
		c-0.854,0.855-1.645,1.824-2.366,2.907c-0.722,1.085-1.362,2.235-1.915,3.449c-0.554,1.216-0.938,2.221-1.153,3.016h-2.54V60.179
		h44.684V74.074z"/>
	<path fill="#003E7E" d="M300.001,136.073c0-1.461-0.061-1.931-1.031-2.014l-1.025-0.091c-0.177-0.085-0.195-0.384-0.024-0.473
		c1.803-0.32,2.984-0.875,3.54-1.242c0.088,0,0.177,0.042,0.216,0.104c-0.04,0.39-0.088,1.458-0.088,2.685v8.333
		c0,1.654,0.049,2.017,0.928,2.083l0.903,0.062c0.128,0.134,0.104,0.473-0.046,0.537c-0.839-0.042-1.803-0.064-2.554-0.064
		c-0.775,0-1.739,0.021-2.575,0.064c-0.153-0.064-0.171-0.403-0.043-0.537l0.879-0.062c0.9-0.067,0.921-0.43,0.921-2.083V136.073z"
		/>
	<path fill="none" stroke="#003E7E" stroke-width="0.143" stroke-miterlimit="3.864" d="M300.001,136.073
		c0-1.461-0.061-1.931-1.031-2.014l-1.025-0.091c-0.177-0.085-0.195-0.384-0.024-0.473c1.803-0.32,2.984-0.875,3.54-1.242
		c0.088,0,0.177,0.042,0.216,0.104c-0.04,0.39-0.088,1.458-0.088,2.685v8.333c0,1.654,0.049,2.017,0.928,2.083l0.903,0.062
		c0.128,0.134,0.104,0.473-0.046,0.537c-0.839-0.042-1.803-0.064-2.554-0.064c-0.775,0-1.739,0.021-2.575,0.064
		c-0.153-0.064-0.171-0.403-0.043-0.537l0.879-0.062c0.9-0.067,0.921-0.43,0.921-2.083V136.073z"/>
	<path fill="#003E7E" d="M316.445,135.384c0,1.764-1.458,2.646-2.531,3.265c1.482,0.839,2.834,1.953,2.834,4.04
		c0,2.23-1.781,3.606-4.207,3.606c-1.999,0-4.059-0.967-4.059-3.478c0-1.824,1.48-3.026,2.898-3.716
		c-1.248-0.684-2.426-1.715-2.449-3.372c-0.021-2.188,1.76-3.475,3.951-3.475C314.795,132.253,316.445,133.327,316.445,135.384
		 M315.158,143.048c0-1.69-1.611-2.874-3.173-3.582c-1.464,0.754-1.959,2.124-1.959,3.262c0,1.59,1.056,2.926,2.642,2.926
		C314.194,145.653,315.158,144.616,315.158,143.048 M310.479,135.28c0,1.479,1.461,2.383,2.812,3.048
		c0.988-0.62,1.721-1.59,1.721-2.898c0-1.309-0.902-2.536-2.279-2.536C311.253,132.894,310.479,134.035,310.479,135.28"/>
	<path fill="none" stroke="#003E7E" stroke-width="0.143" stroke-miterlimit="3.864" d="M316.445,135.384
		c0,1.764-1.458,2.646-2.531,3.265c1.482,0.839,2.834,1.953,2.834,4.04c0,2.23-1.781,3.606-4.207,3.606
		c-1.999,0-4.059-0.967-4.059-3.478c0-1.824,1.48-3.026,2.898-3.716c-1.248-0.684-2.426-1.715-2.449-3.372
		c-0.021-2.188,1.76-3.475,3.951-3.475C314.795,132.253,316.445,133.327,316.445,135.384z M315.158,143.048
		c0-1.69-1.611-2.874-3.173-3.582c-1.464,0.754-1.959,2.124-1.959,3.262c0,1.59,1.056,2.926,2.642,2.926
		C314.194,145.653,315.158,144.616,315.158,143.048z M310.479,135.28c0,1.479,1.461,2.383,2.812,3.048
		c0.988-0.62,1.721-1.59,1.721-2.898c0-1.309-0.902-2.536-2.279-2.536C311.253,132.894,310.479,134.035,310.479,135.28z"/>
	<path fill="#003E7E" d="M322.566,133.883c-1.203,0-1.672,0.067-2.295,1.095c-0.152,0.064-0.365,0.021-0.451-0.174
		c0.213-0.577,0.537-1.501,0.729-2.316c0.346,0.046,1.096,0.064,2.273,0.064h3.631c1.184,0,2.617,0,2.881-0.064
		c0.084,0.021,0.146,0.107,0.146,0.192c-0.602,0.921-1.225,2.062-2.018,3.673l-5.477,11.011c-0.342,0.046-0.665-0.125-0.727-0.406
		l6.075-12.284c0.32-0.641,0.216-0.793-0.474-0.793H322.566z"/>
	<path fill="none" stroke="#003E7E" stroke-width="0.143" stroke-miterlimit="3.864" d="M322.566,133.883
		c-1.203,0-1.672,0.067-2.295,1.095c-0.152,0.064-0.365,0.021-0.451-0.174c0.213-0.577,0.537-1.501,0.729-2.316
		c0.346,0.046,1.096,0.064,2.273,0.064h3.631c1.184,0,2.617,0,2.881-0.064c0.084,0.021,0.146,0.107,0.146,0.192
		c-0.602,0.921-1.225,2.062-2.018,3.673l-5.477,11.011c-0.342,0.046-0.665-0.125-0.727-0.406l6.075-12.284
		c0.32-0.641,0.216-0.793-0.474-0.793H322.566z"/>
	<path fill="#003E7E" d="M337.939,144.665c0.986,0,1.633-0.134,2.018-0.476c0.408-0.366,0.561-0.644,0.689-0.878
		c0.146-0.064,0.385,0,0.47,0.128c-0.277,1.074-0.665,2.19-0.988,2.618c-0.879-0.042-1.778-0.064-2.771-0.064h-3.111
		c-1.199,0-1.91,0.021-2.381,0.064c-0.043-0.021-0.148-0.104-0.148-0.274c0-0.067,0.105-0.153,0.234-0.244
		c0.988-0.641,1.696-1.37,3.283-3.087c1.418-1.526,3.068-3.606,3.068-5.901c0-1.958-0.945-3.14-2.682-3.14
		c-1.287,0-2.209,0.882-2.791,2.151c-0.192,0.104-0.513,0-0.513-0.28c0.687-1.892,2.383-3.027,4.313-3.027
		c2.146,0,3.543,1.434,3.543,3.497c0,1.33-0.625,2.795-2.297,4.723l-1.312,1.507c-1.736,2.038-1.953,2.358-1.953,2.49
		c0,0.146,0.109,0.195,0.666,0.195H337.939z"/>
	<path fill="none" stroke="#003E7E" stroke-width="0.143" stroke-miterlimit="3.864" d="M337.939,144.665
		c0.986,0,1.633-0.134,2.018-0.476c0.408-0.366,0.561-0.644,0.689-0.878c0.146-0.064,0.385,0,0.47,0.128
		c-0.277,1.074-0.665,2.19-0.988,2.618c-0.879-0.042-1.778-0.064-2.771-0.064h-3.111c-1.199,0-1.91,0.021-2.381,0.064
		c-0.043-0.021-0.148-0.104-0.148-0.274c0-0.067,0.105-0.153,0.234-0.244c0.988-0.641,1.696-1.37,3.283-3.087
		c1.418-1.526,3.068-3.606,3.068-5.901c0-1.958-0.945-3.14-2.682-3.14c-1.287,0-2.209,0.882-2.791,2.151
		c-0.192,0.104-0.513,0-0.513-0.28c0.687-1.892,2.383-3.027,4.313-3.027c2.146,0,3.543,1.434,3.543,3.497
		c0,1.33-0.625,2.795-2.297,4.723l-1.312,1.507c-1.736,2.038-1.953,2.358-1.953,2.49c0,0.146,0.109,0.195,0.666,0.195H337.939z"/>
</g>
</svg>
