<svg xmlns="http://www.w3.org/2000/svg" width="247" height="121.96" viewBox="0 0 247 121.96">
 <g transform="matrix(1.3333 0 0 -1.3333 -822.34 685.12)">
  <g>
   <path d="m792.64 481.29c-10.709 0.27239-28.758-3.9285-34.248-28.481-4.0992-18.325 5.642-27.137 19.777-26.96 3.6799 0.0454 6.8773 0.68346 10.482 1.9146l3.4146 14.174c-2.6785-1.5916-5.17-2.5263-8.4653-2.5957-10.361-0.22165-9.8809 7.3333-8.4228 13.569 1.3753 5.8831 6.4151 14.673 15.385 14.785 3.3942 0.0427 5.2469-1.0948 7.0415-2.7612l3.6401 15.114c-2.7025 0.79313-5.6349 1.1647-8.6045 1.2422zm-88.151-1.2261-12.834-53.279h15.152l12.834 53.279h-15.152zm28.361 0-23.068-53.279h15.671l2.5898 6.8555h10.458l-0.49658-6.8555h15.671l-0.03955 53.279h-20.785zm7.9438-12.719h0.14795l-1.6245-22.4h-6.9961l8.4726 22.4z" fill="#002f87"/>
   <path d="m648.74 513.09-15.022-7.2686c-1.1964-0.42194-2.5856-0.327-3.7339 0.34863l-1.27 0.74854-2.7246-2.0669-0.13916-12.127-5.1138-2.8726-3.2417-5.8301s2.606-1.7807 3.8745-3.5859l-1.856-3.293-0.30469-10.805 3.4775-3.2695 1.96-0.63428c1.175-0.35517 5.9103-1.8353 6.7969-6.3164l2.3628-1.9468 0.64893 25.885h14.757l-3.0791-32.897 13.208 32.897h12.848l-2.2222-32.689 12.426 32.689h7.0664l-1.6904 4.4839v2.3203l-3.7734 0.98291-2.4551 3.6636-22.852 6.1846c-1.9975 0.54211-3.5213 2.211-3.9272 4.2993l-7.248 2.855-1.5176-0.18457c-0.92131-0.12284-1.212 0.96403-0.56836 1.5996l3.1216 3.501 0.19043 3.3281zm52.135-30.013-8.5459-13.78-18.208-41.906h-14.906l1.188 28.003-11.246-28.003h-4.5073l1.1646-4.27h41.479l0.33251 3.977c-1.4741 6.3958-1.6655 11.934-1.6655 11.934l3.0996 7.2905 1.0078 7.1294 2.5503 2.562c0.17091 3.29 0.66794 6.0719 1.875 9.1216l7.752 17.941h-1.3696z" fill="#ea0029"/>
  </g>
 </g>
</svg>