<svg xmlns="http://www.w3.org/2000/svg" xmlns:xlink="http://www.w3.org/1999/xlink" width="351" height="80" viewBox="0 0 92.869 21.167" xmlns:v="https://vecta.io/nano"><defs><clipPath ><path d="M43.316 811.68h215.28V616.92H43.316z"/></clipPath><clipPath id="B"><path d="M270.476 322.798h198.426v45.532H270.476z"/></clipPath><path id="C" d="M430.887 351.285h1.06c.03 0 .048.02.048.048v6.688c0 .03-.02.048-.048.048h-1.06c-.03 0-.048-.02-.048-.048v-6.688c0-.03.02-.048.048-.048"/></defs><g transform="matrix(1.326471 0 0 1.326471 -298.03533 -351.820306)"><path d="M246.542 270.796h2.314v8.76h2.364v-8.76h2.314v-2.1h-6.992z"/><g clip-path="url(#B)" transform="matrix(.352778 0 0 -.352778 129.26473 395.16916)"><path d="M319.827 337.232c0-2.483-1.453-4.03-3.75-4.03-2.342 0-3.748 1.547-3.748 4.03v21.274h-6.7v-21.368c0-6.1 4.217-9.887 10.45-9.887s10.45 3.796 10.45 9.887v21.368h-6.7zm49.78 8.763l-3.842 1.453c-2.1.796-2.484 2.155-2.484 3.045 0 1.687 1.218 2.952 3.374 2.952 2.1 0 3.514-1.405 3.514-3.608v-.843h6.28v.703c0 5.716-3.936 9.278-9.793 9.278-6.138 0-9.7-4.218-9.7-8.903 0-4.5 2.343-7.17 6.795-8.857l4.3-1.64c1.92-.75 2.67-1.78 2.67-3.327 0-2.155-1.405-3.42-3.935-3.42s-4.077 1.17-4.077 3.655v1.124h-6.326v-1.077c0-5.717 4.404-9.278 10.403-9.278 6.56 0 10.308 3.982 10.308 9.652s-3.655 7.638-7.497 9.1m-93.308-.176l-2.9 2.9-2.9-2.9 2.9-2.9zm6.517-.694l2.217-2.217 2.9 2.9-2.966 2.966a3.06 3.06 0 0 1-4.324 0l-10.178-10.178 2.9-2.9z"/><path d="M282.123 332.783l-2.9 2.9-2.217-2.217-2.217 2.217-2.913-2.912 2.967-2.966a3.06 3.06 0 0 1 4.324 0zm.694-5.128l-2.217 2.217-2.912-2.912 2.967-2.967a3.06 3.06 0 0 1 4.324 0l2.967 2.967-2.912 2.912zm5.823 5.822l-2.217 2.217-2.9-2.9 2.967-2.967a3.06 3.06 0 0 1 4.324 0l2.966 2.966-2.912 2.912zm.694 5.13l2.912-2.912 2.9 2.9-2.912 2.912zm-6.517.694l-2.217 2.217-2.9-2.9 2.966-2.966a3.06 3.06 0 0 1 4.324 0l10.178 10.178-2.912 2.912zm3.883 25.147l-3.882 3.884-3.883-3.884 3.883-3.882zm-8.727-8.84h2.785v-5.512c1.264.75 2.853.75 4.118.001v5.5h2.784l1.824-1.824 3.883 3.883-3.883 3.882-1.824-1.824h-9.687l-1.824 1.824-3.882-3.882 3.882-3.883zm112.98-23.384c-.665.077-1.387.222-1.387.8 0 .52.54.945 1.194.945.8 0 1.263-.482 1.253-.897 0-.028.02-.048.048-.048h1.118c.02 0 .04.02.04.048 0 1.253-1.176 1.957-2.458 1.957-1.204 0-2.4-.733-2.4-2.005 0-1.358 1.012-1.82 2.592-1.966.993-.086 1.397-.5 1.397-.924 0-.57-.597-1.022-1.397-1.022-.82 0-1.436.434-1.436.896 0 .03-.02.048-.048.048h-1.108c-.03 0-.05-.02-.05-.048 0-.906.723-1.956 2.64-1.956 1.6 0 2.602.8 2.602 2.082 0 1.753-1.6 1.965-2.602 2.08m8.927 2.716h-1.253c-.028 0-.057-.01-.077-.048l-1.503-2.747c-.02-.03-.058-.03-.077 0l-1.494 2.747c-.02.038-.038.048-.067.048h-1.263c-.038 0-.057-.04-.038-.077l2.303-3.874c.02-.03.02-.048.02-.068v-2.717c0-.03.02-.048.048-.048h1.06c.028 0 .048.02.048.048v2.717a.1.1 0 0 0 .02.068l2.313 3.874c.03.048-.01.077-.04.077m13.703 0h-1.06c-.028 0-.047-.02-.047-.048v-5.07c0-.048-.068-.068-.097 0l-2.64 5.07c-.01.02-.03.048-.058.048h-1.436c-.03 0-.048-.02-.048-.048v-6.688c0-.03.02-.048.038-.048h1.07c.03 0 .048.02.048.048v5.07c0 .048.067.067.097 0l2.63-5.07c.01-.02.04-.048.068-.048h1.436c.028 0 .048.02.048.048v6.688c0 .03-.02.048-.048.048m6.483 0h-4.712c-.03 0-.048-.02-.048-.048v-6.688c0-.03.02-.048.048-.048h4.712c.028 0 .048.02.048.048v.964c0 .03-.02.048-.048.048h-3.556c-.03 0-.048.02-.048.048v1.754c0 .03.02.048.048.048h3.074c.03 0 .048.02.048.048v.964c0 .03-.02.048-.048.048h-3.074c-.03 0-.048.02-.048.048v1.658c0 .03.02.048.048.048h3.556c.028 0 .048.02.048.048v.964c0 .03-.02.048-.048.048m-16.397-5.723h-1.32c-.03 0-.05.02-.05.048v4.577c0 .02.01.04.04.04h1.33c1.156 0 1.83-.944 1.83-2.4 0-1.465-.675-2.265-1.83-2.265m0 5.724h-2.476c-.03 0-.05-.02-.05-.048v-6.688c0-.03.02-.048.05-.048h2.476c2.033 0 3.035 1.28 3.035 3.325 0 2.023-1.002 3.45-3.035 3.46m23.388-.002h-1.253a.08.08 0 0 1-.077-.048l-1.503-2.747c-.02-.03-.058-.03-.077 0l-1.494 2.747c-.02.038-.04.048-.067.048h-1.263c-.038 0-.058-.04-.038-.077l2.303-3.874c.02-.03.02-.048.02-.068v-2.717c0-.03.02-.048.048-.048h1.06c.03 0 .048.02.048.048v2.717a.1.1 0 0 0 .02.068l2.312 3.874c.03.048-.01.077-.038.077m-26.32 11.565h-4.712c-.03 0-.048-.02-.048-.048v-6.688c0-.03.02-.048.048-.048h1.06c.03 0 .048.02.048.048v2.824c0 .02.01.038.04.038h3.083c.03 0 .05.02.05.05v.963c0 .03-.02.048-.05.048h-3.083c-.03 0-.04.01-.04.04v1.677c0 .028.01.038.04.038h3.565c.03 0 .048.02.048.048v.964c0 .03-.02.048-.048.048m38.513-5.823c-1.195 0-1.85.916-1.85 2.428s.655 2.43 1.85 2.43 1.85-.916 1.85-2.43-.655-2.428-1.85-2.428m0 5.917c-2.033 0-3.055-1.445-3.055-3.5s1.022-3.488 3.055-3.488 3.055 1.446 3.055 3.488-1.022 3.5-3.055 3.5m29.584-.096h-1.252c-.03 0-.058-.01-.077-.048L466 343.7c-.02-.03-.058-.03-.077 0l-1.494 2.746c-.02.04-.038.048-.067.048H463.1c-.04 0-.058-.038-.04-.077l2.303-3.873c.02-.03.02-.05.02-.068v-2.718c0-.03.02-.048.05-.048h1.06c.03 0 .048.02.048.048v2.718c0 .02 0 .038.02.068l2.313 3.873c.03.048-.01.077-.04.077"/><path d="M448.236 340.78h-3.276c-.03 0-.04.01-.04.038v5.638c0 .03-.02.048-.048.048h-1.06c-.03 0-.048-.02-.048-.048v-6.688c0-.03.02-.048.048-.048h4.423c.03 0 .048.02.048.048v.964c0 .03-.02.048-.048.048m3.88-.096c-1.195 0-1.85.916-1.85 2.428s.655 2.43 1.85 2.43 1.85-.916 1.85-2.43-.656-2.428-1.85-2.428m0 5.917c-2.033 0-3.055-1.445-3.055-3.5s1.022-3.488 3.055-3.488 3.055 1.446 3.055 3.488-1.022 3.5-3.055 3.5"/><path d="M391.443 345.54c1.195 0 1.85-.916 1.85-2.428s-.655-2.43-1.85-2.43-1.85.916-1.85 2.43.656 2.428 1.85 2.428m0-5.917c2.033 0 3.055 1.446 3.055 3.5s-1.022 3.488-3.055 3.488-3.055-1.446-3.055-3.488 1.022-3.5 3.055-3.5m70.892 4h-2.853c-.03 0-.038-.02-.038-.048v-.954c0-.03.01-.05.038-.05h1.803a.03.03 0 0 0 .038-.038v-.096c-.067-1.38-.925-1.754-1.88-1.754-1.195 0-1.85.906-1.85 2.42 0 1.464.693 2.418 1.85 2.418.636 0 1.214-.28 1.503-.867.01-.03.03-.067.116-.067h1.137c.04 0 .058.038.048.067-.318 1.1-1.137 1.937-2.804 1.937-1.937 0-3.055-1.455-3.055-3.488 0-2.044 1.118-3.5 3.055-3.5.78 0 1.32.3 1.773.655.048.04.087.02.097-.02l.096-.5c.01-.03.02-.038.048-.038h.877c.03 0 .048.01.048.038v3.826c0 .03-.02.048-.048.048m-44.087 1.9c1.224 0 1.55-.954 1.648-1.243.01-.03.03-.048.058-.048h1.108a.04.04 0 0 1 .048.048c0 .597-.713 2.313-2.862 2.313-2.033 0-3.035-1.523-3.035-3.556 0-2.043 1.002-3.42 3.035-3.42 2.274 0 2.862 1.87 2.862 2.313 0 .028-.01.048-.048.048h-1.098c-.03 0-.05-.02-.06-.048-.076-.24-.423-1.244-1.657-1.244-1.156 0-1.83.887-1.83 2.352s.675 2.486 1.83 2.486m-4.188.972h-4.712c-.03 0-.05-.02-.05-.048v-6.688c0-.03.02-.048.05-.048h4.712c.028 0 .048.02.048.048v.964c0 .03-.02.048-.048.048h-3.556c-.03 0-.048.02-.048.048v1.754c0 .03.02.048.048.048h3.074c.03 0 .048.02.048.05v.963c0 .03-.02.048-.048.048h-3.074c-.03 0-.048.02-.048.05v1.657c0 .03.02.048.048.048h3.556c.028 0 .048.02.048.048v.964c0 .03-.02.048-.048.048m-5.978-.002h-4.818c-.03 0-.048-.02-.048-.048v-.964c0-.03.02-.048.048-.048h1.782c.03 0 .05-.02.05-.048v-5.628c0-.03.02-.048.048-.048h1.06c.03 0 .048.02.048.048v5.628c0 .03.02.048.048.048h1.783c.028 0 .048.02.048.048v.964c0 .03-.02.048-.048.048m19.454 0h-1.06c-.03 0-.048-.02-.048-.048v-2.727c0-.03-.01-.04-.04-.04h-2.727c-.03 0-.038.01-.038.04v2.727c0 .03-.02.048-.05.048h-1.06c-.028 0-.048-.02-.048-.048v-6.688c0-.03.02-.048.048-.048h1.06c.03 0 .05.02.05.048v2.824a.03.03 0 0 0 .038.038h2.727c.02 0 .04-.01.04-.038v-2.824c0-.03.02-.048.048-.048h1.06c.03 0 .048.02.048.048v6.688c0 .03-.02.048-.048.048m7.155 0h-1.06c-.03 0-.048-.02-.048-.048v-5.07c0-.048-.068-.067-.097 0l-2.64 5.07c-.01.02-.03.048-.058.048h-1.436c-.03 0-.048-.02-.048-.048v-6.688c0-.03.02-.048.04-.048h1.07c.03 0 .048.02.048.048v5.07c0 .048.068.068.097 0l2.63-5.07c.01-.02.04-.048.068-.048h1.436c.03 0 .048.02.048.048v6.688c0 .03-.02.048-.048.048m-22.73 4.78h4.712c.03 0 .05.02.05.048v.964c0 .03-.02.048-.05.048h-3.556c-.03 0-.048.02-.048.048v1.754c0 .03.02.048.048.048h3.074c.03 0 .05.02.05.048v.964c0 .028-.02.048-.05.048h-3.074c-.03 0-.048.02-.048.048v1.658c0 .03.02.048.048.048h3.556c.03 0 .05.02.05.048v.964c0 .03-.02.048-.05.048h-4.712c-.03 0-.048-.02-.048-.048v-6.688c0-.03.02-.048.048-.048m-5.194.048c.01-.03.04-.048.058-.048h1.677c.02 0 .047.02.057.048l2.16 6.668c.01.03-.01.068-.048.068h-1.108c-.02 0-.04-.01-.05-.03l-1.802-5.58c-.02-.05-.077-.05-.096 0l-1.812 5.58c-.01.02-.028.03-.048.03h-1.108c-.04 0-.058-.038-.048-.068z"/><use xlink:href="#C"/><path d="M402.222 351.285h1.06c.03 0 .048.02.048.048v6.688c0 .03-.02.048-.048.048h-1.06c-.03 0-.048-.02-.048-.048v-6.688c0-.03.02-.048.048-.048m17.14 5.685c0 .02.01.038.04.038h1.58c.5 0 .983-.462.983-1.03 0-.558-.453-1-.945-1.03h-1.6c-.03 0-.048.02-.048.047zm-1.108-5.685h1.06c.03 0 .048.018.048.048v2.515c0 .03.01.038.04.038h1.512c.03 0 .04-.03.05-.048l1.117-2.525c.01-.01.03-.028.05-.028h1.108c.04 0 .068.028.048.067l-1.224 2.756c-.01.02-.01.03 0 .04a2.08 2.08 0 0 1 1.05 1.83c0 1.176-.945 2.092-2.033 2.092h-2.824c-.03 0-.048-.02-.048-.05v-6.687c0-.03.02-.048.048-.048"/><path d="M436.236 357.008h1.783c.028 0 .048.02.048.048v.964c0 .03-.02.05-.048.05h-4.82c-.03 0-.048-.02-.048-.05v-.964c0-.03.02-.048.048-.048h1.783c.03 0 .048-.02.048-.048v-5.628c0-.03.02-.048.048-.048h1.06c.028 0 .048.02.048.048v5.628c0 .03.02.048.048.048m-41.128-5.723h1.07c.028 0 .048.02.048.048v5.07c0 .048.067.067.096 0l2.63-5.07c.01-.02.038-.048.067-.048h1.436c.03 0 .048.02.048.048v6.688c0 .03-.02.048-.048.048h-1.06c-.03 0-.048-.02-.048-.048v-5.07c0-.048-.067-.068-.096 0l-2.64 5.07c-.01.02-.03.048-.058.048h-1.435c-.03 0-.05-.02-.05-.048v-6.688c0-.03.02-.048.04-.048"/><path d="M426.92 355.35c-.665.077-1.388.222-1.388.8 0 .52.54.944 1.195.944.8 0 1.263-.482 1.253-.896 0-.03.02-.048.048-.048h1.118c.02 0 .038.02.038.048 0 1.253-1.175 1.956-2.457 1.956-1.205 0-2.4-.732-2.4-2.004 0-1.36 1.012-1.822 2.593-1.966.992-.087 1.397-.5 1.397-.925 0-.57-.597-1.02-1.397-1.02-.82 0-1.436.433-1.436.895 0 .03-.02.05-.048.05h-1.1c-.028 0-.048-.02-.048-.05 0-.905.723-1.956 2.64-1.956 1.6 0 2.602.8 2.602 2.082 0 1.753-1.6 1.965-2.602 2.08m17.946 2.73h-1.253a.08.08 0 0 1-.077-.048l-1.503-2.747c-.02-.03-.058-.03-.078 0l-1.493 2.747c-.02.038-.04.048-.067.048h-1.263c-.038 0-.057-.04-.038-.077l2.303-3.874c.02-.03.02-.048.02-.068v-2.717c0-.03.02-.048.048-.048h1.06c.028 0 .047.02.047.048v2.717a.1.1 0 0 0 .02.068l2.313 3.874c.028.048-.01.077-.04.077m-53.92-6.882a2.44 2.44 0 0 1 2.457 2.448v4.385c0 .03-.02.048-.048.048h-1.06c-.03 0-.048-.02-.048-.048v-4.385a1.301 1.301 0 1 0-2.602 0v4.385c0 .03-.02.048-.05.048h-1.06c-.03 0-.05-.02-.05-.048v-4.385c0-1.36 1.1-2.448 2.458-2.448"/></g></g></svg>