<?xml version="1.0"?>
<svg width="300" height="88" xmlns="http://www.w3.org/2000/svg" xmlns:xlink="http://www.w3.org/1999/xlink" version="1.1">
 <desc>Logo of University of Derby</desc>
 <g>
   <path fill="#1b3d71" fill-rule="nonzero" id="path48" d="m0,87.69185l299.99747,0l0,-87.67185l-299.99747,0l0,87.67185z"/>
   <path fill="#ffffff" fill-rule="nonzero" id="path50" d="m22.38734,65.89915l78.54374,0l0,-44.01541l-78.54374,0l0,44.01541z"/>
   <path fill="#ffffff" fill-rule="nonzero" id="path62" d="m199.13869,55.05145c0.48535,0.02699 1.10127,0.05393 1.90596,0.05393c2.3345,0 4.40366,-0.96644 4.40366,-3.62452c0,-2.57579 -1.7995,-3.16624 -4.05455,-3.16624c-0.72379,0 -1.50148,0.02697 -2.25507,0.21429l0,6.52253l0,0.00001zm0,9.50135c0.75359,0.18731 1.53127,0.21429 2.25505,0.21429c2.98022,0 4.8578,-1.71724 4.8578,-4.5896c0,-2.95186 -1.87758,-4.13403 -5.31195,-4.13403c-0.75357,0 -1.31557,0.02694 -1.80092,0.05535l0,8.45399l0.00002,0zm-2.54884,-14.01004c0,-1.02038 -0.05391,-1.71859 -0.24126,-2.01379c-0.16179,-0.26823 -0.48251,-0.34913 -1.12822,-0.40162l-0.96646,-0.08091l0,-0.80464c1.47734,0.02554 3.00722,0.07947 3.86441,0.07947c1.55965,0 3.05971,-0.05393 5.18137,-0.07947c2.49487,-0.05535 4.80389,0.85714 4.80389,3.70256c0,2.4424 -2.28061,4.02618 -4.48175,4.37531l0,0.05392c2.73758,0.08091 5.39568,1.20768 5.39568,4.34692c0,2.63109 -1.98682,6.33515 -7.86359,6.1734c-0.99342,-0.02557 -1.9613,-0.07948 -2.92633,-0.07948c-0.99342,0 -1.95987,0.05392 -2.9263,0.07948l0,-0.61595l0.6982,-0.26966c0.48395,-0.1873 0.59038,-1.01894 0.59038,-1.74416"/>
   <path fill="#ffffff" fill-rule="nonzero" id="path66" d="m224.60025,49.8593c0.82878,-1.15238 1.49864,-1.6746 2.06343,-1.72852l0.80612,-0.07948l0,-0.80613c-0.96927,0.02699 -1.90738,0.08092 -2.9008,0.08092c-0.992,0 -1.93146,-0.05393 -2.89789,-0.08092l0,0.80613l1.39639,0.07948c0.69684,0.05391 0.62729,0.43426 -0.15463,1.74553l-4.22769,6.78506c0,0 -2.80005,-5.10902 -3.83743,-7.00502c-0.52513,-0.96078 -1.45184,-2.2139 -1.80518,-2.42251l-3.85875,0.01421l0,0.80893l0.78055,0.08085c0.66985,0.08091 2.03935,1.35815 3.433,3.77359l3.32793,5.79729c0.16319,0.26822 0.24269,0.64427 0.24269,1.07286l0,3.81189c0,1.01899 -0.05392,1.71722 -0.24269,2.01237c-0.15892,0.26965 -0.48108,0.37611 -1.12538,0.40305l-1.28862,0.08089l0,0.8047c1.39505,-0.05393 2.65669,-0.07946 3.97224,-0.07946c1.23328,0 2.49492,0.0255 3.89137,0.07946l0,-0.8047l-1.2886,-0.08089c-0.6443,-0.02693 -0.96646,-0.13339 -1.1268,-0.40305c-0.18877,-0.29515 -0.24269,-0.99339 -0.24269,-2.01237l0,-3.46277c0,-0.64429 0.08798,-1.29994 0.3775,-2.01239c0.59041,-1.45038 3.58481,-5.70079 4.70595,-7.25902"/>
   <path fill="#ffffff" fill-rule="nonzero" id="path70" d="m273.83896,24.53256c0.82877,-1.15376 1.49863,-1.67462 2.06345,-1.72853l0.80466,-0.07948l0,-0.80611c-0.96646,0.02699 -1.90454,0.0809 -2.89792,0.0809c-0.992,0 -1.93289,-0.05391 -2.90079,-0.0809l0,0.80611l1.39645,0.07948c0.69827,0.05391 0.63013,0.43427 -0.15326,1.74555l-4.22485,6.78646c0,0 -2.80286,-5.109 -3.84024,-7.00644c-0.52655,-0.95934 -1.45044,-2.21388 -1.80524,-2.42251l-3.8573,0.01421l0,0.81032l0.77774,0.0809c0.67126,0.07948 2.03934,1.35671 3.43582,3.77217l3.32648,5.79729c0.16183,0.26821 0.24274,0.64427 0.24274,1.07428l0,3.81046c0,1.02037 -0.05258,1.71722 -0.24274,2.01381c-0.16031,0.2682 -0.48108,0.37468 -1.1254,0.4016l-1.28857,0.08092l0,0.80467c1.39645,-0.05252 2.65671,-0.07946 3.97226,-0.07946c1.23465,0 2.49631,0.02694 3.89133,0.07946l0,-0.80467l-1.28717,-0.08092c-0.64575,-0.02692 -0.96786,-0.1334 -1.12827,-0.4016c-0.18729,-0.29659 -0.24124,-0.99343 -0.24124,-2.01381l0,-3.46277c0,-0.64428 0.08658,-1.29995 0.37607,-2.01237c0.58896,-1.4504 3.58481,-5.7008 4.70599,-7.25902"/>
   <path fill="#ffffff" fill-rule="nonzero" id="path74" d="m110.0724,25.21559c0,-1.02037 -0.05391,-1.71717 -0.24126,-2.01238c-0.16177,-0.26821 -0.48251,-0.37608 -1.12682,-0.40302l-1.2886,-0.0809l0,-0.80466c1.39503,0.05391 2.65668,0.07948 3.97081,0.07948c1.23611,0 2.49633,-0.02557 3.8942,-0.07948l0,0.80466l-1.28861,0.0809c-0.64429,0.02694 -0.96645,0.13481 -1.12823,0.40302c-0.18733,0.29521 -0.24125,0.99201 -0.24125,2.01238l0,9.23311c0,3.81183 1.98682,4.91172 5.52906,4.91172c2.89938,0 5.52908,-1.09989 5.52908,-5.55604l0,-8.58879c0,-1.02037 -0.05395,-1.71717 -0.24269,-2.01238c-0.16035,-0.26821 -0.48254,-0.34911 -1.12539,-0.40302l-1.18076,-0.0809l0,-0.80466c1.0729,0.02694 2.1458,0.07948 3.11224,0.07948c1.0743,0 2.03932,-0.05254 3.2215,-0.07948l0,0.80466l-1.18217,0.0809c-0.64288,0.05391 -0.96503,0.13481 -1.12682,0.40302c-0.18876,0.29521 -0.24125,0.99201 -0.24125,2.01238l0,7.75716c0,5.74336 -2.17561,8.05236 -7.59539,8.05236c-4.56403,0 -7.24767,-1.36953 -7.24767,-6.28127"/>
   <path fill="#ffffff" fill-rule="nonzero" id="path78" d="m131.73158,25.21559c0,-1.02037 -0.05392,-1.71717 -0.24127,-2.01238c-0.16177,-0.26821 -0.48393,-0.34911 -1.1268,-0.40302l-1.18216,-0.0809l0,-0.80466c1.18216,0.02694 2.25505,0.07948 3.22151,0.07948c0.4825,0 0.965,-0.05254 1.44896,-0.07948l12.83067,15.83504l0.07805,0l0,-12.53408c0,-1.02037 -0.05252,-1.71717 -0.24126,-2.01238c-0.16035,-0.26821 -0.48109,-0.34911 -1.12683,-0.40302l-1.18074,-0.0809l0,-0.80469c1.07428,0.02692 2.1472,0.07947 3.11365,0.07947c1.07431,0 2.03935,-0.05255 3.22012,-0.07947l0,0.80469l-1.18077,0.0809c-0.64288,0.05391 -0.96504,0.13481 -1.12683,0.40302c-0.18735,0.29521 -0.24126,0.99201 -0.24126,2.01238l0,14.8161c0,0.32214 0.05388,0.67126 0.0809,0.99343l-2.41545,-0.43001l-12.64189,-15.70168l-0.05397,0l0,12.3737c0,1.01893 0.05397,1.71717 0.24126,2.01237c0.1604,0.26826 0.48396,0.34913 1.12828,0.40304l1.17929,0.08095l0,0.80464c-1.17929,-0.02694 -2.1472,-0.07946 -3.22009,-0.07946c-0.96645,0 -2.04073,0.05252 -3.11362,0.07946l0,-0.80464l1.18213,-0.08095c0.64287,-0.05387 0.96504,-0.13478 1.12683,-0.40304c0.18735,-0.2952 0.24127,-0.99343 0.24127,-2.01237"/>
   <path fill="#ffffff" fill-rule="nonzero" id="path82" d="m157.5773,37.26689c0,1.02037 0.05251,1.71719 0.24124,2.01238c0.16039,0.26821 0.48254,0.3761 1.12685,0.40304l1.28859,0.08089l0,0.80466c-1.39505,-0.05388 -2.65666,-0.07946 -3.89134,-0.07946c-1.31555,0 -2.57721,0.02559 -3.97226,0.07946l0,-0.80466l1.2872,-0.08089c0.64571,-0.02694 0.96645,-0.13483 1.12679,-0.40304c0.18878,-0.2952 0.24272,-0.99201 0.24272,-2.01238l0,-12.05156c0,-1.02037 -0.05396,-1.71717 -0.24272,-2.01237c-0.16034,-0.26822 -0.48108,-0.37606 -1.12679,-0.40304l-1.2872,-0.0809l0,-0.80466c1.39503,0.05393 2.65671,0.0809 3.97226,0.0809c1.23468,0 2.49629,-0.02697 3.89134,-0.0809l0,0.80466l-1.28859,0.0809c-0.6443,0.02698 -0.96646,0.13482 -1.12685,0.40304c-0.18874,0.2952 -0.24124,0.99199 -0.24124,2.01237"/>
   <path fill="#ffffff" fill-rule="nonzero" id="path86" d="m171.36023,37.23978l4.91316,-12.69589c0.5634,-1.44896 0,-1.69018 -0.69823,-1.74411l-1.39647,-0.0809l0,-0.80469c0.96649,0.02697 1.90593,0.0809 2.89934,0.0809c0.99342,0 1.9315,-0.05393 2.89938,-0.0809l0,0.80469l-0.80612,0.0809c-0.56479,0.05393 -0.91252,0.64427 -1.44896,1.93291l-4.67191,11.29936c-0.6429,1.52987 -1.23325,3.05973 -1.71718,4.69747l-1.34114,0c-0.42996,-1.58381 -1.01894,-3.11364 -1.55684,-4.42921l-5.04652,-12.39925c-0.34911,-0.86004 -0.72519,-1.07434 -1.18214,-1.10128l-0.96361,-0.0809l0,-0.80469c1.17929,0.02697 2.36003,0.0809 3.56776,0.0809c1.20914,0 2.38989,-0.05388 3.57063,-0.0809l0,0.80469l-1.50291,0.0809c-0.50948,0.02694 -1.04593,0.18736 -0.80606,0.83307"/>
   <path fill="#ffffff" fill-rule="nonzero" id="path90" d="m183.62538,25.21559c0,-1.02037 -0.05394,-1.71717 -0.23985,-2.01238c-0.16318,-0.26821 -0.48538,-0.37608 -1.12827,-0.40302l-1.28857,-0.0809l0,-0.80466c1.47592,0.02694 3.0058,0.07948 4.53566,0.07948c2.33595,0 4.80528,-0.07948 6.33514,-0.07948c1.20631,0 2.414,0.02694 3.46135,0.07948c-0.29376,1.18074 -0.43002,2.71199 -0.43002,4.0801l-0.93805,0l0,-1.74416c0,-0.34912 -0.02698,-0.64432 -0.24269,-0.72523c-1.4234,-0.53643 -3.54366,-0.56342 -5.26086,-0.56342c-0.72374,0 -1.50284,0.02699 -2.25362,0.21429l0,7.16682c0.85716,0.05393 1.82504,0.0809 3.11224,0.0809c1.63913,0 2.55165,-0.10789 2.84541,-0.2952c0.13341,-0.10789 0.1873,-0.34911 0.21573,-0.69823l0.13338,-1.39503l0.80611,0c-0.02838,1.09984 -0.08232,2.11882 -0.08232,3.11222c0,0.99341 0.05391,2.01378 0.08232,2.98024l-0.80611,0l-0.13338,-1.58377c-0.02841,-0.34913 -0.08232,-0.5904 -0.21573,-0.67126c-0.29376,-0.2143 -1.20628,-0.32219 -2.84541,-0.32219c-1.2872,0 -2.28062,0 -3.11224,0.08092l0,7.51588c0.75076,0.18736 1.52983,0.2143 2.25362,0.2143c2.20117,0 4.94012,-0.08087 5.42123,-0.34908c0.40305,-0.21429 0.75217,-1.39505 0.9395,-3.00582l0.9395,0c-0.26682,1.28716 -0.42859,2.95185 -0.42859,4.40226c-1.18077,0.02559 -3.30241,0.10645 -5.28781,0.07946c-2.06631,-0.02694 -4.18657,-0.07946 -5.84982,-0.07946c-1.02179,0 -1.90596,0.05252 -2.87239,0.07946l0,-0.80464l0.96643,-0.0809c0.64288,-0.05393 0.96504,-0.13483 1.12828,-0.40306c0.1859,-0.29518 0.23984,-0.99343 0.23984,-2.01237"/>
   <path fill="#ffffff" fill-rule="nonzero" id="path94" d="m203.57713,37.26689c0,1.02037 0.05391,1.71719 0.23985,2.01238c0.16179,0.26821 0.48537,0.3761 1.12964,0.40304l1.2886,0.08089l0,0.80466c-1.39505,-0.05388 -2.65811,-0.07946 -3.89276,-0.07946c-1.31418,0 -2.57581,0.02559 -3.97226,0.07946l0,-0.80466l1.28719,-0.08089c0.64572,-0.02694 0.96786,-0.13483 1.12823,-0.40304c0.18732,-0.2952 0.24266,-0.99201 0.24266,-2.01238l0,-12.05156c0,-1.02037 -0.05534,-1.71717 -0.24266,-2.01237c-0.16037,-0.26822 -0.48253,-0.34913 -1.12823,-0.40304l-1.09984,-0.0809l0,-0.80466c1.42342,0.02694 2.98026,0.0809 4.56261,0.0809c1.5838,0 3.14063,-0.05396 4.69743,-0.0809c4.29584,-0.0809 5.42264,2.09329 5.42264,4.02617c0,2.92488 -2.62973,4.67046 -5.23389,5.17996l6.0939,7.94448c0.40163,0.53642 0.99199,0.64431 1.63489,0.69822l0,0.80466c-0.69542,-0.02694 -1.31416,-0.07946 -1.93294,-0.07946c-0.61589,0 -1.20628,0.05252 -1.82361,0.07946c-0.35052,-0.50946 -0.75217,-0.96646 -1.10126,-1.44896l-4.93872,-6.62892c-0.42717,-0.59176 -0.93805,-1.10125 -1.39505,-1.66468l0.16039,-0.32214c0.72519,0.05393 1.55682,0.02694 2.36148,-0.10788c1.879,-0.32213 3.48975,-1.77111 3.48975,-3.75793c0,-2.89798 -2.1472,-3.70262 -4.23903,-3.70262c-1.20912,0 -1.98683,0.13339 -2.73901,0.32214"/>
   <path fill="#ffffff" fill-rule="nonzero" id="path98" d="m227.60135,26.36965l-0.16037,-1.52987c-0.07945,-0.72517 -0.18732,-0.99342 -1.18076,-1.61075c-0.75214,-0.45553 -1.87894,-0.64429 -2.92488,-0.64429c-1.8804,0 -3.97368,1.26162 -3.97368,3.91832c0,1.82648 1.07433,2.95328 4.42923,3.32938c3.78351,0.4016 6.17195,1.34112 6.17195,4.40222c0,4.58818 -4.10707,6.79072 -8.10342,6.79072c-1.88043,0 -3.70404,-0.59178 -4.59244,-1.02037c0.21571,-1.39647 0.21571,-2.8454 0.19017,-4.10709l0.85716,0l0.21573,1.79809c0.13336,1.12686 2.25363,2.1472 4.37526,2.1472c2.41548,0 4.80243,-1.4759 4.80243,-4.1326c0,-2.55024 -1.98537,-3.27402 -4.72295,-3.59755c-4.2121,-0.48255 -5.87674,-1.79812 -5.87674,-4.58965c0,-4.15957 3.65009,-6.06548 6.87016,-6.06548c2.14717,0 3.75795,0.69824 4.8578,1.12681c-0.26823,1.36955 -0.37465,2.52326 -0.37465,3.78491"/>
   <path fill="#ffffff" fill-rule="nonzero" id="path102" d="m237.60777,37.26689c0,1.02037 0.05533,1.71719 0.24127,2.01238c0.16176,0.26821 0.48389,0.3761 1.12819,0.40304l1.28862,0.08089l0,0.80466c-1.39502,-0.05388 -2.6581,-0.07946 -3.89136,-0.07946c-1.31557,0 -2.57721,0.02559 -3.97369,0.07946l0,-0.80466l1.2886,-0.08089c0.64429,-0.02694 0.96788,-0.13483 1.12685,-0.40304c0.18875,-0.2952 0.24269,-0.99201 0.24269,-2.01238l0,-12.05156c0,-1.02037 -0.05394,-1.71717 -0.24269,-2.01237c-0.15897,-0.26822 -0.48253,-0.37606 -1.12685,-0.40304l-1.2886,-0.0809l0,-0.80466c1.39648,0.05393 2.65814,0.0809 3.97369,0.0809c1.23326,0 2.49634,-0.02697 3.89136,-0.0809l0,0.80466l-1.28862,0.0809c-0.64432,0.02698 -0.96643,0.13482 -1.12819,0.40304c-0.18594,0.2952 -0.24127,0.99199 -0.24127,2.01237"/>
   <path fill="#ffffff" fill-rule="nonzero" id="path106" d="m248.30885,25.9137c0,-1.02039 -0.02699,-1.87899 -0.10648,-2.68507l-4.16093,0c-0.80612,0 -1.02045,0.24267 -1.07292,0.88698l-0.10783,2.12022l-0.83307,0c0,-1.4504 -0.05391,-2.9263 -0.18591,-4.32133c1.93147,0 3.86299,0.07946 5.79588,0.07946l3.89276,0c1.9315,0 3.86441,-0.07946 5.79588,-0.07946c-0.13339,1.39503 -0.18591,2.87093 -0.18591,4.32133l-0.83163,0l-0.10782,-2.12022c-0.05539,-0.64431 -0.26828,-0.88698 -1.0744,-0.88698l-4.15959,0c-0.0822,0.80608 -0.10782,1.66468 -0.10782,2.68507l0,11.35332c0,1.02036 0.05391,1.71717 0.2413,2.01237c0.16031,0.26821 0.4825,0.3761 1.12819,0.40304l1.28577,0.08091l0,0.80464c-1.39357,-0.05386 -2.65526,-0.07946 -3.89133,-0.07946c-1.31413,0 -2.57579,0.0256 -3.97221,0.07946l0,-0.80464l1.29004,-0.08091c0.64426,-0.02694 0.96503,-0.13483 1.12675,-0.40304c0.1888,-0.2952 0.24129,-0.99201 0.24129,-2.01237"/>
   <path fill="#ffffff" fill-rule="nonzero" id="path110" d="m116.59219,64.20408c1.3681,-1.58381 2.01239,-4.77693 2.01239,-6.87164c0,-1.63626 -0.48254,-3.43578 -2.49633,-3.43578c-0.56339,0 -1.2077,0.10784 -1.63628,0.45695c-1.63769,1.31557 -2.36288,5.34174 -2.36288,7.30022c0,1.71859 0.51089,3.43578 2.52328,3.43578c0.80604,0 1.47588,-0.32213 1.95986,-0.88554m-6.52248,-2.3885c0,-3.59755 1.39645,-6.68283 4.29438,-8.18714c0.83164,-0.42859 1.63774,-0.75072 2.71061,-0.75072c2.52327,0 3.56921,1.82501 3.56921,4.13259c0,2.2281 -0.88414,4.91173 -2.28059,6.65731c-1.07288,1.34109 -3.03278,2.44237 -4.77832,2.44237c-2.65668,0 -3.51526,-1.95984 -3.51526,-4.2944"/>
   <path fill="#ffffff" fill-rule="nonzero" id="path114" d="m126.41042,55.53455c-0.61594,2.81844 -1.90595,9.17915 -2.63114,11.56763c-0.66984,2.17416 -1.60934,3.70541 -2.70918,4.69743c-0.83307,0.75072 -1.9329,1.42339 -2.95327,1.42339c-0.26825,0 -0.7777,-0.10784 -0.93949,-0.21566c0.16179,-0.2952 0.59178,-1.90598 0.61874,-2.14722l0.37324,-0.10788c0.2966,0.40305 0.6727,0.77914 1.28861,0.77914c0.51089,0 1.50291,0.02694 2.36292,-2.41542c0.83305,-2.38847 2.52328,-12.74979 2.62972,-13.58142l-2.17275,0l0.13342,-0.59036c0.77912,-0.2683 1.52985,-0.61737 2.30898,-0.99343l0.4016,-2.12021c0.16178,-0.80474 0.29662,-1.42204 0.53786,-1.90596c0.24127,-0.53643 0.45701,-0.77772 0.6713,-1.019c0.29375,-0.32217 2.60275,-2.17412 3.46133,-2.57721c0.32216,-0.13335 0.67128,-0.18874 0.9395,-0.18874c0.48251,0 1.47595,0.13482 1.87756,0.34912c-0.21288,0.59034 -0.56342,1.58377 -0.75072,2.20111l-0.26825,0.10784c-0.32214,-0.59036 -1.15376,-1.04731 -1.90594,-1.04731c-0.8586,0 -1.42201,0.48389 -1.82362,1.26161c-0.18874,0.3761 -0.43002,1.15382 -0.61877,2.0663l-0.56339,3.00724c0.67268,0 1.50292,0 2.0138,-0.05393c0.26822,-0.02697 0.53645,-0.10788 0.85719,-0.18874l0.10927,0.18874c-0.13484,0.32215 -0.34912,1.02037 -0.457,1.50289"/>
   <path fill="#ffffff" fill-rule="nonzero" id="path118" d="m142.28195,64.4994c0.75359,0.18732 2.14861,0.21429 3.06114,0.21429c1.33968,0 2.89932,-0.0809 4.37529,-0.77772c2.95187,-1.36949 4.26741,-4.13402 4.26741,-7.75715c0,-6.65591 -3.81187,-7.86359 -8.6427,-7.86359c-0.91254,0 -2.30757,0.02694 -3.06114,0.2143l0,15.96987zm-2.54884,-13.9575c0,-1.01899 -0.05391,-1.71721 -0.24127,-2.01237c-0.16032,-0.26822 -0.48392,-0.34911 -1.12679,-0.40304l-1.07574,-0.08091l0,-0.80469c1.79808,0.02694 3.51669,0.0809 5.28783,0.0809c1.77255,0 3.49113,-0.05391 4.67047,-0.0809c5.50211,-0.13483 9.60921,2.97883 9.60921,8.18576c0,4.40229 -2.52328,8.1872 -5.77036,9.52831c-1.63771,0.67126 -3.35492,0.99339 -5.74339,0.93947c-1.0743,-0.02697 -2.25504,-0.07946 -3.46274,-0.07946c-1.20772,0 -2.38847,0.05249 -3.65152,0.07946l0,-0.61731l0.83449,-0.42859c0.45555,-0.24129 0.66983,-0.85863 0.66983,-1.58381"/>
   <path fill="#ffffff" fill-rule="nonzero" id="path122" d="m161.47546,50.54234c0,-1.02039 -0.05392,-1.71719 -0.24126,-2.01382c-0.1618,-0.2682 -0.48396,-0.37605 -1.12822,-0.4016l-1.28862,-0.0809l0,-0.80464c1.47594,0.02692 3.00577,0.07947 4.53708,0.07947c2.33311,0 4.80244,-0.07947 6.33374,-0.07947c1.20772,0 2.41542,0.02692 3.46133,0.07947c-0.29376,1.18073 -0.42857,2.71199 -0.42857,4.0801l-0.94092,0l0,-1.74416c0,-0.34911 -0.02554,-0.64431 -0.23984,-0.72521c-1.4234,-0.53643 -3.54366,-0.56342 -5.26225,-0.56342c-0.7238,0 -1.50146,0.02699 -2.25504,0.21429l0,7.16682c0.86,0.05391 1.82785,0.08089 3.11507,0.08089c1.63771,0 2.55025,-0.10788 2.84541,-0.29518c0.13342,-0.10789 0.18735,-0.34912 0.21431,-0.69823l0.13481,-1.39649l0.80467,0c-0.02557,1.1013 -0.07948,2.12028 -0.07948,3.11366c0,0.99343 0.05391,2.01381 0.07948,2.97883l-0.80467,0l-0.13481,-1.58236c-0.02696,-0.34911 -0.08089,-0.59039 -0.21431,-0.67126c-0.29517,-0.21429 -1.2077,-0.32217 -2.84541,-0.32217c-1.28719,0 -2.28203,0 -3.11507,0.0809l0,7.5145c0.75359,0.18876 1.53122,0.21571 2.25504,0.21571c2.20111,0 4.94151,-0.08086 5.42262,-0.34913c0.40308,-0.21424 0.75073,-1.39645 0.9409,-3.00721l0.9381,0c-0.26683,1.28859 -0.43004,2.9533 -0.43004,4.40226c-1.18074,0.02697 -3.30098,0.10787 -5.28638,0.0809c-2.06631,-0.02695 -4.18654,-0.0809 -5.85123,-0.0809c-1.02037,0 -1.90593,0.05396 -2.87239,0.0809l0,-0.80466l0.96646,-0.0809c0.64429,-0.05391 0.96642,-0.13481 1.12822,-0.40304c0.18732,-0.2952 0.24126,-0.99344 0.24126,-2.01239"/>
   <path fill="#ffffff" fill-rule="nonzero" id="path126" d="m181.17503,62.59333c0,1.02037 0.05391,1.7172 0.24126,2.01382c0.1604,0.2682 0.48393,0.37466 1.12686,0.40161l1.29001,0.0809l0,0.80469c-1.39644,-0.05392 -2.65811,-0.07948 -3.89278,-0.07948c-1.31415,0 -2.57721,0.02557 -3.97226,0.07948l0,-0.80469l1.28719,-0.0809c0.64571,-0.02695 0.96646,-0.13342 1.12964,-0.40161c0.18593,-0.29662 0.24129,-0.99345 0.24129,-2.01382l0,-12.05156c0,-1.01894 -0.05536,-1.71717 -0.24129,-2.01239c-0.16318,-0.2682 -0.48393,-0.34911 -1.12964,-0.40302l-1.09987,-0.0809l0,-0.80466c1.42203,0.02694 2.98029,0.08091 4.56264,0.08091c1.5838,0 3.14064,-0.05397 4.69743,-0.08091c4.29581,-0.0809 5.42265,2.09327 5.42265,4.02619c0,2.92487 -2.63113,4.67044 -5.23532,5.17994l6.09531,7.94448c0.40163,0.53645 0.99202,0.64432 1.6349,0.69825l0,0.80463c-0.69681,-0.02692 -1.31413,-0.07946 -1.93289,-0.07946c-0.61595,0 -1.20631,0.05254 -1.82506,0.07946c-0.3477,-0.50944 -0.75076,-0.96644 -1.09988,-1.44896l-4.93869,-6.62891c-0.42719,-0.59039 -0.9395,-1.10127 -1.39647,-1.66469l0.1618,-0.32214c0.72516,0.05391 1.55681,0.02694 2.36148,-0.10789c1.87897,-0.32069 3.48973,-1.7711 3.48973,-3.75791c0,-2.89796 -2.14581,-3.70262 -4.23906,-3.70262c-1.20912,0 -1.98683,0.13339 -2.73898,0.32214"/>
   <path fill="#009090" fill-rule="nonzero" id="path130" d="m22.38682,21.88482l-0.06812,26.51143l8.90811,-8.81161c0,0 2.80711,-3.05401 6.64596,-2.72477c3.34355,0.24834 5.20124,2.1472 5.20124,2.1472l1.52701,1.40352l6.35787,-6.27411c0,0 2.47644,-2.35295 5.90232,-2.3118c3.42587,0.04114 5.98602,2.51761 6.93545,3.6742l6.10954,-6.1095c0,0 3.13634,-3.05545 7.18238,-2.43529c3.38469,0.53646 5.49075,3.05405 5.49075,3.05405l18.32853,18.32855l0.02271,-26.54266"/>
   <path fill="#009090" fill-rule="nonzero" id="path132" d="m22.38739,65.89942l78.54375,0l0,-5.41838l-78.54375,0l0,5.41838z"/>
   <path fill="#009090" fill-rule="nonzero" id="path136" d="m40.26166,43.12999c0,0 -1.23326,-1.15094 -2.26498,-1.25454c-1.03175,-0.10218 -2.02232,0.1036 -3.13778,1.17651c-1.11405,1.07428 -4.33413,4.31422 -4.33413,4.31422l-8.15311,8.17299l30.23817,-0.01984"/>
   <path fill="#009090" fill-rule="nonzero" id="path140" d="m59.62318,38.09696c0,0 -1.23326,-1.15094 -2.26498,-1.25456c-1.03175,-0.10216 -2.02231,0.10361 -3.1378,1.17651c-1.11403,1.0743 -6.04138,5.87251 -6.04138,5.87251l11.40159,11.53921l17.20881,0"/>
   <path fill="#009090" fill-rule="nonzero" id="path144" d="m78.67902,33.12078c0,0 -1.23325,-1.15094 -2.26498,-1.25311c-1.03175,-0.1036 -2.02232,0.10217 -3.13781,1.17507c-1.11401,1.07428 -6.04137,5.87251 -6.04137,5.87251l16.47935,16.51483l17.20879,0"/>
 </g>
</svg>