<svg xmlns="http://www.w3.org/2000/svg" xmlns:xlink="http://www.w3.org/1999/xlink" style="isolation:isolate" viewBox="64 79.4 367.4 166" width="470.87095579741873" height="212.37241067597864"><g><g><g><path d=" M 73.3 207 L 64 183 L 69.8 183 L 76.5 201.5 L 83.1 183 L 88.9 183 L 79.6 207 L 73.3 207 L 73.3 207 Z " fill="rgb(0,59,92)"/><path d=" M 105.5 207 L 104 202.9 L 93.8 202.9 L 92.3 207 L 86.5 207 L 95.8 183 L 102.2 183 L 111.5 207 L 105.5 207 L 105.5 207 Z  M 98.9 188.1 L 95.2 198.4 L 102.7 198.4 L 98.9 188.1 L 98.9 188.1 Z " fill="rgb(0,59,92)"/><path d=" M 130.9 207 L 119.5 191.3 L 119.5 207 L 114.4 207 L 114.4 183 L 119.7 183 L 130.8 198.1 L 130.8 183 L 135.9 183 L 135.9 207 L 130.9 207 L 130.9 207 Z " fill="rgb(0,59,92)"/><path d=" M 140.2 195 C 140.2 187.6 145.8 182.6 153 182.6 C 158.3 182.6 161.4 185.5 163 188.5 L 158.6 190.7 C 157.6 188.8 155.4 187.2 152.9 187.2 C 148.5 187.2 145.4 190.5 145.4 195.1 C 145.4 199.6 148.6 203 152.9 203 C 155.4 203 157.5 201.5 158.6 199.5 L 163 201.6 C 161.3 204.6 158.2 207.5 153 207.5 C 145.8 207.4 140.2 202.4 140.2 195 Z " fill="rgb(0,59,92)"/><path d=" M 165.2 195 C 165.2 187.8 170.5 182.6 177.7 182.6 C 185 182.6 190.3 187.8 190.3 195 C 190.3 202.2 185 207.4 177.7 207.4 C 170.5 207.4 165.2 202.2 165.2 195 Z  M 185 195 C 185 190.5 182.1 187.1 177.7 187.1 C 173.3 187.1 170.4 190.5 170.4 195 C 170.4 199.5 173.2 202.9 177.7 202.9 C 182.1 202.9 185 199.5 185 195 Z " fill="rgb(0,59,92)"/><path d=" M 194.5 197.4 L 194.5 183 L 199.7 183 L 199.7 197.3 C 199.7 200.6 201.6 203 205.4 203 C 209.1 203 211 200.7 211 197.3 L 211 183 L 216.2 183 L 216.2 197.4 C 216.2 203.4 212.7 207.4 205.4 207.4 C 198 207.4 194.5 203.3 194.5 197.4 Z " fill="rgb(0,59,92)"/><path d=" M 228.4 207 L 219.1 183 L 224.9 183 L 231.6 201.5 L 238.2 183 L 244 183 L 234.7 207 L 228.4 207 L 228.4 207 Z " fill="rgb(0,59,92)"/><path d=" M 247.1 207 L 247.1 183 L 264.1 183 L 264.1 187.5 L 252.2 187.5 L 252.2 192.6 L 263.8 192.6 L 263.8 197.1 L 252.2 197.1 L 252.2 202.5 L 264.1 202.5 L 264.1 207 L 247.1 207 L 247.1 207 Z " fill="rgb(0,59,92)"/><path d=" M 282.8 207 L 278.1 198.5 L 274.4 198.5 L 274.4 207 L 269.3 207 L 269.3 183 L 280.5 183 C 285.5 183 288.6 186.3 288.6 190.7 C 288.6 194.9 285.9 197.2 283.3 197.8 L 288.7 206.9 L 282.8 206.9 L 282.8 207 Z  M 283.3 190.7 C 283.3 188.7 281.8 187.5 279.7 187.5 L 274.3 187.5 L 274.3 194 L 279.7 194 C 281.7 194 283.3 192.7 283.3 190.7 Z " fill="rgb(0,59,92)"/><path d=" M 303.4 207 L 303.4 183 L 308.5 183 L 308.5 207 L 303.4 207 L 303.4 207 Z " fill="rgb(0,59,92)"/><path d=" M 312.4 203.6 L 315.2 199.7 C 316.9 201.5 319.5 202.9 322.8 202.9 C 325.6 202.9 327 201.6 327 200.2 C 327 196 313.2 198.9 313.2 189.8 C 313.2 185.8 316.7 182.5 322.3 182.5 C 326.1 182.5 329.3 183.7 331.7 185.8 L 328.9 189.5 C 327 187.7 324.4 186.9 321.9 186.9 C 319.7 186.9 318.5 187.9 318.5 189.3 C 318.5 193.1 332.3 190.6 332.3 199.5 C 332.3 203.9 329.2 207.2 322.7 207.2 C 317.9 207.4 314.6 205.9 312.4 203.6 Z " fill="rgb(0,59,92)"/><path d=" M 336.4 207 L 336.4 183 L 341.5 183 L 341.5 202.5 L 351.7 202.5 L 351.7 207 L 336.4 207 L 336.4 207 Z " fill="rgb(0,59,92)"/><path d=" M 373.2 207 L 371.7 202.9 L 361.4 202.9 L 359.9 207 L 354.1 207 L 363.4 183 L 369.8 183 L 379.1 207 L 373.2 207 L 373.2 207 Z  M 366.6 188.1 L 362.9 198.4 L 370.4 198.4 L 366.6 188.1 L 366.6 188.1 Z " fill="rgb(0,59,92)"/><path d=" M 398.6 207 L 387.2 191.3 L 387.2 207 L 382 207 L 382 183 L 387.3 183 L 398.4 198.1 L 398.4 183 L 403.5 183 L 403.5 207 L 398.6 207 L 398.6 207 Z " fill="rgb(0,59,92)"/><path d=" M 409.2 207 L 409.2 183 L 418.7 183 C 426.2 183 431.4 187.8 431.4 195 C 431.4 202.2 426.2 207 418.7 207 L 409.2 207 L 409.2 207 Z  M 426.2 195 C 426.2 190.8 423.6 187.5 418.7 187.5 L 414.3 187.5 L 414.3 202.5 L 418.7 202.5 C 423.4 202.5 426.2 199.1 426.2 195 Z " fill="rgb(0,59,92)"/><path d=" M 120.4 236 L 120.4 222.3 L 124.4 222.3 L 124.4 235.9 C 124.4 239.5 126.4 241.8 130.2 241.8 C 134 241.8 136 239.5 136 235.9 L 136 222.3 L 140 222.3 L 140 236 C 140 241.6 136.8 245.4 130.2 245.4 C 123.6 245.4 120.4 241.6 120.4 236 Z " fill="rgb(0,59,92)"/><path d=" M 168.8 245 L 157 228.8 L 157 245 L 153 245 L 153 222.3 L 157.1 222.3 L 168.7 238 L 168.7 222.3 L 172.7 222.3 L 172.7 245 L 168.8 245 L 168.8 245 Z " fill="rgb(0,59,92)"/><path d=" M 185.7 245 L 185.7 222.3 L 189.7 222.3 L 189.7 245 L 185.7 245 L 185.7 245 Z " fill="rgb(0,59,92)"/><path d=" M 209.1 245 L 200.2 222.3 L 204.7 222.3 L 211.6 240.7 L 218.5 222.3 L 223 222.3 L 214.1 245 L 209.1 245 L 209.1 245 Z " fill="rgb(0,59,92)"/><path d=" M 233.6 245 L 233.6 222.3 L 249.1 222.3 L 249.1 225.8 L 237.5 225.8 L 237.5 231.7 L 248.8 231.7 L 248.8 235.2 L 237.5 235.2 L 237.5 241.5 L 249.1 241.5 L 249.1 245 L 233.6 245 L 233.6 245 Z " fill="rgb(0,59,92)"/><path d=" M 274.5 245 L 269.5 236.5 L 265.6 236.5 L 265.6 245 L 261.6 245 L 261.6 222.3 L 271.6 222.3 C 276.1 222.3 279 225.2 279 229.4 C 279 233.4 276.3 235.6 273.6 236.1 L 279.1 245 L 274.5 245 L 274.5 245 Z  M 274.9 229.4 C 274.9 227.2 273.3 225.8 271 225.8 L 265.6 225.8 L 265.6 233 L 271 233 C 273.2 233 274.9 231.6 274.9 229.4 Z " fill="rgb(0,59,92)"/><path d=" M 289.3 241.8 L 291.5 238.7 C 293.1 240.4 295.5 241.8 298.7 241.8 C 302 241.8 303.3 240.2 303.3 238.7 C 303.3 233.9 290.1 236.9 290.1 228.5 C 290.1 224.8 293.4 221.9 298.4 221.9 C 301.9 221.9 304.8 223 306.9 225.1 L 304.6 228.1 C 302.8 226.3 300.4 225.5 298 225.5 C 295.7 225.5 294.2 226.6 294.2 228.3 C 294.2 232.5 307.4 229.9 307.4 238.4 C 307.4 242.2 304.7 245.4 298.6 245.4 C 294.4 245.4 291.3 243.9 289.3 241.8 Z " fill="rgb(0,59,92)"/><path d=" M 319.2 245 L 319.2 222.3 L 323.2 222.3 L 323.2 245 L 319.2 245 L 319.2 245 Z " fill="rgb(0,59,92)"/><path d=" M 341 245 L 341 225.8 L 334.1 225.8 L 334.1 222.3 L 351.8 222.3 L 351.8 225.8 L 345 225.8 L 345 245 L 341 245 L 341 245 Z " fill="rgb(0,59,92)"/><path d=" M 366 245 L 366 235.6 L 357.2 222.3 L 361.8 222.3 L 368.1 232 L 374.3 222.3 L 378.9 222.3 L 370.1 235.6 L 370.1 245 L 366 245 L 366 245 Z " fill="rgb(0,59,92)"/></g><g><path d=" M 185.4 128.6 C 185.4 128.6 204.1 107.1 226.4 106.2 C 248.7 105.3 267.8 114.5 280.9 114.1 C 294 113.7 303.1 109.8 310.9 104.1 C 310.9 104 313.2 108.4 308.2 110.1 C 303.2 111.8 293.2 115.8 301.5 122.3 C 304.2 124 307.2 125.8 301.8 125.7 C 296.4 125.6 265.8 125.1 259.1 146.8 C 258.9 146.9 255.4 143.9 254.6 143.7 C 253.7 143.5 248.4 149.4 247.9 152.4 C 247.9 152.4 245.7 148.1 245.3 145.9 C 244.9 143.7 244.6 140.7 244.6 140.7 C 243.9 140.1 238.5 142.8 237.7 143.9 C 237.8 141.7 237.2 133.1 250.2 127.3 C 240 127.7 228.2 128.4 213.3 141.8 C 213.3 141.8 212.4 132.4 215.9 124.9 C 214.8 124.6 203.2 121.9 185.4 128.6 Z " fill="rgb(0,133,202)"/><path d=" M 214 102.4 L 237.9 84.6 L 259.6 98.2 L 262 97.3 L 246.8 87 L 259.2 79.4 L 290.3 110.5 C 290.3 110.5 282.6 113 270.7 110.1 C 258.8 107.2 247.3 102.2 234.8 101.1 C 223.2 100.2 214 102.4 214 102.4 Z " fill="rgb(0,59,92)"/></g></g></g></svg>